<svg width="100%" viewBox="0 0 183 131" xmlns="http://www.w3.org/2000/svg" role="img" style=""><title style="fill:rgb(0, 0, 0);stroke:none;color:rgb(11, 11, 11);stroke-width:1px;stroke-linecap:butt;stroke-linejoin:miter;opacity:1;font-family:&quot;Anthropic Sans&quot;, -apple-system, BlinkMacSystemFont, &quot;Segoe UI&quot;, sans-serif;font-size:16px;font-weight:400;text-anchor:start;dominant-baseline:auto">base.svg floor footprint</title><desc style="fill:rgb(0, 0, 0);stroke:none;color:rgb(11, 11, 11);stroke-width:1px;stroke-linecap:butt;stroke-linejoin:miter;opacity:1;font-family:&quot;Anthropic Sans&quot;, -apple-system, BlinkMacSystemFont, &quot;Segoe UI&quot;, sans-serif;font-size:16px;font-weight:400;text-anchor:start;dominant-baseline:auto">Authored floor section: fluted rose lobe (left) joined to limaçon lobe (right) at the y=60.05 centerline; red outer wall, blue bore wall.</desc>
<rect x="0" y="0" width="173" height="121" fill="#ffffff" style="fill:rgb(255, 255, 255);stroke:none;color:rgb(11, 11, 11);stroke-width:1px;stroke-linecap:butt;stroke-linejoin:miter;opacity:1;font-family:&quot;Anthropic Sans&quot;, -apple-system, BlinkMacSystemFont, &quot;Segoe UI&quot;, sans-serif;font-size:16px;font-weight:400;text-anchor:start;dominant-baseline:auto"/>
<path id="red_outer" fill="none" stroke="#dd0000" stroke-width="0.6" d="M 8.121,60.050 L 8.118,60.752 L 8.268,61.353 L 8.488,61.909 L 8.770,62.423 L 9.110,62.897 L 9.501,63.336 L 9.937,63.741 L 10.413,64.117 L 10.922,64.466 L 11.458,64.792 L 12.015,65.098 L 12.588,65.386 L 13.169,65.661 L 13.754,65.924 L 14.336,66.180 L 14.909,66.432 L 15.468,66.682 L 16.005,66.934 L 16.528,67.172 L 17.089,67.394 L 17.661,67.671 L 18.219,67.998 L 18.740,68.372 L 19.201,68.791 L 19.578,69.251 L 19.849,69.749 L 19.990,70.281 L 19.977,70.845 L 19.788,71.437 L 19.420,72.043 L 19.127,72.565 L 18.810,73.082 L 18.472,73.594 L 18.119,74.103 L 17.754,74.610 L 17.383,75.116 L 17.008,75.623 L 16.636,76.131 L 16.269,76.642 L 15.914,77.157 L 15.572,77.677 L 15.250,78.203 L 14.952,78.736 L 14.681,79.278 L 14.442,79.830 L 14.240,80.392 L 14.079,80.967 L 13.963,81.555 L 13.896,82.157 L 13.884,82.775 L 14.026,83.402 L 14.332,83.955 L 14.704,84.419 L 15.134,84.802 L 15.617,85.110 L 16.143,85.350 L 16.708,85.529 L 17.304,85.655 L 17.924,85.734 L 18.561,85.774 L 19.209,85.781 L 19.860,85.762 L 20.508,85.725 L 21.146,85.676 L 21.766,85.622 L 22.362,85.571 L 22.927,85.530 L 23.480,85.483 L 24.086,85.410 L 24.728,85.328 L 25.390,85.252 L 26.058,85.199 L 26.714,85.183 L 27.344,85.220 L 27.932,85.326 L 28.462,85.517 L 28.917,85.808 L 29.283,86.215 L 29.544,86.753 L 29.683,87.436 L 29.725,88.026 L 29.736,88.625 L 29.722,89.233 L 29.685,89.848 L 29.632,90.468 L 29.567,91.093 L 29.494,91.721 L 29.418,92.351 L 29.343,92.981 L 29.274,93.610 L 29.217,94.236 L 29.174,94.859 L 29.152,95.476 L 29.154,96.087 L 29.185,96.690 L 29.250,97.283 L 29.354,97.866 L 29.500,98.437 L 29.694,98.994 L 29.941,99.536 L 30.244,100.063 L 30.609,100.571 L 31.054,101.034 L 31.680,101.165 L 32.294,101.225 L 32.895,101.221 L 33.484,101.156 L 34.063,101.037 L 34.631,100.868 L 35.189,100.654 L 35.738,100.401 L 36.279,100.114 L 36.812,99.798 L 37.338,99.458 L 37.858,99.100 L 38.372,98.727 L 38.880,98.346 L 39.385,97.962 L 39.885,97.580 L 40.383,97.204 L 40.878,96.841 L 41.371,96.495 L 41.863,96.171 L 42.378,95.748 L 42.931,95.418 L 43.506,95.218 L 44.088,95.141 L 44.662,95.183 L 45.212,95.339 L 45.725,95.604 L 46.184,95.973 L 46.576,96.441 L 46.884,97.003 L 47.113,97.631 L 47.378,98.185 L 47.637,98.742 L 47.890,99.302 L 48.139,99.863 L 48.388,100.424 L 48.637,100.985 L 48.890,101.544 L 49.149,102.101 L 49.415,102.654 L 49.692,103.203 L 49.980,103.747 L 50.215,104.176 L 50.528,104.701 L 50.903,105.205 L 51.330,105.676 L 51.801,106.102 L 52.308,106.471 L 52.842,106.768 L 53.394,106.983 L 53.957,107.102 L 54.521,107.112 L 55.079,107.002 L 55.621,106.758 L 56.140,106.369 L 56.623,105.873 L 57.057,105.433 L 57.453,104.965 L 57.814,104.473 L 58.145,103.960 L 58.450,103.428 L 58.734,102.881 L 59.001,102.323 L 59.254,101.755 L 59.499,101.182 L 59.739,100.606 L 59.979,100.031 L 60.223,99.460 L 60.476,98.895 L 60.741,98.340 L 61.023,97.798 L 61.326,97.273 L 61.654,96.767 L 62.012,96.283 L 62.405,95.825 L 62.835,95.396 L 63.315,95.025 L 63.921,95.138 L 64.506,95.299 L 65.073,95.503 L 65.623,95.745 L 66.158,96.021 L 66.681,96.326 L 67.194,96.655 L 67.699,97.004 L 68.199,97.367 L 68.695,97.740 L 69.189,98.118 L 69.684,98.497 L 70.183,98.871 L 70.686,99.237 L 71.197,99.588 L 71.717,99.921 L 72.249,100.231 L 72.795,100.512 L 73.357,100.761 L 73.932,100.983 L 74.477,101.269 L 75.024,101.553 L 75.572,101.833 L 76.121,102.110 L 76.672,102.384 L 77.225,102.654 L 77.778,102.922 L 78.333,103.186 L 78.890,103.447 L 79.448,103.705 L 80.007,103.960 L 80.567,104.212 L 81.129,104.460 L 81.692,104.706 L 82.257,104.948 L 82.823,105.187 L 83.390,105.423 L 83.958,105.655 L 84.527,105.884 L 85.098,106.111 L 85.670,106.333 L 86.243,106.553 L 86.817,106.770 L 87.393,106.983 L 87.970,107.193 L 88.547,107.400 L 89.126,107.603 L 89.706,107.804 L 90.288,108.001 L 90.870,108.195 L 91.453,108.386 L 92.038,108.573 L 92.623,108.757 L 93.210,108.938 L 93.797,109.116 L 94.386,109.290 L 94.975,109.461 L 95.566,109.629 L 96.158,109.794 L 96.750,109.955 L 97.344,110.113 L 97.938,110.268 L 98.533,110.420 L 99.130,110.568 L 99.727,110.713 L 100.325,110.855 L 100.924,110.993 L 101.523,111.128 L 102.124,111.260 L 102.725,111.388 L 103.328,111.513 L 103.931,111.635 L 104.535,111.754 L 105.138,111.892 L 105.741,112.029 L 106.346,112.156 L 106.952,112.275 L 107.560,112.384 L 108.168,112.485 L 108.777,112.577 L 109.387,112.659 L 109.997,112.733 L 110.609,112.799 L 111.220,112.855 L 111.832,112.903 L 112.445,112.943 L 113.058,112.973 L 113.670,112.996 L 114.283,113.009 L 114.896,113.015 L 115.509,113.012 L 116.122,113.000 L 116.734,112.981 L 117.346,112.953 L 117.958,112.916 L 118.569,112.872 L 119.179,112.820 L 119.789,112.759 L 120.398,112.691 L 121.006,112.614 L 121.612,112.529 L 122.218,112.437 L 122.823,112.337 L 123.426,112.229 L 124.028,112.113 L 124.629,111.989 L 125.228,111.858 L 125.826,111.719 L 126.421,111.573 L 127.015,111.419 L 127.607,111.257 L 128.198,111.088 L 128.786,110.912 L 129.371,110.728 L 129.955,110.537 L 130.536,110.338 L 131.115,110.133 L 131.692,109.920 L 132.265,109.700 L 132.837,109.473 L 133.405,109.239 L 133.970,108.998 L 134.533,108.750 L 135.092,108.495 L 135.649,108.233 L 136.202,107.964 L 136.752,107.689 L 137.298,107.407 L 137.841,107.118 L 138.380,106.822 L 138.916,106.520 L 139.448,106.211 L 139.976,105.896 L 140.500,105.574 L 141.020,105.246 L 141.536,104.912 L 142.048,104.571 L 142.555,104.224 L 143.058,103.870 L 143.557,103.511 L 144.051,103.145 L 144.541,102.773 L 145.025,102.395 L 145.505,102.011 L 145.980,101.621 L 146.450,101.225 L 146.915,100.823 L 147.375,100.415 L 147.829,100.002 L 148.278,99.583 L 148.722,99.158 L 149.160,98.727 L 149.592,98.291 L 150.019,97.849 L 150.440,97.401 L 150.855,96.949 L 151.264,96.490 L 151.667,96.026 L 152.068,95.559 L 152.471,95.091 L 152.867,94.618 L 153.257,94.140 L 153.641,93.658 L 154.019,93.171 L 154.390,92.679 L 154.755,92.184 L 155.114,91.684 L 155.466,91.180 L 155.813,90.672 L 156.152,90.160 L 156.486,89.644 L 156.813,89.124 L 157.134,88.601 L 157.448,88.074 L 157.756,87.543 L 158.058,87.008 L 158.353,86.470 L 158.642,85.929 L 158.925,85.385 L 159.201,84.837 L 159.470,84.286 L 159.734,83.732 L 159.991,83.175 L 160.241,82.615 L 160.485,82.052 L 160.722,81.486 L 160.953,80.918 L 161.178,80.347 L 161.396,79.773 L 161.607,79.198 L 161.812,78.619 L 162.010,78.039 L 162.202,77.456 L 162.388,76.871 L 162.567,76.284 L 162.739,75.694 L 162.905,75.103 L 163.064,74.510 L 163.216,73.916 L 163.362,73.319 L 163.502,72.721 L 163.635,72.122 L 163.761,71.521 L 163.880,70.918 L 163.993,70.315 L 164.100,69.710 L 164.199,69.104 L 164.292,68.497 L 164.379,67.888 L 164.458,67.279 L 164.531,66.669 L 164.597,66.059 L 164.657,65.447 L 164.710,64.835 L 164.756,64.222 L 164.795,63.609 L 164.828,62.996 L 164.854,62.382 L 164.873,61.768 L 164.886,61.154 L 164.891,60.540 L 164.892,59.806 L 164.889,59.192 L 164.879,58.577 L 164.863,57.963 L 164.839,57.350 L 164.809,56.736 L 164.773,56.123 L 164.729,55.510 L 164.679,54.898 L 164.622,54.286 L 164.559,53.675 L 164.488,53.065 L 164.411,52.455 L 164.328,51.847 L 164.237,51.239 L 164.140,50.633 L 164.037,50.027 L 163.926,49.423 L 163.809,48.820 L 163.686,48.218 L 163.556,47.618 L 163.419,47.020 L 163.276,46.423 L 163.126,45.827 L 162.969,45.234 L 162.806,44.642 L 162.636,44.052 L 162.460,43.464 L 162.277,42.878 L 162.088,42.294 L 161.892,41.713 L 161.690,41.134 L 161.481,40.557 L 161.266,39.982 L 161.044,39.410 L 160.815,38.841 L 160.580,38.274 L 160.339,37.710 L 160.091,37.149 L 159.837,36.591 L 159.577,36.035 L 159.309,35.483 L 159.036,34.934 L 158.756,34.388 L 158.470,33.846 L 158.177,33.306 L 157.878,32.771 L 157.572,32.238 L 157.260,31.710 L 156.942,31.184 L 156.618,30.663 L 156.287,30.146 L 155.949,29.632 L 155.606,29.122 L 155.256,28.617 L 154.899,28.115 L 154.537,27.618 L 154.168,27.125 L 153.793,26.637 L 153.411,26.153 L 153.024,25.673 L 152.630,25.198 L 152.230,24.727 L 151.826,24.261 L 151.426,23.795 L 151.019,23.334 L 150.606,22.879 L 150.188,22.429 L 149.763,21.985 L 149.333,21.547 L 148.897,21.114 L 148.456,20.687 L 148.009,20.265 L 147.557,19.849 L 147.099,19.439 L 146.637,19.035 L 146.169,18.637 L 145.696,18.244 L 145.218,17.858 L 144.735,17.478 L 144.247,17.103 L 143.755,16.735 L 143.258,16.373 L 142.757,16.017 L 142.251,15.667 L 141.741,15.324 L 141.227,14.987 L 140.708,14.656 L 140.186,14.332 L 139.659,14.014 L 139.129,13.703 L 138.595,13.398 L 138.057,13.100 L 137.516,12.808 L 136.971,12.523 L 136.422,12.245 L 135.870,11.974 L 135.315,11.709 L 134.757,11.451 L 134.196,11.200 L 133.631,10.957 L 133.064,10.720 L 132.494,10.490 L 131.922,10.267 L 131.346,10.051 L 130.768,9.843 L 130.188,9.642 L 129.605,9.448 L 129.020,9.261 L 128.433,9.082 L 127.844,8.910 L 127.252,8.745 L 126.659,8.588 L 126.064,8.439 L 125.467,8.297 L 124.869,8.162 L 124.269,8.036 L 123.667,7.917 L 123.064,7.806 L 122.460,7.702 L 121.855,7.607 L 121.248,7.519 L 120.641,7.439 L 120.032,7.367 L 119.423,7.304 L 118.813,7.248 L 118.202,7.200 L 117.591,7.161 L 116.979,7.130 L 116.367,7.107 L 115.754,7.092 L 115.142,7.085 L 114.529,7.087 L 113.916,7.098 L 113.303,7.117 L 112.690,7.144 L 112.077,7.180 L 111.465,7.224 L 110.853,7.278 L 110.242,7.339 L 109.631,7.410 L 109.021,7.489 L 108.411,7.577 L 107.803,7.674 L 107.195,7.780 L 106.589,7.895 L 105.983,8.019 L 105.379,8.152 L 104.776,8.294 L 104.172,8.417 L 103.569,8.537 L 102.966,8.661 L 102.364,8.788 L 101.763,8.919 L 101.163,9.053 L 100.564,9.190 L 99.966,9.330 L 99.368,9.474 L 98.772,9.621 L 98.176,9.771 L 97.581,9.924 L 96.987,10.081 L 96.395,10.241 L 95.803,10.404 L 95.212,10.571 L 94.622,10.741 L 94.033,10.914 L 93.445,11.090 L 92.858,11.270 L 92.272,11.453 L 91.687,11.639 L 91.103,11.828 L 90.520,12.021 L 89.939,12.217 L 89.358,12.416 L 88.779,12.618 L 88.201,12.824 L 87.623,13.033 L 87.048,13.245 L 86.473,13.460 L 85.899,13.678 L 85.327,13.900 L 84.755,14.125 L 84.185,14.353 L 83.617,14.584 L 83.049,14.819 L 82.483,15.056 L 81.918,15.297 L 81.354,15.541 L 80.792,15.788 L 80.231,16.039 L 79.671,16.292 L 79.113,16.549 L 78.556,16.809 L 78.000,17.072 L 77.446,17.338 L 76.893,17.608 L 76.341,17.880 L 75.791,18.156 L 75.243,18.435 L 74.696,18.717 L 74.150,19.002 L 73.587,19.250 L 73.018,19.484 L 72.466,19.753 L 71.928,20.052 L 71.404,20.376 L 70.889,20.721 L 70.383,21.081 L 69.883,21.452 L 69.387,21.830 L 68.892,22.209 L 68.397,22.585 L 67.900,22.952 L 67.397,23.307 L 66.887,23.645 L 66.369,23.960 L 65.838,24.248 L 65.295,24.505 L 64.735,24.725 L 64.158,24.903 L 63.560,25.036 L 63.019,24.867 L 62.572,24.450 L 62.165,24.003 L 61.794,23.529 L 61.454,23.032 L 61.141,22.514 L 60.851,21.978 L 60.580,21.428 L 60.323,20.867 L 60.076,20.298 L 59.835,19.724 L 59.595,19.148 L 59.353,18.574 L 59.103,18.003 L 58.843,17.441 L 58.566,16.889 L 58.270,16.351 L 57.950,15.830 L 57.601,15.329 L 57.220,14.851 L 56.802,14.400 L 56.339,13.931 L 55.832,13.479 L 55.298,13.179 L 54.746,13.017 L 54.183,12.980 L 53.619,13.057 L 53.061,13.235 L 52.519,13.501 L 52.000,13.843 L 51.514,14.247 L 51.068,14.702 L 50.671,15.195 L 50.332,15.712 L 50.099,16.137 L 49.805,16.679 L 49.525,17.225 L 49.255,17.777 L 48.993,18.333 L 48.738,18.891 L 48.487,19.451 L 48.239,20.013 L 47.990,20.574 L 47.738,21.134 L 47.483,21.693 L 47.220,22.248 L 46.981,22.847 L 46.710,23.445 L 46.350,23.951 L 45.916,24.361 L 45.423,24.668 L 44.885,24.868 L 44.319,24.956 L 43.739,24.928 L 43.159,24.777 L 42.595,24.499 L 42.063,24.090 L 41.568,23.738 L 41.075,23.400 L 40.581,23.043 L 40.085,22.672 L 39.585,22.291 L 39.083,21.907 L 38.576,21.524 L 38.064,21.148 L 37.547,20.783 L 37.023,20.435 L 36.493,20.109 L 35.956,19.810 L 35.410,19.542 L 34.855,19.313 L 34.291,19.125 L 33.717,18.985 L 33.132,18.898 L 32.536,18.869 L 31.927,18.903 L 31.306,19.005 L 30.773,19.331 L 30.382,19.832 L 30.055,20.351 L 29.786,20.887 L 29.572,21.439 L 29.407,22.004 L 29.287,22.582 L 29.207,23.171 L 29.163,23.771 L 29.149,24.378 L 29.162,24.993 L 29.197,25.614 L 29.250,26.239 L 29.314,26.867 L 29.387,27.497 L 29.463,28.127 L 29.538,28.756 L 29.607,29.382 L 29.666,30.005 L 29.709,30.622 L 29.733,31.233 L 29.733,31.836 L 29.704,32.429 L 29.615,33.091 L 29.401,33.687 L 29.075,34.144 L 28.654,34.480 L 28.152,34.709 L 27.585,34.847 L 26.970,34.910 L 26.323,34.913 L 25.657,34.873 L 24.991,34.804 L 24.339,34.723 L 23.717,34.644 L 23.141,34.585 L 22.593,34.547 L 22.008,34.499 L 21.396,34.445 L 20.765,34.394 L 20.120,34.351 L 19.470,34.324 L 18.820,34.320 L 18.177,34.346 L 17.550,34.408 L 16.943,34.514 L 16.365,34.671 L 15.822,34.886 L 15.321,35.166 L 14.869,35.518 L 14.473,35.949 L 14.140,36.466 L 13.895,37.073 L 13.885,37.698 L 13.930,38.306 L 14.027,38.900 L 14.171,39.480 L 14.357,40.047 L 14.581,40.603 L 14.840,41.148 L 15.128,41.685 L 15.441,42.214 L 15.775,42.736 L 16.126,43.253 L 16.488,43.765 L 16.859,44.274 L 17.233,44.781 L 17.606,45.287 L 17.974,45.794 L 18.332,46.302 L 18.677,46.813 L 19.003,47.328 L 19.306,47.847 L 19.658,48.419 L 19.924,49.022 L 20.004,49.597 L 19.922,50.142 L 19.701,50.654 L 19.363,51.129 L 18.933,51.565 L 18.433,51.958 L 17.887,52.304 L 17.318,52.601 L 16.750,52.846 L 16.213,53.064 L 15.685,53.317 L 15.135,53.568 L 14.567,53.819 L 13.988,54.072 L 13.403,54.333 L 12.819,54.603 L 12.243,54.885 L 11.679,55.184 L 11.133,55.501 L 10.613,55.840 L 10.123,56.205 L 9.670,56.598 L 9.261,57.023 L 8.900,57.483 L 8.593,57.980 L 8.348,58.519 L 8.170,59.102 L 8.064,59.732 L 8.121,60.050 Z" style="fill:none;stroke:rgb(221, 0, 0);color:rgb(11, 11, 11);stroke-width:0.6px;stroke-linecap:butt;stroke-linejoin:miter;opacity:1;font-family:&quot;Anthropic Sans&quot;, -apple-system, BlinkMacSystemFont, &quot;Segoe UI&quot;, sans-serif;font-size:16px;font-weight:400;text-anchor:start;dominant-baseline:auto"/>
<path id="blue_outer" fill="none" stroke="#0066cc" stroke-width="0.6" d="M 156.741,60.050 L 156.742,60.509 L 156.739,60.959 L 156.731,61.410 L 156.720,61.861 L 156.704,62.311 L 156.684,62.761 L 156.660,63.211 L 156.632,63.661 L 156.599,64.111 L 156.562,64.560 L 156.521,65.009 L 156.476,65.457 L 156.427,65.905 L 156.373,66.352 L 156.315,66.799 L 156.253,67.246 L 156.187,67.691 L 156.117,68.137 L 156.042,68.581 L 155.964,69.025 L 155.881,69.467 L 155.794,69.910 L 155.703,70.351 L 155.607,70.791 L 155.507,71.230 L 155.404,71.669 L 155.296,72.106 L 155.184,72.542 L 155.067,72.977 L 154.947,73.411 L 154.822,73.844 L 154.693,74.275 L 154.560,74.706 L 154.423,75.135 L 154.282,75.562 L 154.136,75.988 L 153.987,76.413 L 153.833,76.836 L 153.675,77.258 L 153.513,77.678 L 153.346,78.096 L 153.176,78.513 L 153.001,78.928 L 152.822,79.342 L 152.640,79.753 L 152.453,80.163 L 152.261,80.571 L 152.066,80.977 L 151.867,81.381 L 151.663,81.783 L 151.455,82.183 L 151.243,82.581 L 151.027,82.977 L 150.807,83.371 L 150.583,83.762 L 150.354,84.152 L 150.122,84.539 L 149.885,84.923 L 149.644,85.306 L 149.399,85.686 L 149.150,86.063 L 148.897,86.438 L 148.640,86.811 L 148.378,87.181 L 148.113,87.548 L 147.843,87.913 L 147.569,88.275 L 147.291,88.634 L 147.022,88.997 L 146.749,89.357 L 146.472,89.713 L 146.190,90.066 L 145.904,90.416 L 145.615,90.762 L 145.321,91.105 L 145.023,91.444 L 144.722,91.780 L 144.417,92.112 L 144.108,92.440 L 143.795,92.765 L 143.478,93.087 L 143.158,93.404 L 142.835,93.718 L 142.508,94.029 L 142.177,94.335 L 141.843,94.638 L 141.505,94.937 L 141.165,95.233 L 140.820,95.525 L 140.473,95.812 L 140.123,96.096 L 139.769,96.377 L 139.413,96.653 L 139.053,96.925 L 138.690,97.194 L 138.325,97.458 L 137.956,97.719 L 137.585,97.975 L 137.211,98.228 L 136.834,98.476 L 136.455,98.721 L 136.073,98.961 L 135.688,99.198 L 135.301,99.430 L 134.912,99.658 L 134.520,99.882 L 134.126,100.102 L 133.729,100.317 L 133.330,100.529 L 132.929,100.736 L 132.526,100.939 L 132.120,101.137 L 131.713,101.332 L 131.303,101.521 L 130.892,101.707 L 130.478,101.888 L 130.063,102.065 L 129.646,102.237 L 129.227,102.405 L 128.807,102.569 L 128.385,102.728 L 127.961,102.882 L 127.535,103.032 L 127.109,103.178 L 126.680,103.319 L 126.251,103.455 L 125.819,103.587 L 125.387,103.714 L 124.953,103.836 L 124.519,103.954 L 124.083,104.067 L 123.645,104.175 L 123.207,104.279 L 122.768,104.377 L 122.328,104.471 L 121.887,104.561 L 121.445,104.645 L 121.002,104.724 L 120.559,104.799 L 120.115,104.869 L 119.670,104.934 L 119.224,104.993 L 118.778,105.048 L 118.332,105.098 L 117.885,105.143 L 117.438,105.183 L 116.990,105.218 L 116.542,105.248 L 116.094,105.273 L 115.645,105.292 L 115.197,105.307 L 114.748,105.316 L 114.299,105.320 L 113.851,105.319 L 113.402,105.313 L 112.953,105.301 L 112.505,105.285 L 112.057,105.263 L 111.609,105.235 L 111.161,105.203 L 110.714,105.165 L 110.267,105.121 L 109.820,105.072 L 109.374,105.018 L 108.929,104.958 L 108.484,104.893 L 108.040,104.823 L 107.597,104.747 L 107.154,104.665 L 106.712,104.578 L 106.271,104.485 L 105.831,104.387 L 105.392,104.283 L 104.954,104.173 L 104.516,104.058 L 104.080,103.937 L 103.646,103.811 L 103.212,103.678 L 102.780,103.540 L 102.349,103.397 L 101.919,103.247 L 101.491,103.092 L 101.064,102.930 L 100.639,102.763 L 100.215,102.590 L 99.801,102.413 L 99.391,102.230 L 98.984,102.040 L 98.580,101.846 L 98.178,101.645 L 97.779,101.440 L 97.383,101.229 L 96.989,101.014 L 96.597,100.794 L 96.208,100.570 L 95.820,100.342 L 95.435,100.110 L 95.051,99.874 L 94.669,99.635 L 94.289,99.393 L 93.910,99.148 L 93.533,98.901 L 93.156,98.650 L 92.781,98.398 L 92.407,98.144 L 92.034,97.888 L 91.662,97.630 L 91.290,97.371 L 90.919,97.111 L 90.549,96.850 L 90.179,96.588 L 89.809,96.326 L 89.439,96.064 L 89.069,95.802 L 88.699,95.541 L 88.329,95.279 L 87.959,95.019 L 87.588,94.759 L 87.217,94.501 L 86.845,94.244 L 86.472,93.989 L 86.099,93.736 L 85.724,93.484 L 85.349,93.236 L 84.972,92.989 L 84.593,92.746 L 84.214,92.505 L 83.833,92.268 L 83.450,92.035 L 83.065,91.805 L 82.678,91.579 L 82.290,91.357 L 81.899,91.140 L 81.506,90.927 L 81.111,90.719 L 80.713,90.516 L 80.313,90.319 L 79.910,90.127 L 79.504,89.941 L 79.095,89.761 L 78.684,89.587 L 78.269,89.419 L 77.851,89.259 L 77.429,89.105 L 77.004,88.958 L 76.576,88.819 L 76.144,88.688 L 75.708,88.564 L 75.268,88.448 L 74.824,88.341 L 74.375,88.242 L 73.923,88.152 L 73.466,88.071 L 73.009,87.997 L 72.557,87.934 L 72.105,87.883 L 71.654,87.844 L 71.204,87.818 L 70.755,87.802 L 70.307,87.798 L 69.859,87.804 L 69.411,87.819 L 68.965,87.844 L 68.519,87.878 L 68.073,87.920 L 67.629,87.970 L 67.184,88.027 L 66.740,88.091 L 66.297,88.162 L 65.853,88.238 L 65.411,88.319 L 64.968,88.406 L 64.526,88.497 L 64.084,88.591 L 63.643,88.689 L 63.201,88.790 L 62.760,88.893 L 62.319,88.998 L 61.878,89.105 L 61.437,89.212 L 60.997,89.320 L 60.556,89.427 L 60.115,89.534 L 59.674,89.640 L 59.234,89.744 L 58.793,89.846 L 58.352,89.945 L 57.910,90.042 L 57.469,90.134 L 57.027,90.223 L 56.585,90.307 L 56.143,90.386 L 55.701,90.459 L 55.258,90.526 L 54.814,90.586 L 54.450,90.630 L 54.108,90.663 L 53.764,90.688 L 53.416,90.707 L 53.065,90.718 L 52.711,90.722 L 52.354,90.718 L 51.994,90.708 L 51.632,90.691 L 51.268,90.666 L 50.901,90.635 L 50.531,90.597 L 50.160,90.551 L 49.787,90.499 L 49.412,90.440 L 49.035,90.375 L 48.657,90.302 L 48.278,90.223 L 47.897,90.137 L 47.515,90.044 L 47.131,89.945 L 46.747,89.839 L 46.363,89.726 L 45.977,89.607 L 45.591,89.481 L 45.205,89.349 L 44.818,89.211 L 44.431,89.066 L 44.044,88.915 L 43.658,88.758 L 43.271,88.594 L 42.885,88.424 L 42.499,88.248 L 42.114,88.065 L 41.730,87.877 L 41.347,87.682 L 40.965,87.481 L 40.584,87.274 L 40.204,87.062 L 39.825,86.843 L 39.449,86.618 L 39.073,86.388 L 38.700,86.151 L 38.329,85.909 L 37.959,85.661 L 37.592,85.407 L 37.227,85.148 L 36.864,84.883 L 36.505,84.612 L 36.147,84.336 L 35.793,84.054 L 35.442,83.766 L 35.093,83.473 L 34.748,83.174 L 34.406,82.871 L 34.068,82.561 L 33.733,82.247 L 33.403,81.927 L 33.075,81.601 L 32.752,81.271 L 32.433,80.935 L 32.119,80.594 L 31.808,80.248 L 31.503,79.897 L 31.201,79.540 L 30.905,79.179 L 30.613,78.813 L 30.327,78.441 L 30.046,78.065 L 29.769,77.684 L 29.499,77.298 L 29.234,76.907 L 28.974,76.511 L 28.721,76.111 L 28.473,75.706 L 28.231,75.296 L 27.996,74.882 L 27.767,74.463 L 27.544,74.039 L 27.328,73.611 L 27.118,73.178 L 26.916,72.741 L 26.720,72.299 L 26.531,71.853 L 26.350,71.403 L 26.176,70.948 L 26.010,70.489 L 25.851,70.026 L 25.700,69.558 L 25.556,69.086 L 25.421,68.611 L 25.294,68.131 L 25.175,67.647 L 25.064,67.158 L 24.962,66.666 L 24.869,66.170 L 24.784,65.670 L 24.708,65.166 L 24.642,64.658 L 24.584,64.147 L 24.536,63.631 L 24.497,63.112 L 24.468,62.589 L 24.448,62.062 L 24.438,61.532 L 24.438,60.998 L 24.448,60.461 L 24.455,59.855 L 24.441,59.316 L 24.437,58.781 L 24.443,58.249 L 24.459,57.721 L 24.484,57.197 L 24.519,56.676 L 24.564,56.159 L 24.617,55.646 L 24.681,55.136 L 24.753,54.631 L 24.834,54.129 L 24.924,53.632 L 25.022,53.138 L 25.130,52.648 L 25.245,52.163 L 25.369,51.681 L 25.501,51.203 L 25.641,50.730 L 25.789,50.261 L 25.945,49.796 L 26.109,49.335 L 26.280,48.879 L 26.458,48.427 L 26.644,47.979 L 26.837,47.535 L 27.036,47.096 L 27.243,46.662 L 27.457,46.232 L 27.677,45.806 L 27.903,45.385 L 28.136,44.969 L 28.375,44.557 L 28.621,44.150 L 28.872,43.748 L 29.129,43.351 L 29.392,42.958 L 29.661,42.570 L 29.934,42.187 L 30.214,41.809 L 30.498,41.435 L 30.788,41.067 L 31.082,40.704 L 31.381,40.345 L 31.685,39.992 L 31.994,39.644 L 32.307,39.301 L 32.624,38.963 L 32.946,38.630 L 33.271,38.303 L 33.601,37.981 L 33.934,37.664 L 34.271,37.353 L 34.611,37.046 L 34.955,36.746 L 35.302,36.451 L 35.652,36.161 L 36.005,35.877 L 36.361,35.598 L 36.720,35.325 L 37.082,35.058 L 37.446,34.796 L 37.812,34.540 L 38.180,34.289 L 38.551,34.045 L 38.924,33.806 L 39.298,33.573 L 39.675,33.346 L 40.052,33.125 L 40.432,32.910 L 40.812,32.701 L 41.194,32.498 L 41.577,32.301 L 41.961,32.110 L 42.345,31.925 L 42.731,31.746 L 43.117,31.573 L 43.503,31.407 L 43.890,31.247 L 44.276,31.093 L 44.663,30.946 L 45.050,30.805 L 45.436,30.671 L 45.823,30.542 L 46.208,30.421 L 46.594,30.306 L 46.978,30.197 L 47.361,30.095 L 47.744,30.000 L 48.125,29.911 L 48.506,29.829 L 48.884,29.754 L 49.262,29.685 L 49.637,29.623 L 50.011,29.569 L 50.383,29.521 L 50.753,29.479 L 51.121,29.445 L 51.487,29.418 L 51.850,29.398 L 52.210,29.385 L 52.568,29.379 L 52.923,29.380 L 53.276,29.388 L 53.625,29.404 L 53.971,29.426 L 54.313,29.456 L 54.653,29.493 L 55.080,29.549 L 55.523,29.614 L 55.966,29.684 L 56.408,29.761 L 56.850,29.843 L 57.292,29.930 L 57.734,30.021 L 58.175,30.116 L 58.616,30.214 L 59.057,30.315 L 59.498,30.418 L 59.939,30.523 L 60.380,30.630 L 60.820,30.737 L 61.261,30.845 L 61.702,30.952 L 62.143,31.059 L 62.584,31.165 L 63.025,31.269 L 63.466,31.371 L 63.908,31.470 L 64.349,31.566 L 64.791,31.658 L 65.234,31.747 L 65.676,31.830 L 66.119,31.909 L 66.563,31.981 L 67.006,32.048 L 67.451,32.108 L 67.895,32.161 L 68.341,32.206 L 68.786,32.243 L 69.233,32.272 L 69.680,32.291 L 70.127,32.301 L 70.576,32.301 L 71.025,32.290 L 71.474,32.268 L 71.925,32.234 L 72.376,32.188 L 72.828,32.130 L 73.282,32.059 L 73.741,31.982 L 74.195,31.895 L 74.645,31.800 L 75.091,31.696 L 75.532,31.583 L 75.970,31.463 L 76.403,31.334 L 76.833,31.198 L 77.260,31.055 L 77.683,30.904 L 78.102,30.746 L 78.518,30.581 L 78.931,30.410 L 79.341,30.232 L 79.748,30.048 L 80.152,29.859 L 80.553,29.663 L 80.952,29.463 L 81.348,29.257 L 81.742,29.046 L 82.134,28.831 L 82.523,28.611 L 82.911,28.386 L 83.296,28.158 L 83.680,27.926 L 84.061,27.690 L 84.442,27.451 L 84.821,27.208 L 85.198,26.963 L 85.574,26.715 L 85.949,26.465 L 86.323,26.213 L 86.696,25.958 L 87.068,25.702 L 87.440,25.444 L 87.811,25.185 L 88.181,24.925 L 88.552,24.664 L 88.921,24.402 L 89.291,24.141 L 89.661,23.878 L 90.031,23.616 L 90.401,23.355 L 90.771,23.093 L 91.142,22.833 L 91.513,22.574 L 91.885,22.315 L 92.258,22.059 L 92.632,21.803 L 93.006,21.550 L 93.382,21.299 L 93.759,21.050 L 94.137,20.804 L 94.517,20.561 L 94.898,20.321 L 95.281,20.084 L 95.666,19.851 L 96.053,19.621 L 96.441,19.395 L 96.832,19.174 L 97.225,18.956 L 97.621,18.744 L 98.018,18.536 L 98.419,18.334 L 98.822,18.137 L 99.228,17.945 L 99.637,17.760 L 100.049,17.580 L 100.469,17.405 L 100.894,17.236 L 101.320,17.072 L 101.747,16.914 L 102.177,16.762 L 102.607,16.616 L 103.039,16.476 L 103.472,16.341 L 103.906,16.213 L 104.342,16.089 L 104.779,15.972 L 105.216,15.860 L 105.655,15.754 L 106.095,15.653 L 106.536,15.558 L 106.977,15.469 L 107.419,15.385 L 107.863,15.307 L 108.306,15.234 L 108.751,15.167 L 109.196,15.105 L 109.642,15.049 L 110.088,14.998 L 110.535,14.952 L 110.982,14.912 L 111.430,14.877 L 111.877,14.848 L 112.326,14.824 L 112.774,14.805 L 113.222,14.791 L 113.671,14.783 L 114.120,14.780 L 114.569,14.782 L 115.017,14.789 L 115.466,14.801 L 115.914,14.819 L 116.363,14.842 L 116.811,14.869 L 117.259,14.902 L 117.706,14.940 L 118.153,14.983 L 118.600,15.031 L 119.046,15.084 L 119.492,15.142 L 119.937,15.205 L 120.381,15.272 L 120.825,15.345 L 121.268,15.423 L 121.710,15.505 L 122.152,15.592 L 122.592,15.684 L 123.032,15.781 L 123.470,15.883 L 123.908,15.989 L 124.344,16.101 L 124.780,16.216 L 125.214,16.337 L 125.647,16.462 L 126.078,16.592 L 126.509,16.726 L 126.937,16.865 L 127.365,17.009 L 127.791,17.157 L 128.215,17.310 L 128.638,17.467 L 129.059,17.629 L 129.479,17.795 L 129.897,17.965 L 130.312,18.141 L 130.727,18.320 L 131.139,18.504 L 131.549,18.692 L 131.957,18.885 L 132.364,19.081 L 132.768,19.282 L 133.170,19.488 L 133.570,19.698 L 133.967,19.911 L 134.362,20.130 L 134.755,20.352 L 135.146,20.578 L 135.534,20.809 L 135.920,21.044 L 136.303,21.282 L 136.683,21.525 L 137.061,21.772 L 137.436,22.023 L 137.808,22.278 L 138.178,22.537 L 138.544,22.800 L 138.908,23.067 L 139.269,23.338 L 139.627,23.612 L 139.982,23.891 L 140.333,24.174 L 140.682,24.460 L 141.027,24.750 L 141.369,25.044 L 141.708,25.342 L 142.044,25.643 L 142.376,25.948 L 142.704,26.257 L 143.029,26.570 L 143.351,26.886 L 143.669,27.206 L 143.983,27.529 L 144.294,27.856 L 144.600,28.187 L 144.903,28.521 L 145.202,28.859 L 145.498,29.200 L 145.789,29.545 L 146.076,29.893 L 146.359,30.245 L 146.639,30.600 L 146.913,30.959 L 147.184,31.321 L 147.459,31.681 L 147.734,32.042 L 148.005,32.406 L 148.273,32.772 L 148.536,33.141 L 148.795,33.512 L 149.049,33.886 L 149.300,34.263 L 149.547,34.642 L 149.789,35.023 L 150.028,35.407 L 150.262,35.793 L 150.492,36.182 L 150.718,36.572 L 150.940,36.965 L 151.157,37.360 L 151.371,37.757 L 151.580,38.156 L 151.786,38.558 L 151.987,38.961 L 152.184,39.366 L 152.377,39.773 L 152.565,40.183 L 152.750,40.593 L 152.930,41.006 L 153.107,41.421 L 153.279,41.837 L 153.447,42.255 L 153.610,42.674 L 153.770,43.095 L 153.925,43.518 L 154.077,43.942 L 154.224,44.367 L 154.367,44.794 L 154.506,45.223 L 154.640,45.652 L 154.771,46.083 L 154.897,46.516 L 155.020,46.949 L 155.138,47.384 L 155.251,47.820 L 155.361,48.256 L 155.466,48.694 L 155.568,49.133 L 155.665,49.573 L 155.758,50.014 L 155.847,50.456 L 155.931,50.898 L 156.012,51.341 L 156.088,51.786 L 156.160,52.230 L 156.228,52.676 L 156.291,53.122 L 156.351,53.569 L 156.406,54.016 L 156.457,54.464 L 156.504,54.912 L 156.546,55.361 L 156.585,55.810 L 156.619,56.259 L 156.649,56.709 L 156.675,57.159 L 156.697,57.609 L 156.714,58.059 L 156.727,58.510 L 156.736,58.960 L 156.741,59.411 L 156.742,59.862 L 156.741,60.050 Z" style="fill:none;stroke:rgb(0, 102, 204);color:rgb(11, 11, 11);stroke-width:0.6px;stroke-linecap:butt;stroke-linejoin:miter;opacity:1;font-family:&quot;Anthropic Sans&quot;, -apple-system, BlinkMacSystemFont, &quot;Segoe UI&quot;, sans-serif;font-size:16px;font-weight:400;text-anchor:start;dominant-baseline:auto"/>
<line x1="0" y1="60.05" x2="173" y2="60.05" stroke="#16a34a" stroke-width="0.2" stroke-dasharray="2 2" style="fill:rgb(0, 0, 0);stroke:rgb(22, 163, 74);color:rgb(11, 11, 11);stroke-width:0.2px;stroke-dasharray:2px, 2px;stroke-linecap:butt;stroke-linejoin:miter;opacity:1;font-family:&quot;Anthropic Sans&quot;, -apple-system, BlinkMacSystemFont, &quot;Segoe UI&quot;, sans-serif;font-size:16px;font-weight:400;text-anchor:start;dominant-baseline:auto"/>
</svg>