<svg xmlns="http://www.w3.org/2000/svg" viewBox="2.6 -19.0 174.5 158.1">
  <!-- Clements 49 base footprint, re-authored for the 22in soundbox arm: limaçon pair scaled k=1.405 about the outer pole (rose + bore unchanged). red_outer = rose R47.07 (12 flutes) ∪ limaçon b=33.64 pole (138.45,60.08); blue_outer = bore R30.46 ∪ inner limaçon b=18.12. Belly faces the rose; dimple east under the soundbox arm. -->
  <path id="red_outer" fill="none" stroke="#ff0000" stroke-width="1" d="M 46.529,24.185 L 45.961,23.819 L 45.418,23.416 L 44.893,22.990 L 44.380,22.549 L 43.873,22.102 L 43.368,21.652 L 42.863,21.202 L 42.355,20.756 L 41.841,20.316 L 41.321,19.884 L 40.792,19.463 L 40.252,19.056 L 39.698,18.668 L 39.130,18.302 L 38.543,17.965 L 37.937,17.666 L 37.310,17.414 L 36.659,17.233 L 35.990,17.144 L 35.316,17.175 L 34.668,17.360 L 34.089,17.703 L 33.599,18.167 L 33.219,18.725 L 32.919,19.331 L 32.689,19.966 L 32.519,20.620 L 32.391,21.284 L 32.298,21.954 L 32.234,22.627 L 32.192,23.302 L 32.170,23.978 L 32.163,24.654 L 32.168,25.330 L 32.182,26.006 L 32.200,26.682 L 32.221,27.358 L 32.239,28.034 L 32.249,28.710 L 32.246,29.387 L 32.215,30.062 L 32.140,30.734 L 31.995,31.393 L 31.730,32.013 L 31.285,32.517 L 30.687,32.822 L 30.024,32.948 L 29.349,32.957 L 28.675,32.903 L 28.005,32.808 L 27.339,32.691 L 26.675,32.562 L 26.013,32.426 L 25.351,32.288 L 24.688,32.153 L 24.024,32.024 L 23.359,31.904 L 22.691,31.796 L 22.021,31.704 L 21.349,31.632 L 20.675,31.583 L 19.999,31.564 L 19.323,31.582 L 18.650,31.652 L 17.987,31.782 L 17.343,31.985 L 16.742,32.292 L 16.212,32.709 L 15.807,33.248 L 15.540,33.866 L 15.420,34.530 L 15.411,35.205 L 15.497,35.876 L 15.646,36.535 L 15.844,37.181 L 16.080,37.815 L 16.347,38.436 L 16.638,39.046 L 16.949,39.647 L 17.274,40.240 L 17.612,40.826 L 17.958,41.407 L 18.311,41.984 L 18.666,42.559 L 19.022,43.134 L 19.373,43.712 L 19.715,44.296 L 20.039,44.889 L 20.337,45.496 L 20.581,46.126 L 20.739,46.783 L 20.730,47.456 L 20.482,48.080 L 20.036,48.585 L 19.486,48.977 L 18.888,49.292 L 18.269,49.562 L 17.638,49.806 L 17.000,50.031 L 16.359,50.247 L 15.717,50.459 L 15.075,50.671 L 14.434,50.888 L 13.796,51.111 L 13.162,51.345 L 12.532,51.592 L 11.909,51.855 L 11.295,52.138 L 10.693,52.446 L 10.107,52.783 L 9.543,53.156 L 9.009,53.570 L 8.521,54.037 L 8.105,54.569 L 7.782,55.162 L 7.611,55.814 L 7.604,56.487 L 7.754,57.145 L 8.037,57.757 L 8.407,58.323 L 8.837,58.844 L 9.315,59.321 L 9.825,59.766 L 10.357,60.183 L 10.907,60.577 L 11.470,60.951 L 12.043,61.309 L 12.625,61.654 L 13.213,61.989 L 13.805,62.315 L 14.399,62.637 L 14.995,62.958 L 15.590,63.280 L 16.181,63.608 L 16.765,63.949 L 17.337,64.310 L 17.883,64.708 L 18.388,65.157 L 18.802,65.690 L 19.034,66.321 L 19.015,66.994 L 18.804,67.634 L 18.477,68.226 L 18.097,68.785 L 17.682,69.319 L 17.248,69.838 L 16.805,70.348 L 16.356,70.854 L 15.906,71.359 L 15.457,71.865 L 15.013,72.375 L 14.576,72.891 L 14.148,73.415 L 13.732,73.948 L 13.332,74.493 L 12.952,75.052 L 12.596,75.627 L 12.271,76.220 L 11.989,76.834 L 11.766,77.472 L 11.616,78.131 L 11.569,78.804 L 11.658,79.472 L 11.908,80.098 L 12.299,80.647 L 12.810,81.088 L 13.385,81.442 L 14.007,81.706 L 14.651,81.911 L 15.309,82.066 L 15.975,82.180 L 16.646,82.262 L 17.320,82.316 L 17.996,82.349 L 18.672,82.365 L 19.348,82.367 L 20.024,82.358 L 20.700,82.342 L 21.376,82.322 L 22.052,82.301 L 22.728,82.285 L 23.404,82.280 L 24.081,82.294 L 24.755,82.338 L 25.424,82.435 L 26.074,82.618 L 26.661,82.950 L 27.094,83.463 L 27.322,84.098 L 27.391,84.770 L 27.371,85.445 L 27.298,86.117 L 27.195,86.785 L 27.073,87.451 L 26.940,88.114 L 26.802,88.776 L 26.665,89.438 L 26.532,90.101 L 26.406,90.765 L 26.290,91.432 L 26.187,92.100 L 26.102,92.771 L 26.039,93.444 L 26.002,94.119 L 25.999,94.795 L 26.037,95.470 L 26.125,96.140 L 26.277,96.799 L 26.524,97.427 L 26.868,98.008 L 27.339,98.490 L 27.910,98.846 L 28.553,99.052 L 29.224,99.125 L 29.898,99.092 L 30.565,98.984 L 31.220,98.815 L 31.860,98.598 L 32.488,98.348 L 33.105,98.070 L 33.711,97.771 L 34.309,97.455 L 34.899,97.124 L 35.483,96.783 L 36.062,96.434 L 36.639,96.081 L 37.214,95.725 L 37.790,95.371 L 38.369,95.022 L 38.956,94.686 L 39.553,94.368 L 40.170,94.091 L 40.809,93.871 L 41.476,93.772 L 42.142,93.867 L 42.725,94.201 L 43.180,94.700 L 43.535,95.274 L 43.833,95.881 L 44.090,96.507 L 44.324,97.141 L 44.545,97.780 L 44.759,98.422 L 44.971,99.064 L 45.185,99.705 L 45.404,100.345 L 45.632,100.982 L 45.870,101.615 L 46.123,102.242 L 46.394,102.862 L 46.686,103.471 L 47.004,104.068 L 47.353,104.647 L 47.739,105.202 L 48.177,105.717 L 48.669,106.180 L 49.222,106.567 L 49.843,106.830 L 50.506,106.942 L 51.179,106.889 L 51.819,106.676 L 52.416,106.360 L 52.961,105.961 L 53.389,106.355 L 53.807,106.886 L 54.231,107.413 L 54.659,107.936 L 55.092,108.456 L 55.529,108.972 L 55.972,109.483 L 56.419,109.990 L 56.871,110.494 L 57.327,110.993 L 57.787,111.489 L 58.253,111.979 L 58.723,112.465 L 59.197,112.947 L 59.676,113.425 L 60.158,113.899 L 60.646,114.367 L 61.138,114.831 L 61.634,115.291 L 62.134,115.746 L 62.638,116.197 L 63.147,116.643 L 63.659,117.084 L 64.176,117.520 L 64.696,117.952 L 65.221,118.379 L 65.749,118.800 L 66.282,119.217 L 66.819,119.629 L 67.359,120.036 L 67.902,120.438 L 68.450,120.835 L 69.001,121.226 L 69.556,121.613 L 70.115,121.994 L 70.677,122.371 L 71.242,122.742 L 71.811,123.107 L 72.384,123.467 L 72.959,123.822 L 73.538,124.171 L 74.120,124.515 L 74.706,124.854 L 75.295,125.186 L 75.886,125.514 L 76.481,125.835 L 77.079,126.152 L 77.679,126.463 L 78.283,126.767 L 78.890,127.066 L 79.499,127.359 L 80.111,127.647 L 80.726,127.928 L 81.343,128.205 L 81.963,128.475 L 82.586,128.738 L 83.211,128.996 L 83.839,129.248 L 84.469,129.494 L 85.101,129.735 L 85.735,129.969 L 86.372,130.197 L 87.011,130.418 L 87.652,130.634 L 88.295,130.843 L 88.940,131.047 L 89.587,131.244 L 90.235,131.435 L 90.886,131.619 L 91.539,131.797 L 92.193,131.969 L 92.848,132.134 L 93.505,132.294 L 94.164,132.447 L 94.824,132.594 L 95.486,132.733 L 96.149,132.866 L 96.813,132.993 L 97.479,133.114 L 98.145,133.228 L 98.813,133.336 L 99.481,133.437 L 100.151,133.531 L 100.822,133.618 L 101.493,133.699 L 102.165,133.774 L 102.838,133.841 L 103.512,133.903 L 104.186,133.957 L 104.860,134.005 L 105.535,134.047 L 106.211,134.081 L 106.886,134.108 L 107.562,134.129 L 108.238,134.143 L 108.915,134.151 L 109.591,134.151 L 110.267,134.145 L 110.943,134.132 L 111.619,134.113 L 112.295,134.086 L 112.970,134.053 L 113.645,134.013 L 114.320,133.966 L 114.994,133.912 L 115.668,133.851 L 116.340,133.783 L 117.013,133.709 L 117.684,133.627 L 118.354,133.539 L 119.024,133.445 L 119.693,133.343 L 120.360,133.234 L 121.026,133.119 L 121.691,132.997 L 122.355,132.868 L 123.018,132.732 L 123.679,132.589 L 124.338,132.439 L 124.996,132.282 L 125.652,132.119 L 126.307,131.948 L 126.959,131.771 L 127.610,131.587 L 128.259,131.396 L 128.906,131.199 L 129.550,130.995 L 130.193,130.784 L 130.833,130.566 L 131.471,130.341 L 132.106,130.110 L 132.739,129.872 L 133.370,129.627 L 133.998,129.376 L 134.623,129.118 L 135.245,128.853 L 135.864,128.582 L 136.481,128.304 L 137.094,128.020 L 137.705,127.728 L 138.312,127.431 L 138.916,127.127 L 139.517,126.816 L 140.114,126.499 L 140.708,126.175 L 141.298,125.845 L 141.885,125.509 L 142.468,125.166 L 143.047,124.817 L 143.622,124.461 L 144.193,124.099 L 144.760,123.731 L 145.324,123.357 L 145.883,122.976 L 146.438,122.590 L 146.988,122.197 L 147.534,121.798 L 148.076,121.393 L 148.613,120.983 L 149.146,120.566 L 149.674,120.143 L 150.197,119.714 L 150.715,119.280 L 151.228,118.840 L 151.737,118.394 L 152.240,117.942 L 152.739,117.485 L 153.232,117.022 L 153.719,116.554 L 154.201,116.080 L 154.678,115.600 L 155.150,115.116 L 155.616,114.626 L 156.077,114.131 L 156.531,113.630 L 156.980,113.124 L 157.423,112.613 L 157.861,112.098 L 158.292,111.577 L 158.717,111.051 L 159.136,110.520 L 159.549,109.985 L 159.956,109.445 L 160.357,108.900 L 160.751,108.350 L 161.139,107.796 L 161.521,107.238 L 161.895,106.675 L 162.264,106.108 L 162.626,105.537 L 162.981,104.961 L 163.329,104.382 L 163.671,103.798 L 164.006,103.211 L 164.334,102.619 L 164.655,102.024 L 164.969,101.425 L 165.277,100.823 L 165.577,100.217 L 165.870,99.608 L 166.157,98.995 L 166.436,98.379 L 166.708,97.760 L 166.973,97.138 L 167.230,96.512 L 167.481,95.884 L 167.724,95.253 L 167.961,94.620 L 168.189,93.983 L 168.411,93.344 L 168.625,92.703 L 168.833,92.059 L 169.033,91.413 L 169.226,90.765 L 169.411,90.115 L 169.590,89.463 L 169.762,88.809 L 169.926,88.153 L 170.083,87.495 L 170.234,86.836 L 170.377,86.175 L 170.514,85.512 L 170.644,84.849 L 170.767,84.184 L 170.883,83.518 L 170.993,82.850 L 171.097,82.182 L 171.194,81.513 L 171.285,80.843 L 171.370,80.172 L 171.449,79.500 L 171.522,78.828 L 171.590,78.155 L 171.652,77.482 L 171.709,76.808 L 171.760,76.134 L 171.807,75.459 L 171.849,74.784 L 171.887,74.109 L 171.921,73.433 L 171.950,72.758 L 171.976,72.082 L 171.998,71.406 L 172.018,70.730 L 172.034,70.054 L 172.047,69.378 L 172.058,68.702 L 172.067,68.026 L 172.074,67.349 L 172.080,66.673 L 172.084,65.997 L 172.087,65.321 L 172.089,64.644 L 172.090,63.968 L 172.091,63.292 L 172.091,62.616 L 172.091,61.939 L 172.091,61.263 L 172.091,60.587 L 172.091,59.910 L 172.091,59.234 L 172.091,58.558 L 172.091,57.882 L 172.091,57.205 L 172.090,56.529 L 172.089,55.853 L 172.088,55.177 L 172.085,54.500 L 172.082,53.824 L 172.077,53.148 L 172.071,52.472 L 172.063,51.795 L 172.053,51.119 L 172.041,50.443 L 172.026,49.767 L 172.008,49.091 L 171.988,48.415 L 171.964,47.739 L 171.936,47.063 L 171.904,46.388 L 171.869,45.713 L 171.829,45.038 L 171.784,44.363 L 171.735,43.688 L 171.681,43.014 L 171.621,42.341 L 171.557,41.667 L 171.486,40.995 L 171.410,40.323 L 171.328,39.652 L 171.240,38.981 L 171.146,38.311 L 171.046,37.643 L 170.939,36.975 L 170.826,36.308 L 170.706,35.643 L 170.580,34.978 L 170.446,34.315 L 170.306,33.654 L 170.159,32.994 L 170.005,32.335 L 169.844,31.678 L 169.676,31.023 L 169.501,30.370 L 169.319,29.719 L 169.130,29.070 L 168.933,28.422 L 168.730,27.778 L 168.519,27.135 L 168.301,26.495 L 168.075,25.857 L 167.843,25.222 L 167.603,24.590 L 167.356,23.960 L 167.102,23.334 L 166.841,22.710 L 166.573,22.089 L 166.297,21.472 L 166.014,20.857 L 165.724,20.246 L 165.427,19.639 L 165.124,19.034 L 164.813,18.434 L 164.495,17.837 L 164.171,17.244 L 163.839,16.654 L 163.500,16.069 L 163.156,15.487 L 162.803,14.910 L 162.445,14.336 L 162.080,13.767 L 161.708,13.202 L 161.330,12.642 L 160.945,12.085 L 160.554,11.534 L 160.157,10.987 L 159.753,10.444 L 159.343,9.906 L 158.927,9.373 L 158.505,8.845 L 158.076,8.322 L 157.642,7.803 L 157.202,7.290 L 156.756,6.782 L 156.304,6.279 L 155.846,5.781 L 155.383,5.288 L 154.914,4.800 L 154.440,4.318 L 153.960,3.842 L 153.475,3.371 L 152.985,2.905 L 152.489,2.445 L 151.988,1.990 L 151.483,1.542 L 150.972,1.098 L 150.456,0.661 L 149.935,0.230 L 149.409,-0.196 L 148.879,-0.615 L 148.344,-1.029 L 147.805,-1.437 L 147.261,-1.839 L 146.713,-2.235 L 146.160,-2.625 L 145.603,-3.008 L 145.042,-3.385 L 144.477,-3.756 L 143.907,-4.121 L 143.334,-4.480 L 142.757,-4.832 L 142.176,-5.178 L 141.591,-5.518 L 141.002,-5.851 L 140.410,-6.178 L 139.815,-6.498 L 139.216,-6.812 L 138.614,-7.120 L 138.008,-7.421 L 137.399,-7.715 L 136.787,-8.003 L 136.172,-8.284 L 135.554,-8.559 L 134.933,-8.827 L 134.310,-9.089 L 133.683,-9.343 L 133.054,-9.591 L 132.422,-9.833 L 131.788,-10.067 L 131.151,-10.295 L 130.512,-10.516 L 129.871,-10.731 L 129.227,-10.938 L 128.582,-11.139 L 127.934,-11.333 L 127.284,-11.520 L 126.632,-11.701 L 125.979,-11.874 L 125.323,-12.041 L 124.666,-12.201 L 124.008,-12.354 L 123.347,-12.500 L 122.686,-12.640 L 122.023,-12.773 L 121.358,-12.898 L 120.692,-13.017 L 120.025,-13.130 L 119.357,-13.235 L 118.688,-13.333 L 118.018,-13.425 L 117.348,-13.510 L 116.676,-13.588 L 116.003,-13.658 L 115.330,-13.722 L 114.656,-13.779 L 113.982,-13.830 L 113.307,-13.873 L 112.632,-13.910 L 111.956,-13.940 L 111.280,-13.963 L 110.604,-13.980 L 109.928,-13.990 L 109.252,-13.993 L 108.575,-13.988 L 107.899,-13.977 L 107.223,-13.960 L 106.547,-13.935 L 105.872,-13.904 L 105.197,-13.866 L 104.522,-13.822 L 103.848,-13.771 L 103.174,-13.713 L 102.501,-13.649 L 101.828,-13.578 L 101.156,-13.499 L 100.485,-13.415 L 99.815,-13.324 L 99.146,-13.226 L 98.478,-13.122 L 97.811,-13.012 L 97.145,-12.895 L 96.480,-12.771 L 95.816,-12.640 L 95.154,-12.503 L 94.493,-12.360 L 93.834,-12.211 L 93.176,-12.055 L 92.519,-11.893 L 91.864,-11.724 L 91.211,-11.549 L 90.560,-11.367 L 89.910,-11.179 L 89.262,-10.985 L 88.616,-10.786 L 87.972,-10.580 L 87.330,-10.367 L 86.690,-10.148 L 86.053,-9.923 L 85.417,-9.692 L 84.784,-9.455 L 84.152,-9.212 L 83.524,-8.963 L 82.897,-8.708 L 82.274,-8.446 L 81.653,-8.179 L 81.034,-7.907 L 80.417,-7.628 L 79.804,-7.344 L 79.193,-7.053 L 78.585,-6.757 L 77.980,-6.455 L 77.378,-6.147 L 76.779,-5.834 L 76.182,-5.516 L 75.589,-5.191 L 74.999,-4.860 L 74.412,-4.524 L 73.828,-4.183 L 73.247,-3.837 L 72.670,-3.485 L 72.096,-3.127 L 71.526,-2.764 L 70.958,-2.396 L 70.394,-2.023 L 69.834,-1.644 L 69.277,-1.260 L 68.724,-0.871 L 68.175,-0.476 L 67.629,-0.077 L 67.087,0.327 L 66.549,0.736 L 66.015,1.151 L 65.484,1.571 L 64.958,1.995 L 64.435,2.424 L 63.916,2.857 L 63.402,3.297 L 62.891,3.741 L 62.385,4.189 L 61.882,4.641 L 61.384,5.098 L 60.891,5.561 L 60.401,6.028 L 59.916,6.499 L 59.435,6.974 L 58.958,7.453 L 58.487,7.938 L 58.019,8.427 L 57.556,8.920 L 57.097,9.417 L 56.643,9.918 L 56.194,10.423 L 55.750,10.933 L 55.310,11.447 L 54.874,11.964 L 54.443,12.485 L 54.018,13.011 L 53.597,13.540 L 53.181,14.073 L 52.769,14.610 L 52.363,15.151 L 51.962,15.695 L 51.566,16.243 L 51.174,16.794 L 50.787,17.349 L 50.407,17.908 L 50.031,18.470 L 49.660,19.035 L 49.293,19.604 L 48.932,20.176 L 48.577,20.751 L 48.227,21.330 L 47.882,21.911 L 47.541,22.496 L 47.207,23.083 L 46.878,23.674 Z"/>
  <path id="blue_outer" fill="none" stroke="#0000ff" stroke-width="1" d="M 74.059,36.716 L 73.740,36.453 L 73.417,36.193 L 73.091,35.938 L 72.761,35.687 L 72.428,35.440 L 72.092,35.199 L 71.752,34.962 L 71.409,34.729 L 71.064,34.500 L 70.714,34.278 L 70.362,34.060 L 70.007,33.846 L 69.650,33.637 L 69.289,33.433 L 68.926,33.234 L 68.560,33.041 L 68.191,32.851 L 67.820,32.667 L 67.446,32.488 L 67.070,32.315 L 66.692,32.146 L 66.311,31.982 L 65.929,31.824 L 65.544,31.671 L 65.157,31.524 L 64.768,31.381 L 64.377,31.243 L 63.984,31.111 L 63.590,30.985 L 63.194,30.864 L 62.796,30.748 L 62.397,30.637 L 61.996,30.533 L 61.594,30.434 L 61.190,30.339 L 60.786,30.250 L 60.380,30.167 L 59.973,30.090 L 59.565,30.019 L 59.156,29.952 L 58.746,29.890 L 58.336,29.836 L 57.924,29.787 L 57.513,29.742 L 57.100,29.703 L 56.687,29.671 L 56.274,29.644 L 55.860,29.622 L 55.446,29.606 L 55.032,29.595 L 54.618,29.591 L 54.204,29.592 L 53.789,29.599 L 53.375,29.610 L 52.961,29.628 L 52.548,29.652 L 52.135,29.682 L 51.722,29.716 L 51.310,29.756 L 50.898,29.802 L 50.487,29.854 L 50.077,29.911 L 49.667,29.973 L 49.258,30.041 L 48.851,30.116 L 48.444,30.195 L 48.039,30.280 L 47.634,30.369 L 47.232,30.466 L 46.830,30.567 L 46.430,30.674 L 46.031,30.786 L 45.634,30.903 L 45.238,31.027 L 44.844,31.155 L 44.452,31.289 L 44.062,31.427 L 43.674,31.572 L 43.288,31.722 L 42.903,31.877 L 42.521,32.036 L 42.141,32.202 L 41.764,32.372 L 41.389,32.548 L 41.016,32.728 L 40.645,32.913 L 40.278,33.105 L 39.913,33.301 L 39.550,33.501 L 39.190,33.706 L 38.833,33.916 L 38.480,34.132 L 38.129,34.352 L 37.781,34.577 L 37.435,34.806 L 37.094,35.040 L 36.756,35.279 L 36.420,35.523 L 36.088,35.770 L 35.759,36.022 L 35.435,36.280 L 35.113,36.541 L 34.795,36.806 L 34.481,37.076 L 34.170,37.350 L 33.864,37.629 L 33.561,37.911 L 33.261,38.197 L 32.966,38.488 L 32.675,38.783 L 32.388,39.081 L 32.105,39.384 L 31.825,39.689 L 31.551,40.000 L 31.280,40.314 L 31.014,40.631 L 30.752,40.952 L 30.494,41.276 L 30.242,41.604 L 29.993,41.936 L 29.749,42.270 L 29.509,42.608 L 29.274,42.949 L 29.044,43.294 L 28.819,43.641 L 28.598,43.992 L 28.381,44.345 L 28.171,44.702 L 27.965,45.061 L 27.763,45.423 L 27.566,45.787 L 27.375,46.155 L 27.189,46.525 L 27.007,46.897 L 26.831,47.272 L 26.659,47.649 L 26.493,48.029 L 26.333,48.410 L 26.177,48.794 L 26.026,49.180 L 25.881,49.568 L 25.742,49.958 L 25.607,50.350 L 25.477,50.743 L 25.353,51.138 L 25.235,51.536 L 25.122,51.934 L 25.015,52.334 L 24.912,52.735 L 24.815,53.138 L 24.724,53.542 L 24.639,53.948 L 24.558,54.354 L 24.483,54.761 L 24.414,55.170 L 24.351,55.579 L 24.293,55.989 L 24.240,56.400 L 24.193,56.812 L 24.152,57.224 L 24.117,57.637 L 24.087,58.050 L 24.061,58.463 L 24.043,58.877 L 24.031,59.291 L 24.023,59.706 L 24.021,60.120 L 24.024,60.534 L 24.034,60.948 L 24.049,61.362 L 24.070,61.776 L 24.095,62.189 L 24.128,62.602 L 24.166,63.015 L 24.209,63.427 L 24.257,63.838 L 24.311,64.249 L 24.372,64.659 L 24.437,65.068 L 24.508,65.476 L 24.584,65.883 L 24.667,66.289 L 24.755,66.694 L 24.848,67.097 L 24.946,67.500 L 25.049,67.901 L 25.160,68.300 L 25.275,68.698 L 25.395,69.095 L 25.520,69.490 L 25.651,69.882 L 25.788,70.273 L 25.930,70.663 L 26.076,71.050 L 26.228,71.436 L 26.386,71.819 L 26.549,72.199 L 26.717,72.578 L 26.889,72.955 L 27.067,73.329 L 27.251,73.700 L 27.439,74.069 L 27.632,74.436 L 27.830,74.800 L 28.033,75.161 L 28.241,75.519 L 28.454,75.874 L 28.671,76.227 L 28.894,76.576 L 29.121,76.923 L 29.353,77.266 L 29.589,77.606 L 29.830,77.943 L 30.076,78.277 L 30.326,78.607 L 30.581,78.933 L 30.839,79.257 L 31.103,79.577 L 31.371,79.893 L 31.643,80.205 L 31.919,80.514 L 32.199,80.819 L 32.484,81.120 L 32.773,81.417 L 33.065,81.710 L 33.362,82.000 L 33.662,82.285 L 33.967,82.566 L 34.275,82.842 L 34.586,83.115 L 34.901,83.384 L 35.221,83.648 L 35.544,83.907 L 35.870,84.163 L 36.200,84.414 L 36.533,84.660 L 36.869,84.902 L 37.209,85.139 L 37.552,85.372 L 37.897,85.600 L 38.246,85.823 L 38.599,86.041 L 38.953,86.254 L 39.311,86.464 L 39.672,86.668 L 40.035,86.866 L 40.401,87.060 L 40.770,87.249 L 41.141,87.434 L 41.515,87.612 L 41.891,87.785 L 42.269,87.954 L 42.650,88.118 L 43.032,88.277 L 43.417,88.429 L 43.804,88.577 L 44.193,88.720 L 44.584,88.857 L 44.977,88.989 L 45.371,89.115 L 45.767,89.236 L 46.165,89.352 L 46.564,89.463 L 46.965,89.567 L 47.367,89.667 L 47.771,89.761 L 48.175,89.850 L 48.581,89.933 L 48.988,90.010 L 49.396,90.082 L 49.805,90.148 L 50.215,90.210 L 50.625,90.264 L 51.037,90.314 L 51.448,90.358 L 51.861,90.397 L 52.274,90.429 L 52.687,90.456 L 53.101,90.478 L 53.515,90.494 L 53.929,90.505 L 54.343,90.509 L 54.757,90.508 L 55.172,90.501 L 55.586,90.490 L 56.000,90.472 L 56.413,90.448 L 56.826,90.418 L 57.239,90.384 L 57.651,90.344 L 58.063,90.298 L 58.474,90.246 L 58.884,90.189 L 59.294,90.127 L 59.703,90.058 L 60.110,89.984 L 60.517,89.905 L 60.922,89.820 L 61.327,89.731 L 61.729,89.634 L 62.131,89.532 L 62.531,89.426 L 62.930,89.314 L 63.327,89.196 L 63.723,89.073 L 64.117,88.944 L 64.509,88.811 L 64.899,88.673 L 65.287,88.527 L 65.673,88.378 L 66.058,88.223 L 66.440,88.063 L 66.820,87.898 L 67.197,87.727 L 67.572,87.551 L 67.945,87.371 L 68.316,87.186 L 68.683,86.995 L 69.048,86.799 L 69.411,86.598 L 69.771,86.393 L 70.128,86.183 L 70.481,85.967 L 70.832,85.747 L 71.180,85.523 L 71.526,85.294 L 71.867,85.059 L 72.205,84.820 L 72.541,84.577 L 72.873,84.329 L 73.201,84.077 L 73.526,83.820 L 73.847,83.558 L 74.165,83.293 L 74.415,83.542 L 74.657,83.879 L 74.902,84.213 L 75.151,84.544 L 75.403,84.873 L 75.658,85.199 L 75.917,85.522 L 76.180,85.843 L 76.445,86.161 L 76.714,86.476 L 76.986,86.788 L 77.261,87.098 L 77.540,87.405 L 77.821,87.708 L 78.106,88.009 L 78.394,88.307 L 78.686,88.601 L 78.980,88.893 L 79.277,89.182 L 79.577,89.467 L 79.880,89.749 L 80.186,90.029 L 80.495,90.304 L 80.807,90.577 L 81.122,90.846 L 81.440,91.112 L 81.760,91.375 L 82.083,91.634 L 82.409,91.890 L 82.738,92.142 L 83.069,92.391 L 83.403,92.636 L 83.739,92.878 L 84.078,93.116 L 84.419,93.351 L 84.763,93.582 L 85.109,93.809 L 85.458,94.033 L 85.809,94.253 L 86.163,94.469 L 86.518,94.681 L 86.876,94.889 L 87.237,95.094 L 87.599,95.295 L 87.963,95.492 L 88.330,95.685 L 88.699,95.874 L 89.069,96.059 L 89.442,96.240 L 89.816,96.417 L 90.193,96.590 L 90.571,96.759 L 90.951,96.924 L 91.333,97.084 L 91.716,97.241 L 92.102,97.393 L 92.488,97.541 L 92.877,97.685 L 93.267,97.825 L 93.658,97.960 L 94.051,98.091 L 94.446,98.218 L 94.842,98.340 L 95.239,98.458 L 95.637,98.572 L 96.036,98.682 L 96.437,98.787 L 96.839,98.887 L 97.242,98.983 L 97.646,99.075 L 98.051,99.162 L 98.457,99.245 L 98.864,99.323 L 99.271,99.396 L 99.680,99.466 L 100.089,99.530 L 100.499,99.590 L 100.909,99.645 L 101.321,99.696 L 101.732,99.742 L 102.144,99.784 L 102.557,99.821 L 102.970,99.853 L 103.383,99.881 L 103.797,99.904 L 104.211,99.922 L 104.625,99.935 L 105.039,99.944 L 105.453,99.948 L 105.867,99.948 L 106.282,99.942 L 106.696,99.932 L 107.110,99.918 L 107.523,99.898 L 107.937,99.874 L 108.350,99.845 L 108.763,99.811 L 109.176,99.772 L 109.588,99.729 L 109.999,99.681 L 110.410,99.628 L 110.820,99.570 L 111.230,99.508 L 111.638,99.440 L 112.046,99.368 L 112.453,99.291 L 112.859,99.210 L 113.265,99.124 L 113.669,99.033 L 114.072,98.937 L 114.474,98.836 L 114.874,98.731 L 115.274,98.621 L 115.672,98.506 L 116.068,98.386 L 116.463,98.262 L 116.857,98.133 L 117.249,97.999 L 117.640,97.861 L 118.028,97.718 L 118.415,97.570 L 118.800,97.417 L 119.184,97.260 L 119.565,97.098 L 119.944,96.932 L 120.322,96.761 L 120.697,96.585 L 121.070,96.405 L 121.441,96.220 L 121.809,96.031 L 122.175,95.837 L 122.539,95.639 L 122.900,95.436 L 123.259,95.229 L 123.615,95.017 L 123.968,94.801 L 124.319,94.581 L 124.667,94.356 L 125.012,94.127 L 125.354,93.893 L 125.694,93.656 L 126.030,93.414 L 126.363,93.168 L 126.693,92.917 L 127.020,92.663 L 127.344,92.404 L 127.664,92.141 L 127.981,91.874 L 128.294,91.604 L 128.604,91.329 L 128.910,91.050 L 129.213,90.767 L 129.512,90.481 L 129.808,90.190 L 130.100,89.896 L 130.387,89.598 L 130.671,89.297 L 130.951,88.992 L 131.227,88.683 L 131.499,88.370 L 131.767,88.054 L 132.031,87.735 L 132.290,87.412 L 132.546,87.086 L 132.797,86.756 L 133.044,86.423 L 133.286,86.087 L 133.523,85.748 L 133.757,85.406 L 133.986,85.060 L 134.210,84.712 L 134.429,84.361 L 134.644,84.007 L 134.855,83.650 L 135.060,83.290 L 135.261,82.928 L 135.457,82.563 L 135.648,82.195 L 135.834,81.825 L 136.016,81.453 L 136.192,81.078 L 136.364,80.701 L 136.530,80.322 L 136.692,79.940 L 136.849,79.557 L 137.000,79.171 L 137.147,78.784 L 137.288,78.395 L 137.425,78.004 L 137.556,77.611 L 137.683,77.216 L 137.805,76.820 L 137.921,76.423 L 138.032,76.024 L 138.139,75.623 L 138.241,75.222 L 138.337,74.819 L 138.429,74.415 L 138.516,74.010 L 138.599,73.604 L 138.676,73.197 L 138.749,72.789 L 138.817,72.381 L 138.881,71.971 L 138.941,71.562 L 138.996,71.151 L 139.047,70.740 L 139.094,70.328 L 139.136,69.916 L 139.175,69.504 L 139.211,69.091 L 139.242,68.678 L 139.271,68.265 L 139.296,67.851 L 139.318,67.438 L 139.337,67.024 L 139.354,66.610 L 139.368,66.196 L 139.380,65.782 L 139.389,65.368 L 139.397,64.953 L 139.404,64.539 L 139.408,64.125 L 139.412,63.711 L 139.415,63.297 L 139.417,62.882 L 139.418,62.468 L 139.419,62.054 L 139.419,61.639 L 139.419,61.225 L 139.419,60.811 L 139.419,60.397 L 139.419,59.982 L 139.419,59.568 L 139.419,59.154 L 139.419,58.740 L 139.419,58.325 L 139.418,57.911 L 139.417,57.497 L 139.416,57.083 L 139.414,56.668 L 139.411,56.254 L 139.407,55.840 L 139.402,55.426 L 139.395,55.012 L 139.386,54.597 L 139.376,54.183 L 139.363,53.769 L 139.348,53.355 L 139.331,52.941 L 139.311,52.528 L 139.288,52.114 L 139.262,51.701 L 139.232,51.287 L 139.199,50.874 L 139.163,50.462 L 139.123,50.049 L 139.078,49.638 L 139.030,49.226 L 138.978,48.815 L 138.921,48.405 L 138.860,47.995 L 138.795,47.586 L 138.725,47.178 L 138.651,46.770 L 138.572,46.364 L 138.488,45.958 L 138.399,45.553 L 138.306,45.150 L 138.207,44.747 L 138.104,44.346 L 137.996,43.946 L 137.883,43.548 L 137.764,43.151 L 137.641,42.755 L 137.513,42.361 L 137.380,41.969 L 137.241,41.579 L 137.098,41.190 L 136.950,40.803 L 136.797,40.418 L 136.639,40.035 L 136.475,39.655 L 136.307,39.276 L 136.134,38.900 L 135.955,38.526 L 135.773,38.154 L 135.584,37.785 L 135.392,37.418 L 135.194,37.054 L 134.992,36.693 L 134.785,36.334 L 134.573,35.978 L 134.356,35.625 L 134.135,35.275 L 133.909,34.927 L 133.679,34.583 L 133.444,34.242 L 133.205,33.904 L 132.961,33.569 L 132.713,33.237 L 132.461,32.909 L 132.204,32.583 L 131.943,32.262 L 131.678,31.943 L 131.409,31.629 L 131.135,31.317 L 130.858,31.010 L 130.577,30.706 L 130.291,30.405 L 130.002,30.109 L 129.709,29.816 L 129.413,29.527 L 129.112,29.241 L 128.808,28.960 L 128.501,28.682 L 128.189,28.409 L 127.875,28.139 L 127.557,27.874 L 127.235,27.613 L 126.911,27.355 L 126.583,27.102 L 126.252,26.853 L 125.918,26.608 L 125.580,26.368 L 125.240,26.132 L 124.897,25.899 L 124.551,25.672 L 124.202,25.449 L 123.850,25.230 L 123.496,25.015 L 123.139,24.805 L 122.779,24.599 L 122.417,24.398 L 122.053,24.201 L 121.686,24.009 L 121.317,23.821 L 120.945,23.638 L 120.571,23.459 L 120.195,23.285 L 119.817,23.116 L 119.437,22.951 L 119.055,22.790 L 118.672,22.635 L 118.286,22.484 L 117.898,22.338 L 117.509,22.196 L 117.118,22.060 L 116.725,21.927 L 116.331,21.800 L 115.935,21.677 L 115.538,21.559 L 115.140,21.446 L 114.740,21.337 L 114.339,21.234 L 113.937,21.135 L 113.533,21.040 L 113.129,20.951 L 112.723,20.866 L 112.317,20.786 L 111.910,20.711 L 111.501,20.640 L 111.092,20.574 L 110.683,20.514 L 110.272,20.458 L 109.861,20.406 L 109.450,20.360 L 109.037,20.318 L 108.625,20.281 L 108.212,20.249 L 107.798,20.222 L 107.385,20.199 L 106.971,20.181 L 106.557,20.168 L 106.143,20.159 L 105.729,20.155 L 105.314,20.156 L 104.900,20.162 L 104.486,20.172 L 104.072,20.187 L 103.658,20.207 L 103.245,20.232 L 102.831,20.261 L 102.419,20.295 L 102.006,20.333 L 101.594,20.376 L 101.183,20.424 L 100.772,20.476 L 100.361,20.533 L 99.952,20.595 L 99.543,20.661 L 99.135,20.731 L 98.727,20.806 L 98.321,20.886 L 97.915,20.970 L 97.510,21.059 L 97.107,21.152 L 96.704,21.250 L 96.303,21.352 L 95.902,21.458 L 95.503,21.569 L 95.105,21.685 L 94.709,21.804 L 94.314,21.928 L 93.920,22.056 L 93.527,22.189 L 93.136,22.326 L 92.747,22.467 L 92.359,22.612 L 91.972,22.762 L 91.588,22.915 L 91.205,23.073 L 90.823,23.235 L 90.444,23.401 L 90.066,23.571 L 89.690,23.746 L 89.317,23.924 L 88.945,24.106 L 88.575,24.293 L 88.207,24.483 L 87.841,24.678 L 87.477,24.876 L 87.116,25.078 L 86.756,25.284 L 86.399,25.494 L 86.044,25.707 L 85.691,25.925 L 85.341,26.146 L 84.993,26.371 L 84.648,26.599 L 84.304,26.831 L 83.964,27.067 L 83.626,27.306 L 83.290,27.549 L 82.957,27.796 L 82.627,28.046 L 82.300,28.299 L 81.975,28.556 L 81.653,28.817 L 81.333,29.081 L 81.016,29.348 L 80.703,29.618 L 80.391,29.892 L 80.083,30.168 L 79.778,30.448 L 79.476,30.732 L 79.177,31.018 L 78.881,31.308 L 78.588,31.601 L 78.298,31.897 L 78.011,32.195 L 77.727,32.497 L 77.446,32.802 L 77.169,33.109 L 76.894,33.420 L 76.623,33.733 L 76.355,34.049 L 76.091,34.368 L 75.830,34.690 L 75.573,35.014 L 75.318,35.341 L 75.067,35.671 L 74.820,36.003 L 74.575,36.337 L 74.335,36.674 Z"/>
</svg>
