<svg xmlns="http://www.w3.org/2000/svg" viewBox="0 0 1330 1925.254">
  <!-- Clements 49 frame: the three authored rails only. red = reach, green = spine, blue = inner. -->
  <path id="red_curve" fill="none" stroke="#ff0000" stroke-width="1" d="M 89.3420,1920.6178 C 89.3420,1846.2948 135.1250,1862.4378 135.1250,1811.0000 C 135.1250,1811.0000 135.1250,368.2000 135.1250,368.2000 C 133.2023,303.5280 136.1631,271.4255 117.0002,201.4959 C 99.2731,131.5662 14.4176,49.9225 107.9350,20.4850 C 142.6703,9.5510 184.6690,3.6736 229.3312,2.9122 C 304.9122,1.6238 388.1208,14.9865 456.6635,43.2878 C 565.6231,90.2756 603.3788,211.4461 638.7127,314.3955 C 666.0601,375.4178 675.7716,481.6624 752.7108,498.0408 C 826.9331,513.8409 922.1084,418.2527 977.2492,419.6138 C 1032.3899,420.9750 1083.5449,486.1516 1050.8259,562.8928 C 1021.6183,631.3981 909.4273,1066.4990 883.8447,1156.3232 C 860.8157,1237.1810 860.4081,1401.3860 797.0710,1538.7749 C 748.9335,1643.1932 689.4245,1793.6009 596.7410,1810.7635 C 504.0575,1827.9261 504.7771,1863.9661 506.2590,1920.6178"/>
  <path id="green_curve" fill="none" stroke="#00aa00" stroke-width="1" d="m 183.9566,1920.6178 c 0,-8.6024 3.7745,-18.241 8.564,-30.0516 10.6381,-26.2322 32.088,-61.244 59.899,-108.884 155.0411,-265.5849 647.7156,-1113.5147 692.417,-1189.2364 8.5192,-14.431 13.57105,-24.67143 18.0365,-32.6689 4.46545,-7.99747 14.31962,-42.02005 -11.87153,-38.74506 -26.19116,3.27498 -92.31469,70.8154 -121.6053,97.10307 -29.29061,26.28767 -126.91121,75.55451 -183.49391,36.42518 C 589.31967,615.43076 536.1258,437.9343 476.025,362.772 426.6464,301.0189 360.6259,292.977 325.314,291.67 c -33.8761,-1.307 -122.12434,7.31962 -122.189,76.53 -0.0647,69.21038 0,1391.2857 0,1442.8 0,51.4378 44.21447,35.2948 45.7832,109.6178"/>
  <path id="blue_curve" fill="none" stroke="#0000ff" stroke-width="1" d="m 224.974,1920.618 c 0.135,-45.056 -6.974,-73.854 19.08,-109.167 132.092,-227.631 677.327,-1171.653 722.968,-1251.43 11.41558,-18.90101 15.93025,-73.88709 -3.961,-78.222 -18.19386,-3.96499 -38.486,-10.158 -67.653,14.904 C 828.067,554.565 784.34,600.369 713.429,574.395 621.504,529.495 607.446,417.276 567.054,333.143 529.146,251.664 497.779,157.245 420.781,104.192 370.032,75.275 275.704,44.958 229.428,71.675 183.151,98.393 182.491,287.532 183.125,368.2 V 1811 c 1.876,37.848 1.905,74.838 1.905,110.749"/>
</svg>
