<svg xmlns="http://www.w3.org/2000/svg" viewBox="39.8 -22.2 1046.3 1967.8">
  <!-- Clements 49: red + green rails with the DTW convoy middle lane (f = 1/2), Schneider-fitted to a true cubic-bezier chain. -->
  <path id="red_curve" fill="none" stroke="#ff0000" stroke-width="2" d="M 89.3420,1920.6178 C 89.3420,1846.2948 135.1250,1862.4378 135.1250,1811.0000 C 135.1250,1811.0000 135.1250,368.2000 135.1250,368.2000 C 133.2023,303.5280 136.1631,271.4255 117.0002,201.4959 C 99.2731,131.5662 14.4176,49.9225 107.9350,20.4850 C 142.6703,9.5510 184.6690,3.6736 229.3312,2.9122 C 304.9122,1.6238 388.1208,14.9865 456.6635,43.2878 C 565.6231,90.2756 603.3788,211.4461 638.7127,314.3955 C 666.0601,375.4178 675.7716,481.6624 752.7108,498.0408 C 826.9331,513.8409 922.1084,418.2527 977.2492,419.6138 C 1032.3899,420.9750 1083.5449,486.1516 1050.8259,562.8928 C 1021.6183,631.3981 909.4273,1066.4990 883.8447,1156.3232 C 860.8157,1237.1810 860.4081,1401.3860 797.0710,1538.7749 C 748.9335,1643.1932 689.4245,1793.6009 596.7410,1810.7635 C 504.0575,1827.9261 504.7771,1863.9661 506.2590,1920.6178"/>
  <path id="green_curve" fill="none" stroke="#00aa00" stroke-width="2" d="m 183.9566,1920.6178 c 0,-8.6024 3.7745,-18.241 8.564,-30.0516 10.6381,-26.2322 32.088,-61.244 59.899,-108.884 155.0411,-265.5849 647.7156,-1113.5147 692.417,-1189.2364 8.5192,-14.431 13.57105,-24.67143 18.0365,-32.6689 4.46545,-7.99747 14.31962,-42.02005 -11.87153,-38.74506 -26.19116,3.27498 -92.31469,70.8154 -121.6053,97.10307 -29.29061,26.28767 -126.91121,75.55451 -183.49391,36.42518 C 589.31967,615.43076 536.1258,437.9343 476.025,362.772 426.6464,301.0189 360.6259,292.977 325.314,291.67 c -33.8761,-1.307 -122.12434,7.31962 -122.189,76.53 -0.0647,69.21038 0,1391.2857 0,1442.8 0,51.4378 44.21447,35.2948 45.7832,109.6178"/>
  <path id="lane_mid" data-role="lane" fill="none" stroke="#1d4ed8" stroke-width="1.4" d="M 169.125,1920.618 C 169.332,1911.708 170.194,1902.953 171.517,1894.136 C 172.850,1885.248 174.962,1876.344 175.147,1867.319 C 175.433,1853.434 174.536,1862.428 172.572,1848.574 C 171.868,1843.612 172.180,1838.551 171.652,1833.567 C 170.714,1824.733 169.467,1816.009 169.192,1807.114 C 168.446,1783.015 169.124,1758.793 169.124,1734.683 C 169.123,1686.395 169.122,1638.107 169.121,1589.819 C 169.115,1275.947 169.110,962.075 169.111,648.203 C 169.111,593.879 169.111,539.555 169.112,485.231 C 169.113,434.021 169.189,382.649 163.001,331.741 C 160.838,313.956 158.235,296.310 154.252,278.831 C 149.788,259.239 144.687,240.631 144.824,220.360 C 144.907,208.139 144.630,193.878 150.418,182.708 C 158.028,168.024 175.614,163.247 190.349,159.198 C 230.314,148.216 272.988,146.088 314.159,149.421 C 351.329,152.431 389.301,159.270 423.926,173.534 C 438.618,179.587 452.297,187.898 465.016,197.375 C 485.334,212.516 503.490,230.580 518.532,250.978 C 552.644,297.237 571.332,352.405 593.904,404.649 C 608.237,437.824 619.483,472.351 635.526,504.783 C 646.281,526.525 659.432,548.048 678.447,563.571 C 686.002,569.738 694.340,574.956 703.530,578.325 C 720.026,584.373 737.941,584.492 755.103,581.748 C 780.151,577.743 804.096,567.907 826.546,556.380 C 832.940,553.097 838.474,550.042 844.671,546.415 C 853.083,541.493 861.246,536.232 869.251,530.678 C 886.339,518.822 903.374,505.803 922.648,497.628 C 927.890,495.404 933.002,493.773 938.531,492.439 C 943.621,491.210 948.870,490.347 954.084,489.868 C 967.736,488.613 982.636,489.632 995.415,494.973 C 1002.392,497.890 1008.918,502.224 1012.112,509.430 C 1013.323,512.162 1013.886,515.166 1014.302,518.126 C 1015.977,530.063 1012.910,542.262 1008.841,553.364 C 1001.625,573.053 991.643,591.799 983.272,611.023 C 953.388,679.654 925.284,749.079 896.991,818.376 C 867.589,890.391 838.566,962.560 809.176,1034.579 C 796.230,1066.300 781.966,1097.597 770.149,1129.759 C 759.891,1157.675 750.972,1186.050 741.375,1214.194 C 725.611,1260.423 709.451,1306.637 691.368,1352.017 C 672.388,1399.645 649.652,1445.166 626.294,1490.752 C 604.301,1533.677 582.122,1576.651 556.632,1617.635 C 537.859,1647.820 517.206,1678.070 490.591,1701.952 C 469.494,1720.883 443.657,1733.491 423.977,1754.230 C 411.530,1767.345 402.675,1784.516 393.771,1800.114 C 380.522,1823.325 368.242,1847.467 358.556,1872.391 C 354.619,1882.521 350.098,1894.252 347.650,1904.910 C 346.463,1910.079 345.955,1915.382 345.108,1920.618"/>
</svg>
