<svg xmlns="http://www.w3.org/2000/svg" viewBox="39.8 -22.2 1046.3 1967.8">
  <!-- Clements 49 (22in soundbox): red + green rails with the DTW convoy middle lane (f = 1/2), Schneider-fitted cubic chain. -->
  <path id="red_curve" fill="none" stroke="#ff0000" stroke-width="2" d="M 89.3420,1920.6178 C 89.3420,1846.2948 135.1250,1862.4378 135.1250,1811.0000 C 135.1250,1811.0000 135.1250,368.2000 135.1250,368.2000 C 133.2023,303.5280 136.1631,271.4255 117.0002,201.4959 C 99.2731,131.5662 14.4176,49.9225 107.9350,20.4850 C 142.6703,9.5510 184.6690,3.6736 229.3312,2.9122 C 304.9122,1.6238 388.1208,14.9865 456.6635,43.2878 C 565.6231,90.2756 603.3788,211.4461 638.7127,314.3955 C 666.0601,375.4178 675.7716,481.6624 752.7108,498.0408 C 826.9331,513.8409 922.1084,418.2527 977.2492,419.6138 C 1032.3899,420.9750 1083.5449,486.1516 1050.8259,562.8928 C 1021.6183,631.3981 999.8555,1111.6923 974.2729,1201.5165 C 951.2439,1282.3743 994.0591,1474.1234 930.7220,1611.5123 C 882.5845,1715.9306 808.1138,1860.5339 715.4303,1877.6965 C 622.7468,1894.8591 617.1201,1863.9661 618.6020,1920.6178"/>
  <path id="green_curve" fill="none" stroke="#00aa00" stroke-width="2" d="m 183.9566,1920.6178 c 0,-8.6024 3.7745,-18.241 8.564,-30.0516 10.6381,-26.2322 32.088,-61.244 59.899,-108.884 155.0411,-265.5849 647.7156,-1113.5147 692.417,-1189.2364 8.5192,-14.431 13.57105,-24.67143 18.0365,-32.6689 4.46545,-7.99747 14.31962,-42.02005 -11.87153,-38.74506 -26.19116,3.27498 -92.31469,70.8154 -121.6053,97.10307 -29.29061,26.28767 -126.91121,75.55451 -183.49391,36.42518 C 589.31967,615.43076 536.1258,437.9343 476.025,362.772 426.6464,301.0189 360.6259,292.977 325.314,291.67 c -33.8761,-1.307 -122.12434,7.31962 -122.189,76.53 -0.0647,69.21038 0,1391.2857 0,1442.8 0,51.4378 44.21447,35.2948 45.7832,109.6178"/>
  <path id="lane_mid" data-role="lane" fill="none" stroke="#1d4ed8" stroke-width="1.4" d="M 169.125,1920.618 C 169.334,1911.685 170.201,1902.910 171.540,1894.072 C 172.888,1885.177 175.029,1876.268 175.230,1867.234 C 175.538,1853.462 174.625,1862.199 172.669,1848.456 C 171.960,1843.472 172.247,1838.390 171.699,1833.386 C 170.731,1824.532 169.467,1815.795 169.192,1806.876 C 168.446,1782.731 169.124,1758.464 169.124,1734.309 C 169.123,1685.930 169.122,1637.551 169.121,1589.172 C 169.116,1277.734 169.110,966.295 169.111,654.856 C 169.111,600.430 169.111,546.004 169.112,491.578 C 169.112,440.284 169.416,388.766 163.407,337.754 C 160.956,316.952 157.792,296.389 152.953,276.000 C 150.252,264.623 146.837,253.339 145.015,241.773 C 143.368,231.319 143.266,220.785 143.879,210.242 C 144.382,201.607 145.547,192.603 149.191,184.647 C 156.245,169.246 173.543,163.929 188.578,159.699 C 228.610,148.435 271.325,146.234 312.646,149.304 C 351.805,152.212 392.968,159.360 428.931,175.726 C 441.387,181.394 453.106,188.604 464.112,196.717 C 482.268,210.100 498.764,225.712 512.794,243.390 C 552.147,292.974 573.159,355.121 597.413,412.809 C 610.276,443.406 620.795,475.008 635.535,504.802 C 646.311,526.584 659.499,548.134 678.584,563.648 C 686.162,569.807 694.524,575.013 703.734,578.362 C 720.267,584.374 738.208,584.446 755.385,581.667 C 780.527,577.600 804.600,567.704 827.121,556.082 C 833.606,552.736 839.782,549.300 846.058,545.580 C 854.867,540.357 863.269,534.653 871.598,528.706 C 888.954,516.312 906.487,502.848 926.386,494.730 C 931.643,492.585 936.811,491.018 942.344,489.775 C 947.467,488.624 952.713,487.858 957.949,487.471 C 969.666,486.603 982.192,487.436 993.311,491.502 C 1000.605,494.169 1007.518,498.293 1011.121,505.546 C 1012.457,508.235 1013.147,511.228 1013.688,514.182 C 1018.099,538.252 1004.964,561.590 995.716,582.770 C 992.129,590.986 989.045,599.426 986.011,607.857 C 961.979,674.635 942.244,743.065 921.748,810.987 C 906.854,860.341 891.319,909.484 876.241,958.780 C 864.136,998.358 852.226,1037.996 839.534,1077.392 C 834.069,1094.353 828.542,1111.316 822.375,1128.038 C 816.177,1144.844 809.645,1161.304 804.656,1178.540 C 794.912,1212.203 787.294,1246.470 778.988,1280.504 C 767.137,1329.064 754.558,1377.559 737.778,1424.686 C 723.572,1464.582 705.113,1502.084 685.295,1539.436 C 669.711,1568.807 653.642,1597.941 636.494,1626.431 C 610.489,1669.637 582.278,1713.860 545.060,1748.385 C 534.663,1758.030 523.405,1766.286 511.454,1773.888 C 506.970,1776.740 502.155,1779.712 497.589,1782.433 C 495.281,1783.809 492.572,1784.645 490.633,1786.505 C 480.602,1796.133 472.344,1807.455 462.988,1817.740 C 454.505,1827.066 445.654,1836.052 437.187,1845.392 C 429.878,1853.454 420.308,1863.749 415.001,1873.667 C 407.136,1888.368 403.836,1904.381 401.279,1920.618"/>
</svg>
