<svg xmlns="http://www.w3.org/2000/svg" viewBox="39.8 -22.2 1046.3 1967.8">
  <!-- Clements 49: red + green rails with the DTW convoy middle lane (f = 1/2). -->
  <path id="red_curve" fill="none" stroke="#ff0000" stroke-width="2" d="M 89.3420,1920.6178 C 89.3420,1846.2948 135.1250,1862.4378 135.1250,1811.0000 C 135.1250,1811.0000 135.1250,368.2000 135.1250,368.2000 C 133.2023,303.5280 136.1631,271.4255 117.0002,201.4959 C 99.2731,131.5662 14.4176,49.9225 107.9350,20.4850 C 142.6703,9.5510 184.6690,3.6736 229.3312,2.9122 C 304.9122,1.6238 388.1208,14.9865 456.6635,43.2878 C 565.6231,90.2756 603.3788,211.4461 638.7127,314.3955 C 666.0601,375.4178 675.7716,481.6624 752.7108,498.0408 C 826.9331,513.8409 922.1084,418.2527 977.2492,419.6138 C 1032.3899,420.9750 1083.5449,486.1516 1050.8259,562.8928 C 1021.6183,631.3981 909.4273,1066.4990 883.8447,1156.3232 C 860.8157,1237.1810 860.4081,1401.3860 797.0710,1538.7749 C 748.9335,1643.1932 689.4245,1793.6009 596.7410,1810.7635 C 504.0575,1827.9261 504.7771,1863.9661 506.2590,1920.6178"/>
  <path id="green_curve" fill="none" stroke="#00aa00" stroke-width="2" d="m 183.9566,1920.6178 c 0,-8.6024 3.7745,-18.241 8.564,-30.0516 10.6381,-26.2322 32.088,-61.244 59.899,-108.884 155.0411,-265.5849 647.7156,-1113.5147 692.417,-1189.2364 8.5192,-14.431 13.57105,-24.67143 18.0365,-32.6689 4.46545,-7.99747 14.31962,-42.02005 -11.87153,-38.74506 -26.19116,3.27498 -92.31469,70.8154 -121.6053,97.10307 -29.29061,26.28767 -126.91121,75.55451 -183.49391,36.42518 C 589.31967,615.43076 536.1258,437.9343 476.025,362.772 426.6464,301.0189 360.6259,292.977 325.314,291.67 c -33.8761,-1.307 -122.12434,7.31962 -122.189,76.53 -0.0647,69.21038 0,1391.2857 0,1442.8 0,51.4378 44.21447,35.2948 45.7832,109.6178"/>
  <path id="lane_mid" data-role="lane" fill="none" stroke="#1d4ed8" stroke-width="1.4" d="M 169.13,1920.62 L 169.25,1915.32 L 169.65,1909.11 L 170.43,1902.02 L 171.52,1894.14 L 172.90,1885.59 L 174.34,1876.57 L 175.15,1867.32 L 174.73,1858.00 L 172.57,1848.57 L 172.38,1841.46 L 171.65,1833.57 L 170.64,1825.03 L 169.68,1816.14 L 169.19,1807.11 L 169.12,1798.06 L 169.12,1789.01 L 169.12,1779.95 L 169.12,1770.90 L 169.12,1761.85 L 169.12,1752.79 L 169.12,1743.74 L 169.12,1734.68 L 169.12,1725.63 L 169.12,1716.58 L 169.12,1707.52 L 169.12,1698.47 L 169.12,1689.41 L 169.12,1680.36 L 169.12,1671.31 L 169.12,1662.25 L 169.12,1653.20 L 169.12,1644.14 L 169.12,1635.09 L 169.12,1626.04 L 169.12,1616.98 L 169.12,1607.93 L 169.12,1598.87 L 169.12,1589.82 L 169.12,1580.77 L 169.12,1571.71 L 169.12,1562.66 L 169.12,1553.60 L 169.12,1544.55 L 169.12,1535.50 L 169.12,1526.44 L 169.12,1517.39 L 169.12,1508.33 L 169.12,1499.28 L 169.12,1490.23 L 169.12,1481.17 L 169.12,1472.12 L 169.12,1463.06 L 169.12,1454.01 L 169.12,1444.96 L 169.12,1435.90 L 169.12,1426.85 L 169.12,1417.79 L 169.12,1408.74 L 169.12,1399.69 L 169.12,1390.63 L 169.12,1381.58 L 169.12,1372.52 L 169.12,1363.47 L 169.12,1354.42 L 169.12,1345.36 L 169.12,1336.31 L 169.12,1327.25 L 169.12,1318.20 L 169.12,1309.15 L 169.12,1300.09 L 169.12,1291.04 L 169.12,1281.98 L 169.12,1272.93 L 169.12,1263.88 L 169.12,1254.82 L 169.12,1245.77 L 169.12,1236.71 L 169.12,1227.66 L 169.12,1218.61 L 169.12,1209.55 L 169.11,1200.50 L 169.11,1191.44 L 169.11,1182.39 L 169.11,1173.34 L 169.11,1164.28 L 169.11,1155.23 L 169.11,1146.17 L 169.11,1137.12 L 169.11,1128.07 L 169.11,1119.01 L 169.11,1109.96 L 169.11,1100.90 L 169.11,1091.85 L 169.11,1082.79 L 169.11,1073.74 L 169.11,1064.69 L 169.11,1055.63 L 169.11,1046.58 L 169.11,1037.52 L 169.11,1028.47 L 169.11,1019.42 L 169.11,1010.36 L 169.11,1001.31 L 169.11,992.25 L 169.11,983.20 L 169.11,974.15 L 169.11,965.09 L 169.11,956.04 L 169.11,946.98 L 169.11,937.93 L 169.11,928.88 L 169.11,919.82 L 169.11,910.77 L 169.11,901.71 L 169.11,892.66 L 169.11,883.61 L 169.11,874.55 L 169.11,865.50 L 169.11,856.44 L 169.11,847.39 L 169.11,838.34 L 169.11,829.28 L 169.11,820.23 L 169.11,811.17 L 169.11,802.12 L 169.11,793.07 L 169.11,784.01 L 169.11,774.96 L 169.11,765.90 L 169.11,756.85 L 169.11,747.80 L 169.11,738.74 L 169.11,729.69 L 169.11,720.63 L 169.11,711.58 L 169.11,702.53 L 169.11,693.47 L 169.11,684.42 L 169.11,675.36 L 169.11,666.31 L 169.11,657.26 L 169.11,648.20 L 169.11,639.15 L 169.11,630.09 L 169.11,621.04 L 169.11,611.99 L 169.11,602.93 L 169.11,593.88 L 169.11,584.82 L 169.11,575.77 L 169.11,566.72 L 169.11,557.66 L 169.11,548.61 L 169.11,539.55 L 169.11,530.50 L 169.11,521.45 L 169.11,512.39 L 169.11,503.34 L 169.11,494.28 L 169.11,485.23 L 169.11,476.18 L 169.11,467.12 L 168.99,458.07 L 168.88,449.02 L 168.79,439.96 L 168.70,430.91 L 168.59,421.86 L 168.45,412.81 L 168.25,403.76 L 167.98,394.71 L 167.61,385.67 L 167.13,376.64 L 166.54,367.62 L 165.82,358.62 L 164.98,349.64 L 164.04,340.68 L 163.00,331.74 L 161.87,322.82 L 160.66,313.92 L 159.39,305.04 L 157.89,296.22 L 156.16,287.49 L 154.25,278.83 L 152.22,270.22 L 150.11,261.66 L 148.06,253.12 L 146.44,244.62 L 145.36,236.22 L 144.89,227.97 L 144.82,220.36 L 144.99,213.30 L 145.28,206.67 L 145.72,200.39 L 146.79,194.16 L 148.26,188.20 L 150.42,182.71 L 153.73,177.65 L 157.64,173.47 L 162.25,170.02 L 167.31,167.26 L 173.01,164.75 L 178.86,162.62 L 184.36,160.91 L 190.35,159.20 L 196.37,157.61 L 202.42,156.18 L 208.51,154.92 L 214.63,153.77 L 221.21,152.62 L 227.38,151.74 L 234.00,150.83 L 240.65,150.10 L 247.31,149.46 L 253.98,148.96 L 260.66,148.57 L 267.34,148.29 L 274.03,148.13 L 280.73,148.07 L 287.42,148.14 L 294.11,148.28 L 300.80,148.57 L 307.48,148.93 L 314.16,149.42 L 320.83,150.01 L 327.96,150.73 L 335.07,151.56 L 342.17,152.53 L 349.26,153.59 L 356.33,154.79 L 363.37,156.10 L 370.39,157.54 L 377.39,159.10 L 384.35,160.79 L 390.83,162.53 L 397.72,164.49 L 404.12,166.47 L 410.93,168.70 L 417.24,170.95 L 423.93,173.53 L 430.05,176.23 L 436.06,179.16 L 441.96,182.29 L 447.72,185.67 L 453.35,189.23 L 459.26,193.20 L 465.02,197.38 L 471.03,201.97 L 476.86,206.78 L 482.92,212.03 L 489.19,217.74 L 495.23,223.70 L 501.43,230.18 L 507.37,236.89 L 513.07,243.84 L 518.53,250.98 L 523.75,258.31 L 528.73,265.82 L 533.49,273.48 L 538.05,281.27 L 542.44,289.16 L 546.66,297.14 L 550.75,305.19 L 554.72,313.31 L 558.57,321.48 L 562.33,329.69 L 566.01,337.94 L 569.61,346.23 L 573.15,354.54 L 576.65,362.88 L 580.10,371.23 L 583.51,379.60 L 586.91,387.97 L 590.29,396.35 L 593.90,404.65 L 597.47,412.96 L 600.91,421.33 L 604.26,429.72 L 607.56,438.14 L 610.84,446.55 L 614.12,454.97 L 617.45,463.37 L 620.83,471.74 L 624.30,480.09 L 627.89,488.38 L 631.62,496.62 L 635.53,504.78 L 639.64,512.84 L 644.01,520.78 L 648.66,528.54 L 653.64,536.09 L 659.00,543.36 L 664.91,550.48 L 671.43,557.31 L 678.45,563.57 L 686.13,569.31 L 694.55,574.35 L 703.53,578.33 L 713.19,581.18 L 723.39,582.88 L 733.95,583.52 L 744.56,583.07 L 755.10,581.75 L 765.78,579.67 L 776.32,576.92 L 786.71,573.63 L 796.94,569.84 L 807.03,565.67 L 816.97,561.13 L 826.55,556.38 L 835.78,551.47 L 844.67,546.42 L 853.23,541.26 L 861.43,536.02 L 869.25,530.68 L 876.97,525.24 L 884.53,519.99 L 891.96,515.01 L 899.47,510.19 L 907.07,505.60 L 914.80,501.36 L 922.65,497.63 L 930.59,494.66 L 938.53,492.44 L 946.38,490.85 L 954.08,489.87 L 961.59,489.45 L 968.86,489.56 L 975.88,490.16 L 982.64,491.24 L 989.14,492.82 L 995.42,494.97 L 1001.52,498.00 L 1007.40,502.55 L 1012.11,509.43 L 1014.30,518.13 L 1014.60,527.16 L 1013.67,536.12 L 1011.75,544.90 L 1008.84,553.36 L 1005.57,561.75 L 1001.93,570.00 L 998.05,578.16 L 994.25,586.34 L 990.53,594.55 L 986.88,602.78 L 983.27,611.02 L 979.70,619.28 L 976.14,627.54 L 972.61,635.81 L 969.10,644.09 L 965.60,652.37 L 962.11,660.65 L 958.63,668.94 L 955.16,677.23 L 951.70,685.52 L 948.24,693.81 L 944.79,702.11 L 941.35,710.40 L 937.92,718.70 L 934.49,727.00 L 931.06,735.30 L 927.64,743.61 L 924.22,751.91 L 920.81,760.22 L 917.40,768.52 L 913.99,776.83 L 910.58,785.14 L 907.18,793.45 L 903.78,801.75 L 900.39,810.07 L 896.99,818.38 L 893.60,826.69 L 890.21,835.00 L 886.82,843.31 L 883.43,851.62 L 880.05,859.94 L 876.67,868.25 L 873.29,876.57 L 869.91,884.88 L 866.53,893.20 L 863.15,901.51 L 859.77,909.83 L 856.40,918.14 L 853.02,926.46 L 849.65,934.78 L 846.27,943.09 L 842.90,951.41 L 839.53,959.73 L 836.16,968.04 L 832.79,976.36 L 829.41,984.68 L 826.04,993.00 L 822.67,1001.31 L 819.30,1009.63 L 815.93,1017.95 L 812.55,1026.26 L 809.18,1034.58 L 805.68,1043.10 L 802.07,1051.82 L 798.45,1060.54 L 794.83,1069.26 L 791.20,1077.98 L 787.57,1086.69 L 783.92,1095.40 L 780.26,1104.11 L 776.64,1112.83 L 773.27,1121.38 L 770.15,1129.76 L 767.11,1138.15 L 764.14,1146.56 L 761.23,1154.98 L 758.36,1163.40 L 755.51,1171.83 L 752.69,1180.26 L 749.89,1188.69 L 747.09,1197.12 L 744.29,1205.56 L 741.38,1214.19 L 738.33,1223.03 L 735.28,1231.87 L 732.21,1240.70 L 729.13,1249.54 L 726.02,1258.36 L 722.89,1267.19 L 719.73,1276.01 L 716.54,1284.82 L 713.43,1293.43 L 710.41,1301.83 L 707.34,1310.22 L 704.24,1318.60 L 701.09,1326.97 L 697.90,1335.33 L 694.66,1343.68 L 691.37,1352.02 L 688.02,1360.34 L 684.62,1368.65 L 681.16,1376.94 L 677.63,1385.22 L 674.04,1393.47 L 670.39,1401.70 L 666.67,1409.91 L 662.87,1418.09 L 659.00,1426.25 L 655.05,1434.37 L 651.02,1442.46 L 646.91,1450.51 L 642.77,1458.55 L 638.65,1466.60 L 634.53,1474.65 L 630.41,1482.70 L 626.29,1490.75 L 622.17,1498.80 L 618.03,1506.84 L 613.87,1514.87 L 609.70,1522.90 L 605.50,1530.91 L 601.28,1538.91 L 597.03,1546.90 L 592.74,1554.87 L 588.41,1562.82 L 584.04,1570.74 L 579.62,1578.64 L 575.15,1586.52 L 570.62,1594.36 L 566.03,1602.16 L 561.37,1609.92 L 556.63,1617.63 L 551.81,1625.29 L 546.89,1632.88 L 541.88,1640.41 L 536.76,1647.84 L 531.52,1655.18 L 526.15,1662.42 L 520.63,1669.50 L 514.97,1676.44 L 509.14,1683.18 L 503.14,1689.72 L 496.95,1695.98 L 490.59,1701.95 L 484.05,1707.55 L 477.36,1712.76 L 470.54,1717.55 L 463.68,1722.15 L 456.84,1726.89 L 450.06,1731.80 L 443.33,1736.93 L 436.71,1742.33 L 430.23,1748.08 L 423.98,1754.23 L 418.07,1760.88 L 405.35,1780.65 L 393.77,1800.11 L 383.38,1819.15 L 374.11,1837.59 L 364.63,1857.41 L 358.56,1872.39 L 352.40,1888.87 L 347.65,1904.91 L 345.11,1920.62"/>
</svg>
