<svg xmlns="http://www.w3.org/2000/svg" viewBox="0 0 1330 1925.254">
  <!-- ================================================================
       Clements 49 FRAME - authored curves recovered VERBATIM from
       harptube15.html (this project's own deliverable). No d= string was
       refitted, resampled, or altered.

       PROVENANCE / CAVEAT: this is the v14/v15-era frame. viewBox matches
       canon ("0 0 1330 1925.254") and green foot 1 = 183.96 matches the
       recorded new frame, BUT green foot 2 here is 248.91 while the project
       record lists 252.87 for the newest frame. Treat as v14/v15, NOT as a
       replacement for a current canonical frame.svg if one exists.

       PARSING: green_curve and blue_curve use RELATIVE (lowercase m/c)
       encoding. Parse with core._flatten. NEVER frame.flatten (known
       relative-coordinate bug -> endpoint drift).

       VERIFIED: core.load_frame() parses it (green 577 / red 673 / blue 482
       pts). convoy.build_convoy(iteration=3) -> 7 lanes, 0 crossings, floor
       ends 466.0 425.7 385.4 345.1 304.8 264.5 224.2 (identical to the
       approved figure).
       ================================================================ -->

  <!-- ---- control curves (authored) ---- -->
  <path id="red_curve" fill="none" stroke="#ff0000" stroke-width="1" d="M 89.3420,1920.6178 C 89.3420,1846.2948 135.1250,1862.4378 135.1250,1811.0000 C 135.1250,1811.0000 135.1250,368.2000 135.1250,368.2000 C 133.2023,303.5280 136.1631,271.4255 117.0002,201.4959 C 99.2731,131.5662 14.4176,49.9225 107.9350,20.4850 C 142.6703,9.5510 184.6690,3.6736 229.3312,2.9122 C 304.9122,1.6238 388.1208,14.9865 456.6635,43.2878 C 565.6231,90.2756 603.3788,211.4461 638.7127,314.3955 C 666.0601,375.4178 675.7716,481.6624 752.7108,498.0408 C 826.9331,513.8409 922.1084,418.2527 977.2492,419.6138 C 1032.3899,420.9750 1083.5449,486.1516 1050.8259,562.8928 C 1021.6183,631.3981 909.4273,1066.4990 883.8447,1156.3232 C 860.8157,1237.1810 860.4081,1401.3860 797.0710,1538.7749 C 748.9335,1643.1932 689.4245,1793.6009 596.7410,1810.7635 C 504.0575,1827.9261 504.7771,1863.9661 506.2590,1920.6178"/>
  <path id="green_curve" fill="none" stroke="#00aa00" stroke-width="1" d="m 183.9566,1920.6178 c 0,-8.6024 3.7745,-18.241 8.564,-30.0516 10.6381,-26.2322 32.088,-61.244 59.899,-108.884 155.0411,-265.5849 647.7156,-1113.5147 692.417,-1189.2364 8.5192,-14.431 13.57105,-24.67143 18.0365,-32.6689 4.46545,-7.99747 14.31962,-42.02005 -11.87153,-38.74506 -26.19116,3.27498 -92.31469,70.8154 -121.6053,97.10307 -29.29061,26.28767 -126.91121,75.55451 -183.49391,36.42518 C 589.31967,615.43076 536.1258,437.9343 476.025,362.772 426.6464,301.0189 360.6259,292.977 325.314,291.67 c -33.8761,-1.307 -122.12434,7.31962 -122.189,76.53 -0.0647,69.21038 0,1391.2857 0,1442.8 0,51.4378 44.21447,35.2948 45.7832,109.6178"/>
  <path id="blue_curve" fill="none" stroke="#0000ff" stroke-width="1" d="m 224.974,1920.618 c 0.135,-45.056 -6.974,-73.854 19.08,-109.167 132.092,-227.631 677.327,-1171.653 722.968,-1251.43 11.41558,-18.90101 15.93025,-73.88709 -3.961,-78.222 -18.19386,-3.96499 -38.486,-10.158 -67.653,14.904 C 828.067,554.565 784.34,600.369 713.429,574.395 621.504,529.495 607.446,417.276 567.054,333.143 529.146,251.664 497.779,157.245 420.781,104.192 370.032,75.275 275.704,44.958 229.428,71.675 183.151,98.393 182.491,287.532 183.125,368.2 V 1811 c 1.876,37.848 1.905,74.838 1.905,110.749"/>
  <path id="path1" fill="none" stroke="#00ffff" stroke-width="1" d="M 59.178354,1920.6178 H 527.52117"/>
  <path id="start_line" fill="none" stroke="#ffff00" stroke-width="1" d="M 506.33845,1920.6178 H 184.11934"/>
  <path id="finish_line" fill="none" stroke="#ff00ff" stroke-width="1" d="M 89.571173,1920.6178 H 248.67989"/>

  <!-- ---- 49 strings (stroke-width = string diameter) ---- -->
  <line x1="264.6" y1="1754.4" x2="252.6" y2="83.1" stroke-width="1.93" id="line1" />
  <line x1="281.1" y1="1726.2" x2="270.8" y2="83.1" stroke-width="1.89" id="line2" />
  <line x1="297.6" y1="1697.9" x2="288.3" y2="82.8" stroke-width="1.88" id="line3" />
  <line x1="314.9" y1="1668.3" x2="305.9" y2="82.3" stroke-width="1.87" id="line4" />
  <line x1="330.3" y1="1641.9" x2="321.7" y2="82.1" stroke-width="1.86" id="line5" />
  <line x1="346.9" y1="1613.3" x2="338.7" y2="83.5" stroke-width="1.85" id="line6" />
  <line x1="363.5" y1="1584.9" x2="355.5" y2="87.3" stroke-width="1.83" id="line7" />
  <line x1="379.6" y1="1557.2" x2="372.4" y2="92.5" stroke-width="1.80" id="line8" />
  <line x1="397.3" y1="1526.9" x2="390.4" y2="98.9" stroke-width="1.78" id="line9" />
  <line x1="414.6" y1="1497.3" x2="408.0" y2="107.6" stroke-width="1.76" id="line10" />
  <line x1="430.3" y1="1470.3" x2="423.8" y2="116.6" stroke-width="1.70" id="line11" />
  <line x1="447.0" y1="1441.8" x2="441.0" y2="131.1" stroke-width="1.65" id="line12" />
  <line x1="461.2" y1="1417.4" x2="455.1" y2="144.7" stroke-width="1.62" id="line13" />
  <line x1="475.6" y1="1392.7" x2="470.1" y2="161.7" stroke-width="1.57" id="line14" />
  <line x1="492.2" y1="1364.2" x2="486.3" y2="182.9" stroke-width="3.86" id="line15" />
  <line x1="505.9" y1="1340.6" x2="500.7" y2="206.5" stroke-width="3.71" id="line16" />
  <line x1="523.0" y1="1311.3" x2="518.2" y2="239.8" stroke-width="3.64" id="line17" />
  <line x1="539.3" y1="1283.4" x2="535.1" y2="276.1" stroke-width="3.44" id="line18" />
  <line x1="558.9" y1="1249.8" x2="555.4" y2="322.8" stroke-width="3.26" id="line19" />
  <line x1="578.3" y1="1216.5" x2="575.2" y2="368.2" stroke-width="3.17" id="line20" />
  <line x1="594.6" y1="1188.5" x2="588.9" y2="413.4" stroke-width="2.99" id="line21" />
  <line x1="610.3" y1="1161.7" x2="606.9" y2="457.4" stroke-width="2.80" id="line22" />
  <line x1="625.4" y1="1135.8" x2="622.7" y2="494.3" stroke-width="2.62" id="line23" />
  <line x1="638.5" y1="1113.2" x2="636.4" y2="517.9" stroke-width="2.59" id="line24" />
  <line x1="651.6" y1="1090.7" x2="649.8" y2="539.1" stroke-width="2.45" id="line25" />
  <line x1="662.8" y1="1071.5" x2="661.1" y2="556.6" stroke-width="2.32" id="line26" />
  <line x1="674.6" y1="1051.3" x2="673.3" y2="558.1" stroke-width="2.26" id="line27" />
  <line x1="688.4" y1="1027.8" x2="687.2" y2="568.1" stroke-width="2.14" id="line28" />
  <line x1="702.2" y1="1004.1" x2="701.0" y2="577.6" stroke-width="2.02" id="line29" />
  <line x1="714.7" y1="982.6" x2="714.1" y2="584.8" stroke-width="1.90" id="line30" />
  <line x1="729.2" y1="957.8" x2="728.7" y2="588.7" stroke-width="1.84" id="line31" />
  <line x1="742.6" y1="934.8" x2="742.6" y2="590.7" stroke-width="1.74" id="line32" />
  <line x1="755.8" y1="912.2" x2="756.3" y2="591.5" stroke-width="1.63" id="line33" />
  <line x1="768.5" y1="890.4" x2="769.4" y2="589.4" stroke-width="1.59" id="line34" />
  <line x1="782.1" y1="867.0" x2="783.1" y2="586.3" stroke-width="1.49" id="line35" />
  <line x1="797.1" y1="841.3" x2="798.5" y2="580.7" stroke-width="1.41" id="line36" />
  <line x1="810.1" y1="819.0" x2="811.9" y2="573.9" stroke-width="1.33" id="line37" />
  <line x1="822.4" y1="798.0" x2="824.1" y2="566.4" stroke-width="1.30" id="line38" />
  <line x1="833.8" y1="778.4" x2="836.0" y2="556.6" stroke-width="1.22" id="line39" />
  <line x1="844.4" y1="760.3" x2="846.5" y2="549.6" stroke-width="1.15" id="line40" />
  <line x1="855.5" y1="741.3" x2="857.5" y2="541.2" stroke-width="1.12" id="line41" />
  <line x1="865.9" y1="723.4" x2="868.5" y2="532.0" stroke-width="1.06" id="line42" />
  <line x1="877.7" y1="703.2" x2="880.3" y2="521.5" stroke-width="0.99" id="line43" />
  <line x1="888.8" y1="684.1" x2="891.9" y2="511.5" stroke-width="0.92" id="line44" />
  <line x1="899.4" y1="666.1" x2="902.2" y2="503.5" stroke-width="0.89" id="line45" />
  <line x1="907.8" y1="651.8" x2="910.8" y2="496.4" stroke-width="0.83" id="line46" />
  <line x1="916.9" y1="636.2" x2="920.5" y2="488.2" stroke-width="0.78" id="line47" />
  <line x1="927.1" y1="618.6" x2="930.8" y2="479.6" stroke-width="0.75" id="line48" />
  <line x1="937.9" y1="600.2" x2="941.8" y2="480.5" stroke-width="0.70" id="line49" />

  <!-- ---- 5 sound-hole ellipses (cx=1235; cy=1700,1500,1300,1110,941) ---- -->
  <ellipse cx="1235" cy="1700" rx="41.359901" ry="66.196297" fill="none" stroke="#000000" stroke-width="2.2" id="ellipse57" />
  <ellipse cx="1235" cy="1500" rx="35.407398" ry="56.549099" fill="none" stroke="#000000" stroke-width="2.2" id="ellipse58" />
  <ellipse cx="1235" cy="1300" rx="30.3785" ry="48.543999" fill="none" stroke="#000000" stroke-width="2.2" id="ellipse59" />
  <ellipse cx="1235" cy="1110" rx="25.0417" ry="40.0257" fill="none" stroke="#000000" stroke-width="2.2" id="ellipse60" />
  <ellipse cx="1235" cy="941" rx="17.857599" ry="28.531099" fill="none" stroke="#000000" stroke-width="2.2" id="ellipse61" />

  <!-- ---- v14 reference lane schedule p00-p11 (regenerable via convoy.py) ---- -->
  <path id="v14_p00" d="M 101.616,1920.618 C 101.648,1919.117 101.663,1914.614 101.809,1911.612 C 101.954,1908.610 102.162,1905.608 102.489,1902.606 C 102.816,1899.604 103.205,1896.603 103.772,1893.601 C 104.339,1890.599 104.993,1887.597 105.891,1884.595 C 106.790,1881.593 107.814,1878.591 109.163,1875.589 C 110.512,1872.587 112.070,1869.586 113.985,1866.584 C 115.900,1863.582 118.291,1860.580 120.653,1857.578 C 123.015,1854.576 125.904,1851.574 128.159,1848.572 C 130.413,1845.570 132.564,1842.569 134.180,1839.567 C 135.796,1836.565 136.933,1833.563 137.855,1830.561 C 138.777,1827.559 139.300,1824.557 139.713,1821.555 C 140.126,1818.553 140.224,1815.552 140.331,1812.550 C 140.438,1809.548 140.352,1806.546 140.356,1803.544 C 140.360,1800.542 140.356,1797.540 140.356,1794.538 C 140.356,1791.536 140.356,1788.535 140.356,1785.533 C 140.356,1782.531 140.356,1779.529 140.356,1776.527 C 140.356,1773.525 140.356,1770.523 140.356,1767.521 C 140.356,1764.519 140.356,1761.518 140.356,1758.516 C 140.356,1755.514 140.356,1752.512 140.356,1749.510 C 140.356,1746.508 140.356,1743.506 140.356,1740.504 C 140.356,1737.502 140.356,1734.501 140.356,1731.499 C 140.356,1728.497 140.356,1725.495 140.356,1722.493 C 140.356,1719.491 140.355,1716.489 140.355,1713.487 C 140.355,1710.485 140.359,1707.484 140.355,1704.482 C 140.351,1701.480 140.335,1696.977 140.331,1695.476 C 140.327,1693.975 140.331,1699.229 140.331,1695.476 C 140.331,1691.724 140.331,1680.466 140.331,1672.961 C 140.331,1665.456 140.331,1657.952 140.331,1650.447 C 140.331,1642.942 140.331,1644.439 140.331,1627.933 C 140.331,1611.427 140.331,1576.919 140.331,1551.413 C 140.331,1525.907 140.331,1500.400 140.331,1474.894 C 140.331,1449.388 140.331,1423.881 140.331,1398.374 C 140.331,1372.867 140.331,1347.361 140.331,1321.854 C 140.331,1296.348 140.331,1270.841 140.331,1245.335 C 140.331,1219.829 140.331,1194.322 140.331,1168.815 C 140.331,1143.308 140.331,1117.802 140.331,1092.295 C 140.331,1066.788 140.331,1041.282 140.331,1015.775 C 140.331,990.268 140.331,964.762 140.331,939.256 C 140.331,913.750 140.331,888.243 140.331,862.736 C 140.331,837.229 140.331,811.722 140.331,786.216 C 140.331,760.710 140.331,735.203 140.331,709.697 C 140.331,684.191 140.331,658.684 140.331,633.177 C 140.331,607.670 140.331,582.164 140.331,556.657 C 140.331,531.150 140.331,505.644 140.331,480.137 C 140.331,454.630 140.342,429.123 140.331,403.618 C 140.320,378.113 141.491,352.560 140.265,327.108 C 139.039,301.656 137.247,274.913 132.973,250.907 C 128.699,226.901 120.848,204.881 114.623,183.072 C 108.398,161.263 100.498,144.104 95.621,120.052 C 90.744,96.000 75.912,56.338 85.360,38.762 C 94.808,21.186 128.303,16.566 152.310,14.599 C 176.317,12.632 204.653,27.076 229.400,26.962 C 254.147,26.847 276.311,14.049 300.791,13.910 C 325.271,13.771 352.841,20.718 376.279,26.129 C 399.717,31.540 419.063,36.066 441.420,46.374 C 463.777,56.682 490.396,71.321 510.422,87.975 C 530.448,104.629 547.500,125.944 561.574,146.297 C 575.648,166.650 585.117,188.211 594.868,210.094 C 604.619,231.977 611.585,254.339 620.078,277.595 C 628.571,300.851 637.392,325.566 645.828,349.628 C 654.264,373.690 658.938,397.627 670.694,421.966 C 682.450,446.305 703.745,479.034 716.362,495.661 C 728.979,512.288 727.127,521.902 746.395,521.731 C 765.663,521.560 801.466,508.836 831.971,494.636 C 862.476,480.436 900.930,447.351 929.423,436.530 C 957.916,425.709 982.293,421.714 1002.927,429.708 C 1023.561,437.702 1045.426,463.533 1053.228,484.495 C 1061.031,505.457 1054.440,531.585 1049.742,555.480 C 1045.043,579.375 1032.733,603.561 1025.037,627.866 C 1017.341,652.171 1010.581,676.788 1003.565,701.310 C 996.549,725.832 990.077,750.415 982.939,774.997 C 975.801,799.579 967.764,823.856 960.739,848.802 C 953.714,873.749 947.416,900.045 940.790,924.676 C 934.164,949.307 927.579,972.282 920.982,996.587 C 914.385,1020.892 907.838,1045.878 901.208,1070.508 C 894.577,1095.138 887.526,1119.594 881.199,1144.365 C 874.872,1169.136 868.389,1194.049 863.248,1219.134 C 858.108,1244.219 854.912,1269.668 850.356,1294.874 C 845.800,1320.080 840.841,1345.360 835.911,1370.368 C 830.980,1395.376 827.700,1420.419 820.773,1444.923 C 813.846,1469.427 804.304,1493.678 794.350,1517.393 C 784.396,1541.108 772.087,1564.065 761.047,1587.212 C 750.007,1610.359 739.620,1633.713 728.108,1656.272 C 716.596,1678.831 706.207,1701.807 691.974,1722.564 C 677.741,1743.321 661.627,1766.771 642.707,1780.815 C 623.787,1794.860 601.308,1796.525 578.454,1806.831 C 555.600,1817.137 521.283,1823.688 505.584,1842.652 C 489.885,1861.617 487.813,1907.624 484.259,1920.618" fill="none" stroke="#ff0000" stroke-width="2.2" />
  <path id="v14_p01" d="M 113.891,1920.618 C 113.914,1919.117 113.917,1914.613 114.031,1911.611 C 114.145,1908.609 114.310,1905.606 114.573,1902.604 C 114.836,1899.602 115.150,1896.599 115.610,1893.597 C 116.070,1890.595 116.600,1887.593 117.333,1884.591 C 118.066,1881.589 118.902,1878.586 120.005,1875.584 C 121.108,1872.582 122.383,1869.579 123.952,1866.577 C 125.521,1863.575 127.480,1860.572 129.417,1857.570 C 131.354,1854.568 133.726,1851.565 135.576,1848.563 C 137.426,1845.561 139.192,1842.559 140.518,1839.557 C 141.844,1836.555 142.777,1833.552 143.534,1830.550 C 144.291,1827.548 144.721,1824.545 145.060,1821.543 C 145.399,1818.541 145.478,1815.538 145.566,1812.536 C 145.654,1809.534 145.584,1806.532 145.587,1803.530 C 145.590,1800.528 145.586,1797.525 145.586,1794.523 C 145.586,1791.521 145.586,1788.518 145.586,1785.516 C 145.586,1782.514 145.586,1779.511 145.586,1776.509 C 145.586,1773.507 145.586,1770.504 145.586,1767.502 C 145.586,1764.500 145.586,1761.498 145.586,1758.496 C 145.586,1755.494 145.586,1752.491 145.586,1749.489 C 145.586,1746.487 145.586,1743.484 145.586,1740.482 C 145.586,1737.480 145.586,1734.477 145.586,1731.475 C 145.586,1728.473 145.586,1725.470 145.586,1722.468 C 145.586,1719.466 145.586,1716.464 145.586,1713.462 C 145.586,1710.460 145.590,1707.457 145.586,1704.455 C 145.582,1701.453 145.566,1696.949 145.562,1695.448 C 145.558,1693.947 145.562,1699.201 145.562,1695.448 C 145.562,1691.695 145.562,1680.437 145.562,1672.931 C 145.562,1665.425 145.562,1657.920 145.562,1650.414 C 145.562,1642.908 145.563,1644.392 145.563,1627.897 C 145.563,1611.401 145.563,1576.944 145.563,1551.441 C 145.563,1525.938 145.563,1500.392 145.563,1474.882 C 145.563,1449.372 145.562,1423.880 145.562,1398.382 C 145.562,1372.884 145.562,1347.409 145.562,1321.896 C 145.562,1296.383 145.562,1270.820 145.562,1245.307 C 145.562,1219.794 145.562,1194.324 145.562,1168.816 C 145.562,1143.308 145.562,1117.758 145.562,1092.258 C 145.562,1066.758 145.561,1041.328 145.561,1015.818 C 145.561,990.308 145.561,964.718 145.561,939.200 C 145.561,913.683 145.561,888.212 145.561,862.713 C 145.561,837.214 145.561,811.712 145.561,786.205 C 145.561,760.699 145.562,735.180 145.562,709.674 C 145.562,684.168 145.562,658.674 145.562,633.169 C 145.562,607.664 145.562,582.149 145.562,556.644 C 145.562,531.139 145.562,505.643 145.562,480.139 C 145.562,454.635 145.521,428.828 145.562,403.622 C 145.603,378.416 146.676,353.308 145.807,328.904 C 144.938,304.500 143.916,279.542 140.347,257.200 C 136.779,234.858 129.706,214.834 124.396,194.854 C 119.086,174.874 112.762,159.537 108.485,137.319 C 104.208,115.100 89.947,77.948 98.735,61.543 C 107.523,45.138 139.438,40.643 161.215,38.890 C 182.993,37.137 205.984,51.217 229.400,51.023 C 252.816,50.829 277.656,39.388 301.711,37.725 C 325.766,36.062 351.419,36.007 373.728,41.046 C 396.037,46.085 414.239,56.938 435.565,67.960 C 456.891,78.982 482.459,91.524 501.686,107.177 C 520.913,122.830 537.320,142.788 550.928,161.877 C 564.536,180.966 573.761,201.067 583.333,221.712 C 592.905,242.357 599.856,263.403 608.360,285.749 C 616.865,308.096 625.804,332.211 634.360,355.791 C 642.916,379.371 648.011,402.938 659.697,427.227 C 671.383,451.516 690.230,484.238 704.474,501.526 C 718.718,518.814 723.175,531.116 745.162,530.955 C 767.149,530.794 805.431,515.066 836.396,500.560 C 867.361,486.055 903.801,454.389 930.951,443.922 C 958.101,433.455 980.151,430.339 999.299,437.755 C 1018.447,445.171 1038.623,468.969 1045.840,488.415 C 1053.056,507.861 1047.163,531.808 1042.598,554.433 C 1038.033,577.058 1026.266,600.449 1018.451,624.166 C 1010.636,647.883 1003.167,672.493 995.707,696.734 C 988.247,720.975 981.301,745.298 973.693,769.612 C 966.085,793.926 957.562,817.946 950.061,842.616 C 942.561,867.286 935.792,893.287 928.690,917.632 C 921.588,941.977 914.522,964.667 907.447,988.686 C 900.372,1012.705 893.349,1037.392 886.238,1061.745 C 879.127,1086.098 871.635,1110.331 864.780,1134.805 C 857.925,1159.279 850.874,1183.876 845.106,1208.589 C 839.338,1233.302 835.403,1258.265 830.175,1283.083 C 824.947,1307.901 819.267,1332.834 813.737,1357.495 C 808.207,1382.156 804.377,1406.810 796.993,1431.050 C 789.609,1455.290 779.670,1479.381 769.432,1502.937 C 759.194,1526.493 746.773,1549.350 735.566,1572.388 C 724.359,1595.426 713.777,1618.658 702.188,1641.165 C 690.599,1663.672 680.111,1686.584 666.033,1707.429 C 651.955,1728.274 635.969,1751.796 617.722,1766.235 C 599.475,1780.674 578.400,1783.170 556.549,1794.062 C 534.698,1804.954 502.136,1810.493 486.617,1831.586 C 471.098,1852.679 467.299,1905.779 463.436,1920.618" fill="none" stroke="#ff0026" stroke-width="2.2" />
  <path id="v14_p02" d="M 126.165,1920.618 C 126.180,1919.117 126.172,1914.613 126.254,1911.610 C 126.336,1908.607 126.458,1905.605 126.657,1902.602 C 126.856,1899.599 127.094,1896.597 127.447,1893.594 C 127.800,1890.591 128.209,1887.589 128.775,1884.586 C 129.341,1881.583 129.989,1878.581 130.846,1875.578 C 131.703,1872.575 132.694,1869.573 133.916,1866.571 C 135.138,1863.568 136.667,1860.566 138.179,1857.563 C 139.691,1854.560 141.544,1851.558 142.990,1848.555 C 144.436,1845.552 145.817,1842.550 146.854,1839.547 C 147.891,1836.544 148.621,1833.542 149.213,1830.539 C 149.805,1827.536 150.141,1824.534 150.406,1821.531 C 150.671,1818.528 150.733,1815.526 150.802,1812.523 C 150.870,1809.520 150.815,1806.518 150.817,1803.515 C 150.820,1800.513 150.817,1797.511 150.817,1794.508 C 150.817,1791.505 150.817,1788.503 150.817,1785.500 C 150.817,1782.497 150.817,1779.495 150.817,1776.492 C 150.817,1773.489 150.817,1770.487 150.817,1767.484 C 150.817,1764.481 150.817,1761.479 150.817,1758.476 C 150.817,1755.473 150.817,1752.471 150.817,1749.468 C 150.817,1746.465 150.817,1743.463 150.817,1740.460 C 150.817,1737.457 150.817,1734.455 150.817,1731.452 C 150.817,1728.449 150.817,1725.447 150.817,1722.445 C 150.817,1719.442 150.816,1716.440 150.816,1713.437 C 150.816,1710.434 150.820,1707.432 150.816,1704.429 C 150.812,1701.426 150.796,1696.922 150.792,1695.421 C 150.788,1693.920 150.792,1699.174 150.792,1695.421 C 150.792,1691.668 150.792,1680.408 150.792,1672.901 C 150.792,1665.395 150.792,1657.889 150.792,1650.382 C 150.792,1642.876 150.794,1644.348 150.794,1627.862 C 150.794,1611.376 150.794,1576.966 150.794,1551.467 C 150.794,1525.968 150.793,1500.383 150.793,1474.870 C 150.793,1449.357 150.793,1423.879 150.793,1398.390 C 150.793,1372.901 150.792,1347.457 150.792,1321.938 C 150.792,1296.419 150.792,1270.799 150.792,1245.279 C 150.792,1219.759 150.792,1194.328 150.792,1168.818 C 150.792,1143.308 150.791,1117.714 150.791,1092.221 C 150.791,1066.728 150.791,1041.374 150.791,1015.861 C 150.791,990.348 150.791,964.672 150.791,939.144 C 150.791,913.616 150.791,888.183 150.791,862.691 C 150.791,837.199 150.790,811.701 150.790,786.194 C 150.790,760.687 150.792,735.156 150.792,709.651 C 150.792,684.145 150.792,658.664 150.792,633.161 C 150.792,607.658 150.792,582.135 150.792,556.631 C 150.792,531.127 150.792,505.641 150.792,480.140 C 150.792,454.639 150.702,428.534 150.792,403.627 C 150.882,378.720 151.850,354.056 151.330,330.700 C 150.811,307.344 150.525,284.170 147.675,263.493 C 144.825,242.816 138.617,224.787 134.229,206.636 C 129.841,188.485 125.034,174.972 121.347,154.586 C 117.660,134.201 103.981,99.557 112.110,84.323 C 120.239,69.089 150.571,64.721 170.119,63.181 C 189.667,61.641 207.315,75.358 229.400,75.085 C 251.485,74.811 279.002,62.059 302.631,61.539 C 326.260,61.019 349.996,67.296 371.176,71.964 C 392.356,76.632 409.414,80.478 429.710,89.547 C 450.006,98.616 474.521,111.727 492.950,126.379 C 511.379,141.031 527.141,159.632 540.282,177.457 C 553.423,195.282 562.405,213.921 571.798,233.329 C 581.191,252.737 588.125,272.467 596.641,293.904 C 605.157,315.341 614.215,338.856 622.892,361.953 C 631.569,385.050 637.086,408.249 648.701,432.489 C 660.317,456.729 676.714,489.443 692.585,507.391 C 708.457,525.339 719.224,540.329 743.930,540.178 C 768.636,540.027 809.396,521.294 840.821,506.483 C 872.246,491.672 906.670,461.428 932.478,451.314 C 958.286,441.200 978.009,438.964 995.671,445.801 C 1013.333,452.638 1031.821,474.404 1038.451,492.335 C 1045.082,510.266 1039.885,532.031 1035.454,553.386 C 1031.023,574.741 1019.799,597.338 1011.865,620.467 C 1003.931,643.596 995.752,668.197 987.849,692.157 C 979.946,716.117 972.524,740.181 964.446,764.226 C 956.368,788.271 947.357,812.036 939.381,836.430 C 931.405,860.823 924.167,886.528 916.589,910.587 C 909.011,934.646 901.465,957.053 893.911,980.785 C 886.357,1004.517 878.859,1028.904 871.267,1052.981 C 863.675,1077.058 855.744,1101.068 848.360,1125.245 C 840.976,1149.422 833.357,1173.704 826.963,1198.045 C 820.568,1222.386 815.893,1246.862 809.993,1271.291 C 804.093,1295.720 797.692,1320.307 791.562,1344.621 C 785.432,1368.936 781.054,1393.201 773.213,1417.178 C 765.371,1441.155 755.034,1465.083 744.513,1488.481 C 733.992,1511.879 721.459,1534.635 710.085,1557.564 C 698.711,1580.494 687.933,1603.603 676.267,1626.058 C 664.601,1648.513 654.013,1671.361 640.091,1692.294 C 626.169,1713.227 610.313,1736.822 592.738,1751.655 C 575.163,1766.488 555.491,1769.817 534.643,1781.294 C 513.795,1792.772 482.987,1797.299 467.649,1820.520 C 452.311,1843.741 446.786,1903.935 442.613,1920.618" fill="none" stroke="#ff004d" stroke-width="2.2" />
  <path id="v14_p03" d="M 138.439,1920.618 C 138.445,1919.116 138.427,1914.612 138.477,1911.609 C 138.527,1908.606 138.606,1905.603 138.740,1902.600 C 138.875,1899.597 139.038,1896.594 139.284,1893.591 C 139.530,1890.588 139.817,1887.585 140.217,1884.582 C 140.617,1881.579 141.076,1878.576 141.686,1875.573 C 142.297,1872.570 143.005,1869.567 143.880,1866.564 C 144.755,1863.561 145.852,1860.558 146.939,1857.555 C 148.026,1854.552 149.360,1851.549 150.401,1848.546 C 151.442,1845.543 152.440,1842.540 153.188,1839.537 C 153.936,1836.534 154.463,1833.531 154.890,1830.528 C 155.317,1827.525 155.560,1824.522 155.751,1821.519 C 155.942,1818.516 155.988,1815.513 156.037,1812.510 C 156.087,1809.507 156.046,1806.504 156.048,1803.501 C 156.050,1800.498 156.048,1797.495 156.048,1794.492 C 156.048,1791.489 156.048,1788.486 156.048,1785.483 C 156.048,1782.480 156.048,1779.477 156.048,1776.474 C 156.048,1773.471 156.048,1770.468 156.048,1767.465 C 156.048,1764.462 156.048,1761.459 156.048,1758.456 C 156.048,1755.453 156.047,1752.450 156.047,1749.447 C 156.047,1746.444 156.047,1743.441 156.047,1740.438 C 156.047,1737.435 156.047,1734.432 156.047,1731.429 C 156.047,1728.426 156.047,1725.423 156.047,1722.420 C 156.047,1719.417 156.047,1716.414 156.047,1713.411 C 156.047,1710.408 156.051,1707.405 156.047,1704.402 C 156.043,1701.399 156.027,1696.895 156.023,1695.393 C 156.019,1693.891 156.023,1699.147 156.023,1695.393 C 156.023,1691.639 156.023,1680.379 156.023,1672.871 C 156.023,1665.364 156.022,1657.855 156.023,1650.348 C 156.024,1642.841 156.026,1644.302 156.026,1627.826 C 156.026,1611.351 156.026,1576.990 156.026,1551.495 C 156.026,1526.000 156.025,1500.374 156.025,1474.858 C 156.025,1449.342 156.024,1423.877 156.024,1398.398 C 156.024,1372.918 156.024,1347.505 156.024,1321.981 C 156.024,1296.457 156.023,1270.779 156.023,1245.252 C 156.023,1219.725 156.022,1194.330 156.022,1168.819 C 156.022,1143.308 156.022,1117.670 156.022,1092.184 C 156.022,1066.698 156.022,1041.421 156.022,1015.905 C 156.022,990.389 156.021,964.627 156.021,939.088 C 156.021,913.548 156.021,888.152 156.021,862.668 C 156.021,837.184 156.021,811.690 156.021,786.183 C 156.021,760.676 156.022,735.133 156.022,709.628 C 156.022,684.123 156.022,658.655 156.022,633.153 C 156.022,607.651 156.022,582.120 156.022,556.618 C 156.022,531.116 156.022,505.640 156.022,480.142 C 156.022,454.644 155.887,428.239 156.022,403.631 C 156.157,379.023 157.012,354.803 156.834,332.496 C 156.656,310.188 157.087,288.799 154.955,269.786 C 152.823,250.773 147.499,234.740 144.042,218.418 C 140.585,202.096 137.304,190.406 134.211,171.853 C 131.118,153.300 118.016,121.167 125.485,107.103 C 132.954,93.039 161.704,88.797 179.023,87.471 C 196.342,86.145 208.645,99.499 229.400,99.146 C 250.155,98.793 280.347,86.065 303.551,85.354 C 326.755,84.643 348.574,90.585 368.625,94.882 C 388.676,99.179 404.591,102.684 423.856,111.134 C 443.121,119.584 466.584,131.931 484.214,145.582 C 501.844,159.232 516.962,176.476 529.637,193.037 C 542.312,209.598 551.049,226.776 560.263,244.946 C 569.477,263.116 576.395,281.531 584.922,302.059 C 593.449,322.587 602.628,345.501 611.425,368.116 C 620.222,390.731 626.160,413.560 637.705,437.750 C 649.250,461.940 663.531,494.646 680.696,513.255 C 697.861,531.864 713.272,549.543 740.697,549.402 C 768.122,549.261 813.029,527.523 845.247,512.407 C 877.465,497.291 909.540,468.465 934.006,458.705 C 958.472,448.945 975.867,447.589 992.043,453.847 C 1008.219,460.105 1025.017,479.839 1031.062,496.255 C 1037.106,512.670 1032.607,532.255 1028.310,552.340 C 1024.013,572.426 1013.332,594.228 1005.279,616.768 C 997.226,639.308 988.339,663.902 979.992,687.581 C 971.645,711.260 963.747,735.064 955.199,758.841 C 946.651,782.618 937.155,806.127 928.703,830.244 C 920.251,854.361 912.543,879.770 904.489,903.543 C 896.435,927.316 888.409,949.438 880.377,972.884 C 872.345,996.330 864.371,1020.418 856.298,1044.218 C 848.225,1068.018 839.853,1091.805 831.940,1115.685 C 824.027,1139.565 815.841,1163.531 808.820,1187.500 C 801.799,1211.469 796.384,1235.459 789.812,1259.500 C 783.240,1283.541 776.119,1307.779 769.389,1331.747 C 762.659,1355.715 757.733,1379.593 749.434,1403.306 C 741.135,1427.019 730.400,1450.786 719.595,1474.025 C 708.790,1497.264 696.145,1519.920 684.604,1542.741 C 673.063,1565.562 662.090,1588.548 650.348,1610.951 C 638.606,1633.354 627.917,1656.137 614.151,1677.158 C 600.385,1698.178 584.655,1721.846 567.753,1737.074 C 550.851,1752.302 532.582,1756.462 512.737,1768.525 C 492.892,1780.588 463.840,1784.105 448.682,1809.454 C 433.524,1834.803 426.272,1902.091 421.790,1920.618" fill="none" stroke="#ff0074" stroke-width="2.2" />
  <path id="v14_p04" d="M 150.714,1920.618 C 150.712,1919.116 150.681,1914.611 150.699,1911.608 C 150.717,1908.605 150.754,1905.601 150.824,1902.598 C 150.894,1899.595 150.982,1896.591 151.121,1893.588 C 151.260,1890.585 151.424,1887.582 151.658,1884.578 C 151.892,1881.574 152.161,1878.571 152.525,1875.567 C 152.889,1872.563 153.312,1869.560 153.841,1866.557 C 154.370,1863.554 155.034,1860.550 155.696,1857.547 C 156.358,1854.544 157.174,1851.540 157.811,1848.537 C 158.448,1845.534 159.060,1842.530 159.519,1839.527 C 159.978,1836.524 160.303,1833.520 160.566,1830.517 C 160.829,1827.514 160.978,1824.510 161.096,1821.507 C 161.214,1818.504 161.242,1815.500 161.272,1812.497 C 161.302,1809.494 161.278,1806.490 161.279,1803.487 C 161.280,1800.484 161.279,1797.480 161.279,1794.477 C 161.279,1791.474 161.279,1788.470 161.279,1785.467 C 161.279,1782.464 161.278,1779.460 161.278,1776.457 C 161.278,1773.454 161.278,1770.450 161.278,1767.447 C 161.278,1764.444 161.278,1761.440 161.278,1758.437 C 161.278,1755.433 161.278,1752.429 161.278,1749.426 C 161.278,1746.422 161.278,1743.419 161.278,1740.416 C 161.278,1737.413 161.278,1734.409 161.278,1731.406 C 161.278,1728.403 161.278,1725.399 161.278,1722.396 C 161.278,1719.393 161.277,1716.389 161.277,1713.386 C 161.277,1710.383 161.281,1707.379 161.277,1704.376 C 161.273,1701.373 161.258,1696.868 161.254,1695.366 C 161.250,1693.864 161.254,1699.120 161.254,1695.366 C 161.254,1691.612 161.254,1680.348 161.254,1672.840 C 161.254,1665.332 161.253,1657.823 161.254,1650.315 C 161.255,1642.807 161.257,1644.255 161.258,1627.790 C 161.259,1611.324 161.257,1577.013 161.257,1551.522 C 161.257,1526.031 161.256,1500.365 161.256,1474.846 C 161.256,1449.327 161.256,1423.876 161.256,1398.405 C 161.256,1372.934 161.255,1347.553 161.255,1322.023 C 161.255,1296.493 161.254,1270.758 161.254,1245.224 C 161.254,1219.690 161.253,1194.333 161.253,1168.820 C 161.253,1143.307 161.253,1117.626 161.253,1092.147 C 161.253,1066.668 161.252,1041.467 161.252,1015.948 C 161.252,990.429 161.252,964.582 161.252,939.032 C 161.252,913.482 161.251,888.122 161.251,862.645 C 161.251,837.168 161.251,811.678 161.251,786.171 C 161.251,760.664 161.253,735.109 161.253,709.605 C 161.253,684.101 161.253,658.645 161.253,633.145 C 161.253,607.645 161.253,582.104 161.253,556.604 C 161.253,531.104 161.253,505.638 161.253,480.143 C 161.253,454.648 161.075,427.943 161.253,403.635 C 161.431,379.327 162.163,355.551 162.319,334.292 C 162.474,313.033 163.611,293.428 162.186,276.079 C 160.761,258.730 156.288,244.693 153.769,230.200 C 151.250,215.707 149.559,205.839 147.074,189.120 C 144.589,172.401 132.051,142.777 138.860,129.884 C 145.669,116.991 172.838,112.875 187.928,111.762 C 203.018,110.649 209.976,123.640 229.400,123.208 C 248.824,122.775 281.692,110.069 304.471,109.168 C 327.250,108.267 347.152,113.874 366.074,117.799 C 384.996,121.724 399.767,124.889 418.001,132.720 C 436.235,140.551 458.646,152.135 475.478,164.784 C 492.310,177.433 506.783,193.319 518.991,208.616 C 531.199,223.913 539.692,239.631 548.728,256.564 C 557.763,273.497 564.666,290.595 573.204,310.214 C 581.742,329.833 591.039,352.146 599.957,374.279 C 608.875,396.412 615.234,418.872 626.709,443.012 C 638.184,467.152 650.349,499.851 668.808,519.120 C 687.267,538.389 707.321,558.756 737.465,558.625 C 767.609,558.494 816.661,533.752 849.672,518.331 C 882.683,502.910 912.410,475.503 935.534,466.097 C 958.658,456.691 973.725,456.213 988.415,461.893 C 1003.105,467.573 1018.215,485.276 1023.674,500.176 C 1029.133,515.076 1025.331,532.477 1021.167,551.293 C 1017.004,570.109 1006.865,591.117 998.693,613.069 C 990.521,635.021 980.925,659.606 972.135,683.004 C 963.345,706.402 954.971,729.947 945.953,753.456 C 936.935,776.965 926.952,800.217 918.025,824.058 C 909.098,847.899 900.919,873.012 892.389,896.499 C 883.859,919.986 875.352,941.823 866.842,964.982 C 858.332,988.141 849.881,1011.931 841.328,1035.455 C 832.774,1058.979 823.963,1082.542 815.521,1106.125 C 807.079,1129.708 798.326,1153.359 790.678,1176.956 C 783.030,1200.553 776.875,1224.056 769.631,1247.709 C 762.387,1271.362 754.544,1295.252 747.215,1318.873 C 739.886,1342.494 734.411,1365.984 725.655,1389.433 C 716.899,1412.882 705.766,1436.488 694.678,1459.569 C 683.590,1482.650 670.832,1505.204 659.124,1527.917 C 647.416,1550.630 636.247,1573.493 624.428,1595.844 C 612.609,1618.195 601.820,1640.915 588.210,1662.023 C 574.600,1683.131 558.999,1706.872 542.769,1722.494 C 526.539,1738.116 509.674,1743.107 490.832,1755.756 C 471.990,1768.405 444.692,1770.911 429.714,1798.388 C 414.736,1825.865 405.758,1900.246 400.967,1920.618" fill="none" stroke="#ff009a" stroke-width="2.2" />
  <path id="v14_p05" d="M 162.988,1920.618 C 162.977,1919.116 162.935,1914.611 162.922,1911.607 C 162.909,1908.603 162.902,1905.599 162.908,1902.595 C 162.914,1899.591 162.926,1896.588 162.958,1893.584 C 162.990,1890.580 163.030,1887.577 163.098,1884.573 C 163.166,1881.569 163.247,1878.566 163.364,1875.562 C 163.481,1872.558 163.621,1869.555 163.802,1866.551 C 163.983,1863.547 164.216,1860.543 164.452,1857.539 C 164.688,1854.535 164.985,1851.532 165.218,1848.528 C 165.451,1845.524 165.678,1842.521 165.849,1839.517 C 166.019,1836.513 166.142,1833.510 166.241,1830.506 C 166.340,1827.502 166.397,1824.499 166.441,1821.495 C 166.485,1818.491 166.495,1815.487 166.507,1812.483 C 166.519,1809.479 166.510,1806.476 166.510,1803.472 C 166.510,1800.468 166.509,1797.465 166.509,1794.461 C 166.509,1791.457 166.509,1788.454 166.509,1785.450 C 166.509,1782.446 166.509,1779.443 166.509,1776.439 C 166.509,1773.435 166.509,1770.432 166.509,1767.428 C 166.509,1764.424 166.509,1761.420 166.509,1758.416 C 166.509,1755.412 166.509,1752.409 166.509,1749.405 C 166.509,1746.401 166.508,1743.398 166.508,1740.394 C 166.508,1737.390 166.508,1734.387 166.508,1731.383 C 166.508,1728.379 166.508,1725.376 166.508,1722.372 C 166.508,1719.368 166.508,1716.364 166.508,1713.360 C 166.508,1710.356 166.512,1707.353 166.508,1704.349 C 166.504,1701.345 166.489,1696.840 166.485,1695.338 C 166.481,1693.836 166.485,1699.093 166.485,1695.338 C 166.485,1691.583 166.485,1680.319 166.485,1672.810 C 166.485,1665.301 166.484,1657.791 166.485,1650.282 C 166.486,1642.773 166.489,1644.209 166.490,1627.754 C 166.491,1611.298 166.489,1577.036 166.489,1551.549 C 166.489,1526.062 166.488,1500.357 166.488,1474.834 C 166.488,1449.311 166.487,1423.874 166.487,1398.413 C 166.487,1372.952 166.486,1347.601 166.486,1322.065 C 166.486,1296.529 166.485,1270.736 166.485,1245.196 C 166.485,1219.655 166.484,1194.336 166.484,1168.822 C 166.484,1143.308 166.483,1117.583 166.483,1092.111 C 166.483,1066.639 166.482,1041.514 166.482,1015.991 C 166.482,990.468 166.482,964.537 166.482,938.976 C 166.482,913.415 166.482,888.092 166.482,862.623 C 166.482,837.154 166.481,811.667 166.481,786.160 C 166.481,760.653 166.483,735.087 166.484,709.583 C 166.485,684.079 166.484,658.637 166.484,633.138 C 166.484,607.639 166.484,582.090 166.484,556.591 C 166.484,531.092 166.484,505.637 166.484,480.145 C 166.484,454.653 166.268,427.649 166.484,403.640 C 166.701,379.631 167.302,356.300 167.783,336.089 C 168.263,315.878 170.096,298.056 169.367,282.372 C 168.638,266.688 164.982,254.647 163.409,241.983 C 161.835,229.319 161.141,220.442 159.926,206.388 C 158.711,192.334 149.968,169.379 156.119,157.656 C 162.270,145.934 184.620,137.784 196.834,136.053 C 209.048,134.322 211.307,147.781 229.400,147.269 C 247.493,146.758 283.039,134.075 305.393,132.983 C 327.747,131.891 345.731,137.163 363.524,140.717 C 381.317,144.271 394.945,147.095 412.148,154.307 C 429.351,161.518 450.711,172.338 466.744,183.986 C 482.777,195.634 496.605,210.163 508.347,224.196 C 520.089,238.228 528.337,252.486 537.194,268.181 C 546.051,283.876 552.938,299.658 561.487,318.368 C 570.036,337.078 579.453,358.790 588.491,380.441 C 597.529,402.092 604.309,424.182 615.714,448.273 C 627.119,472.364 637.168,505.056 656.921,524.985 C 676.674,544.914 701.371,567.971 734.234,567.849 C 767.097,567.727 820.294,539.982 854.099,524.255 C 887.904,508.528 915.281,482.542 937.063,473.489 C 958.845,464.436 971.585,464.838 984.789,469.939 C 997.993,475.040 1011.415,490.712 1016.287,504.096 C 1021.159,517.481 1018.054,532.700 1014.024,550.246 C 1009.994,567.792 1000.400,588.006 992.109,609.370 C 983.818,630.734 973.513,655.311 964.279,678.428 C 955.045,701.545 946.197,724.829 936.708,748.070 C 927.219,771.311 916.751,794.308 907.348,817.872 C 897.945,841.436 889.298,866.254 880.291,889.455 C 871.285,912.657 862.298,934.208 853.309,957.081 C 844.320,979.954 835.394,1003.445 826.360,1026.692 C 817.326,1049.939 808.073,1073.278 799.103,1096.565 C 790.132,1119.852 780.812,1143.187 772.537,1166.412 C 764.262,1189.638 757.367,1212.653 749.451,1235.918 C 741.535,1259.182 732.971,1282.725 725.042,1305.999 C 717.113,1329.273 711.091,1352.375 701.877,1375.561 C 692.663,1398.747 681.133,1422.191 669.761,1445.113 C 658.389,1468.035 645.520,1490.489 633.645,1513.093 C 621.770,1535.697 610.406,1558.438 598.510,1580.737 C 586.614,1603.036 575.725,1625.692 562.271,1646.888 C 548.817,1668.084 533.343,1691.897 517.786,1707.914 C 502.229,1723.931 486.767,1729.753 468.928,1742.988 C 451.089,1756.223 426.546,1757.717 410.749,1787.322 C 394.952,1816.927 380.245,1898.402 374.144,1920.618" fill="none" stroke="#ff00c0" stroke-width="2.2" />
  <path id="v14_p06" d="M 175.262,1920.618 C 175.243,1919.116 175.190,1914.609 175.145,1911.605 C 175.100,1908.601 175.050,1905.597 174.991,1902.593 C 174.933,1899.589 174.870,1896.585 174.794,1893.581 C 174.719,1890.577 174.637,1887.573 174.538,1884.569 C 174.439,1881.565 174.331,1878.560 174.201,1875.556 C 174.071,1872.552 173.926,1869.548 173.760,1866.544 C 173.594,1863.540 173.395,1860.536 173.205,1857.532 C 173.015,1854.528 172.793,1851.523 172.622,1848.519 C 172.451,1845.515 172.295,1842.511 172.177,1839.507 C 172.059,1836.503 171.979,1833.499 171.914,1830.495 C 171.849,1827.491 171.813,1824.486 171.784,1821.482 C 171.755,1818.478 171.749,1815.474 171.742,1812.470 C 171.735,1809.466 171.740,1806.462 171.740,1803.458 C 171.740,1800.454 171.740,1797.449 171.740,1794.445 C 171.740,1791.441 171.740,1788.437 171.740,1785.433 C 171.740,1782.429 171.740,1779.425 171.740,1776.421 C 171.740,1773.417 171.740,1770.412 171.740,1767.408 C 171.740,1764.404 171.739,1761.400 171.739,1758.396 C 171.739,1755.392 171.739,1752.388 171.739,1749.384 C 171.739,1746.380 171.739,1743.376 171.739,1740.372 C 171.739,1737.368 171.739,1734.363 171.739,1731.359 C 171.739,1728.355 171.739,1725.351 171.739,1722.347 C 171.739,1719.343 171.738,1716.339 171.738,1713.335 C 171.738,1710.331 171.742,1707.326 171.738,1704.322 C 171.734,1701.318 171.719,1696.812 171.715,1695.310 C 171.711,1693.808 171.715,1699.065 171.715,1695.310 C 171.715,1691.555 171.715,1680.290 171.715,1672.780 C 171.715,1665.270 171.714,1657.759 171.715,1650.249 C 171.716,1642.739 171.720,1644.164 171.721,1627.718 C 171.722,1611.273 171.720,1577.059 171.720,1551.576 C 171.720,1526.093 171.719,1500.348 171.719,1474.822 C 171.719,1449.296 171.718,1423.874 171.718,1398.421 C 171.718,1372.968 171.717,1347.649 171.717,1322.107 C 171.717,1296.565 171.716,1270.715 171.716,1245.168 C 171.716,1219.621 171.715,1194.339 171.715,1168.823 C 171.715,1143.307 171.714,1117.539 171.714,1092.074 C 171.714,1066.609 171.714,1041.560 171.714,1016.034 C 171.714,990.508 171.713,964.492 171.713,938.920 C 171.713,913.348 171.713,888.062 171.713,862.600 C 171.713,837.138 171.712,811.656 171.712,786.149 C 171.712,760.642 171.714,735.063 171.715,709.560 C 171.716,684.057 171.715,658.627 171.715,633.130 C 171.715,607.633 171.715,582.075 171.715,556.578 C 171.715,531.081 171.715,505.635 171.715,480.146 C 171.715,454.657 171.463,427.354 171.715,403.644 C 171.967,379.934 172.428,357.048 173.225,337.885 C 174.022,318.722 176.540,302.685 176.495,288.665 C 176.450,274.645 173.595,264.600 172.957,253.765 C 172.319,242.930 172.274,235.183 172.667,223.655 C 173.060,212.127 169.806,195.148 175.318,184.596 C 180.830,174.044 196.725,162.555 205.739,160.344 C 214.753,158.133 212.637,171.922 229.400,171.331 C 246.163,170.740 284.385,158.081 306.314,156.798 C 328.243,155.515 344.311,160.452 360.974,163.635 C 377.637,166.818 390.121,169.302 406.294,175.894 C 422.466,182.486 442.774,192.541 458.009,203.188 C 473.244,213.835 486.427,227.008 497.702,239.776 C 508.977,252.544 516.982,265.341 525.660,279.799 C 534.338,294.257 541.208,308.722 549.769,326.523 C 558.330,344.324 567.866,365.435 577.024,386.604 C 586.182,407.772 593.384,429.493 604.719,453.534 C 616.054,477.575 623.732,509.724 645.034,530.850 C 666.336,551.976 696.948,580.400 732.530,580.288 C 768.112,580.176 824.181,546.747 858.525,530.179 C 892.869,513.611 918.151,489.579 938.591,480.880 C 959.031,472.181 969.444,473.462 981.162,477.985 C 992.880,482.508 1004.612,496.147 1008.899,508.016 C 1013.186,519.885 1010.777,532.924 1006.881,549.200 C 1002.985,565.476 993.933,584.895 985.523,605.670 C 977.113,626.445 966.099,651.016 956.422,673.852 C 946.745,696.688 937.421,719.713 927.462,742.685 C 917.503,765.657 906.548,788.399 896.669,811.686 C 886.790,834.974 877.673,859.494 868.191,882.410 C 858.709,905.326 849.241,926.593 839.774,949.180 C 830.307,971.766 820.906,994.958 811.391,1017.929 C 801.876,1040.900 792.183,1064.014 782.684,1087.004 C 773.185,1109.994 763.297,1133.013 754.395,1155.867 C 745.493,1178.721 737.859,1201.250 729.271,1224.127 C 720.683,1247.004 711.397,1270.199 702.868,1293.126 C 694.339,1316.053 687.769,1338.767 678.098,1361.689 C 668.427,1384.611 656.500,1407.893 644.844,1430.656 C 633.188,1453.419 620.206,1475.773 608.164,1498.269 C 596.122,1520.765 584.562,1543.383 572.590,1565.630 C 560.618,1587.877 549.628,1610.468 536.330,1631.752 C 523.032,1653.036 507.687,1676.922 492.802,1693.333 C 477.918,1709.744 463.860,1716.399 447.023,1730.219 C 430.186,1744.040 407.399,1744.523 391.782,1776.256 C 376.165,1807.989 359.731,1896.558 353.321,1920.618" fill="none" stroke="#ff00e7" stroke-width="2.2" />
  <path id="v14_p07" d="M 187.537,1920.618 C 187.509,1919.116 187.444,1914.609 187.367,1911.604 C 187.290,1908.600 187.198,1905.595 187.075,1902.591 C 186.952,1899.587 186.814,1896.582 186.631,1893.578 C 186.448,1890.573 186.244,1887.569 185.978,1884.564 C 185.713,1881.560 185.415,1878.555 185.038,1875.551 C 184.661,1872.546 184.231,1869.542 183.717,1866.537 C 183.203,1863.533 182.571,1860.528 181.955,1857.524 C 181.340,1854.520 180.599,1851.515 180.024,1848.511 C 179.449,1845.506 178.909,1842.502 178.503,1839.497 C 178.097,1836.493 177.816,1833.488 177.587,1830.484 C 177.358,1827.479 177.230,1824.475 177.128,1821.470 C 177.026,1818.466 177.003,1815.461 176.977,1812.457 C 176.951,1809.453 176.972,1806.448 176.971,1803.444 C 176.970,1800.439 176.971,1797.435 176.971,1794.430 C 176.971,1791.426 176.971,1788.421 176.971,1785.417 C 176.971,1782.413 176.970,1779.409 176.970,1776.404 C 176.970,1773.399 176.970,1770.395 176.970,1767.390 C 176.970,1764.386 176.970,1761.381 176.970,1758.377 C 176.970,1755.372 176.970,1752.368 176.970,1749.363 C 176.970,1746.359 176.970,1743.354 176.970,1740.350 C 176.970,1737.346 176.969,1734.341 176.969,1731.337 C 176.969,1728.332 176.969,1725.328 176.969,1722.323 C 176.969,1719.319 176.969,1716.314 176.969,1713.310 C 176.969,1710.305 176.973,1707.301 176.969,1704.296 C 176.965,1701.292 176.950,1696.785 176.946,1695.283 C 176.942,1693.781 176.946,1699.038 176.946,1695.283 C 176.946,1691.527 176.946,1680.261 176.946,1672.750 C 176.946,1665.239 176.945,1657.727 176.946,1650.216 C 176.947,1642.705 176.953,1644.119 176.954,1627.683 C 176.955,1611.247 176.953,1577.082 176.952,1551.603 C 176.951,1526.124 176.950,1500.339 176.950,1474.810 C 176.950,1449.281 176.949,1423.873 176.949,1398.429 C 176.949,1372.986 176.948,1347.697 176.948,1322.149 C 176.948,1296.601 176.947,1270.695 176.947,1245.141 C 176.947,1219.587 176.946,1194.341 176.946,1168.824 C 176.946,1143.307 176.945,1117.495 176.945,1092.037 C 176.945,1066.579 176.944,1041.606 176.944,1016.077 C 176.944,990.548 176.943,964.448 176.943,938.865 C 176.943,913.282 176.943,888.033 176.943,862.578 C 176.943,837.123 176.942,811.645 176.942,786.138 C 176.942,760.631 176.945,735.040 176.946,709.537 C 176.947,684.034 176.946,658.617 176.946,633.122 C 176.946,607.627 176.946,582.061 176.946,556.565 C 176.946,531.069 176.946,505.633 176.946,480.147 C 176.946,454.661 176.663,427.060 176.946,403.649 C 177.229,380.238 177.540,357.796 178.644,339.681 C 179.748,321.566 182.941,307.314 183.569,294.958 C 184.197,282.602 182.126,274.553 182.410,265.547 C 182.694,256.541 184.556,251.172 185.273,240.922 C 185.990,230.672 179.356,211.637 186.710,204.049 C 194.065,196.461 217.650,198.829 229.400,195.392 C 241.150,191.955 244.238,185.889 257.210,183.426 C 270.182,180.963 290.363,180.091 307.231,180.612 C 324.099,181.133 342.886,183.742 358.420,186.553 C 373.954,189.364 385.295,191.508 400.437,197.481 C 415.579,203.454 434.835,212.744 449.271,222.390 C 463.707,232.036 476.245,243.852 487.054,255.356 C 497.862,266.860 505.623,278.196 514.122,291.416 C 522.621,304.636 529.476,317.786 538.048,334.678 C 546.620,351.570 556.275,372.081 565.554,392.767 C 574.833,413.453 582.455,434.805 593.720,458.796 C 604.985,482.787 610.468,514.465 633.143,536.715 C 655.818,558.965 691.467,592.398 729.768,592.296 C 768.069,592.194 827.890,553.439 862.948,536.102 C 898.006,518.765 921.019,496.617 940.116,488.272 C 959.213,479.927 967.300,482.087 977.532,486.031 C 987.764,489.975 997.808,501.582 1001.508,511.936 C 1005.209,522.290 1003.497,533.147 999.735,548.153 C 995.973,563.159 987.464,581.784 978.935,601.971 C 970.406,622.158 958.683,646.720 948.563,669.275 C 938.443,691.830 928.642,714.596 918.213,737.300 C 907.784,760.004 896.343,782.489 885.989,805.500 C 875.635,828.511 866.048,852.736 856.089,875.366 C 846.130,897.996 836.182,918.979 826.237,941.279 C 816.292,963.579 806.415,986.471 796.419,1009.165 C 786.423,1031.859 776.290,1054.751 766.262,1077.444 C 756.234,1100.137 745.780,1122.841 736.251,1145.323 C 726.722,1167.805 718.347,1189.848 709.087,1212.336 C 699.827,1234.824 689.820,1257.672 680.692,1280.252 C 671.564,1302.832 664.445,1325.158 654.317,1347.816 C 644.189,1370.474 631.863,1393.595 619.924,1416.200 C 607.985,1438.805 594.890,1461.058 582.681,1483.445 C 570.472,1505.832 558.717,1528.328 546.668,1550.523 C 534.619,1572.718 523.529,1595.245 510.387,1616.617 C 497.245,1637.989 482.028,1661.947 467.816,1678.753 C 453.604,1695.558 440.949,1703.044 425.115,1717.450 C 409.281,1731.856 388.582,1731.330 372.812,1765.191 C 357.043,1799.052 337.550,1894.713 330.498,1920.618" fill="none" stroke="#d41cc0" stroke-width="2.2" />
  <path id="v14_p08" d="M 199.811,1920.618 C 199.774,1919.115 199.699,1914.608 199.590,1911.603 C 199.481,1908.598 199.345,1905.594 199.158,1902.589 C 198.971,1899.584 198.757,1896.579 198.467,1893.574 C 198.177,1890.569 197.849,1887.565 197.417,1884.560 C 196.985,1881.555 196.498,1878.550 195.874,1875.545 C 195.250,1872.540 194.535,1869.536 193.673,1866.531 C 192.811,1863.526 191.746,1860.521 190.704,1857.516 C 189.662,1854.511 188.403,1851.507 187.423,1848.502 C 186.444,1845.497 185.521,1842.493 184.827,1839.488 C 184.133,1836.483 183.651,1833.478 183.258,1830.473 C 182.865,1827.468 182.644,1824.464 182.470,1821.459 C 182.296,1818.454 182.257,1815.449 182.212,1812.444 C 182.167,1809.439 182.204,1806.435 182.202,1803.430 C 182.200,1800.425 182.202,1797.420 182.202,1794.415 C 182.202,1791.410 182.201,1788.406 182.201,1785.401 C 182.201,1782.396 182.201,1779.391 182.201,1776.386 C 182.201,1773.381 182.201,1770.377 182.201,1767.372 C 182.201,1764.367 182.201,1761.362 182.201,1758.357 C 182.201,1755.352 182.200,1752.348 182.200,1749.343 C 182.200,1746.338 182.200,1743.333 182.200,1740.328 C 182.200,1737.323 182.200,1734.319 182.200,1731.314 C 182.200,1728.309 182.200,1725.304 182.200,1722.299 C 182.200,1719.294 182.199,1716.290 182.199,1713.285 C 182.199,1710.280 182.203,1707.275 182.199,1704.270 C 182.195,1701.265 182.181,1696.758 182.177,1695.256 C 182.173,1693.754 182.177,1699.012 182.177,1695.256 C 182.177,1691.500 182.177,1680.231 182.177,1672.719 C 182.177,1665.207 182.175,1657.695 182.177,1650.183 C 182.179,1642.671 182.186,1644.072 182.188,1627.647 C 182.189,1611.221 182.187,1577.105 182.186,1551.630 C 182.185,1526.155 182.185,1500.330 182.184,1474.798 C 182.183,1449.266 182.183,1423.871 182.182,1398.437 C 182.181,1373.002 182.181,1347.745 182.180,1322.191 C 182.179,1296.637 182.178,1270.674 182.178,1245.113 C 182.178,1219.552 182.177,1194.345 182.177,1168.826 C 182.177,1143.307 182.176,1117.451 182.176,1092.000 C 182.176,1066.549 182.175,1041.652 182.175,1016.120 C 182.175,990.588 182.174,964.403 182.174,938.809 C 182.174,913.215 182.173,888.002 182.173,862.555 C 182.173,837.108 182.172,811.634 182.173,786.127 C 182.174,760.620 182.176,735.016 182.177,709.514 C 182.178,684.012 182.177,658.608 182.177,633.114 C 182.177,607.620 182.177,582.046 182.177,556.552 C 182.177,531.058 182.177,505.632 182.177,480.149 C 182.177,454.666 181.867,426.765 182.177,403.653 C 182.487,380.541 182.637,358.544 184.039,341.477 C 185.441,324.410 189.301,311.942 190.589,301.251 C 191.877,290.560 191.362,284.552 191.769,277.329 C 192.176,270.106 191.793,266.329 193.033,257.912 C 194.273,249.495 193.147,233.239 199.208,226.829 C 205.269,220.419 218.951,222.630 229.400,219.454 C 239.849,216.277 248.775,210.274 261.900,207.770 C 275.025,205.266 292.490,204.144 308.151,204.427 C 323.812,204.710 341.463,207.030 355.868,209.470 C 370.273,211.910 380.471,213.713 394.582,219.067 C 408.693,224.421 426.896,232.948 440.534,241.593 C 454.172,250.238 466.399,259.361 476.408,270.935 C 486.417,282.509 492.267,299.051 500.587,311.034 C 508.907,323.017 517.412,328.183 526.329,342.832 C 535.245,357.481 544.687,378.725 554.086,398.929 C 563.485,419.133 571.529,440.115 582.724,464.057 C 593.919,487.999 597.286,519.336 621.254,542.580 C 645.222,565.824 685.515,603.611 726.535,603.519 C 767.555,603.427 831.523,560.002 867.374,542.026 C 903.226,524.050 923.889,503.655 941.644,495.664 C 959.399,487.673 965.158,490.712 973.904,494.078 C 982.650,497.443 991.005,507.019 994.119,515.857 C 997.234,524.695 996.219,533.370 992.591,547.106 C 988.963,560.842 980.997,578.673 972.349,598.272 C 963.701,617.871 951.269,642.425 940.705,664.699 C 930.141,686.973 919.866,709.478 908.967,731.914 C 898.068,754.350 886.140,776.579 875.310,799.314 C 864.480,822.049 854.424,845.978 843.989,868.322 C 833.554,890.666 823.125,911.364 812.702,933.377 C 802.279,955.390 791.926,977.984 781.449,1000.402 C 770.972,1022.820 760.399,1045.488 749.842,1067.884 C 739.285,1090.280 728.264,1112.668 718.108,1134.778 C 707.952,1156.888 698.838,1178.445 688.906,1200.545 C 678.974,1222.645 668.246,1245.145 658.518,1267.378 C 648.790,1289.611 641.123,1311.550 630.537,1333.944 C 619.952,1356.338 607.228,1379.298 595.005,1401.744 C 582.782,1424.190 569.576,1446.343 557.200,1468.622 C 544.824,1490.901 532.874,1513.273 520.748,1535.416 C 508.622,1557.559 497.432,1580.022 484.446,1601.481 C 471.460,1622.940 456.370,1646.972 442.831,1664.172 C 429.292,1681.372 418.040,1689.690 403.209,1704.682 C 388.378,1719.674 370.767,1718.136 353.845,1754.125 C 336.923,1790.114 310.370,1892.869 301.675,1920.618" fill="none" stroke="#aa399a" stroke-width="2.2" />
  <path id="v14_p09" d="M 212.085,1920.618 C 212.040,1919.115 211.953,1914.607 211.812,1911.602 C 211.671,1908.597 211.493,1905.592 211.241,1902.587 C 210.990,1899.582 210.701,1896.576 210.303,1893.571 C 209.905,1890.566 209.455,1887.560 208.856,1884.555 C 208.257,1881.550 207.581,1878.545 206.709,1875.540 C 205.838,1872.535 204.837,1869.529 203.627,1866.524 C 202.417,1863.519 200.918,1860.514 199.450,1857.509 C 197.982,1854.504 196.203,1851.498 194.820,1848.493 C 193.436,1845.488 192.131,1842.482 191.149,1839.477 C 190.167,1836.472 189.484,1833.467 188.928,1830.462 C 188.372,1827.457 188.060,1824.451 187.813,1821.446 C 187.566,1818.441 187.509,1815.436 187.446,1812.431 C 187.383,1809.426 187.435,1806.420 187.433,1803.415 C 187.431,1800.410 187.432,1797.405 187.432,1794.400 C 187.432,1791.395 187.432,1788.389 187.432,1785.384 C 187.432,1782.379 187.432,1779.373 187.432,1776.368 C 187.432,1773.363 187.432,1770.358 187.432,1767.353 C 187.432,1764.348 187.431,1761.342 187.431,1758.337 C 187.431,1755.332 187.431,1752.327 187.431,1749.322 C 187.431,1746.317 187.431,1743.311 187.431,1740.306 C 187.431,1737.301 187.430,1734.295 187.430,1731.290 C 187.430,1728.285 187.430,1725.280 187.430,1722.275 C 187.430,1719.270 187.430,1716.264 187.430,1713.259 C 187.430,1710.254 187.434,1707.249 187.430,1704.244 C 187.426,1701.239 187.412,1696.731 187.408,1695.228 C 187.404,1693.725 187.408,1698.985 187.408,1695.228 C 187.408,1691.472 187.408,1680.202 187.408,1672.689 C 187.408,1665.176 187.406,1657.663 187.408,1650.150 C 187.410,1642.637 187.418,1644.027 187.419,1627.611 C 187.421,1611.196 187.418,1577.128 187.417,1551.657 C 187.416,1526.186 187.416,1500.321 187.415,1474.786 C 187.414,1449.251 187.414,1423.870 187.413,1398.445 C 187.412,1373.019 187.412,1347.793 187.411,1322.233 C 187.410,1296.673 187.410,1270.653 187.409,1245.085 C 187.408,1219.517 187.408,1194.347 187.407,1168.827 C 187.406,1143.307 187.406,1117.407 187.405,1091.963 C 187.404,1066.519 187.404,1041.698 187.404,1016.163 C 187.404,990.628 187.403,964.358 187.403,938.753 C 187.403,913.148 187.403,887.973 187.403,862.533 C 187.403,837.093 187.401,811.622 187.402,786.115 C 187.403,760.608 187.407,734.992 187.408,709.491 C 187.409,683.990 187.408,658.598 187.408,633.106 C 187.408,607.614 187.408,582.032 187.408,556.539 C 187.408,531.046 187.408,505.630 187.408,480.150 C 187.408,454.670 187.075,426.471 187.408,403.658 C 187.741,380.845 187.719,359.292 189.409,343.273 C 191.099,327.254 195.613,316.571 197.550,307.544 C 199.487,298.517 199.820,294.505 201.030,289.111 C 202.240,283.717 203.282,282.317 204.810,275.179 C 206.338,268.041 206.098,251.559 210.196,246.282 C 214.294,241.005 220.001,245.877 229.400,243.515 C 238.799,241.154 253.313,234.659 266.592,232.113 C 279.871,229.567 294.618,228.195 309.072,228.241 C 323.526,228.287 340.042,230.319 353.318,232.388 C 366.594,234.457 375.648,235.919 388.728,240.654 C 401.808,245.388 418.960,253.152 431.799,260.795 C 444.638,268.439 455.887,277.539 465.763,286.515 C 475.639,295.491 482.911,303.906 491.053,314.651 C 499.195,325.396 506.017,335.913 514.612,350.987 C 523.207,366.061 533.101,385.370 542.620,405.092 C 552.139,424.814 560.605,445.427 571.729,469.319 C 582.853,493.211 584.103,523.874 609.366,548.445 C 634.629,573.016 679.565,616.826 723.304,616.743 C 767.043,616.661 835.155,566.898 871.800,547.950 C 908.445,529.002 926.759,510.693 943.172,503.055 C 959.585,495.417 963.017,499.337 970.277,502.124 C 977.537,504.911 984.202,512.454 986.731,519.777 C 989.260,527.100 988.942,533.594 985.448,546.060 C 981.953,558.526 974.531,575.562 965.764,594.573 C 956.997,613.583 943.855,638.130 932.848,660.123 C 921.841,682.116 911.757,704.361 899.721,726.529 C 887.685,748.697 871.937,770.670 860.632,793.128 C 849.327,815.586 842.134,839.219 831.890,861.277 C 821.646,883.335 810.070,903.749 799.168,925.476 C 788.266,947.203 777.437,969.498 766.480,991.639 C 755.523,1013.780 744.510,1036.225 733.424,1058.324 C 722.338,1080.423 710.750,1102.496 699.967,1124.234 C 689.184,1145.972 679.330,1167.041 668.726,1188.753 C 658.122,1210.465 646.673,1232.617 636.345,1254.504 C 626.017,1276.390 617.802,1297.941 606.759,1320.072 C 595.716,1342.203 582.594,1365.000 570.088,1387.288 C 557.582,1409.576 544.264,1431.628 531.721,1453.798 C 519.178,1475.968 507.031,1498.218 494.829,1520.309 C 482.627,1542.400 471.336,1564.799 458.506,1586.346 C 445.676,1607.893 430.715,1631.998 417.848,1649.592 C 404.981,1667.187 395.133,1676.335 381.305,1691.913 C 367.477,1707.491 354.027,1704.872 334.878,1743.059 C 315.728,1781.246 277.820,1891.372 266.408,1921.034" fill="none" stroke="#805574" stroke-width="2.2" />
  <path id="v14_p10" d="M 224.360,1920.618 C 224.306,1919.115 224.208,1914.607 224.035,1911.601 C 223.862,1908.595 223.641,1905.590 223.325,1902.584 C 223.009,1899.579 222.644,1896.573 222.139,1893.568 C 221.634,1890.562 221.060,1887.557 220.294,1884.551 C 219.528,1881.545 218.662,1878.540 217.543,1875.534 C 216.424,1872.529 215.137,1869.524 213.579,1866.518 C 212.021,1863.513 210.088,1860.507 208.194,1857.501 C 206.300,1854.495 204.002,1851.490 202.215,1848.484 C 200.428,1845.478 198.739,1842.473 197.469,1839.467 C 196.199,1836.462 195.316,1833.457 194.597,1830.451 C 193.878,1827.446 193.473,1824.440 193.154,1821.434 C 192.835,1818.428 192.763,1815.422 192.681,1812.417 C 192.599,1809.411 192.666,1806.407 192.663,1803.401 C 192.660,1800.396 192.663,1797.390 192.663,1794.384 C 192.663,1791.378 192.663,1788.373 192.663,1785.367 C 192.663,1782.361 192.663,1779.355 192.663,1776.350 C 192.663,1773.344 192.662,1770.340 192.662,1767.334 C 192.662,1764.329 192.662,1761.323 192.662,1758.317 C 192.662,1755.311 192.662,1752.305 192.662,1749.300 C 192.662,1746.294 192.661,1743.290 192.661,1740.284 C 192.661,1737.279 192.661,1734.273 192.661,1731.267 C 192.661,1728.261 192.661,1725.256 192.661,1722.250 C 192.661,1719.244 192.660,1716.238 192.660,1713.233 C 192.660,1710.227 192.664,1707.223 192.660,1704.217 C 192.656,1701.212 192.642,1696.703 192.638,1695.200 C 192.634,1693.697 192.638,1698.957 192.638,1695.200 C 192.638,1691.443 192.638,1680.173 192.638,1672.659 C 192.638,1665.145 192.636,1657.631 192.638,1650.117 C 192.640,1642.603 192.648,1643.981 192.650,1627.575 C 192.652,1611.169 192.649,1577.151 192.648,1551.684 C 192.647,1526.217 192.647,1500.312 192.646,1474.774 C 192.645,1449.235 192.645,1423.869 192.644,1398.453 C 192.643,1373.037 192.643,1347.842 192.642,1322.276 C 192.641,1296.710 192.641,1270.633 192.640,1245.058 C 192.639,1219.483 192.639,1194.350 192.638,1168.828 C 192.637,1143.306 192.637,1117.363 192.636,1091.926 C 192.635,1066.489 192.635,1041.744 192.635,1016.206 C 192.635,990.668 192.634,964.313 192.634,938.697 C 192.634,913.081 192.633,887.942 192.633,862.510 C 192.633,837.078 192.632,811.611 192.633,786.104 C 192.634,760.597 192.638,734.970 192.639,709.469 C 192.640,683.968 192.639,658.589 192.639,633.098 C 192.639,607.607 192.639,582.016 192.639,556.525 C 192.639,531.034 192.639,505.629 192.639,480.152 C 192.639,454.675 192.287,426.176 192.639,403.662 C 192.991,381.148 192.783,360.040 194.752,345.069 C 196.721,330.098 202.013,321.385 204.451,313.837 C 206.889,306.289 207.724,304.550 209.379,299.783 C 211.034,295.016 211.041,290.604 214.378,285.236 C 217.715,279.868 225.110,272.198 229.400,267.577 C 233.690,262.955 233.138,259.360 240.118,257.507 C 247.098,255.654 259.636,257.365 271.282,256.457 C 282.928,255.548 296.745,252.248 309.992,252.056 C 323.239,251.864 338.619,253.609 350.766,255.306 C 362.913,257.004 370.825,258.126 382.874,262.241 C 394.923,266.356 411.022,273.355 423.063,279.997 C 435.103,286.639 445.708,294.383 455.117,302.095 C 464.526,309.807 471.555,316.761 479.518,326.269 C 487.481,335.777 494.287,344.978 502.893,359.142 C 511.499,373.306 521.512,392.015 531.152,411.255 C 540.792,430.495 549.679,450.738 560.733,474.580 C 571.787,498.422 570.922,528.079 597.478,554.310 C 624.034,580.541 673.613,632.039 720.071,631.966 C 766.529,631.893 838.787,574.127 876.225,553.874 C 913.663,533.621 929.629,517.731 944.700,510.447 C 959.771,503.163 960.875,507.962 966.649,510.170 C 972.423,512.378 977.400,517.890 979.343,523.697 C 981.285,529.504 981.665,533.817 978.304,545.013 C 974.943,556.209 968.063,572.452 959.178,590.874 C 950.293,609.296 936.442,633.834 924.991,655.546 C 913.540,677.258 902.315,699.245 890.475,721.144 C 878.635,743.043 865.734,764.760 853.953,786.942 C 842.172,809.124 831.177,832.461 819.790,854.233 C 808.403,876.005 797.012,896.135 785.632,917.575 C 774.252,939.016 762.948,961.011 751.510,982.876 C 740.072,1004.741 728.618,1026.962 717.004,1048.764 C 705.390,1070.566 693.234,1092.324 681.824,1113.690 C 670.414,1135.056 659.821,1155.639 648.545,1176.962 C 637.269,1198.285 625.097,1220.091 614.170,1241.630 C 603.242,1263.170 594.480,1284.332 582.980,1306.199 C 571.480,1328.066 557.960,1350.703 545.170,1372.832 C 532.380,1394.961 518.950,1416.912 506.240,1438.974 C 493.530,1461.036 481.188,1483.162 468.909,1505.202 C 456.630,1527.242 445.240,1549.576 432.566,1571.211 C 419.892,1592.846 405.058,1617.023 392.863,1635.012 C 380.668,1653.001 372.224,1662.981 359.399,1679.144 C 346.574,1695.307 337.139,1691.747 315.911,1731.993 C 294.683,1772.239 246.010,1889.180 232.030,1920.618" fill="none" stroke="#55714d" stroke-width="2.2" />
  <path id="v14_p11" d="M 236.634,1920.618 C 236.571,1919.115 236.461,1914.606 236.257,1911.600 C 236.053,1908.594 235.788,1905.588 235.408,1902.582 C 235.027,1899.576 234.587,1896.570 233.974,1893.564 C 233.361,1890.558 232.665,1887.553 231.732,1884.547 C 230.799,1881.541 229.743,1878.535 228.376,1875.529 C 227.009,1872.523 225.437,1869.517 223.530,1866.511 C 221.623,1863.505 219.256,1860.499 216.935,1857.493 C 214.614,1854.487 211.798,1851.481 209.607,1848.475 C 207.416,1845.469 205.344,1842.464 203.787,1839.458 C 202.230,1836.452 201.147,1833.446 200.265,1830.440 C 199.383,1827.434 198.887,1824.428 198.495,1821.422 C 198.103,1818.416 198.016,1815.410 197.916,1812.404 C 197.816,1809.398 197.898,1806.393 197.894,1803.387 C 197.890,1800.381 197.894,1797.375 197.894,1794.369 C 197.894,1791.363 197.894,1788.357 197.894,1785.351 C 197.894,1782.345 197.893,1779.339 197.893,1776.333 C 197.893,1773.327 197.893,1770.321 197.893,1767.315 C 197.893,1764.309 197.893,1761.304 197.893,1758.298 C 197.893,1755.292 197.892,1752.286 197.892,1749.280 C 197.892,1746.274 197.892,1743.268 197.892,1740.262 C 197.892,1737.256 197.892,1734.250 197.892,1731.244 C 197.892,1728.238 197.891,1725.232 197.891,1722.226 C 197.891,1719.220 197.891,1716.215 197.891,1713.209 C 197.891,1710.203 197.895,1707.197 197.891,1704.191 C 197.887,1701.185 197.873,1696.676 197.869,1695.173 C 197.865,1693.670 197.869,1698.930 197.869,1695.173 C 197.869,1691.416 197.869,1680.144 197.869,1672.629 C 197.869,1665.114 197.867,1657.599 197.869,1650.084 C 197.871,1642.569 197.881,1643.936 197.883,1627.540 C 197.885,1611.144 197.881,1577.174 197.880,1551.711 C 197.879,1526.248 197.878,1500.304 197.877,1474.762 C 197.876,1449.220 197.876,1423.867 197.875,1398.460 C 197.874,1373.053 197.874,1347.890 197.873,1322.318 C 197.872,1296.746 197.872,1270.611 197.871,1245.030 C 197.870,1219.449 197.870,1194.353 197.869,1168.830 C 197.868,1143.306 197.867,1117.319 197.866,1091.889 C 197.865,1066.459 197.865,1041.790 197.865,1016.249 C 197.865,990.708 197.864,964.268 197.864,938.641 C 197.864,913.014 197.864,887.912 197.864,862.487 C 197.864,837.062 197.862,811.600 197.863,786.093 C 197.864,760.586 197.869,734.947 197.870,709.446 C 197.871,683.946 197.870,658.579 197.870,633.090 C 197.870,607.601 197.870,582.001 197.870,556.512 C 197.870,531.022 197.870,505.627 197.870,480.153 C 197.870,454.679 197.504,425.882 197.870,403.667 C 198.236,381.452 197.830,360.788 200.067,346.865 C 202.304,332.942 208.134,326.152 211.291,320.130 C 214.448,314.108 215.992,315.482 219.010,310.733 C 222.028,305.984 226.432,294.055 229.400,291.638 C 232.368,289.222 233.666,296.330 236.818,296.235 C 239.970,296.140 241.787,293.640 248.313,291.068 C 254.839,288.496 265.540,283.334 275.973,280.801 C 286.406,278.268 298.872,276.300 310.912,275.870 C 322.952,275.440 337.197,276.898 348.215,278.224 C 359.233,279.550 366.000,280.331 377.019,283.827 C 388.038,287.323 403.085,293.558 414.327,299.199 C 425.569,304.840 435.528,311.227 444.471,317.675 C 453.414,324.123 460.199,329.616 467.983,337.886 C 475.767,346.156 482.558,354.041 491.175,367.296 C 499.792,380.551 509.924,398.659 519.684,417.417 C 529.444,436.174 538.752,456.048 549.736,479.841 C 560.720,503.634 557.739,531.950 585.589,560.175 C 613.440,588.400 667.662,649.253 716.839,649.190 C 766.016,649.127 842.419,581.689 880.651,559.797 C 918.882,537.905 932.500,524.768 946.228,517.838 C 959.956,510.908 958.733,516.586 963.021,518.216 C 967.309,519.846 970.597,523.325 971.954,527.617 C 973.310,531.909 974.387,534.040 971.160,543.966 C 967.933,553.892 961.596,569.340 952.592,587.174 C 943.587,605.008 929.027,629.539 917.133,650.970 C 905.239,672.401 893.538,694.127 881.228,715.758 C 868.918,737.389 855.531,758.851 843.275,780.756 C 831.019,802.661 819.553,825.703 807.690,847.189 C 795.827,868.675 783.955,888.519 772.097,909.673 C 760.239,930.827 748.459,952.524 736.540,974.112 C 724.621,995.700 712.728,1017.697 700.585,1039.203 C 688.442,1060.708 675.719,1082.150 663.682,1103.145 C 651.645,1124.140 640.311,1144.236 628.363,1165.171 C 616.415,1186.106 603.523,1207.564 591.996,1228.757 C 580.469,1249.950 571.157,1270.724 559.200,1292.327 C 547.243,1313.930 533.325,1336.405 520.252,1358.376 C 507.178,1380.347 493.636,1402.197 480.759,1424.150 C 467.882,1446.103 455.345,1468.108 442.989,1490.095 C 430.633,1512.082 419.143,1534.352 406.625,1556.075 C 394.107,1577.798 379.401,1602.048 367.879,1620.431 C 356.357,1638.814 349.316,1649.627 337.493,1666.376 C 325.670,1683.125 318.991,1678.553 296.943,1720.927 C 274.895,1763.301 220.496,1887.336 205.207,1920.618" fill="none" stroke="#2a8e26" stroke-width="2.2" />
</svg>
