<svg xmlns="http://www.w3.org/2000/svg" viewBox="-241.477 0 845.149 844.911" width="845.149" height="844.911"><g transform="matrix(1 0 0 -1 0 -742.982)"><path d="M -186.828 30.863 C -219.697 25.126 -231.21 -101.642 -212.544 -165.381 C -193.877 -229.121 -128.67 -295.383 -74.829 -351.574 C -20.987 -407.765 48.758 -456.002 110.505 -502.528 C 172.251 -549.055 219.381 -585.497 295.648 -630.733 C 371.915 -675.97 529.943 -776.729 568.108 -773.946 C 606.272 -771.164 567.489 -670.066 524.635 -614.037 C 481.78 -558.008 373.782 -492.718 310.981 -437.773 C 248.18 -382.827 202.212 -335.501 147.828 -284.365 C 93.443 -233.229 40.45 -183.495 -15.326 -130.957 C -71.102 -78.419 -153.958 36.601 -186.828 30.863 Z" fill="#1a9e3a22" stroke="#1a9e3a" stroke-width="1.5"/><circle cx="-188.317" cy="11.794" r="2" fill="#333"/><circle cx="-188.317" cy="11.794" r="13" fill="none" stroke="#bbb" stroke-width="0.4"/><circle cx="-167.929" cy="-34.663" r="2" fill="#333"/><circle cx="-167.929" cy="-34.663" r="13" fill="none" stroke="#bbb" stroke-width="0.4"/><circle cx="-147.785" cy="-79.91" r="2" fill="#333"/><circle cx="-147.785" cy="-79.91" r="13" fill="none" stroke="#bbb" stroke-width="0.4"/><circle cx="-132.175" cy="-88.758" r="2" fill="#333"/><circle cx="-132.175" cy="-88.758" r="13" fill="none" stroke="#bbb" stroke-width="0.4"/><circle cx="-114.093" cy="-118.313" r="2" fill="#333"/><circle cx="-114.093" cy="-118.313" r="13" fill="none" stroke="#bbb" stroke-width="0.4"/><circle cx="-96.101" cy="-147.72" r="2" fill="#333"/><circle cx="-96.101" cy="-147.72" r="13" fill="none" stroke="#bbb" stroke-width="0.4"/><circle cx="-87.001" cy="-105.106" r="2" fill="#333"/><circle cx="-87.001" cy="-105.106" r="13" fill="none" stroke="#bbb" stroke-width="0.4"/><circle cx="-74.138" cy="-93.502" r="2" fill="#333"/><circle cx="-74.138" cy="-93.502" r="13" fill="none" stroke="#bbb" stroke-width="0.4"/><circle cx="-54.4" cy="-138.325" r="2" fill="#333"/><circle cx="-54.4" cy="-138.325" r="13" fill="none" stroke="#bbb" stroke-width="0.4"/><circle cx="-34.72" cy="-183.115" r="2" fill="#333"/><circle cx="-34.72" cy="-183.115" r="13" fill="none" stroke="#bbb" stroke-width="0.4"/><circle cx="-19.487" cy="-192.046" r="2" fill="#333"/><circle cx="-19.487" cy="-192.046" r="13" fill="none" stroke="#bbb" stroke-width="0.4"/><circle cx="-1.794" cy="-221.391" r="2" fill="#333"/><circle cx="-1.794" cy="-221.391" r="13" fill="none" stroke="#bbb" stroke-width="0.4"/><circle cx="15.679" cy="-244.557" r="2" fill="#333"/><circle cx="15.679" cy="-244.557" r="13" fill="none" stroke="#bbb" stroke-width="0.4"/><circle cx="33.56" cy="-266.895" r="2" fill="#333"/><circle cx="33.56" cy="-266.895" r="13" fill="none" stroke="#bbb" stroke-width="0.4"/><circle cx="52.003" cy="-294.264" r="2" fill="#333"/><circle cx="52.003" cy="-294.264" r="13" fill="none" stroke="#bbb" stroke-width="0.4"/><circle cx="69.794" cy="-316.779" r="2" fill="#333"/><circle cx="69.794" cy="-316.779" r="13" fill="none" stroke="#bbb" stroke-width="0.4"/><circle cx="87.456" cy="-339.515" r="2" fill="#333"/><circle cx="87.456" cy="-339.515" r="13" fill="none" stroke="#bbb" stroke-width="0.4"/><circle cx="105.067" cy="-362.609" r="2" fill="#333"/><circle cx="105.067" cy="-362.609" r="13" fill="none" stroke="#bbb" stroke-width="0.4"/><circle cx="122.655" cy="-385.798" r="2" fill="#333"/><circle cx="122.655" cy="-385.798" r="13" fill="none" stroke="#bbb" stroke-width="0.4"/><circle cx="139.599" cy="-404.442" r="2" fill="#333"/><circle cx="139.599" cy="-404.442" r="13" fill="none" stroke="#bbb" stroke-width="0.4"/><circle cx="155.233" cy="-413.379" r="2" fill="#333"/><circle cx="155.233" cy="-413.379" r="13" fill="none" stroke="#bbb" stroke-width="0.4"/><circle cx="172.088" cy="-432.817" r="2" fill="#333"/><circle cx="172.088" cy="-432.817" r="13" fill="none" stroke="#bbb" stroke-width="0.4"/><circle cx="188.327" cy="-447.692" r="2" fill="#333"/><circle cx="188.327" cy="-447.692" r="13" fill="none" stroke="#bbb" stroke-width="0.4"/><circle cx="204.545" cy="-463.17" r="2" fill="#333"/><circle cx="204.545" cy="-463.17" r="13" fill="none" stroke="#bbb" stroke-width="0.4"/><circle cx="220.632" cy="-477.921" r="2" fill="#333"/><circle cx="220.632" cy="-477.921" r="13" fill="none" stroke="#bbb" stroke-width="0.4"/><circle cx="236.164" cy="-488.36" r="2" fill="#333"/><circle cx="236.164" cy="-488.36" r="13" fill="none" stroke="#bbb" stroke-width="0.4"/><circle cx="251.72" cy="-499.511" r="2" fill="#333"/><circle cx="251.72" cy="-499.511" r="13" fill="none" stroke="#bbb" stroke-width="0.4"/><circle cx="266.687" cy="-506.411" r="2" fill="#333"/><circle cx="266.687" cy="-506.411" r="13" fill="none" stroke="#bbb" stroke-width="0.4"/><circle cx="284.124" cy="-533.869" r="2" fill="#333"/><circle cx="284.124" cy="-533.869" r="13" fill="none" stroke="#bbb" stroke-width="0.4"/><circle cx="299.784" cy="-547.115" r="2" fill="#333"/><circle cx="299.784" cy="-547.115" r="13" fill="none" stroke="#bbb" stroke-width="0.4"/><circle cx="315.5" cy="-561.048" r="2" fill="#333"/><circle cx="315.5" cy="-561.048" r="13" fill="none" stroke="#bbb" stroke-width="0.4"/><circle cx="330.66" cy="-570.711" r="2" fill="#333"/><circle cx="330.66" cy="-570.711" r="13" fill="none" stroke="#bbb" stroke-width="0.4"/><circle cx="345.267" cy="-576.11" r="2" fill="#333"/><circle cx="345.267" cy="-576.11" r="13" fill="none" stroke="#bbb" stroke-width="0.4"/><circle cx="360.508" cy="-587.214" r="2" fill="#333"/><circle cx="360.508" cy="-587.214" r="13" fill="none" stroke="#bbb" stroke-width="0.4"/><circle cx="375.804" cy="-599.034" r="2" fill="#333"/><circle cx="375.804" cy="-599.034" r="13" fill="none" stroke="#bbb" stroke-width="0.4"/><circle cx="391.815" cy="-616.49" r="2" fill="#333"/><circle cx="391.815" cy="-616.49" r="13" fill="none" stroke="#bbb" stroke-width="0.4"/><circle cx="407.294" cy="-629.689" r="2" fill="#333"/><circle cx="407.294" cy="-629.689" r="13" fill="none" stroke="#bbb" stroke-width="0.4"/><circle cx="422.213" cy="-638.61" r="2" fill="#333"/><circle cx="422.213" cy="-638.61" r="13" fill="none" stroke="#bbb" stroke-width="0.4"/><circle cx="436.839" cy="-645.153" r="2" fill="#333"/><circle cx="436.839" cy="-645.153" r="13" fill="none" stroke="#bbb" stroke-width="0.4"/><circle cx="451.021" cy="-648.285" r="2" fill="#333"/><circle cx="451.021" cy="-648.285" r="13" fill="none" stroke="#bbb" stroke-width="0.4"/><circle cx="465.212" cy="-651.934" r="2" fill="#333"/><circle cx="465.212" cy="-651.934" r="13" fill="none" stroke="#bbb" stroke-width="0.4"/><circle cx="479.022" cy="-653.065" r="2" fill="#333"/><circle cx="479.022" cy="-653.065" r="13" fill="none" stroke="#bbb" stroke-width="0.4"/><circle cx="493.068" cy="-656.558" r="2" fill="#333"/><circle cx="493.068" cy="-656.558" r="13" fill="none" stroke="#bbb" stroke-width="0.4"/><circle cx="507.133" cy="-660.336" r="2" fill="#333"/><circle cx="507.133" cy="-660.336" r="13" fill="none" stroke="#bbb" stroke-width="0.4"/><circle cx="521.331" cy="-665.324" r="2" fill="#333"/><circle cx="521.331" cy="-665.324" r="13" fill="none" stroke="#bbb" stroke-width="0.4"/><circle cx="535.519" cy="-670.466" r="2" fill="#333"/><circle cx="535.519" cy="-670.466" r="13" fill="none" stroke="#bbb" stroke-width="0.4"/><circle cx="550.311" cy="-680.651" r="2" fill="#333"/><circle cx="550.311" cy="-680.651" r="13" fill="none" stroke="#bbb" stroke-width="0.4"/><circle cx="-176.822" cy="-188.495" r="2" fill="#333"/><circle cx="-176.822" cy="-188.495" r="13" fill="none" stroke="#bbb" stroke-width="0.4"/><circle cx="-157.399" cy="-227.09" r="2" fill="#333"/><circle cx="-157.399" cy="-227.09" r="13" fill="none" stroke="#bbb" stroke-width="0.4"/><circle cx="-138.202" cy="-264.627" r="2" fill="#333"/><circle cx="-138.202" cy="-264.627" r="13" fill="none" stroke="#bbb" stroke-width="0.4"/><circle cx="-123.05" cy="-269.75" r="2" fill="#333"/><circle cx="-123.05" cy="-269.75" r="13" fill="none" stroke="#bbb" stroke-width="0.4"/><circle cx="-105.7" cy="-293.339" r="2" fill="#333"/><circle cx="-105.7" cy="-293.339" r="13" fill="none" stroke="#bbb" stroke-width="0.4"/><circle cx="-88.437" cy="-316.811" r="2" fill="#333"/><circle cx="-88.437" cy="-316.811" r="13" fill="none" stroke="#bbb" stroke-width="0.4"/><circle cx="-79.099" cy="-276.136" r="2" fill="#333"/><circle cx="-79.099" cy="-276.136" r="13" fill="none" stroke="#bbb" stroke-width="0.4"/><circle cx="-66.411" cy="-263.102" r="2" fill="#333"/><circle cx="-66.411" cy="-263.102" r="13" fill="none" stroke="#bbb" stroke-width="0.4"/><circle cx="-47.603" cy="-300.356" r="2" fill="#333"/><circle cx="-47.603" cy="-300.356" r="13" fill="none" stroke="#bbb" stroke-width="0.4"/><circle cx="-28.849" cy="-337.598" r="2" fill="#333"/><circle cx="-28.849" cy="-337.598" r="13" fill="none" stroke="#bbb" stroke-width="0.4"/><circle cx="-14.061" cy="-342.913" r="2" fill="#333"/><circle cx="-14.061" cy="-342.913" r="13" fill="none" stroke="#bbb" stroke-width="0.4"/><circle cx="2.917" cy="-366.432" r="2" fill="#333"/><circle cx="2.917" cy="-366.432" r="13" fill="none" stroke="#bbb" stroke-width="0.4"/><circle cx="19.747" cy="-384.357" r="2" fill="#333"/><circle cx="19.747" cy="-384.357" r="13" fill="none" stroke="#bbb" stroke-width="0.4"/><circle cx="36.985" cy="-401.465" r="2" fill="#333"/><circle cx="36.985" cy="-401.465" r="13" fill="none" stroke="#bbb" stroke-width="0.4"/><circle cx="54.722" cy="-423.084" r="2" fill="#333"/><circle cx="54.722" cy="-423.084" r="13" fill="none" stroke="#bbb" stroke-width="0.4"/><circle cx="71.877" cy="-440.412" r="2" fill="#333"/><circle cx="71.877" cy="-440.412" r="13" fill="none" stroke="#bbb" stroke-width="0.4"/><circle cx="88.906" cy="-457.993" r="2" fill="#333"/><circle cx="88.906" cy="-457.993" r="13" fill="none" stroke="#bbb" stroke-width="0.4"/><circle cx="105.885" cy="-475.944" r="2" fill="#333"/><circle cx="105.885" cy="-475.944" r="13" fill="none" stroke="#bbb" stroke-width="0.4"/><circle cx="122.846" cy="-494.021" r="2" fill="#333"/><circle cx="122.846" cy="-494.021" r="13" fill="none" stroke="#bbb" stroke-width="0.4"/><circle cx="139.23" cy="-508.107" r="2" fill="#333"/><circle cx="139.23" cy="-508.107" r="13" fill="none" stroke="#bbb" stroke-width="0.4"/><circle cx="154.442" cy="-513.611" r="2" fill="#333"/><circle cx="154.442" cy="-513.611" r="13" fill="none" stroke="#bbb" stroke-width="0.4"/><circle cx="170.743" cy="-528.533" r="2" fill="#333"/><circle cx="170.743" cy="-528.533" r="13" fill="none" stroke="#bbb" stroke-width="0.4"/><circle cx="186.497" cy="-539.456" r="2" fill="#333"/><circle cx="186.497" cy="-539.456" r="13" fill="none" stroke="#bbb" stroke-width="0.4"/><circle cx="202.231" cy="-550.992" r="2" fill="#333"/><circle cx="202.231" cy="-550.992" r="13" fill="none" stroke="#bbb" stroke-width="0.4"/><circle cx="217.852" cy="-561.953" r="2" fill="#333"/><circle cx="217.852" cy="-561.953" r="13" fill="none" stroke="#bbb" stroke-width="0.4"/><circle cx="232.985" cy="-569.144" r="2" fill="#333"/><circle cx="232.985" cy="-569.144" r="13" fill="none" stroke="#bbb" stroke-width="0.4"/><circle cx="248.142" cy="-577.046" r="2" fill="#333"/><circle cx="248.142" cy="-577.046" r="13" fill="none" stroke="#bbb" stroke-width="0.4"/><circle cx="262.777" cy="-581.239" r="2" fill="#333"/><circle cx="262.777" cy="-581.239" r="13" fill="none" stroke="#bbb" stroke-width="0.4"/><circle cx="279.616" cy="-603.824" r="2" fill="#333"/><circle cx="279.616" cy="-603.824" r="13" fill="none" stroke="#bbb" stroke-width="0.4"/><circle cx="294.877" cy="-613.821" r="2" fill="#333"/><circle cx="294.877" cy="-613.821" r="13" fill="none" stroke="#bbb" stroke-width="0.4"/><circle cx="310.194" cy="-624.506" r="2" fill="#333"/><circle cx="310.194" cy="-624.506" r="13" fill="none" stroke="#bbb" stroke-width="0.4"/><circle cx="325.022" cy="-631.461" r="2" fill="#333"/><circle cx="325.022" cy="-631.461" r="13" fill="none" stroke="#bbb" stroke-width="0.4"/><circle cx="339.363" cy="-634.695" r="2" fill="#333"/><circle cx="339.363" cy="-634.695" r="13" fill="none" stroke="#bbb" stroke-width="0.4"/><circle cx="354.271" cy="-643.092" r="2" fill="#333"/><circle cx="354.271" cy="-643.092" r="13" fill="none" stroke="#bbb" stroke-width="0.4"/><circle cx="369.235" cy="-652.204" r="2" fill="#333"/><circle cx="369.235" cy="-652.204" r="13" fill="none" stroke="#bbb" stroke-width="0.4"/><circle cx="384.847" cy="-666.412" r="2" fill="#333"/><circle cx="384.847" cy="-666.412" r="13" fill="none" stroke="#bbb" stroke-width="0.4"/><circle cx="399.994" cy="-676.904" r="2" fill="#333"/><circle cx="399.994" cy="-676.904" r="13" fill="none" stroke="#bbb" stroke-width="0.4"/><circle cx="414.647" cy="-683.659" r="2" fill="#333"/><circle cx="414.647" cy="-683.659" r="13" fill="none" stroke="#bbb" stroke-width="0.4"/><circle cx="429.047" cy="-688.361" r="2" fill="#333"/><circle cx="429.047" cy="-688.361" r="13" fill="none" stroke="#bbb" stroke-width="0.4"/><circle cx="443.056" cy="-690.085" r="2" fill="#333"/><circle cx="443.056" cy="-690.085" r="13" fill="none" stroke="#bbb" stroke-width="0.4"/><circle cx="457.074" cy="-692.327" r="2" fill="#333"/><circle cx="457.074" cy="-692.327" r="13" fill="none" stroke="#bbb" stroke-width="0.4"/><circle cx="470.751" cy="-692.375" r="2" fill="#333"/><circle cx="470.751" cy="-692.375" r="13" fill="none" stroke="#bbb" stroke-width="0.4"/><circle cx="484.637" cy="-694.568" r="2" fill="#333"/><circle cx="484.637" cy="-694.568" r="13" fill="none" stroke="#bbb" stroke-width="0.4"/><circle cx="498.543" cy="-697.047" r="2" fill="#333"/><circle cx="498.543" cy="-697.047" r="13" fill="none" stroke="#bbb" stroke-width="0.4"/><circle cx="512.568" cy="-700.627" r="2" fill="#333"/><circle cx="512.568" cy="-700.627" r="13" fill="none" stroke="#bbb" stroke-width="0.4"/><circle cx="526.583" cy="-704.361" r="2" fill="#333"/><circle cx="526.583" cy="-704.361" r="13" fill="none" stroke="#bbb" stroke-width="0.4"/><circle cx="541.136" cy="-712.597" r="2" fill="#333"/><circle cx="541.136" cy="-712.597" r="13" fill="none" stroke="#bbb" stroke-width="0.4"/><circle cx="-186.828" cy="30.863" r="2.5" fill="#e60000"/><circle cx="-212.544" cy="-165.381" r="2.5" fill="#e60000"/><circle cx="-74.829" cy="-351.574" r="2.5" fill="#e60000"/><circle cx="110.505" cy="-502.528" r="2.5" fill="#e60000"/><circle cx="295.648" cy="-630.733" r="2.5" fill="#e60000"/><circle cx="568.108" cy="-773.946" r="2.5" fill="#e60000"/><circle cx="524.635" cy="-614.037" r="2.5" fill="#e60000"/><circle cx="310.981" cy="-437.773" r="2.5" fill="#e60000"/><circle cx="147.828" cy="-284.365" r="2.5" fill="#e60000"/><circle cx="-15.326" cy="-130.957" r="2.5" fill="#e60000"/></g></svg>