<svg xmlns="http://www.w3.org/2000/svg" width="560" height="930" viewBox="0 0 560 930">
<defs><linearGradient id="st" x1="0" y1="0" x2="0" y2="1"><stop offset="0" stop-color="#c8ccd3"/><stop offset=".5" stop-color="#9094a0"/><stop offset="1" stop-color="#54585f"/></linearGradient></defs>
<rect width="560" height="930" fill="#13110d"/>
<line x1="94.12" y1="89.38" x2="186.43" y2="841.20" stroke="#7d7762" stroke-width="3.35" stroke-linecap="round"/>
<line x1="103.50" y1="105.81" x2="191.77" y2="824.76" stroke="#7d7762" stroke-width="3.10" stroke-linecap="round"/>
<line x1="112.74" y1="121.64" x2="197.13" y2="808.94" stroke="#7d7762" stroke-width="2.90" stroke-linecap="round"/>
<line x1="121.85" y1="136.86" x2="202.50" y2="793.71" stroke="#7d7762" stroke-width="2.54" stroke-linecap="round"/>
<line x1="130.82" y1="151.52" x2="207.87" y2="779.06" stroke="#7d7762" stroke-width="2.44" stroke-linecap="round"/>
<line x1="139.72" y1="165.63" x2="213.31" y2="764.94" stroke="#7d7762" stroke-width="2.44" stroke-linecap="round"/>
<line x1="148.50" y1="179.22" x2="218.75" y2="751.36" stroke="#7d7762" stroke-width="2.03" stroke-linecap="round"/>
<line x1="157.17" y1="192.30" x2="224.20" y2="738.27" stroke="#7d7762" stroke-width="2.03" stroke-linecap="round"/>
<line x1="165.75" y1="204.91" x2="229.69" y2="725.66" stroke="#7d7762" stroke-width="1.83" stroke-linecap="round"/>
<line x1="174.68" y1="217.05" x2="235.64" y2="713.52" stroke="#7d7762" stroke-width="5.28" stroke-linecap="round"/>
<line x1="183.96" y1="228.76" x2="242.05" y2="701.82" stroke="#7d7762" stroke-width="4.98" stroke-linecap="round"/>
<line x1="193.11" y1="240.03" x2="248.43" y2="690.54" stroke="#7d7762" stroke-width="4.67" stroke-linecap="round"/>
<line x1="202.13" y1="250.90" x2="254.78" y2="679.67" stroke="#7d7762" stroke-width="4.37" stroke-linecap="round"/>
<line x1="211.04" y1="261.39" x2="261.11" y2="669.19" stroke="#7d7762" stroke-width="4.11" stroke-linecap="round"/>
<line x1="219.86" y1="271.49" x2="267.45" y2="659.08" stroke="#7d7762" stroke-width="4.11" stroke-linecap="round"/>
<line x1="228.61" y1="281.24" x2="273.81" y2="649.33" stroke="#7d7762" stroke-width="3.86" stroke-linecap="round"/>
<line x1="237.23" y1="290.65" x2="280.11" y2="639.93" stroke="#7d7762" stroke-width="3.35" stroke-linecap="round"/>
<line x1="245.73" y1="299.72" x2="286.39" y2="630.85" stroke="#7d7762" stroke-width="3.35" stroke-linecap="round"/>
<line x1="254.17" y1="308.48" x2="292.68" y2="622.10" stroke="#7d7762" stroke-width="3.10" stroke-linecap="round"/>
<line x1="262.54" y1="316.93" x2="298.97" y2="613.64" stroke="#7d7762" stroke-width="3.10" stroke-linecap="round"/>
<line x1="270.80" y1="325.09" x2="305.22" y2="605.48" stroke="#7d7762" stroke-width="2.54" stroke-linecap="round"/>
<line x1="278.95" y1="332.97" x2="311.45" y2="597.60" stroke="#7d7762" stroke-width="2.54" stroke-linecap="round"/>
<line x1="287.08" y1="340.59" x2="317.70" y2="589.99" stroke="#7d7762" stroke-width="2.54" stroke-linecap="round"/>
<line x1="295.14" y1="347.94" x2="323.95" y2="582.63" stroke="#7d7762" stroke-width="2.29" stroke-linecap="round"/>
<line x1="303.13" y1="355.05" x2="330.21" y2="575.53" stroke="#7d7762" stroke-width="2.29" stroke-linecap="round"/>
<line x1="311.10" y1="361.92" x2="336.49" y2="568.66" stroke="#7d7762" stroke-width="2.29" stroke-linecap="round"/>
<line x1="319.01" y1="368.56" x2="342.76" y2="562.02" stroke="#7d7762" stroke-width="2.03" stroke-linecap="round"/>
<line x1="326.86" y1="374.98" x2="349.04" y2="555.59" stroke="#7d7762" stroke-width="2.03" stroke-linecap="round"/>
<line x1="334.68" y1="381.19" x2="355.33" y2="549.38" stroke="#7d7762" stroke-width="2.03" stroke-linecap="round"/>
<line x1="342.46" y1="387.20" x2="361.63" y2="543.37" stroke="#7d7762" stroke-width="1.83" stroke-linecap="round"/>
<line x1="350.18" y1="393.02" x2="367.93" y2="537.55" stroke="#7d7762" stroke-width="1.83" stroke-linecap="round"/>
<line x1="357.88" y1="398.65" x2="374.24" y2="531.92" stroke="#7d7762" stroke-width="1.83" stroke-linecap="round"/>
<line x1="365.53" y1="404.10" x2="380.56" y2="526.47" stroke="#7d7762" stroke-width="1.63" stroke-linecap="round"/>
<line x1="373.14" y1="409.38" x2="386.87" y2="521.19" stroke="#7d7762" stroke-width="1.63" stroke-linecap="round"/>
<line x1="380.73" y1="414.49" x2="393.20" y2="516.08" stroke="#7d7762" stroke-width="1.63" stroke-linecap="round"/>
<line x1="388.29" y1="419.45" x2="399.55" y2="511.13" stroke="#7d7762" stroke-width="1.63" stroke-linecap="round"/>
<line x1="395.83" y1="424.25" x2="405.90" y2="506.33" stroke="#7d7762" stroke-width="1.52" stroke-linecap="round"/>
<line x1="403.33" y1="428.90" x2="412.27" y2="501.67" stroke="#7d7762" stroke-width="1.52" stroke-linecap="round"/>
<line x1="410.82" y1="433.41" x2="418.65" y2="497.16" stroke="#7d7762" stroke-width="1.52" stroke-linecap="round"/>
<line x1="418.27" y1="437.79" x2="425.03" y2="492.79" stroke="#7d7762" stroke-width="1.42" stroke-linecap="round"/>
<line x1="425.70" y1="442.03" x2="431.41" y2="488.55" stroke="#7d7762" stroke-width="1.42" stroke-linecap="round"/>
<line x1="433.10" y1="446.14" x2="437.80" y2="484.43" stroke="#7d7762" stroke-width="1.32" stroke-linecap="round"/>
<line x1="440.47" y1="450.14" x2="444.19" y2="480.44" stroke="#7d7762" stroke-width="1.27" stroke-linecap="round"/>
<line x1="447.81" y1="454.01" x2="450.58" y2="476.56" stroke="#7d7762" stroke-width="1.27" stroke-linecap="round"/>
<line x1="455.14" y1="457.77" x2="456.99" y2="472.81" stroke="#7d7762" stroke-width="1.27" stroke-linecap="round"/>
<line x1="462.46" y1="461.42" x2="463.41" y2="469.16" stroke="#7d7762" stroke-width="1.27" stroke-linecap="round"/>
<line x1="467.96" y1="450.25" x2="471.65" y2="480.33" stroke="#7d7762" stroke-width="1.27" stroke-linecap="round"/>
<path d="M 93.55,84.71 94.90,86.75 96.25,88.78 97.60,90.81 98.95,92.84 100.30,94.87 101.66,96.90 103.01,98.93 104.36,100.95 105.71,102.97 107.06,104.99 108.41,107.01 109.76,109.02 111.10,111.03 112.45,113.03 113.80,115.04 115.15,117.03 116.50,119.03 117.84,121.02 119.19,123.00 120.53,124.98 121.88,126.96 123.22,128.93 124.56,130.89 125.91,132.85 127.25,134.81 128.59,136.75 129.93,138.70 131.27,140.63 132.61,142.56 133.95,144.49 135.29,146.40 136.62,148.31 137.96,150.22 139.29,152.12 140.63,154.01 141.96,155.89 143.29,157.77 144.63,159.63 145.96,161.50 147.29,163.35 148.61,165.20 149.94,167.04 151.27,168.87 152.60,170.69 153.92,172.51 155.24,174.32 156.57,176.12 157.89,177.91 159.21,179.69 160.53,181.47 161.85,183.24 163.17,185.00 164.49,186.75 165.80,188.49 167.12,190.23 168.43,191.95 169.74,193.67 171.06,195.38 172.37,197.08 173.68,198.78 174.99,200.46 176.29,202.14 177.60,203.80 178.91,205.46 180.21,207.11 181.52,208.76 182.82,210.39 184.12,212.01 185.42,213.63 186.72,215.24 188.02,216.84 189.32,218.43 190.61,220.01 191.91,221.58 193.20,223.15 194.49,224.71 195.79,226.25 197.08,227.79 198.37,229.33 199.66,230.85 200.95,232.37 202.23,233.87 203.52,235.37 204.80,236.86 206.09,238.35 207.37,239.82 208.65,241.29 209.93,242.75 211.22,244.20 212.49,245.64 213.77,247.07 215.05,248.50 216.33,249.92 217.60,251.33 218.88,252.74 220.15,254.14 221.42,255.52 222.69,256.91 223.97,258.28 225.24,259.65 226.50,261.01 227.77,262.36 229.04,263.71 230.31,265.05 231.57,266.38 232.84,267.71 234.10,269.03 235.36,270.34 236.63,271.64 237.89,272.94 239.15,274.24 240.41,275.52 241.67,276.80 242.93,278.08 244.19,279.34 245.44,280.61 246.70,281.86 247.95,283.11 249.21,284.36 250.46,285.59 251.72,286.83 252.97,288.06 254.22,289.28 255.47,290.49 256.72,291.71 257.97,292.91 259.22,294.11 260.47,295.31 261.72,296.50 262.97,297.69 264.22,298.87 265.46,300.05 266.71,301.22 267.95,302.39 269.20,303.55 270.44,304.71 271.69,305.87 272.93,307.02 274.17,308.16 275.42,309.31 276.66,310.45 277.90,311.58 279.14,312.71 280.38,313.84 281.62,314.97 282.86,316.09 284.10,317.21 285.34,318.32 286.58,319.43 287.82,320.54 289.05,321.65 290.29,322.75 291.53,323.85 292.77,324.94 294.00,326.04 295.24,327.13 296.47,328.22 297.71,329.30 298.94,330.39 300.18,331.47 301.41,332.54 302.65,333.62 303.88,334.69 305.12,335.77 306.35,336.84 307.58,337.90 308.82,338.97 310.05,340.03 311.28,341.09 312.51,342.15 313.74,343.21 314.98,344.27 316.21,345.32 317.44,346.38 318.67,347.43 319.90,348.48 321.13,349.53 322.36,350.57 323.59,351.62 324.82,352.66 326.05,353.70 327.28,354.75 328.51,355.78 329.74,356.82 330.97,357.86 332.20,358.90 333.43,359.93 334.66,360.96 335.89,361.99 337.12,363.02 338.35,364.05 339.57,365.08 340.80,366.11 342.03,367.13 343.26,368.16 344.49,369.18 345.71,370.20 346.94,371.22 348.17,372.24 349.39,373.26 350.62,374.27 351.85,375.29 353.07,376.30 354.30,377.31 355.53,378.32 356.75,379.33 357.98,380.33 359.20,381.34 360.43,382.34 361.65,383.34 362.88,384.34 364.10,385.34 365.33,386.33 366.55,387.33 367.78,388.32 369.00,389.30 370.22,390.29 371.44,391.27 372.67,392.26 373.89,393.23 375.11,394.21 376.33,395.18 377.55,396.15 378.77,397.12 380.00,398.08 381.22,399.04 382.43,400.00 383.65,400.95 384.87,401.90 386.09,402.85 387.31,403.79 388.53,404.73 389.74,405.66 390.96,406.59 392.17,407.52 393.39,408.44 394.60,409.35 395.82,410.26 397.03,411.17 398.24,412.07 399.46,412.96 400.67,413.85 401.88,414.73 403.09,415.60 404.30,416.47 405.50,417.33 406.71,418.19 407.92,419.04 409.12,419.88 410.33,420.71 411.53,421.53 412.73,422.35 413.93,423.16 415.13,423.96 416.33,424.75 417.53,425.53 418.73,426.30 419.92,427.07 421.12,427.82 422.31,428.56 423.50,429.29 424.69,430.01 425.88,430.72 427.07,431.42 428.26,432.10 429.44,432.78 430.62,433.44 431.81,434.09 432.99,434.72 434.16,435.34 435.34,435.95 436.52,436.54 437.69,437.12 438.86,437.68 440.03,438.23 441.20,438.76 442.36,439.27 443.53,439.77 444.69,440.25 445.85,440.72 447.00,441.16 448.16,441.59 449.31,442.00 450.46,442.39 451.61,442.76 452.75,443.11 453.89,443.44 455.03,443.74 456.17,444.03 457.31,444.29 458.44,444.53 459.57,444.75 460.69,444.94 461.81,445.11 462.93,445.26 464.05,445.38 465.17,445.47 466.28,445.54 467.38,445.58 467.38,445.58 467.84,445.62 468.30,445.69 468.75,445.79 469.19,445.91 469.62,446.06 470.05,446.23 470.47,446.43 470.88,446.65 471.28,446.89 471.68,447.16 472.07,447.45 472.45,447.75 472.82,448.08 473.19,448.43 473.54,448.80 473.89,449.18 474.23,449.59 474.56,450.01 474.89,450.45 475.20,450.90 475.51,451.37 475.81,451.85 476.10,452.35 476.38,452.86 476.65,453.39 476.91,453.92 477.17,454.47 477.41,455.03 477.65,455.60 477.88,456.18 478.09,456.77 478.30,457.37 478.50,457.97 478.69,458.58 478.87,459.20 479.04,459.83 479.20,460.46 479.35,461.09 479.49,461.73 479.62,462.37 479.74,463.02 479.85,463.66 479.96,464.31 480.05,464.96 480.13,465.61 480.19,466.26 480.25,466.91 480.30,467.56 480.34,468.20 480.37,468.84 480.38,469.48 480.39,470.12 480.38,470.75 480.37,471.37 480.34,471.99 480.30,472.60 480.25,473.21 480.19,473.80 480.11,474.39 480.03,474.97 479.93,475.54 479.82,476.10 479.70,476.65 479.57,477.19 479.43,477.71 479.27,478.22 479.11,478.72 478.93,479.20 478.74,479.67 478.53,480.13 478.32,480.57 478.09,480.99 477.85,481.39 477.59,481.78 477.33,482.14 477.05,482.49 476.75,482.82 476.45,483.13 476.13,483.42 475.80,483.68 475.46,483.92 475.10,484.14 474.73,484.34 474.34,484.51 473.95,484.66 473.54,484.78 473.11,484.88 472.67,484.95 472.22,484.99 472.22,484.99 471.12,485.03 470.03,485.10 468.94,485.19 467.85,485.31 466.77,485.46 465.69,485.63 464.61,485.82 463.53,486.04 462.46,486.28 461.39,486.55 460.32,486.83 459.26,487.14 458.20,487.47 457.14,487.82 456.08,488.19 455.03,488.57 453.98,488.98 452.93,489.41 451.88,489.86 450.83,490.32 449.79,490.80 448.75,491.30 447.71,491.81 446.67,492.35 445.64,492.89 444.61,493.46 443.58,494.03 442.55,494.63 441.52,495.23 440.49,495.85 439.47,496.49 438.45,497.14 437.42,497.80 436.41,498.47 435.39,499.16 434.37,499.85 433.36,500.56 432.34,501.28 431.33,502.01 430.32,502.76 429.31,503.51 428.30,504.27 427.29,505.04 426.29,505.82 425.28,506.61 424.28,507.41 423.28,508.22 422.27,509.04 421.27,509.86 420.27,510.70 419.27,511.54 418.28,512.39 417.28,513.24 416.28,514.10 415.29,514.97 414.29,515.85 413.30,516.73 412.31,517.61 411.31,518.51 410.32,519.41 409.33,520.31 408.34,521.22 407.35,522.14 406.36,523.06 405.37,523.98 404.38,524.91 403.40,525.84 402.41,526.78 401.42,527.72 400.44,528.67 399.45,529.62 398.47,530.57 397.48,531.53 396.50,532.49 395.51,533.45 394.53,534.42 393.55,535.39 392.57,536.36 391.58,537.34 390.60,538.32 389.62,539.30 388.64,540.28 387.66,541.27 386.68,542.26 385.70,543.25 384.72,544.24 383.74,545.24 382.76,546.23 381.78,547.23 380.80,548.23 379.82,549.24 378.84,550.24 377.86,551.25 376.88,552.26 375.91,553.26 374.93,554.28 373.95,555.29 372.97,556.30 371.99,557.32 371.02,558.34 370.04,559.35 369.06,560.37 368.09,561.39 367.11,562.42 366.13,563.44 365.16,564.47 364.18,565.49 363.21,566.52 362.23,567.55 361.25,568.58 360.28,569.61 359.30,570.64 358.33,571.68 357.35,572.71 356.38,573.75 355.40,574.79 354.43,575.83 353.46,576.87 352.48,577.91 351.51,578.96 350.53,580.00 349.56,581.05 348.59,582.10 347.61,583.15 346.64,584.20 345.67,585.25 344.69,586.30 343.72,587.36 342.75,588.42 341.78,589.48 340.81,590.54 339.84,591.60 338.86,592.67 337.89,593.74 336.92,594.81 335.95,595.88 334.98,596.95 334.01,598.03 333.04,599.11 332.07,600.19 331.10,601.27 330.13,602.36 329.17,603.45 328.20,604.54 327.23,605.63 326.26,606.73 325.30,607.83 324.33,608.93 323.36,610.03 322.40,611.14 321.43,612.25 320.47,613.37 319.50,614.49 318.54,615.61 317.57,616.73 316.61,617.86 315.65,618.99 314.68,620.13 313.72,621.27 312.76,622.41 311.80,623.56 310.84,624.71 309.88,625.86 308.92,627.02 307.96,628.19 307.00,629.35 306.04,630.53 305.08,631.70 304.13,632.89 303.17,634.07 302.21,635.26 301.26,636.46 300.30,637.66 299.35,638.87 298.40,640.08 297.44,641.30 296.49,642.52 295.54,643.75 294.59,644.98 293.64,646.22 292.69,647.46 291.74,648.71 290.79,649.97 289.85,651.23 288.90,652.50 287.95,653.77 287.01,655.05 286.07,656.34 285.12,657.63 284.18,658.93 283.24,660.24 282.30,661.55 281.36,662.87 280.42,664.19 279.48,665.52 278.54,666.86 277.60,668.21 276.67,669.56 275.73,670.92 274.80,672.29 273.87,673.67 272.93,675.05 272.00,676.44 271.07,677.84 270.14,679.24 269.21,680.65 268.29,682.07 267.36,683.50 266.43,684.93 265.51,686.38 264.58,687.83 263.66,689.29 262.74,690.75 261.82,692.23 260.90,693.71 259.98,695.20 259.06,696.70 258.14,698.21 257.23,699.72 256.31,701.25 255.40,702.78 254.49,704.32 253.57,705.87 252.66,707.42 251.75,708.99 250.84,710.56 249.94,712.15 249.03,713.74 248.12,715.34 247.22,716.94 246.32,718.56 245.41,720.18 244.51,721.82 243.61,723.46 242.71,725.11 241.81,726.77 240.92,728.44 240.02,730.11 239.12,731.80 238.23,733.49 237.34,735.19 236.44,736.90 235.55,738.62 234.66,740.35 233.77,742.08 232.89,743.82 232.00,745.58 231.11,747.34 230.23,749.10 229.34,750.88 228.46,752.66 227.58,754.46 226.70,756.26 225.82,758.07 224.94,759.88 224.06,761.71 223.18,763.54 222.31,765.38 221.43,767.22 220.56,769.08 219.68,770.94 218.81,772.81 217.94,774.68 217.07,776.57 216.20,778.46 215.33,780.36 214.46,782.26 213.59,784.17 212.73,786.09 211.86,788.01 211.00,789.94 210.13,791.88 209.27,793.82 208.41,795.77 207.54,797.72 206.68,799.68 205.82,801.65 204.96,803.62 204.10,805.59 203.24,807.57 202.38,809.56 201.53,811.55 200.67,813.54 199.81,815.54 198.96,817.54 198.10,819.54 197.24,821.55 196.39,823.57 195.53,825.58 194.68,827.60 193.83,829.62 192.97,831.65 192.12,833.67 191.27,835.70 190.41,837.73 189.56,839.76 188.71,841.79 187.86,843.83 187.00,845.86 187.00,845.86 185.87,848.13 184.67,849.66 183.42,850.47 182.11,850.57 180.75,849.99 179.34,848.74 177.89,846.84 176.38,844.30 174.84,841.14 173.25,837.38 171.62,833.03 169.96,828.12 168.26,822.65 166.52,816.65 164.76,810.13 162.96,803.12 161.14,795.61 159.29,787.65 157.42,779.23 155.53,770.38 153.62,761.12 151.69,751.45 149.75,741.41 147.80,731.00 145.83,720.24 143.86,709.16 141.88,697.75 139.90,686.06 137.91,674.08 135.93,661.84 133.94,649.35 131.96,636.63 129.99,623.71 128.02,610.58 126.07,597.28 124.13,583.82 122.20,570.22 120.29,556.48 118.39,542.64 116.52,528.70 114.67,514.69 112.85,500.62 111.05,486.50 109.28,472.36 107.55,458.21 105.84,444.07 104.17,429.96 102.54,415.88 100.95,401.87 99.40,387.94 97.89,374.09 96.43,360.36 95.02,346.75 93.65,333.29 92.34,319.99 91.09,306.87 89.89,293.94 88.74,281.22 87.66,268.74 86.64,256.50 85.68,244.52 84.79,232.82 83.97,221.42 83.22,210.33 82.55,199.57 81.94,189.16 81.42,179.12 80.97,169.46 80.61,160.19 80.33,151.34 80.13,142.93 80.02,134.96 80.00,127.46 80.07,120.44 80.24,113.92 80.50,107.92 80.86,102.46 81.32,97.54 81.88,93.20 82.54,89.44 83.31,86.28 84.19,83.74 85.18,81.83 86.28,80.58 87.50,80.00 88.83,80.11 90.28,80.91 91.85,82.44 93.55,84.71 Z M 94.69,94.04 96.15,96.95 97.61,99.83 99.06,102.70 100.51,105.55 101.96,108.38 103.41,111.19 104.86,113.99 106.30,116.77 107.74,119.53 109.18,122.27 110.62,125.00 112.05,127.71 113.48,130.40 114.91,133.07 116.34,135.73 117.77,138.36 119.19,140.98 120.61,143.58 122.03,146.17 123.45,148.74 124.86,151.28 126.28,153.82 127.69,156.33 129.10,158.83 130.50,161.31 131.91,163.77 133.31,166.21 134.71,168.64 136.11,171.05 137.50,173.45 138.90,175.82 140.29,178.18 141.68,180.53 143.07,182.85 144.45,185.16 145.84,187.45 147.22,189.73 148.60,191.99 149.98,194.23 151.35,196.46 152.72,198.67 154.10,200.86 155.47,203.04 156.83,205.20 158.20,207.35 159.56,209.48 160.92,211.59 162.28,213.69 163.64,215.77 165.00,217.84 166.35,219.89 167.70,221.93 169.05,223.95 170.40,225.95 171.75,227.94 173.09,229.92 174.44,231.88 175.78,233.83 177.12,235.76 178.45,237.67 179.79,239.58 181.12,241.46 182.46,243.34 183.79,245.20 185.11,247.04 186.44,248.87 187.77,250.69 189.09,252.50 190.41,254.29 191.73,256.06 193.05,257.83 194.37,259.58 195.68,261.32 197.00,263.04 198.31,264.75 199.62,266.45 200.93,268.14 202.24,269.81 203.54,271.47 204.85,273.12 206.15,274.76 207.45,276.38 208.75,278.00 210.05,279.60 211.35,281.19 212.64,282.77 213.94,284.33 215.23,285.89 216.52,287.43 217.81,288.96 219.10,290.49 220.39,292.00 221.68,293.50 222.96,294.99 224.25,296.47 225.53,297.94 226.81,299.40 228.09,300.85 229.37,302.29 230.65,303.72 231.92,305.14 233.20,306.55 234.47,307.95 235.75,309.34 237.02,310.72 238.29,312.09 239.56,313.46 240.83,314.82 242.09,316.16 243.36,317.50 244.63,318.83 245.89,320.15 247.15,321.47 248.42,322.77 249.68,324.07 250.94,325.36 252.20,326.64 253.46,327.91 254.71,329.18 255.97,330.44 257.23,331.69 258.48,332.94 259.73,334.17 260.99,335.40 262.24,336.63 263.49,337.84 264.74,339.05 265.99,340.26 267.24,341.46 268.49,342.65 269.74,343.83 270.98,345.01 272.23,346.18 273.48,347.35 274.72,348.51 275.96,349.67 277.21,350.82 278.45,351.96 279.69,353.10 280.93,354.23 282.17,355.36 283.41,356.48 284.65,357.60 285.89,358.71 287.13,359.82 288.37,360.92 289.60,362.02 290.84,363.11 292.08,364.20 293.31,365.29 294.55,366.37 295.78,367.44 297.01,368.51 298.25,369.58 299.48,370.64 300.71,371.70 301.94,372.75 303.17,373.80 304.40,374.85 305.63,375.89 306.86,376.93 308.09,377.96 309.32,378.99 310.55,380.02 311.78,381.04 313.00,382.06 314.23,383.07 315.46,384.09 316.68,385.09 317.91,386.10 319.13,387.10 320.36,388.10 321.58,389.09 322.81,390.08 324.03,391.07 325.25,392.05 326.47,393.03 327.70,394.01 328.92,394.98 330.14,395.95 331.36,396.92 332.58,397.88 333.80,398.84 335.02,399.80 336.24,400.75 337.46,401.70 338.68,402.64 339.89,403.59 341.11,404.52 342.33,405.46 343.54,406.39 344.76,407.32 345.98,408.24 347.19,409.16 348.41,410.08 349.62,410.99 350.83,411.90 352.05,412.80 353.26,413.71 354.47,414.60 355.68,415.50 356.89,416.38 358.10,417.27 359.31,418.15 360.52,419.02 361.73,419.89 362.94,420.76 364.15,421.62 365.36,422.48 366.56,423.33 367.77,424.18 368.98,425.02 370.18,425.85 371.38,426.69 372.59,427.51 373.79,428.33 374.99,429.15 376.19,429.95 377.39,430.76 378.59,431.55 379.79,432.34 380.99,433.13 382.19,433.91 383.39,434.68 384.58,435.44 385.78,436.20 386.97,436.95 388.16,437.69 389.36,438.42 390.55,439.15 391.74,439.87 392.93,440.58 394.12,441.28 395.30,441.98 396.49,442.66 397.67,443.34 398.86,444.00 400.04,444.66 401.22,445.31 402.40,445.95 403.58,446.58 404.76,447.19 405.94,447.80 407.11,448.40 408.29,448.98 409.46,449.56 410.63,450.12 411.80,450.67 412.97,451.21 414.14,451.73 415.30,452.25 416.46,452.75 417.63,453.23 418.79,453.71 419.94,454.17 421.10,454.61 422.26,455.04 423.41,455.46 424.56,455.86 425.71,456.24 426.86,456.61 428.00,456.96 429.15,457.30 430.29,457.62 431.43,457.92 432.56,458.21 433.70,458.47 434.83,458.72 435.96,458.95 437.09,459.16 438.21,459.35 439.34,459.52 440.46,459.67 441.58,459.80 442.69,459.91 443.80,459.99 444.91,460.06 446.02,460.10 447.13,460.12 448.23,460.11 449.33,460.08 450.42,460.03 451.51,459.95 452.60,459.85 453.69,459.72 454.77,459.56 455.85,459.38 456.93,459.17 458.00,458.93 459.07,458.67 460.14,458.37 461.20,458.05 462.26,457.70 463.31,457.31 464.36,456.90 465.41,456.45 466.45,455.97 467.49,455.46 468.53,454.91 468.53,454.91 468.82,454.78 469.10,454.68 469.38,454.59 469.66,454.54 469.93,454.50 470.20,454.49 470.46,454.50 470.72,454.53 470.98,454.58 471.23,454.65 471.48,454.75 471.72,454.86 471.96,454.99 472.19,455.13 472.42,455.30 472.64,455.48 472.86,455.68 473.07,455.89 473.28,456.12 473.48,456.36 473.68,456.62 473.87,456.89 474.06,457.17 474.24,457.47 474.41,457.78 474.59,458.10 474.75,458.42 474.91,458.76 475.06,459.11 475.21,459.47 475.35,459.83 475.49,460.21 475.62,460.59 475.74,460.97 475.86,461.37 475.97,461.76 476.07,462.17 476.17,462.58 476.27,462.99 476.35,463.40 476.43,463.82 476.50,464.24 476.57,464.66 476.63,465.08 476.68,465.50 476.72,465.92 476.76,466.34 476.79,466.76 476.81,467.17 476.83,467.59 476.84,468.00 476.84,468.41 476.83,468.81 476.82,469.21 476.80,469.60 476.77,469.99 476.74,470.37 476.69,470.74 476.64,471.10 476.58,471.46 476.51,471.81 476.44,472.15 476.35,472.48 476.26,472.80 476.16,473.10 476.05,473.40 475.93,473.68 475.81,473.95 475.67,474.21 475.53,474.45 475.38,474.68 475.22,474.90 475.05,475.09 474.87,475.27 474.68,475.44 474.48,475.59 474.28,475.72 474.06,475.83 473.84,475.92 473.61,475.99 473.36,476.04 473.11,476.07 472.85,476.08 472.58,476.07 472.30,476.04 472.01,475.98 471.71,475.90 471.40,475.79 471.08,475.66 471.08,475.66 469.91,475.12 468.74,474.60 467.58,474.13 466.42,473.68 465.27,473.26 464.12,472.88 462.98,472.52 461.83,472.20 460.70,471.91 459.56,471.64 458.43,471.40 457.30,471.19 456.18,471.01 455.06,470.86 453.94,470.73 452.82,470.62 451.71,470.54 450.60,470.49 449.50,470.46 448.39,470.46 447.30,470.48 446.20,470.52 445.10,470.58 444.01,470.67 442.92,470.77 441.84,470.90 440.75,471.05 439.67,471.22 438.59,471.41 437.52,471.62 436.44,471.85 435.37,472.10 434.30,472.37 433.23,472.65 432.17,472.95 431.11,473.27 430.05,473.61 428.99,473.96 427.93,474.33 426.88,474.72 425.82,475.12 424.77,475.53 423.72,475.96 422.68,476.41 421.63,476.87 420.59,477.34 419.54,477.83 418.50,478.33 417.46,478.84 416.43,479.37 415.39,479.90 414.36,480.46 413.32,481.02 412.29,481.59 411.26,482.18 410.23,482.77 409.20,483.38 408.18,484.00 407.15,484.63 406.13,485.26 405.11,485.91 404.09,486.57 403.07,487.24 402.05,487.91 401.03,488.60 400.01,489.29 399.00,489.99 397.98,490.71 396.97,491.42 395.95,492.15 394.94,492.89 393.93,493.63 392.92,494.38 391.91,495.13 390.90,495.90 389.90,496.67 388.89,497.45 387.88,498.23 386.88,499.02 385.87,499.82 384.87,500.62 383.87,501.43 382.87,502.24 381.86,503.06 380.86,503.89 379.86,504.72 378.86,505.56 377.87,506.40 376.87,507.24 375.87,508.10 374.87,508.95 373.88,509.81 372.88,510.68 371.89,511.55 370.89,512.43 369.90,513.31 368.90,514.19 367.91,515.08 366.92,515.97 365.93,516.87 364.93,517.77 363.94,518.67 362.95,519.58 361.96,520.49 360.97,521.41 359.98,522.33 359.00,523.26 358.01,524.18 357.02,525.11 356.03,526.05 355.05,526.99 354.06,527.93 353.07,528.88 352.09,529.82 351.10,530.78 350.12,531.73 349.13,532.69 348.15,533.66 347.17,534.62 346.18,535.59 345.20,536.56 344.22,537.54 343.24,538.52 342.25,539.51 341.27,540.49 340.29,541.48 339.31,542.48 338.33,543.47 337.35,544.48 336.38,545.48 335.40,546.49 334.42,547.50 333.44,548.51 332.47,549.53 331.49,550.56 330.51,551.58 329.54,552.61 328.56,553.65 327.59,554.68 326.61,555.73 325.64,556.77 324.67,557.82 323.69,558.88 322.72,559.93 321.75,561.00 320.78,562.06 319.81,563.13 318.84,564.21 317.87,565.29 316.90,566.37 315.93,567.46 314.96,568.55 314.00,569.65 313.03,570.75 312.06,571.86 311.10,572.97 310.13,574.09 309.17,575.21 308.20,576.34 307.24,577.48 306.28,578.61 305.32,579.76 304.36,580.91 303.40,582.06 302.44,583.22 301.48,584.39 300.52,585.56 299.56,586.74 298.61,587.93 297.65,589.12 296.69,590.32 295.74,591.52 294.79,592.73 293.83,593.95 292.88,595.17 291.93,596.40 290.98,597.64 290.03,598.88 289.08,600.13 288.14,601.39 287.19,602.66 286.24,603.93 285.30,605.22 284.36,606.51 283.41,607.80 282.47,609.11 281.53,610.42 280.59,611.74 279.65,613.07 278.71,614.41 277.78,615.76 276.84,617.11 275.91,618.48 274.97,619.85 274.04,621.23 273.11,622.63 272.18,624.03 271.25,625.44 270.32,626.86 269.40,628.29 268.47,629.73 267.55,631.18 266.62,632.64 265.70,634.10 264.78,635.58 263.86,637.07 262.95,638.58 262.03,640.09 261.11,641.61 260.20,643.14 259.29,644.69 258.38,646.24 257.47,647.81 256.56,649.39 255.65,650.98 254.75,652.58 253.84,654.19 252.94,655.82 252.04,657.45 251.14,659.10 250.24,660.76 249.34,662.44 248.45,664.12 247.55,665.82 246.66,667.53 245.77,669.26 244.88,670.99 244.00,672.75 243.11,674.51 242.23,676.29 241.34,678.08 240.46,679.88 239.59,681.70 238.71,683.53 237.83,685.38 236.96,687.24 236.09,689.11 235.22,691.00 234.35,692.90 233.48,694.82 232.62,696.75 231.75,698.69 230.89,700.65 230.03,702.63 229.17,704.62 228.32,706.63 227.46,708.65 226.61,710.68 225.76,712.73 224.91,714.80 224.07,716.88 223.22,718.98 222.38,721.10 221.54,723.23 220.70,725.37 219.86,727.53 219.03,729.71 218.20,731.90 217.37,734.11 216.54,736.34 215.71,738.58 214.89,740.84 214.06,743.12 213.24,745.41 212.42,747.72 211.61,750.05 210.79,752.39 209.98,754.75 209.17,757.13 208.36,759.52 207.56,761.93 206.75,764.36 205.95,766.80 205.15,769.27 204.35,771.75 203.56,774.24 202.76,776.76 201.97,779.29 201.18,781.84 200.40,784.41 199.61,786.99 198.83,789.59 198.05,792.21 197.27,794.85 196.50,797.50 195.72,800.18 194.95,802.87 194.18,805.57 193.41,808.30 192.65,811.04 191.88,813.80 191.12,816.58 190.36,819.38 189.61,822.19 188.85,825.03 188.10,827.88 187.35,830.74 186.60,833.63 185.86,836.53 185.86,836.53 185.22,838.49 184.53,839.74 183.76,840.31 182.93,840.21 182.05,839.45 181.10,838.06 180.10,836.05 179.04,833.43 177.94,830.22 176.78,826.43 175.57,822.10 174.31,817.22 173.02,811.81 171.67,805.90 170.29,799.49 168.87,792.61 167.41,785.27 165.92,777.48 164.40,769.27 162.84,760.64 161.26,751.62 159.65,742.22 158.01,732.46 156.35,722.35 154.67,711.91 152.98,701.15 151.26,690.10 149.53,678.76 147.79,667.16 146.04,655.31 144.27,643.22 142.50,630.91 140.73,618.40 138.95,605.71 137.18,592.85 135.40,579.83 133.63,566.68 131.86,553.41 130.09,540.03 128.34,526.56 126.60,513.02 124.87,499.42 123.16,485.78 121.46,472.12 119.78,458.45 118.12,444.79 116.49,431.15 114.88,417.56 113.30,404.02 111.74,390.55 110.22,377.17 108.73,363.89 107.27,350.74 105.85,337.72 104.47,324.86 103.13,312.17 101.83,299.66 100.58,287.36 99.37,275.27 98.22,263.41 97.11,251.81 96.05,240.47 95.05,229.42 94.11,218.66 93.23,208.22 92.40,198.11 91.64,188.35 90.94,178.95 90.31,169.93 89.75,161.30 89.26,153.09 88.84,145.30 88.49,137.96 88.22,131.08 88.03,124.68 87.92,118.76 87.89,113.36 87.95,108.48 88.09,104.14 88.32,100.36 88.64,97.15 89.05,94.53 89.56,92.51 90.16,91.12 90.87,90.36 91.67,90.26 92.57,90.83 93.58,92.09 94.69,94.04 Z" fill="url(#st)" fill-rule="evenodd" stroke="#ff9e6b" stroke-width="1.6"/>
<circle cx="95.28" cy="89.23" r="0.75" fill="#6ee0a0"/>
<circle cx="186.43" cy="841.20" r="2.00" fill="#e0b86e"/>
<circle cx="186.43" cy="841.20" r="0.60" fill="#13110d"/>
<circle cx="104.63" cy="105.68" r="0.75" fill="#6ee0a0"/>
<circle cx="191.77" cy="824.76" r="2.00" fill="#e0b86e"/>
<circle cx="191.77" cy="824.76" r="0.60" fill="#13110d"/>
<circle cx="113.85" cy="121.50" r="0.75" fill="#6ee0a0"/>
<circle cx="197.13" cy="808.94" r="2.00" fill="#e0b86e"/>
<circle cx="197.13" cy="808.94" r="0.60" fill="#13110d"/>
<circle cx="122.91" cy="136.73" r="0.75" fill="#6ee0a0"/>
<circle cx="202.50" cy="793.71" r="2.00" fill="#e0b86e"/>
<circle cx="202.50" cy="793.71" r="0.60" fill="#13110d"/>
<circle cx="131.87" cy="151.39" r="0.75" fill="#6ee0a0"/>
<circle cx="207.87" cy="779.06" r="2.00" fill="#e0b86e"/>
<circle cx="207.87" cy="779.06" r="0.60" fill="#13110d"/>
<circle cx="140.77" cy="165.50" r="0.75" fill="#6ee0a0"/>
<circle cx="213.31" cy="764.94" r="2.00" fill="#e0b86e"/>
<circle cx="213.31" cy="764.94" r="0.60" fill="#13110d"/>
<circle cx="149.50" cy="179.10" r="0.75" fill="#6ee0a0"/>
<circle cx="218.75" cy="751.36" r="2.00" fill="#e0b86e"/>
<circle cx="218.75" cy="751.36" r="0.60" fill="#13110d"/>
<circle cx="158.16" cy="192.18" r="0.75" fill="#6ee0a0"/>
<circle cx="224.20" cy="738.27" r="2.00" fill="#e0b86e"/>
<circle cx="224.20" cy="738.27" r="0.60" fill="#13110d"/>
<circle cx="166.72" cy="204.79" r="0.75" fill="#6ee0a0"/>
<circle cx="229.69" cy="725.66" r="2.00" fill="#e0b86e"/>
<circle cx="229.69" cy="725.66" r="0.60" fill="#13110d"/>
<circle cx="176.08" cy="216.88" r="0.75" fill="#6ee0a0"/>
<circle cx="235.64" cy="713.52" r="2.00" fill="#e0b86e"/>
<circle cx="235.64" cy="713.52" r="0.66" fill="#13110d"/>
<circle cx="185.32" cy="228.59" r="0.75" fill="#6ee0a0"/>
<circle cx="242.05" cy="701.82" r="2.00" fill="#e0b86e"/>
<circle cx="242.05" cy="701.82" r="0.62" fill="#13110d"/>
<circle cx="194.44" cy="239.87" r="0.75" fill="#6ee0a0"/>
<circle cx="248.43" cy="690.54" r="2.00" fill="#e0b86e"/>
<circle cx="248.43" cy="690.54" r="0.60" fill="#13110d"/>
<circle cx="203.42" cy="250.75" r="0.75" fill="#6ee0a0"/>
<circle cx="254.78" cy="679.67" r="2.00" fill="#e0b86e"/>
<circle cx="254.78" cy="679.67" r="0.60" fill="#13110d"/>
<circle cx="212.29" cy="261.23" r="0.75" fill="#6ee0a0"/>
<circle cx="261.11" cy="669.19" r="2.00" fill="#e0b86e"/>
<circle cx="261.11" cy="669.19" r="0.60" fill="#13110d"/>
<circle cx="221.12" cy="271.34" r="0.75" fill="#6ee0a0"/>
<circle cx="267.45" cy="659.08" r="2.00" fill="#e0b86e"/>
<circle cx="267.45" cy="659.08" r="0.60" fill="#13110d"/>
<circle cx="229.84" cy="281.09" r="0.75" fill="#6ee0a0"/>
<circle cx="273.81" cy="649.33" r="2.00" fill="#e0b86e"/>
<circle cx="273.81" cy="649.33" r="0.60" fill="#13110d"/>
<circle cx="238.39" cy="290.50" r="0.75" fill="#6ee0a0"/>
<circle cx="280.11" cy="639.93" r="2.00" fill="#e0b86e"/>
<circle cx="280.11" cy="639.93" r="0.60" fill="#13110d"/>
<circle cx="246.89" cy="299.58" r="0.75" fill="#6ee0a0"/>
<circle cx="286.39" cy="630.85" r="2.00" fill="#e0b86e"/>
<circle cx="286.39" cy="630.85" r="0.60" fill="#13110d"/>
<circle cx="255.30" cy="308.34" r="0.75" fill="#6ee0a0"/>
<circle cx="292.68" cy="622.10" r="2.00" fill="#e0b86e"/>
<circle cx="292.68" cy="622.10" r="0.60" fill="#13110d"/>
<circle cx="263.67" cy="316.79" r="0.75" fill="#6ee0a0"/>
<circle cx="298.97" cy="613.64" r="2.00" fill="#e0b86e"/>
<circle cx="298.97" cy="613.64" r="0.60" fill="#13110d"/>
<circle cx="271.86" cy="324.96" r="0.75" fill="#6ee0a0"/>
<circle cx="305.22" cy="605.48" r="2.00" fill="#e0b86e"/>
<circle cx="305.22" cy="605.48" r="0.60" fill="#13110d"/>
<circle cx="280.01" cy="332.84" r="0.75" fill="#6ee0a0"/>
<circle cx="311.45" cy="597.60" r="2.00" fill="#e0b86e"/>
<circle cx="311.45" cy="597.60" r="0.60" fill="#13110d"/>
<circle cx="288.14" cy="340.46" r="0.75" fill="#6ee0a0"/>
<circle cx="317.70" cy="589.99" r="2.00" fill="#e0b86e"/>
<circle cx="317.70" cy="589.99" r="0.60" fill="#13110d"/>
<circle cx="296.16" cy="347.81" r="0.75" fill="#6ee0a0"/>
<circle cx="323.95" cy="582.63" r="2.00" fill="#e0b86e"/>
<circle cx="323.95" cy="582.63" r="0.60" fill="#13110d"/>
<circle cx="304.16" cy="354.92" r="0.75" fill="#6ee0a0"/>
<circle cx="330.21" cy="575.53" r="2.00" fill="#e0b86e"/>
<circle cx="330.21" cy="575.53" r="0.60" fill="#13110d"/>
<circle cx="312.13" cy="361.79" r="0.75" fill="#6ee0a0"/>
<circle cx="336.49" cy="568.66" r="2.00" fill="#e0b86e"/>
<circle cx="336.49" cy="568.66" r="0.60" fill="#13110d"/>
<circle cx="320.01" cy="368.44" r="0.75" fill="#6ee0a0"/>
<circle cx="342.76" cy="562.02" r="2.00" fill="#e0b86e"/>
<circle cx="342.76" cy="562.02" r="0.60" fill="#13110d"/>
<circle cx="327.86" cy="374.86" r="0.75" fill="#6ee0a0"/>
<circle cx="349.04" cy="555.59" r="2.00" fill="#e0b86e"/>
<circle cx="349.04" cy="555.59" r="0.60" fill="#13110d"/>
<circle cx="335.68" cy="381.07" r="0.75" fill="#6ee0a0"/>
<circle cx="355.33" cy="549.38" r="2.00" fill="#e0b86e"/>
<circle cx="355.33" cy="549.38" r="0.60" fill="#13110d"/>
<circle cx="343.43" cy="387.08" r="0.75" fill="#6ee0a0"/>
<circle cx="361.63" cy="543.37" r="2.00" fill="#e0b86e"/>
<circle cx="361.63" cy="543.37" r="0.60" fill="#13110d"/>
<circle cx="351.15" cy="392.90" r="0.75" fill="#6ee0a0"/>
<circle cx="367.93" cy="537.55" r="2.00" fill="#e0b86e"/>
<circle cx="367.93" cy="537.55" r="0.60" fill="#13110d"/>
<circle cx="358.85" cy="398.53" r="0.75" fill="#6ee0a0"/>
<circle cx="374.24" cy="531.92" r="2.00" fill="#e0b86e"/>
<circle cx="374.24" cy="531.92" r="0.60" fill="#13110d"/>
<circle cx="366.48" cy="403.99" r="0.75" fill="#6ee0a0"/>
<circle cx="380.56" cy="526.47" r="2.00" fill="#e0b86e"/>
<circle cx="380.56" cy="526.47" r="0.60" fill="#13110d"/>
<circle cx="374.09" cy="409.26" r="0.75" fill="#6ee0a0"/>
<circle cx="386.87" cy="521.19" r="2.00" fill="#e0b86e"/>
<circle cx="386.87" cy="521.19" r="0.60" fill="#13110d"/>
<circle cx="381.67" cy="414.38" r="0.75" fill="#6ee0a0"/>
<circle cx="393.20" cy="516.08" r="2.00" fill="#e0b86e"/>
<circle cx="393.20" cy="516.08" r="0.60" fill="#13110d"/>
<circle cx="389.24" cy="419.33" r="0.75" fill="#6ee0a0"/>
<circle cx="399.55" cy="511.13" r="2.00" fill="#e0b86e"/>
<circle cx="399.55" cy="511.13" r="0.60" fill="#13110d"/>
<circle cx="396.76" cy="424.13" r="0.75" fill="#6ee0a0"/>
<circle cx="405.90" cy="506.33" r="2.00" fill="#e0b86e"/>
<circle cx="405.90" cy="506.33" r="0.60" fill="#13110d"/>
<circle cx="404.26" cy="428.79" r="0.75" fill="#6ee0a0"/>
<circle cx="412.27" cy="501.67" r="2.00" fill="#e0b86e"/>
<circle cx="412.27" cy="501.67" r="0.60" fill="#13110d"/>
<circle cx="411.75" cy="433.30" r="0.75" fill="#6ee0a0"/>
<circle cx="418.65" cy="497.16" r="2.00" fill="#e0b86e"/>
<circle cx="418.65" cy="497.16" r="0.60" fill="#13110d"/>
<circle cx="419.20" cy="437.67" r="0.75" fill="#6ee0a0"/>
<circle cx="425.03" cy="492.79" r="2.00" fill="#e0b86e"/>
<circle cx="425.03" cy="492.79" r="0.60" fill="#13110d"/>
<circle cx="426.62" cy="441.91" r="0.75" fill="#6ee0a0"/>
<circle cx="431.41" cy="488.55" r="2.00" fill="#e0b86e"/>
<circle cx="431.41" cy="488.55" r="0.60" fill="#13110d"/>
<circle cx="434.01" cy="446.03" r="0.75" fill="#6ee0a0"/>
<circle cx="437.80" cy="484.43" r="2.00" fill="#e0b86e"/>
<circle cx="437.80" cy="484.43" r="0.60" fill="#13110d"/>
<circle cx="441.37" cy="450.02" r="0.75" fill="#6ee0a0"/>
<circle cx="444.19" cy="480.44" r="2.00" fill="#e0b86e"/>
<circle cx="444.19" cy="480.44" r="0.60" fill="#13110d"/>
<circle cx="448.71" cy="453.90" r="0.75" fill="#6ee0a0"/>
<circle cx="450.58" cy="476.56" r="2.00" fill="#e0b86e"/>
<circle cx="450.58" cy="476.56" r="0.60" fill="#13110d"/>
<circle cx="456.04" cy="457.66" r="0.75" fill="#6ee0a0"/>
<circle cx="456.99" cy="472.81" r="2.00" fill="#e0b86e"/>
<circle cx="456.99" cy="472.81" r="0.60" fill="#13110d"/>
<circle cx="463.36" cy="461.31" r="0.75" fill="#6ee0a0"/>
<circle cx="463.41" cy="469.16" r="2.00" fill="#e0b86e"/>
<circle cx="463.41" cy="469.16" r="0.60" fill="#13110d"/>
<circle cx="468.86" cy="450.14" r="0.75" fill="#6ee0a0"/>
<circle cx="471.65" cy="480.33" r="2.00" fill="#e0b86e"/>
<circle cx="471.65" cy="480.33" r="0.60" fill="#13110d"/>
</svg>