<svg xmlns="http://www.w3.org/2000/svg" width="558" height="1188" viewBox="0 0 558 1188">
<defs><linearGradient id="st" x1="0" y1="0" x2="0" y2="1"><stop offset="0" stop-color="#c8ccd3"/><stop offset=".5" stop-color="#9094a0"/><stop offset="1" stop-color="#54585f"/></linearGradient></defs>
<rect width="558" height="1188" fill="#13110d"/>
<g transform="translate(0,0)"><text x="80.0" y="28" fill="#cdd2da" font-family="sans-serif" font-size="20">clements47 - PROFILE (z-x): wooden eyelets unchanged; lower CF ladder relocated to the anchor curve</text><line x1="183.75" y1="836.48" x2="185.53" y2="851.05" stroke="#ff5a4d" stroke-width="1.1"/><line x1="190.34" y1="830.23" x2="192.13" y2="844.79" stroke="#ff5a4d" stroke-width="1.1"/><line x1="196.87" y1="823.95" x2="198.66" y2="838.51" stroke="#ff5a4d" stroke-width="1.1"/><line x1="203.34" y1="817.70" x2="205.13" y2="832.26" stroke="#ff5a4d" stroke-width="1.1"/><line x1="209.59" y1="810.18" x2="211.38" y2="824.74" stroke="#ff5a4d" stroke-width="1.1"/><line x1="215.83" y1="802.66" x2="217.62" y2="817.22" stroke="#ff5a4d" stroke-width="1.1"/><line x1="222.02" y1="795.14" x2="223.81" y2="809.71" stroke="#ff5a4d" stroke-width="1.1"/><line x1="228.16" y1="787.62" x2="229.94" y2="802.19" stroke="#ff5a4d" stroke-width="1.1"/><line x1="234.11" y1="778.84" x2="235.90" y2="793.40" stroke="#ff5a4d" stroke-width="1.1"/><line x1="240.33" y1="768.82" x2="242.11" y2="783.38" stroke="#ff5a4d" stroke-width="1.1"/><line x1="247.55" y1="763.80" x2="249.34" y2="778.37" stroke="#ff5a4d" stroke-width="1.1"/><line x1="254.24" y1="755.04" x2="256.03" y2="769.61" stroke="#ff5a4d" stroke-width="1.1"/><line x1="259.62" y1="736.24" x2="261.41" y2="750.80" stroke="#ff5a4d" stroke-width="1.1"/><line x1="265.55" y1="722.46" x2="267.33" y2="737.03" stroke="#ff5a4d" stroke-width="1.1"/><line x1="271.13" y1="706.19" x2="272.92" y2="720.75" stroke="#ff5a4d" stroke-width="1.1"/><line x1="276.68" y1="689.88" x2="278.47" y2="704.45" stroke="#ff5a4d" stroke-width="1.1"/><line x1="282.29" y1="674.85" x2="284.08" y2="689.41" stroke="#ff5a4d" stroke-width="1.1"/><line x1="287.53" y1="657.30" x2="289.32" y2="671.87" stroke="#ff5a4d" stroke-width="1.1"/><line x1="293.05" y1="642.27" x2="294.84" y2="656.83" stroke="#ff5a4d" stroke-width="1.1"/><line x1="298.38" y1="625.99" x2="300.17" y2="640.55" stroke="#ff5a4d" stroke-width="1.1"/><line x1="304.25" y1="614.70" x2="306.04" y2="629.26" stroke="#ff5a4d" stroke-width="1.1"/><line x1="309.90" y1="602.17" x2="311.69" y2="616.73" stroke="#ff5a4d" stroke-width="1.1"/><line x1="315.71" y1="590.90" x2="317.49" y2="605.46" stroke="#ff5a4d" stroke-width="1.1"/><line x1="321.63" y1="580.88" x2="323.42" y2="595.44" stroke="#ff5a4d" stroke-width="1.1"/><line x1="327.68" y1="572.09" x2="329.47" y2="586.66" stroke="#ff5a4d" stroke-width="1.1"/><line x1="333.73" y1="563.33" x2="335.52" y2="577.90" stroke="#ff5a4d" stroke-width="1.1"/><line x1="339.90" y1="555.82" x2="341.68" y2="570.38" stroke="#ff5a4d" stroke-width="1.1"/><line x1="346.03" y1="548.30" x2="347.82" y2="562.86" stroke="#ff5a4d" stroke-width="1.1"/><line x1="352.32" y1="542.02" x2="354.11" y2="556.58" stroke="#ff5a4d" stroke-width="1.1"/><line x1="358.59" y1="535.77" x2="360.38" y2="550.33" stroke="#ff5a4d" stroke-width="1.1"/><line x1="364.83" y1="529.49" x2="366.62" y2="544.05" stroke="#ff5a4d" stroke-width="1.1"/><line x1="371.38" y1="525.74" x2="373.17" y2="540.30" stroke="#ff5a4d" stroke-width="1.1"/><line x1="377.59" y1="519.46" x2="379.38" y2="534.03" stroke="#ff5a4d" stroke-width="1.1"/><line x1="384.09" y1="515.72" x2="385.88" y2="530.28" stroke="#ff5a4d" stroke-width="1.1"/><line x1="390.59" y1="511.95" x2="392.37" y2="526.51" stroke="#ff5a4d" stroke-width="1.1"/><line x1="397.08" y1="508.20" x2="398.87" y2="522.76" stroke="#ff5a4d" stroke-width="1.1"/><line x1="403.57" y1="504.43" x2="405.35" y2="518.99" stroke="#ff5a4d" stroke-width="1.1"/><line x1="410.04" y1="500.68" x2="411.83" y2="515.24" stroke="#ff5a4d" stroke-width="1.1"/><line x1="416.51" y1="496.91" x2="418.30" y2="511.47" stroke="#ff5a4d" stroke-width="1.1"/><line x1="422.97" y1="493.16" x2="424.76" y2="507.72" stroke="#ff5a4d" stroke-width="1.1"/><line x1="429.57" y1="490.65" x2="431.36" y2="505.22" stroke="#ff5a4d" stroke-width="1.1"/><line x1="436.15" y1="488.15" x2="437.94" y2="502.71" stroke="#ff5a4d" stroke-width="1.1"/><line x1="442.72" y1="485.64" x2="444.51" y2="500.21" stroke="#ff5a4d" stroke-width="1.1"/><line x1="449.28" y1="483.14" x2="451.07" y2="497.70" stroke="#ff5a4d" stroke-width="1.1"/><line x1="455.84" y1="480.63" x2="457.63" y2="495.19" stroke="#ff5a4d" stroke-width="1.1"/><line x1="462.40" y1="478.12" x2="464.19" y2="492.69" stroke="#ff5a4d" stroke-width="1.1"/><line x1="468.96" y1="475.62" x2="470.75" y2="490.18" stroke="#ff5a4d" stroke-width="1.1"/><line x1="91.44" y1="84.68" x2="183.75" y2="836.48" stroke="#7d7762" stroke-width="3.35" stroke-linecap="round"/><line x1="99.57" y1="90.93" x2="190.34" y2="830.23" stroke="#7d7762" stroke-width="3.10" stroke-linecap="round"/><line x1="107.64" y1="97.21" x2="196.87" y2="823.95" stroke="#7d7762" stroke-width="2.90" stroke-linecap="round"/><line x1="115.64" y1="103.46" x2="203.34" y2="817.70" stroke="#7d7762" stroke-width="2.54" stroke-linecap="round"/><line x1="123.74" y1="110.98" x2="209.59" y2="810.18" stroke="#7d7762" stroke-width="2.44" stroke-linecap="round"/><line x1="131.83" y1="118.50" x2="215.83" y2="802.66" stroke="#7d7762" stroke-width="2.44" stroke-linecap="round"/><line x1="139.86" y1="126.02" x2="222.02" y2="795.14" stroke="#7d7762" stroke-width="2.03" stroke-linecap="round"/><line x1="147.84" y1="133.54" x2="228.16" y2="787.62" stroke="#7d7762" stroke-width="2.03" stroke-linecap="round"/><line x1="155.96" y1="142.32" x2="234.11" y2="778.84" stroke="#7d7762" stroke-width="1.83" stroke-linecap="round"/><line x1="164.63" y1="152.35" x2="240.33" y2="768.82" stroke="#7d7762" stroke-width="5.28" stroke-linecap="round"/><line x1="173.09" y1="157.36" x2="247.55" y2="763.80" stroke="#7d7762" stroke-width="4.98" stroke-linecap="round"/><line x1="181.93" y1="166.12" x2="254.24" y2="755.04" stroke="#7d7762" stroke-width="4.67" stroke-linecap="round"/><line x1="191.93" y1="184.93" x2="259.62" y2="736.24" stroke="#7d7762" stroke-width="4.37" stroke-linecap="round"/><line x1="201.23" y1="198.70" x2="265.55" y2="722.46" stroke="#7d7762" stroke-width="4.11" stroke-linecap="round"/><line x1="210.82" y1="214.98" x2="271.13" y2="706.19" stroke="#7d7762" stroke-width="4.11" stroke-linecap="round"/><line x1="220.37" y1="231.28" x2="276.68" y2="689.88" stroke="#7d7762" stroke-width="3.86" stroke-linecap="round"/><line x1="229.68" y1="246.31" x2="282.29" y2="674.85" stroke="#7d7762" stroke-width="3.35" stroke-linecap="round"/><line x1="239.22" y1="263.86" x2="287.53" y2="657.30" stroke="#7d7762" stroke-width="3.35" stroke-linecap="round"/><line x1="248.43" y1="278.90" x2="293.05" y2="642.27" stroke="#7d7762" stroke-width="3.10" stroke-linecap="round"/><line x1="257.76" y1="295.17" x2="298.38" y2="625.99" stroke="#7d7762" stroke-width="3.10" stroke-linecap="round"/><line x1="266.40" y1="306.46" x2="304.25" y2="614.70" stroke="#7d7762" stroke-width="2.54" stroke-linecap="round"/><line x1="275.13" y1="318.99" x2="309.90" y2="602.17" stroke="#7d7762" stroke-width="2.54" stroke-linecap="round"/><line x1="283.70" y1="330.26" x2="315.71" y2="590.90" stroke="#7d7762" stroke-width="2.54" stroke-linecap="round"/><line x1="292.09" y1="340.28" x2="321.63" y2="580.88" stroke="#7d7762" stroke-width="2.29" stroke-linecap="round"/><line x1="300.29" y1="349.07" x2="327.68" y2="572.09" stroke="#7d7762" stroke-width="2.29" stroke-linecap="round"/><line x1="308.49" y1="357.83" x2="333.73" y2="563.33" stroke="#7d7762" stroke-width="2.29" stroke-linecap="round"/><line x1="316.51" y1="365.35" x2="339.90" y2="555.82" stroke="#7d7762" stroke-width="2.03" stroke-linecap="round"/><line x1="324.49" y1="372.86" x2="346.03" y2="548.30" stroke="#7d7762" stroke-width="2.03" stroke-linecap="round"/><line x1="332.32" y1="379.14" x2="352.32" y2="542.02" stroke="#7d7762" stroke-width="2.03" stroke-linecap="round"/><line x1="340.13" y1="385.40" x2="358.59" y2="535.77" stroke="#7d7762" stroke-width="1.83" stroke-linecap="round"/><line x1="347.91" y1="391.67" x2="364.83" y2="529.49" stroke="#7d7762" stroke-width="1.83" stroke-linecap="round"/><line x1="355.38" y1="395.42" x2="371.38" y2="525.74" stroke="#7d7762" stroke-width="1.83" stroke-linecap="round"/><line x1="363.13" y1="401.70" x2="377.59" y2="519.46" stroke="#7d7762" stroke-width="1.63" stroke-linecap="round"/><line x1="370.55" y1="405.44" x2="384.09" y2="515.72" stroke="#7d7762" stroke-width="1.63" stroke-linecap="round"/><line x1="377.97" y1="409.22" x2="390.59" y2="511.95" stroke="#7d7762" stroke-width="1.63" stroke-linecap="round"/><line x1="385.39" y1="412.96" x2="397.08" y2="508.20" stroke="#7d7762" stroke-width="1.63" stroke-linecap="round"/><line x1="392.80" y1="416.74" x2="403.57" y2="504.43" stroke="#7d7762" stroke-width="1.52" stroke-linecap="round"/><line x1="400.19" y1="420.48" x2="410.04" y2="500.68" stroke="#7d7762" stroke-width="1.52" stroke-linecap="round"/><line x1="407.59" y1="424.25" x2="416.51" y2="496.91" stroke="#7d7762" stroke-width="1.52" stroke-linecap="round"/><line x1="414.97" y1="428.00" x2="422.97" y2="493.16" stroke="#7d7762" stroke-width="1.42" stroke-linecap="round"/><line x1="422.18" y1="430.51" x2="429.57" y2="490.65" stroke="#7d7762" stroke-width="1.42" stroke-linecap="round"/><line x1="429.38" y1="433.01" x2="436.15" y2="488.15" stroke="#7d7762" stroke-width="1.32" stroke-linecap="round"/><line x1="436.57" y1="435.52" x2="442.72" y2="485.64" stroke="#7d7762" stroke-width="1.27" stroke-linecap="round"/><line x1="443.74" y1="438.03" x2="449.28" y2="483.14" stroke="#7d7762" stroke-width="1.27" stroke-linecap="round"/><line x1="450.92" y1="440.53" x2="455.84" y2="480.63" stroke="#7d7762" stroke-width="1.27" stroke-linecap="round"/><line x1="458.10" y1="443.04" x2="462.40" y2="478.12" stroke="#7d7762" stroke-width="1.27" stroke-linecap="round"/><line x1="465.27" y1="445.54" x2="468.96" y2="475.62" stroke="#7d7762" stroke-width="1.27" stroke-linecap="round"/><path d="M 90.86,80.01 91.96,80.00 93.07,80.02 94.18,80.09 95.29,80.19 96.41,80.32 97.54,80.50 98.66,80.71 99.80,80.95 100.93,81.23 102.07,81.55 103.22,81.90 104.37,82.29 105.52,82.71 106.68,83.17 107.84,83.66 109.01,84.18 110.18,84.74 111.35,85.33 112.53,85.95 113.72,86.61 114.90,87.30 116.09,88.01 117.29,88.76 118.48,89.54 119.69,90.35 120.89,91.19 122.10,92.06 123.31,92.96 124.53,93.89 125.75,94.85 126.97,95.84 128.20,96.85 129.43,97.89 130.66,98.96 131.90,100.05 133.14,101.17 134.38,102.32 135.63,103.50 136.88,104.69 138.13,105.92 139.38,107.17 140.64,108.44 141.90,109.73 143.17,111.05 144.43,112.40 145.70,113.76 146.98,115.15 148.25,116.56 149.53,117.99 150.81,119.44 152.09,120.91 153.38,122.41 154.67,123.92 155.96,125.45 157.25,127.00 158.54,128.57 159.84,130.16 161.14,131.77 162.44,133.39 163.75,135.04 165.05,136.70 166.36,138.37 167.67,140.06 168.98,141.77 170.29,143.49 171.61,145.23 172.93,146.98 174.25,148.75 175.57,150.53 176.89,152.32 178.21,154.13 179.54,155.95 180.86,157.78 182.19,159.62 183.52,161.47 184.85,163.34 186.19,165.22 187.52,167.10 188.86,169.00 190.19,170.90 191.53,172.82 192.87,174.74 194.21,176.68 195.55,178.62 196.89,180.56 198.23,182.52 199.57,184.48 200.92,186.45 202.26,188.42 203.61,190.40 204.95,192.39 206.30,194.38 207.65,196.38 208.99,198.38 210.34,200.38 211.69,202.39 213.04,204.40 214.39,206.41 215.74,208.43 217.09,210.45 218.44,212.47 219.79,214.49 221.14,216.52 222.49,218.54 223.84,220.56 225.19,222.59 226.54,224.61 227.89,226.64 229.24,228.66 230.59,230.68 231.94,232.70 233.29,234.72 234.64,236.73 235.99,238.75 237.34,240.76 238.69,242.77 240.04,244.77 241.39,246.77 242.73,248.77 244.08,250.76 245.43,252.74 246.77,254.73 248.12,256.70 249.46,258.67 250.80,260.64 252.15,262.60 253.49,264.55 254.83,266.49 256.17,268.43 257.51,270.36 258.85,272.29 260.18,274.20 261.52,276.11 262.86,278.01 264.19,279.90 265.52,281.78 266.85,283.65 268.19,285.52 269.52,287.37 270.84,289.22 272.17,291.05 273.50,292.87 274.82,294.68 276.14,296.49 277.47,298.28 278.79,300.06 280.11,301.82 281.42,303.58 282.74,305.32 284.06,307.06 285.37,308.78 286.68,310.49 287.99,312.18 289.30,313.86 290.61,315.53 291.91,317.19 293.22,318.83 294.52,320.46 295.82,322.08 297.12,323.68 298.41,325.26 299.71,326.84 301.00,328.40 302.29,329.94 303.58,331.47 304.87,332.99 306.16,334.49 307.44,335.98 308.73,337.45 310.01,338.90 311.29,340.34 312.56,341.77 313.84,343.18 315.11,344.57 316.38,345.95 317.65,347.32 318.92,348.67 320.19,350.00 321.45,351.31 322.71,352.61 323.97,353.90 325.23,355.17 326.49,356.42 327.74,357.66 328.99,358.88 330.24,360.08 331.49,361.27 332.74,362.44 333.98,363.60 335.22,364.74 336.46,365.87 337.70,366.98 338.94,368.07 340.17,369.15 341.40,370.21 342.63,371.25 343.86,372.28 345.09,373.30 346.31,374.29 347.54,375.28 348.76,376.24 349.98,377.19 351.19,378.13 352.41,379.05 353.62,379.96 354.83,380.85 356.04,381.73 357.25,382.59 358.46,383.44 359.66,384.27 360.86,385.09 362.07,385.89 363.26,386.68 364.46,387.46 365.66,388.22 366.85,388.97 368.04,389.71 369.24,390.43 370.42,391.14 371.61,391.84 372.80,392.53 373.98,393.20 375.17,393.86 376.35,394.51 377.53,395.15 378.71,395.78 379.89,396.40 381.06,397.00 382.24,397.60 383.41,398.18 384.59,398.76 385.76,399.33 386.93,399.89 388.10,400.44 389.27,400.98 390.43,401.51 391.60,402.04 392.77,402.56 393.93,403.07 395.09,403.57 396.26,404.07 397.42,404.57 398.58,405.05 399.74,405.54 400.91,406.02 402.07,406.49 403.23,406.96 404.39,407.43 405.54,407.90 406.70,408.36 407.86,408.82 409.02,409.28 410.18,409.74 411.34,410.20 412.50,410.66 413.66,411.12 414.81,411.59 415.97,412.05 417.13,412.52 418.29,412.99 419.45,413.46 420.61,413.94 421.78,414.42 422.94,414.91 424.10,415.40 425.26,415.90 426.43,416.41 427.59,416.93 428.76,417.45 429.93,417.99 431.10,418.53 432.27,419.09 433.44,419.65 434.61,420.23 435.79,420.82 436.96,421.43 438.14,422.04 439.32,422.68 440.50,423.33 441.69,423.99 442.87,424.67 444.06,425.38 445.25,426.10 446.44,426.84 447.64,427.60 448.84,428.38 450.04,429.18 451.24,430.01 452.45,430.86 453.66,431.73 454.87,432.63 456.09,433.56 457.31,434.52 458.53,435.50 459.75,436.51 460.99,437.56 462.22,438.63 463.46,439.74 464.70,440.88 464.70,440.88 465.20,441.34 465.70,441.81 466.19,442.29 466.66,442.78 467.13,443.28 467.59,443.79 468.04,444.30 468.48,444.83 468.92,445.36 469.34,445.90 469.75,446.45 470.16,447.01 470.55,447.57 470.94,448.15 471.31,448.72 471.68,449.31 472.04,449.90 472.39,450.50 472.73,451.11 473.06,451.72 473.38,452.33 473.69,452.95 473.99,453.58 474.28,454.21 474.56,454.85 474.83,455.49 475.10,456.13 475.35,456.78 475.59,457.43 475.83,458.09 476.05,458.75 476.26,459.41 476.47,460.08 476.66,460.75 476.84,461.42 477.02,462.09 477.18,462.76 477.34,463.44 477.48,464.12 477.62,464.80 477.74,465.48 477.85,466.16 477.96,466.84 478.05,467.52 478.14,468.20 478.21,468.88 478.27,469.57 478.33,470.25 478.37,470.93 478.40,471.61 478.42,472.28 478.44,472.96 478.44,473.64 478.43,474.31 478.41,474.98 478.38,475.65 478.34,476.31 478.29,476.97 478.22,477.63 478.15,478.29 478.07,478.94 477.98,479.59 477.87,480.24 477.76,480.88 477.63,481.51 477.50,482.14 477.35,482.77 477.19,483.39 477.02,484.01 476.84,484.62 476.65,485.22 476.45,485.82 476.24,486.41 476.01,487.00 475.78,487.58 475.53,488.15 475.28,488.72 475.01,489.27 474.73,489.82 474.44,490.36 474.14,490.90 473.83,491.42 473.50,491.94 473.17,492.45 472.82,492.95 472.47,493.44 472.10,493.92 471.72,494.39 471.33,494.85 471.33,494.85 470.36,495.99 469.40,497.09 468.43,498.17 467.45,499.21 466.48,500.22 465.49,501.21 464.51,502.16 463.52,503.09 462.53,503.99 461.53,504.87 460.54,505.72 459.54,506.54 458.53,507.35 457.53,508.13 456.52,508.89 455.51,509.63 454.49,510.35 453.48,511.05 452.46,511.73 451.44,512.40 450.42,513.05 449.39,513.68 448.37,514.30 447.34,514.90 446.31,515.49 445.28,516.07 444.24,516.64 443.21,517.19 442.18,517.74 441.14,518.27 440.10,518.80 439.06,519.31 438.02,519.82 436.98,520.32 435.94,520.81 434.90,521.30 433.86,521.79 432.81,522.26 431.77,522.74 430.72,523.21 429.68,523.67 428.63,524.14 427.59,524.60 426.54,525.06 425.50,525.52 424.45,525.98 423.41,526.44 422.36,526.90 421.32,527.36 420.27,527.83 419.23,528.29 418.18,528.76 417.14,529.23 416.09,529.71 415.05,530.19 414.01,530.67 412.96,531.16 411.92,531.65 410.88,532.15 409.84,532.66 408.80,533.17 407.76,533.69 406.73,534.21 405.69,534.75 404.65,535.29 403.62,535.84 402.59,536.40 401.55,536.96 400.52,537.54 399.49,538.13 398.46,538.72 397.44,539.33 396.41,539.95 395.39,540.57 394.36,541.21 393.34,541.86 392.32,542.52 391.30,543.20 390.28,543.88 389.26,544.58 388.25,545.29 387.24,546.02 386.22,546.75 385.21,547.50 384.21,548.27 383.20,549.04 382.19,549.83 381.19,550.64 380.19,551.46 379.19,552.29 378.19,553.14 377.20,554.00 376.20,554.87 375.21,555.77 374.22,556.67 373.23,557.59 372.24,558.53 371.26,559.48 370.27,560.45 369.29,561.43 368.31,562.43 367.33,563.44 366.36,564.47 365.38,565.52 364.41,566.58 363.44,567.66 362.48,568.75 361.51,569.86 360.55,570.98 359.58,572.12 358.62,573.28 357.67,574.45 356.71,575.64 355.75,576.85 354.80,578.07 353.85,579.30 352.90,580.56 351.96,581.83 351.01,583.11 350.07,584.41 349.13,585.73 348.19,587.06 347.26,588.41 346.32,589.77 345.39,591.15 344.46,592.54 343.53,593.95 342.60,595.38 341.68,596.82 340.75,598.28 339.83,599.75 338.91,601.23 337.99,602.74 337.08,604.25 336.16,605.78 335.25,607.33 334.34,608.89 333.43,610.46 332.52,612.05 331.62,613.65 330.72,615.26 329.81,616.89 328.91,618.54 328.01,620.19 327.12,621.86 326.22,623.54 325.33,625.24 324.44,626.95 323.54,628.67 322.65,630.40 321.77,632.14 320.88,633.90 320.00,635.67 319.11,637.45 318.23,639.24 317.35,641.04 316.47,642.85 315.59,644.68 314.71,646.51 313.84,648.35 312.96,650.21 312.09,652.07 311.22,653.94 310.35,655.82 309.48,657.71 308.61,659.61 307.74,661.52 306.87,663.44 306.01,665.36 305.14,667.29 304.28,669.23 303.42,671.18 302.55,673.13 301.69,675.09 300.83,677.05 299.97,679.02 299.11,681.00 298.25,682.98 297.39,684.97 296.54,686.96 295.68,688.95 294.82,690.95 293.97,692.96 293.11,694.97 292.26,696.98 291.40,698.99 290.55,701.01 289.69,703.02 288.84,705.04 287.98,707.07 287.13,709.09 286.28,711.11 285.42,713.14 284.57,715.16 283.72,717.19 282.86,719.21 282.01,721.23 281.16,723.25 280.30,725.27 279.45,727.29 278.59,729.31 277.74,731.32 276.88,733.33 276.03,735.34 275.17,737.35 274.31,739.35 273.46,741.34 272.60,743.33 271.74,745.32 270.88,747.30 270.02,749.28 269.16,751.24 268.30,753.21 267.44,755.16 266.58,757.11 265.71,759.05 264.85,760.98 263.98,762.91 263.11,764.82 262.25,766.73 261.38,768.62 260.51,770.51 259.64,772.39 258.76,774.25 257.89,776.10 257.01,777.95 256.13,779.78 255.26,781.60 254.38,783.40 253.49,785.20 252.61,786.98 251.73,788.74 250.84,790.49 249.95,792.23 249.06,793.95 248.17,795.66 247.27,797.35 246.38,799.03 245.48,800.69 244.58,802.33 243.67,803.95 242.77,805.56 241.86,807.15 240.95,808.72 240.04,810.27 239.13,811.81 238.21,813.32 237.29,814.81 236.37,816.28 235.45,817.74 234.52,819.17 233.59,820.58 232.66,821.96 231.73,823.33 230.79,824.67 229.85,825.99 228.91,827.29 227.96,828.56 227.01,829.81 226.06,831.03 225.10,832.23 224.15,833.40 223.18,834.55 222.22,835.67 221.25,836.77 220.28,837.83 219.31,838.88 218.33,839.89 217.35,840.87 216.36,841.83 215.38,842.76 214.38,843.66 213.39,844.53 212.39,845.37 211.39,846.18 210.38,846.96 209.37,847.71 208.36,848.43 207.34,849.12 206.32,849.77 205.29,850.39 204.26,850.98 203.23,851.54 202.19,852.06 201.15,852.55 200.10,853.01 199.05,853.43 198.00,853.82 196.94,854.17 195.88,854.49 194.81,854.77 193.74,855.02 192.66,855.23 191.58,855.40 190.49,855.54 189.40,855.64 188.31,855.70 187.21,855.72 186.11,855.71 186.11,855.71 184.65,855.45 183.15,854.61 181.61,853.21 180.04,851.26 178.44,848.77 176.80,845.76 175.14,842.24 173.44,838.22 171.72,833.72 169.97,828.75 168.20,823.32 166.41,817.45 164.60,811.14 162.77,804.42 160.92,797.30 159.05,789.78 157.18,781.89 155.28,773.63 153.38,765.02 151.47,756.07 149.56,746.80 147.63,737.22 145.70,727.33 143.77,717.17 141.84,706.73 139.91,696.03 137.99,685.09 136.06,673.92 134.14,662.52 132.23,650.92 130.33,639.13 128.44,627.17 126.56,615.03 124.69,602.74 122.84,590.32 121.01,577.77 119.19,565.10 117.40,552.34 115.63,539.49 113.88,526.56 112.15,513.58 110.46,500.55 108.79,487.49 107.15,474.41 105.54,461.32 103.97,448.24 102.43,435.17 100.93,422.14 99.46,409.16 98.04,396.24 96.66,383.39 95.32,370.62 94.02,357.96 92.77,345.41 91.57,332.98 90.42,320.69 89.32,308.56 88.27,296.59 87.28,284.80 86.34,273.20 85.46,261.81 84.64,250.63 83.88,239.69 83.19,229.00 82.55,218.56 81.99,208.39 81.49,198.51 81.06,188.93 80.70,179.65 80.41,170.71 80.20,162.10 80.06,153.84 80.00,145.94 80.02,138.43 80.12,131.30 80.30,124.58 80.56,118.28 80.91,112.40 81.35,106.97 81.88,102.00 82.49,97.50 83.20,93.48 84.00,89.96 84.90,86.95 85.89,84.46 86.98,82.51 88.17,81.11 89.47,80.27 90.86,80.01 Z M 92.01,89.34 93.22,90.20 94.43,91.08 95.64,91.97 96.85,92.89 98.07,93.83 99.29,94.79 100.51,95.77 101.74,96.77 102.97,97.79 104.20,98.83 105.43,99.90 106.66,100.98 107.90,102.08 109.14,103.21 110.38,104.35 111.63,105.51 112.88,106.70 114.13,107.90 115.38,109.12 116.63,110.36 117.89,111.62 119.15,112.90 120.41,114.20 121.67,115.52 122.94,116.86 124.21,118.21 125.48,119.58 126.75,120.97 128.03,122.38 129.30,123.81 130.58,125.26 131.87,126.72 133.15,128.20 134.44,129.70 135.72,131.21 137.01,132.74 138.31,134.29 139.60,135.85 140.90,137.43 142.19,139.03 143.49,140.64 144.79,142.26 146.10,143.91 147.40,145.56 148.71,147.23 150.02,148.92 151.33,150.62 152.64,152.34 153.96,154.07 155.27,155.81 156.59,157.57 157.91,159.33 159.23,161.12 160.56,162.91 161.88,164.72 163.20,166.54 164.53,168.37 165.86,170.21 167.19,172.07 168.52,173.93 169.85,175.81 171.19,177.70 172.52,179.60 173.86,181.50 175.20,183.42 176.54,185.35 177.88,187.29 179.22,189.23 180.56,191.18 181.90,193.15 183.25,195.12 184.59,197.10 185.94,199.08 187.28,201.08 188.63,203.08 189.98,205.08 191.33,207.10 192.68,209.12 194.03,211.14 195.38,213.18 196.73,215.21 198.09,217.25 199.44,219.30 200.79,221.35 202.15,223.41 203.50,225.46 204.86,227.53 206.21,229.59 207.57,231.66 208.93,233.73 210.28,235.80 211.64,237.88 213.00,239.96 214.35,242.03 215.71,244.11 217.07,246.19 218.43,248.27 219.78,250.36 221.14,252.44 222.50,254.52 223.86,256.60 225.21,258.68 226.57,260.75 227.93,262.83 229.29,264.90 230.64,266.98 232.00,269.05 233.35,271.11 234.71,273.18 236.06,275.24 237.42,277.30 238.77,279.35 240.13,281.40 241.48,283.44 242.83,285.48 244.19,287.52 245.54,289.55 246.89,291.57 248.24,293.59 249.59,295.60 250.93,297.61 252.28,299.61 253.63,301.60 254.97,303.58 256.32,305.56 257.66,307.53 259.01,309.49 260.35,311.44 261.69,313.39 263.03,315.32 264.37,317.25 265.70,319.17 267.04,321.08 268.38,322.97 269.71,324.86 271.04,326.74 272.37,328.60 273.70,330.46 275.03,332.31 276.36,334.14 277.69,335.96 279.01,337.77 280.33,339.57 281.65,341.36 282.97,343.13 284.29,344.89 285.61,346.64 286.92,348.37 288.24,350.09 289.55,351.80 290.86,353.50 292.17,355.18 293.47,356.84 294.78,358.50 296.08,360.13 297.38,361.76 298.68,363.37 299.98,364.96 301.28,366.54 302.57,368.10 303.86,369.65 305.15,371.18 306.44,372.69 307.73,374.19 309.01,375.68 310.29,377.14 311.57,378.59 312.85,380.03 314.13,381.45 315.40,382.85 316.68,384.23 317.95,385.60 319.21,386.95 320.48,388.28 321.74,389.59 323.00,390.89 324.26,392.17 325.52,393.43 326.77,394.68 328.03,395.90 329.28,397.11 330.53,398.30 331.77,399.48 333.02,400.63 334.26,401.77 335.50,402.89 336.73,403.99 337.97,405.07 339.20,406.13 340.43,407.18 341.66,408.20 342.89,409.21 344.11,410.20 345.33,411.18 346.55,412.13 347.77,413.06 348.98,413.98 350.20,414.88 351.41,415.76 352.61,416.62 353.82,417.47 355.02,418.29 356.22,419.10 357.42,419.89 358.62,420.66 359.81,421.42 361.01,422.15 362.20,422.87 363.39,423.57 364.57,424.26 365.76,424.92 366.94,425.57 368.12,426.20 369.29,426.82 370.47,427.42 371.64,428.00 372.82,428.56 373.98,429.11 375.15,429.64 376.32,430.16 377.48,430.66 378.64,431.15 379.80,431.61 380.96,432.07 382.12,432.51 383.27,432.93 384.42,433.34 385.57,433.74 386.72,434.12 387.87,434.48 389.01,434.84 390.16,435.18 391.30,435.50 392.44,435.82 393.58,436.12 394.72,436.41 395.85,436.69 396.99,436.96 398.12,437.21 399.26,437.46 400.39,437.69 401.52,437.91 402.64,438.13 403.77,438.33 404.90,438.53 406.02,438.71 407.15,438.89 408.27,439.06 409.39,439.23 410.51,439.38 411.63,439.53 412.75,439.68 413.87,439.82 414.99,439.95 416.11,440.08 417.23,440.20 418.34,440.33 419.46,440.44 420.58,440.56 421.69,440.67 422.81,440.78 423.92,440.89 425.04,441.00 426.15,441.11 427.27,441.22 428.39,441.33 429.50,441.45 430.62,441.56 431.74,441.68 432.85,441.81 433.97,441.93 435.09,442.07 436.21,442.20 437.33,442.35 438.45,442.50 439.57,442.66 440.69,442.83 441.82,443.00 442.94,443.19 444.07,443.39 445.19,443.59 446.32,443.81 447.45,444.05 448.59,444.29 449.72,444.56 450.86,444.83 452.00,445.13 453.14,445.44 454.28,445.76 455.42,446.11 456.57,446.47 457.72,446.86 458.87,447.27 460.03,447.70 461.18,448.15 462.34,448.63 463.51,449.13 464.67,449.65 465.84,450.21 465.84,450.21 466.17,450.36 466.48,450.53 466.80,450.72 467.10,450.93 467.40,451.14 467.70,451.38 467.99,451.63 468.28,451.89 468.56,452.16 468.84,452.45 469.11,452.76 469.38,453.07 469.64,453.40 469.89,453.74 470.14,454.09 470.38,454.45 470.62,454.83 470.86,455.21 471.08,455.60 471.30,456.01 471.52,456.42 471.73,456.84 471.93,457.27 472.13,457.71 472.32,458.16 472.51,458.61 472.69,459.07 472.87,459.54 473.03,460.01 473.20,460.49 473.35,460.97 473.50,461.46 473.64,461.96 473.78,462.46 473.91,462.96 474.04,463.47 474.15,463.98 474.27,464.49 474.37,465.00 474.47,465.52 474.56,466.04 474.64,466.56 474.72,467.08 474.79,467.60 474.86,468.12 474.91,468.64 474.96,469.17 475.01,469.69 475.04,470.20 475.07,470.72 475.09,471.24 475.11,471.75 475.12,472.26 475.12,472.77 475.11,473.27 475.09,473.77 475.07,474.26 475.04,474.75 475.01,475.24 474.96,475.71 474.91,476.19 474.85,476.66 474.78,477.12 474.71,477.57 474.63,478.01 474.53,478.45 474.44,478.88 474.33,479.30 474.22,479.72 474.09,480.12 473.96,480.51 473.82,480.90 473.68,481.27 473.52,481.63 473.36,481.98 473.19,482.32 473.01,482.65 472.82,482.97 472.62,483.27 472.42,483.56 472.20,483.84 471.98,484.10 471.75,484.35 471.51,484.58 471.26,484.80 471.00,485.00 470.74,485.19 470.46,485.36 470.18,485.52 470.18,485.52 469.15,486.07 468.11,486.60 467.07,487.10 466.02,487.57 464.98,488.03 463.93,488.46 462.88,488.86 461.82,489.25 460.76,489.62 459.70,489.96 458.64,490.29 457.58,490.60 456.51,490.89 455.44,491.17 454.37,491.43 453.30,491.68 452.23,491.91 451.15,492.13 450.08,492.34 449.00,492.54 447.92,492.72 446.84,492.90 445.76,493.07 444.68,493.23 443.59,493.38 442.51,493.52 441.42,493.66 440.34,493.79 439.25,493.92 438.16,494.04 437.08,494.16 435.99,494.28 434.90,494.39 433.81,494.50 432.72,494.61 431.63,494.72 430.55,494.83 429.46,494.94 428.37,495.05 427.28,495.17 426.19,495.28 425.11,495.40 424.02,495.52 422.93,495.64 421.85,495.77 420.76,495.91 419.67,496.05 418.59,496.19 417.51,496.34 416.42,496.50 415.34,496.66 414.26,496.83 413.18,497.01 412.10,497.20 411.02,497.39 409.95,497.60 408.87,497.81 407.80,498.03 406.72,498.27 405.65,498.51 404.58,498.77 403.51,499.04 402.44,499.31 401.38,499.60 400.31,499.91 399.25,500.22 398.18,500.55 397.12,500.89 396.07,501.24 395.01,501.61 393.95,501.99 392.90,502.38 391.85,502.79 390.80,503.22 389.75,503.66 388.70,504.11 387.66,504.58 386.62,505.06 385.58,505.56 384.54,506.08 383.50,506.61 382.47,507.16 381.43,507.73 380.40,508.31 379.37,508.91 378.35,509.52 377.32,510.15 376.30,510.80 375.28,511.47 374.26,512.15 373.25,512.85 372.23,513.57 371.22,514.31 370.21,515.06 369.20,515.83 368.20,516.62 367.20,517.43 366.19,518.26 365.20,519.10 364.20,519.96 363.21,520.84 362.21,521.74 361.22,522.66 360.24,523.60 359.25,524.55 358.27,525.52 357.29,526.51 356.31,527.52 355.33,528.55 354.36,529.59 353.39,530.66 352.42,531.74 351.45,532.84 350.49,533.96 349.53,535.09 348.57,536.25 347.61,537.42 346.65,538.61 345.70,539.82 344.75,541.05 343.80,542.29 342.85,543.55 341.91,544.83 340.96,546.13 340.02,547.45 339.08,548.78 338.15,550.13 337.21,551.49 336.28,552.88 335.35,554.28 334.42,555.70 333.50,557.13 332.57,558.58 331.65,560.05 330.73,561.53 329.81,563.03 328.90,564.55 327.98,566.08 327.07,567.62 326.16,569.19 325.25,570.77 324.35,572.36 323.44,573.97 322.54,575.59 321.64,577.23 320.74,578.88 319.84,580.55 318.94,582.23 318.05,583.92 317.16,585.63 316.27,587.35 315.38,589.09 314.49,590.83 313.60,592.60 312.72,594.37 311.84,596.15 310.96,597.95 310.08,599.76 309.20,601.59 308.32,603.42 307.45,605.26 306.57,607.12 305.70,608.99 304.83,610.86 303.96,612.75 303.09,614.65 302.22,616.56 301.35,618.47 300.49,620.40 299.62,622.34 298.76,624.28 297.90,626.23 297.04,628.20 296.18,630.16 295.32,632.14 294.46,634.13 293.60,636.12 292.74,638.12 291.89,640.12 291.03,642.14 290.18,644.15 289.33,646.18 288.47,648.21 287.62,650.24 286.77,652.28 285.92,654.33 285.07,656.38 284.22,658.43 283.37,660.49 282.52,662.55 281.67,664.61 280.82,666.68 279.97,668.75 279.13,670.82 278.28,672.89 277.43,674.97 276.58,677.05 275.74,679.13 274.89,681.21 274.04,683.29 273.20,685.37 272.35,687.45 271.50,689.53 270.66,691.61 269.81,693.69 268.96,695.77 268.12,697.85 267.27,699.92 266.42,701.99 265.57,704.07 264.73,706.13 263.88,708.20 263.03,710.26 262.18,712.32 261.33,714.37 260.48,716.42 259.63,718.47 258.78,720.51 257.92,722.55 257.07,724.58 256.22,726.61 255.36,728.63 254.51,730.64 253.65,732.65 252.80,734.65 251.94,736.64 251.08,738.63 250.22,740.61 249.36,742.58 248.50,744.54 247.64,746.49 246.78,748.44 245.91,750.38 245.05,752.30 244.18,754.22 243.31,756.13 242.44,758.03 241.57,759.91 240.70,761.79 239.83,763.66 238.95,765.51 238.08,767.35 237.20,769.19 236.32,771.00 235.44,772.81 234.56,774.61 233.68,776.39 232.79,778.16 231.91,779.92 231.02,781.66 230.13,783.39 229.24,785.10 228.34,786.80 227.45,788.49 226.55,790.16 225.65,791.82 224.75,793.46 223.85,795.09 222.95,796.70 222.04,798.29 221.13,799.87 220.22,801.44 219.31,802.98 218.39,804.52 217.48,806.03 216.56,807.53 215.64,809.01 214.72,810.47 213.79,811.91 212.87,813.34 211.94,814.75 211.01,816.14 210.07,817.51 209.14,818.87 208.20,820.21 207.26,821.52 206.32,822.82 205.37,824.10 204.42,825.36 203.47,826.60 202.52,827.83 201.57,829.03 200.61,830.21 199.65,831.37 198.69,832.52 197.72,833.64 196.76,834.74 195.79,835.83 194.82,836.89 193.84,837.93 192.87,838.95 191.89,839.95 190.91,840.94 189.92,841.89 188.93,842.83 187.95,843.75 186.95,844.65 185.96,845.53 184.96,846.38 184.96,846.38 184.13,846.78 183.25,846.57 182.32,845.76 181.33,844.38 180.30,842.43 179.21,839.93 178.08,836.90 176.91,833.34 175.70,829.27 174.44,824.70 173.14,819.66 171.81,814.14 170.44,808.18 169.04,801.77 167.60,794.94 166.13,787.70 164.64,780.06 163.11,772.03 161.57,763.64 159.99,754.89 158.40,745.79 156.79,736.37 155.15,726.64 153.50,716.61 151.84,706.29 150.16,695.69 148.47,684.84 146.77,673.75 145.06,662.42 143.34,650.88 141.62,639.14 139.90,627.21 138.17,615.10 136.45,602.84 134.73,590.42 133.01,577.88 131.29,565.21 129.58,552.45 127.89,539.59 126.20,526.65 124.52,513.65 122.86,500.60 121.21,487.52 119.59,474.42 117.98,461.31 116.39,448.20 114.82,435.12 113.28,422.07 111.76,409.07 110.27,396.14 108.81,383.28 107.39,370.51 105.99,357.85 104.63,345.30 103.30,332.89 102.02,320.62 100.77,308.51 99.56,296.58 98.40,284.84 97.28,273.30 96.21,261.97 95.18,250.88 94.21,240.03 93.29,229.44 92.42,219.12 91.60,209.08 90.85,199.35 90.15,189.93 89.51,180.84 88.93,172.09 88.42,163.69 87.97,155.67 87.59,148.03 87.28,140.79 87.04,133.95 86.87,127.55 86.77,121.58 86.75,116.07 86.81,111.02 86.95,106.46 87.16,102.39 87.46,98.83 87.85,95.79 88.31,93.29 88.87,91.35 89.52,89.96 90.25,89.16 91.08,88.95 92.01,89.34 Z" fill="url(#st)" fill-rule="evenodd" stroke="#ff9e6b" stroke-width="1.6"/><path d="M 183.69,835.99 190.28,829.73 196.81,823.46 203.28,817.20 209.53,809.68 215.77,802.17 221.96,794.65 228.10,787.13 234.05,778.34 240.27,768.32 247.49,763.31 254.18,754.55 259.56,735.74 265.48,721.97 271.07,705.69 276.62,689.39 282.23,674.35 287.47,656.81 292.99,641.77 298.32,625.49 304.19,614.20 309.84,601.67 315.65,590.41 321.57,580.38 327.62,571.60 333.67,562.84 339.84,555.32 345.97,547.80 352.26,541.52 358.53,535.27 364.77,528.99 371.32,525.25 377.53,518.97 384.03,515.22 390.52,511.45 397.02,507.70 403.50,503.93 409.98,500.18 416.45,496.41 422.91,492.66 429.51,490.16 436.09,487.65 442.66,485.15 449.22,482.64 455.78,480.13 462.34,477.63 468.90,475.12 L 468.54,472.14 461.98,474.65 455.42,477.16 448.86,479.66 442.29,482.17 435.73,484.67 429.14,487.18 422.54,489.69 416.08,493.43 409.61,497.21 403.14,500.95 396.66,504.72 390.16,508.47 383.66,512.24 377.16,515.99 370.95,522.27 364.40,526.01 358.16,532.29 351.90,538.55 345.61,544.82 339.47,552.34 333.30,559.86 327.25,568.62 321.21,577.40 315.28,587.43 309.47,598.69 303.82,611.22 297.95,622.51 292.62,638.79 287.11,653.83 281.87,671.37 276.26,686.41 270.71,702.71 265.12,718.99 259.19,732.76 253.81,751.57 247.13,760.33 239.90,765.34 233.69,775.37 227.73,784.15 221.59,791.67 215.40,799.19 209.16,806.71 202.91,814.22 196.45,820.48 189.91,826.76 183.32,833.01 Z" fill="#3a6a8c" fill-opacity="0.55" stroke="#7fb7da" stroke-width="0.8"/><polyline points="183.75,836.48 190.34,830.23 196.87,823.95 203.34,817.70 209.59,810.18 215.83,802.66 222.02,795.14 228.16,787.62 234.11,778.84 240.33,768.82 247.55,763.80 254.24,755.04 259.62,736.24 265.55,722.46 271.13,706.19 276.68,689.88 282.29,674.85 287.53,657.30 293.05,642.27 298.38,625.99 304.25,614.70 309.90,602.17 315.71,590.90 321.63,580.88 327.68,572.09 333.73,563.33 339.90,555.82 346.03,548.30 352.32,542.02 358.59,535.77 364.83,529.49 371.38,525.74 377.59,519.46 384.09,515.72 390.59,511.95 397.08,508.20 403.57,504.43 410.04,500.68 416.51,496.91 422.97,493.16 429.57,490.65 436.15,488.15 442.72,485.64 449.28,483.14 455.84,480.63 462.40,478.12 468.96,475.62" fill="none" stroke="#caa15a" stroke-width="2.2"/><circle cx="92.60" cy="84.54" r="0.75" fill="#6ee0a0"/><circle cx="183.75" cy="836.48" r="2.00" fill="none" stroke="#e0b86e" stroke-width="1.3"/><circle cx="183.75" cy="836.48" r="0.60" fill="#13110d"/><circle cx="185.53" cy="851.05" r="2.0" fill="#ff5a4d"/><circle cx="100.69" cy="90.79" r="0.75" fill="#6ee0a0"/><circle cx="190.34" cy="830.23" r="2.00" fill="none" stroke="#e0b86e" stroke-width="1.3"/><circle cx="190.34" cy="830.23" r="0.60" fill="#13110d"/><circle cx="192.13" cy="844.79" r="2.0" fill="#ff5a4d"/><circle cx="108.74" cy="97.07" r="0.75" fill="#6ee0a0"/><circle cx="196.87" cy="823.95" r="2.00" fill="none" stroke="#e0b86e" stroke-width="1.3"/><circle cx="196.87" cy="823.95" r="0.60" fill="#13110d"/><circle cx="198.66" cy="838.51" r="2.0" fill="#ff5a4d"/><circle cx="116.70" cy="103.33" r="0.75" fill="#6ee0a0"/><circle cx="203.34" cy="817.70" r="2.00" fill="none" stroke="#e0b86e" stroke-width="1.3"/><circle cx="203.34" cy="817.70" r="0.60" fill="#13110d"/><circle cx="205.13" cy="832.26" r="2.0" fill="#ff5a4d"/><circle cx="124.79" cy="110.85" r="0.75" fill="#6ee0a0"/><circle cx="209.59" cy="810.18" r="2.00" fill="none" stroke="#e0b86e" stroke-width="1.3"/><circle cx="209.59" cy="810.18" r="0.60" fill="#13110d"/><circle cx="211.38" cy="824.74" r="2.0" fill="#ff5a4d"/><circle cx="132.87" cy="118.37" r="0.75" fill="#6ee0a0"/><circle cx="215.83" cy="802.66" r="2.00" fill="none" stroke="#e0b86e" stroke-width="1.3"/><circle cx="215.83" cy="802.66" r="0.60" fill="#13110d"/><circle cx="217.62" cy="817.22" r="2.0" fill="#ff5a4d"/><circle cx="140.86" cy="125.90" r="0.75" fill="#6ee0a0"/><circle cx="222.02" cy="795.14" r="2.00" fill="none" stroke="#e0b86e" stroke-width="1.3"/><circle cx="222.02" cy="795.14" r="0.60" fill="#13110d"/><circle cx="223.81" cy="809.71" r="2.0" fill="#ff5a4d"/><circle cx="148.84" cy="133.41" r="0.75" fill="#6ee0a0"/><circle cx="228.16" cy="787.62" r="2.00" fill="none" stroke="#e0b86e" stroke-width="1.3"/><circle cx="228.16" cy="787.62" r="0.60" fill="#13110d"/><circle cx="229.94" cy="802.19" r="2.0" fill="#ff5a4d"/><circle cx="156.93" cy="142.20" r="0.75" fill="#6ee0a0"/><circle cx="234.11" cy="778.84" r="2.00" fill="none" stroke="#e0b86e" stroke-width="1.3"/><circle cx="234.11" cy="778.84" r="0.60" fill="#13110d"/><circle cx="235.90" cy="793.40" r="2.0" fill="#ff5a4d"/><circle cx="166.03" cy="152.17" r="0.75" fill="#6ee0a0"/><circle cx="240.33" cy="768.82" r="2.00" fill="none" stroke="#e0b86e" stroke-width="1.3"/><circle cx="240.33" cy="768.82" r="0.66" fill="#13110d"/><circle cx="242.11" cy="783.38" r="2.0" fill="#ff5a4d"/><circle cx="174.45" cy="157.19" r="0.75" fill="#6ee0a0"/><circle cx="247.55" cy="763.80" r="2.00" fill="none" stroke="#e0b86e" stroke-width="1.3"/><circle cx="247.55" cy="763.80" r="0.62" fill="#13110d"/><circle cx="249.34" cy="778.37" r="2.0" fill="#ff5a4d"/><circle cx="183.25" cy="165.95" r="0.75" fill="#6ee0a0"/><circle cx="254.24" cy="755.04" r="2.00" fill="none" stroke="#e0b86e" stroke-width="1.3"/><circle cx="254.24" cy="755.04" r="0.60" fill="#13110d"/><circle cx="256.03" cy="769.61" r="2.0" fill="#ff5a4d"/><circle cx="193.21" cy="184.77" r="0.75" fill="#6ee0a0"/><circle cx="259.62" cy="736.24" r="2.00" fill="none" stroke="#e0b86e" stroke-width="1.3"/><circle cx="259.62" cy="736.24" r="0.60" fill="#13110d"/><circle cx="261.41" cy="750.80" r="2.0" fill="#ff5a4d"/><circle cx="202.49" cy="198.54" r="0.75" fill="#6ee0a0"/><circle cx="265.55" cy="722.46" r="2.00" fill="none" stroke="#e0b86e" stroke-width="1.3"/><circle cx="265.55" cy="722.46" r="0.60" fill="#13110d"/><circle cx="267.33" cy="737.03" r="2.0" fill="#ff5a4d"/><circle cx="212.07" cy="214.82" r="0.75" fill="#6ee0a0"/><circle cx="271.13" cy="706.19" r="2.00" fill="none" stroke="#e0b86e" stroke-width="1.3"/><circle cx="271.13" cy="706.19" r="0.60" fill="#13110d"/><circle cx="272.92" cy="720.75" r="2.0" fill="#ff5a4d"/><circle cx="221.60" cy="231.13" r="0.75" fill="#6ee0a0"/><circle cx="276.68" cy="689.88" r="2.00" fill="none" stroke="#e0b86e" stroke-width="1.3"/><circle cx="276.68" cy="689.88" r="0.60" fill="#13110d"/><circle cx="278.47" cy="704.45" r="2.0" fill="#ff5a4d"/><circle cx="230.84" cy="246.17" r="0.75" fill="#6ee0a0"/><circle cx="282.29" cy="674.85" r="2.00" fill="none" stroke="#e0b86e" stroke-width="1.3"/><circle cx="282.29" cy="674.85" r="0.60" fill="#13110d"/><circle cx="284.08" cy="689.41" r="2.0" fill="#ff5a4d"/><circle cx="240.38" cy="263.72" r="0.75" fill="#6ee0a0"/><circle cx="287.53" cy="657.30" r="2.00" fill="none" stroke="#e0b86e" stroke-width="1.3"/><circle cx="287.53" cy="657.30" r="0.60" fill="#13110d"/><circle cx="289.32" cy="671.87" r="2.0" fill="#ff5a4d"/><circle cx="249.56" cy="278.76" r="0.75" fill="#6ee0a0"/><circle cx="293.05" cy="642.27" r="2.00" fill="none" stroke="#e0b86e" stroke-width="1.3"/><circle cx="293.05" cy="642.27" r="0.60" fill="#13110d"/><circle cx="294.84" cy="656.83" r="2.0" fill="#ff5a4d"/><circle cx="258.89" cy="295.03" r="0.75" fill="#6ee0a0"/><circle cx="298.38" cy="625.99" r="2.00" fill="none" stroke="#e0b86e" stroke-width="1.3"/><circle cx="298.38" cy="625.99" r="0.60" fill="#13110d"/><circle cx="300.17" cy="640.55" r="2.0" fill="#ff5a4d"/><circle cx="267.46" cy="306.33" r="0.75" fill="#6ee0a0"/><circle cx="304.25" cy="614.70" r="2.00" fill="none" stroke="#e0b86e" stroke-width="1.3"/><circle cx="304.25" cy="614.70" r="0.60" fill="#13110d"/><circle cx="306.04" cy="629.26" r="2.0" fill="#ff5a4d"/><circle cx="276.19" cy="318.86" r="0.75" fill="#6ee0a0"/><circle cx="309.90" cy="602.17" r="2.00" fill="none" stroke="#e0b86e" stroke-width="1.3"/><circle cx="309.90" cy="602.17" r="0.60" fill="#13110d"/><circle cx="311.69" cy="616.73" r="2.0" fill="#ff5a4d"/><circle cx="284.76" cy="330.13" r="0.75" fill="#6ee0a0"/><circle cx="315.71" cy="590.90" r="2.00" fill="none" stroke="#e0b86e" stroke-width="1.3"/><circle cx="315.71" cy="590.90" r="0.60" fill="#13110d"/><circle cx="317.49" cy="605.46" r="2.0" fill="#ff5a4d"/><circle cx="293.12" cy="340.16" r="0.75" fill="#6ee0a0"/><circle cx="321.63" cy="580.88" r="2.00" fill="none" stroke="#e0b86e" stroke-width="1.3"/><circle cx="321.63" cy="580.88" r="0.60" fill="#13110d"/><circle cx="323.42" cy="595.44" r="2.0" fill="#ff5a4d"/><circle cx="301.32" cy="348.94" r="0.75" fill="#6ee0a0"/><circle cx="327.68" cy="572.09" r="2.00" fill="none" stroke="#e0b86e" stroke-width="1.3"/><circle cx="327.68" cy="572.09" r="0.60" fill="#13110d"/><circle cx="329.47" cy="586.66" r="2.0" fill="#ff5a4d"/><circle cx="309.52" cy="357.70" r="0.75" fill="#6ee0a0"/><circle cx="333.73" cy="563.33" r="2.00" fill="none" stroke="#e0b86e" stroke-width="1.3"/><circle cx="333.73" cy="563.33" r="0.60" fill="#13110d"/><circle cx="335.52" cy="577.90" r="2.0" fill="#ff5a4d"/><circle cx="317.51" cy="365.22" r="0.75" fill="#6ee0a0"/><circle cx="339.90" cy="555.82" r="2.00" fill="none" stroke="#e0b86e" stroke-width="1.3"/><circle cx="339.90" cy="555.82" r="0.60" fill="#13110d"/><circle cx="341.68" cy="570.38" r="2.0" fill="#ff5a4d"/><circle cx="325.49" cy="372.74" r="0.75" fill="#6ee0a0"/><circle cx="346.03" cy="548.30" r="2.00" fill="none" stroke="#e0b86e" stroke-width="1.3"/><circle cx="346.03" cy="548.30" r="0.60" fill="#13110d"/><circle cx="347.82" cy="562.86" r="2.0" fill="#ff5a4d"/><circle cx="333.32" cy="379.02" r="0.75" fill="#6ee0a0"/><circle cx="352.32" cy="542.02" r="2.00" fill="none" stroke="#e0b86e" stroke-width="1.3"/><circle cx="352.32" cy="542.02" r="0.60" fill="#13110d"/><circle cx="354.11" cy="556.58" r="2.0" fill="#ff5a4d"/><circle cx="341.10" cy="385.28" r="0.75" fill="#6ee0a0"/><circle cx="358.59" cy="535.77" r="2.00" fill="none" stroke="#e0b86e" stroke-width="1.3"/><circle cx="358.59" cy="535.77" r="0.60" fill="#13110d"/><circle cx="360.38" cy="550.33" r="2.0" fill="#ff5a4d"/><circle cx="348.88" cy="391.55" r="0.75" fill="#6ee0a0"/><circle cx="364.83" cy="529.49" r="2.00" fill="none" stroke="#e0b86e" stroke-width="1.3"/><circle cx="364.83" cy="529.49" r="0.60" fill="#13110d"/><circle cx="366.62" cy="544.05" r="2.0" fill="#ff5a4d"/><circle cx="356.35" cy="395.30" r="0.75" fill="#6ee0a0"/><circle cx="371.38" cy="525.74" r="2.00" fill="none" stroke="#e0b86e" stroke-width="1.3"/><circle cx="371.38" cy="525.74" r="0.60" fill="#13110d"/><circle cx="373.17" cy="540.30" r="2.0" fill="#ff5a4d"/><circle cx="364.08" cy="401.58" r="0.75" fill="#6ee0a0"/><circle cx="377.59" cy="519.46" r="2.00" fill="none" stroke="#e0b86e" stroke-width="1.3"/><circle cx="377.59" cy="519.46" r="0.60" fill="#13110d"/><circle cx="379.38" cy="534.03" r="2.0" fill="#ff5a4d"/><circle cx="371.50" cy="405.33" r="0.75" fill="#6ee0a0"/><circle cx="384.09" cy="515.72" r="2.00" fill="none" stroke="#e0b86e" stroke-width="1.3"/><circle cx="384.09" cy="515.72" r="0.60" fill="#13110d"/><circle cx="385.88" cy="530.28" r="2.0" fill="#ff5a4d"/><circle cx="378.92" cy="409.10" r="0.75" fill="#6ee0a0"/><circle cx="390.59" cy="511.95" r="2.00" fill="none" stroke="#e0b86e" stroke-width="1.3"/><circle cx="390.59" cy="511.95" r="0.60" fill="#13110d"/><circle cx="392.37" cy="526.51" r="2.0" fill="#ff5a4d"/><circle cx="386.34" cy="412.85" r="0.75" fill="#6ee0a0"/><circle cx="397.08" cy="508.20" r="2.00" fill="none" stroke="#e0b86e" stroke-width="1.3"/><circle cx="397.08" cy="508.20" r="0.60" fill="#13110d"/><circle cx="398.87" cy="522.76" r="2.0" fill="#ff5a4d"/><circle cx="393.73" cy="416.62" r="0.75" fill="#6ee0a0"/><circle cx="403.57" cy="504.43" r="2.00" fill="none" stroke="#e0b86e" stroke-width="1.3"/><circle cx="403.57" cy="504.43" r="0.60" fill="#13110d"/><circle cx="405.35" cy="518.99" r="2.0" fill="#ff5a4d"/><circle cx="401.12" cy="420.37" r="0.75" fill="#6ee0a0"/><circle cx="410.04" cy="500.68" r="2.00" fill="none" stroke="#e0b86e" stroke-width="1.3"/><circle cx="410.04" cy="500.68" r="0.60" fill="#13110d"/><circle cx="411.83" cy="515.24" r="2.0" fill="#ff5a4d"/><circle cx="408.52" cy="424.14" r="0.75" fill="#6ee0a0"/><circle cx="416.51" cy="496.91" r="2.00" fill="none" stroke="#e0b86e" stroke-width="1.3"/><circle cx="416.51" cy="496.91" r="0.60" fill="#13110d"/><circle cx="418.30" cy="511.47" r="2.0" fill="#ff5a4d"/><circle cx="415.89" cy="427.89" r="0.75" fill="#6ee0a0"/><circle cx="422.97" cy="493.16" r="2.00" fill="none" stroke="#e0b86e" stroke-width="1.3"/><circle cx="422.97" cy="493.16" r="0.60" fill="#13110d"/><circle cx="424.76" cy="507.72" r="2.0" fill="#ff5a4d"/><circle cx="423.10" cy="430.39" r="0.75" fill="#6ee0a0"/><circle cx="429.57" cy="490.65" r="2.00" fill="none" stroke="#e0b86e" stroke-width="1.3"/><circle cx="429.57" cy="490.65" r="0.60" fill="#13110d"/><circle cx="431.36" cy="505.22" r="2.0" fill="#ff5a4d"/><circle cx="430.29" cy="432.90" r="0.75" fill="#6ee0a0"/><circle cx="436.15" cy="488.15" r="2.00" fill="none" stroke="#e0b86e" stroke-width="1.3"/><circle cx="436.15" cy="488.15" r="0.60" fill="#13110d"/><circle cx="437.94" cy="502.71" r="2.0" fill="#ff5a4d"/><circle cx="437.47" cy="435.41" r="0.75" fill="#6ee0a0"/><circle cx="442.72" cy="485.64" r="2.00" fill="none" stroke="#e0b86e" stroke-width="1.3"/><circle cx="442.72" cy="485.64" r="0.60" fill="#13110d"/><circle cx="444.51" cy="500.21" r="2.0" fill="#ff5a4d"/><circle cx="444.64" cy="437.91" r="0.75" fill="#6ee0a0"/><circle cx="449.28" cy="483.14" r="2.00" fill="none" stroke="#e0b86e" stroke-width="1.3"/><circle cx="449.28" cy="483.14" r="0.60" fill="#13110d"/><circle cx="451.07" cy="497.70" r="2.0" fill="#ff5a4d"/><circle cx="451.82" cy="440.42" r="0.75" fill="#6ee0a0"/><circle cx="455.84" cy="480.63" r="2.00" fill="none" stroke="#e0b86e" stroke-width="1.3"/><circle cx="455.84" cy="480.63" r="0.60" fill="#13110d"/><circle cx="457.63" cy="495.19" r="2.0" fill="#ff5a4d"/><circle cx="459.00" cy="442.93" r="0.75" fill="#6ee0a0"/><circle cx="462.40" cy="478.12" r="2.00" fill="none" stroke="#e0b86e" stroke-width="1.3"/><circle cx="462.40" cy="478.12" r="0.60" fill="#13110d"/><circle cx="464.19" cy="492.69" r="2.0" fill="#ff5a4d"/><circle cx="466.17" cy="445.43" r="0.75" fill="#6ee0a0"/><circle cx="468.96" cy="475.62" r="2.00" fill="none" stroke="#e0b86e" stroke-width="1.3"/><circle cx="468.96" cy="475.62" r="0.60" fill="#13110d"/><circle cx="470.75" cy="490.18" r="2.0" fill="#ff5a4d"/></g>
<g transform="translate(0,955)"><rect width="552" height="233" fill="#0e0c09"/><text x="80.0" y="28" fill="#cdd2da" font-family="sans-serif" font-size="20">DEPTH/ISO (station x vs depth y): wooden chamber bulges +y; CF anchor/tails kick -y (opposite side, clear of the chamber), |d|=6.2 mm</text><polygon points="80.00,90.94 88.77,90.94 97.47,90.94 106.08,90.94 114.63,90.94 123.16,90.94 131.63,90.94 140.04,90.94 148.42,90.94 157.29,90.94 166.63,90.94 175.87,90.94 185.03,90.94 194.10,90.94 203.14,90.94 212.13,90.94 221.01,90.94 229.82,90.94 238.59,90.94 247.32,90.94 255.96,90.94 264.52,90.94 273.09,90.94 281.61,90.94 290.10,90.94 298.58,90.94 307.03,90.94 315.44,90.94 323.85,90.94 332.23,90.94 340.58,90.94 348.92,90.94 357.24,90.94 365.53,90.94 373.82,90.94 382.11,90.94 390.38,90.94 398.64,90.94 406.89,90.94 415.13,90.94 423.36,90.94 431.57,90.94 439.76,90.94 447.94,90.94 456.12,90.94 464.30,90.94 472.48,90.94 472.48,101.74 464.30,102.71 456.12,103.67 447.94,104.63 439.76,105.59 431.57,106.56 423.36,107.52 415.13,108.49 406.89,109.46 398.64,110.44 390.38,111.41 382.11,112.38 373.82,113.36 365.53,114.33 357.24,115.31 348.92,116.29 340.58,117.27 332.23,118.25 323.85,119.24 315.44,120.23 307.03,121.22 298.58,122.21 290.10,123.21 281.61,124.21 273.09,125.21 264.52,126.22 255.96,127.23 247.32,128.25 238.59,129.27 229.82,130.31 221.01,131.34 212.13,132.39 203.14,133.45 194.10,134.51 185.03,135.58 175.87,136.66 166.63,137.75 157.29,138.84 148.42,139.89 140.04,140.87 131.63,141.86 123.16,142.86 114.63,143.87 106.08,144.87 97.47,145.89 88.77,146.91 80.00,147.94" fill="#6b4a23" fill-opacity="0.85" stroke="#caa15a" stroke-width="1.6"/><ellipse cx="166.35" cy="119.98" rx="10.80" ry="7.20" fill="#13110d" stroke="#caa15a" stroke-width="1.2"/><line x1="80.00" y1="90.94" x2="472.48" y2="90.94" stroke="#caa15a" stroke-width="2.2"/><circle cx="80.00" cy="90.94" r="1.8" fill="#e0b86e"/><line x1="80.00" y1="90.94" x2="80.00" y2="90.94" stroke="#7d7762" stroke-width="1.0"/><line x1="80.00" y1="90.94" x2="80.00" y2="87.20" stroke="#ff5a4d" stroke-width="1.0"/><circle cx="80.00" cy="87.20" r="1.6" fill="#ff5a4d"/><circle cx="88.77" cy="90.94" r="1.8" fill="#e0b86e"/><line x1="88.77" y1="90.94" x2="88.77" y2="90.94" stroke="#7d7762" stroke-width="1.0"/><line x1="88.77" y1="90.94" x2="88.77" y2="87.20" stroke="#ff5a4d" stroke-width="1.0"/><circle cx="88.77" cy="87.20" r="1.6" fill="#ff5a4d"/><circle cx="97.47" cy="90.94" r="1.8" fill="#e0b86e"/><line x1="97.47" y1="90.94" x2="97.47" y2="90.94" stroke="#7d7762" stroke-width="1.0"/><line x1="97.47" y1="90.94" x2="97.47" y2="87.20" stroke="#ff5a4d" stroke-width="1.0"/><circle cx="97.47" cy="87.20" r="1.6" fill="#ff5a4d"/><circle cx="106.08" cy="90.94" r="1.8" fill="#e0b86e"/><line x1="106.08" y1="90.94" x2="106.08" y2="90.94" stroke="#7d7762" stroke-width="1.0"/><line x1="106.08" y1="90.94" x2="106.08" y2="87.20" stroke="#ff5a4d" stroke-width="1.0"/><circle cx="106.08" cy="87.20" r="1.6" fill="#ff5a4d"/><circle cx="114.63" cy="90.94" r="1.8" fill="#e0b86e"/><line x1="114.63" y1="90.94" x2="114.63" y2="90.94" stroke="#7d7762" stroke-width="1.0"/><line x1="114.63" y1="90.94" x2="114.63" y2="87.20" stroke="#ff5a4d" stroke-width="1.0"/><circle cx="114.63" cy="87.20" r="1.6" fill="#ff5a4d"/><circle cx="123.16" cy="90.94" r="1.8" fill="#e0b86e"/><line x1="123.16" y1="90.94" x2="123.16" y2="90.94" stroke="#7d7762" stroke-width="1.0"/><line x1="123.16" y1="90.94" x2="123.16" y2="87.20" stroke="#ff5a4d" stroke-width="1.0"/><circle cx="123.16" cy="87.20" r="1.6" fill="#ff5a4d"/><circle cx="131.63" cy="90.94" r="1.8" fill="#e0b86e"/><line x1="131.63" y1="90.94" x2="131.63" y2="90.94" stroke="#7d7762" stroke-width="1.0"/><line x1="131.63" y1="90.94" x2="131.63" y2="87.20" stroke="#ff5a4d" stroke-width="1.0"/><circle cx="131.63" cy="87.20" r="1.6" fill="#ff5a4d"/><circle cx="140.04" cy="90.94" r="1.8" fill="#e0b86e"/><line x1="140.04" y1="90.94" x2="140.04" y2="90.94" stroke="#7d7762" stroke-width="1.0"/><line x1="140.04" y1="90.94" x2="140.04" y2="87.20" stroke="#ff5a4d" stroke-width="1.0"/><circle cx="140.04" cy="87.20" r="1.6" fill="#ff5a4d"/><circle cx="148.42" cy="90.94" r="1.8" fill="#e0b86e"/><line x1="148.42" y1="90.94" x2="148.42" y2="90.94" stroke="#7d7762" stroke-width="1.0"/><line x1="148.42" y1="90.94" x2="148.42" y2="87.20" stroke="#ff5a4d" stroke-width="1.0"/><circle cx="148.42" cy="87.20" r="1.6" fill="#ff5a4d"/><circle cx="157.29" cy="90.94" r="1.8" fill="#e0b86e"/><line x1="157.29" y1="90.94" x2="157.29" y2="90.94" stroke="#7d7762" stroke-width="1.0"/><line x1="157.29" y1="90.94" x2="157.29" y2="87.20" stroke="#ff5a4d" stroke-width="1.0"/><circle cx="157.29" cy="87.20" r="1.6" fill="#ff5a4d"/><circle cx="166.63" cy="90.94" r="1.8" fill="#e0b86e"/><line x1="166.63" y1="90.94" x2="166.63" y2="90.94" stroke="#7d7762" stroke-width="1.0"/><line x1="166.63" y1="90.94" x2="166.63" y2="87.20" stroke="#ff5a4d" stroke-width="1.0"/><circle cx="166.63" cy="87.20" r="1.6" fill="#ff5a4d"/><circle cx="175.87" cy="90.94" r="1.8" fill="#e0b86e"/><line x1="175.87" y1="90.94" x2="175.87" y2="90.94" stroke="#7d7762" stroke-width="1.0"/><line x1="175.87" y1="90.94" x2="175.87" y2="87.20" stroke="#ff5a4d" stroke-width="1.0"/><circle cx="175.87" cy="87.20" r="1.6" fill="#ff5a4d"/><circle cx="185.03" cy="90.94" r="1.8" fill="#e0b86e"/><line x1="185.03" y1="90.94" x2="185.03" y2="90.94" stroke="#7d7762" stroke-width="1.0"/><line x1="185.03" y1="90.94" x2="185.03" y2="87.20" stroke="#ff5a4d" stroke-width="1.0"/><circle cx="185.03" cy="87.20" r="1.6" fill="#ff5a4d"/><circle cx="194.10" cy="90.94" r="1.8" fill="#e0b86e"/><line x1="194.10" y1="90.94" x2="194.10" y2="90.94" stroke="#7d7762" stroke-width="1.0"/><line x1="194.10" y1="90.94" x2="194.10" y2="87.20" stroke="#ff5a4d" stroke-width="1.0"/><circle cx="194.10" cy="87.20" r="1.6" fill="#ff5a4d"/><circle cx="203.14" cy="90.94" r="1.8" fill="#e0b86e"/><line x1="203.14" y1="90.94" x2="203.14" y2="90.94" stroke="#7d7762" stroke-width="1.0"/><line x1="203.14" y1="90.94" x2="203.14" y2="87.20" stroke="#ff5a4d" stroke-width="1.0"/><circle cx="203.14" cy="87.20" r="1.6" fill="#ff5a4d"/><circle cx="212.13" cy="90.94" r="1.8" fill="#e0b86e"/><line x1="212.13" y1="90.94" x2="212.13" y2="90.94" stroke="#7d7762" stroke-width="1.0"/><line x1="212.13" y1="90.94" x2="212.13" y2="87.20" stroke="#ff5a4d" stroke-width="1.0"/><circle cx="212.13" cy="87.20" r="1.6" fill="#ff5a4d"/><circle cx="221.01" cy="90.94" r="1.8" fill="#e0b86e"/><line x1="221.01" y1="90.94" x2="221.01" y2="90.94" stroke="#7d7762" stroke-width="1.0"/><line x1="221.01" y1="90.94" x2="221.01" y2="87.20" stroke="#ff5a4d" stroke-width="1.0"/><circle cx="221.01" cy="87.20" r="1.6" fill="#ff5a4d"/><circle cx="229.82" cy="90.94" r="1.8" fill="#e0b86e"/><line x1="229.82" y1="90.94" x2="229.82" y2="90.94" stroke="#7d7762" stroke-width="1.0"/><line x1="229.82" y1="90.94" x2="229.82" y2="87.20" stroke="#ff5a4d" stroke-width="1.0"/><circle cx="229.82" cy="87.20" r="1.6" fill="#ff5a4d"/><circle cx="238.59" cy="90.94" r="1.8" fill="#e0b86e"/><line x1="238.59" y1="90.94" x2="238.59" y2="90.94" stroke="#7d7762" stroke-width="1.0"/><line x1="238.59" y1="90.94" x2="238.59" y2="87.20" stroke="#ff5a4d" stroke-width="1.0"/><circle cx="238.59" cy="87.20" r="1.6" fill="#ff5a4d"/><circle cx="247.32" cy="90.94" r="1.8" fill="#e0b86e"/><line x1="247.32" y1="90.94" x2="247.32" y2="90.94" stroke="#7d7762" stroke-width="1.0"/><line x1="247.32" y1="90.94" x2="247.32" y2="87.20" stroke="#ff5a4d" stroke-width="1.0"/><circle cx="247.32" cy="87.20" r="1.6" fill="#ff5a4d"/><circle cx="255.96" cy="90.94" r="1.8" fill="#e0b86e"/><line x1="255.96" y1="90.94" x2="255.96" y2="90.94" stroke="#7d7762" stroke-width="1.0"/><line x1="255.96" y1="90.94" x2="255.96" y2="87.20" stroke="#ff5a4d" stroke-width="1.0"/><circle cx="255.96" cy="87.20" r="1.6" fill="#ff5a4d"/><circle cx="264.52" cy="90.94" r="1.8" fill="#e0b86e"/><line x1="264.52" y1="90.94" x2="264.52" y2="90.94" stroke="#7d7762" stroke-width="1.0"/><line x1="264.52" y1="90.94" x2="264.52" y2="87.20" stroke="#ff5a4d" stroke-width="1.0"/><circle cx="264.52" cy="87.20" r="1.6" fill="#ff5a4d"/><circle cx="273.09" cy="90.94" r="1.8" fill="#e0b86e"/><line x1="273.09" y1="90.94" x2="273.09" y2="90.94" stroke="#7d7762" stroke-width="1.0"/><line x1="273.09" y1="90.94" x2="273.09" y2="87.20" stroke="#ff5a4d" stroke-width="1.0"/><circle cx="273.09" cy="87.20" r="1.6" fill="#ff5a4d"/><circle cx="281.61" cy="90.94" r="1.8" fill="#e0b86e"/><line x1="281.61" y1="90.94" x2="281.61" y2="90.94" stroke="#7d7762" stroke-width="1.0"/><line x1="281.61" y1="90.94" x2="281.61" y2="87.20" stroke="#ff5a4d" stroke-width="1.0"/><circle cx="281.61" cy="87.20" r="1.6" fill="#ff5a4d"/><circle cx="290.10" cy="90.94" r="1.8" fill="#e0b86e"/><line x1="290.10" y1="90.94" x2="290.10" y2="90.94" stroke="#7d7762" stroke-width="1.0"/><line x1="290.10" y1="90.94" x2="290.10" y2="87.20" stroke="#ff5a4d" stroke-width="1.0"/><circle cx="290.10" cy="87.20" r="1.6" fill="#ff5a4d"/><circle cx="298.58" cy="90.94" r="1.8" fill="#e0b86e"/><line x1="298.58" y1="90.94" x2="298.58" y2="90.94" stroke="#7d7762" stroke-width="1.0"/><line x1="298.58" y1="90.94" x2="298.58" y2="87.20" stroke="#ff5a4d" stroke-width="1.0"/><circle cx="298.58" cy="87.20" r="1.6" fill="#ff5a4d"/><circle cx="307.03" cy="90.94" r="1.8" fill="#e0b86e"/><line x1="307.03" y1="90.94" x2="307.03" y2="90.94" stroke="#7d7762" stroke-width="1.0"/><line x1="307.03" y1="90.94" x2="307.03" y2="87.20" stroke="#ff5a4d" stroke-width="1.0"/><circle cx="307.03" cy="87.20" r="1.6" fill="#ff5a4d"/><circle cx="315.44" cy="90.94" r="1.8" fill="#e0b86e"/><line x1="315.44" y1="90.94" x2="315.44" y2="90.94" stroke="#7d7762" stroke-width="1.0"/><line x1="315.44" y1="90.94" x2="315.44" y2="87.20" stroke="#ff5a4d" stroke-width="1.0"/><circle cx="315.44" cy="87.20" r="1.6" fill="#ff5a4d"/><circle cx="323.85" cy="90.94" r="1.8" fill="#e0b86e"/><line x1="323.85" y1="90.94" x2="323.85" y2="90.94" stroke="#7d7762" stroke-width="1.0"/><line x1="323.85" y1="90.94" x2="323.85" y2="87.20" stroke="#ff5a4d" stroke-width="1.0"/><circle cx="323.85" cy="87.20" r="1.6" fill="#ff5a4d"/><circle cx="332.23" cy="90.94" r="1.8" fill="#e0b86e"/><line x1="332.23" y1="90.94" x2="332.23" y2="90.94" stroke="#7d7762" stroke-width="1.0"/><line x1="332.23" y1="90.94" x2="332.23" y2="87.20" stroke="#ff5a4d" stroke-width="1.0"/><circle cx="332.23" cy="87.20" r="1.6" fill="#ff5a4d"/><circle cx="340.58" cy="90.94" r="1.8" fill="#e0b86e"/><line x1="340.58" y1="90.94" x2="340.58" y2="90.94" stroke="#7d7762" stroke-width="1.0"/><line x1="340.58" y1="90.94" x2="340.58" y2="87.20" stroke="#ff5a4d" stroke-width="1.0"/><circle cx="340.58" cy="87.20" r="1.6" fill="#ff5a4d"/><circle cx="348.92" cy="90.94" r="1.8" fill="#e0b86e"/><line x1="348.92" y1="90.94" x2="348.92" y2="90.94" stroke="#7d7762" stroke-width="1.0"/><line x1="348.92" y1="90.94" x2="348.92" y2="87.20" stroke="#ff5a4d" stroke-width="1.0"/><circle cx="348.92" cy="87.20" r="1.6" fill="#ff5a4d"/><circle cx="357.24" cy="90.94" r="1.8" fill="#e0b86e"/><line x1="357.24" y1="90.94" x2="357.24" y2="90.94" stroke="#7d7762" stroke-width="1.0"/><line x1="357.24" y1="90.94" x2="357.24" y2="87.20" stroke="#ff5a4d" stroke-width="1.0"/><circle cx="357.24" cy="87.20" r="1.6" fill="#ff5a4d"/><circle cx="365.53" cy="90.94" r="1.8" fill="#e0b86e"/><line x1="365.53" y1="90.94" x2="365.53" y2="90.94" stroke="#7d7762" stroke-width="1.0"/><line x1="365.53" y1="90.94" x2="365.53" y2="87.20" stroke="#ff5a4d" stroke-width="1.0"/><circle cx="365.53" cy="87.20" r="1.6" fill="#ff5a4d"/><circle cx="373.82" cy="90.94" r="1.8" fill="#e0b86e"/><line x1="373.82" y1="90.94" x2="373.82" y2="90.94" stroke="#7d7762" stroke-width="1.0"/><line x1="373.82" y1="90.94" x2="373.82" y2="87.20" stroke="#ff5a4d" stroke-width="1.0"/><circle cx="373.82" cy="87.20" r="1.6" fill="#ff5a4d"/><circle cx="382.11" cy="90.94" r="1.8" fill="#e0b86e"/><line x1="382.11" y1="90.94" x2="382.11" y2="90.94" stroke="#7d7762" stroke-width="1.0"/><line x1="382.11" y1="90.94" x2="382.11" y2="87.20" stroke="#ff5a4d" stroke-width="1.0"/><circle cx="382.11" cy="87.20" r="1.6" fill="#ff5a4d"/><circle cx="390.38" cy="90.94" r="1.8" fill="#e0b86e"/><line x1="390.38" y1="90.94" x2="390.38" y2="90.94" stroke="#7d7762" stroke-width="1.0"/><line x1="390.38" y1="90.94" x2="390.38" y2="87.20" stroke="#ff5a4d" stroke-width="1.0"/><circle cx="390.38" cy="87.20" r="1.6" fill="#ff5a4d"/><circle cx="398.64" cy="90.94" r="1.8" fill="#e0b86e"/><line x1="398.64" y1="90.94" x2="398.64" y2="90.94" stroke="#7d7762" stroke-width="1.0"/><line x1="398.64" y1="90.94" x2="398.64" y2="87.20" stroke="#ff5a4d" stroke-width="1.0"/><circle cx="398.64" cy="87.20" r="1.6" fill="#ff5a4d"/><circle cx="406.89" cy="90.94" r="1.8" fill="#e0b86e"/><line x1="406.89" y1="90.94" x2="406.89" y2="90.94" stroke="#7d7762" stroke-width="1.0"/><line x1="406.89" y1="90.94" x2="406.89" y2="87.20" stroke="#ff5a4d" stroke-width="1.0"/><circle cx="406.89" cy="87.20" r="1.6" fill="#ff5a4d"/><circle cx="415.13" cy="90.94" r="1.8" fill="#e0b86e"/><line x1="415.13" y1="90.94" x2="415.13" y2="90.94" stroke="#7d7762" stroke-width="1.0"/><line x1="415.13" y1="90.94" x2="415.13" y2="87.20" stroke="#ff5a4d" stroke-width="1.0"/><circle cx="415.13" cy="87.20" r="1.6" fill="#ff5a4d"/><circle cx="423.36" cy="90.94" r="1.8" fill="#e0b86e"/><line x1="423.36" y1="90.94" x2="423.36" y2="90.94" stroke="#7d7762" stroke-width="1.0"/><line x1="423.36" y1="90.94" x2="423.36" y2="87.20" stroke="#ff5a4d" stroke-width="1.0"/><circle cx="423.36" cy="87.20" r="1.6" fill="#ff5a4d"/><circle cx="431.57" cy="90.94" r="1.8" fill="#e0b86e"/><line x1="431.57" y1="90.94" x2="431.57" y2="90.94" stroke="#7d7762" stroke-width="1.0"/><line x1="431.57" y1="90.94" x2="431.57" y2="87.20" stroke="#ff5a4d" stroke-width="1.0"/><circle cx="431.57" cy="87.20" r="1.6" fill="#ff5a4d"/><circle cx="439.76" cy="90.94" r="1.8" fill="#e0b86e"/><line x1="439.76" y1="90.94" x2="439.76" y2="90.94" stroke="#7d7762" stroke-width="1.0"/><line x1="439.76" y1="90.94" x2="439.76" y2="87.20" stroke="#ff5a4d" stroke-width="1.0"/><circle cx="439.76" cy="87.20" r="1.6" fill="#ff5a4d"/><circle cx="447.94" cy="90.94" r="1.8" fill="#e0b86e"/><line x1="447.94" y1="90.94" x2="447.94" y2="90.94" stroke="#7d7762" stroke-width="1.0"/><line x1="447.94" y1="90.94" x2="447.94" y2="87.20" stroke="#ff5a4d" stroke-width="1.0"/><circle cx="447.94" cy="87.20" r="1.6" fill="#ff5a4d"/><circle cx="456.12" cy="90.94" r="1.8" fill="#e0b86e"/><line x1="456.12" y1="90.94" x2="456.12" y2="90.94" stroke="#7d7762" stroke-width="1.0"/><line x1="456.12" y1="90.94" x2="456.12" y2="87.20" stroke="#ff5a4d" stroke-width="1.0"/><circle cx="456.12" cy="87.20" r="1.6" fill="#ff5a4d"/><circle cx="464.30" cy="90.94" r="1.8" fill="#e0b86e"/><line x1="464.30" y1="90.94" x2="464.30" y2="90.94" stroke="#7d7762" stroke-width="1.0"/><line x1="464.30" y1="90.94" x2="464.30" y2="87.20" stroke="#ff5a4d" stroke-width="1.0"/><circle cx="464.30" cy="87.20" r="1.6" fill="#ff5a4d"/><circle cx="472.48" cy="90.94" r="1.8" fill="#e0b86e"/><line x1="472.48" y1="90.94" x2="472.48" y2="90.94" stroke="#7d7762" stroke-width="1.0"/><line x1="472.48" y1="90.94" x2="472.48" y2="87.20" stroke="#ff5a4d" stroke-width="1.0"/><circle cx="472.48" cy="87.20" r="1.6" fill="#ff5a4d"/><polyline points="80.00,87.20 88.77,87.20 97.47,87.20 106.08,87.20 114.63,87.20 123.16,87.20 131.63,87.20 140.04,87.20 148.42,87.20 157.29,87.20 166.63,87.20 175.87,87.20 185.03,87.20 194.10,87.20 203.14,87.20 212.13,87.20 221.01,87.20 229.82,87.20 238.59,87.20 247.32,87.20 255.96,87.20 264.52,87.20 273.09,87.20 281.61,87.20 290.10,87.20 298.58,87.20 307.03,87.20 315.44,87.20 323.85,87.20 332.23,87.20 340.58,87.20 348.92,87.20 357.24,87.20 365.53,87.20 373.82,87.20 382.11,87.20 390.38,87.20 398.64,87.20 406.89,87.20 415.13,87.20 423.36,87.20 431.57,87.20 439.76,87.20 447.94,87.20 456.12,87.20 464.30,87.20 472.48,87.20" fill="none" stroke="#ff9e6b" stroke-width="2.0"/></g>
</svg>