<svg xmlns="http://www.w3.org/2000/svg" width="560" height="930" viewBox="0 0 560 930">
<defs><linearGradient id="st" x1="0" y1="0" x2="0" y2="1"><stop offset="0" stop-color="#c8ccd3"/><stop offset=".5" stop-color="#9094a0"/><stop offset="1" stop-color="#54585f"/></linearGradient></defs>
<rect width="560" height="930" fill="#13110d"/>
<line x1="94.08" y1="89.47" x2="186.39" y2="841.28" stroke="#7d7762" stroke-width="3.35" stroke-linecap="round"/>
<line x1="103.46" y1="105.90" x2="191.73" y2="824.85" stroke="#7d7762" stroke-width="3.10" stroke-linecap="round"/>
<line x1="112.70" y1="121.72" x2="197.10" y2="809.03" stroke="#7d7762" stroke-width="2.90" stroke-linecap="round"/>
<line x1="121.81" y1="136.95" x2="202.46" y2="793.80" stroke="#7d7762" stroke-width="2.54" stroke-linecap="round"/>
<line x1="130.78" y1="151.61" x2="207.84" y2="779.14" stroke="#7d7762" stroke-width="2.44" stroke-linecap="round"/>
<line x1="139.68" y1="165.72" x2="213.27" y2="765.03" stroke="#7d7762" stroke-width="2.44" stroke-linecap="round"/>
<line x1="148.46" y1="179.31" x2="218.71" y2="751.44" stroke="#7d7762" stroke-width="2.03" stroke-linecap="round"/>
<line x1="157.13" y1="192.39" x2="224.16" y2="738.36" stroke="#7d7762" stroke-width="2.03" stroke-linecap="round"/>
<line x1="165.71" y1="205.00" x2="229.65" y2="725.75" stroke="#7d7762" stroke-width="1.83" stroke-linecap="round"/>
<line x1="174.64" y1="217.14" x2="235.60" y2="713.61" stroke="#7d7762" stroke-width="5.28" stroke-linecap="round"/>
<line x1="183.92" y1="228.84" x2="242.01" y2="701.91" stroke="#7d7762" stroke-width="4.98" stroke-linecap="round"/>
<line x1="193.07" y1="240.12" x2="248.39" y2="690.63" stroke="#7d7762" stroke-width="4.67" stroke-linecap="round"/>
<line x1="202.09" y1="250.99" x2="254.74" y2="679.76" stroke="#7d7762" stroke-width="4.37" stroke-linecap="round"/>
<line x1="211.00" y1="261.47" x2="261.07" y2="669.28" stroke="#7d7762" stroke-width="4.11" stroke-linecap="round"/>
<line x1="219.82" y1="271.58" x2="267.41" y2="659.17" stroke="#7d7762" stroke-width="4.11" stroke-linecap="round"/>
<line x1="228.57" y1="281.33" x2="273.77" y2="649.42" stroke="#7d7762" stroke-width="3.86" stroke-linecap="round"/>
<line x1="237.19" y1="290.73" x2="280.07" y2="640.02" stroke="#7d7762" stroke-width="3.35" stroke-linecap="round"/>
<line x1="245.69" y1="299.81" x2="286.35" y2="630.94" stroke="#7d7762" stroke-width="3.35" stroke-linecap="round"/>
<line x1="254.13" y1="308.57" x2="292.64" y2="622.19" stroke="#7d7762" stroke-width="3.10" stroke-linecap="round"/>
<line x1="262.50" y1="317.02" x2="298.93" y2="613.73" stroke="#7d7762" stroke-width="3.10" stroke-linecap="round"/>
<line x1="270.76" y1="325.18" x2="305.19" y2="605.57" stroke="#7d7762" stroke-width="2.54" stroke-linecap="round"/>
<line x1="278.91" y1="333.06" x2="311.41" y2="597.69" stroke="#7d7762" stroke-width="2.54" stroke-linecap="round"/>
<line x1="287.04" y1="340.67" x2="317.66" y2="590.08" stroke="#7d7762" stroke-width="2.54" stroke-linecap="round"/>
<line x1="295.10" y1="348.03" x2="323.91" y2="582.72" stroke="#7d7762" stroke-width="2.29" stroke-linecap="round"/>
<line x1="303.09" y1="355.14" x2="330.17" y2="575.61" stroke="#7d7762" stroke-width="2.29" stroke-linecap="round"/>
<line x1="311.06" y1="362.00" x2="336.45" y2="568.75" stroke="#7d7762" stroke-width="2.29" stroke-linecap="round"/>
<line x1="318.97" y1="368.65" x2="342.72" y2="562.10" stroke="#7d7762" stroke-width="2.03" stroke-linecap="round"/>
<line x1="326.82" y1="375.07" x2="349.00" y2="555.68" stroke="#7d7762" stroke-width="2.03" stroke-linecap="round"/>
<line x1="334.64" y1="381.28" x2="355.29" y2="549.47" stroke="#7d7762" stroke-width="2.03" stroke-linecap="round"/>
<line x1="342.42" y1="387.29" x2="361.59" y2="543.46" stroke="#7d7762" stroke-width="1.83" stroke-linecap="round"/>
<line x1="350.14" y1="393.11" x2="367.89" y2="537.64" stroke="#7d7762" stroke-width="1.83" stroke-linecap="round"/>
<line x1="357.84" y1="398.74" x2="374.20" y2="532.01" stroke="#7d7762" stroke-width="1.83" stroke-linecap="round"/>
<line x1="365.49" y1="404.19" x2="380.52" y2="526.56" stroke="#7d7762" stroke-width="1.63" stroke-linecap="round"/>
<line x1="373.10" y1="409.47" x2="386.83" y2="521.28" stroke="#7d7762" stroke-width="1.63" stroke-linecap="round"/>
<line x1="380.69" y1="414.58" x2="393.16" y2="516.17" stroke="#7d7762" stroke-width="1.63" stroke-linecap="round"/>
<line x1="388.25" y1="419.53" x2="399.51" y2="511.22" stroke="#7d7762" stroke-width="1.63" stroke-linecap="round"/>
<line x1="395.79" y1="424.34" x2="405.87" y2="506.41" stroke="#7d7762" stroke-width="1.52" stroke-linecap="round"/>
<line x1="403.29" y1="428.99" x2="412.23" y2="501.76" stroke="#7d7762" stroke-width="1.52" stroke-linecap="round"/>
<line x1="410.78" y1="433.50" x2="418.61" y2="497.25" stroke="#7d7762" stroke-width="1.52" stroke-linecap="round"/>
<line x1="418.23" y1="437.87" x2="424.99" y2="492.88" stroke="#7d7762" stroke-width="1.42" stroke-linecap="round"/>
<line x1="425.66" y1="442.11" x2="431.37" y2="488.64" stroke="#7d7762" stroke-width="1.42" stroke-linecap="round"/>
<line x1="433.06" y1="446.23" x2="437.76" y2="484.52" stroke="#7d7762" stroke-width="1.32" stroke-linecap="round"/>
<line x1="440.43" y1="450.22" x2="444.15" y2="480.53" stroke="#7d7762" stroke-width="1.27" stroke-linecap="round"/>
<line x1="447.77" y1="454.10" x2="450.54" y2="476.65" stroke="#7d7762" stroke-width="1.27" stroke-linecap="round"/>
<line x1="455.10" y1="457.86" x2="456.95" y2="472.89" stroke="#7d7762" stroke-width="1.27" stroke-linecap="round"/>
<line x1="460.61" y1="446.77" x2="465.18" y2="483.99" stroke="#7d7762" stroke-width="1.27" stroke-linecap="round"/>
<line x1="467.92" y1="450.34" x2="471.61" y2="480.41" stroke="#7d7762" stroke-width="1.27" stroke-linecap="round"/>
<path d="M 93.51,84.80 94.86,86.86 96.22,88.92 97.57,90.98 98.93,93.04 100.28,95.09 101.63,97.13 102.99,99.18 104.34,101.22 105.69,103.25 107.04,105.29 108.39,107.31 109.74,109.34 111.09,111.36 112.44,113.37 113.79,115.38 115.14,117.38 116.49,119.38 117.83,121.37 119.18,123.36 120.53,125.34 121.87,127.32 123.21,129.29 124.56,131.25 125.90,133.21 127.24,135.16 128.58,137.10 129.92,139.04 131.26,140.97 132.60,142.90 133.94,144.82 135.28,146.73 136.61,148.63 137.95,150.53 139.28,152.42 140.61,154.30 141.95,156.17 143.28,158.04 144.61,159.90 145.94,161.75 147.27,163.60 148.59,165.43 149.92,167.26 151.25,169.08 152.57,170.90 153.89,172.70 155.22,174.50 156.54,176.29 157.86,178.07 159.18,179.84 160.50,181.61 161.82,183.37 163.13,185.11 164.45,186.86 165.76,188.59 167.08,190.31 168.39,192.03 169.70,193.74 171.01,195.43 172.32,197.13 173.63,198.81 174.94,200.48 176.25,202.15 177.55,203.81 178.86,205.46 180.16,207.10 181.46,208.73 182.76,210.36 184.06,211.97 185.36,213.58 186.66,215.18 187.96,216.77 189.26,218.36 190.55,219.93 191.85,221.50 193.14,223.06 194.43,224.61 195.72,226.15 197.01,227.69 198.30,229.21 199.59,230.73 200.88,232.24 202.17,233.75 203.45,235.24 204.74,236.73 206.02,238.21 207.30,239.68 208.59,241.15 209.87,242.60 211.15,244.05 212.43,245.50 213.70,246.93 214.98,248.36 216.26,249.78 217.53,251.19 218.81,252.59 220.08,253.99 221.35,255.38 222.63,256.77 223.90,258.14 225.17,259.51 226.44,260.88 227.71,262.23 228.97,263.58 230.24,264.93 231.51,266.26 232.77,267.59 234.04,268.92 235.30,270.23 236.56,271.54 237.83,272.85 239.09,274.15 240.35,275.44 241.61,276.72 242.87,278.00 244.13,279.28 245.38,280.55 246.64,281.81 247.90,283.07 249.15,284.32 250.41,285.57 251.66,286.81 252.92,288.04 254.17,289.27 255.42,290.50 256.67,291.72 257.93,292.93 259.18,294.14 260.43,295.35 261.68,296.55 262.93,297.74 264.17,298.93 265.42,300.12 266.67,301.30 267.92,302.48 269.16,303.65 270.41,304.82 271.65,305.98 272.90,307.15 274.14,308.30 275.38,309.45 276.63,310.60 277.87,311.75 279.11,312.89 280.35,314.03 281.60,315.16 282.84,316.29 284.08,317.42 285.32,318.54 286.56,319.66 287.80,320.78 289.03,321.89 290.27,323.00 291.51,324.11 292.75,325.21 293.99,326.31 295.22,327.41 296.46,328.51 297.70,329.60 298.93,330.69 300.17,331.78 301.40,332.86 302.64,333.94 303.87,335.02 305.11,336.10 306.34,337.18 307.57,338.25 308.81,339.32 310.04,340.39 311.27,341.45 312.51,342.52 313.74,343.58 314.97,344.64 316.20,345.69 317.43,346.75 318.67,347.80 319.90,348.85 321.13,349.90 322.36,350.95 323.59,352.00 324.82,353.04 326.05,354.08 327.28,355.12 328.51,356.16 329.74,357.20 330.97,358.23 332.20,359.27 333.43,360.30 334.65,361.33 335.88,362.36 337.11,363.38 338.34,364.41 339.57,365.43 340.79,366.45 342.02,367.47 343.25,368.49 344.47,369.50 345.70,370.52 346.93,371.53 348.15,372.54 349.38,373.55 350.61,374.56 351.83,375.56 353.06,376.57 354.28,377.57 355.51,378.57 356.73,379.56 357.96,380.56 359.18,381.55 360.40,382.54 361.63,383.53 362.85,384.52 364.07,385.50 365.30,386.48 366.52,387.46 367.74,388.44 368.96,389.41 370.18,390.38 371.40,391.35 372.62,392.32 373.84,393.28 375.06,394.24 376.28,395.20 377.50,396.15 378.72,397.10 379.94,398.05 381.16,398.99 382.38,399.93 383.59,400.86 384.81,401.80 386.03,402.72 387.24,403.65 388.46,404.57 389.67,405.48 390.88,406.39 392.10,407.30 393.31,408.20 394.52,409.10 395.73,409.99 396.94,410.88 398.15,411.76 399.36,412.63 400.57,413.50 401.78,414.36 402.99,415.22 404.20,416.07 405.40,416.92 406.61,417.75 407.81,418.59 409.01,419.41 410.22,420.23 411.42,421.03 412.62,421.84 413.82,422.63 415.02,423.41 416.21,424.19 417.41,424.96 418.61,425.72 419.80,426.47 420.99,427.21 422.18,427.94 423.37,428.66 424.56,429.38 425.75,430.08 426.94,430.77 428.12,431.45 429.31,432.11 430.49,432.77 431.67,433.42 432.85,434.05 434.03,434.67 435.21,435.28 436.38,435.87 437.56,436.45 438.73,437.02 439.90,437.57 441.07,438.11 442.23,438.64 443.40,439.14 444.56,439.64 445.72,440.12 446.88,440.58 448.04,441.02 449.19,441.45 450.34,441.86 451.49,442.26 452.64,442.63 453.79,442.99 454.93,443.32 456.07,443.64 457.21,443.94 458.35,444.22 459.48,444.48 460.61,444.72 461.74,444.93 462.87,445.12 463.99,445.30 465.11,445.44 466.23,445.57 467.34,445.67 467.34,445.67 467.81,445.74 468.26,445.83 468.71,445.94 469.15,446.08 469.59,446.25 470.01,446.44 470.43,446.65 470.84,446.88 471.24,447.13 471.64,447.41 472.03,447.71 472.41,448.02 472.78,448.36 473.14,448.71 473.50,449.08 473.85,449.47 474.19,449.88 474.52,450.30 474.84,450.74 475.15,451.19 475.46,451.66 475.76,452.14 476.05,452.64 476.32,453.14 476.60,453.66 476.86,454.19 477.11,454.74 477.35,455.29 477.59,455.85 477.81,456.42 478.03,457.00 478.24,457.59 478.43,458.19 478.62,458.79 478.80,459.40 478.97,460.01 479.13,460.63 479.27,461.25 479.41,461.88 479.54,462.51 479.66,463.15 479.77,463.78 479.87,464.42 479.96,465.06 480.04,465.69 480.11,466.33 480.16,466.97 480.21,467.60 480.25,468.24 480.27,468.87 480.29,469.50 480.29,470.12 480.28,470.74 480.27,471.35 480.24,471.96 480.20,472.56 480.15,473.16 480.09,473.75 480.01,474.33 479.93,474.90 479.83,475.46 479.72,476.01 479.60,476.56 479.47,477.09 479.33,477.61 479.17,478.11 479.01,478.61 478.83,479.09 478.64,479.56 478.43,480.01 478.22,480.45 477.99,480.87 477.75,481.28 477.50,481.67 477.24,482.04 476.96,482.39 476.67,482.73 476.37,483.04 476.05,483.34 475.72,483.62 475.38,483.87 475.03,484.10 474.66,484.31 474.28,484.50 473.89,484.67 473.48,484.81 473.06,484.92 472.63,485.01 472.18,485.08 472.18,485.08 471.09,485.18 470.01,485.31 468.92,485.45 467.84,485.63 466.76,485.82 465.69,486.03 464.61,486.27 463.54,486.53 462.48,486.81 461.41,487.11 460.35,487.43 459.29,487.76 458.23,488.12 457.17,488.50 456.12,488.89 455.07,489.30 454.02,489.73 452.97,490.17 451.92,490.63 450.88,491.11 449.84,491.61 448.80,492.12 447.76,492.64 446.73,493.18 445.69,493.73 444.66,494.30 443.63,494.88 442.60,495.47 441.57,496.08 440.55,496.70 439.52,497.34 438.50,497.98 437.48,498.64 436.46,499.30 435.44,499.98 434.42,500.67 433.40,501.38 432.39,502.09 431.38,502.81 430.36,503.54 429.35,504.28 428.34,505.03 427.33,505.79 426.33,506.56 425.32,507.34 424.31,508.12 423.31,508.91 422.31,509.72 421.30,510.53 420.30,511.34 419.30,512.17 418.30,513.00 417.30,513.83 416.30,514.68 415.31,515.53 414.31,516.39 413.31,517.25 412.32,518.12 411.32,518.99 410.33,519.88 409.33,520.76 408.34,521.65 407.35,522.55 406.36,523.45 405.37,524.36 404.38,525.27 403.39,526.18 402.40,527.10 401.41,528.03 400.42,528.95 399.43,529.89 398.45,530.82 397.46,531.76 396.47,532.70 395.49,533.65 394.50,534.60 393.52,535.56 392.53,536.51 391.55,537.47 390.57,538.43 389.58,539.40 388.60,540.37 387.62,541.34 386.63,542.31 385.65,543.29 384.67,544.27 383.69,545.25 382.71,546.23 381.72,547.22 380.74,548.21 379.76,549.20 378.78,550.19 377.80,551.19 376.82,552.18 375.84,553.18 374.87,554.19 373.89,555.19 372.91,556.19 371.93,557.20 370.95,558.21 369.97,559.22 369.00,560.23 368.02,561.25 367.04,562.26 366.06,563.28 365.09,564.30 364.11,565.32 363.13,566.34 362.16,567.37 361.18,568.39 360.20,569.42 359.23,570.45 358.25,571.48 357.28,572.52 356.30,573.55 355.33,574.59 354.35,575.63 353.38,576.67 352.41,577.71 351.43,578.75 350.46,579.80 349.48,580.85 348.51,581.90 347.54,582.95 346.57,584.00 345.59,585.06 344.62,586.11 343.65,587.17 342.68,588.24 341.71,589.30 340.73,590.36 339.76,591.43 338.79,592.50 337.82,593.58 336.85,594.65 335.88,595.73 334.91,596.81 333.94,597.89 332.97,598.97 332.01,600.06 331.04,601.15 330.07,602.24 329.10,603.34 328.14,604.44 327.17,605.54 326.20,606.64 325.24,607.75 324.27,608.86 323.30,609.98 322.34,611.09 321.37,612.21 320.41,613.33 319.45,614.46 318.48,615.59 317.52,616.73 316.56,617.86 315.60,619.00 314.63,620.15 313.67,621.30 312.71,622.45 311.75,623.61 310.79,624.77 309.83,625.93 308.88,627.10 307.92,628.27 306.96,629.45 306.00,630.63 305.05,631.82 304.09,633.01 303.14,634.20 302.18,635.40 301.23,636.61 300.27,637.82 299.32,639.03 298.37,640.25 297.42,641.48 296.46,642.71 295.51,643.94 294.56,645.18 293.62,646.43 292.67,647.68 291.72,648.94 290.77,650.20 289.83,651.47 288.88,652.75 287.94,654.03 286.99,655.31 286.05,656.60 285.11,657.90 284.16,659.21 283.22,660.52 282.28,661.83 281.34,663.16 280.40,664.49 279.47,665.82 278.53,667.17 277.59,668.52 276.66,669.87 275.72,671.24 274.79,672.61 273.85,673.98 272.92,675.37 271.99,676.76 271.06,678.16 270.13,679.56 269.20,680.97 268.27,682.39 267.35,683.82 266.42,685.25 265.50,686.70 264.57,688.15 263.65,689.60 262.73,691.07 261.81,692.54 260.89,694.02 259.97,695.51 259.05,697.00 258.13,698.51 257.21,700.02 256.30,701.54 255.38,703.06 254.47,704.60 253.56,706.14 252.65,707.69 251.73,709.25 250.83,710.82 249.92,712.39 249.01,713.98 248.10,715.57 247.20,717.17 246.29,718.78 245.39,720.39 244.49,722.02 243.58,723.65 242.68,725.29 241.78,726.94 240.89,728.60 239.99,730.27 239.09,731.94 238.20,733.62 237.30,735.32 236.41,737.02 235.52,738.72 234.62,740.44 233.73,742.16 232.84,743.90 231.96,745.64 231.07,747.38 230.18,749.14 229.30,750.91 228.41,752.68 227.53,754.46 226.65,756.25 225.77,758.05 224.88,759.85 224.01,761.67 223.13,763.49 222.25,765.32 221.37,767.15 220.50,769.00 219.62,770.85 218.75,772.71 217.88,774.58 217.00,776.45 216.13,778.33 215.26,780.22 214.39,782.12 213.53,784.02 212.66,785.94 211.79,787.85 210.93,789.78 210.06,791.71 209.20,793.65 208.33,795.59 207.47,797.54 206.61,799.50 205.75,801.46 204.89,803.43 204.03,805.41 203.17,807.39 202.31,809.38 201.45,811.37 200.60,813.37 199.74,815.37 198.89,817.38 198.03,819.39 197.18,821.41 196.32,823.44 195.47,825.46 194.62,827.50 193.76,829.53 192.91,831.57 192.06,833.62 191.21,835.66 190.36,837.72 189.51,839.77 188.66,841.83 187.81,843.89 186.96,845.95 186.96,845.95 185.83,848.24 184.65,849.79 183.40,850.63 182.10,850.75 180.75,850.19 179.35,848.95 177.90,847.06 176.40,844.54 174.86,841.39 173.28,837.64 171.65,833.30 169.99,828.40 168.30,822.94 166.57,816.94 164.80,810.43 163.01,803.42 161.19,795.92 159.35,787.95 157.48,779.54 155.59,770.69 153.69,761.42 151.76,751.76 149.82,741.71 147.87,731.29 145.91,720.53 143.94,709.44 141.96,698.03 139.98,686.33 137.99,674.34 136.01,662.09 134.02,649.59 132.04,636.87 130.07,623.93 128.11,610.80 126.15,597.49 124.21,584.01 122.28,570.40 120.37,556.65 118.47,542.80 116.60,528.85 114.75,514.82 112.92,500.74 111.13,486.61 109.36,472.46 107.62,458.29 105.91,444.14 104.24,430.01 102.61,415.93 101.01,401.90 99.46,387.95 97.95,374.10 96.49,360.35 95.07,346.74 93.71,333.26 92.39,319.95 91.13,306.82 89.93,293.88 88.78,281.16 87.70,268.66 86.68,256.41 85.72,244.43 84.83,232.72 84.00,221.31 83.25,210.22 82.57,199.46 81.96,189.04 81.44,179.00 80.99,169.33 80.62,160.06 80.33,151.21 80.13,142.80 80.02,134.83 80.00,127.33 80.07,120.32 80.23,113.81 80.49,107.81 80.85,102.35 81.30,97.45 81.86,93.11 82.52,89.36 83.29,86.21 84.17,83.69 85.15,81.80 86.25,80.56 87.47,80.00 88.80,80.13 90.24,80.96 91.81,82.51 93.51,84.80 Z M 94.65,94.13 96.11,97.06 97.57,99.97 99.03,102.87 100.49,105.74 101.94,108.59 103.39,111.43 104.84,114.24 106.28,117.04 107.72,119.81 109.17,122.57 110.60,125.31 112.04,128.03 113.47,130.73 114.90,133.41 116.33,136.07 117.76,138.71 119.18,141.33 120.61,143.94 122.03,146.53 123.44,149.09 124.86,151.64 126.27,154.18 127.68,156.69 129.09,159.18 130.50,161.66 131.90,164.12 133.30,166.56 134.70,168.98 136.10,171.39 137.49,173.78 138.89,176.15 140.28,178.50 141.67,180.84 143.05,183.15 144.44,185.45 145.82,187.74 147.20,190.00 148.58,192.25 149.96,194.49 151.33,196.70 152.70,198.90 154.07,201.09 155.44,203.26 156.81,205.41 158.17,207.54 159.53,209.66 160.89,211.76 162.25,213.85 163.61,215.92 164.96,217.98 166.32,220.02 167.67,222.04 169.02,224.05 170.36,226.05 171.71,228.03 173.05,229.99 174.39,231.94 175.73,233.88 177.07,235.80 178.41,237.71 179.74,239.60 181.07,241.48 182.41,243.34 183.73,245.19 185.06,247.03 186.39,248.85 187.71,250.66 189.03,252.46 190.36,254.24 191.67,256.01 192.99,257.76 194.31,259.51 195.62,261.24 196.94,262.96 198.25,264.66 199.56,266.35 200.87,268.04 202.17,269.70 203.48,271.36 204.78,273.00 206.09,274.64 207.39,276.26 208.69,277.87 209.98,279.47 211.28,281.05 212.58,282.63 213.87,284.19 215.16,285.75 216.46,287.29 217.75,288.82 219.03,290.34 220.32,291.85 221.61,293.35 222.89,294.84 224.18,296.33 225.46,297.80 226.74,299.26 228.02,300.71 229.30,302.15 230.58,303.58 231.86,305.00 233.13,306.42 234.41,307.82 235.68,309.22 236.95,310.60 238.22,311.98 239.49,313.35 240.76,314.71 242.03,316.06 243.30,317.41 244.56,318.74 245.83,320.07 247.09,321.39 248.36,322.70 249.62,324.00 250.88,325.30 252.14,326.59 253.40,327.87 254.66,329.14 255.92,330.41 257.17,331.67 258.43,332.92 259.68,334.17 260.94,335.41 262.19,336.64 263.44,337.86 264.69,339.08 265.95,340.30 267.20,341.50 268.45,342.70 269.69,343.90 270.94,345.08 272.19,346.27 273.44,347.44 274.68,348.61 275.93,349.78 277.17,350.93 278.41,352.09 279.66,353.24 280.90,354.38 282.14,355.52 283.38,356.65 284.62,357.77 285.86,358.90 287.10,360.01 288.34,361.12 289.58,362.23 290.82,363.33 292.05,364.43 293.29,365.52 294.52,366.61 295.76,367.69 296.99,368.77 298.23,369.84 299.46,370.91 300.69,371.98 301.93,373.04 303.16,374.10 304.39,375.15 305.62,376.20 306.85,377.24 308.08,378.28 309.31,379.32 310.54,380.35 311.77,381.38 313.00,382.40 314.22,383.42 315.45,384.44 316.68,385.45 317.90,386.46 319.13,387.46 320.35,388.46 321.58,389.46 322.80,390.45 324.02,391.44 325.25,392.43 326.47,393.41 327.69,394.39 328.91,395.36 330.14,396.33 331.36,397.30 332.58,398.26 333.80,399.22 335.02,400.17 336.23,401.12 337.45,402.07 338.67,403.01 339.89,403.95 341.10,404.89 342.32,405.82 343.54,406.74 344.75,407.67 345.97,408.59 347.18,409.50 348.40,410.41 349.61,411.32 350.82,412.22 352.03,413.12 353.25,414.01 354.46,414.90 355.67,415.78 356.88,416.66 358.09,417.53 359.30,418.40 360.50,419.27 361.71,420.13 362.92,420.98 364.13,421.83 365.33,422.68 366.54,423.52 367.74,424.35 368.94,425.18 370.15,426.00 371.35,426.82 372.55,427.63 373.75,428.44 374.95,429.24 376.15,430.03 377.35,430.82 378.55,431.60 379.75,432.37 380.94,433.14 382.14,433.90 383.33,434.66 384.53,435.40 385.72,436.14 386.91,436.87 388.10,437.60 389.29,438.31 390.48,439.02 391.67,439.72 392.86,440.42 394.04,441.10 395.23,441.78 396.41,442.44 397.60,443.10 398.78,443.75 399.96,444.39 401.14,445.02 402.32,445.64 403.49,446.25 404.67,446.85 405.84,447.44 407.02,448.01 408.19,448.58 409.36,449.14 410.53,449.68 411.69,450.22 412.86,450.74 414.03,451.25 415.19,451.75 416.35,452.23 417.51,452.70 418.67,453.16 419.83,453.61 420.98,454.04 422.13,454.46 423.29,454.86 424.44,455.25 425.58,455.63 426.73,455.98 427.87,456.33 429.02,456.66 430.16,456.97 431.30,457.26 432.43,457.54 433.57,457.81 434.70,458.05 435.83,458.28 436.96,458.49 438.08,458.68 439.20,458.85 440.33,459.00 441.44,459.14 442.56,459.25 443.67,459.34 444.78,459.42 445.89,459.47 447.00,459.50 448.10,459.51 449.20,459.50 450.30,459.46 451.40,459.40 452.49,459.32 453.58,459.22 454.66,459.09 455.75,458.93 456.83,458.75 457.90,458.55 458.98,458.32 460.05,458.06 461.11,457.78 462.18,457.47 463.24,457.13 464.30,456.76 465.35,456.36 466.40,455.94 467.45,455.49 468.49,455.00 468.49,455.00 468.77,454.89 469.04,454.80 469.31,454.74 469.58,454.70 469.84,454.68 470.10,454.68 470.36,454.70 470.61,454.75 470.85,454.81 471.09,454.89 471.33,454.99 471.57,455.11 471.79,455.24 472.02,455.39 472.24,455.56 472.45,455.75 472.66,455.95 472.87,456.16 473.07,456.39 473.26,456.63 473.46,456.89 473.64,457.16 473.82,457.44 474.00,457.73 474.17,458.03 474.33,458.35 474.49,458.67 474.64,459.00 474.79,459.34 474.93,459.70 475.07,460.05 475.20,460.42 475.33,460.79 475.45,461.17 475.56,461.55 475.67,461.94 475.77,462.33 475.86,462.73 475.95,463.13 476.04,463.54 476.11,463.94 476.18,464.35 476.25,464.76 476.30,465.17 476.35,465.58 476.40,465.99 476.43,466.40 476.46,466.81 476.49,467.21 476.50,467.62 476.51,468.02 476.52,468.42 476.51,468.81 476.50,469.20 476.48,469.58 476.45,469.96 476.42,470.33 476.38,470.70 476.33,471.06 476.27,471.41 476.21,471.75 476.14,472.08 476.06,472.40 475.97,472.72 475.87,473.02 475.77,473.31 475.66,473.59 475.54,473.86 475.41,474.12 475.28,474.36 475.13,474.59 474.98,474.80 474.82,475.00 474.65,475.19 474.47,475.36 474.28,475.51 474.09,475.64 473.88,475.76 473.67,475.86 473.45,475.94 473.22,476.00 472.98,476.05 472.73,476.07 472.47,476.07 472.20,476.05 471.92,476.01 471.64,475.95 471.34,475.86 471.04,475.75 471.04,475.75 469.87,475.27 468.72,474.81 467.56,474.39 466.41,473.99 465.26,473.62 464.12,473.28 462.98,472.97 461.84,472.69 460.71,472.43 459.58,472.20 458.45,472.00 457.33,471.82 456.21,471.66 455.09,471.53 453.97,471.43 452.86,471.35 451.75,471.29 450.65,471.25 449.54,471.24 448.44,471.25 447.34,471.28 446.25,471.33 445.15,471.41 444.06,471.50 442.98,471.61 441.89,471.75 440.81,471.90 439.73,472.07 438.65,472.26 437.57,472.47 436.50,472.70 435.42,472.94 434.35,473.21 433.29,473.49 432.22,473.78 431.16,474.09 430.10,474.42 429.04,474.77 427.98,475.13 426.92,475.50 425.87,475.89 424.81,476.29 423.76,476.71 422.71,477.14 421.67,477.59 420.62,478.05 419.58,478.52 418.53,479.00 417.49,479.50 416.45,480.01 415.42,480.53 414.38,481.07 413.34,481.61 412.31,482.17 411.28,482.74 410.25,483.31 409.22,483.90 408.19,484.50 407.16,485.11 406.14,485.73 405.11,486.36 404.09,487.00 403.07,487.65 402.04,488.31 401.02,488.97 400.00,489.65 398.99,490.33 397.97,491.03 396.95,491.73 395.94,492.44 394.92,493.15 393.91,493.88 392.90,494.61 391.89,495.35 390.88,496.09 389.87,496.85 388.86,497.61 387.85,498.38 386.84,499.15 385.84,499.93 384.83,500.72 383.83,501.51 382.82,502.31 381.82,503.12 380.82,503.93 379.82,504.75 378.82,505.57 377.81,506.40 376.81,507.23 375.82,508.07 374.82,508.92 373.82,509.77 372.82,510.62 371.83,511.48 370.83,512.35 369.84,513.22 368.84,514.09 367.85,514.97 366.85,515.85 365.86,516.74 364.87,517.63 363.88,518.53 362.88,519.43 361.89,520.34 360.90,521.25 359.91,522.16 358.92,523.08 357.93,524.01 356.95,524.93 355.96,525.86 354.97,526.80 353.98,527.74 353.00,528.68 352.01,529.63 351.03,530.58 350.04,531.53 349.06,532.49 348.07,533.45 347.09,534.42 346.11,535.39 345.12,536.36 344.14,537.34 343.16,538.32 342.18,539.31 341.20,540.30 340.22,541.29 339.24,542.29 338.26,543.29 337.28,544.29 336.30,545.30 335.33,546.31 334.35,547.33 333.37,548.35 332.39,549.37 331.42,550.40 330.44,551.43 329.47,552.47 328.49,553.51 327.52,554.55 326.55,555.60 325.57,556.65 324.60,557.71 323.63,558.77 322.66,559.84 321.69,560.91 320.72,561.98 319.75,563.06 318.78,564.14 317.81,565.23 316.84,566.32 315.88,567.42 314.91,568.52 313.94,569.63 312.98,570.74 312.01,571.86 311.05,572.98 310.08,574.10 309.12,575.24 308.16,576.37 307.20,577.51 306.23,578.66 305.27,579.82 304.31,580.97 303.36,582.14 302.40,583.31 301.44,584.48 300.48,585.67 299.53,586.85 298.57,588.05 297.62,589.25 296.66,590.45 295.71,591.67 294.76,592.89 293.80,594.11 292.85,595.34 291.90,596.58 290.95,597.83 290.01,599.08 289.06,600.34 288.11,601.61 287.17,602.88 286.22,604.16 285.28,605.45 284.33,606.75 283.39,608.05 282.45,609.36 281.51,610.68 280.57,612.01 279.63,613.35 278.70,614.69 277.76,616.04 276.83,617.40 275.89,618.77 274.96,620.15 274.03,621.53 273.10,622.93 272.17,624.33 271.24,625.75 270.31,627.17 269.38,628.60 268.46,630.04 267.54,631.49 266.61,632.95 265.69,634.43 264.77,635.91 263.85,637.40 262.93,638.90 262.02,640.41 261.10,641.93 260.19,643.46 259.28,645.00 258.36,646.56 257.45,648.12 256.55,649.70 255.64,651.28 254.73,652.88 253.83,654.49 252.92,656.11 252.02,657.75 251.12,659.39 250.22,661.05 249.33,662.72 248.43,664.40 247.54,666.09 246.64,667.79 245.75,669.51 244.86,671.24 243.98,672.99 243.09,674.74 242.20,676.51 241.32,678.29 240.44,680.09 239.56,681.90 238.68,683.72 237.80,685.56 236.93,687.41 236.06,689.27 235.19,691.15 234.32,693.04 233.45,694.95 232.58,696.87 231.72,698.81 230.85,700.76 229.99,702.72 229.13,704.70 228.28,706.70 227.42,708.71 226.57,710.73 225.72,712.77 224.87,714.83 224.02,716.90 223.17,718.99 222.33,721.09 221.49,723.21 220.65,725.34 219.81,727.50 218.97,729.66 218.14,731.85 217.31,734.05 216.48,736.26 215.65,738.50 214.82,740.75 214.00,743.01 213.18,745.30 212.36,747.60 211.54,749.92 210.73,752.25 209.91,754.60 209.10,756.97 208.29,759.36 207.49,761.77 206.68,764.19 205.88,766.63 205.08,769.09 204.28,771.57 203.49,774.06 202.69,776.57 201.90,779.11 201.11,781.66 200.32,784.22 199.54,786.81 198.76,789.42 197.98,792.04 197.20,794.68 196.43,797.34 195.65,800.02 194.88,802.72 194.11,805.44 193.35,808.18 192.58,810.94 191.82,813.71 191.06,816.51 190.31,819.32 189.55,822.16 188.80,825.01 188.05,827.88 187.31,830.78 186.56,833.69 185.82,836.62 185.82,836.62 185.19,838.60 184.49,839.87 183.73,840.46 182.90,840.37 182.02,839.63 181.08,838.25 180.08,836.25 179.02,833.64 177.91,830.44 176.75,826.67 175.55,822.34 174.29,817.47 173.00,812.07 171.66,806.16 170.27,799.76 168.85,792.88 167.40,785.54 165.90,777.76 164.38,769.54 162.82,760.92 161.24,751.90 159.63,742.49 157.99,732.73 156.33,722.61 154.65,712.17 152.96,701.41 151.24,690.35 149.51,679.00 147.77,667.39 146.01,655.53 144.25,643.44 142.48,631.12 140.70,618.61 138.93,605.91 137.15,593.03 135.37,580.01 133.59,566.85 131.82,553.56 130.06,540.17 128.31,526.69 126.56,513.14 124.83,499.54 123.12,485.89 121.42,472.22 119.74,458.54 118.08,444.86 116.44,431.21 114.83,417.61 113.25,404.06 111.69,390.58 110.17,377.19 108.68,363.90 107.22,350.74 105.80,337.72 104.42,324.84 103.08,312.14 101.78,299.63 100.52,287.31 99.32,275.22 98.16,263.36 97.05,251.75 95.99,240.40 94.99,229.34 94.05,218.58 93.16,208.14 92.34,198.02 91.58,188.26 90.88,178.86 90.25,169.83 89.69,161.21 89.19,152.99 88.77,145.21 88.43,137.87 88.16,130.99 87.97,124.59 87.86,118.68 87.83,113.28 87.89,108.41 88.03,104.08 88.26,100.31 88.59,97.11 89.00,94.50 89.51,92.50 90.11,91.12 90.82,90.38 91.62,90.29 92.53,90.88 93.54,92.15 94.65,94.13 Z" fill="url(#st)" fill-rule="evenodd" stroke="#ff9e6b" stroke-width="1.6"/>
<circle cx="95.24" cy="89.32" r="0.75" fill="#6ee0a0"/>
<circle cx="186.39" cy="841.28" r="2.00" fill="#e0b86e"/>
<circle cx="186.39" cy="841.28" r="0.60" fill="#13110d"/>
<circle cx="104.59" cy="105.76" r="0.75" fill="#6ee0a0"/>
<circle cx="191.73" cy="824.85" r="2.00" fill="#e0b86e"/>
<circle cx="191.73" cy="824.85" r="0.60" fill="#13110d"/>
<circle cx="113.81" cy="121.59" r="0.75" fill="#6ee0a0"/>
<circle cx="197.10" cy="809.03" r="2.00" fill="#e0b86e"/>
<circle cx="197.10" cy="809.03" r="0.60" fill="#13110d"/>
<circle cx="122.87" cy="136.82" r="0.75" fill="#6ee0a0"/>
<circle cx="202.46" cy="793.80" r="2.00" fill="#e0b86e"/>
<circle cx="202.46" cy="793.80" r="0.60" fill="#13110d"/>
<circle cx="131.83" cy="151.48" r="0.75" fill="#6ee0a0"/>
<circle cx="207.84" cy="779.14" r="2.00" fill="#e0b86e"/>
<circle cx="207.84" cy="779.14" r="0.60" fill="#13110d"/>
<circle cx="140.73" cy="165.59" r="0.75" fill="#6ee0a0"/>
<circle cx="213.27" cy="765.03" r="2.00" fill="#e0b86e"/>
<circle cx="213.27" cy="765.03" r="0.60" fill="#13110d"/>
<circle cx="149.46" cy="179.18" r="0.75" fill="#6ee0a0"/>
<circle cx="218.71" cy="751.44" r="2.00" fill="#e0b86e"/>
<circle cx="218.71" cy="751.44" r="0.60" fill="#13110d"/>
<circle cx="158.12" cy="192.27" r="0.75" fill="#6ee0a0"/>
<circle cx="224.16" cy="738.36" r="2.00" fill="#e0b86e"/>
<circle cx="224.16" cy="738.36" r="0.60" fill="#13110d"/>
<circle cx="166.68" cy="204.88" r="0.75" fill="#6ee0a0"/>
<circle cx="229.65" cy="725.75" r="2.00" fill="#e0b86e"/>
<circle cx="229.65" cy="725.75" r="0.60" fill="#13110d"/>
<circle cx="176.04" cy="216.97" r="0.75" fill="#6ee0a0"/>
<circle cx="235.60" cy="713.61" r="2.00" fill="#e0b86e"/>
<circle cx="235.60" cy="713.61" r="0.66" fill="#13110d"/>
<circle cx="185.28" cy="228.68" r="0.75" fill="#6ee0a0"/>
<circle cx="242.01" cy="701.91" r="2.00" fill="#e0b86e"/>
<circle cx="242.01" cy="701.91" r="0.62" fill="#13110d"/>
<circle cx="194.40" cy="239.96" r="0.75" fill="#6ee0a0"/>
<circle cx="248.39" cy="690.63" r="2.00" fill="#e0b86e"/>
<circle cx="248.39" cy="690.63" r="0.60" fill="#13110d"/>
<circle cx="203.38" cy="250.83" r="0.75" fill="#6ee0a0"/>
<circle cx="254.74" cy="679.76" r="2.00" fill="#e0b86e"/>
<circle cx="254.74" cy="679.76" r="0.60" fill="#13110d"/>
<circle cx="212.25" cy="261.32" r="0.75" fill="#6ee0a0"/>
<circle cx="261.07" cy="669.28" r="2.00" fill="#e0b86e"/>
<circle cx="261.07" cy="669.28" r="0.60" fill="#13110d"/>
<circle cx="221.08" cy="271.43" r="0.75" fill="#6ee0a0"/>
<circle cx="267.41" cy="659.17" r="2.00" fill="#e0b86e"/>
<circle cx="267.41" cy="659.17" r="0.60" fill="#13110d"/>
<circle cx="229.80" cy="281.18" r="0.75" fill="#6ee0a0"/>
<circle cx="273.77" cy="649.42" r="2.00" fill="#e0b86e"/>
<circle cx="273.77" cy="649.42" r="0.60" fill="#13110d"/>
<circle cx="238.35" cy="290.59" r="0.75" fill="#6ee0a0"/>
<circle cx="280.07" cy="640.02" r="2.00" fill="#e0b86e"/>
<circle cx="280.07" cy="640.02" r="0.60" fill="#13110d"/>
<circle cx="246.85" cy="299.67" r="0.75" fill="#6ee0a0"/>
<circle cx="286.35" cy="630.94" r="2.00" fill="#e0b86e"/>
<circle cx="286.35" cy="630.94" r="0.60" fill="#13110d"/>
<circle cx="255.26" cy="308.43" r="0.75" fill="#6ee0a0"/>
<circle cx="292.64" cy="622.19" r="2.00" fill="#e0b86e"/>
<circle cx="292.64" cy="622.19" r="0.60" fill="#13110d"/>
<circle cx="263.63" cy="316.88" r="0.75" fill="#6ee0a0"/>
<circle cx="298.93" cy="613.73" r="2.00" fill="#e0b86e"/>
<circle cx="298.93" cy="613.73" r="0.60" fill="#13110d"/>
<circle cx="271.82" cy="325.05" r="0.75" fill="#6ee0a0"/>
<circle cx="305.19" cy="605.57" r="2.00" fill="#e0b86e"/>
<circle cx="305.19" cy="605.57" r="0.60" fill="#13110d"/>
<circle cx="279.97" cy="332.93" r="0.75" fill="#6ee0a0"/>
<circle cx="311.41" cy="597.69" r="2.00" fill="#e0b86e"/>
<circle cx="311.41" cy="597.69" r="0.60" fill="#13110d"/>
<circle cx="288.10" cy="340.54" r="0.75" fill="#6ee0a0"/>
<circle cx="317.66" cy="590.08" r="2.00" fill="#e0b86e"/>
<circle cx="317.66" cy="590.08" r="0.60" fill="#13110d"/>
<circle cx="296.12" cy="347.90" r="0.75" fill="#6ee0a0"/>
<circle cx="323.91" cy="582.72" r="2.00" fill="#e0b86e"/>
<circle cx="323.91" cy="582.72" r="0.60" fill="#13110d"/>
<circle cx="304.12" cy="355.01" r="0.75" fill="#6ee0a0"/>
<circle cx="330.17" cy="575.61" r="2.00" fill="#e0b86e"/>
<circle cx="330.17" cy="575.61" r="0.60" fill="#13110d"/>
<circle cx="312.09" cy="361.88" r="0.75" fill="#6ee0a0"/>
<circle cx="336.45" cy="568.75" r="2.00" fill="#e0b86e"/>
<circle cx="336.45" cy="568.75" r="0.60" fill="#13110d"/>
<circle cx="319.97" cy="368.52" r="0.75" fill="#6ee0a0"/>
<circle cx="342.72" cy="562.10" r="2.00" fill="#e0b86e"/>
<circle cx="342.72" cy="562.10" r="0.60" fill="#13110d"/>
<circle cx="327.82" cy="374.95" r="0.75" fill="#6ee0a0"/>
<circle cx="349.00" cy="555.68" r="2.00" fill="#e0b86e"/>
<circle cx="349.00" cy="555.68" r="0.60" fill="#13110d"/>
<circle cx="335.64" cy="381.16" r="0.75" fill="#6ee0a0"/>
<circle cx="355.29" cy="549.47" r="2.00" fill="#e0b86e"/>
<circle cx="355.29" cy="549.47" r="0.60" fill="#13110d"/>
<circle cx="343.39" cy="387.17" r="0.75" fill="#6ee0a0"/>
<circle cx="361.59" cy="543.46" r="2.00" fill="#e0b86e"/>
<circle cx="361.59" cy="543.46" r="0.60" fill="#13110d"/>
<circle cx="351.11" cy="392.99" r="0.75" fill="#6ee0a0"/>
<circle cx="367.89" cy="537.64" r="2.00" fill="#e0b86e"/>
<circle cx="367.89" cy="537.64" r="0.60" fill="#13110d"/>
<circle cx="358.81" cy="398.62" r="0.75" fill="#6ee0a0"/>
<circle cx="374.20" cy="532.01" r="2.00" fill="#e0b86e"/>
<circle cx="374.20" cy="532.01" r="0.60" fill="#13110d"/>
<circle cx="366.44" cy="404.07" r="0.75" fill="#6ee0a0"/>
<circle cx="380.52" cy="526.56" r="2.00" fill="#e0b86e"/>
<circle cx="380.52" cy="526.56" r="0.60" fill="#13110d"/>
<circle cx="374.05" cy="409.35" r="0.75" fill="#6ee0a0"/>
<circle cx="386.83" cy="521.28" r="2.00" fill="#e0b86e"/>
<circle cx="386.83" cy="521.28" r="0.60" fill="#13110d"/>
<circle cx="381.63" cy="414.47" r="0.75" fill="#6ee0a0"/>
<circle cx="393.16" cy="516.17" r="2.00" fill="#e0b86e"/>
<circle cx="393.16" cy="516.17" r="0.60" fill="#13110d"/>
<circle cx="389.20" cy="419.42" r="0.75" fill="#6ee0a0"/>
<circle cx="399.51" cy="511.22" r="2.00" fill="#e0b86e"/>
<circle cx="399.51" cy="511.22" r="0.60" fill="#13110d"/>
<circle cx="396.72" cy="424.22" r="0.75" fill="#6ee0a0"/>
<circle cx="405.87" cy="506.41" r="2.00" fill="#e0b86e"/>
<circle cx="405.87" cy="506.41" r="0.60" fill="#13110d"/>
<circle cx="404.22" cy="428.87" r="0.75" fill="#6ee0a0"/>
<circle cx="412.23" cy="501.76" r="2.00" fill="#e0b86e"/>
<circle cx="412.23" cy="501.76" r="0.60" fill="#13110d"/>
<circle cx="411.71" cy="433.39" r="0.75" fill="#6ee0a0"/>
<circle cx="418.61" cy="497.25" r="2.00" fill="#e0b86e"/>
<circle cx="418.61" cy="497.25" r="0.60" fill="#13110d"/>
<circle cx="419.16" cy="437.76" r="0.75" fill="#6ee0a0"/>
<circle cx="424.99" cy="492.88" r="2.00" fill="#e0b86e"/>
<circle cx="424.99" cy="492.88" r="0.60" fill="#13110d"/>
<circle cx="426.58" cy="442.00" r="0.75" fill="#6ee0a0"/>
<circle cx="431.37" cy="488.64" r="2.00" fill="#e0b86e"/>
<circle cx="431.37" cy="488.64" r="0.60" fill="#13110d"/>
<circle cx="433.97" cy="446.12" r="0.75" fill="#6ee0a0"/>
<circle cx="437.76" cy="484.52" r="2.00" fill="#e0b86e"/>
<circle cx="437.76" cy="484.52" r="0.60" fill="#13110d"/>
<circle cx="441.33" cy="450.11" r="0.75" fill="#6ee0a0"/>
<circle cx="444.15" cy="480.53" r="2.00" fill="#e0b86e"/>
<circle cx="444.15" cy="480.53" r="0.60" fill="#13110d"/>
<circle cx="448.67" cy="453.99" r="0.75" fill="#6ee0a0"/>
<circle cx="450.54" cy="476.65" r="2.00" fill="#e0b86e"/>
<circle cx="450.54" cy="476.65" r="0.60" fill="#13110d"/>
<circle cx="456.00" cy="457.75" r="0.75" fill="#6ee0a0"/>
<circle cx="456.95" cy="472.89" r="2.00" fill="#e0b86e"/>
<circle cx="456.95" cy="472.89" r="0.60" fill="#13110d"/>
<circle cx="461.51" cy="446.65" r="0.75" fill="#6ee0a0"/>
<circle cx="465.18" cy="483.99" r="2.00" fill="#e0b86e"/>
<circle cx="465.18" cy="483.99" r="0.60" fill="#13110d"/>
<circle cx="468.82" cy="450.23" r="0.75" fill="#6ee0a0"/>
<circle cx="471.61" cy="480.41" r="2.00" fill="#e0b86e"/>
<circle cx="471.61" cy="480.41" r="0.60" fill="#13110d"/>
</svg>