<svg xmlns="http://www.w3.org/2000/svg" width="557" height="921" viewBox="0 0 557 921">
<defs><linearGradient id="st" x1="0" y1="0" x2="0" y2="1"><stop offset="0" stop-color="#c8ccd3"/><stop offset=".5" stop-color="#9094a0"/><stop offset="1" stop-color="#54585f"/></linearGradient></defs>
<rect width="557" height="921" fill="#13110d"/>
<line x1="91.59" y1="84.68" x2="183.90" y2="836.48" stroke="#7d7762" stroke-width="3.35" stroke-linecap="round"/>
<line x1="99.72" y1="90.93" x2="190.49" y2="830.23" stroke="#7d7762" stroke-width="3.10" stroke-linecap="round"/>
<line x1="107.79" y1="97.21" x2="197.03" y2="823.95" stroke="#7d7762" stroke-width="2.90" stroke-linecap="round"/>
<line x1="115.79" y1="103.46" x2="203.49" y2="817.70" stroke="#7d7762" stroke-width="2.54" stroke-linecap="round"/>
<line x1="123.89" y1="110.98" x2="209.74" y2="810.18" stroke="#7d7762" stroke-width="2.44" stroke-linecap="round"/>
<line x1="131.98" y1="118.50" x2="215.98" y2="802.66" stroke="#7d7762" stroke-width="2.44" stroke-linecap="round"/>
<line x1="140.01" y1="126.02" x2="222.17" y2="795.14" stroke="#7d7762" stroke-width="2.03" stroke-linecap="round"/>
<line x1="148.00" y1="133.54" x2="228.31" y2="787.62" stroke="#7d7762" stroke-width="2.03" stroke-linecap="round"/>
<line x1="156.11" y1="142.32" x2="234.27" y2="778.84" stroke="#7d7762" stroke-width="1.83" stroke-linecap="round"/>
<line x1="164.79" y1="152.35" x2="240.48" y2="768.82" stroke="#7d7762" stroke-width="5.28" stroke-linecap="round"/>
<line x1="173.24" y1="157.36" x2="247.70" y2="763.80" stroke="#7d7762" stroke-width="4.98" stroke-linecap="round"/>
<line x1="182.08" y1="166.12" x2="254.39" y2="755.04" stroke="#7d7762" stroke-width="4.67" stroke-linecap="round"/>
<line x1="192.08" y1="184.93" x2="259.77" y2="736.24" stroke="#7d7762" stroke-width="4.37" stroke-linecap="round"/>
<line x1="201.39" y1="198.70" x2="265.70" y2="722.46" stroke="#7d7762" stroke-width="4.11" stroke-linecap="round"/>
<line x1="210.97" y1="214.98" x2="271.28" y2="706.19" stroke="#7d7762" stroke-width="4.11" stroke-linecap="round"/>
<line x1="220.53" y1="231.28" x2="276.84" y2="689.88" stroke="#7d7762" stroke-width="3.86" stroke-linecap="round"/>
<line x1="229.83" y1="246.31" x2="282.45" y2="674.85" stroke="#7d7762" stroke-width="3.35" stroke-linecap="round"/>
<line x1="239.38" y1="263.86" x2="287.69" y2="657.30" stroke="#7d7762" stroke-width="3.35" stroke-linecap="round"/>
<line x1="248.58" y1="278.90" x2="293.20" y2="642.27" stroke="#7d7762" stroke-width="3.10" stroke-linecap="round"/>
<line x1="257.91" y1="295.17" x2="298.53" y2="625.99" stroke="#7d7762" stroke-width="3.10" stroke-linecap="round"/>
<line x1="266.56" y1="306.46" x2="304.40" y2="614.70" stroke="#7d7762" stroke-width="2.54" stroke-linecap="round"/>
<line x1="275.28" y1="318.99" x2="310.05" y2="602.17" stroke="#7d7762" stroke-width="2.54" stroke-linecap="round"/>
<line x1="283.86" y1="330.26" x2="315.86" y2="590.90" stroke="#7d7762" stroke-width="2.54" stroke-linecap="round"/>
<line x1="292.24" y1="340.28" x2="321.78" y2="580.88" stroke="#7d7762" stroke-width="2.29" stroke-linecap="round"/>
<line x1="300.45" y1="349.07" x2="327.83" y2="572.09" stroke="#7d7762" stroke-width="2.29" stroke-linecap="round"/>
<line x1="308.65" y1="357.83" x2="333.88" y2="563.33" stroke="#7d7762" stroke-width="2.29" stroke-linecap="round"/>
<line x1="316.66" y1="365.35" x2="340.05" y2="555.82" stroke="#7d7762" stroke-width="2.03" stroke-linecap="round"/>
<line x1="324.65" y1="372.86" x2="346.19" y2="548.30" stroke="#7d7762" stroke-width="2.03" stroke-linecap="round"/>
<line x1="332.48" y1="379.14" x2="352.48" y2="542.02" stroke="#7d7762" stroke-width="2.03" stroke-linecap="round"/>
<line x1="340.28" y1="385.40" x2="358.74" y2="535.77" stroke="#7d7762" stroke-width="1.83" stroke-linecap="round"/>
<line x1="348.06" y1="391.67" x2="364.98" y2="529.49" stroke="#7d7762" stroke-width="1.83" stroke-linecap="round"/>
<line x1="355.53" y1="395.42" x2="371.53" y2="525.74" stroke="#7d7762" stroke-width="1.83" stroke-linecap="round"/>
<line x1="363.28" y1="401.70" x2="377.74" y2="519.46" stroke="#7d7762" stroke-width="1.63" stroke-linecap="round"/>
<line x1="370.70" y1="405.44" x2="384.24" y2="515.72" stroke="#7d7762" stroke-width="1.63" stroke-linecap="round"/>
<line x1="378.12" y1="409.22" x2="390.74" y2="511.95" stroke="#7d7762" stroke-width="1.63" stroke-linecap="round"/>
<line x1="385.54" y1="412.96" x2="397.24" y2="508.20" stroke="#7d7762" stroke-width="1.63" stroke-linecap="round"/>
<line x1="392.95" y1="416.74" x2="403.72" y2="504.43" stroke="#7d7762" stroke-width="1.52" stroke-linecap="round"/>
<line x1="400.34" y1="420.48" x2="410.19" y2="500.68" stroke="#7d7762" stroke-width="1.52" stroke-linecap="round"/>
<line x1="407.74" y1="424.25" x2="416.66" y2="496.91" stroke="#7d7762" stroke-width="1.52" stroke-linecap="round"/>
<line x1="415.12" y1="428.00" x2="423.12" y2="493.16" stroke="#7d7762" stroke-width="1.42" stroke-linecap="round"/>
<line x1="422.33" y1="430.51" x2="429.72" y2="490.65" stroke="#7d7762" stroke-width="1.42" stroke-linecap="round"/>
<line x1="429.54" y1="433.01" x2="436.31" y2="488.15" stroke="#7d7762" stroke-width="1.32" stroke-linecap="round"/>
<line x1="436.72" y1="435.52" x2="442.87" y2="485.64" stroke="#7d7762" stroke-width="1.27" stroke-linecap="round"/>
<line x1="443.90" y1="438.03" x2="449.43" y2="483.14" stroke="#7d7762" stroke-width="1.27" stroke-linecap="round"/>
<line x1="451.07" y1="440.53" x2="456.00" y2="480.63" stroke="#7d7762" stroke-width="1.27" stroke-linecap="round"/>
<line x1="458.25" y1="443.04" x2="462.56" y2="478.12" stroke="#7d7762" stroke-width="1.27" stroke-linecap="round"/>
<line x1="465.42" y1="445.54" x2="469.12" y2="475.62" stroke="#7d7762" stroke-width="1.27" stroke-linecap="round"/>
<path d="M 91.02,80.01 92.12,80.00 93.22,80.02 94.33,80.09 95.45,80.19 96.56,80.32 97.69,80.50 98.82,80.71 99.95,80.95 101.08,81.23 102.23,81.55 103.37,81.90 104.52,82.29 105.67,82.71 106.83,83.17 108.00,83.66 109.16,84.18 110.33,84.74 111.51,85.33 112.69,85.95 113.87,86.61 115.05,87.30 116.24,88.01 117.44,88.76 118.64,89.54 119.84,90.35 121.04,91.19 122.25,92.06 123.46,92.96 124.68,93.89 125.90,94.85 127.12,95.84 128.35,96.85 129.58,97.89 130.81,98.96 132.05,100.05 133.29,101.17 134.53,102.32 135.78,103.50 137.03,104.69 138.28,105.92 139.54,107.17 140.79,108.44 142.06,109.73 143.32,111.05 144.59,112.40 145.86,113.76 147.13,115.15 148.40,116.56 149.68,117.99 150.96,119.44 152.24,120.91 153.53,122.41 154.82,123.92 156.11,125.45 157.40,127.00 158.70,128.57 159.99,130.16 161.29,131.77 162.59,133.39 163.90,135.04 165.20,136.70 166.51,138.37 167.82,140.06 169.13,141.77 170.45,143.49 171.76,145.23 173.08,146.98 174.40,148.75 175.72,150.53 177.04,152.32 178.36,154.13 179.69,155.95 181.02,157.78 182.35,159.62 183.68,161.47 185.01,163.34 186.34,165.22 187.67,167.10 189.01,169.00 190.34,170.90 191.68,172.82 193.02,174.74 194.36,176.68 195.70,178.62 197.04,180.56 198.38,182.52 199.73,184.48 201.07,186.45 202.41,188.42 203.76,190.40 205.11,192.39 206.45,194.38 207.80,196.38 209.15,198.38 210.49,200.38 211.84,202.39 213.19,204.40 214.54,206.41 215.89,208.43 217.24,210.45 218.59,212.47 219.94,214.49 221.29,216.52 222.64,218.54 223.99,220.56 225.34,222.59 226.70,224.61 228.05,226.64 229.40,228.66 230.75,230.68 232.10,232.70 233.45,234.72 234.80,236.73 236.15,238.75 237.49,240.76 238.84,242.77 240.19,244.77 241.54,246.77 242.89,248.77 244.23,250.76 245.58,252.74 246.92,254.73 248.27,256.70 249.61,258.67 250.96,260.64 252.30,262.60 253.64,264.55 254.98,266.49 256.32,268.43 257.66,270.36 259.00,272.29 260.34,274.20 261.67,276.11 263.01,278.01 264.34,279.90 265.68,281.78 267.01,283.65 268.34,285.52 269.67,287.37 271.00,289.22 272.32,291.05 273.65,292.87 274.97,294.68 276.30,296.49 277.62,298.28 278.94,300.06 280.26,301.82 281.58,303.58 282.89,305.32 284.21,307.06 285.52,308.78 286.83,310.49 288.14,312.18 289.45,313.86 290.76,315.53 292.06,317.19 293.37,318.83 294.67,320.46 295.97,322.08 297.27,323.68 298.57,325.26 299.86,326.84 301.16,328.40 302.45,329.94 303.74,331.47 305.03,332.99 306.31,334.49 307.60,335.98 308.88,337.45 310.16,338.90 311.44,340.34 312.72,341.77 313.99,343.18 315.26,344.57 316.54,345.95 317.81,347.32 319.07,348.67 320.34,350.00 321.60,351.31 322.86,352.61 324.12,353.90 325.38,355.17 326.64,356.42 327.89,357.66 329.14,358.88 330.39,360.08 331.64,361.27 332.89,362.44 334.13,363.60 335.37,364.74 336.62,365.87 337.85,366.98 339.09,368.07 340.32,369.15 341.56,370.21 342.79,371.25 344.02,372.28 345.24,373.30 346.47,374.29 347.69,375.28 348.91,376.24 350.13,377.19 351.35,378.13 352.56,379.05 353.77,379.96 354.99,380.85 356.20,381.73 357.40,382.59 358.61,383.44 359.81,384.27 361.02,385.09 362.22,385.89 363.42,386.68 364.61,387.46 365.81,388.22 367.00,388.97 368.20,389.71 369.39,390.43 370.58,391.14 371.76,391.84 372.95,392.53 374.14,393.20 375.32,393.86 376.50,394.51 377.68,395.15 378.86,395.78 380.04,396.40 381.22,397.00 382.39,397.60 383.56,398.18 384.74,398.76 385.91,399.33 387.08,399.89 388.25,400.44 389.42,400.98 390.59,401.51 391.75,402.04 392.92,402.56 394.08,403.07 395.25,403.57 396.41,404.07 397.57,404.57 398.74,405.05 399.90,405.54 401.06,406.02 402.22,406.49 403.38,406.96 404.54,407.43 405.70,407.90 406.86,408.36 408.02,408.82 409.17,409.28 410.33,409.74 411.49,410.20 412.65,410.66 413.81,411.12 414.97,411.59 416.13,412.05 417.29,412.52 418.45,412.99 419.61,413.46 420.77,413.94 421.93,414.42 423.09,414.91 424.25,415.40 425.42,415.90 426.58,416.41 427.75,416.93 428.91,417.45 430.08,417.99 431.25,418.53 432.42,419.09 433.59,419.65 434.76,420.23 435.94,420.82 437.11,421.43 438.29,422.04 439.47,422.68 440.65,423.33 441.84,423.99 443.02,424.67 444.21,425.38 445.40,426.10 446.60,426.84 447.79,427.60 448.99,428.38 450.19,429.18 451.39,430.01 452.60,430.86 453.81,431.73 455.02,432.63 456.24,433.56 457.46,434.52 458.68,435.50 459.91,436.51 461.14,437.56 462.37,438.63 463.61,439.74 464.85,440.88 464.85,440.88 465.36,441.33 465.85,441.79 466.33,442.24 466.81,442.69 467.27,443.14 467.72,443.60 468.16,444.05 468.60,444.50 469.02,444.94 469.43,445.39 469.83,445.84 470.22,446.29 470.60,446.73 470.97,447.18 471.33,447.62 471.68,448.07 472.02,448.51 472.35,448.95 472.67,449.40 472.98,449.84 473.28,450.28 473.57,450.72 473.84,451.16 474.11,451.61 474.37,452.05 474.62,452.49 474.85,452.93 475.08,453.36 475.30,453.80 475.51,454.24 475.70,454.68 475.89,455.12 476.06,455.56 476.23,455.99 476.39,456.43 476.53,456.87 476.67,457.31 476.79,457.74 476.91,458.18 477.01,458.62 477.10,459.05 477.19,459.49 477.26,459.93 477.33,460.36 477.38,460.80 477.42,461.24 477.46,461.67 477.48,462.11 477.49,462.55 477.49,462.98 477.49,463.42 477.47,463.86 477.44,464.29 477.40,464.73 477.36,465.17 477.30,465.61 477.23,466.04 477.15,466.48 477.06,466.92 476.96,467.36 476.85,467.80 476.73,468.24 476.61,468.68 476.47,469.12 476.32,469.56 476.16,470.00 475.99,470.44 475.81,470.88 475.62,471.32 475.42,471.76 475.21,472.21 474.99,472.65 474.75,473.09 474.51,473.54 474.26,473.98 474.00,474.43 473.73,474.88 473.45,475.32 473.16,475.77 472.86,476.22 472.55,476.67 472.22,477.12 471.89,477.57 471.55,478.02 471.20,478.47 470.84,478.92 470.46,479.37 470.08,479.83 469.69,480.28 469.69,480.28 468.73,481.42 467.76,482.53 466.79,483.60 465.82,484.65 464.84,485.66 463.86,486.64 462.87,487.60 461.89,488.53 460.89,489.43 459.90,490.30 458.90,491.15 457.90,491.98 456.90,492.78 455.89,493.57 454.88,494.33 453.87,495.07 452.86,495.79 451.84,496.49 450.82,497.17 449.80,497.84 448.78,498.48 447.76,499.12 446.73,499.74 445.70,500.34 444.67,500.93 443.64,501.51 442.61,502.08 441.58,502.63 440.54,503.17 439.50,503.71 438.47,504.23 437.43,504.75 436.39,505.26 435.35,505.76 434.31,506.25 433.26,506.74 432.22,507.22 431.18,507.70 430.13,508.17 429.09,508.64 428.04,509.11 427.00,509.58 425.95,510.04 424.91,510.50 423.86,510.96 422.82,511.42 421.77,511.88 420.73,512.34 419.68,512.80 418.63,513.26 417.59,513.73 416.55,514.20 415.50,514.67 414.46,515.14 413.41,515.62 412.37,516.11 411.33,516.60 410.29,517.09 409.25,517.59 408.21,518.09 407.17,518.60 406.13,519.12 405.09,519.65 404.05,520.18 403.02,520.72 401.98,521.27 400.95,521.83 399.92,522.40 398.89,522.98 397.86,523.56 396.83,524.16 395.80,524.77 394.77,525.38 393.75,526.01 392.73,526.65 391.70,527.30 390.68,527.96 389.66,528.64 388.65,529.32 387.63,530.02 386.61,530.73 385.60,531.45 384.59,532.19 383.58,532.94 382.57,533.70 381.56,534.48 380.56,535.27 379.56,536.07 378.55,536.89 377.55,537.73 376.56,538.57 375.56,539.44 374.57,540.31 373.57,541.20 372.58,542.11 371.59,543.03 370.61,543.97 369.62,544.92 368.64,545.89 367.66,546.87 366.68,547.87 365.70,548.88 364.72,549.91 363.75,550.96 362.78,552.02 361.81,553.09 360.84,554.19 359.87,555.29 358.91,556.42 357.95,557.56 356.99,558.72 356.03,559.89 355.07,561.08 354.12,562.28 353.17,563.50 352.22,564.74 351.27,565.99 350.32,567.26 349.38,568.55 348.44,569.85 347.50,571.16 346.56,572.50 345.62,573.84 344.69,575.21 343.75,576.59 342.82,577.98 341.89,579.39 340.97,580.82 340.04,582.26 339.12,583.71 338.20,585.19 337.28,586.67 336.36,588.17 335.44,589.69 334.53,591.22 333.62,592.76 332.71,594.32 331.80,595.90 330.89,597.48 329.98,599.09 329.08,600.70 328.18,602.33 327.28,603.97 326.38,605.63 325.48,607.30 324.59,608.98 323.69,610.68 322.80,612.38 321.91,614.10 321.02,615.84 320.13,617.58 319.25,619.34 318.36,621.11 317.48,622.88 316.59,624.68 315.71,626.48 314.83,628.29 313.96,630.11 313.08,631.95 312.20,633.79 311.33,635.64 310.45,637.51 309.58,639.38 308.71,641.26 307.84,643.15 306.97,645.05 306.10,646.96 305.24,648.87 304.37,650.80 303.51,652.73 302.64,654.67 301.78,656.61 300.92,658.56 300.06,660.52 299.20,662.49 298.33,664.46 297.48,666.44 296.62,668.42 295.76,670.40 294.90,672.40 294.04,674.39 293.19,676.39 292.33,678.40 291.48,680.40 290.62,682.41 289.77,684.43 288.91,686.44 288.06,688.46 287.20,690.48 286.35,692.50 285.50,694.53 284.64,696.55 283.79,698.57 282.93,700.60 282.08,702.62 281.23,704.65 280.37,706.67 279.52,708.69 278.67,710.71 277.81,712.73 276.96,714.75 276.10,716.76 275.25,718.77 274.39,720.78 273.54,722.78 272.68,724.78 271.82,726.78 270.96,728.77 270.11,730.76 269.25,732.74 268.39,734.71 267.53,736.68 266.67,738.64 265.80,740.60 264.94,742.55 264.08,744.49 263.21,746.42 262.35,748.34 261.48,750.26 260.61,752.16 259.74,754.06 258.87,755.95 258.00,757.82 257.13,759.69 256.25,761.54 255.38,763.38 254.50,765.22 253.62,767.03 252.74,768.84 251.86,770.63 250.97,772.41 250.09,774.18 249.20,775.93 248.31,777.67 247.42,779.39 246.53,781.10 245.64,782.79 244.74,784.47 243.84,786.12 242.94,787.77 242.04,789.39 241.13,791.00 240.23,792.59 239.32,794.16 238.41,795.71 237.49,797.24 236.58,798.76 235.66,800.25 234.74,801.72 233.81,803.17 232.89,804.60 231.96,806.01 231.02,807.40 230.09,808.77 229.15,810.11 228.21,811.43 227.27,812.72 226.32,814.00 225.37,815.24 224.42,816.47 223.47,817.67 222.51,818.84 221.55,819.99 220.58,821.11 219.62,822.20 218.65,823.27 217.67,824.31 216.69,825.33 215.71,826.31 214.73,827.27 213.74,828.20 212.75,829.10 211.75,829.97 210.75,830.81 209.75,831.62 208.75,832.40 207.74,833.15 206.72,833.87 205.70,834.55 204.68,835.21 203.66,835.83 202.63,836.42 201.59,836.98 200.56,837.50 199.51,837.99 198.47,838.45 197.42,838.87 196.36,839.26 195.30,839.61 194.24,839.93 193.17,840.21 192.10,840.46 191.03,840.67 189.94,840.84 188.86,840.98 187.77,841.08 186.67,841.14 185.58,841.16 184.47,841.15 184.47,841.15 183.01,840.89 181.52,840.07 179.98,838.70 178.42,836.78 176.82,834.34 175.19,831.39 173.53,827.94 171.85,823.99 170.14,819.58 168.40,814.70 166.64,809.37 164.86,803.61 163.07,797.42 161.25,790.83 159.42,783.84 157.57,776.46 155.71,768.72 153.84,760.61 151.96,752.16 150.07,743.38 148.17,734.29 146.27,724.88 144.37,715.19 142.46,705.21 140.55,694.97 138.65,684.47 136.74,673.73 134.85,662.77 132.95,651.59 131.07,640.21 129.19,628.64 127.33,616.90 125.48,604.99 123.64,592.93 121.82,580.74 120.02,568.42 118.23,556.00 116.46,543.47 114.72,530.86 113.00,518.18 111.31,505.44 109.64,492.66 108.00,479.84 106.39,467.00 104.82,454.16 103.27,441.32 101.76,428.50 100.29,415.72 98.86,402.98 97.46,390.30 96.11,377.69 94.80,365.17 93.53,352.74 92.31,340.42 91.14,328.23 90.02,316.17 88.94,304.26 87.92,292.52 86.96,280.95 86.05,269.57 85.19,258.39 84.40,247.43 83.67,236.69 82.99,226.19 82.39,215.95 81.84,205.98 81.37,196.28 80.96,186.88 80.62,177.78 80.35,169.00 80.16,160.55 80.04,152.45 80.00,144.70 80.04,137.33 80.15,130.33 80.35,123.74 80.63,117.55 80.99,111.79 81.44,106.46 81.98,101.59 82.60,97.17 83.32,93.23 84.13,89.77 85.03,86.82 86.03,84.38 87.13,82.46 88.32,81.09 89.62,80.27 91.02,80.01 Z M 92.16,89.34 93.37,90.20 94.58,91.08 95.79,91.97 97.01,92.89 98.22,93.83 99.44,94.79 100.67,95.77 101.89,96.77 103.12,97.79 104.35,98.83 105.58,99.90 106.82,100.98 108.05,102.08 109.29,103.21 110.54,104.35 111.78,105.51 113.03,106.70 114.28,107.90 115.53,109.12 116.78,110.36 118.04,111.62 119.30,112.90 120.56,114.20 121.83,115.52 123.09,116.86 124.36,118.21 125.63,119.58 126.90,120.97 128.18,122.38 129.46,123.81 130.74,125.26 132.02,126.72 133.30,128.20 134.59,129.70 135.88,131.21 137.17,132.74 138.46,134.29 139.75,135.85 141.05,137.43 142.35,139.03 143.65,140.64 144.95,142.26 146.25,143.91 147.56,145.56 148.86,147.23 150.17,148.92 151.48,150.62 152.80,152.34 154.11,154.07 155.43,155.81 156.75,157.57 158.06,159.33 159.39,161.12 160.71,162.91 162.03,164.72 163.36,166.54 164.68,168.37 166.01,170.21 167.34,172.07 168.67,173.93 170.01,175.81 171.34,177.70 172.68,179.60 174.01,181.50 175.35,183.42 176.69,185.35 178.03,187.29 179.37,189.23 180.71,191.18 182.05,193.15 183.40,195.12 184.74,197.10 186.09,199.08 187.44,201.08 188.78,203.08 190.13,205.08 191.48,207.10 192.83,209.12 194.18,211.14 195.53,213.18 196.89,215.21 198.24,217.25 199.59,219.30 200.95,221.35 202.30,223.41 203.66,225.46 205.01,227.53 206.37,229.59 207.72,231.66 209.08,233.73 210.44,235.80 211.79,237.88 213.15,239.96 214.51,242.03 215.86,244.11 217.22,246.19 218.58,248.27 219.94,250.36 221.29,252.44 222.65,254.52 224.01,256.60 225.37,258.68 226.72,260.75 228.08,262.83 229.44,264.90 230.79,266.98 232.15,269.05 233.51,271.11 234.86,273.18 236.22,275.24 237.57,277.30 238.93,279.35 240.28,281.40 241.63,283.44 242.99,285.48 244.34,287.52 245.69,289.55 247.04,291.57 248.39,293.59 249.74,295.60 251.09,297.61 252.43,299.61 253.78,301.60 255.13,303.58 256.47,305.56 257.82,307.53 259.16,309.49 260.50,311.44 261.84,313.39 263.18,315.32 264.52,317.25 265.86,319.17 267.19,321.08 268.53,322.97 269.86,324.86 271.20,326.74 272.53,328.60 273.86,330.46 275.19,332.31 276.51,334.14 277.84,335.96 279.16,337.77 280.49,339.57 281.81,341.36 283.13,343.13 284.45,344.89 285.76,346.64 287.08,348.37 288.39,350.09 289.70,351.80 291.01,353.50 292.32,355.18 293.63,356.84 294.93,358.50 296.24,360.13 297.54,361.76 298.84,363.37 300.13,364.96 301.43,366.54 302.72,368.10 304.02,369.65 305.31,371.18 306.59,372.69 307.88,374.19 309.16,375.68 310.45,377.14 311.73,378.59 313.01,380.03 314.28,381.45 315.56,382.85 316.83,384.23 318.10,385.60 319.37,386.95 320.63,388.28 321.89,389.59 323.16,390.89 324.42,392.17 325.67,393.43 326.93,394.68 328.18,395.90 329.43,397.11 330.68,398.30 331.93,399.48 333.17,400.63 334.41,401.77 335.65,402.89 336.89,403.99 338.12,405.07 339.35,406.13 340.59,407.18 341.81,408.20 343.04,409.21 344.26,410.20 345.48,411.18 346.70,412.13 347.92,413.06 349.14,413.98 350.35,414.88 351.56,415.76 352.77,416.62 353.97,417.47 355.18,418.29 356.38,419.10 357.58,419.89 358.77,420.66 359.97,421.42 361.16,422.15 362.35,422.87 363.54,423.57 364.72,424.26 365.91,424.92 367.09,425.57 368.27,426.20 369.45,426.82 370.62,427.42 371.80,428.00 372.97,428.56 374.14,429.11 375.30,429.64 376.47,430.16 377.63,430.66 378.80,431.15 379.95,431.61 381.11,432.07 382.27,432.51 383.42,432.93 384.58,433.34 385.73,433.74 386.87,434.12 388.02,434.48 389.17,434.84 390.31,435.18 391.45,435.50 392.59,435.82 393.73,436.12 394.87,436.41 396.01,436.69 397.14,436.96 398.28,437.21 399.41,437.46 400.54,437.69 401.67,437.91 402.80,438.13 403.92,438.33 405.05,438.53 406.17,438.71 407.30,438.89 408.42,439.06 409.54,439.23 410.67,439.38 411.79,439.53 412.91,439.68 414.03,439.82 415.14,439.95 416.26,440.08 417.38,440.20 418.50,440.33 419.61,440.44 420.73,440.56 421.84,440.67 422.96,440.78 424.08,440.89 425.19,441.00 426.31,441.11 427.42,441.22 428.54,441.33 429.65,441.45 430.77,441.56 431.89,441.68 433.00,441.81 434.12,441.93 435.24,442.07 436.36,442.20 437.48,442.35 438.60,442.50 439.72,442.66 440.84,442.83 441.97,443.00 443.09,443.19 444.22,443.39 445.35,443.59 446.48,443.81 447.61,444.05 448.74,444.29 449.87,444.56 451.01,444.83 452.15,445.13 453.29,445.44 454.43,445.76 455.58,446.11 456.72,446.47 457.87,446.86 459.02,447.27 460.18,447.70 461.34,448.15 462.50,448.63 463.66,449.13 464.83,449.65 466.00,450.21 466.00,450.21 466.32,450.36 466.63,450.51 466.94,450.67 467.24,450.84 467.54,451.01 467.83,451.19 468.11,451.37 468.39,451.56 468.66,451.75 468.93,451.94 469.19,452.14 469.44,452.35 469.68,452.56 469.92,452.77 470.16,452.99 470.38,453.21 470.60,453.44 470.82,453.66 471.03,453.90 471.23,454.13 471.42,454.37 471.61,454.61 471.79,454.86 471.97,455.10 472.13,455.35 472.30,455.61 472.45,455.86 472.60,456.12 472.74,456.38 472.88,456.64 473.00,456.90 473.13,457.17 473.24,457.44 473.35,457.70 473.45,457.97 473.55,458.25 473.64,458.52 473.72,458.79 473.79,459.06 473.86,459.34 473.92,459.61 473.98,459.89 474.02,460.17 474.07,460.44 474.10,460.72 474.13,461.00 474.15,461.27 474.16,461.55 474.17,461.82 474.17,462.10 474.16,462.37 474.14,462.64 474.12,462.92 474.09,463.19 474.06,463.46 474.01,463.73 473.96,463.99 473.91,464.26 473.84,464.52 473.77,464.78 473.69,465.04 473.61,465.30 473.52,465.55 473.42,465.81 473.31,466.06 473.20,466.31 473.07,466.55 472.95,466.79 472.81,467.03 472.67,467.27 472.52,467.50 472.36,467.73 472.19,467.95 472.02,468.17 471.84,468.39 471.65,468.60 471.46,468.81 471.26,469.02 471.05,469.22 470.83,469.41 470.61,469.61 470.38,469.79 470.14,469.97 469.89,470.15 469.64,470.32 469.37,470.49 469.11,470.65 468.83,470.80 468.54,470.95 468.54,470.95 467.51,471.51 466.47,472.03 465.43,472.54 464.39,473.01 463.34,473.46 462.29,473.89 461.24,474.30 460.19,474.69 459.13,475.05 458.07,475.40 457.01,475.73 455.94,476.04 454.88,476.33 453.81,476.61 452.74,476.87 451.67,477.11 450.59,477.35 449.52,477.57 448.44,477.78 447.36,477.97 446.29,478.16 445.20,478.34 444.12,478.50 443.04,478.66 441.96,478.81 440.87,478.96 439.79,479.10 438.70,479.23 437.62,479.36 436.53,479.48 435.44,479.60 434.35,479.71 433.26,479.83 432.18,479.94 431.09,480.05 430.00,480.16 428.91,480.27 427.82,480.38 426.73,480.49 425.65,480.60 424.56,480.72 423.47,480.84 422.38,480.96 421.30,481.08 420.21,481.21 419.12,481.34 418.04,481.48 416.95,481.63 415.87,481.78 414.79,481.93 413.71,482.10 412.62,482.27 411.54,482.45 410.47,482.63 409.39,482.83 408.31,483.03 407.23,483.25 406.16,483.47 405.09,483.71 404.01,483.95 402.94,484.21 401.87,484.47 400.81,484.75 399.74,485.04 398.67,485.34 397.61,485.66 396.55,485.98 395.49,486.32 394.43,486.68 393.37,487.04 392.32,487.43 391.26,487.82 390.21,488.23 389.16,488.65 388.11,489.09 387.07,489.55 386.02,490.02 384.98,490.50 383.94,491.00 382.90,491.52 381.86,492.05 380.83,492.60 379.80,493.16 378.77,493.74 377.74,494.34 376.71,494.96 375.69,495.59 374.66,496.24 373.64,496.90 372.63,497.59 371.61,498.29 370.60,499.01 369.58,499.74 368.58,500.50 367.57,501.27 366.56,502.06 365.56,502.87 364.56,503.69 363.56,504.54 362.56,505.40 361.57,506.28 360.58,507.18 359.59,508.10 358.60,509.03 357.62,509.99 356.63,510.96 355.65,511.95 354.68,512.96 353.70,513.98 352.73,515.03 351.75,516.09 350.78,517.18 349.82,518.28 348.85,519.39 347.89,520.53 346.93,521.68 345.97,522.86 345.02,524.05 344.06,525.26 343.11,526.48 342.16,527.73 341.21,528.99 340.27,530.27 339.33,531.57 338.39,532.88 337.45,534.21 336.51,535.56 335.58,536.93 334.64,538.31 333.71,539.72 332.79,541.13 331.86,542.57 330.94,544.02 330.01,545.48 329.09,546.97 328.18,548.47 327.26,549.98 326.35,551.51 325.43,553.06 324.52,554.62 323.62,556.20 322.71,557.80 321.81,559.40 320.90,561.03 320.00,562.66 319.10,564.32 318.20,565.98 317.31,567.66 316.41,569.36 315.52,571.07 314.63,572.79 313.74,574.52 312.86,576.27 311.97,578.03 311.08,579.81 310.20,581.59 309.32,583.39 308.44,585.20 307.56,587.02 306.69,588.86 305.81,590.70 304.94,592.56 304.06,594.42 303.19,596.30 302.32,598.19 301.45,600.09 300.58,601.99 299.72,603.91 298.85,605.84 297.99,607.77 297.12,609.72 296.26,611.67 295.40,613.63 294.54,615.60 293.68,617.58 292.82,619.56 291.96,621.56 291.11,623.55 290.25,625.56 289.40,627.57 288.54,629.59 287.69,631.61 286.84,633.64 285.98,635.68 285.13,637.72 284.28,639.76 283.43,641.81 282.58,643.87 281.73,645.92 280.88,647.98 280.03,650.05 279.19,652.12 278.34,654.19 277.49,656.26 276.64,658.33 275.80,660.41 274.95,662.49 274.10,664.56 273.26,666.64 272.41,668.73 271.56,670.81 270.72,672.89 269.87,674.97 269.02,677.05 268.18,679.13 267.33,681.21 266.48,683.28 265.63,685.36 264.79,687.43 263.94,689.50 263.09,691.57 262.24,693.64 261.39,695.70 260.54,697.76 259.69,699.81 258.84,701.86 257.99,703.91 257.14,705.95 256.29,707.99 255.44,710.02 254.58,712.04 253.73,714.06 252.87,716.08 252.02,718.08 251.16,720.08 250.30,722.08 249.45,724.06 248.59,726.04 247.73,728.01 246.87,729.98 246.00,731.93 245.14,733.88 244.28,735.81 243.41,737.74 242.54,739.66 241.68,741.57 240.81,743.46 239.94,745.35 239.07,747.23 238.19,749.09 237.32,750.95 236.44,752.79 235.57,754.62 234.69,756.44 233.81,758.25 232.92,760.04 232.04,761.83 231.16,763.60 230.27,765.35 229.38,767.09 228.49,768.82 227.60,770.54 226.71,772.24 225.81,773.93 224.92,775.60 224.02,777.26 223.12,778.90 222.21,780.52 221.31,782.14 220.40,783.73 219.50,785.31 218.59,786.87 217.67,788.42 216.76,789.95 215.84,791.47 214.92,792.96 214.00,794.44 213.08,795.91 212.16,797.35 211.23,798.78 210.30,800.19 209.37,801.58 208.44,802.95 207.50,804.31 206.56,805.64 205.62,806.96 204.68,808.26 203.73,809.54 202.79,810.80 201.84,812.04 200.89,813.26 199.93,814.47 198.97,815.65 198.02,816.81 197.05,817.95 196.09,819.08 195.12,820.18 194.15,821.26 193.18,822.33 192.21,823.37 191.23,824.39 190.25,825.39 189.27,826.37 188.29,827.33 187.30,828.27 186.31,829.19 185.32,830.09 184.32,830.96 183.33,831.82 183.33,831.82 182.50,832.22 181.62,832.02 180.69,831.25 179.71,829.90 178.68,828.00 177.60,825.56 176.48,822.59 175.32,819.10 174.11,815.12 172.87,810.65 171.58,805.71 170.26,800.30 168.91,794.46 167.52,788.18 166.10,781.48 164.65,774.38 163.17,766.88 161.67,759.01 160.14,750.78 158.59,742.20 157.02,733.28 155.42,724.04 153.81,714.49 152.19,704.65 150.55,694.52 148.89,684.13 147.23,673.49 145.55,662.60 143.87,651.49 142.18,640.17 140.49,628.65 138.79,616.94 137.09,605.06 135.40,593.03 133.70,580.85 132.01,568.54 130.33,556.11 128.65,543.58 126.98,530.96 125.32,518.27 123.68,505.51 122.04,492.71 120.43,479.87 118.83,467.01 117.25,454.15 115.69,441.29 114.15,428.45 112.64,415.65 111.16,402.89 109.70,390.20 108.27,377.58 106.87,365.05 105.50,352.63 104.17,340.32 102.87,328.14 101.61,316.10 100.39,304.22 99.21,292.51 98.08,280.99 96.99,269.67 95.94,258.56 94.94,247.67 93.99,237.03 93.10,226.64 92.25,216.51 91.46,206.67 90.73,197.12 90.05,187.88 89.43,178.96 88.88,170.38 88.38,162.15 87.95,154.28 87.59,146.79 87.30,139.68 87.07,132.99 86.92,126.71 86.84,120.86 86.83,115.46 86.90,110.51 87.05,106.04 87.27,102.06 87.58,98.57 87.97,95.60 88.45,93.16 89.01,91.26 89.66,89.91 90.40,89.14 91.24,88.94 92.16,89.34 Z" fill="url(#st)" fill-rule="evenodd" stroke="#ff9e6b" stroke-width="1.6"/>
<circle cx="92.75" cy="84.54" r="0.75" fill="#6ee0a0"/>
<circle cx="183.90" cy="836.48" r="2.00" fill="#e0b86e"/>
<circle cx="183.90" cy="836.48" r="0.60" fill="#13110d"/>
<circle cx="100.85" cy="90.79" r="0.75" fill="#6ee0a0"/>
<circle cx="190.49" cy="830.23" r="2.00" fill="#e0b86e"/>
<circle cx="190.49" cy="830.23" r="0.60" fill="#13110d"/>
<circle cx="108.90" cy="97.07" r="0.75" fill="#6ee0a0"/>
<circle cx="197.03" cy="823.95" r="2.00" fill="#e0b86e"/>
<circle cx="197.03" cy="823.95" r="0.60" fill="#13110d"/>
<circle cx="116.85" cy="103.33" r="0.75" fill="#6ee0a0"/>
<circle cx="203.49" cy="817.70" r="2.00" fill="#e0b86e"/>
<circle cx="203.49" cy="817.70" r="0.60" fill="#13110d"/>
<circle cx="124.94" cy="110.85" r="0.75" fill="#6ee0a0"/>
<circle cx="209.74" cy="810.18" r="2.00" fill="#e0b86e"/>
<circle cx="209.74" cy="810.18" r="0.60" fill="#13110d"/>
<circle cx="133.03" cy="118.37" r="0.75" fill="#6ee0a0"/>
<circle cx="215.98" cy="802.66" r="2.00" fill="#e0b86e"/>
<circle cx="215.98" cy="802.66" r="0.60" fill="#13110d"/>
<circle cx="141.01" cy="125.90" r="0.75" fill="#6ee0a0"/>
<circle cx="222.17" cy="795.14" r="2.00" fill="#e0b86e"/>
<circle cx="222.17" cy="795.14" r="0.60" fill="#13110d"/>
<circle cx="148.99" cy="133.41" r="0.75" fill="#6ee0a0"/>
<circle cx="228.31" cy="787.62" r="2.00" fill="#e0b86e"/>
<circle cx="228.31" cy="787.62" r="0.60" fill="#13110d"/>
<circle cx="157.08" cy="142.20" r="0.75" fill="#6ee0a0"/>
<circle cx="234.27" cy="778.84" r="2.00" fill="#e0b86e"/>
<circle cx="234.27" cy="778.84" r="0.60" fill="#13110d"/>
<circle cx="166.19" cy="152.17" r="0.75" fill="#6ee0a0"/>
<circle cx="240.48" cy="768.82" r="2.00" fill="#e0b86e"/>
<circle cx="240.48" cy="768.82" r="0.66" fill="#13110d"/>
<circle cx="174.60" cy="157.19" r="0.75" fill="#6ee0a0"/>
<circle cx="247.70" cy="763.80" r="2.00" fill="#e0b86e"/>
<circle cx="247.70" cy="763.80" r="0.62" fill="#13110d"/>
<circle cx="183.41" cy="165.95" r="0.75" fill="#6ee0a0"/>
<circle cx="254.39" cy="755.04" r="2.00" fill="#e0b86e"/>
<circle cx="254.39" cy="755.04" r="0.60" fill="#13110d"/>
<circle cx="193.37" cy="184.77" r="0.75" fill="#6ee0a0"/>
<circle cx="259.77" cy="736.24" r="2.00" fill="#e0b86e"/>
<circle cx="259.77" cy="736.24" r="0.60" fill="#13110d"/>
<circle cx="202.64" cy="198.54" r="0.75" fill="#6ee0a0"/>
<circle cx="265.70" cy="722.46" r="2.00" fill="#e0b86e"/>
<circle cx="265.70" cy="722.46" r="0.60" fill="#13110d"/>
<circle cx="212.23" cy="214.82" r="0.75" fill="#6ee0a0"/>
<circle cx="271.28" cy="706.19" r="2.00" fill="#e0b86e"/>
<circle cx="271.28" cy="706.19" r="0.60" fill="#13110d"/>
<circle cx="221.75" cy="231.13" r="0.75" fill="#6ee0a0"/>
<circle cx="276.84" cy="689.88" r="2.00" fill="#e0b86e"/>
<circle cx="276.84" cy="689.88" r="0.60" fill="#13110d"/>
<circle cx="230.99" cy="246.17" r="0.75" fill="#6ee0a0"/>
<circle cx="282.45" cy="674.85" r="2.00" fill="#e0b86e"/>
<circle cx="282.45" cy="674.85" r="0.60" fill="#13110d"/>
<circle cx="240.54" cy="263.72" r="0.75" fill="#6ee0a0"/>
<circle cx="287.69" cy="657.30" r="2.00" fill="#e0b86e"/>
<circle cx="287.69" cy="657.30" r="0.60" fill="#13110d"/>
<circle cx="249.71" cy="278.76" r="0.75" fill="#6ee0a0"/>
<circle cx="293.20" cy="642.27" r="2.00" fill="#e0b86e"/>
<circle cx="293.20" cy="642.27" r="0.60" fill="#13110d"/>
<circle cx="259.04" cy="295.03" r="0.75" fill="#6ee0a0"/>
<circle cx="298.53" cy="625.99" r="2.00" fill="#e0b86e"/>
<circle cx="298.53" cy="625.99" r="0.60" fill="#13110d"/>
<circle cx="267.62" cy="306.33" r="0.75" fill="#6ee0a0"/>
<circle cx="304.40" cy="614.70" r="2.00" fill="#e0b86e"/>
<circle cx="304.40" cy="614.70" r="0.60" fill="#13110d"/>
<circle cx="276.34" cy="318.86" r="0.75" fill="#6ee0a0"/>
<circle cx="310.05" cy="602.17" r="2.00" fill="#e0b86e"/>
<circle cx="310.05" cy="602.17" r="0.60" fill="#13110d"/>
<circle cx="284.92" cy="330.13" r="0.75" fill="#6ee0a0"/>
<circle cx="315.86" cy="590.90" r="2.00" fill="#e0b86e"/>
<circle cx="315.86" cy="590.90" r="0.60" fill="#13110d"/>
<circle cx="293.27" cy="340.16" r="0.75" fill="#6ee0a0"/>
<circle cx="321.78" cy="580.88" r="2.00" fill="#e0b86e"/>
<circle cx="321.78" cy="580.88" r="0.60" fill="#13110d"/>
<circle cx="301.47" cy="348.94" r="0.75" fill="#6ee0a0"/>
<circle cx="327.83" cy="572.09" r="2.00" fill="#e0b86e"/>
<circle cx="327.83" cy="572.09" r="0.60" fill="#13110d"/>
<circle cx="309.67" cy="357.70" r="0.75" fill="#6ee0a0"/>
<circle cx="333.88" cy="563.33" r="2.00" fill="#e0b86e"/>
<circle cx="333.88" cy="563.33" r="0.60" fill="#13110d"/>
<circle cx="317.66" cy="365.22" r="0.75" fill="#6ee0a0"/>
<circle cx="340.05" cy="555.82" r="2.00" fill="#e0b86e"/>
<circle cx="340.05" cy="555.82" r="0.60" fill="#13110d"/>
<circle cx="325.64" cy="372.74" r="0.75" fill="#6ee0a0"/>
<circle cx="346.19" cy="548.30" r="2.00" fill="#e0b86e"/>
<circle cx="346.19" cy="548.30" r="0.60" fill="#13110d"/>
<circle cx="333.47" cy="379.02" r="0.75" fill="#6ee0a0"/>
<circle cx="352.48" cy="542.02" r="2.00" fill="#e0b86e"/>
<circle cx="352.48" cy="542.02" r="0.60" fill="#13110d"/>
<circle cx="341.25" cy="385.28" r="0.75" fill="#6ee0a0"/>
<circle cx="358.74" cy="535.77" r="2.00" fill="#e0b86e"/>
<circle cx="358.74" cy="535.77" r="0.60" fill="#13110d"/>
<circle cx="349.03" cy="391.55" r="0.75" fill="#6ee0a0"/>
<circle cx="364.98" cy="529.49" r="2.00" fill="#e0b86e"/>
<circle cx="364.98" cy="529.49" r="0.60" fill="#13110d"/>
<circle cx="356.50" cy="395.30" r="0.75" fill="#6ee0a0"/>
<circle cx="371.53" cy="525.74" r="2.00" fill="#e0b86e"/>
<circle cx="371.53" cy="525.74" r="0.60" fill="#13110d"/>
<circle cx="364.23" cy="401.58" r="0.75" fill="#6ee0a0"/>
<circle cx="377.74" cy="519.46" r="2.00" fill="#e0b86e"/>
<circle cx="377.74" cy="519.46" r="0.60" fill="#13110d"/>
<circle cx="371.65" cy="405.33" r="0.75" fill="#6ee0a0"/>
<circle cx="384.24" cy="515.72" r="2.00" fill="#e0b86e"/>
<circle cx="384.24" cy="515.72" r="0.60" fill="#13110d"/>
<circle cx="379.07" cy="409.10" r="0.75" fill="#6ee0a0"/>
<circle cx="390.74" cy="511.95" r="2.00" fill="#e0b86e"/>
<circle cx="390.74" cy="511.95" r="0.60" fill="#13110d"/>
<circle cx="386.49" cy="412.85" r="0.75" fill="#6ee0a0"/>
<circle cx="397.24" cy="508.20" r="2.00" fill="#e0b86e"/>
<circle cx="397.24" cy="508.20" r="0.60" fill="#13110d"/>
<circle cx="393.88" cy="416.62" r="0.75" fill="#6ee0a0"/>
<circle cx="403.72" cy="504.43" r="2.00" fill="#e0b86e"/>
<circle cx="403.72" cy="504.43" r="0.60" fill="#13110d"/>
<circle cx="401.28" cy="420.37" r="0.75" fill="#6ee0a0"/>
<circle cx="410.19" cy="500.68" r="2.00" fill="#e0b86e"/>
<circle cx="410.19" cy="500.68" r="0.60" fill="#13110d"/>
<circle cx="408.67" cy="424.14" r="0.75" fill="#6ee0a0"/>
<circle cx="416.66" cy="496.91" r="2.00" fill="#e0b86e"/>
<circle cx="416.66" cy="496.91" r="0.60" fill="#13110d"/>
<circle cx="416.04" cy="427.89" r="0.75" fill="#6ee0a0"/>
<circle cx="423.12" cy="493.16" r="2.00" fill="#e0b86e"/>
<circle cx="423.12" cy="493.16" r="0.60" fill="#13110d"/>
<circle cx="423.26" cy="430.39" r="0.75" fill="#6ee0a0"/>
<circle cx="429.72" cy="490.65" r="2.00" fill="#e0b86e"/>
<circle cx="429.72" cy="490.65" r="0.60" fill="#13110d"/>
<circle cx="430.44" cy="432.90" r="0.75" fill="#6ee0a0"/>
<circle cx="436.31" cy="488.15" r="2.00" fill="#e0b86e"/>
<circle cx="436.31" cy="488.15" r="0.60" fill="#13110d"/>
<circle cx="437.62" cy="435.41" r="0.75" fill="#6ee0a0"/>
<circle cx="442.87" cy="485.64" r="2.00" fill="#e0b86e"/>
<circle cx="442.87" cy="485.64" r="0.60" fill="#13110d"/>
<circle cx="444.80" cy="437.91" r="0.75" fill="#6ee0a0"/>
<circle cx="449.43" cy="483.14" r="2.00" fill="#e0b86e"/>
<circle cx="449.43" cy="483.14" r="0.60" fill="#13110d"/>
<circle cx="451.97" cy="440.42" r="0.75" fill="#6ee0a0"/>
<circle cx="456.00" cy="480.63" r="2.00" fill="#e0b86e"/>
<circle cx="456.00" cy="480.63" r="0.60" fill="#13110d"/>
<circle cx="459.15" cy="442.93" r="0.75" fill="#6ee0a0"/>
<circle cx="462.56" cy="478.12" r="2.00" fill="#e0b86e"/>
<circle cx="462.56" cy="478.12" r="0.60" fill="#13110d"/>
<circle cx="466.33" cy="445.43" r="0.75" fill="#6ee0a0"/>
<circle cx="469.12" cy="475.62" r="2.00" fill="#e0b86e"/>
<circle cx="469.12" cy="475.62" r="0.60" fill="#13110d"/>
</svg>