<?xml version="1.0" encoding="UTF-8"?>
<svg xmlns="http://www.w3.org/2000/svg" xmlns:xlink="http://www.w3.org/1999/xlink" viewBox="-20.838 -20 321.961 1554.9" width="321.961" height="1554.9"><metadata id="hedit-harp">{"hedit":"harp","version":1,"units":"user","layout":{"airGap":4.884,"rotationDeg":0,"alignment":"middle","frame":"SVG"},"strings":[{"num":"1","note":"c1","color":"#7d7762","dia":1.676,"len":1514.9,"ten":52.693,"core":"","wrap":"","cdia":null,"wdia":null,"x":0,"y1":0,"y2":1514.9},{"num":"2","note":"d1","color":"#7d7762","dia":1.549,"len":1489.7,"ten":51.786,"core":"","wrap":"","cdia":null,"wdia":null,"x":6.497,"y1":12.6,"y2":1502.3},{"num":"3","note":"e1","color":"#7d7762","dia":1.448,"len":1464.4,"ten":50.879,"core":"","wrap":"","cdia":null,"wdia":null,"x":12.879,"y1":25.25,"y2":1489.65},{"num":"4","note":"f1","color":"#7d7762","dia":1.27,"len":1439.2,"ten":49.972,"core":"","wrap":"","cdia":null,"wdia":null,"x":19.122,"y1":37.85,"y2":1477.05},{"num":"5","note":"g1","color":"#7d7762","dia":1.219,"len":1408.9,"ten":49.065,"core":"","wrap":"","cdia":null,"wdia":null,"x":25.251,"y1":53,"y2":1461.9},{"num":"6","note":"a1","color":"#7d7762","dia":1.219,"len":1378.6,"ten":48.159,"core":"","wrap":"","cdia":null,"wdia":null,"x":31.354,"y1":68.15,"y2":1446.75},{"num":"7","note":"b1","color":"#7d7762","dia":1.016,"len":1348.3,"ten":47.252,"core":"","wrap":"","cdia":null,"wdia":null,"x":37.355,"y1":83.3,"y2":1431.6},{"num":"8","note":"c2","color":"#7d7762","dia":1.016,"len":1318,"ten":46.345,"core":"","wrap":"","cdia":null,"wdia":null,"x":43.255,"y1":98.45,"y2":1416.45},{"num":"9","note":"d2","color":"#7d7762","dia":0.914,"len":1282.6,"ten":45.438,"core":"","wrap":"","cdia":null,"wdia":null,"x":49.104,"y1":116.15,"y2":1398.75},{"num":"10","note":"e2","color":"#7d7762","dia":2.642,"len":1242.2,"ten":44.531,"core":"","wrap":"","cdia":null,"wdia":null,"x":55.766,"y1":136.35,"y2":1378.55},{"num":"11","note":"f2","color":"#7d7762","dia":2.489,"len":1222,"ten":43.624,"core":"","wrap":"","cdia":null,"wdia":null,"x":63.216,"y1":146.45,"y2":1368.45},{"num":"12","note":"g2","color":"#7d7762","dia":2.337,"len":1186.7,"ten":42.717,"core":"","wrap":"","cdia":null,"wdia":null,"x":70.513,"y1":164.1,"y2":1350.8},{"num":"13","note":"a2","color":"#7d7762","dia":2.184,"len":1110.9,"ten":41.81,"core":"","wrap":"","cdia":null,"wdia":null,"x":77.657,"y1":202,"y2":1312.9},{"num":"14","note":"b2","color":"#7d7762","dia":2.057,"len":1055.4,"ten":40.903,"core":"","wrap":"","cdia":null,"wdia":null,"x":84.662,"y1":229.75,"y2":1285.15},{"num":"15","note":"c3","color":"#7d7762","dia":2.057,"len":989.8,"ten":39.997,"core":"","wrap":"","cdia":null,"wdia":null,"x":91.602,"y1":262.55,"y2":1252.35},{"num":"16","note":"d3","color":"#7d7762","dia":1.93,"len":924.1,"ten":39.09,"core":"","wrap":"","cdia":null,"wdia":null,"x":98.48,"y1":295.4,"y2":1219.5},{"num":"17","note":"e3","color":"#7d7762","dia":1.676,"len":863.5,"ten":38.183,"core":"","wrap":"","cdia":null,"wdia":null,"x":105.167,"y1":325.7,"y2":1189.2},{"num":"18","note":"f3","color":"#7d7762","dia":1.676,"len":792.8,"ten":37.276,"core":"","wrap":"","cdia":null,"wdia":null,"x":111.727,"y1":361.05,"y2":1153.85},{"num":"19","note":"g3","color":"#7d7762","dia":1.549,"len":732.2,"ten":36.369,"core":"","wrap":"","cdia":null,"wdia":null,"x":118.223,"y1":391.35,"y2":1123.55},{"num":"20","note":"a3","color":"#7d7762","dia":1.549,"len":666.6,"ten":35.462,"core":"","wrap":"","cdia":null,"wdia":null,"x":124.656,"y1":424.15,"y2":1090.75},{"num":"21","note":"b3","color":"#7d7762","dia":1.27,"len":621.1,"ten":34.555,"core":"","wrap":"","cdia":null,"wdia":null,"x":130.95,"y1":446.9,"y2":1068},{"num":"22","note":"c4","color":"#7d7762","dia":1.27,"len":570.6,"ten":33.648,"core":"","wrap":"","cdia":null,"wdia":null,"x":137.104,"y1":472.15,"y2":1042.75},{"num":"23","note":"d4","color":"#7d7762","dia":1.27,"len":525.2,"ten":32.741,"core":"","wrap":"","cdia":null,"wdia":null,"x":143.258,"y1":494.85,"y2":1020.05},{"num":"24","note":"e4","color":"#7d7762","dia":1.143,"len":484.8,"ten":31.835,"core":"","wrap":"","cdia":null,"wdia":null,"x":149.348,"y1":515.05,"y2":999.85},{"num":"25","note":"f4","color":"#7d7762","dia":1.143,"len":449.4,"ten":30.928,"core":"","wrap":"","cdia":null,"wdia":null,"x":155.375,"y1":532.75,"y2":982.15},{"num":"26","note":"g4","color":"#7d7762","dia":1.143,"len":414.1,"ten":30.021,"core":"","wrap":"","cdia":null,"wdia":null,"x":161.402,"y1":550.4,"y2":964.5},{"num":"27","note":"a4","color":"#7d7762","dia":1.016,"len":383.8,"ten":29.114,"core":"","wrap":"","cdia":null,"wdia":null,"x":167.366,"y1":565.55,"y2":949.35},{"num":"28","note":"b4","color":"#7d7762","dia":1.016,"len":353.5,"ten":28.207,"core":"","wrap":"","cdia":null,"wdia":null,"x":173.266,"y1":580.7,"y2":934.2},{"num":"29","note":"c5","color":"#7d7762","dia":1.016,"len":328.2,"ten":27.3,"core":"","wrap":"","cdia":null,"wdia":null,"x":179.166,"y1":593.35,"y2":921.55},{"num":"30","note":"d5","color":"#7d7762","dia":0.914,"len":303,"ten":26.393,"core":"","wrap":"","cdia":null,"wdia":null,"x":185.015,"y1":605.95,"y2":908.95},{"num":"31","note":"e5","color":"#7d7762","dia":0.914,"len":277.7,"ten":25.486,"core":"","wrap":"","cdia":null,"wdia":null,"x":190.813,"y1":618.6,"y2":896.3},{"num":"32","note":"f5","color":"#7d7762","dia":0.914,"len":262.6,"ten":24.579,"core":"","wrap":"","cdia":null,"wdia":null,"x":196.611,"y1":626.15,"y2":888.75},{"num":"33","note":"g5","color":"#7d7762","dia":0.813,"len":237.3,"ten":23.672,"core":"","wrap":"","cdia":null,"wdia":null,"x":202.359,"y1":638.8,"y2":876.1},{"num":"34","note":"a5","color":"#7d7762","dia":0.813,"len":222.2,"ten":22.766,"core":"","wrap":"","cdia":null,"wdia":null,"x":208.056,"y1":646.35,"y2":868.55},{"num":"35","note":"b5","color":"#7d7762","dia":0.813,"len":207,"ten":21.859,"core":"","wrap":"","cdia":null,"wdia":null,"x":213.753,"y1":653.95,"y2":860.95},{"num":"36","note":"c6","color":"#7d7762","dia":0.813,"len":191.9,"ten":20.952,"core":"","wrap":"","cdia":null,"wdia":null,"x":219.45,"y1":661.5,"y2":853.4},{"num":"37","note":"d6","color":"#7d7762","dia":0.762,"len":176.7,"ten":20.045,"core":"","wrap":"","cdia":null,"wdia":null,"x":225.121,"y1":669.1,"y2":845.8},{"num":"38","note":"e6","color":"#7d7762","dia":0.762,"len":161.6,"ten":19.138,"core":"","wrap":"","cdia":null,"wdia":null,"x":230.767,"y1":676.65,"y2":838.25},{"num":"39","note":"f6","color":"#7d7762","dia":0.762,"len":146.4,"ten":18.231,"core":"","wrap":"","cdia":null,"wdia":null,"x":236.413,"y1":684.25,"y2":830.65},{"num":"40","note":"g6","color":"#7d7762","dia":0.711,"len":131.3,"ten":17.324,"core":"","wrap":"","cdia":null,"wdia":null,"x":242.034,"y1":691.8,"y2":823.1},{"num":"41","note":"a6","color":"#7d7762","dia":0.711,"len":121.2,"ten":16.417,"core":"","wrap":"","cdia":null,"wdia":null,"x":247.629,"y1":696.85,"y2":818.05},{"num":"42","note":"b6","color":"#7d7762","dia":0.66,"len":111.1,"ten":15.51,"core":"","wrap":"","cdia":null,"wdia":null,"x":253.198,"y1":701.9,"y2":813},{"num":"43","note":"c7","color":"#7d7762","dia":0.635,"len":101,"ten":14.604,"core":"","wrap":"","cdia":null,"wdia":null,"x":258.73,"y1":706.95,"y2":807.95},{"num":"44","note":"d7","color":"#7d7762","dia":0.635,"len":90.9,"ten":13.697,"core":"","wrap":"","cdia":null,"wdia":null,"x":264.249,"y1":712,"y2":802.9},{"num":"45","note":"e7","color":"#7d7762","dia":0.635,"len":80.8,"ten":12.79,"core":"","wrap":"","cdia":null,"wdia":null,"x":269.768,"y1":717.05,"y2":797.85},{"num":"46","note":"f7","color":"#7d7762","dia":0.635,"len":70.7,"ten":11.883,"core":"","wrap":"","cdia":null,"wdia":null,"x":275.287,"y1":722.1,"y2":792.8},{"num":"47","note":"g7","color":"#7d7762","dia":0.635,"len":60.6,"ten":10.976,"core":"","wrap":"","cdia":null,"wdia":null,"x":280.806,"y1":727.15,"y2":787.75}]}</metadata><path data-role="frame-fill" d="M 216.341 593.362 C 222.544 607.336 228.746 621.31 235.808 634.932 C 243.104 649.006 251.317 662.704 260.146 675.632 C 269.06 688.685 278.601 700.951 288.046 714.543 C 296.649 726.922 305.172 740.401 305.864 754.346 C 306.545 768.056 299.656 782.218 291.85 794.865 C 281.432 811.744 269.381 825.926 258.68 841.491 C 249.828 854.366 241.9 868.187 234.608 882.243 C 227.546 895.857 221.081 909.692 215.404 923.866 C 209.743 938.001 204.865 952.473 200.542 967.094 C 196.106 982.096 192.255 997.254 188.706 1012.481 C 185.06 1028.122 181.732 1043.836 178.513 1059.571 C 175.233 1075.599 172.067 1091.649 168.886 1107.697 C 165.67 1123.925 162.439 1140.15 159.113 1156.357 C 155.76 1172.692 152.31 1189.009 148.689 1205.285 C 145.039 1221.695 141.216 1238.064 137.136 1254.381 C 132.183 1274.192 126.853 1293.926 120.856 1313.413 C 115.795 1329.861 110.259 1346.134 104.19 1362.341 C 98.072 1378.68 91.412 1394.953 83.554 1410.19 C 75.788 1425.247 66.851 1439.293 58.02 1454.909 C 50.294 1468.57 42.649 1483.433 28.252 1488.72 C 15.607 1493.364 -2.247 1490.621 -10.649 1481.494 C -19.102 1472.31 -17.987 1456.664 -18.551 1442.478 C -19.24 1425.129 -22.438 1409.964 -24.884 1394.209 C -27.397 1378.027 -29.116 1361.223 -31 1344.58 C -32.887 1327.921 -34.939 1311.423 -36.889 1294.876 C -38.839 1278.324 -40.687 1261.722 -42.49 1245.125 C -44.654 1225.203 -46.753 1205.287 -48.747 1185.356 C -50.41 1168.743 -51.998 1152.12 -53.51 1135.49 C -55.022 1118.856 -56.457 1102.217 -57.806 1085.569 C -59.155 1068.919 -60.417 1052.261 -61.587 1035.597 C -62.757 1018.929 -63.834 1002.255 -64.813 985.575 C -65.791 968.892 -66.67 952.204 -67.446 935.511 C -68.221 918.815 -68.892 902.114 -69.456 885.41 C -70.019 868.705 -70.475 851.995 -70.82 835.284 C -71.165 818.571 -71.4 801.856 -71.524 785.14 C -71.647 768.424 -71.658 751.708 -71.558 734.991 C -71.438 714.932 -71.156 694.874 -70.716 674.82 C -70.35 658.109 -69.873 641.4 -69.289 624.695 C -68.705 607.992 -68.013 591.293 -67.218 574.598 C -66.423 557.906 -65.525 541.219 -64.528 524.538 C -63.531 507.859 -62.436 491.187 -61.248 474.521 C -60.061 457.858 -58.781 441.201 -57.416 424.552 C -56.051 407.907 -54.601 391.269 -53.074 374.637 C -51.548 358.009 -49.945 341.387 -48.27 324.776 C -46.596 308.169 -44.849 291.572 -43.056 274.968 C -41.264 258.368 -39.426 241.761 -37.489 225.212 C -35.552 208.668 -33.515 192.184 -31.627 175.503 C -29.364 155.51 -27.315 135.235 -24.291 115.957 C -21.855 100.418 -18.785 85.528 -17.954 68.015 C -17.286 53.935 -18.064 38.161 -9.622 30.038 C -0.932 21.678 17.528 21.425 30.304 27.282 C 44.863 33.955 52.043 48.561 59.574 62.252 C 68.101 77.755 77.079 92.085 84.817 107.3 C 92.624 122.65 99.168 138.9 105.204 155.241 C 111.189 171.446 116.673 187.739 121.684 204.201 C 126.636 220.47 131.126 236.903 135.336 253.399 C 139.501 269.716 143.393 286.094 147.1 302.515 C 151.507 322.04 155.652 341.627 159.665 361.238 C 162.98 377.439 166.205 393.656 169.416 409.877 C 172.59 425.913 175.751 441.953 179.051 457.961 C 182.289 473.669 185.661 489.347 189.304 504.975 C 192.849 520.184 196.65 535.346 201.269 550.25 C 205.775 564.784 211.058 579.073 216.341 593.362 Z M 165.429 633.083 C 176.513 647.138 187.596 661.194 200.225 674.042 C 212.466 686.495 226.158 697.814 239.501 708.265 C 248.984 715.694 258.291 722.685 268.207 731.657 C 276.059 738.763 284.294 747.112 284.607 755.97 C 284.889 763.935 278.764 772.312 272.324 779.307 C 261.216 791.372 249.168 799.324 237.324 808.362 C 226.485 816.634 215.817 825.816 205.744 835.491 C 192.776 847.947 180.795 861.222 170.059 875.487 C 159.217 889.892 149.645 905.308 141.189 921.274 C 132.837 937.041 125.573 953.345 119.062 969.937 C 113.957 982.947 109.314 996.133 104.992 1009.422 C 99.688 1025.729 94.867 1042.19 90.346 1058.731 C 85.891 1075.032 81.726 1091.41 77.755 1107.834 C 73.821 1124.1 70.075 1140.412 66.46 1156.754 C 63.587 1169.737 60.797 1182.739 58.06 1195.746 C 54.666 1211.879 51.355 1228.019 48.056 1244.197 C 44.792 1260.202 41.54 1276.245 38.243 1292.145 C 34.981 1307.874 31.675 1323.464 28.2 1339.506 C 25.436 1352.269 22.565 1365.319 19.807 1377.098 C 16.411 1391.601 13.188 1404.178 9.199 1423.32 C 7.073 1433.526 4.729 1445.599 2.906 1447.809 C -0.458 1451.888 -2.048 1422.392 -3.76 1401.634 C -5.59 1379.467 -7.559 1367.266 -9.432 1352.137 C -10.935 1340.002 -12.376 1325.984 -13.801 1312.415 C -15.582 1295.458 -17.337 1279.202 -19.039 1262.751 C -20.74 1246.305 -22.388 1229.665 -23.978 1213.071 C -25.567 1196.481 -27.099 1179.936 -28.565 1163.37 C -29.736 1150.121 -30.865 1136.858 -31.947 1123.594 C -33.3 1107.017 -34.58 1090.438 -35.78 1073.853 C -36.979 1057.271 -38.099 1040.682 -39.133 1024.089 C -40.166 1007.498 -41.113 990.903 -41.97 974.303 C -42.654 961.025 -43.281 947.744 -43.846 934.46 C -44.553 917.858 -45.165 901.251 -45.679 884.642 C -46.193 868.034 -46.608 851.423 -46.923 834.811 C -47.237 818.199 -47.451 801.585 -47.564 784.971 C -47.653 771.68 -47.678 758.389 -47.638 745.097 C -47.587 728.483 -47.434 711.869 -47.181 695.257 C -46.927 678.643 -46.572 662.032 -46.119 645.422 C -45.665 628.812 -45.112 612.204 -44.463 595.6 C -43.944 582.315 -43.364 569.032 -42.724 555.752 C -41.924 539.15 -41.031 522.553 -40.051 505.96 C -39.071 489.364 -38.003 472.774 -36.852 456.189 C -35.702 439.601 -34.469 423.02 -33.162 406.441 C -31.856 389.858 -30.476 373.277 -29.021 356.716 C -27.858 343.464 -26.647 330.224 -25.414 316.952 C -23.873 300.358 -22.297 283.713 -20.577 267.266 C -18.857 250.814 -16.994 234.56 -15.425 217.597 C -13.855 200.63 -12.58 182.954 -10.011 167.943 C -7.956 155.94 -5.074 145.641 -5.523 128.26 C -6.069 107.109 -11.549 75.47 0.549 80.041 C 2.731 80.866 5.485 82.869 7.723 85.08 C 19.75 96.963 16.848 114.856 18.258 131.008 C 19.41 144.207 23.442 156.244 26.707 168.576 C 30.807 184.062 33.699 200.014 36.813 215.862 C 39.96 231.876 43.334 247.785 46.633 263.724 C 49.969 279.841 53.228 295.99 56.584 312.114 C 59.291 325.118 62.061 338.105 64.903 351.077 C 68.481 367.405 72.175 383.711 76.05 399.972 C 79.961 416.382 84.057 432.747 88.418 449.046 C 92.84 465.571 97.535 482.027 102.7 498.328 C 106.907 511.601 111.426 524.771 116.315 537.828 C 122.551 554.484 129.39 570.955 137.601 586.688 C 145.935 602.66 155.682 617.871 165.429 633.083 Z" fill="#5b5b5b" fill-rule="evenodd" fill-opacity="0.85" stroke="none" stroke-width="1"/><path data-role="frame-outer" d="M 216.341 593.362 C 222.544 607.336 228.746 621.31 235.808 634.932 C 243.104 649.006 251.317 662.704 260.146 675.632 C 269.06 688.685 278.601 700.951 288.046 714.543 C 296.649 726.922 305.172 740.401 305.864 754.346 C 306.545 768.056 299.656 782.218 291.85 794.865 C 281.432 811.744 269.381 825.926 258.68 841.491 C 249.828 854.366 241.9 868.187 234.608 882.243 C 227.546 895.857 221.081 909.692 215.404 923.866 C 209.743 938.001 204.865 952.473 200.542 967.094 C 196.106 982.096 192.255 997.254 188.706 1012.481 C 185.06 1028.122 181.732 1043.836 178.513 1059.571 C 175.233 1075.599 172.067 1091.649 168.886 1107.697 C 165.67 1123.925 162.439 1140.15 159.113 1156.357 C 155.76 1172.692 152.31 1189.009 148.689 1205.285 C 145.039 1221.695 141.216 1238.064 137.136 1254.381 C 132.183 1274.192 126.853 1293.926 120.856 1313.413 C 115.795 1329.861 110.259 1346.134 104.19 1362.341 C 98.072 1378.68 91.412 1394.953 83.554 1410.19 C 75.788 1425.247 66.851 1439.293 58.02 1454.909 C 50.294 1468.57 42.649 1483.433 28.252 1488.72 C 15.607 1493.364 -2.247 1490.621 -10.649 1481.494 C -19.102 1472.31 -17.987 1456.664 -18.551 1442.478 C -19.24 1425.129 -22.438 1409.964 -24.884 1394.209 C -27.397 1378.027 -29.116 1361.223 -31 1344.58 C -32.887 1327.921 -34.939 1311.423 -36.889 1294.876 C -38.839 1278.324 -40.687 1261.722 -42.49 1245.125 C -44.654 1225.203 -46.753 1205.287 -48.747 1185.356 C -50.41 1168.743 -51.998 1152.12 -53.51 1135.49 C -55.022 1118.856 -56.457 1102.217 -57.806 1085.569 C -59.155 1068.919 -60.417 1052.261 -61.587 1035.597 C -62.757 1018.929 -63.834 1002.255 -64.813 985.575 C -65.791 968.892 -66.67 952.204 -67.446 935.511 C -68.221 918.815 -68.892 902.114 -69.456 885.41 C -70.019 868.705 -70.475 851.995 -70.82 835.284 C -71.165 818.571 -71.4 801.856 -71.524 785.14 C -71.647 768.424 -71.658 751.708 -71.558 734.991 C -71.438 714.932 -71.156 694.874 -70.716 674.82 C -70.35 658.109 -69.873 641.4 -69.289 624.695 C -68.705 607.992 -68.013 591.293 -67.218 574.598 C -66.423 557.906 -65.525 541.219 -64.528 524.538 C -63.531 507.859 -62.436 491.187 -61.248 474.521 C -60.061 457.858 -58.781 441.201 -57.416 424.552 C -56.051 407.907 -54.601 391.269 -53.074 374.637 C -51.548 358.009 -49.945 341.387 -48.27 324.776 C -46.596 308.169 -44.849 291.572 -43.056 274.968 C -41.264 258.368 -39.426 241.761 -37.489 225.212 C -35.552 208.668 -33.515 192.184 -31.627 175.503 C -29.364 155.51 -27.315 135.235 -24.291 115.957 C -21.855 100.418 -18.785 85.528 -17.954 68.015 C -17.286 53.935 -18.064 38.161 -9.622 30.038 C -0.932 21.678 17.528 21.425 30.304 27.282 C 44.863 33.955 52.043 48.561 59.574 62.252 C 68.101 77.755 77.079 92.085 84.817 107.3 C 92.624 122.65 99.168 138.9 105.204 155.241 C 111.189 171.446 116.673 187.739 121.684 204.201 C 126.636 220.47 131.126 236.903 135.336 253.399 C 139.501 269.716 143.393 286.094 147.1 302.515 C 151.507 322.04 155.652 341.627 159.665 361.238 C 162.98 377.439 166.205 393.656 169.416 409.877 C 172.59 425.913 175.751 441.953 179.051 457.961 C 182.289 473.669 185.661 489.347 189.304 504.975 C 192.849 520.184 196.65 535.346 201.269 550.25 C 205.775 564.784 211.058 579.073 216.341 593.362 Z" fill="none" stroke="#9aa0a6" stroke-width="1"/><path data-role="frame-inner" d="M 165.429 633.083 C 176.513 647.138 187.596 661.194 200.225 674.042 C 212.466 686.495 226.158 697.814 239.501 708.265 C 248.984 715.694 258.291 722.685 268.207 731.657 C 276.059 738.763 284.294 747.112 284.607 755.97 C 284.889 763.935 278.764 772.312 272.324 779.307 C 261.216 791.372 249.168 799.324 237.324 808.362 C 226.485 816.634 215.817 825.816 205.744 835.491 C 192.776 847.947 180.795 861.222 170.059 875.487 C 159.217 889.892 149.645 905.308 141.189 921.274 C 132.837 937.041 125.573 953.345 119.062 969.937 C 113.957 982.947 109.314 996.133 104.992 1009.422 C 99.688 1025.729 94.867 1042.19 90.346 1058.731 C 85.891 1075.032 81.726 1091.41 77.755 1107.834 C 73.821 1124.1 70.075 1140.412 66.46 1156.754 C 63.587 1169.737 60.797 1182.739 58.06 1195.746 C 54.666 1211.879 51.355 1228.019 48.056 1244.197 C 44.792 1260.202 41.54 1276.245 38.243 1292.145 C 34.981 1307.874 31.675 1323.464 28.2 1339.506 C 25.436 1352.269 22.565 1365.319 19.807 1377.098 C 16.411 1391.601 13.188 1404.178 9.199 1423.32 C 7.073 1433.526 4.729 1445.599 2.906 1447.809 C -0.458 1451.888 -2.048 1422.392 -3.76 1401.634 C -5.59 1379.467 -7.559 1367.266 -9.432 1352.137 C -10.935 1340.002 -12.376 1325.984 -13.801 1312.415 C -15.582 1295.458 -17.337 1279.202 -19.039 1262.751 C -20.74 1246.305 -22.388 1229.665 -23.978 1213.071 C -25.567 1196.481 -27.099 1179.936 -28.565 1163.37 C -29.736 1150.121 -30.865 1136.858 -31.947 1123.594 C -33.3 1107.017 -34.58 1090.438 -35.78 1073.853 C -36.979 1057.271 -38.099 1040.682 -39.133 1024.089 C -40.166 1007.498 -41.113 990.903 -41.97 974.303 C -42.654 961.025 -43.281 947.744 -43.846 934.46 C -44.553 917.858 -45.165 901.251 -45.679 884.642 C -46.193 868.034 -46.608 851.423 -46.923 834.811 C -47.237 818.199 -47.451 801.585 -47.564 784.971 C -47.653 771.68 -47.678 758.389 -47.638 745.097 C -47.587 728.483 -47.434 711.869 -47.181 695.257 C -46.927 678.643 -46.572 662.032 -46.119 645.422 C -45.665 628.812 -45.112 612.204 -44.463 595.6 C -43.944 582.315 -43.364 569.032 -42.724 555.752 C -41.924 539.15 -41.031 522.553 -40.051 505.96 C -39.071 489.364 -38.003 472.774 -36.852 456.189 C -35.702 439.601 -34.469 423.02 -33.162 406.441 C -31.856 389.858 -30.476 373.277 -29.021 356.716 C -27.858 343.464 -26.647 330.224 -25.414 316.952 C -23.873 300.358 -22.297 283.713 -20.577 267.266 C -18.857 250.814 -16.994 234.56 -15.425 217.597 C -13.855 200.63 -12.58 182.954 -10.011 167.943 C -7.956 155.94 -5.074 145.641 -5.523 128.26 C -6.069 107.109 -11.549 75.47 0.549 80.041 C 2.731 80.866 5.485 82.869 7.723 85.08 C 19.75 96.963 16.848 114.856 18.258 131.008 C 19.41 144.207 23.442 156.244 26.707 168.576 C 30.807 184.062 33.699 200.014 36.813 215.862 C 39.96 231.876 43.334 247.785 46.633 263.724 C 49.969 279.841 53.228 295.99 56.584 312.114 C 59.291 325.118 62.061 338.105 64.903 351.077 C 68.481 367.405 72.175 383.711 76.05 399.972 C 79.961 416.382 84.057 432.747 88.418 449.046 C 92.84 465.571 97.535 482.027 102.7 498.328 C 106.907 511.601 111.426 524.771 116.315 537.828 C 122.551 554.484 129.39 570.955 137.601 586.688 C 145.935 602.66 155.682 617.871 165.429 633.083 Z" fill="none" stroke="#9aa0a6" stroke-width="1"/><line x1="0" x2="0" y1="0" y2="1514.9" stroke="#7d7762" stroke-width="1.676" stroke-linecap="round" data-num="1" data-note="c1" data-len="1514.9" data-dia="1.676" data-ten="52.693"/><line x1="6.497" x2="6.497" y1="12.6" y2="1502.3" stroke="#7d7762" stroke-width="1.549" stroke-linecap="round" data-num="2" data-note="d1" data-len="1489.7" data-dia="1.549" data-ten="51.786"/><line x1="12.879" x2="12.879" y1="25.25" y2="1489.65" stroke="#7d7762" stroke-width="1.448" stroke-linecap="round" data-num="3" data-note="e1" data-len="1464.4" data-dia="1.448" data-ten="50.879"/><line x1="19.122" x2="19.122" y1="37.85" y2="1477.05" stroke="#7d7762" stroke-width="1.27" stroke-linecap="round" data-num="4" data-note="f1" data-len="1439.2" data-dia="1.27" data-ten="49.972"/><line x1="25.251" x2="25.251" y1="53" y2="1461.9" stroke="#7d7762" stroke-width="1.219" stroke-linecap="round" data-num="5" data-note="g1" data-len="1408.9" data-dia="1.219" data-ten="49.065"/><line x1="31.354" x2="31.354" y1="68.15" y2="1446.75" stroke="#7d7762" stroke-width="1.219" stroke-linecap="round" data-num="6" data-note="a1" data-len="1378.6" data-dia="1.219" data-ten="48.159"/><line x1="37.355" x2="37.355" y1="83.3" y2="1431.6" stroke="#7d7762" stroke-width="1.016" stroke-linecap="round" data-num="7" data-note="b1" data-len="1348.3" data-dia="1.016" data-ten="47.252"/><line x1="43.255" x2="43.255" y1="98.45" y2="1416.45" stroke="#7d7762" stroke-width="1.016" stroke-linecap="round" data-num="8" data-note="c2" data-len="1318" data-dia="1.016" data-ten="46.345"/><line x1="49.104" x2="49.104" y1="116.15" y2="1398.75" stroke="#7d7762" stroke-width="0.914" stroke-linecap="round" data-num="9" data-note="d2" data-len="1282.6" data-dia="0.914" data-ten="45.438"/><line x1="55.766" x2="55.766" y1="136.35" y2="1378.55" stroke="#7d7762" stroke-width="2.642" stroke-linecap="round" data-num="10" data-note="e2" data-len="1242.2" data-dia="2.642" data-ten="44.531"/><line x1="63.216" x2="63.216" y1="146.45" y2="1368.45" stroke="#7d7762" stroke-width="2.489" stroke-linecap="round" data-num="11" data-note="f2" data-len="1222" data-dia="2.489" data-ten="43.624"/><line x1="70.513" x2="70.513" y1="164.1" y2="1350.8" stroke="#7d7762" stroke-width="2.337" stroke-linecap="round" data-num="12" data-note="g2" data-len="1186.7" data-dia="2.337" data-ten="42.717"/><line x1="77.657" x2="77.657" y1="202" y2="1312.9" stroke="#7d7762" stroke-width="2.184" stroke-linecap="round" data-num="13" data-note="a2" data-len="1110.9" data-dia="2.184" data-ten="41.81"/><line x1="84.662" x2="84.662" y1="229.75" y2="1285.15" stroke="#7d7762" stroke-width="2.057" stroke-linecap="round" data-num="14" data-note="b2" data-len="1055.4" data-dia="2.057" data-ten="40.903"/><line x1="91.602" x2="91.602" y1="262.55" y2="1252.35" stroke="#7d7762" stroke-width="2.057" stroke-linecap="round" data-num="15" data-note="c3" data-len="989.8" data-dia="2.057" data-ten="39.997"/><line x1="98.48" x2="98.48" y1="295.4" y2="1219.5" stroke="#7d7762" stroke-width="1.93" stroke-linecap="round" data-num="16" data-note="d3" data-len="924.1" data-dia="1.93" data-ten="39.09"/><line x1="105.167" x2="105.167" y1="325.7" y2="1189.2" stroke="#7d7762" stroke-width="1.676" stroke-linecap="round" data-num="17" data-note="e3" data-len="863.5" data-dia="1.676" data-ten="38.183"/><line x1="111.727" x2="111.727" y1="361.05" y2="1153.85" stroke="#7d7762" stroke-width="1.676" stroke-linecap="round" data-num="18" data-note="f3" data-len="792.8" data-dia="1.676" data-ten="37.276"/><line x1="118.223" x2="118.223" y1="391.35" y2="1123.55" stroke="#7d7762" stroke-width="1.549" stroke-linecap="round" data-num="19" data-note="g3" data-len="732.2" data-dia="1.549" data-ten="36.369"/><line x1="124.656" x2="124.656" y1="424.15" y2="1090.75" stroke="#7d7762" stroke-width="1.549" stroke-linecap="round" data-num="20" data-note="a3" data-len="666.6" data-dia="1.549" data-ten="35.462"/><line x1="130.95" x2="130.95" y1="446.9" y2="1068" stroke="#7d7762" stroke-width="1.27" stroke-linecap="round" data-num="21" data-note="b3" data-len="621.1" data-dia="1.27" data-ten="34.555"/><line x1="137.104" x2="137.104" y1="472.15" y2="1042.75" stroke="#7d7762" stroke-width="1.27" stroke-linecap="round" data-num="22" data-note="c4" data-len="570.6" data-dia="1.27" data-ten="33.648"/><line x1="143.258" x2="143.258" y1="494.85" y2="1020.05" stroke="#7d7762" stroke-width="1.27" stroke-linecap="round" data-num="23" data-note="d4" data-len="525.2" data-dia="1.27" data-ten="32.741"/><line x1="149.348" x2="149.348" y1="515.05" y2="999.85" stroke="#7d7762" stroke-width="1.143" stroke-linecap="round" data-num="24" data-note="e4" data-len="484.8" data-dia="1.143" data-ten="31.835"/><line x1="155.375" x2="155.375" y1="532.75" y2="982.15" stroke="#7d7762" stroke-width="1.143" stroke-linecap="round" data-num="25" data-note="f4" data-len="449.4" data-dia="1.143" data-ten="30.928"/><line x1="161.402" x2="161.402" y1="550.4" y2="964.5" stroke="#7d7762" stroke-width="1.143" stroke-linecap="round" data-num="26" data-note="g4" data-len="414.1" data-dia="1.143" data-ten="30.021"/><line x1="167.366" x2="167.366" y1="565.55" y2="949.35" stroke="#7d7762" stroke-width="1.016" stroke-linecap="round" data-num="27" data-note="a4" data-len="383.8" data-dia="1.016" data-ten="29.114"/><line x1="173.266" x2="173.266" y1="580.7" y2="934.2" stroke="#7d7762" stroke-width="1.016" stroke-linecap="round" data-num="28" data-note="b4" data-len="353.5" data-dia="1.016" data-ten="28.207"/><line x1="179.166" x2="179.166" y1="593.35" y2="921.55" stroke="#7d7762" stroke-width="1.016" stroke-linecap="round" data-num="29" data-note="c5" data-len="328.2" data-dia="1.016" data-ten="27.3"/><line x1="185.015" x2="185.015" y1="605.95" y2="908.95" stroke="#7d7762" stroke-width="0.914" stroke-linecap="round" data-num="30" data-note="d5" data-len="303" data-dia="0.914" data-ten="26.393"/><line x1="190.813" x2="190.813" y1="618.6" y2="896.3" stroke="#7d7762" stroke-width="0.914" stroke-linecap="round" data-num="31" data-note="e5" data-len="277.7" data-dia="0.914" data-ten="25.486"/><line x1="196.611" x2="196.611" y1="626.15" y2="888.75" stroke="#7d7762" stroke-width="0.914" stroke-linecap="round" data-num="32" data-note="f5" data-len="262.6" data-dia="0.914" data-ten="24.579"/><line x1="202.359" x2="202.359" y1="638.8" y2="876.1" stroke="#7d7762" stroke-width="0.813" stroke-linecap="round" data-num="33" data-note="g5" data-len="237.3" data-dia="0.813" data-ten="23.672"/><line x1="208.056" x2="208.056" y1="646.35" y2="868.55" stroke="#7d7762" stroke-width="0.813" stroke-linecap="round" data-num="34" data-note="a5" data-len="222.2" data-dia="0.813" data-ten="22.766"/><line x1="213.753" x2="213.753" y1="653.95" y2="860.95" stroke="#7d7762" stroke-width="0.813" stroke-linecap="round" data-num="35" data-note="b5" data-len="207" data-dia="0.813" data-ten="21.859"/><line x1="219.45" x2="219.45" y1="661.5" y2="853.4" stroke="#7d7762" stroke-width="0.813" stroke-linecap="round" data-num="36" data-note="c6" data-len="191.9" data-dia="0.813" data-ten="20.952"/><line x1="225.121" x2="225.121" y1="669.1" y2="845.8" stroke="#7d7762" stroke-width="0.762" stroke-linecap="round" data-num="37" data-note="d6" data-len="176.7" data-dia="0.762" data-ten="20.045"/><line x1="230.767" x2="230.767" y1="676.65" y2="838.25" stroke="#7d7762" stroke-width="0.762" stroke-linecap="round" data-num="38" data-note="e6" data-len="161.6" data-dia="0.762" data-ten="19.138"/><line x1="236.413" x2="236.413" y1="684.25" y2="830.65" stroke="#7d7762" stroke-width="0.762" stroke-linecap="round" data-num="39" data-note="f6" data-len="146.4" data-dia="0.762" data-ten="18.231"/><line x1="242.034" x2="242.034" y1="691.8" y2="823.1" stroke="#7d7762" stroke-width="0.711" stroke-linecap="round" data-num="40" data-note="g6" data-len="131.3" data-dia="0.711" data-ten="17.324"/><line x1="247.629" x2="247.629" y1="696.85" y2="818.05" stroke="#7d7762" stroke-width="0.711" stroke-linecap="round" data-num="41" data-note="a6" data-len="121.2" data-dia="0.711" data-ten="16.417"/><line x1="253.198" x2="253.198" y1="701.9" y2="813" stroke="#7d7762" stroke-width="0.66" stroke-linecap="round" data-num="42" data-note="b6" data-len="111.1" data-dia="0.66" data-ten="15.51"/><line x1="258.73" x2="258.73" y1="706.95" y2="807.95" stroke="#7d7762" stroke-width="0.635" stroke-linecap="round" data-num="43" data-note="c7" data-len="101" data-dia="0.635" data-ten="14.604"/><line x1="264.249" x2="264.249" y1="712" y2="802.9" stroke="#7d7762" stroke-width="0.635" stroke-linecap="round" data-num="44" data-note="d7" data-len="90.9" data-dia="0.635" data-ten="13.697"/><line x1="269.768" x2="269.768" y1="717.05" y2="797.85" stroke="#7d7762" stroke-width="0.635" stroke-linecap="round" data-num="45" data-note="e7" data-len="80.8" data-dia="0.635" data-ten="12.79"/><line x1="275.287" x2="275.287" y1="722.1" y2="792.8" stroke="#7d7762" stroke-width="0.635" stroke-linecap="round" data-num="46" data-note="f7" data-len="70.7" data-dia="0.635" data-ten="11.883"/><line x1="280.806" x2="280.806" y1="727.15" y2="787.75" stroke="#7d7762" stroke-width="0.635" stroke-linecap="round" data-num="47" data-note="g7" data-len="60.6" data-dia="0.635" data-ten="10.976"/><path data-role="bottom-curve" d="M 0 1514.9 C 25.886 1464.181 51.771 1413.462 77.657 1312.9 C 101.554 1220.064 125.451 1084.75 149.348 999.85 C 172.715 916.832 196.083 882.018 219.45 853.4 C 239.902 828.352 260.354 808.051 280.806 787.75" fill="none" stroke="#cc2222" stroke-width="1.5"/><path data-role="top-curve" d="M 0 0 C 25.886 50.719 51.771 101.438 77.657 202 C 101.554 294.836 125.451 430.15 149.348 515.05 C 172.715 598.068 196.083 632.882 219.45 661.5 C 239.902 686.548 260.354 706.849 280.806 727.15" fill="none" stroke="#2255cc" stroke-width="1.5"/><circle data-role="rung-neck" cx="1.071" cy="2.078" r="1.5" fill="#e0b86e" stroke="#b8973f" stroke-width="0.5"/><circle data-role="rung-neck" cx="7.522" cy="14.631" r="1.5" fill="#e0b86e" stroke="#b8973f" stroke-width="0.5"/><circle data-role="rung-neck" cx="13.866" cy="27.243" r="1.5" fill="#e0b86e" stroke="#b8973f" stroke-width="0.5"/><circle data-role="rung-neck" cx="19.923" cy="39.829" r="1.5" fill="#e0b86e" stroke="#b8973f" stroke-width="0.5"/><circle data-role="rung-neck" cx="26.039" cy="54.957" r="1.5" fill="#e0b86e" stroke="#b8973f" stroke-width="0.5"/><circle data-role="rung-neck" cx="32.131" cy="70.111" r="1.5" fill="#e0b86e" stroke="#b8973f" stroke-width="0.5"/><circle data-role="rung-neck" cx="38.084" cy="85.171" r="1.5" fill="#e0b86e" stroke="#b8973f" stroke-width="0.5"/><circle data-role="rung-neck" cx="43.885" cy="100.357" r="1.5" fill="#e0b86e" stroke="#b8973f" stroke-width="0.5"/><circle data-role="rung-neck" cx="49.717" cy="118.009" r="1.5" fill="#e0b86e" stroke="#b8973f" stroke-width="0.5"/><circle data-role="rung-neck" cx="57.441" cy="138.62" r="1.5" fill="#e0b86e" stroke="#b8973f" stroke-width="0.5"/><circle data-role="rung-neck" cx="64.265" cy="148.986" r="1.5" fill="#e0b86e" stroke="#b8973f" stroke-width="0.5"/><circle data-role="rung-neck" cx="71.007" cy="166.722" r="1.5" fill="#e0b86e" stroke="#b8973f" stroke-width="0.5"/><circle data-role="rung-neck" cx="78.291" cy="204.513" r="1.5" fill="#e0b86e" stroke="#b8973f" stroke-width="0.5"/><circle data-role="rung-neck" cx="85.185" cy="232.224" r="1.5" fill="#e0b86e" stroke="#b8973f" stroke-width="0.5"/><circle data-role="rung-neck" cx="92.12" cy="265.025" r="1.5" fill="#e0b86e" stroke="#b8973f" stroke-width="0.5"/><circle data-role="rung-neck" cx="99.011" cy="297.807" r="1.5" fill="#e0b86e" stroke="#b8973f" stroke-width="0.5"/><circle data-role="rung-neck" cx="105.594" cy="327.999" r="1.5" fill="#e0b86e" stroke="#b8973f" stroke-width="0.5"/><circle data-role="rung-neck" cx="112.217" cy="363.336" r="1.5" fill="#e0b86e" stroke="#b8973f" stroke-width="0.5"/><circle data-role="rung-neck" cx="118.661" cy="393.582" r="1.5" fill="#e0b86e" stroke="#b8973f" stroke-width="0.5"/><circle data-role="rung-neck" cx="125.262" cy="426.342" r="1.5" fill="#e0b86e" stroke="#b8973f" stroke-width="0.5"/><circle data-role="rung-neck" cx="131.456" cy="448.974" r="1.5" fill="#e0b86e" stroke="#b8973f" stroke-width="0.5"/><circle data-role="rung-neck" cx="137.663" cy="474.211" r="1.5" fill="#e0b86e" stroke="#b8973f" stroke-width="0.5"/><circle data-role="rung-neck" cx="143.874" cy="496.894" r="1.5" fill="#e0b86e" stroke="#b8973f" stroke-width="0.5"/><circle data-role="rung-neck" cx="150.016" cy="517.011" r="1.5" fill="#e0b86e" stroke="#b8973f" stroke-width="0.5"/><circle data-role="rung-neck" cx="156.044" cy="534.71" r="1.5" fill="#e0b86e" stroke="#b8973f" stroke-width="0.5"/><circle data-role="rung-neck" cx="162.161" cy="552.328" r="1.5" fill="#e0b86e" stroke="#b8973f" stroke-width="0.5"/><circle data-role="rung-neck" cx="168.095" cy="567.421" r="1.5" fill="#e0b86e" stroke="#b8973f" stroke-width="0.5"/><circle data-role="rung-neck" cx="174.115" cy="582.52" r="1.5" fill="#e0b86e" stroke="#b8973f" stroke-width="0.5"/><circle data-role="rung-neck" cx="180.011" cy="595.171" r="1.5" fill="#e0b86e" stroke="#b8973f" stroke-width="0.5"/><circle data-role="rung-neck" cx="185.83" cy="607.729" r="1.5" fill="#e0b86e" stroke="#b8973f" stroke-width="0.5"/><circle data-role="rung-neck" cx="192.005" cy="620.152" r="1.5" fill="#e0b86e" stroke="#b8973f" stroke-width="0.5"/><circle data-role="rung-neck" cx="197.421" cy="627.932" r="1.5" fill="#e0b86e" stroke="#b8973f" stroke-width="0.5"/><circle data-role="rung-neck" cx="203.507" cy="640.322" r="1.5" fill="#e0b86e" stroke="#b8973f" stroke-width="0.5"/><circle data-role="rung-neck" cx="209.2" cy="647.875" r="1.5" fill="#e0b86e" stroke="#b8973f" stroke-width="0.5"/><circle data-role="rung-neck" cx="214.901" cy="655.472" r="1.5" fill="#e0b86e" stroke="#b8973f" stroke-width="0.5"/><circle data-role="rung-neck" cx="220.59" cy="663.028" r="1.5" fill="#e0b86e" stroke="#b8973f" stroke-width="0.5"/><circle data-role="rung-neck" cx="226.247" cy="670.606" r="1.5" fill="#e0b86e" stroke="#b8973f" stroke-width="0.5"/><circle data-role="rung-neck" cx="231.889" cy="678.16" r="1.5" fill="#e0b86e" stroke="#b8973f" stroke-width="0.5"/><circle data-role="rung-neck" cx="237.536" cy="685.759" r="1.5" fill="#e0b86e" stroke="#b8973f" stroke-width="0.5"/><circle data-role="rung-neck" cx="243.411" cy="693.043" r="1.5" fill="#e0b86e" stroke="#b8973f" stroke-width="0.5"/><circle data-role="rung-neck" cx="249.004" cy="698.096" r="1.5" fill="#e0b86e" stroke="#b8973f" stroke-width="0.5"/><circle data-role="rung-neck" cx="254.55" cy="703.134" r="1.5" fill="#e0b86e" stroke="#b8973f" stroke-width="0.5"/><circle data-role="rung-neck" cx="260.071" cy="708.177" r="1.5" fill="#e0b86e" stroke="#b8973f" stroke-width="0.5"/><circle data-role="rung-neck" cx="265.59" cy="713.227" r="1.5" fill="#e0b86e" stroke="#b8973f" stroke-width="0.5"/><circle data-role="rung-neck" cx="271.109" cy="718.277" r="1.5" fill="#e0b86e" stroke="#b8973f" stroke-width="0.5"/><circle data-role="rung-neck" cx="276.628" cy="723.327" r="1.5" fill="#e0b86e" stroke="#b8973f" stroke-width="0.5"/><circle data-role="rung-neck" cx="282.147" cy="728.377" r="1.5" fill="#e0b86e" stroke="#b8973f" stroke-width="0.5"/><circle data-role="rung-eyelet" cx="0" cy="1514.9" r="3.538" fill="#e0b86e" stroke="#b8973f" stroke-width="0.5"/><circle data-role="rung-eyelet-hole" cx="0" cy="1514.9" r="0.838" fill="none" stroke="#b8973f" stroke-width="0.5"/><circle data-role="rung-eyelet" cx="6.497" cy="1502.3" r="3.475" fill="#e0b86e" stroke="#b8973f" stroke-width="0.5"/><circle data-role="rung-eyelet-hole" cx="6.497" cy="1502.3" r="0.775" fill="none" stroke="#b8973f" stroke-width="0.5"/><circle data-role="rung-eyelet" cx="12.879" cy="1489.65" r="3.424" fill="#e0b86e" stroke="#b8973f" stroke-width="0.5"/><circle data-role="rung-eyelet-hole" cx="12.879" cy="1489.65" r="0.724" fill="none" stroke="#b8973f" stroke-width="0.5"/><circle data-role="rung-eyelet" cx="19.122" cy="1477.05" r="3.335" fill="#e0b86e" stroke="#b8973f" stroke-width="0.5"/><circle data-role="rung-eyelet-hole" cx="19.122" cy="1477.05" r="0.635" fill="none" stroke="#b8973f" stroke-width="0.5"/><circle data-role="rung-eyelet" cx="25.251" cy="1461.9" r="3.31" fill="#e0b86e" stroke="#b8973f" stroke-width="0.5"/><circle data-role="rung-eyelet-hole" cx="25.251" cy="1461.9" r="0.61" fill="none" stroke="#b8973f" stroke-width="0.5"/><circle data-role="rung-eyelet" cx="31.354" cy="1446.75" r="3.31" fill="#e0b86e" stroke="#b8973f" stroke-width="0.5"/><circle data-role="rung-eyelet-hole" cx="31.354" cy="1446.75" r="0.61" fill="none" stroke="#b8973f" stroke-width="0.5"/><circle data-role="rung-eyelet" cx="37.355" cy="1431.6" r="3.208" fill="#e0b86e" stroke="#b8973f" stroke-width="0.5"/><circle data-role="rung-eyelet-hole" cx="37.355" cy="1431.6" r="0.508" fill="none" stroke="#b8973f" stroke-width="0.5"/><circle data-role="rung-eyelet" cx="43.255" cy="1416.45" r="3.208" fill="#e0b86e" stroke="#b8973f" stroke-width="0.5"/><circle data-role="rung-eyelet-hole" cx="43.255" cy="1416.45" r="0.508" fill="none" stroke="#b8973f" stroke-width="0.5"/><circle data-role="rung-eyelet" cx="49.104" cy="1398.75" r="3.157" fill="#e0b86e" stroke="#b8973f" stroke-width="0.5"/><circle data-role="rung-eyelet-hole" cx="49.104" cy="1398.75" r="0.457" fill="none" stroke="#b8973f" stroke-width="0.5"/><circle data-role="rung-eyelet" cx="55.766" cy="1378.55" r="4" fill="#e0b86e" stroke="#b8973f" stroke-width="0.5"/><circle data-role="rung-eyelet-hole" cx="55.766" cy="1378.55" r="1.321" fill="none" stroke="#b8973f" stroke-width="0.5"/><circle data-role="rung-eyelet" cx="63.216" cy="1368.45" r="3.945" fill="#e0b86e" stroke="#b8973f" stroke-width="0.5"/><circle data-role="rung-eyelet-hole" cx="63.216" cy="1368.45" r="1.245" fill="none" stroke="#b8973f" stroke-width="0.5"/><circle data-role="rung-eyelet" cx="70.513" cy="1350.8" r="3.869" fill="#e0b86e" stroke="#b8973f" stroke-width="0.5"/><circle data-role="rung-eyelet-hole" cx="70.513" cy="1350.8" r="1.169" fill="none" stroke="#b8973f" stroke-width="0.5"/><circle data-role="rung-eyelet" cx="77.657" cy="1312.9" r="3.792" fill="#e0b86e" stroke="#b8973f" stroke-width="0.5"/><circle data-role="rung-eyelet-hole" cx="77.657" cy="1312.9" r="1.092" fill="none" stroke="#b8973f" stroke-width="0.5"/><circle data-role="rung-eyelet" cx="84.662" cy="1285.15" r="3.729" fill="#e0b86e" stroke="#b8973f" stroke-width="0.5"/><circle data-role="rung-eyelet-hole" cx="84.662" cy="1285.15" r="1.029" fill="none" stroke="#b8973f" stroke-width="0.5"/><circle data-role="rung-eyelet" cx="91.602" cy="1252.35" r="3.729" fill="#e0b86e" stroke="#b8973f" stroke-width="0.5"/><circle data-role="rung-eyelet-hole" cx="91.602" cy="1252.35" r="1.029" fill="none" stroke="#b8973f" stroke-width="0.5"/><circle data-role="rung-eyelet" cx="98.48" cy="1219.5" r="3.665" fill="#e0b86e" stroke="#b8973f" stroke-width="0.5"/><circle data-role="rung-eyelet-hole" cx="98.48" cy="1219.5" r="0.965" fill="none" stroke="#b8973f" stroke-width="0.5"/><circle data-role="rung-eyelet" cx="105.167" cy="1189.2" r="3.538" fill="#e0b86e" stroke="#b8973f" stroke-width="0.5"/><circle data-role="rung-eyelet-hole" cx="105.167" cy="1189.2" r="0.838" fill="none" stroke="#b8973f" stroke-width="0.5"/><circle data-role="rung-eyelet" cx="111.727" cy="1153.85" r="3.538" fill="#e0b86e" stroke="#b8973f" stroke-width="0.5"/><circle data-role="rung-eyelet-hole" cx="111.727" cy="1153.85" r="0.838" fill="none" stroke="#b8973f" stroke-width="0.5"/><circle data-role="rung-eyelet" cx="118.223" cy="1123.55" r="3.475" fill="#e0b86e" stroke="#b8973f" stroke-width="0.5"/><circle data-role="rung-eyelet-hole" cx="118.223" cy="1123.55" r="0.775" fill="none" stroke="#b8973f" stroke-width="0.5"/><circle data-role="rung-eyelet" cx="124.656" cy="1090.75" r="3.475" fill="#e0b86e" stroke="#b8973f" stroke-width="0.5"/><circle data-role="rung-eyelet-hole" cx="124.656" cy="1090.75" r="0.775" fill="none" stroke="#b8973f" stroke-width="0.5"/><circle data-role="rung-eyelet" cx="130.95" cy="1068" r="3.335" fill="#e0b86e" stroke="#b8973f" stroke-width="0.5"/><circle data-role="rung-eyelet-hole" cx="130.95" cy="1068" r="0.635" fill="none" stroke="#b8973f" stroke-width="0.5"/><circle data-role="rung-eyelet" cx="137.104" cy="1042.75" r="3.335" fill="#e0b86e" stroke="#b8973f" stroke-width="0.5"/><circle data-role="rung-eyelet-hole" cx="137.104" cy="1042.75" r="0.635" fill="none" stroke="#b8973f" stroke-width="0.5"/><circle data-role="rung-eyelet" cx="143.258" cy="1020.05" r="3.335" fill="#e0b86e" stroke="#b8973f" stroke-width="0.5"/><circle data-role="rung-eyelet-hole" cx="143.258" cy="1020.05" r="0.635" fill="none" stroke="#b8973f" stroke-width="0.5"/><circle data-role="rung-eyelet" cx="149.348" cy="999.85" r="3.272" fill="#e0b86e" stroke="#b8973f" stroke-width="0.5"/><circle data-role="rung-eyelet-hole" cx="149.348" cy="999.85" r="0.572" fill="none" stroke="#b8973f" stroke-width="0.5"/><circle data-role="rung-eyelet" cx="155.375" cy="982.15" r="3.272" fill="#e0b86e" stroke="#b8973f" stroke-width="0.5"/><circle data-role="rung-eyelet-hole" cx="155.375" cy="982.15" r="0.572" fill="none" stroke="#b8973f" stroke-width="0.5"/><circle data-role="rung-eyelet" cx="161.402" cy="964.5" r="3.272" fill="#e0b86e" stroke="#b8973f" stroke-width="0.5"/><circle data-role="rung-eyelet-hole" cx="161.402" cy="964.5" r="0.572" fill="none" stroke="#b8973f" stroke-width="0.5"/><circle data-role="rung-eyelet" cx="167.366" cy="949.35" r="3.208" fill="#e0b86e" stroke="#b8973f" stroke-width="0.5"/><circle data-role="rung-eyelet-hole" cx="167.366" cy="949.35" r="0.508" fill="none" stroke="#b8973f" stroke-width="0.5"/><circle data-role="rung-eyelet" cx="173.266" cy="934.2" r="3.208" fill="#e0b86e" stroke="#b8973f" stroke-width="0.5"/><circle data-role="rung-eyelet-hole" cx="173.266" cy="934.2" r="0.508" fill="none" stroke="#b8973f" stroke-width="0.5"/><circle data-role="rung-eyelet" cx="179.166" cy="921.55" r="3.208" fill="#e0b86e" stroke="#b8973f" stroke-width="0.5"/><circle data-role="rung-eyelet-hole" cx="179.166" cy="921.55" r="0.508" fill="none" stroke="#b8973f" stroke-width="0.5"/><circle data-role="rung-eyelet" cx="185.015" cy="908.95" r="3.157" fill="#e0b86e" stroke="#b8973f" stroke-width="0.5"/><circle data-role="rung-eyelet-hole" cx="185.015" cy="908.95" r="0.457" fill="none" stroke="#b8973f" stroke-width="0.5"/><circle data-role="rung-eyelet" cx="190.813" cy="896.3" r="3.157" fill="#e0b86e" stroke="#b8973f" stroke-width="0.5"/><circle data-role="rung-eyelet-hole" cx="190.813" cy="896.3" r="0.457" fill="none" stroke="#b8973f" stroke-width="0.5"/><circle data-role="rung-eyelet" cx="196.611" cy="888.75" r="3.157" fill="#e0b86e" stroke="#b8973f" stroke-width="0.5"/><circle data-role="rung-eyelet-hole" cx="196.611" cy="888.75" r="0.457" fill="none" stroke="#b8973f" stroke-width="0.5"/><circle data-role="rung-eyelet" cx="202.359" cy="876.1" r="3.107" fill="#e0b86e" stroke="#b8973f" stroke-width="0.5"/><circle data-role="rung-eyelet-hole" cx="202.359" cy="876.1" r="0.407" fill="none" stroke="#b8973f" stroke-width="0.5"/><circle data-role="rung-eyelet" cx="208.056" cy="868.55" r="3.107" fill="#e0b86e" stroke="#b8973f" stroke-width="0.5"/><circle data-role="rung-eyelet-hole" cx="208.056" cy="868.55" r="0.407" fill="none" stroke="#b8973f" stroke-width="0.5"/><circle data-role="rung-eyelet" cx="213.753" cy="860.95" r="3.107" fill="#e0b86e" stroke="#b8973f" stroke-width="0.5"/><circle data-role="rung-eyelet-hole" cx="213.753" cy="860.95" r="0.407" fill="none" stroke="#b8973f" stroke-width="0.5"/><circle data-role="rung-eyelet" cx="219.45" cy="853.4" r="3.107" fill="#e0b86e" stroke="#b8973f" stroke-width="0.5"/><circle data-role="rung-eyelet-hole" cx="219.45" cy="853.4" r="0.407" fill="none" stroke="#b8973f" stroke-width="0.5"/><circle data-role="rung-eyelet" cx="225.121" cy="845.8" r="3.081" fill="#e0b86e" stroke="#b8973f" stroke-width="0.5"/><circle data-role="rung-eyelet-hole" cx="225.121" cy="845.8" r="0.381" fill="none" stroke="#b8973f" stroke-width="0.5"/><circle data-role="rung-eyelet" cx="230.767" cy="838.25" r="3.081" fill="#e0b86e" stroke="#b8973f" stroke-width="0.5"/><circle data-role="rung-eyelet-hole" cx="230.767" cy="838.25" r="0.381" fill="none" stroke="#b8973f" stroke-width="0.5"/><circle data-role="rung-eyelet" cx="236.413" cy="830.65" r="3.081" fill="#e0b86e" stroke="#b8973f" stroke-width="0.5"/><circle data-role="rung-eyelet-hole" cx="236.413" cy="830.65" r="0.381" fill="none" stroke="#b8973f" stroke-width="0.5"/><circle data-role="rung-eyelet" cx="242.034" cy="823.1" r="3.056" fill="#e0b86e" stroke="#b8973f" stroke-width="0.5"/><circle data-role="rung-eyelet-hole" cx="242.034" cy="823.1" r="0.356" fill="none" stroke="#b8973f" stroke-width="0.5"/><circle data-role="rung-eyelet" cx="247.629" cy="818.05" r="3.056" fill="#e0b86e" stroke="#b8973f" stroke-width="0.5"/><circle data-role="rung-eyelet-hole" cx="247.629" cy="818.05" r="0.356" fill="none" stroke="#b8973f" stroke-width="0.5"/><circle data-role="rung-eyelet" cx="253.198" cy="813" r="3.03" fill="#e0b86e" stroke="#b8973f" stroke-width="0.5"/><circle data-role="rung-eyelet-hole" cx="253.198" cy="813" r="0.33" fill="none" stroke="#b8973f" stroke-width="0.5"/><circle data-role="rung-eyelet" cx="258.73" cy="807.95" r="3.018" fill="#e0b86e" stroke="#b8973f" stroke-width="0.5"/><circle data-role="rung-eyelet-hole" cx="258.73" cy="807.95" r="0.318" fill="none" stroke="#b8973f" stroke-width="0.5"/><circle data-role="rung-eyelet" cx="264.249" cy="802.9" r="3.018" fill="#e0b86e" stroke="#b8973f" stroke-width="0.5"/><circle data-role="rung-eyelet-hole" cx="264.249" cy="802.9" r="0.318" fill="none" stroke="#b8973f" stroke-width="0.5"/><circle data-role="rung-eyelet" cx="269.768" cy="797.85" r="3.018" fill="#e0b86e" stroke="#b8973f" stroke-width="0.5"/><circle data-role="rung-eyelet-hole" cx="269.768" cy="797.85" r="0.318" fill="none" stroke="#b8973f" stroke-width="0.5"/><circle data-role="rung-eyelet" cx="275.287" cy="792.8" r="3.018" fill="#e0b86e" stroke="#b8973f" stroke-width="0.5"/><circle data-role="rung-eyelet-hole" cx="275.287" cy="792.8" r="0.318" fill="none" stroke="#b8973f" stroke-width="0.5"/><circle data-role="rung-eyelet" cx="280.806" cy="787.75" r="3.018" fill="#e0b86e" stroke="#b8973f" stroke-width="0.5"/><circle data-role="rung-eyelet-hole" cx="280.806" cy="787.75" r="0.318" fill="none" stroke="#b8973f" stroke-width="0.5"/></svg>
