<svg xmlns="http://www.w3.org/2000/svg" viewBox="-241.45 -756.02 836.14 819.61" width="860" height="843" font-family="Cormorant Garamond, Georgia, serif">
<rect x="-241.45" y="-756.02" width="836.14" height="819.61" fill="#14110d"/>
<g transform="translate(0,-692.428) scale(1,-1)">
<circle cx="-188.317" cy="11.794" r="13.000" fill="none" stroke="#463c28" stroke-width="0.6"/>
<circle cx="-169.427" cy="-22.459" r="13.000" fill="none" stroke="#463c28" stroke-width="0.6"/>
<circle cx="-150.717" cy="-56.029" r="13.000" fill="none" stroke="#463c28" stroke-width="0.6"/>
<circle cx="-134.313" cy="-71.344" r="13.000" fill="none" stroke="#463c28" stroke-width="0.6"/>
<circle cx="-116.717" cy="-96.941" r="13.000" fill="none" stroke="#463c28" stroke-width="0.6"/>
<circle cx="-99.210" cy="-122.397" r="13.000" fill="none" stroke="#463c28" stroke-width="0.6"/>
<circle cx="-86.182" cy="-111.780" r="13.000" fill="none" stroke="#463c28" stroke-width="0.6"/>
<circle cx="-71.302" cy="-116.603" r="13.000" fill="none" stroke="#463c28" stroke-width="0.6"/>
<circle cx="-53.019" cy="-149.570" r="13.000" fill="none" stroke="#463c28" stroke-width="0.6"/>
<circle cx="-34.802" cy="-182.445" r="13.000" fill="none" stroke="#463c28" stroke-width="0.6"/>
<circle cx="-18.841" cy="-197.311" r="13.000" fill="none" stroke="#463c28" stroke-width="0.6"/>
<circle cx="-1.682" cy="-222.306" r="13.000" fill="none" stroke="#463c28" stroke-width="0.6"/>
<circle cx="15.679" cy="-244.556" r="13.000" fill="none" stroke="#463c28" stroke-width="0.6"/>
<circle cx="33.535" cy="-266.695" r="13.000" fill="none" stroke="#463c28" stroke-width="0.6"/>
<circle cx="51.630" cy="-291.223" r="13.000" fill="none" stroke="#463c28" stroke-width="0.6"/>
<circle cx="69.352" cy="-313.177" r="13.000" fill="none" stroke="#463c28" stroke-width="0.6"/>
<circle cx="86.902" cy="-335.000" r="13.000" fill="none" stroke="#463c28" stroke-width="0.6"/>
<circle cx="104.352" cy="-356.786" r="13.000" fill="none" stroke="#463c28" stroke-width="0.6"/>
<circle cx="121.750" cy="-378.427" r="13.000" fill="none" stroke="#463c28" stroke-width="0.6"/>
<circle cx="138.752" cy="-397.548" r="13.000" fill="none" stroke="#463c28" stroke-width="0.6"/>
<circle cx="155.005" cy="-411.521" r="13.000" fill="none" stroke="#463c28" stroke-width="0.6"/>
<circle cx="171.799" cy="-430.466" r="13.000" fill="none" stroke="#463c28" stroke-width="0.6"/>
<circle cx="188.222" cy="-446.836" r="13.000" fill="none" stroke="#463c28" stroke-width="0.6"/>
<circle cx="204.545" cy="-463.169" r="13.000" fill="none" stroke="#463c28" stroke-width="0.6"/>
<circle cx="220.741" cy="-478.812" r="13.000" fill="none" stroke="#463c28" stroke-width="0.6"/>
<circle cx="236.608" cy="-491.976" r="13.000" fill="none" stroke="#463c28" stroke-width="0.6"/>
<circle cx="252.412" cy="-505.148" r="13.000" fill="none" stroke="#463c28" stroke-width="0.6"/>
<circle cx="267.846" cy="-515.847" r="13.000" fill="none" stroke="#463c28" stroke-width="0.6"/>
<circle cx="284.444" cy="-536.478" r="13.000" fill="none" stroke="#463c28" stroke-width="0.6"/>
<circle cx="300.098" cy="-549.668" r="13.000" fill="none" stroke="#463c28" stroke-width="0.6"/>
<circle cx="315.723" cy="-562.863" r="13.000" fill="none" stroke="#463c28" stroke-width="0.6"/>
<circle cx="331.012" cy="-573.580" r="13.000" fill="none" stroke="#463c28" stroke-width="0.6"/>
<circle cx="345.968" cy="-581.818" r="13.000" fill="none" stroke="#463c28" stroke-width="0.6"/>
<circle cx="361.163" cy="-592.546" r="13.000" fill="none" stroke="#463c28" stroke-width="0.6"/>
<circle cx="376.325" cy="-603.279" r="13.000" fill="none" stroke="#463c28" stroke-width="0.6"/>
<circle cx="391.815" cy="-616.489" r="13.000" fill="none" stroke="#463c28" stroke-width="0.6"/>
<circle cx="406.991" cy="-627.220" r="13.000" fill="none" stroke="#463c28" stroke-width="0.6"/>
<circle cx="421.828" cy="-635.473" r="13.000" fill="none" stroke="#463c28" stroke-width="0.6"/>
<circle cx="436.481" cy="-642.238" r="13.000" fill="none" stroke="#463c28" stroke-width="0.6"/>
<circle cx="450.866" cy="-647.020" r="13.000" fill="none" stroke="#463c28" stroke-width="0.6"/>
<circle cx="465.197" cy="-651.809" r="13.000" fill="none" stroke="#463c28" stroke-width="0.6"/>
<circle cx="479.274" cy="-655.119" r="13.000" fill="none" stroke="#463c28" stroke-width="0.6"/>
<circle cx="493.420" cy="-659.427" r="13.000" fill="none" stroke="#463c28" stroke-width="0.6"/>
<circle cx="507.551" cy="-663.737" r="13.000" fill="none" stroke="#463c28" stroke-width="0.6"/>
<circle cx="521.727" cy="-668.545" r="13.000" fill="none" stroke="#463c28" stroke-width="0.6"/>
<circle cx="535.874" cy="-673.356" r="13.000" fill="none" stroke="#463c28" stroke-width="0.6"/>
<circle cx="550.311" cy="-680.651" r="13.000" fill="none" stroke="#463c28" stroke-width="0.6"/>
<circle cx="-198.476" cy="-12.139" r="13.000" fill="none" stroke="#463c28" stroke-width="0.6"/>
<circle cx="-179.586" cy="-46.392" r="13.000" fill="none" stroke="#463c28" stroke-width="0.6"/>
<circle cx="-160.876" cy="-79.962" r="13.000" fill="none" stroke="#463c28" stroke-width="0.6"/>
<circle cx="-144.472" cy="-95.277" r="13.000" fill="none" stroke="#463c28" stroke-width="0.6"/>
<circle cx="-126.876" cy="-120.874" r="13.000" fill="none" stroke="#463c28" stroke-width="0.6"/>
<circle cx="-109.369" cy="-146.330" r="13.000" fill="none" stroke="#463c28" stroke-width="0.6"/>
<circle cx="-96.341" cy="-135.713" r="13.000" fill="none" stroke="#463c28" stroke-width="0.6"/>
<circle cx="-81.461" cy="-140.536" r="13.000" fill="none" stroke="#463c28" stroke-width="0.6"/>
<circle cx="-63.178" cy="-173.503" r="13.000" fill="none" stroke="#463c28" stroke-width="0.6"/>
<circle cx="-44.961" cy="-206.378" r="13.000" fill="none" stroke="#463c28" stroke-width="0.6"/>
<circle cx="-29.000" cy="-221.244" r="13.000" fill="none" stroke="#463c28" stroke-width="0.6"/>
<circle cx="-11.841" cy="-246.239" r="13.000" fill="none" stroke="#463c28" stroke-width="0.6"/>
<circle cx="5.520" cy="-268.489" r="13.000" fill="none" stroke="#463c28" stroke-width="0.6"/>
<circle cx="23.376" cy="-290.628" r="13.000" fill="none" stroke="#463c28" stroke-width="0.6"/>
<circle cx="41.471" cy="-315.156" r="13.000" fill="none" stroke="#463c28" stroke-width="0.6"/>
<circle cx="59.193" cy="-337.110" r="13.000" fill="none" stroke="#463c28" stroke-width="0.6"/>
<circle cx="76.743" cy="-358.933" r="13.000" fill="none" stroke="#463c28" stroke-width="0.6"/>
<circle cx="94.193" cy="-380.719" r="13.000" fill="none" stroke="#463c28" stroke-width="0.6"/>
<circle cx="111.591" cy="-402.360" r="13.000" fill="none" stroke="#463c28" stroke-width="0.6"/>
<circle cx="128.593" cy="-421.481" r="13.000" fill="none" stroke="#463c28" stroke-width="0.6"/>
<circle cx="144.846" cy="-435.454" r="13.000" fill="none" stroke="#463c28" stroke-width="0.6"/>
<circle cx="161.640" cy="-454.399" r="13.000" fill="none" stroke="#463c28" stroke-width="0.6"/>
<circle cx="178.063" cy="-470.769" r="13.000" fill="none" stroke="#463c28" stroke-width="0.6"/>
<circle cx="194.386" cy="-487.102" r="13.000" fill="none" stroke="#463c28" stroke-width="0.6"/>
<circle cx="210.582" cy="-502.745" r="13.000" fill="none" stroke="#463c28" stroke-width="0.6"/>
<circle cx="226.449" cy="-515.909" r="13.000" fill="none" stroke="#463c28" stroke-width="0.6"/>
<circle cx="242.253" cy="-529.081" r="13.000" fill="none" stroke="#463c28" stroke-width="0.6"/>
<circle cx="257.687" cy="-539.780" r="13.000" fill="none" stroke="#463c28" stroke-width="0.6"/>
<circle cx="274.285" cy="-560.411" r="13.000" fill="none" stroke="#463c28" stroke-width="0.6"/>
<circle cx="289.939" cy="-573.601" r="13.000" fill="none" stroke="#463c28" stroke-width="0.6"/>
<circle cx="305.564" cy="-586.796" r="13.000" fill="none" stroke="#463c28" stroke-width="0.6"/>
<circle cx="320.853" cy="-597.513" r="13.000" fill="none" stroke="#463c28" stroke-width="0.6"/>
<circle cx="335.809" cy="-605.751" r="13.000" fill="none" stroke="#463c28" stroke-width="0.6"/>
<circle cx="351.004" cy="-616.479" r="13.000" fill="none" stroke="#463c28" stroke-width="0.6"/>
<circle cx="366.166" cy="-627.212" r="13.000" fill="none" stroke="#463c28" stroke-width="0.6"/>
<circle cx="381.656" cy="-640.422" r="13.000" fill="none" stroke="#463c28" stroke-width="0.6"/>
<circle cx="396.832" cy="-651.153" r="13.000" fill="none" stroke="#463c28" stroke-width="0.6"/>
<circle cx="411.669" cy="-659.406" r="13.000" fill="none" stroke="#463c28" stroke-width="0.6"/>
<circle cx="426.322" cy="-666.171" r="13.000" fill="none" stroke="#463c28" stroke-width="0.6"/>
<circle cx="440.707" cy="-670.953" r="13.000" fill="none" stroke="#463c28" stroke-width="0.6"/>
<circle cx="455.038" cy="-675.742" r="13.000" fill="none" stroke="#463c28" stroke-width="0.6"/>
<circle cx="469.115" cy="-679.052" r="13.000" fill="none" stroke="#463c28" stroke-width="0.6"/>
<circle cx="483.261" cy="-683.360" r="13.000" fill="none" stroke="#463c28" stroke-width="0.6"/>
<circle cx="497.392" cy="-687.670" r="13.000" fill="none" stroke="#463c28" stroke-width="0.6"/>
<circle cx="511.568" cy="-692.478" r="13.000" fill="none" stroke="#463c28" stroke-width="0.6"/>
<circle cx="525.715" cy="-697.289" r="13.000" fill="none" stroke="#463c28" stroke-width="0.6"/>
<circle cx="540.152" cy="-704.584" r="13.000" fill="none" stroke="#463c28" stroke-width="0.6"/>
<circle cx="-187.341" cy="-102.822" r="13.000" fill="none" stroke="#463c28" stroke-width="0.6"/>
<circle cx="-168.948" cy="-133.033" r="13.000" fill="none" stroke="#463c28" stroke-width="0.6"/>
<circle cx="-150.725" cy="-162.638" r="13.000" fill="none" stroke="#463c28" stroke-width="0.6"/>
<circle cx="-134.556" cy="-176.038" r="13.000" fill="none" stroke="#463c28" stroke-width="0.6"/>
<circle cx="-117.337" cy="-198.567" r="13.000" fill="none" stroke="#463c28" stroke-width="0.6"/>
<circle cx="-100.204" cy="-220.971" r="13.000" fill="none" stroke="#463c28" stroke-width="0.6"/>
<circle cx="-87.054" cy="-211.351" r="13.000" fill="none" stroke="#463c28" stroke-width="0.6"/>
<circle cx="-72.264" cy="-215.439" r="13.000" fill="none" stroke="#463c28" stroke-width="0.6"/>
<circle cx="-54.459" cy="-244.514" r="13.000" fill="none" stroke="#463c28" stroke-width="0.6"/>
<circle cx="-36.718" cy="-273.508" r="13.000" fill="none" stroke="#463c28" stroke-width="0.6"/>
<circle cx="-20.986" cy="-286.514" r="13.000" fill="none" stroke="#463c28" stroke-width="0.6"/>
<circle cx="-4.195" cy="-308.514" r="13.000" fill="none" stroke="#463c28" stroke-width="0.6"/>
<circle cx="12.835" cy="-328.069" r="13.000" fill="none" stroke="#463c28" stroke-width="0.6"/>
<circle cx="30.361" cy="-347.518" r="13.000" fill="none" stroke="#463c28" stroke-width="0.6"/>
<circle cx="48.093" cy="-369.089" r="13.000" fill="none" stroke="#463c28" stroke-width="0.6"/>
<circle cx="65.488" cy="-388.376" r="13.000" fill="none" stroke="#463c28" stroke-width="0.6"/>
<circle cx="82.712" cy="-407.549" r="13.000" fill="none" stroke="#463c28" stroke-width="0.6"/>
<circle cx="99.838" cy="-426.690" r="13.000" fill="none" stroke="#463c28" stroke-width="0.6"/>
<circle cx="116.913" cy="-445.703" r="13.000" fill="none" stroke="#463c28" stroke-width="0.6"/>
<circle cx="133.627" cy="-462.480" r="13.000" fill="none" stroke="#463c28" stroke-width="0.6"/>
<circle cx="149.663" cy="-474.687" r="13.000" fill="none" stroke="#463c28" stroke-width="0.6"/>
<circle cx="166.172" cy="-491.310" r="13.000" fill="none" stroke="#463c28" stroke-width="0.6"/>
<circle cx="182.346" cy="-505.648" r="13.000" fill="none" stroke="#463c28" stroke-width="0.6"/>
<circle cx="198.420" cy="-519.954" r="13.000" fill="none" stroke="#463c28" stroke-width="0.6"/>
<circle cx="214.376" cy="-533.648" r="13.000" fill="none" stroke="#463c28" stroke-width="0.6"/>
<circle cx="230.038" cy="-545.142" r="13.000" fill="none" stroke="#463c28" stroke-width="0.6"/>
<circle cx="245.637" cy="-556.643" r="13.000" fill="none" stroke="#463c28" stroke-width="0.6"/>
<circle cx="260.900" cy="-565.950" r="13.000" fill="none" stroke="#463c28" stroke-width="0.6"/>
<circle cx="277.191" cy="-584.076" r="13.000" fill="none" stroke="#463c28" stroke-width="0.6"/>
<circle cx="292.640" cy="-595.595" r="13.000" fill="none" stroke="#463c28" stroke-width="0.6"/>
<circle cx="308.059" cy="-607.120" r="13.000" fill="none" stroke="#463c28" stroke-width="0.6"/>
<circle cx="323.178" cy="-616.445" r="13.000" fill="none" stroke="#463c28" stroke-width="0.6"/>
<circle cx="337.997" cy="-623.569" r="13.000" fill="none" stroke="#463c28" stroke-width="0.6"/>
<circle cx="353.021" cy="-632.905" r="13.000" fill="none" stroke="#463c28" stroke-width="0.6"/>
<circle cx="368.012" cy="-642.246" r="13.000" fill="none" stroke="#463c28" stroke-width="0.6"/>
<circle cx="383.297" cy="-653.786" r="13.000" fill="none" stroke="#463c28" stroke-width="0.6"/>
<circle cx="398.302" cy="-663.125" r="13.000" fill="none" stroke="#463c28" stroke-width="0.6"/>
<circle cx="413.002" cy="-670.264" r="13.000" fill="none" stroke="#463c28" stroke-width="0.6"/>
<circle cx="427.539" cy="-676.082" r="13.000" fill="none" stroke="#463c28" stroke-width="0.6"/>
<circle cx="441.835" cy="-680.140" r="13.000" fill="none" stroke="#463c28" stroke-width="0.6"/>
<circle cx="456.077" cy="-684.206" r="13.000" fill="none" stroke="#463c28" stroke-width="0.6"/>
<circle cx="470.086" cy="-686.959" r="13.000" fill="none" stroke="#463c28" stroke-width="0.6"/>
<circle cx="484.150" cy="-690.599" r="13.000" fill="none" stroke="#463c28" stroke-width="0.6"/>
<circle cx="498.199" cy="-694.240" r="13.000" fill="none" stroke="#463c28" stroke-width="0.6"/>
<circle cx="512.286" cy="-698.325" r="13.000" fill="none" stroke="#463c28" stroke-width="0.6"/>
<circle cx="526.344" cy="-702.412" r="13.000" fill="none" stroke="#463c28" stroke-width="0.6"/>
<circle cx="540.658" cy="-708.704" r="13.000" fill="none" stroke="#463c28" stroke-width="0.6"/>
<circle cx="-176.822" cy="-188.495" r="13.000" fill="none" stroke="#463c28" stroke-width="0.6"/>
<circle cx="-158.897" cy="-214.886" r="13.000" fill="none" stroke="#463c28" stroke-width="0.6"/>
<circle cx="-141.134" cy="-240.746" r="13.000" fill="none" stroke="#463c28" stroke-width="0.6"/>
<circle cx="-125.188" cy="-252.336" r="13.000" fill="none" stroke="#463c28" stroke-width="0.6"/>
<circle cx="-108.324" cy="-271.967" r="13.000" fill="none" stroke="#463c28" stroke-width="0.6"/>
<circle cx="-91.546" cy="-291.488" r="13.000" fill="none" stroke="#463c28" stroke-width="0.6"/>
<circle cx="-78.280" cy="-282.810" r="13.000" fill="none" stroke="#463c28" stroke-width="0.6"/>
<circle cx="-63.575" cy="-286.203" r="13.000" fill="none" stroke="#463c28" stroke-width="0.6"/>
<circle cx="-46.222" cy="-311.601" r="13.000" fill="none" stroke="#463c28" stroke-width="0.6"/>
<circle cx="-28.931" cy="-336.928" r="13.000" fill="none" stroke="#463c28" stroke-width="0.6"/>
<circle cx="-13.415" cy="-348.178" r="13.000" fill="none" stroke="#463c28" stroke-width="0.6"/>
<circle cx="3.029" cy="-367.347" r="13.000" fill="none" stroke="#463c28" stroke-width="0.6"/>
<circle cx="19.747" cy="-384.356" r="13.000" fill="none" stroke="#463c28" stroke-width="0.6"/>
<circle cx="36.960" cy="-401.265" r="13.000" fill="none" stroke="#463c28" stroke-width="0.6"/>
<circle cx="54.349" cy="-420.043" r="13.000" fill="none" stroke="#463c28" stroke-width="0.6"/>
<circle cx="71.435" cy="-436.810" r="13.000" fill="none" stroke="#463c28" stroke-width="0.6"/>
<circle cx="88.352" cy="-453.478" r="13.000" fill="none" stroke="#463c28" stroke-width="0.6"/>
<circle cx="105.170" cy="-470.121" r="13.000" fill="none" stroke="#463c28" stroke-width="0.6"/>
<circle cx="121.941" cy="-486.650" r="13.000" fill="none" stroke="#463c28" stroke-width="0.6"/>
<circle cx="138.383" cy="-501.213" r="13.000" fill="none" stroke="#463c28" stroke-width="0.6"/>
<circle cx="154.214" cy="-511.753" r="13.000" fill="none" stroke="#463c28" stroke-width="0.6"/>
<circle cx="170.454" cy="-526.182" r="13.000" fill="none" stroke="#463c28" stroke-width="0.6"/>
<circle cx="186.392" cy="-538.600" r="13.000" fill="none" stroke="#463c28" stroke-width="0.6"/>
<circle cx="202.231" cy="-550.991" r="13.000" fill="none" stroke="#463c28" stroke-width="0.6"/>
<circle cx="217.961" cy="-562.844" r="13.000" fill="none" stroke="#463c28" stroke-width="0.6"/>
<circle cx="233.429" cy="-572.760" r="13.000" fill="none" stroke="#463c28" stroke-width="0.6"/>
<circle cx="248.834" cy="-582.683" r="13.000" fill="none" stroke="#463c28" stroke-width="0.6"/>
<circle cx="263.936" cy="-590.675" r="13.000" fill="none" stroke="#463c28" stroke-width="0.6"/>
<circle cx="279.936" cy="-606.433" r="13.000" fill="none" stroke="#463c28" stroke-width="0.6"/>
<circle cx="295.191" cy="-616.374" r="13.000" fill="none" stroke="#463c28" stroke-width="0.6"/>
<circle cx="310.417" cy="-626.321" r="13.000" fill="none" stroke="#463c28" stroke-width="0.6"/>
<circle cx="325.374" cy="-634.330" r="13.000" fill="none" stroke="#463c28" stroke-width="0.6"/>
<circle cx="340.064" cy="-640.403" r="13.000" fill="none" stroke="#463c28" stroke-width="0.6"/>
<circle cx="354.926" cy="-648.424" r="13.000" fill="none" stroke="#463c28" stroke-width="0.6"/>
<circle cx="369.756" cy="-656.449" r="13.000" fill="none" stroke="#463c28" stroke-width="0.6"/>
<circle cx="384.847" cy="-666.411" r="13.000" fill="none" stroke="#463c28" stroke-width="0.6"/>
<circle cx="399.691" cy="-674.435" r="13.000" fill="none" stroke="#463c28" stroke-width="0.6"/>
<circle cx="414.262" cy="-680.522" r="13.000" fill="none" stroke="#463c28" stroke-width="0.6"/>
<circle cx="428.689" cy="-685.446" r="13.000" fill="none" stroke="#463c28" stroke-width="0.6"/>
<circle cx="442.901" cy="-688.820" r="13.000" fill="none" stroke="#463c28" stroke-width="0.6"/>
<circle cx="457.059" cy="-692.202" r="13.000" fill="none" stroke="#463c28" stroke-width="0.6"/>
<circle cx="471.003" cy="-694.429" r="13.000" fill="none" stroke="#463c28" stroke-width="0.6"/>
<circle cx="484.989" cy="-697.437" r="13.000" fill="none" stroke="#463c28" stroke-width="0.6"/>
<circle cx="498.961" cy="-700.448" r="13.000" fill="none" stroke="#463c28" stroke-width="0.6"/>
<circle cx="512.964" cy="-703.848" r="13.000" fill="none" stroke="#463c28" stroke-width="0.6"/>
<circle cx="526.938" cy="-707.251" r="13.000" fill="none" stroke="#463c28" stroke-width="0.6"/>
<circle cx="541.136" cy="-712.597" r="13.000" fill="none" stroke="#463c28" stroke-width="0.6"/>
<path d="M -201.316 12.947 C -148.838 116.760 -58.963 -116.196 -58.255 -116.903 C -57.548 -117.610 138.162 -384.833 143.143 -385.259 C 148.125 -385.685 437.908 -646.480 512.075 -651.496 C 586.243 -656.512 591.795 -745.999 518.532 -730.137 C 442.806 -713.741 335.716 -671.464 164.847 -537.966 C -6.022 -404.469 -30.554 -326.815 -98.931 -302.248 C -167.307 -277.680 -253.794 -90.867 -201.316 12.947 Z" fill="#caa24a" fill-opacity="0.10" stroke="#e8c46a" stroke-width="2.4" stroke-linejoin="round"/>
<line x1="-201.316" y1="12.947" x2="-148.838" y2="116.760" stroke="#5fb0e0" stroke-width="1.1"/>
<line x1="-58.255" y1="-116.903" x2="-58.963" y2="-116.196" stroke="#5fb0e0" stroke-width="1.1"/>
<line x1="-58.255" y1="-116.903" x2="-57.548" y2="-117.610" stroke="#5fb0e0" stroke-width="1.1"/>
<line x1="143.143" y1="-385.259" x2="138.162" y2="-384.833" stroke="#5fb0e0" stroke-width="1.1"/>
<line x1="143.143" y1="-385.259" x2="148.125" y2="-385.685" stroke="#5fb0e0" stroke-width="1.1"/>
<line x1="512.075" y1="-651.496" x2="437.908" y2="-646.480" stroke="#5fb0e0" stroke-width="1.1"/>
<line x1="512.075" y1="-651.496" x2="586.243" y2="-656.512" stroke="#5fb0e0" stroke-width="1.1"/>
<line x1="518.532" y1="-730.137" x2="591.795" y2="-745.999" stroke="#5fb0e0" stroke-width="1.1"/>
<line x1="518.532" y1="-730.137" x2="442.806" y2="-713.741" stroke="#5fb0e0" stroke-width="1.1"/>
<line x1="164.847" y1="-537.966" x2="335.716" y2="-671.464" stroke="#5fb0e0" stroke-width="1.1"/>
<line x1="164.847" y1="-537.966" x2="-6.022" y2="-404.469" stroke="#5fb0e0" stroke-width="1.1"/>
<line x1="-98.931" y1="-302.248" x2="-30.554" y2="-326.815" stroke="#5fb0e0" stroke-width="1.1"/>
<line x1="-98.931" y1="-302.248" x2="-167.307" y2="-277.680" stroke="#5fb0e0" stroke-width="1.1"/>
<line x1="-201.316" y1="12.947" x2="-253.794" y2="-90.867" stroke="#5fb0e0" stroke-width="1.1"/>
<rect x="-151.438" y="114.160" width="5.2" height="5.2" fill="#5fb0e0"/>
<rect x="-61.563" y="-118.796" width="5.2" height="5.2" fill="#5fb0e0"/>
<rect x="-60.148" y="-120.210" width="5.2" height="5.2" fill="#5fb0e0"/>
<rect x="135.562" y="-387.433" width="5.2" height="5.2" fill="#5fb0e0"/>
<rect x="145.525" y="-388.285" width="5.2" height="5.2" fill="#5fb0e0"/>
<rect x="435.308" y="-649.080" width="5.2" height="5.2" fill="#5fb0e0"/>
<rect x="583.643" y="-659.112" width="5.2" height="5.2" fill="#5fb0e0"/>
<rect x="589.195" y="-748.599" width="5.2" height="5.2" fill="#5fb0e0"/>
<rect x="440.206" y="-716.341" width="5.2" height="5.2" fill="#5fb0e0"/>
<rect x="333.116" y="-674.064" width="5.2" height="5.2" fill="#5fb0e0"/>
<rect x="-8.622" y="-407.069" width="5.2" height="5.2" fill="#5fb0e0"/>
<rect x="-33.154" y="-329.415" width="5.2" height="5.2" fill="#5fb0e0"/>
<rect x="-169.907" y="-280.280" width="5.2" height="5.2" fill="#5fb0e0"/>
<rect x="-256.394" y="-93.467" width="5.2" height="5.2" fill="#5fb0e0"/>
<circle cx="-188.317" cy="11.794" r="3.1" fill="#cf3b2d"/>
<circle cx="-169.427" cy="-22.459" r="3.1" fill="#cf3b2d"/>
<circle cx="-150.717" cy="-56.029" r="3.1" fill="#cf3b2d"/>
<circle cx="-134.313" cy="-71.344" r="3.1" fill="#cf3b2d"/>
<circle cx="-116.717" cy="-96.941" r="3.1" fill="#cf3b2d"/>
<circle cx="-99.210" cy="-122.397" r="3.1" fill="#cf3b2d"/>
<circle cx="-86.182" cy="-111.780" r="3.1" fill="#cf3b2d"/>
<circle cx="-71.302" cy="-116.603" r="3.1" fill="#cf3b2d"/>
<circle cx="-53.019" cy="-149.570" r="3.1" fill="#cf3b2d"/>
<circle cx="-34.802" cy="-182.445" r="3.1" fill="#cf3b2d"/>
<circle cx="-18.841" cy="-197.311" r="3.1" fill="#cf3b2d"/>
<circle cx="-1.682" cy="-222.306" r="3.1" fill="#cf3b2d"/>
<circle cx="15.679" cy="-244.556" r="3.1" fill="#cf3b2d"/>
<circle cx="33.535" cy="-266.695" r="3.1" fill="#cf3b2d"/>
<circle cx="51.630" cy="-291.223" r="3.1" fill="#cf3b2d"/>
<circle cx="69.352" cy="-313.177" r="3.1" fill="#cf3b2d"/>
<circle cx="86.902" cy="-335.000" r="3.1" fill="#cf3b2d"/>
<circle cx="104.352" cy="-356.786" r="3.1" fill="#cf3b2d"/>
<circle cx="121.750" cy="-378.427" r="3.1" fill="#cf3b2d"/>
<circle cx="138.752" cy="-397.548" r="3.1" fill="#cf3b2d"/>
<circle cx="155.005" cy="-411.521" r="3.1" fill="#cf3b2d"/>
<circle cx="171.799" cy="-430.466" r="3.1" fill="#cf3b2d"/>
<circle cx="188.222" cy="-446.836" r="3.1" fill="#cf3b2d"/>
<circle cx="204.545" cy="-463.169" r="3.1" fill="#cf3b2d"/>
<circle cx="220.741" cy="-478.812" r="3.1" fill="#cf3b2d"/>
<circle cx="236.608" cy="-491.976" r="3.1" fill="#cf3b2d"/>
<circle cx="252.412" cy="-505.148" r="3.1" fill="#cf3b2d"/>
<circle cx="267.846" cy="-515.847" r="3.1" fill="#cf3b2d"/>
<circle cx="284.444" cy="-536.478" r="3.1" fill="#cf3b2d"/>
<circle cx="300.098" cy="-549.668" r="3.1" fill="#cf3b2d"/>
<circle cx="315.723" cy="-562.863" r="3.1" fill="#cf3b2d"/>
<circle cx="331.012" cy="-573.580" r="3.1" fill="#cf3b2d"/>
<circle cx="345.968" cy="-581.818" r="3.1" fill="#cf3b2d"/>
<circle cx="361.163" cy="-592.546" r="3.1" fill="#cf3b2d"/>
<circle cx="376.325" cy="-603.279" r="3.1" fill="#cf3b2d"/>
<circle cx="391.815" cy="-616.489" r="3.1" fill="#cf3b2d"/>
<circle cx="406.991" cy="-627.220" r="3.1" fill="#cf3b2d"/>
<circle cx="421.828" cy="-635.473" r="3.1" fill="#cf3b2d"/>
<circle cx="436.481" cy="-642.238" r="3.1" fill="#cf3b2d"/>
<circle cx="450.866" cy="-647.020" r="3.1" fill="#cf3b2d"/>
<circle cx="465.197" cy="-651.809" r="3.1" fill="#cf3b2d"/>
<circle cx="479.274" cy="-655.119" r="3.1" fill="#cf3b2d"/>
<circle cx="493.420" cy="-659.427" r="3.1" fill="#cf3b2d"/>
<circle cx="507.551" cy="-663.737" r="3.1" fill="#cf3b2d"/>
<circle cx="521.727" cy="-668.545" r="3.1" fill="#cf3b2d"/>
<circle cx="535.874" cy="-673.356" r="3.1" fill="#cf3b2d"/>
<circle cx="550.311" cy="-680.651" r="3.1" fill="#cf3b2d"/>
<circle cx="-198.476" cy="-12.139" r="3.1" fill="#3f86d0"/>
<circle cx="-179.586" cy="-46.392" r="3.1" fill="#3f86d0"/>
<circle cx="-160.876" cy="-79.962" r="3.1" fill="#3f86d0"/>
<circle cx="-144.472" cy="-95.277" r="3.1" fill="#3f86d0"/>
<circle cx="-126.876" cy="-120.874" r="3.1" fill="#3f86d0"/>
<circle cx="-109.369" cy="-146.330" r="3.1" fill="#3f86d0"/>
<circle cx="-96.341" cy="-135.713" r="3.1" fill="#3f86d0"/>
<circle cx="-81.461" cy="-140.536" r="3.1" fill="#3f86d0"/>
<circle cx="-63.178" cy="-173.503" r="3.1" fill="#3f86d0"/>
<circle cx="-44.961" cy="-206.378" r="3.1" fill="#3f86d0"/>
<circle cx="-29.000" cy="-221.244" r="3.1" fill="#3f86d0"/>
<circle cx="-11.841" cy="-246.239" r="3.1" fill="#3f86d0"/>
<circle cx="5.520" cy="-268.489" r="3.1" fill="#3f86d0"/>
<circle cx="23.376" cy="-290.628" r="3.1" fill="#3f86d0"/>
<circle cx="41.471" cy="-315.156" r="3.1" fill="#3f86d0"/>
<circle cx="59.193" cy="-337.110" r="3.1" fill="#3f86d0"/>
<circle cx="76.743" cy="-358.933" r="3.1" fill="#3f86d0"/>
<circle cx="94.193" cy="-380.719" r="3.1" fill="#3f86d0"/>
<circle cx="111.591" cy="-402.360" r="3.1" fill="#3f86d0"/>
<circle cx="128.593" cy="-421.481" r="3.1" fill="#3f86d0"/>
<circle cx="144.846" cy="-435.454" r="3.1" fill="#3f86d0"/>
<circle cx="161.640" cy="-454.399" r="3.1" fill="#3f86d0"/>
<circle cx="178.063" cy="-470.769" r="3.1" fill="#3f86d0"/>
<circle cx="194.386" cy="-487.102" r="3.1" fill="#3f86d0"/>
<circle cx="210.582" cy="-502.745" r="3.1" fill="#3f86d0"/>
<circle cx="226.449" cy="-515.909" r="3.1" fill="#3f86d0"/>
<circle cx="242.253" cy="-529.081" r="3.1" fill="#3f86d0"/>
<circle cx="257.687" cy="-539.780" r="3.1" fill="#3f86d0"/>
<circle cx="274.285" cy="-560.411" r="3.1" fill="#3f86d0"/>
<circle cx="289.939" cy="-573.601" r="3.1" fill="#3f86d0"/>
<circle cx="305.564" cy="-586.796" r="3.1" fill="#3f86d0"/>
<circle cx="320.853" cy="-597.513" r="3.1" fill="#3f86d0"/>
<circle cx="335.809" cy="-605.751" r="3.1" fill="#3f86d0"/>
<circle cx="351.004" cy="-616.479" r="3.1" fill="#3f86d0"/>
<circle cx="366.166" cy="-627.212" r="3.1" fill="#3f86d0"/>
<circle cx="381.656" cy="-640.422" r="3.1" fill="#3f86d0"/>
<circle cx="396.832" cy="-651.153" r="3.1" fill="#3f86d0"/>
<circle cx="411.669" cy="-659.406" r="3.1" fill="#3f86d0"/>
<circle cx="426.322" cy="-666.171" r="3.1" fill="#3f86d0"/>
<circle cx="440.707" cy="-670.953" r="3.1" fill="#3f86d0"/>
<circle cx="455.038" cy="-675.742" r="3.1" fill="#3f86d0"/>
<circle cx="469.115" cy="-679.052" r="3.1" fill="#3f86d0"/>
<circle cx="483.261" cy="-683.360" r="3.1" fill="#3f86d0"/>
<circle cx="497.392" cy="-687.670" r="3.1" fill="#3f86d0"/>
<circle cx="511.568" cy="-692.478" r="3.1" fill="#3f86d0"/>
<circle cx="525.715" cy="-697.289" r="3.1" fill="#3f86d0"/>
<circle cx="540.152" cy="-704.584" r="3.1" fill="#3f86d0"/>
<circle cx="-187.341" cy="-102.822" r="3.1" fill="#5aa469"/>
<circle cx="-168.948" cy="-133.033" r="3.1" fill="#5aa469"/>
<circle cx="-150.725" cy="-162.638" r="3.1" fill="#5aa469"/>
<circle cx="-134.556" cy="-176.038" r="3.1" fill="#5aa469"/>
<circle cx="-117.337" cy="-198.567" r="3.1" fill="#5aa469"/>
<circle cx="-100.204" cy="-220.971" r="3.1" fill="#5aa469"/>
<circle cx="-87.054" cy="-211.351" r="3.1" fill="#5aa469"/>
<circle cx="-72.264" cy="-215.439" r="3.1" fill="#5aa469"/>
<circle cx="-54.459" cy="-244.514" r="3.1" fill="#5aa469"/>
<circle cx="-36.718" cy="-273.508" r="3.1" fill="#5aa469"/>
<circle cx="-20.986" cy="-286.514" r="3.1" fill="#5aa469"/>
<circle cx="-4.195" cy="-308.514" r="3.1" fill="#5aa469"/>
<circle cx="12.835" cy="-328.069" r="3.1" fill="#5aa469"/>
<circle cx="30.361" cy="-347.518" r="3.1" fill="#5aa469"/>
<circle cx="48.093" cy="-369.089" r="3.1" fill="#5aa469"/>
<circle cx="65.488" cy="-388.376" r="3.1" fill="#5aa469"/>
<circle cx="82.712" cy="-407.549" r="3.1" fill="#5aa469"/>
<circle cx="99.838" cy="-426.690" r="3.1" fill="#5aa469"/>
<circle cx="116.913" cy="-445.703" r="3.1" fill="#5aa469"/>
<circle cx="133.627" cy="-462.480" r="3.1" fill="#5aa469"/>
<circle cx="149.663" cy="-474.687" r="3.1" fill="#5aa469"/>
<circle cx="166.172" cy="-491.310" r="3.1" fill="#5aa469"/>
<circle cx="182.346" cy="-505.648" r="3.1" fill="#5aa469"/>
<circle cx="198.420" cy="-519.954" r="3.1" fill="#5aa469"/>
<circle cx="214.376" cy="-533.648" r="3.1" fill="#5aa469"/>
<circle cx="230.038" cy="-545.142" r="3.1" fill="#5aa469"/>
<circle cx="245.637" cy="-556.643" r="3.1" fill="#5aa469"/>
<circle cx="260.900" cy="-565.950" r="3.1" fill="#5aa469"/>
<circle cx="277.191" cy="-584.076" r="3.1" fill="#5aa469"/>
<circle cx="292.640" cy="-595.595" r="3.1" fill="#5aa469"/>
<circle cx="308.059" cy="-607.120" r="3.1" fill="#5aa469"/>
<circle cx="323.178" cy="-616.445" r="3.1" fill="#5aa469"/>
<circle cx="337.997" cy="-623.569" r="3.1" fill="#5aa469"/>
<circle cx="353.021" cy="-632.905" r="3.1" fill="#5aa469"/>
<circle cx="368.012" cy="-642.246" r="3.1" fill="#5aa469"/>
<circle cx="383.297" cy="-653.786" r="3.1" fill="#5aa469"/>
<circle cx="398.302" cy="-663.125" r="3.1" fill="#5aa469"/>
<circle cx="413.002" cy="-670.264" r="3.1" fill="#5aa469"/>
<circle cx="427.539" cy="-676.082" r="3.1" fill="#5aa469"/>
<circle cx="441.835" cy="-680.140" r="3.1" fill="#5aa469"/>
<circle cx="456.077" cy="-684.206" r="3.1" fill="#5aa469"/>
<circle cx="470.086" cy="-686.959" r="3.1" fill="#5aa469"/>
<circle cx="484.150" cy="-690.599" r="3.1" fill="#5aa469"/>
<circle cx="498.199" cy="-694.240" r="3.1" fill="#5aa469"/>
<circle cx="512.286" cy="-698.325" r="3.1" fill="#5aa469"/>
<circle cx="526.344" cy="-702.412" r="3.1" fill="#5aa469"/>
<circle cx="540.658" cy="-708.704" r="3.1" fill="#5aa469"/>
<circle cx="-176.822" cy="-188.495" r="3.1" fill="#c8923a"/>
<circle cx="-158.897" cy="-214.886" r="3.1" fill="#c8923a"/>
<circle cx="-141.134" cy="-240.746" r="3.1" fill="#c8923a"/>
<circle cx="-125.188" cy="-252.336" r="3.1" fill="#c8923a"/>
<circle cx="-108.324" cy="-271.967" r="3.1" fill="#c8923a"/>
<circle cx="-91.546" cy="-291.488" r="3.1" fill="#c8923a"/>
<circle cx="-78.280" cy="-282.810" r="3.1" fill="#c8923a"/>
<circle cx="-63.575" cy="-286.203" r="3.1" fill="#c8923a"/>
<circle cx="-46.222" cy="-311.601" r="3.1" fill="#c8923a"/>
<circle cx="-28.931" cy="-336.928" r="3.1" fill="#c8923a"/>
<circle cx="-13.415" cy="-348.178" r="3.1" fill="#c8923a"/>
<circle cx="3.029" cy="-367.347" r="3.1" fill="#c8923a"/>
<circle cx="19.747" cy="-384.356" r="3.1" fill="#c8923a"/>
<circle cx="36.960" cy="-401.265" r="3.1" fill="#c8923a"/>
<circle cx="54.349" cy="-420.043" r="3.1" fill="#c8923a"/>
<circle cx="71.435" cy="-436.810" r="3.1" fill="#c8923a"/>
<circle cx="88.352" cy="-453.478" r="3.1" fill="#c8923a"/>
<circle cx="105.170" cy="-470.121" r="3.1" fill="#c8923a"/>
<circle cx="121.941" cy="-486.650" r="3.1" fill="#c8923a"/>
<circle cx="138.383" cy="-501.213" r="3.1" fill="#c8923a"/>
<circle cx="154.214" cy="-511.753" r="3.1" fill="#c8923a"/>
<circle cx="170.454" cy="-526.182" r="3.1" fill="#c8923a"/>
<circle cx="186.392" cy="-538.600" r="3.1" fill="#c8923a"/>
<circle cx="202.231" cy="-550.991" r="3.1" fill="#c8923a"/>
<circle cx="217.961" cy="-562.844" r="3.1" fill="#c8923a"/>
<circle cx="233.429" cy="-572.760" r="3.1" fill="#c8923a"/>
<circle cx="248.834" cy="-582.683" r="3.1" fill="#c8923a"/>
<circle cx="263.936" cy="-590.675" r="3.1" fill="#c8923a"/>
<circle cx="279.936" cy="-606.433" r="3.1" fill="#c8923a"/>
<circle cx="295.191" cy="-616.374" r="3.1" fill="#c8923a"/>
<circle cx="310.417" cy="-626.321" r="3.1" fill="#c8923a"/>
<circle cx="325.374" cy="-634.330" r="3.1" fill="#c8923a"/>
<circle cx="340.064" cy="-640.403" r="3.1" fill="#c8923a"/>
<circle cx="354.926" cy="-648.424" r="3.1" fill="#c8923a"/>
<circle cx="369.756" cy="-656.449" r="3.1" fill="#c8923a"/>
<circle cx="384.847" cy="-666.411" r="3.1" fill="#c8923a"/>
<circle cx="399.691" cy="-674.435" r="3.1" fill="#c8923a"/>
<circle cx="414.262" cy="-680.522" r="3.1" fill="#c8923a"/>
<circle cx="428.689" cy="-685.446" r="3.1" fill="#c8923a"/>
<circle cx="442.901" cy="-688.820" r="3.1" fill="#c8923a"/>
<circle cx="457.059" cy="-692.202" r="3.1" fill="#c8923a"/>
<circle cx="471.003" cy="-694.429" r="3.1" fill="#c8923a"/>
<circle cx="484.989" cy="-697.437" r="3.1" fill="#c8923a"/>
<circle cx="498.961" cy="-700.448" r="3.1" fill="#c8923a"/>
<circle cx="512.964" cy="-703.848" r="3.1" fill="#c8923a"/>
<circle cx="526.938" cy="-707.251" r="3.1" fill="#c8923a"/>
<circle cx="541.136" cy="-712.597" r="3.1" fill="#c8923a"/>
<circle cx="-201.316" cy="12.947" r="5.0" fill="#14110d" stroke="#f4e3b0" stroke-width="2"/>
<circle cx="-58.255" cy="-116.903" r="5.0" fill="#14110d" stroke="#f4e3b0" stroke-width="2"/>
<circle cx="143.143" cy="-385.259" r="5.0" fill="#14110d" stroke="#f4e3b0" stroke-width="2"/>
<circle cx="512.075" cy="-651.496" r="5.0" fill="#14110d" stroke="#f4e3b0" stroke-width="2"/>
<circle cx="518.532" cy="-730.137" r="5.0" fill="#14110d" stroke="#f4e3b0" stroke-width="2"/>
<circle cx="164.847" cy="-537.966" r="5.0" fill="#14110d" stroke="#f4e3b0" stroke-width="2"/>
<circle cx="-98.931" cy="-302.248" r="5.0" fill="#14110d" stroke="#f4e3b0" stroke-width="2"/>
</g>
<g font-size="22" font-weight="600" fill="#f4e3b0">
<text x="-214.82" y="-715.74" text-anchor="middle">0</text>
<text x="-69.64" y="-587.35" text-anchor="middle">1</text>
<text x="163.22" y="-291.17" text-anchor="middle">2</text>
<text x="530.21" y="-21.47" text-anchor="middle">3</text>
<text x="535.21" y="59.05" text-anchor="middle">4</text>
<text x="173.47" y="-127.22" text-anchor="middle">5</text>
<text x="-119.93" y="-389.75" text-anchor="middle">6</text>
</g>
<g font-size="20">
<text x="-225.45424710626096" y="-726.0181950291009" fill="#f4e3b0">7-node closed Bezier &#183; area 118,652 mm&#178; &#183; min clearance 13 mm</text>
</g></svg>