<svg xmlns="http://www.w3.org/2000/svg" viewBox="-49.55 -250.78 756.00 360.29" width="860" height="410" font-family="Cormorant Garamond, Georgia, serif">
<rect x="-49.55" y="-250.78" width="756.00" height="360.29" fill="#14110d"/>
<g transform="translate(0,-141.266) scale(1,-1)">
<circle cx="13.000" cy="22.517" r="13.000" fill="none" stroke="#463c28" stroke-width="0.6"/>
<circle cx="27.575" cy="-2.118" r="13.000" fill="none" stroke="#463c28" stroke-width="0.6"/>
<circle cx="42.055" cy="-25.665" r="13.000" fill="none" stroke="#463c28" stroke-width="0.6"/>
<circle cx="56.470" cy="-12.630" r="13.000" fill="none" stroke="#463c28" stroke-width="0.6"/>
<circle cx="70.815" cy="-20.614" r="13.000" fill="none" stroke="#463c28" stroke-width="0.6"/>
<circle cx="85.090" cy="-28.619" r="13.000" fill="none" stroke="#463c28" stroke-width="0.6"/>
<circle cx="99.315" cy="35.864" r="13.000" fill="none" stroke="#463c28" stroke-width="0.6"/>
<circle cx="113.495" cy="68.961" r="13.000" fill="none" stroke="#463c28" stroke-width="0.6"/>
<circle cx="127.625" cy="45.075" r="13.000" fill="none" stroke="#463c28" stroke-width="0.6"/>
<circle cx="141.700" cy="21.075" r="13.000" fill="none" stroke="#463c28" stroke-width="0.6"/>
<circle cx="155.730" cy="33.052" r="13.000" fill="none" stroke="#463c28" stroke-width="0.6"/>
<circle cx="169.715" cy="24.317" r="13.000" fill="none" stroke="#463c28" stroke-width="0.6"/>
<circle cx="184.235" cy="22.516" r="13.000" fill="none" stroke="#463c28" stroke-width="0.6"/>
<circle cx="199.260" cy="22.153" r="13.000" fill="none" stroke="#463c28" stroke-width="0.6"/>
<circle cx="214.230" cy="16.508" r="13.000" fill="none" stroke="#463c28" stroke-width="0.6"/>
<circle cx="229.145" cy="15.429" r="13.000" fill="none" stroke="#463c28" stroke-width="0.6"/>
<circle cx="243.905" cy="13.632" r="13.000" fill="none" stroke="#463c28" stroke-width="0.6"/>
<circle cx="258.570" cy="11.020" r="13.000" fill="none" stroke="#463c28" stroke-width="0.6"/>
<circle cx="273.200" cy="7.898" r="13.000" fill="none" stroke="#463c28" stroke-width="0.6"/>
<circle cx="287.745" cy="8.821" r="13.000" fill="none" stroke="#463c28" stroke-width="0.6"/>
<circle cx="302.175" cy="18.929" r="13.000" fill="none" stroke="#463c28" stroke-width="0.6"/>
<circle cx="316.535" cy="17.875" r="13.000" fill="none" stroke="#463c28" stroke-width="0.6"/>
<circle cx="330.840" cy="20.830" r="13.000" fill="none" stroke="#463c28" stroke-width="0.6"/>
<circle cx="345.050" cy="22.517" r="13.000" fill="none" stroke="#463c28" stroke-width="0.6"/>
<circle cx="359.220" cy="24.308" r="13.000" fill="none" stroke="#463c28" stroke-width="0.6"/>
<circle cx="373.365" cy="29.825" r="13.000" fill="none" stroke="#463c28" stroke-width="0.6"/>
<circle cx="387.445" cy="33.942" r="13.000" fill="none" stroke="#463c28" stroke-width="0.6"/>
<circle cx="401.460" cy="41.644" r="13.000" fill="none" stroke="#463c28" stroke-width="0.6"/>
<circle cx="415.420" cy="27.941" r="13.000" fill="none" stroke="#463c28" stroke-width="0.6"/>
<circle cx="429.350" cy="27.872" r="13.000" fill="none" stroke="#463c28" stroke-width="0.6"/>
<circle cx="443.250" cy="26.416" r="13.000" fill="none" stroke="#463c28" stroke-width="0.6"/>
<circle cx="457.120" cy="28.552" r="13.000" fill="none" stroke="#463c28" stroke-width="0.6"/>
<circle cx="470.960" cy="34.258" r="13.000" fill="none" stroke="#463c28" stroke-width="0.6"/>
<circle cx="484.735" cy="33.457" r="13.000" fill="none" stroke="#463c28" stroke-width="0.6"/>
<circle cx="498.475" cy="31.184" r="13.000" fill="none" stroke="#463c28" stroke-width="0.6"/>
<circle cx="512.240" cy="22.516" r="13.000" fill="none" stroke="#463c28" stroke-width="0.6"/>
<circle cx="525.995" cy="17.392" r="13.000" fill="none" stroke="#463c28" stroke-width="0.6"/>
<circle cx="539.715" cy="15.890" r="13.000" fill="none" stroke="#463c28" stroke-width="0.6"/>
<circle cx="553.435" cy="16.198" r="13.000" fill="none" stroke="#463c28" stroke-width="0.6"/>
<circle cx="567.130" cy="19.420" r="13.000" fill="none" stroke="#463c28" stroke-width="0.6"/>
<circle cx="580.770" cy="21.663" r="13.000" fill="none" stroke="#463c28" stroke-width="0.6"/>
<circle cx="594.340" cy="26.051" r="13.000" fill="none" stroke="#463c28" stroke-width="0.6"/>
<circle cx="607.855" cy="27.742" r="13.000" fill="none" stroke="#463c28" stroke-width="0.6"/>
<circle cx="621.355" cy="28.907" r="13.000" fill="none" stroke="#463c28" stroke-width="0.6"/>
<circle cx="634.840" cy="28.678" r="13.000" fill="none" stroke="#463c28" stroke-width="0.6"/>
<circle cx="648.295" cy="28.167" r="13.000" fill="none" stroke="#463c28" stroke-width="0.6"/>
<circle cx="661.735" cy="22.517" r="13.000" fill="none" stroke="#463c28" stroke-width="0.6"/>
<circle cx="0.000" cy="-177.680" r="13.000" fill="none" stroke="#463c28" stroke-width="0.6"/>
<circle cx="14.575" cy="-194.395" r="13.000" fill="none" stroke="#463c28" stroke-width="0.6"/>
<circle cx="29.055" cy="-210.174" r="13.000" fill="none" stroke="#463c28" stroke-width="0.6"/>
<circle cx="43.470" cy="-193.386" r="13.000" fill="none" stroke="#463c28" stroke-width="0.6"/>
<circle cx="57.815" cy="-195.358" r="13.000" fill="none" stroke="#463c28" stroke-width="0.6"/>
<circle cx="72.090" cy="-197.385" r="13.000" fill="none" stroke="#463c28" stroke-width="0.6"/>
<circle cx="86.315" cy="-134.854" r="13.000" fill="none" stroke="#463c28" stroke-width="0.6"/>
<circle cx="100.495" cy="-100.317" r="13.000" fill="none" stroke="#463c28" stroke-width="0.6"/>
<circle cx="114.625" cy="-116.577" r="13.000" fill="none" stroke="#463c28" stroke-width="0.6"/>
<circle cx="128.700" cy="-132.973" r="13.000" fill="none" stroke="#463c28" stroke-width="0.6"/>
<circle cx="142.730" cy="-117.352" r="13.000" fill="none" stroke="#463c28" stroke-width="0.6"/>
<circle cx="156.715" cy="-120.217" r="13.000" fill="none" stroke="#463c28" stroke-width="0.6"/>
<circle cx="171.235" cy="-116.738" r="13.000" fill="none" stroke="#463c28" stroke-width="0.6"/>
<circle cx="186.260" cy="-111.831" r="13.000" fill="none" stroke="#463c28" stroke-width="0.6"/>
<circle cx="201.230" cy="-111.683" r="13.000" fill="none" stroke="#463c28" stroke-width="0.6"/>
<circle cx="216.145" cy="-107.536" r="13.000" fill="none" stroke="#463c28" stroke-width="0.6"/>
<circle cx="230.905" cy="-104.140" r="13.000" fill="none" stroke="#463c28" stroke-width="0.6"/>
<circle cx="245.570" cy="-101.570" r="13.000" fill="none" stroke="#463c28" stroke-width="0.6"/>
<circle cx="260.200" cy="-99.542" r="13.000" fill="none" stroke="#463c28" stroke-width="0.6"/>
<circle cx="274.745" cy="-94.026" r="13.000" fill="none" stroke="#463c28" stroke-width="0.6"/>
<circle cx="289.175" cy="-80.460" r="13.000" fill="none" stroke="#463c28" stroke-width="0.6"/>
<circle cx="303.535" cy="-76.964" r="13.000" fill="none" stroke="#463c28" stroke-width="0.6"/>
<circle cx="317.840" cy="-70.027" r="13.000" fill="none" stroke="#463c28" stroke-width="0.6"/>
<circle cx="332.050" cy="-64.369" r="13.000" fill="none" stroke="#463c28" stroke-width="0.6"/>
<circle cx="346.220" cy="-58.759" r="13.000" fill="none" stroke="#463c28" stroke-width="0.6"/>
<circle cx="360.365" cy="-49.969" r="13.000" fill="none" stroke="#463c28" stroke-width="0.6"/>
<circle cx="374.445" cy="-42.579" r="13.000" fill="none" stroke="#463c28" stroke-width="0.6"/>
<circle cx="388.460" cy="-32.150" r="13.000" fill="none" stroke="#463c28" stroke-width="0.6"/>
<circle cx="402.420" cy="-40.943" r="13.000" fill="none" stroke="#463c28" stroke-width="0.6"/>
<circle cx="416.350" cy="-37.739" r="13.000" fill="none" stroke="#463c28" stroke-width="0.6"/>
<circle cx="430.250" cy="-35.922" r="13.000" fill="none" stroke="#463c28" stroke-width="0.6"/>
<circle cx="444.120" cy="-31.059" r="13.000" fill="none" stroke="#463c28" stroke-width="0.6"/>
<circle cx="457.960" cy="-23.171" r="13.000" fill="none" stroke="#463c28" stroke-width="0.6"/>
<circle cx="471.735" cy="-21.244" r="13.000" fill="none" stroke="#463c28" stroke-width="0.6"/>
<circle cx="485.475" cy="-20.790" r="13.000" fill="none" stroke="#463c28" stroke-width="0.6"/>
<circle cx="499.240" cy="-26.185" r="13.000" fill="none" stroke="#463c28" stroke-width="0.6"/>
<circle cx="512.995" cy="-28.581" r="13.000" fill="none" stroke="#463c28" stroke-width="0.6"/>
<circle cx="526.715" cy="-27.901" r="13.000" fill="none" stroke="#463c28" stroke-width="0.6"/>
<circle cx="540.435" cy="-25.739" r="13.000" fill="none" stroke="#463c28" stroke-width="0.6"/>
<circle cx="554.130" cy="-21.098" r="13.000" fill="none" stroke="#463c28" stroke-width="0.6"/>
<circle cx="567.770" cy="-17.437" r="13.000" fill="none" stroke="#463c28" stroke-width="0.6"/>
<circle cx="581.340" cy="-11.958" r="13.000" fill="none" stroke="#463c28" stroke-width="0.6"/>
<circle cx="594.855" cy="-8.958" r="13.000" fill="none" stroke="#463c28" stroke-width="0.6"/>
<circle cx="608.355" cy="-6.484" r="13.000" fill="none" stroke="#463c28" stroke-width="0.6"/>
<circle cx="621.840" cy="-5.294" r="13.000" fill="none" stroke="#463c28" stroke-width="0.6"/>
<circle cx="635.295" cy="-4.387" r="13.000" fill="none" stroke="#463c28" stroke-width="0.6"/>
<circle cx="648.735" cy="-8.073" r="13.000" fill="none" stroke="#463c28" stroke-width="0.6"/>
<path d="M 52.140 -222.642 C -38.979 -260.093 -36.529 -32.557 -8.052 33.907 C 20.425 100.372 258.926 88.973 314.742 74.057 C 370.558 59.141 649.851 80.190 676.662 24.049 C 703.473 -32.092 643.711 -16.179 356.925 -87.034 C 70.140 -157.888 143.258 -185.190 52.140 -222.642 Z" fill="#caa24a" fill-opacity="0.10" stroke="#e8c46a" stroke-width="2.4" stroke-linejoin="round"/>
<line x1="52.140" y1="-222.642" x2="-38.979" y2="-260.093" stroke="#5fb0e0" stroke-width="1.1"/>
<line x1="-8.052" y1="33.907" x2="-36.529" y2="-32.557" stroke="#5fb0e0" stroke-width="1.1"/>
<line x1="-8.052" y1="33.907" x2="20.425" y2="100.372" stroke="#5fb0e0" stroke-width="1.1"/>
<line x1="314.742" y1="74.057" x2="258.926" y2="88.973" stroke="#5fb0e0" stroke-width="1.1"/>
<line x1="314.742" y1="74.057" x2="370.558" y2="59.141" stroke="#5fb0e0" stroke-width="1.1"/>
<line x1="676.662" y1="24.049" x2="649.851" y2="80.190" stroke="#5fb0e0" stroke-width="1.1"/>
<line x1="676.662" y1="24.049" x2="703.473" y2="-32.092" stroke="#5fb0e0" stroke-width="1.1"/>
<line x1="356.925" y1="-87.034" x2="643.711" y2="-16.179" stroke="#5fb0e0" stroke-width="1.1"/>
<line x1="356.925" y1="-87.034" x2="70.140" y2="-157.888" stroke="#5fb0e0" stroke-width="1.1"/>
<line x1="52.140" y1="-222.642" x2="143.258" y2="-185.190" stroke="#5fb0e0" stroke-width="1.1"/>
<rect x="-41.579" y="-262.693" width="5.2" height="5.2" fill="#5fb0e0"/>
<rect x="-39.129" y="-35.157" width="5.2" height="5.2" fill="#5fb0e0"/>
<rect x="17.825" y="97.772" width="5.2" height="5.2" fill="#5fb0e0"/>
<rect x="256.326" y="86.373" width="5.2" height="5.2" fill="#5fb0e0"/>
<rect x="367.958" y="56.541" width="5.2" height="5.2" fill="#5fb0e0"/>
<rect x="647.251" y="77.590" width="5.2" height="5.2" fill="#5fb0e0"/>
<rect x="700.873" y="-34.692" width="5.2" height="5.2" fill="#5fb0e0"/>
<rect x="641.111" y="-18.779" width="5.2" height="5.2" fill="#5fb0e0"/>
<rect x="67.540" y="-160.488" width="5.2" height="5.2" fill="#5fb0e0"/>
<rect x="140.658" y="-187.790" width="5.2" height="5.2" fill="#5fb0e0"/>
<circle cx="13.000" cy="22.517" r="3.1" fill="#cf3b2d"/>
<circle cx="27.575" cy="-2.118" r="3.1" fill="#cf3b2d"/>
<circle cx="42.055" cy="-25.665" r="3.1" fill="#cf3b2d"/>
<circle cx="56.470" cy="-12.630" r="3.1" fill="#cf3b2d"/>
<circle cx="70.815" cy="-20.614" r="3.1" fill="#cf3b2d"/>
<circle cx="85.090" cy="-28.619" r="3.1" fill="#cf3b2d"/>
<circle cx="99.315" cy="35.864" r="3.1" fill="#cf3b2d"/>
<circle cx="113.495" cy="68.961" r="3.1" fill="#cf3b2d"/>
<circle cx="127.625" cy="45.075" r="3.1" fill="#cf3b2d"/>
<circle cx="141.700" cy="21.075" r="3.1" fill="#cf3b2d"/>
<circle cx="155.730" cy="33.052" r="3.1" fill="#cf3b2d"/>
<circle cx="169.715" cy="24.317" r="3.1" fill="#cf3b2d"/>
<circle cx="184.235" cy="22.516" r="3.1" fill="#cf3b2d"/>
<circle cx="199.260" cy="22.153" r="3.1" fill="#cf3b2d"/>
<circle cx="214.230" cy="16.508" r="3.1" fill="#cf3b2d"/>
<circle cx="229.145" cy="15.429" r="3.1" fill="#cf3b2d"/>
<circle cx="243.905" cy="13.632" r="3.1" fill="#cf3b2d"/>
<circle cx="258.570" cy="11.020" r="3.1" fill="#cf3b2d"/>
<circle cx="273.200" cy="7.898" r="3.1" fill="#cf3b2d"/>
<circle cx="287.745" cy="8.821" r="3.1" fill="#cf3b2d"/>
<circle cx="302.175" cy="18.929" r="3.1" fill="#cf3b2d"/>
<circle cx="316.535" cy="17.875" r="3.1" fill="#cf3b2d"/>
<circle cx="330.840" cy="20.830" r="3.1" fill="#cf3b2d"/>
<circle cx="345.050" cy="22.517" r="3.1" fill="#cf3b2d"/>
<circle cx="359.220" cy="24.308" r="3.1" fill="#cf3b2d"/>
<circle cx="373.365" cy="29.825" r="3.1" fill="#cf3b2d"/>
<circle cx="387.445" cy="33.942" r="3.1" fill="#cf3b2d"/>
<circle cx="401.460" cy="41.644" r="3.1" fill="#cf3b2d"/>
<circle cx="415.420" cy="27.941" r="3.1" fill="#cf3b2d"/>
<circle cx="429.350" cy="27.872" r="3.1" fill="#cf3b2d"/>
<circle cx="443.250" cy="26.416" r="3.1" fill="#cf3b2d"/>
<circle cx="457.120" cy="28.552" r="3.1" fill="#cf3b2d"/>
<circle cx="470.960" cy="34.258" r="3.1" fill="#cf3b2d"/>
<circle cx="484.735" cy="33.457" r="3.1" fill="#cf3b2d"/>
<circle cx="498.475" cy="31.184" r="3.1" fill="#cf3b2d"/>
<circle cx="512.240" cy="22.516" r="3.1" fill="#cf3b2d"/>
<circle cx="525.995" cy="17.392" r="3.1" fill="#cf3b2d"/>
<circle cx="539.715" cy="15.890" r="3.1" fill="#cf3b2d"/>
<circle cx="553.435" cy="16.198" r="3.1" fill="#cf3b2d"/>
<circle cx="567.130" cy="19.420" r="3.1" fill="#cf3b2d"/>
<circle cx="580.770" cy="21.663" r="3.1" fill="#cf3b2d"/>
<circle cx="594.340" cy="26.051" r="3.1" fill="#cf3b2d"/>
<circle cx="607.855" cy="27.742" r="3.1" fill="#cf3b2d"/>
<circle cx="621.355" cy="28.907" r="3.1" fill="#cf3b2d"/>
<circle cx="634.840" cy="28.678" r="3.1" fill="#cf3b2d"/>
<circle cx="648.295" cy="28.167" r="3.1" fill="#cf3b2d"/>
<circle cx="661.735" cy="22.517" r="3.1" fill="#cf3b2d"/>
<circle cx="0.000" cy="-177.680" r="3.1" fill="#3f86d0"/>
<circle cx="14.575" cy="-194.395" r="3.1" fill="#3f86d0"/>
<circle cx="29.055" cy="-210.174" r="3.1" fill="#3f86d0"/>
<circle cx="43.470" cy="-193.386" r="3.1" fill="#3f86d0"/>
<circle cx="57.815" cy="-195.358" r="3.1" fill="#3f86d0"/>
<circle cx="72.090" cy="-197.385" r="3.1" fill="#3f86d0"/>
<circle cx="86.315" cy="-134.854" r="3.1" fill="#3f86d0"/>
<circle cx="100.495" cy="-100.317" r="3.1" fill="#3f86d0"/>
<circle cx="114.625" cy="-116.577" r="3.1" fill="#3f86d0"/>
<circle cx="128.700" cy="-132.973" r="3.1" fill="#3f86d0"/>
<circle cx="142.730" cy="-117.352" r="3.1" fill="#3f86d0"/>
<circle cx="156.715" cy="-120.217" r="3.1" fill="#3f86d0"/>
<circle cx="171.235" cy="-116.738" r="3.1" fill="#3f86d0"/>
<circle cx="186.260" cy="-111.831" r="3.1" fill="#3f86d0"/>
<circle cx="201.230" cy="-111.683" r="3.1" fill="#3f86d0"/>
<circle cx="216.145" cy="-107.536" r="3.1" fill="#3f86d0"/>
<circle cx="230.905" cy="-104.140" r="3.1" fill="#3f86d0"/>
<circle cx="245.570" cy="-101.570" r="3.1" fill="#3f86d0"/>
<circle cx="260.200" cy="-99.542" r="3.1" fill="#3f86d0"/>
<circle cx="274.745" cy="-94.026" r="3.1" fill="#3f86d0"/>
<circle cx="289.175" cy="-80.460" r="3.1" fill="#3f86d0"/>
<circle cx="303.535" cy="-76.964" r="3.1" fill="#3f86d0"/>
<circle cx="317.840" cy="-70.027" r="3.1" fill="#3f86d0"/>
<circle cx="332.050" cy="-64.369" r="3.1" fill="#3f86d0"/>
<circle cx="346.220" cy="-58.759" r="3.1" fill="#3f86d0"/>
<circle cx="360.365" cy="-49.969" r="3.1" fill="#3f86d0"/>
<circle cx="374.445" cy="-42.579" r="3.1" fill="#3f86d0"/>
<circle cx="388.460" cy="-32.150" r="3.1" fill="#3f86d0"/>
<circle cx="402.420" cy="-40.943" r="3.1" fill="#3f86d0"/>
<circle cx="416.350" cy="-37.739" r="3.1" fill="#3f86d0"/>
<circle cx="430.250" cy="-35.922" r="3.1" fill="#3f86d0"/>
<circle cx="444.120" cy="-31.059" r="3.1" fill="#3f86d0"/>
<circle cx="457.960" cy="-23.171" r="3.1" fill="#3f86d0"/>
<circle cx="471.735" cy="-21.244" r="3.1" fill="#3f86d0"/>
<circle cx="485.475" cy="-20.790" r="3.1" fill="#3f86d0"/>
<circle cx="499.240" cy="-26.185" r="3.1" fill="#3f86d0"/>
<circle cx="512.995" cy="-28.581" r="3.1" fill="#3f86d0"/>
<circle cx="526.715" cy="-27.901" r="3.1" fill="#3f86d0"/>
<circle cx="540.435" cy="-25.739" r="3.1" fill="#3f86d0"/>
<circle cx="554.130" cy="-21.098" r="3.1" fill="#3f86d0"/>
<circle cx="567.770" cy="-17.437" r="3.1" fill="#3f86d0"/>
<circle cx="581.340" cy="-11.958" r="3.1" fill="#3f86d0"/>
<circle cx="594.855" cy="-8.958" r="3.1" fill="#3f86d0"/>
<circle cx="608.355" cy="-6.484" r="3.1" fill="#3f86d0"/>
<circle cx="621.840" cy="-5.294" r="3.1" fill="#3f86d0"/>
<circle cx="635.295" cy="-4.387" r="3.1" fill="#3f86d0"/>
<circle cx="648.735" cy="-8.073" r="3.1" fill="#3f86d0"/>
<circle cx="52.140" cy="-222.642" r="5.0" fill="#14110d" stroke="#f4e3b0" stroke-width="2"/>
<circle cx="-8.052" cy="33.907" r="5.0" fill="#14110d" stroke="#f4e3b0" stroke-width="2"/>
<circle cx="314.742" cy="74.057" r="5.0" fill="#14110d" stroke="#f4e3b0" stroke-width="2"/>
<circle cx="676.662" cy="24.049" r="5.0" fill="#14110d" stroke="#f4e3b0" stroke-width="2"/>
<circle cx="356.925" cy="-87.034" r="5.0" fill="#14110d" stroke="#f4e3b0" stroke-width="2"/>
</g>
<g font-size="22" font-weight="600" fill="#f4e3b0">
<text x="36.36" y="103.71" text-anchor="middle">0</text>
<text x="-29.40" y="-173.50" text-anchor="middle">1</text>
<text x="326.33" y="-227.02" text-anchor="middle">2</text>
<text x="698.48" y="-161.10" text-anchor="middle">3</text>
<text x="376.38" y="-36.95" text-anchor="middle">4</text>
</g>
<g font-size="20">
<text x="-33.5508474872117" y="-220.77642997958523" fill="#f4e3b0">5-node closed Bezier &#183; area 122,619 mm&#178; &#183; min clearance 13 mm</text>
</g></svg>