<svg xmlns="http://www.w3.org/2000/svg" viewBox="-227.01 -750.33 811.91 803.01" width="860" height="851" font-family="Cormorant Garamond, Georgia, serif">
<rect x="-227.01" y="-750.33" width="811.91" height="803.01" fill="#14110d"/>
<g transform="translate(0,-697.648) scale(1,-1)">
<circle cx="-188.317" cy="11.794" r="13.000" fill="none" stroke="#463c28" stroke-width="0.6"/>
<circle cx="-167.929" cy="-34.663" r="13.000" fill="none" stroke="#463c28" stroke-width="0.6"/>
<circle cx="-147.785" cy="-79.910" r="13.000" fill="none" stroke="#463c28" stroke-width="0.6"/>
<circle cx="-132.175" cy="-88.758" r="13.000" fill="none" stroke="#463c28" stroke-width="0.6"/>
<circle cx="-114.093" cy="-118.313" r="13.000" fill="none" stroke="#463c28" stroke-width="0.6"/>
<circle cx="-96.101" cy="-147.720" r="13.000" fill="none" stroke="#463c28" stroke-width="0.6"/>
<circle cx="-87.001" cy="-105.106" r="13.000" fill="none" stroke="#463c28" stroke-width="0.6"/>
<circle cx="-74.138" cy="-93.502" r="13.000" fill="none" stroke="#463c28" stroke-width="0.6"/>
<circle cx="-54.400" cy="-138.325" r="13.000" fill="none" stroke="#463c28" stroke-width="0.6"/>
<circle cx="-34.720" cy="-183.115" r="13.000" fill="none" stroke="#463c28" stroke-width="0.6"/>
<circle cx="-19.487" cy="-192.046" r="13.000" fill="none" stroke="#463c28" stroke-width="0.6"/>
<circle cx="-1.794" cy="-221.391" r="13.000" fill="none" stroke="#463c28" stroke-width="0.6"/>
<circle cx="15.679" cy="-244.557" r="13.000" fill="none" stroke="#463c28" stroke-width="0.6"/>
<circle cx="33.560" cy="-266.895" r="13.000" fill="none" stroke="#463c28" stroke-width="0.6"/>
<circle cx="52.003" cy="-294.264" r="13.000" fill="none" stroke="#463c28" stroke-width="0.6"/>
<circle cx="69.794" cy="-316.779" r="13.000" fill="none" stroke="#463c28" stroke-width="0.6"/>
<circle cx="87.456" cy="-339.515" r="13.000" fill="none" stroke="#463c28" stroke-width="0.6"/>
<circle cx="105.067" cy="-362.609" r="13.000" fill="none" stroke="#463c28" stroke-width="0.6"/>
<circle cx="122.655" cy="-385.798" r="13.000" fill="none" stroke="#463c28" stroke-width="0.6"/>
<circle cx="139.599" cy="-404.442" r="13.000" fill="none" stroke="#463c28" stroke-width="0.6"/>
<circle cx="155.233" cy="-413.379" r="13.000" fill="none" stroke="#463c28" stroke-width="0.6"/>
<circle cx="172.088" cy="-432.817" r="13.000" fill="none" stroke="#463c28" stroke-width="0.6"/>
<circle cx="188.327" cy="-447.692" r="13.000" fill="none" stroke="#463c28" stroke-width="0.6"/>
<circle cx="204.545" cy="-463.170" r="13.000" fill="none" stroke="#463c28" stroke-width="0.6"/>
<circle cx="220.632" cy="-477.921" r="13.000" fill="none" stroke="#463c28" stroke-width="0.6"/>
<circle cx="236.164" cy="-488.360" r="13.000" fill="none" stroke="#463c28" stroke-width="0.6"/>
<circle cx="251.720" cy="-499.511" r="13.000" fill="none" stroke="#463c28" stroke-width="0.6"/>
<circle cx="266.687" cy="-506.411" r="13.000" fill="none" stroke="#463c28" stroke-width="0.6"/>
<circle cx="284.124" cy="-533.869" r="13.000" fill="none" stroke="#463c28" stroke-width="0.6"/>
<circle cx="299.784" cy="-547.115" r="13.000" fill="none" stroke="#463c28" stroke-width="0.6"/>
<circle cx="315.500" cy="-561.048" r="13.000" fill="none" stroke="#463c28" stroke-width="0.6"/>
<circle cx="330.660" cy="-570.711" r="13.000" fill="none" stroke="#463c28" stroke-width="0.6"/>
<circle cx="345.267" cy="-576.110" r="13.000" fill="none" stroke="#463c28" stroke-width="0.6"/>
<circle cx="360.508" cy="-587.214" r="13.000" fill="none" stroke="#463c28" stroke-width="0.6"/>
<circle cx="375.804" cy="-599.034" r="13.000" fill="none" stroke="#463c28" stroke-width="0.6"/>
<circle cx="391.815" cy="-616.490" r="13.000" fill="none" stroke="#463c28" stroke-width="0.6"/>
<circle cx="407.294" cy="-629.689" r="13.000" fill="none" stroke="#463c28" stroke-width="0.6"/>
<circle cx="422.213" cy="-638.610" r="13.000" fill="none" stroke="#463c28" stroke-width="0.6"/>
<circle cx="436.839" cy="-645.153" r="13.000" fill="none" stroke="#463c28" stroke-width="0.6"/>
<circle cx="451.021" cy="-648.285" r="13.000" fill="none" stroke="#463c28" stroke-width="0.6"/>
<circle cx="465.212" cy="-651.934" r="13.000" fill="none" stroke="#463c28" stroke-width="0.6"/>
<circle cx="479.022" cy="-653.065" r="13.000" fill="none" stroke="#463c28" stroke-width="0.6"/>
<circle cx="493.068" cy="-656.558" r="13.000" fill="none" stroke="#463c28" stroke-width="0.6"/>
<circle cx="507.133" cy="-660.336" r="13.000" fill="none" stroke="#463c28" stroke-width="0.6"/>
<circle cx="521.331" cy="-665.324" r="13.000" fill="none" stroke="#463c28" stroke-width="0.6"/>
<circle cx="535.519" cy="-670.466" r="13.000" fill="none" stroke="#463c28" stroke-width="0.6"/>
<circle cx="550.311" cy="-680.651" r="13.000" fill="none" stroke="#463c28" stroke-width="0.6"/>
<circle cx="-176.822" cy="-188.495" r="13.000" fill="none" stroke="#463c28" stroke-width="0.6"/>
<circle cx="-157.399" cy="-227.090" r="13.000" fill="none" stroke="#463c28" stroke-width="0.6"/>
<circle cx="-138.202" cy="-264.627" r="13.000" fill="none" stroke="#463c28" stroke-width="0.6"/>
<circle cx="-123.050" cy="-269.750" r="13.000" fill="none" stroke="#463c28" stroke-width="0.6"/>
<circle cx="-105.700" cy="-293.339" r="13.000" fill="none" stroke="#463c28" stroke-width="0.6"/>
<circle cx="-88.437" cy="-316.811" r="13.000" fill="none" stroke="#463c28" stroke-width="0.6"/>
<circle cx="-79.099" cy="-276.136" r="13.000" fill="none" stroke="#463c28" stroke-width="0.6"/>
<circle cx="-66.411" cy="-263.102" r="13.000" fill="none" stroke="#463c28" stroke-width="0.6"/>
<circle cx="-47.603" cy="-300.356" r="13.000" fill="none" stroke="#463c28" stroke-width="0.6"/>
<circle cx="-28.849" cy="-337.598" r="13.000" fill="none" stroke="#463c28" stroke-width="0.6"/>
<circle cx="-14.061" cy="-342.913" r="13.000" fill="none" stroke="#463c28" stroke-width="0.6"/>
<circle cx="2.917" cy="-366.432" r="13.000" fill="none" stroke="#463c28" stroke-width="0.6"/>
<circle cx="19.747" cy="-384.357" r="13.000" fill="none" stroke="#463c28" stroke-width="0.6"/>
<circle cx="36.985" cy="-401.465" r="13.000" fill="none" stroke="#463c28" stroke-width="0.6"/>
<circle cx="54.722" cy="-423.084" r="13.000" fill="none" stroke="#463c28" stroke-width="0.6"/>
<circle cx="71.877" cy="-440.412" r="13.000" fill="none" stroke="#463c28" stroke-width="0.6"/>
<circle cx="88.906" cy="-457.993" r="13.000" fill="none" stroke="#463c28" stroke-width="0.6"/>
<circle cx="105.885" cy="-475.944" r="13.000" fill="none" stroke="#463c28" stroke-width="0.6"/>
<circle cx="122.846" cy="-494.021" r="13.000" fill="none" stroke="#463c28" stroke-width="0.6"/>
<circle cx="139.230" cy="-508.107" r="13.000" fill="none" stroke="#463c28" stroke-width="0.6"/>
<circle cx="154.442" cy="-513.611" r="13.000" fill="none" stroke="#463c28" stroke-width="0.6"/>
<circle cx="170.743" cy="-528.533" r="13.000" fill="none" stroke="#463c28" stroke-width="0.6"/>
<circle cx="186.497" cy="-539.456" r="13.000" fill="none" stroke="#463c28" stroke-width="0.6"/>
<circle cx="202.231" cy="-550.992" r="13.000" fill="none" stroke="#463c28" stroke-width="0.6"/>
<circle cx="217.852" cy="-561.953" r="13.000" fill="none" stroke="#463c28" stroke-width="0.6"/>
<circle cx="232.985" cy="-569.144" r="13.000" fill="none" stroke="#463c28" stroke-width="0.6"/>
<circle cx="248.142" cy="-577.046" r="13.000" fill="none" stroke="#463c28" stroke-width="0.6"/>
<circle cx="262.777" cy="-581.239" r="13.000" fill="none" stroke="#463c28" stroke-width="0.6"/>
<circle cx="279.616" cy="-603.824" r="13.000" fill="none" stroke="#463c28" stroke-width="0.6"/>
<circle cx="294.877" cy="-613.821" r="13.000" fill="none" stroke="#463c28" stroke-width="0.6"/>
<circle cx="310.194" cy="-624.506" r="13.000" fill="none" stroke="#463c28" stroke-width="0.6"/>
<circle cx="325.022" cy="-631.461" r="13.000" fill="none" stroke="#463c28" stroke-width="0.6"/>
<circle cx="339.363" cy="-634.695" r="13.000" fill="none" stroke="#463c28" stroke-width="0.6"/>
<circle cx="354.271" cy="-643.092" r="13.000" fill="none" stroke="#463c28" stroke-width="0.6"/>
<circle cx="369.235" cy="-652.204" r="13.000" fill="none" stroke="#463c28" stroke-width="0.6"/>
<circle cx="384.847" cy="-666.412" r="13.000" fill="none" stroke="#463c28" stroke-width="0.6"/>
<circle cx="399.994" cy="-676.904" r="13.000" fill="none" stroke="#463c28" stroke-width="0.6"/>
<circle cx="414.647" cy="-683.659" r="13.000" fill="none" stroke="#463c28" stroke-width="0.6"/>
<circle cx="429.047" cy="-688.361" r="13.000" fill="none" stroke="#463c28" stroke-width="0.6"/>
<circle cx="443.056" cy="-690.085" r="13.000" fill="none" stroke="#463c28" stroke-width="0.6"/>
<circle cx="457.074" cy="-692.327" r="13.000" fill="none" stroke="#463c28" stroke-width="0.6"/>
<circle cx="470.751" cy="-692.375" r="13.000" fill="none" stroke="#463c28" stroke-width="0.6"/>
<circle cx="484.637" cy="-694.568" r="13.000" fill="none" stroke="#463c28" stroke-width="0.6"/>
<circle cx="498.543" cy="-697.047" r="13.000" fill="none" stroke="#463c28" stroke-width="0.6"/>
<circle cx="512.568" cy="-700.627" r="13.000" fill="none" stroke="#463c28" stroke-width="0.6"/>
<circle cx="526.583" cy="-704.361" r="13.000" fill="none" stroke="#463c28" stroke-width="0.6"/>
<circle cx="541.136" cy="-712.597" r="13.000" fill="none" stroke="#463c28" stroke-width="0.6"/>
<path d="M -199.801 5.595 C -190.693 84.614 -89.375 -63.119 -71.837 -80.656 C -54.299 -98.194 32.945 -262.081 111.735 -351.391 C 190.525 -440.702 392.534 -605.802 517.117 -651.933 C 570.338 -671.639 560.394 -636.999 559.782 -693.747 C 558.739 -790.486 311.260 -641.787 301.016 -633.783 C 290.772 -625.780 105.952 -509.689 62.002 -448.944 C 18.053 -388.198 8.348 -391.828 -98.444 -325.187 C -205.236 -258.547 -208.908 -73.424 -199.801 5.595 Z" fill="#caa24a" fill-opacity="0.10" stroke="#e8c46a" stroke-width="2.4" stroke-linejoin="round"/>
<line x1="-199.801" y1="5.595" x2="-190.693" y2="84.614" stroke="#5fb0e0" stroke-width="1.1"/>
<line x1="-71.837" y1="-80.656" x2="-89.375" y2="-63.119" stroke="#5fb0e0" stroke-width="1.1"/>
<line x1="-71.837" y1="-80.656" x2="-54.299" y2="-98.194" stroke="#5fb0e0" stroke-width="1.1"/>
<line x1="111.735" y1="-351.391" x2="32.945" y2="-262.081" stroke="#5fb0e0" stroke-width="1.1"/>
<line x1="111.735" y1="-351.391" x2="190.525" y2="-440.702" stroke="#5fb0e0" stroke-width="1.1"/>
<line x1="517.117" y1="-651.933" x2="392.534" y2="-605.802" stroke="#5fb0e0" stroke-width="1.1"/>
<line x1="517.117" y1="-651.933" x2="570.338" y2="-671.639" stroke="#5fb0e0" stroke-width="1.1"/>
<line x1="559.782" y1="-693.747" x2="560.394" y2="-636.999" stroke="#5fb0e0" stroke-width="1.1"/>
<line x1="559.782" y1="-693.747" x2="558.739" y2="-790.486" stroke="#5fb0e0" stroke-width="1.1"/>
<line x1="301.016" y1="-633.783" x2="311.260" y2="-641.787" stroke="#5fb0e0" stroke-width="1.1"/>
<line x1="301.016" y1="-633.783" x2="290.772" y2="-625.780" stroke="#5fb0e0" stroke-width="1.1"/>
<line x1="62.002" y1="-448.944" x2="105.952" y2="-509.689" stroke="#5fb0e0" stroke-width="1.1"/>
<line x1="62.002" y1="-448.944" x2="18.053" y2="-388.198" stroke="#5fb0e0" stroke-width="1.1"/>
<line x1="-98.444" y1="-325.187" x2="8.348" y2="-391.828" stroke="#5fb0e0" stroke-width="1.1"/>
<line x1="-98.444" y1="-325.187" x2="-205.236" y2="-258.547" stroke="#5fb0e0" stroke-width="1.1"/>
<line x1="-199.801" y1="5.595" x2="-208.908" y2="-73.424" stroke="#5fb0e0" stroke-width="1.1"/>
<rect x="-193.293" y="82.014" width="5.2" height="5.2" fill="#5fb0e0"/>
<rect x="-91.975" y="-65.719" width="5.2" height="5.2" fill="#5fb0e0"/>
<rect x="-56.899" y="-100.794" width="5.2" height="5.2" fill="#5fb0e0"/>
<rect x="30.345" y="-264.681" width="5.2" height="5.2" fill="#5fb0e0"/>
<rect x="187.925" y="-443.302" width="5.2" height="5.2" fill="#5fb0e0"/>
<rect x="389.934" y="-608.402" width="5.2" height="5.2" fill="#5fb0e0"/>
<rect x="567.738" y="-674.239" width="5.2" height="5.2" fill="#5fb0e0"/>
<rect x="557.794" y="-639.599" width="5.2" height="5.2" fill="#5fb0e0"/>
<rect x="556.139" y="-793.086" width="5.2" height="5.2" fill="#5fb0e0"/>
<rect x="308.660" y="-644.387" width="5.2" height="5.2" fill="#5fb0e0"/>
<rect x="288.172" y="-628.380" width="5.2" height="5.2" fill="#5fb0e0"/>
<rect x="103.352" y="-512.289" width="5.2" height="5.2" fill="#5fb0e0"/>
<rect x="15.453" y="-390.798" width="5.2" height="5.2" fill="#5fb0e0"/>
<rect x="5.748" y="-394.428" width="5.2" height="5.2" fill="#5fb0e0"/>
<rect x="-207.836" y="-261.147" width="5.2" height="5.2" fill="#5fb0e0"/>
<rect x="-211.508" y="-76.024" width="5.2" height="5.2" fill="#5fb0e0"/>
<circle cx="-188.317" cy="11.794" r="3.1" fill="#cf3b2d"/>
<circle cx="-167.929" cy="-34.663" r="3.1" fill="#cf3b2d"/>
<circle cx="-147.785" cy="-79.910" r="3.1" fill="#cf3b2d"/>
<circle cx="-132.175" cy="-88.758" r="3.1" fill="#cf3b2d"/>
<circle cx="-114.093" cy="-118.313" r="3.1" fill="#cf3b2d"/>
<circle cx="-96.101" cy="-147.720" r="3.1" fill="#cf3b2d"/>
<circle cx="-87.001" cy="-105.106" r="3.1" fill="#cf3b2d"/>
<circle cx="-74.138" cy="-93.502" r="3.1" fill="#cf3b2d"/>
<circle cx="-54.400" cy="-138.325" r="3.1" fill="#cf3b2d"/>
<circle cx="-34.720" cy="-183.115" r="3.1" fill="#cf3b2d"/>
<circle cx="-19.487" cy="-192.046" r="3.1" fill="#cf3b2d"/>
<circle cx="-1.794" cy="-221.391" r="3.1" fill="#cf3b2d"/>
<circle cx="15.679" cy="-244.557" r="3.1" fill="#cf3b2d"/>
<circle cx="33.560" cy="-266.895" r="3.1" fill="#cf3b2d"/>
<circle cx="52.003" cy="-294.264" r="3.1" fill="#cf3b2d"/>
<circle cx="69.794" cy="-316.779" r="3.1" fill="#cf3b2d"/>
<circle cx="87.456" cy="-339.515" r="3.1" fill="#cf3b2d"/>
<circle cx="105.067" cy="-362.609" r="3.1" fill="#cf3b2d"/>
<circle cx="122.655" cy="-385.798" r="3.1" fill="#cf3b2d"/>
<circle cx="139.599" cy="-404.442" r="3.1" fill="#cf3b2d"/>
<circle cx="155.233" cy="-413.379" r="3.1" fill="#cf3b2d"/>
<circle cx="172.088" cy="-432.817" r="3.1" fill="#cf3b2d"/>
<circle cx="188.327" cy="-447.692" r="3.1" fill="#cf3b2d"/>
<circle cx="204.545" cy="-463.170" r="3.1" fill="#cf3b2d"/>
<circle cx="220.632" cy="-477.921" r="3.1" fill="#cf3b2d"/>
<circle cx="236.164" cy="-488.360" r="3.1" fill="#cf3b2d"/>
<circle cx="251.720" cy="-499.511" r="3.1" fill="#cf3b2d"/>
<circle cx="266.687" cy="-506.411" r="3.1" fill="#cf3b2d"/>
<circle cx="284.124" cy="-533.869" r="3.1" fill="#cf3b2d"/>
<circle cx="299.784" cy="-547.115" r="3.1" fill="#cf3b2d"/>
<circle cx="315.500" cy="-561.048" r="3.1" fill="#cf3b2d"/>
<circle cx="330.660" cy="-570.711" r="3.1" fill="#cf3b2d"/>
<circle cx="345.267" cy="-576.110" r="3.1" fill="#cf3b2d"/>
<circle cx="360.508" cy="-587.214" r="3.1" fill="#cf3b2d"/>
<circle cx="375.804" cy="-599.034" r="3.1" fill="#cf3b2d"/>
<circle cx="391.815" cy="-616.490" r="3.1" fill="#cf3b2d"/>
<circle cx="407.294" cy="-629.689" r="3.1" fill="#cf3b2d"/>
<circle cx="422.213" cy="-638.610" r="3.1" fill="#cf3b2d"/>
<circle cx="436.839" cy="-645.153" r="3.1" fill="#cf3b2d"/>
<circle cx="451.021" cy="-648.285" r="3.1" fill="#cf3b2d"/>
<circle cx="465.212" cy="-651.934" r="3.1" fill="#cf3b2d"/>
<circle cx="479.022" cy="-653.065" r="3.1" fill="#cf3b2d"/>
<circle cx="493.068" cy="-656.558" r="3.1" fill="#cf3b2d"/>
<circle cx="507.133" cy="-660.336" r="3.1" fill="#cf3b2d"/>
<circle cx="521.331" cy="-665.324" r="3.1" fill="#cf3b2d"/>
<circle cx="535.519" cy="-670.466" r="3.1" fill="#cf3b2d"/>
<circle cx="550.311" cy="-680.651" r="3.1" fill="#cf3b2d"/>
<circle cx="-176.822" cy="-188.495" r="3.1" fill="#3f86d0"/>
<circle cx="-157.399" cy="-227.090" r="3.1" fill="#3f86d0"/>
<circle cx="-138.202" cy="-264.627" r="3.1" fill="#3f86d0"/>
<circle cx="-123.050" cy="-269.750" r="3.1" fill="#3f86d0"/>
<circle cx="-105.700" cy="-293.339" r="3.1" fill="#3f86d0"/>
<circle cx="-88.437" cy="-316.811" r="3.1" fill="#3f86d0"/>
<circle cx="-79.099" cy="-276.136" r="3.1" fill="#3f86d0"/>
<circle cx="-66.411" cy="-263.102" r="3.1" fill="#3f86d0"/>
<circle cx="-47.603" cy="-300.356" r="3.1" fill="#3f86d0"/>
<circle cx="-28.849" cy="-337.598" r="3.1" fill="#3f86d0"/>
<circle cx="-14.061" cy="-342.913" r="3.1" fill="#3f86d0"/>
<circle cx="2.917" cy="-366.432" r="3.1" fill="#3f86d0"/>
<circle cx="19.747" cy="-384.357" r="3.1" fill="#3f86d0"/>
<circle cx="36.985" cy="-401.465" r="3.1" fill="#3f86d0"/>
<circle cx="54.722" cy="-423.084" r="3.1" fill="#3f86d0"/>
<circle cx="71.877" cy="-440.412" r="3.1" fill="#3f86d0"/>
<circle cx="88.906" cy="-457.993" r="3.1" fill="#3f86d0"/>
<circle cx="105.885" cy="-475.944" r="3.1" fill="#3f86d0"/>
<circle cx="122.846" cy="-494.021" r="3.1" fill="#3f86d0"/>
<circle cx="139.230" cy="-508.107" r="3.1" fill="#3f86d0"/>
<circle cx="154.442" cy="-513.611" r="3.1" fill="#3f86d0"/>
<circle cx="170.743" cy="-528.533" r="3.1" fill="#3f86d0"/>
<circle cx="186.497" cy="-539.456" r="3.1" fill="#3f86d0"/>
<circle cx="202.231" cy="-550.992" r="3.1" fill="#3f86d0"/>
<circle cx="217.852" cy="-561.953" r="3.1" fill="#3f86d0"/>
<circle cx="232.985" cy="-569.144" r="3.1" fill="#3f86d0"/>
<circle cx="248.142" cy="-577.046" r="3.1" fill="#3f86d0"/>
<circle cx="262.777" cy="-581.239" r="3.1" fill="#3f86d0"/>
<circle cx="279.616" cy="-603.824" r="3.1" fill="#3f86d0"/>
<circle cx="294.877" cy="-613.821" r="3.1" fill="#3f86d0"/>
<circle cx="310.194" cy="-624.506" r="3.1" fill="#3f86d0"/>
<circle cx="325.022" cy="-631.461" r="3.1" fill="#3f86d0"/>
<circle cx="339.363" cy="-634.695" r="3.1" fill="#3f86d0"/>
<circle cx="354.271" cy="-643.092" r="3.1" fill="#3f86d0"/>
<circle cx="369.235" cy="-652.204" r="3.1" fill="#3f86d0"/>
<circle cx="384.847" cy="-666.412" r="3.1" fill="#3f86d0"/>
<circle cx="399.994" cy="-676.904" r="3.1" fill="#3f86d0"/>
<circle cx="414.647" cy="-683.659" r="3.1" fill="#3f86d0"/>
<circle cx="429.047" cy="-688.361" r="3.1" fill="#3f86d0"/>
<circle cx="443.056" cy="-690.085" r="3.1" fill="#3f86d0"/>
<circle cx="457.074" cy="-692.327" r="3.1" fill="#3f86d0"/>
<circle cx="470.751" cy="-692.375" r="3.1" fill="#3f86d0"/>
<circle cx="484.637" cy="-694.568" r="3.1" fill="#3f86d0"/>
<circle cx="498.543" cy="-697.047" r="3.1" fill="#3f86d0"/>
<circle cx="512.568" cy="-700.627" r="3.1" fill="#3f86d0"/>
<circle cx="526.583" cy="-704.361" r="3.1" fill="#3f86d0"/>
<circle cx="541.136" cy="-712.597" r="3.1" fill="#3f86d0"/>
<circle cx="-199.801" cy="5.595" r="5.0" fill="#14110d" stroke="#f4e3b0" stroke-width="2"/>
<circle cx="-71.837" cy="-80.656" r="5.0" fill="#14110d" stroke="#f4e3b0" stroke-width="2"/>
<circle cx="111.735" cy="-351.391" r="5.0" fill="#14110d" stroke="#f4e3b0" stroke-width="2"/>
<circle cx="517.117" cy="-651.933" r="5.0" fill="#14110d" stroke="#f4e3b0" stroke-width="2"/>
<circle cx="559.782" cy="-693.747" r="5.0" fill="#14110d" stroke="#f4e3b0" stroke-width="2"/>
<circle cx="301.016" cy="-633.783" r="5.0" fill="#14110d" stroke="#f4e3b0" stroke-width="2"/>
<circle cx="62.002" cy="-448.944" r="5.0" fill="#14110d" stroke="#f4e3b0" stroke-width="2"/>
<circle cx="-98.444" cy="-325.187" r="5.0" fill="#14110d" stroke="#f4e3b0" stroke-width="2"/>
</g>
<g font-size="22" font-weight="600" fill="#f4e3b0">
<text x="-213.30" y="-713.62" text-anchor="middle">0</text>
<text x="-82.65" y="-629.15" text-anchor="middle">1</text>
<text x="129.27" y="-352.54" text-anchor="middle">2</text>
<text x="535.43" y="-26.52" text-anchor="middle">3</text>
<text x="577.85" y="15.65" text-anchor="middle">4</text>
<text x="314.68" y="-39.62" text-anchor="middle">5</text>
<text x="54.78" y="-220.92" text-anchor="middle">6</text>
<text x="-119.91" y="-370.29" text-anchor="middle">7</text>
</g>
<g font-size="20">
<text x="-211.01238554109102" y="-720.3313960544815" fill="#f4e3b0">8-node closed Bezier &#183; area 116,261 mm&#178; &#183; min clearance 13 mm</text>
</g></svg>