<svg xmlns="http://www.w3.org/2000/svg" viewBox="-260.86 -758.26 927.91 821.23" width="860" height="761" font-family="Cormorant Garamond, Georgia, serif">
<rect x="-260.86" y="-758.26" width="927.91" height="821.23" fill="#14110d"/>
<g transform="translate(0,-695.282) scale(1,-1)">
<circle cx="-188.317" cy="11.794" r="13.000" fill="none" stroke="#463c28" stroke-width="0.6"/>
<circle cx="-167.929" cy="-34.663" r="13.000" fill="none" stroke="#463c28" stroke-width="0.6"/>
<circle cx="-147.785" cy="-79.910" r="13.000" fill="none" stroke="#463c28" stroke-width="0.6"/>
<circle cx="-132.175" cy="-88.758" r="13.000" fill="none" stroke="#463c28" stroke-width="0.6"/>
<circle cx="-114.093" cy="-118.313" r="13.000" fill="none" stroke="#463c28" stroke-width="0.6"/>
<circle cx="-96.101" cy="-147.720" r="13.000" fill="none" stroke="#463c28" stroke-width="0.6"/>
<circle cx="-87.001" cy="-105.106" r="13.000" fill="none" stroke="#463c28" stroke-width="0.6"/>
<circle cx="-74.138" cy="-93.502" r="13.000" fill="none" stroke="#463c28" stroke-width="0.6"/>
<circle cx="-54.400" cy="-138.325" r="13.000" fill="none" stroke="#463c28" stroke-width="0.6"/>
<circle cx="-34.720" cy="-183.115" r="13.000" fill="none" stroke="#463c28" stroke-width="0.6"/>
<circle cx="-19.487" cy="-192.046" r="13.000" fill="none" stroke="#463c28" stroke-width="0.6"/>
<circle cx="-1.794" cy="-221.391" r="13.000" fill="none" stroke="#463c28" stroke-width="0.6"/>
<circle cx="15.679" cy="-244.557" r="13.000" fill="none" stroke="#463c28" stroke-width="0.6"/>
<circle cx="33.560" cy="-266.895" r="13.000" fill="none" stroke="#463c28" stroke-width="0.6"/>
<circle cx="52.003" cy="-294.264" r="13.000" fill="none" stroke="#463c28" stroke-width="0.6"/>
<circle cx="69.794" cy="-316.779" r="13.000" fill="none" stroke="#463c28" stroke-width="0.6"/>
<circle cx="87.456" cy="-339.515" r="13.000" fill="none" stroke="#463c28" stroke-width="0.6"/>
<circle cx="105.067" cy="-362.609" r="13.000" fill="none" stroke="#463c28" stroke-width="0.6"/>
<circle cx="122.655" cy="-385.798" r="13.000" fill="none" stroke="#463c28" stroke-width="0.6"/>
<circle cx="139.599" cy="-404.442" r="13.000" fill="none" stroke="#463c28" stroke-width="0.6"/>
<circle cx="155.233" cy="-413.379" r="13.000" fill="none" stroke="#463c28" stroke-width="0.6"/>
<circle cx="172.088" cy="-432.817" r="13.000" fill="none" stroke="#463c28" stroke-width="0.6"/>
<circle cx="188.327" cy="-447.692" r="13.000" fill="none" stroke="#463c28" stroke-width="0.6"/>
<circle cx="204.545" cy="-463.170" r="13.000" fill="none" stroke="#463c28" stroke-width="0.6"/>
<circle cx="220.632" cy="-477.921" r="13.000" fill="none" stroke="#463c28" stroke-width="0.6"/>
<circle cx="236.164" cy="-488.360" r="13.000" fill="none" stroke="#463c28" stroke-width="0.6"/>
<circle cx="251.720" cy="-499.511" r="13.000" fill="none" stroke="#463c28" stroke-width="0.6"/>
<circle cx="266.687" cy="-506.411" r="13.000" fill="none" stroke="#463c28" stroke-width="0.6"/>
<circle cx="284.124" cy="-533.869" r="13.000" fill="none" stroke="#463c28" stroke-width="0.6"/>
<circle cx="299.784" cy="-547.115" r="13.000" fill="none" stroke="#463c28" stroke-width="0.6"/>
<circle cx="315.500" cy="-561.048" r="13.000" fill="none" stroke="#463c28" stroke-width="0.6"/>
<circle cx="330.660" cy="-570.711" r="13.000" fill="none" stroke="#463c28" stroke-width="0.6"/>
<circle cx="345.267" cy="-576.110" r="13.000" fill="none" stroke="#463c28" stroke-width="0.6"/>
<circle cx="360.508" cy="-587.214" r="13.000" fill="none" stroke="#463c28" stroke-width="0.6"/>
<circle cx="375.804" cy="-599.034" r="13.000" fill="none" stroke="#463c28" stroke-width="0.6"/>
<circle cx="391.815" cy="-616.490" r="13.000" fill="none" stroke="#463c28" stroke-width="0.6"/>
<circle cx="407.294" cy="-629.689" r="13.000" fill="none" stroke="#463c28" stroke-width="0.6"/>
<circle cx="422.213" cy="-638.610" r="13.000" fill="none" stroke="#463c28" stroke-width="0.6"/>
<circle cx="436.839" cy="-645.153" r="13.000" fill="none" stroke="#463c28" stroke-width="0.6"/>
<circle cx="451.021" cy="-648.285" r="13.000" fill="none" stroke="#463c28" stroke-width="0.6"/>
<circle cx="465.212" cy="-651.934" r="13.000" fill="none" stroke="#463c28" stroke-width="0.6"/>
<circle cx="479.022" cy="-653.065" r="13.000" fill="none" stroke="#463c28" stroke-width="0.6"/>
<circle cx="493.068" cy="-656.558" r="13.000" fill="none" stroke="#463c28" stroke-width="0.6"/>
<circle cx="507.133" cy="-660.336" r="13.000" fill="none" stroke="#463c28" stroke-width="0.6"/>
<circle cx="521.331" cy="-665.324" r="13.000" fill="none" stroke="#463c28" stroke-width="0.6"/>
<circle cx="535.519" cy="-670.466" r="13.000" fill="none" stroke="#463c28" stroke-width="0.6"/>
<circle cx="550.311" cy="-680.651" r="13.000" fill="none" stroke="#463c28" stroke-width="0.6"/>
<circle cx="-198.476" cy="-12.139" r="13.000" fill="none" stroke="#463c28" stroke-width="0.6"/>
<circle cx="-178.088" cy="-58.596" r="13.000" fill="none" stroke="#463c28" stroke-width="0.6"/>
<circle cx="-157.944" cy="-103.843" r="13.000" fill="none" stroke="#463c28" stroke-width="0.6"/>
<circle cx="-142.334" cy="-112.691" r="13.000" fill="none" stroke="#463c28" stroke-width="0.6"/>
<circle cx="-124.252" cy="-142.246" r="13.000" fill="none" stroke="#463c28" stroke-width="0.6"/>
<circle cx="-106.260" cy="-171.653" r="13.000" fill="none" stroke="#463c28" stroke-width="0.6"/>
<circle cx="-97.160" cy="-129.039" r="13.000" fill="none" stroke="#463c28" stroke-width="0.6"/>
<circle cx="-84.297" cy="-117.435" r="13.000" fill="none" stroke="#463c28" stroke-width="0.6"/>
<circle cx="-64.559" cy="-162.258" r="13.000" fill="none" stroke="#463c28" stroke-width="0.6"/>
<circle cx="-44.879" cy="-207.048" r="13.000" fill="none" stroke="#463c28" stroke-width="0.6"/>
<circle cx="-29.646" cy="-215.979" r="13.000" fill="none" stroke="#463c28" stroke-width="0.6"/>
<circle cx="-11.953" cy="-245.324" r="13.000" fill="none" stroke="#463c28" stroke-width="0.6"/>
<circle cx="5.520" cy="-268.490" r="13.000" fill="none" stroke="#463c28" stroke-width="0.6"/>
<circle cx="23.401" cy="-290.828" r="13.000" fill="none" stroke="#463c28" stroke-width="0.6"/>
<circle cx="41.844" cy="-318.197" r="13.000" fill="none" stroke="#463c28" stroke-width="0.6"/>
<circle cx="59.635" cy="-340.712" r="13.000" fill="none" stroke="#463c28" stroke-width="0.6"/>
<circle cx="77.297" cy="-363.448" r="13.000" fill="none" stroke="#463c28" stroke-width="0.6"/>
<circle cx="94.908" cy="-386.542" r="13.000" fill="none" stroke="#463c28" stroke-width="0.6"/>
<circle cx="112.496" cy="-409.731" r="13.000" fill="none" stroke="#463c28" stroke-width="0.6"/>
<circle cx="129.440" cy="-428.375" r="13.000" fill="none" stroke="#463c28" stroke-width="0.6"/>
<circle cx="145.074" cy="-437.312" r="13.000" fill="none" stroke="#463c28" stroke-width="0.6"/>
<circle cx="161.929" cy="-456.750" r="13.000" fill="none" stroke="#463c28" stroke-width="0.6"/>
<circle cx="178.168" cy="-471.625" r="13.000" fill="none" stroke="#463c28" stroke-width="0.6"/>
<circle cx="194.386" cy="-487.103" r="13.000" fill="none" stroke="#463c28" stroke-width="0.6"/>
<circle cx="210.473" cy="-501.854" r="13.000" fill="none" stroke="#463c28" stroke-width="0.6"/>
<circle cx="226.005" cy="-512.293" r="13.000" fill="none" stroke="#463c28" stroke-width="0.6"/>
<circle cx="241.561" cy="-523.444" r="13.000" fill="none" stroke="#463c28" stroke-width="0.6"/>
<circle cx="256.528" cy="-530.344" r="13.000" fill="none" stroke="#463c28" stroke-width="0.6"/>
<circle cx="273.965" cy="-557.802" r="13.000" fill="none" stroke="#463c28" stroke-width="0.6"/>
<circle cx="289.625" cy="-571.048" r="13.000" fill="none" stroke="#463c28" stroke-width="0.6"/>
<circle cx="305.341" cy="-584.981" r="13.000" fill="none" stroke="#463c28" stroke-width="0.6"/>
<circle cx="320.501" cy="-594.644" r="13.000" fill="none" stroke="#463c28" stroke-width="0.6"/>
<circle cx="335.108" cy="-600.043" r="13.000" fill="none" stroke="#463c28" stroke-width="0.6"/>
<circle cx="350.349" cy="-611.147" r="13.000" fill="none" stroke="#463c28" stroke-width="0.6"/>
<circle cx="365.645" cy="-622.967" r="13.000" fill="none" stroke="#463c28" stroke-width="0.6"/>
<circle cx="381.656" cy="-640.423" r="13.000" fill="none" stroke="#463c28" stroke-width="0.6"/>
<circle cx="397.135" cy="-653.622" r="13.000" fill="none" stroke="#463c28" stroke-width="0.6"/>
<circle cx="412.054" cy="-662.543" r="13.000" fill="none" stroke="#463c28" stroke-width="0.6"/>
<circle cx="426.680" cy="-669.086" r="13.000" fill="none" stroke="#463c28" stroke-width="0.6"/>
<circle cx="440.862" cy="-672.218" r="13.000" fill="none" stroke="#463c28" stroke-width="0.6"/>
<circle cx="455.053" cy="-675.867" r="13.000" fill="none" stroke="#463c28" stroke-width="0.6"/>
<circle cx="468.863" cy="-676.998" r="13.000" fill="none" stroke="#463c28" stroke-width="0.6"/>
<circle cx="482.909" cy="-680.491" r="13.000" fill="none" stroke="#463c28" stroke-width="0.6"/>
<circle cx="496.974" cy="-684.269" r="13.000" fill="none" stroke="#463c28" stroke-width="0.6"/>
<circle cx="511.172" cy="-689.257" r="13.000" fill="none" stroke="#463c28" stroke-width="0.6"/>
<circle cx="525.360" cy="-694.399" r="13.000" fill="none" stroke="#463c28" stroke-width="0.6"/>
<circle cx="540.152" cy="-704.584" r="13.000" fill="none" stroke="#463c28" stroke-width="0.6"/>
<path d="M 540.152 -717.584 C 340.686 -717.149 189.637 -778.364 200.208 -668.910 C 210.778 -559.457 100.475 -409.322 79.738 -391.020 C 59.001 -372.717 -55.916 -183.297 -106.260 -184.653 C -156.604 -186.009 -286.439 -181.810 -216.745 -13.273 C -147.052 155.264 -54.097 -135.395 -16.109 -163.071 C 21.879 -190.746 -17.648 -185.277 144.604 -381.397 C 306.856 -577.516 522.999 -573.571 558.480 -615.596 C 593.962 -657.621 739.618 -718.019 540.152 -717.584 Z" fill="#caa24a" fill-opacity="0.10" stroke="#e8c46a" stroke-width="2.4" stroke-linejoin="round"/>
<line x1="540.152" y1="-717.584" x2="340.686" y2="-717.149" stroke="#5fb0e0" stroke-width="1.1"/>
<line x1="200.208" y1="-668.910" x2="189.637" y2="-778.364" stroke="#5fb0e0" stroke-width="1.1"/>
<line x1="200.208" y1="-668.910" x2="210.778" y2="-559.457" stroke="#5fb0e0" stroke-width="1.1"/>
<line x1="79.738" y1="-391.020" x2="100.475" y2="-409.322" stroke="#5fb0e0" stroke-width="1.1"/>
<line x1="79.738" y1="-391.020" x2="59.001" y2="-372.717" stroke="#5fb0e0" stroke-width="1.1"/>
<line x1="-106.260" y1="-184.653" x2="-55.916" y2="-183.297" stroke="#5fb0e0" stroke-width="1.1"/>
<line x1="-106.260" y1="-184.653" x2="-156.604" y2="-186.009" stroke="#5fb0e0" stroke-width="1.1"/>
<line x1="-216.745" y1="-13.273" x2="-286.439" y2="-181.810" stroke="#5fb0e0" stroke-width="1.1"/>
<line x1="-216.745" y1="-13.273" x2="-147.052" y2="155.264" stroke="#5fb0e0" stroke-width="1.1"/>
<line x1="-16.109" y1="-163.071" x2="-54.097" y2="-135.395" stroke="#5fb0e0" stroke-width="1.1"/>
<line x1="-16.109" y1="-163.071" x2="21.879" y2="-190.746" stroke="#5fb0e0" stroke-width="1.1"/>
<line x1="144.604" y1="-381.397" x2="-17.648" y2="-185.277" stroke="#5fb0e0" stroke-width="1.1"/>
<line x1="144.604" y1="-381.397" x2="306.856" y2="-577.516" stroke="#5fb0e0" stroke-width="1.1"/>
<line x1="558.480" y1="-615.596" x2="522.999" y2="-573.571" stroke="#5fb0e0" stroke-width="1.1"/>
<line x1="558.480" y1="-615.596" x2="593.962" y2="-657.621" stroke="#5fb0e0" stroke-width="1.1"/>
<line x1="540.152" y1="-717.584" x2="739.618" y2="-718.019" stroke="#5fb0e0" stroke-width="1.1"/>
<rect x="338.086" y="-719.749" width="5.2" height="5.2" fill="#5fb0e0"/>
<rect x="187.037" y="-780.964" width="5.2" height="5.2" fill="#5fb0e0"/>
<rect x="208.178" y="-562.057" width="5.2" height="5.2" fill="#5fb0e0"/>
<rect x="97.875" y="-411.922" width="5.2" height="5.2" fill="#5fb0e0"/>
<rect x="56.401" y="-375.317" width="5.2" height="5.2" fill="#5fb0e0"/>
<rect x="-58.516" y="-185.897" width="5.2" height="5.2" fill="#5fb0e0"/>
<rect x="-159.204" y="-188.609" width="5.2" height="5.2" fill="#5fb0e0"/>
<rect x="-289.039" y="-184.410" width="5.2" height="5.2" fill="#5fb0e0"/>
<rect x="-149.652" y="152.664" width="5.2" height="5.2" fill="#5fb0e0"/>
<rect x="-56.697" y="-137.995" width="5.2" height="5.2" fill="#5fb0e0"/>
<rect x="19.279" y="-193.346" width="5.2" height="5.2" fill="#5fb0e0"/>
<rect x="-20.248" y="-187.877" width="5.2" height="5.2" fill="#5fb0e0"/>
<rect x="304.256" y="-580.116" width="5.2" height="5.2" fill="#5fb0e0"/>
<rect x="520.399" y="-576.171" width="5.2" height="5.2" fill="#5fb0e0"/>
<rect x="591.362" y="-660.221" width="5.2" height="5.2" fill="#5fb0e0"/>
<rect x="737.018" y="-720.619" width="5.2" height="5.2" fill="#5fb0e0"/>
<circle cx="-188.317" cy="11.794" r="3.1" fill="#cf3b2d"/>
<circle cx="-167.929" cy="-34.663" r="3.1" fill="#cf3b2d"/>
<circle cx="-147.785" cy="-79.910" r="3.1" fill="#cf3b2d"/>
<circle cx="-132.175" cy="-88.758" r="3.1" fill="#cf3b2d"/>
<circle cx="-114.093" cy="-118.313" r="3.1" fill="#cf3b2d"/>
<circle cx="-96.101" cy="-147.720" r="3.1" fill="#cf3b2d"/>
<circle cx="-87.001" cy="-105.106" r="3.1" fill="#cf3b2d"/>
<circle cx="-74.138" cy="-93.502" r="3.1" fill="#cf3b2d"/>
<circle cx="-54.400" cy="-138.325" r="3.1" fill="#cf3b2d"/>
<circle cx="-34.720" cy="-183.115" r="3.1" fill="#cf3b2d"/>
<circle cx="-19.487" cy="-192.046" r="3.1" fill="#cf3b2d"/>
<circle cx="-1.794" cy="-221.391" r="3.1" fill="#cf3b2d"/>
<circle cx="15.679" cy="-244.557" r="3.1" fill="#cf3b2d"/>
<circle cx="33.560" cy="-266.895" r="3.1" fill="#cf3b2d"/>
<circle cx="52.003" cy="-294.264" r="3.1" fill="#cf3b2d"/>
<circle cx="69.794" cy="-316.779" r="3.1" fill="#cf3b2d"/>
<circle cx="87.456" cy="-339.515" r="3.1" fill="#cf3b2d"/>
<circle cx="105.067" cy="-362.609" r="3.1" fill="#cf3b2d"/>
<circle cx="122.655" cy="-385.798" r="3.1" fill="#cf3b2d"/>
<circle cx="139.599" cy="-404.442" r="3.1" fill="#cf3b2d"/>
<circle cx="155.233" cy="-413.379" r="3.1" fill="#cf3b2d"/>
<circle cx="172.088" cy="-432.817" r="3.1" fill="#cf3b2d"/>
<circle cx="188.327" cy="-447.692" r="3.1" fill="#cf3b2d"/>
<circle cx="204.545" cy="-463.170" r="3.1" fill="#cf3b2d"/>
<circle cx="220.632" cy="-477.921" r="3.1" fill="#cf3b2d"/>
<circle cx="236.164" cy="-488.360" r="3.1" fill="#cf3b2d"/>
<circle cx="251.720" cy="-499.511" r="3.1" fill="#cf3b2d"/>
<circle cx="266.687" cy="-506.411" r="3.1" fill="#cf3b2d"/>
<circle cx="284.124" cy="-533.869" r="3.1" fill="#cf3b2d"/>
<circle cx="299.784" cy="-547.115" r="3.1" fill="#cf3b2d"/>
<circle cx="315.500" cy="-561.048" r="3.1" fill="#cf3b2d"/>
<circle cx="330.660" cy="-570.711" r="3.1" fill="#cf3b2d"/>
<circle cx="345.267" cy="-576.110" r="3.1" fill="#cf3b2d"/>
<circle cx="360.508" cy="-587.214" r="3.1" fill="#cf3b2d"/>
<circle cx="375.804" cy="-599.034" r="3.1" fill="#cf3b2d"/>
<circle cx="391.815" cy="-616.490" r="3.1" fill="#cf3b2d"/>
<circle cx="407.294" cy="-629.689" r="3.1" fill="#cf3b2d"/>
<circle cx="422.213" cy="-638.610" r="3.1" fill="#cf3b2d"/>
<circle cx="436.839" cy="-645.153" r="3.1" fill="#cf3b2d"/>
<circle cx="451.021" cy="-648.285" r="3.1" fill="#cf3b2d"/>
<circle cx="465.212" cy="-651.934" r="3.1" fill="#cf3b2d"/>
<circle cx="479.022" cy="-653.065" r="3.1" fill="#cf3b2d"/>
<circle cx="493.068" cy="-656.558" r="3.1" fill="#cf3b2d"/>
<circle cx="507.133" cy="-660.336" r="3.1" fill="#cf3b2d"/>
<circle cx="521.331" cy="-665.324" r="3.1" fill="#cf3b2d"/>
<circle cx="535.519" cy="-670.466" r="3.1" fill="#cf3b2d"/>
<circle cx="550.311" cy="-680.651" r="3.1" fill="#cf3b2d"/>
<circle cx="-198.476" cy="-12.139" r="3.1" fill="#3f86d0"/>
<circle cx="-178.088" cy="-58.596" r="3.1" fill="#3f86d0"/>
<circle cx="-157.944" cy="-103.843" r="3.1" fill="#3f86d0"/>
<circle cx="-142.334" cy="-112.691" r="3.1" fill="#3f86d0"/>
<circle cx="-124.252" cy="-142.246" r="3.1" fill="#3f86d0"/>
<circle cx="-106.260" cy="-171.653" r="3.1" fill="#3f86d0"/>
<circle cx="-97.160" cy="-129.039" r="3.1" fill="#3f86d0"/>
<circle cx="-84.297" cy="-117.435" r="3.1" fill="#3f86d0"/>
<circle cx="-64.559" cy="-162.258" r="3.1" fill="#3f86d0"/>
<circle cx="-44.879" cy="-207.048" r="3.1" fill="#3f86d0"/>
<circle cx="-29.646" cy="-215.979" r="3.1" fill="#3f86d0"/>
<circle cx="-11.953" cy="-245.324" r="3.1" fill="#3f86d0"/>
<circle cx="5.520" cy="-268.490" r="3.1" fill="#3f86d0"/>
<circle cx="23.401" cy="-290.828" r="3.1" fill="#3f86d0"/>
<circle cx="41.844" cy="-318.197" r="3.1" fill="#3f86d0"/>
<circle cx="59.635" cy="-340.712" r="3.1" fill="#3f86d0"/>
<circle cx="77.297" cy="-363.448" r="3.1" fill="#3f86d0"/>
<circle cx="94.908" cy="-386.542" r="3.1" fill="#3f86d0"/>
<circle cx="112.496" cy="-409.731" r="3.1" fill="#3f86d0"/>
<circle cx="129.440" cy="-428.375" r="3.1" fill="#3f86d0"/>
<circle cx="145.074" cy="-437.312" r="3.1" fill="#3f86d0"/>
<circle cx="161.929" cy="-456.750" r="3.1" fill="#3f86d0"/>
<circle cx="178.168" cy="-471.625" r="3.1" fill="#3f86d0"/>
<circle cx="194.386" cy="-487.103" r="3.1" fill="#3f86d0"/>
<circle cx="210.473" cy="-501.854" r="3.1" fill="#3f86d0"/>
<circle cx="226.005" cy="-512.293" r="3.1" fill="#3f86d0"/>
<circle cx="241.561" cy="-523.444" r="3.1" fill="#3f86d0"/>
<circle cx="256.528" cy="-530.344" r="3.1" fill="#3f86d0"/>
<circle cx="273.965" cy="-557.802" r="3.1" fill="#3f86d0"/>
<circle cx="289.625" cy="-571.048" r="3.1" fill="#3f86d0"/>
<circle cx="305.341" cy="-584.981" r="3.1" fill="#3f86d0"/>
<circle cx="320.501" cy="-594.644" r="3.1" fill="#3f86d0"/>
<circle cx="335.108" cy="-600.043" r="3.1" fill="#3f86d0"/>
<circle cx="350.349" cy="-611.147" r="3.1" fill="#3f86d0"/>
<circle cx="365.645" cy="-622.967" r="3.1" fill="#3f86d0"/>
<circle cx="381.656" cy="-640.423" r="3.1" fill="#3f86d0"/>
<circle cx="397.135" cy="-653.622" r="3.1" fill="#3f86d0"/>
<circle cx="412.054" cy="-662.543" r="3.1" fill="#3f86d0"/>
<circle cx="426.680" cy="-669.086" r="3.1" fill="#3f86d0"/>
<circle cx="440.862" cy="-672.218" r="3.1" fill="#3f86d0"/>
<circle cx="455.053" cy="-675.867" r="3.1" fill="#3f86d0"/>
<circle cx="468.863" cy="-676.998" r="3.1" fill="#3f86d0"/>
<circle cx="482.909" cy="-680.491" r="3.1" fill="#3f86d0"/>
<circle cx="496.974" cy="-684.269" r="3.1" fill="#3f86d0"/>
<circle cx="511.172" cy="-689.257" r="3.1" fill="#3f86d0"/>
<circle cx="525.360" cy="-694.399" r="3.1" fill="#3f86d0"/>
<circle cx="540.152" cy="-704.584" r="3.1" fill="#3f86d0"/>
<circle cx="540.152" cy="-717.584" r="5.0" fill="#14110d" stroke="#f4e3b0" stroke-width="2"/>
<circle cx="200.208" cy="-668.910" r="5.0" fill="#14110d" stroke="#f4e3b0" stroke-width="2"/>
<circle cx="79.738" cy="-391.020" r="5.0" fill="#14110d" stroke="#f4e3b0" stroke-width="2"/>
<circle cx="-106.260" cy="-184.653" r="5.0" fill="#14110d" stroke="#f4e3b0" stroke-width="2"/>
<circle cx="-216.745" cy="-13.273" r="5.0" fill="#14110d" stroke="#f4e3b0" stroke-width="2"/>
<circle cx="-16.109" cy="-163.071" r="5.0" fill="#14110d" stroke="#f4e3b0" stroke-width="2"/>
<circle cx="144.604" cy="-381.397" r="5.0" fill="#14110d" stroke="#f4e3b0" stroke-width="2"/>
<circle cx="558.480" cy="-615.596" r="5.0" fill="#14110d" stroke="#f4e3b0" stroke-width="2"/>
</g>
<g font-size="22" font-weight="600" fill="#f4e3b0">
<text x="557.51" y="42.82" text-anchor="middle">0</text>
<text x="201.67" y="2.58" text-anchor="middle">1</text>
<text x="59.87" y="-306.72" text-anchor="middle">2</text>
<text x="-122.77" y="-518.17" text-anchor="middle">3</text>
<text x="-231.81" y="-691.05" text-anchor="middle">4</text>
<text x="-29.00" y="-543.04" text-anchor="middle">5</text>
<text x="132.27" y="-325.10" text-anchor="middle">6</text>
<text x="578.41" y="-63.38" text-anchor="middle">7</text>
</g>
<g font-size="20">
<text x="-244.85506886572864" y="-728.2582643857888" fill="#f4e3b0">8-node closed Bezier &#183; area 129,058 mm&#178; &#183; min clearance 13 mm</text>
</g></svg>