<svg xmlns="http://www.w3.org/2000/svg" viewBox="0 0 224 203" width="672" height="609">
  <path d="M 183.99,4.15 C 181.62,4.27 179.48,4.52 177.72,6.34 C 174.64,9.53 174.5,14.02 173.29,18 C 171.09,25.23 158.61,42.44 174,44.75 C 181.82,45.93 184.89,37.69 189.11,33.01 C 192.19,29.6 198.14,27.59 199.62,23 C 201.68,16.6 189.61,5.34 183.99,4.15 Z" fill="#e6b34d" fill-opacity="0.55" stroke="#333" stroke-width="0.5"/>
  <path d="M 59,12.14 C 50.31,12.76 48.99,22.48 45.75,29 C 42.89,34.75 38.3,42.35 39.12,49 C 40.31,58.64 55.42,64.71 63,68.44 C 67.17,70.49 69.92,74.47 75,74.33 C 79.68,74.2 83.98,68.51 81.98,64 C 77.95,54.86 65.44,51.62 62.52,42 C 59.54,32.21 75.44,14.39 59,12.14 Z" fill="#e6b34d" fill-opacity="0.55" stroke="#333" stroke-width="0.5"/>
  <path d="M 53,93.16 C 41.75,95.42 48.38,106.54 47.96,114 C 47.5,122.4 39.07,133.67 54,134.48 C 58.53,134.73 61.64,130.7 66,130.12 C 74.89,128.93 85.8,133.72 94,131.07 C 100.62,128.93 102.95,120.48 98.66,115.05 C 94.5,109.78 78.44,110.17 71,106.24 C 64.02,102.55 61.42,93.66 53,93.16 Z" fill="#e6b34d" fill-opacity="0.55" stroke="#333" stroke-width="0.5"/>
  <path d="M 199,139.12 C 189.67,140.96 190.79,149.96 187.71,157 C 186.01,160.89 182.59,164.7 182.13,169 C 181.49,174.93 185.92,179.95 192,179.78 C 198.07,179.61 200.69,172.86 204.11,169 C 207.16,165.56 214.86,163.05 216.43,158.89 C 218.48,153.46 204.52,139.13 199,139.12 Z" fill="#e6b34d" fill-opacity="0.55" stroke="#333" stroke-width="0.5"/>
  <path d="M 93,140.55 C 84.91,141.46 85.2,149.11 82.89,155 C 80.45,161.25 75.17,168.17 69,171.07 C 56.35,177.02 38.16,170.3 25,168.9 C 20.39,168.41 15.32,166.86 11.05,169.68 C 5.06,173.63 8.68,180.82 14,182.96 C 25.7,187.67 38,191.18 50,195.01 C 55.87,196.88 61.66,200.33 68,199.96 C 77.56,199.4 85.74,187.19 92,181 C 98.12,174.95 108.87,170.9 113.62,163.99 C 120.37,154.16 100.59,141.88 93,140.55 Z" fill="#e6b34d" fill-opacity="0.55" stroke="#333" stroke-width="0.5"/>
  <path d="M 151,3 C 128.83,3 106.79,3.96 85,8.39 C 75.94,10.23 67.55,8.05 69.74,19 C 69.98,20.2 69.57,23.15 70.78,24 C 72.32,25.08 76.42,23.27 78,22.88 C 84.6,21.23 91.27,20.19 98,19.22 C 114.8,16.82 131,16 148,16 C 152.75,16 168.36,17.96 171.72,16.61 C 173.5,15.9 177.94,6.42 176.51,5.15 C 173.13,2.17 155.88,3.02 151,3 Z" fill="#b3b3b3" fill-opacity="0.55" stroke="#333" stroke-width="0.5"/>
  <path d="M 66.23,73.15 C 62.9,73.18 60.5,79.58 58.97,82 C 58.02,83.51 51.84,91.11 54.43,92.62 C 55.97,93.52 58.3,93.19 60,93.96 C 60.56,94.22 63.01,95.79 63.77,95.88 C 65.66,96.11 75.8,80.7 75.96,78.38 C 76.02,77.43 67.51,73.81 66.23,73.15 Z" fill="#b3b3b3" fill-opacity="0.55" stroke="#333" stroke-width="0.5"/>
  <path d="M 72,132 C 68.62,132.02 60.47,133.19 59.16,137.24 C 58.63,138.86 64.08,140.8 65,141.24 C 69.38,143.35 77.87,149.34 82.73,149.11 C 84.39,149.03 91.26,139.74 90.47,139.01 C 86.11,134.99 77.75,132.01 72,132 Z" fill="#b3b3b3" fill-opacity="0.55" stroke="#333" stroke-width="0.5"/>
  <path d="M 186,141 C 169.31,141 152.31,144.65 136,147.78 C 131.59,148.62 119.68,148.81 116.82,152.68 C 115.6,154.32 117.21,161.68 117.77,163.62 C 118.43,165.94 122.59,164.23 124,163.88 C 130.65,162.24 137.29,160.76 144,159.39 C 155.91,156.97 175.92,157.39 185.86,153.95 C 187.88,153.25 193.28,142.48 191.51,141.38 C 190.18,140.56 187.46,141 186,141 Z" fill="#b3b3b3" fill-opacity="0.55" stroke="#333" stroke-width="0.5"/>
</svg>
