<svg xmlns="http://www.w3.org/2000/svg" viewBox="0 0 248 344" width="248" height="344">
  <path data-part="arm_top_left" d="M 114,9 C 75.03,9.24 71.13,42.39 59.07,71 C 52.51,86.57 44.21,101.39 37.58,117 C 27.04,141.8 4.12,177.03 10.9,205 C 17.39,231.78 31.85,236.48 52,251.08 C 74.48,267.36 98.32,283.27 123,296.05 C 130.51,299.94 139.59,301.1 146.83,305.27 C 151.52,307.98 154.8,315.07 158.97,318.84 C 171.92,330.58 185.01,333.08 202,331.92 C 227.11,330.21 243.35,301.86 235.31,279 C 231.35,267.75 223.49,263.32 215.51,255.45 C 205.64,245.72 197.85,233.83 186.92,225.03 C 164.21,206.75 135.7,189.18 130.31,158 C 126.71,137.21 133.77,117.26 140.18,98 C 142.6,90.71 143.51,83.06 146.88,76.02 C 149.52,70.51 157.12,69.73 157.86,63.01 C 158.4,58.03 155.21,35.54 153.72,30.27 C 152.92,27.44 149.29,25.58 147.79,22.98 C 146.23,20.3 146.45,16.14 143.72,14.28 C 136.93,9.69 122,9.05 114,9 Z" fill="#e6b34d" stroke="#333" stroke-width="0.5"/>
</svg>
