<svg xmlns="http://www.w3.org/2000/svg" viewBox="0 0 579 315" width="579" height="315">
  <path data-part="arm_bottom_left" d="M 450,8.04 C 434.43,8.11 412.79,34.98 408.62,49 C 406.7,55.48 409,62.47 406.92,69 C 393.9,109.81 367.23,153.74 326,171.33 C 304.37,180.56 279.14,182.52 256,178.69 C 251.93,178.02 248.15,176.36 244,176.08 C 219.67,174.42 196.17,168.58 172,165.27 C 151.96,162.53 132.01,160.58 112,157.88 C 89.92,154.9 52.76,147.01 32.03,157.02 C 5.05,170.06 0.93,208.82 28,224.66 C 34.56,228.5 40.86,229.05 47.89,231.19 C 53.95,233.04 59.72,237.38 66,239.42 C 74.47,242.17 83.41,243.92 92,246.55 C 131.03,258.52 169.18,273.78 208,286.51 C 224.62,291.96 241.78,297.07 258,303.57 C 264.7,306.25 271.04,307.89 277.95,309.85 C 281.64,310.9 282.9,313.85 287.02,313.98 C 301.64,314.47 316.36,314 331,314 C 337.58,314 346.4,315.56 352.73,313.72 C 355.94,312.78 358.23,307.28 361.03,305.19 C 374.21,295.39 383.93,284.51 394.45,272.01 C 409.77,253.81 428.01,237.65 445,220.99 C 455.84,210.36 466.63,198.14 479,189.29 C 494.33,178.31 511.41,165.91 528.23,157.35 C 543.15,149.76 561.08,141.24 567.33,123.84 C 571.64,111.87 563.82,85.12 556.14,76.48 C 553.31,73.3 548.55,74.97 545.51,72.3 C 539.48,67 535.47,58.44 529.69,52.58 C 509.43,32.02 479.79,10.27 450,8.04 Z" fill="#e6b34d" stroke="#333" stroke-width="0.5"/>
</svg>
