<svg xmlns="http://www.w3.org/2000/svg" viewBox="0 0 224 203" width="224" height="203">
  <path data-part="gold_bottom_left" d="M 93,140.55 C 84.91,141.46 85.2,149.11 82.89,155 C 80.45,161.25 75.17,168.17 69,171.07 C 56.35,177.02 38.16,170.3 25,168.9 C 20.39,168.41 15.32,166.86 11.05,169.68 C 5.06,173.63 8.68,180.82 14,182.96 C 25.7,187.67 38,191.18 50,195.01 C 55.87,196.88 61.66,200.33 68,199.96 C 77.56,199.4 85.74,187.19 92,181 C 98.12,174.95 108.87,170.9 113.62,163.99 C 120.37,154.16 100.59,141.88 93,140.55 Z" fill="#e6b34d" stroke="#333" stroke-width="0.5"/>
</svg>
