<svg xmlns="http://www.w3.org/2000/svg" viewBox="0 0 314 235" width="314" height="235">
  <path data-part="yoke_mid_left" d="M 55,9.01 C 36.95,9.25 19.13,26.16 16.31,44 C 14.58,54.91 21.76,64.04 24.43,74 C 27.7,86.18 29,99.45 29,112 C 29,122.57 28.54,133.75 25.72,144 C 20.05,164.53 -1.87,183.79 15.58,205.84 C 18.48,209.51 22.3,212.42 26,215.22 C 30.38,218.52 34.61,220.39 40,221.39 C 47.03,222.68 55.94,224.72 63,224.89 C 80.75,225.31 100.53,202.24 121,200.11 C 138.64,198.28 180.39,196.88 197,200.5 C 219.01,205.3 244.08,214.66 267,207.97 C 308.95,195.71 314.04,142.79 285.42,114.58 C 267.68,97.09 240.16,103.24 218,101.95 C 200.45,100.94 177.58,93.56 162,85.39 C 147.55,77.8 129.79,69.79 118.42,57.84 C 104.71,43.44 98.02,21.18 78.97,12.44 C 71.96,9.22 62.65,9.11 55,9.01 Z" fill="#e6b34d" stroke="#333" stroke-width="0.5"/>
</svg>
