<svg xmlns="http://www.w3.org/2000/svg" width="770" height="460" viewBox="0 0 770 460">
  <rect width="770" height="460" fill="#202020"/>
  <g id="gold" fill="none" stroke="#caa64a" stroke-width="1.5">
    <path d="M368,40 L372,41 L373,44 L363,52 L360,49 L361,44 L368,40 Z"/>
    <path d="M392,46 L404,49 L402,51 L392,51 L388,49 L392,46 Z"/>
    <path d="M132,62 L183,62 L192,64 L224,62 L230,64 L236,62 L344,62 L346,64 L350,62 L382,62 L384,64 L388,62 L394,64 L419,62 L426,64 L441,62 L462,63 L465,65 L479,78 L527,137 L527,142 L532,145 L539,155 L572,209 L575,215 L575,222 L580,225 L585,234 L591,250 L607,279 L607,286 L611,289 L616,303 L623,313 L623,318 L651,376 L668,423 L664,426 L621,425 L617,423 L608,426 L601,423 L603,419 L599,416 L596,419 L597,425 L570,425 L558,418 L553,425 L507,425 L497,414 L489,398 L464,366 L464,363 L438,335 L417,319 L414,314 L408,312 L398,303 L394,303 L380,294 L369,291 L366,287 L357,287 L335,280 L318,279 L302,271 L294,278 L256,283 L219,303 L198,321 L175,353 L174,360 L170,351 L170,336 L165,310 L152,302 L153,296 L160,288 L152,279 L145,279 L143,284 L146,287 L147,342 L153,350 L154,383 L156,385 L159,422 L155,425 L149,423 L142,425 L134,424 L132,422 L132,400 L129,383 L128,352 L122,302 L122,277 L120,256 L118,254 L115,192 L112,182 L112,160 L110,158 L107,111 L107,97 L112,87 L115,66 L132,62 Z"/>
    <path d="M249,121 L254,121 L254,126 L240,124 L241,122 L249,121 Z"/>
    <path d="M260,247 L271,249 L262,252 L256,249 L260,247 Z"/>
  </g>
  <g id="gray" fill="none" stroke="#9aa0a6" stroke-width="1.5">
    <path d="M7,0 L769,1 L7,0 Z"/>
    <path d="M0,14 L769,14 L769,102 L767,104 L769,108 L769,431 L743,431 L741,433 L744,438 L749,435 L755,439 L763,436 L769,440 L769,446 L258,446 L256,444 L254,446 L241,446 L239,444 L235,446 L236,432 L222,425 L213,428 L207,433 L209,440 L213,444 L211,446 L209,444 L206,446 L186,446 L184,444 L182,446 L180,444 L192,432 L175,426 L172,426 L166,433 L174,446 L0,446 L0,14 Z"/>
    <path d="M289,98 L334,98 L336,100 L350,100 L359,104 L382,106 L394,112 L402,112 L407,116 L420,119 L424,126 L430,126 L439,133 L435,137 L430,137 L418,127 L414,128 L405,121 L379,113 L370,115 L352,111 L337,111 L335,109 L286,111 L279,104 L268,104 L261,109 L258,122 L255,119 L243,119 L239,122 L241,128 L254,128 L254,131 L236,130 L236,124 L228,120 L208,122 L186,129 L184,126 L186,122 L190,124 L193,117 L206,115 L209,112 L220,112 L226,108 L258,101 L287,100 L289,98 Z"/>
    <path d="M357,128 L368,134 L358,137 L355,133 L357,128 Z"/>
    <path d="M407,147 L409,149 L408,155 L412,159 L410,162 L404,159 L407,147 Z"/>
    <path d="M467,148 L477,152 L477,158 L488,172 L527,209 L532,222 L543,233 L546,242 L552,246 L555,253 L553,256 L555,258 L559,257 L558,260 L567,268 L575,282 L575,286 L580,289 L586,300 L583,305 L591,309 L590,313 L584,313 L576,309 L568,287 L560,276 L560,272 L550,257 L551,255 L519,216 L518,209 L513,207 L501,194 L498,194 L474,169 L464,167 L473,161 L471,154 L465,150 L467,148 Z"/>
    <path d="M209,154 L211,155 L212,166 L209,175 L207,172 L208,163 L205,160 L209,154 Z"/>
    <path d="M193,176 L194,186 L185,191 L180,191 L182,183 L190,181 L193,176 Z"/>
    <path d="M193,205 L201,209 L202,227 L200,232 L190,235 L196,224 L192,210 L193,205 Z"/>
    <path d="M336,226 L382,227 L392,232 L414,233 L424,238 L439,240 L444,246 L452,247 L454,254 L447,255 L444,258 L445,255 L434,246 L430,247 L421,244 L416,239 L412,241 L391,236 L305,238 L301,228 L336,226 Z"/>
    <path d="M256,232 L276,234 L275,257 L265,256 L272,252 L270,245 L253,244 L251,246 L253,256 L249,258 L240,249 L233,255 L231,248 L224,243 L225,236 L240,233 L251,233 L253,235 L256,232 Z"/>
    <path d="M369,249 L384,255 L369,257 L366,254 L369,249 Z"/>
    <path d="M425,258 L431,266 L433,264 L436,266 L429,266 L427,268 L425,266 L418,271 L421,275 L417,276 L418,271 L414,266 L421,265 L425,258 Z"/>
    <path d="M484,267 L490,268 L499,278 L504,278 L553,327 L555,334 L564,343 L561,346 L566,348 L564,350 L573,353 L573,364 L575,366 L577,364 L583,375 L591,381 L599,402 L595,403 L593,399 L585,407 L579,405 L574,394 L576,389 L569,383 L564,383 L561,380 L560,364 L554,358 L549,347 L528,326 L527,317 L524,314 L521,319 L499,297 L484,287 L484,267 Z"/>
    <path d="M603,338 L607,341 L604,346 L612,353 L612,357 L617,364 L616,367 L602,367 L593,352 L592,349 L603,338 Z"/>
    <path d="M622,400 L629,400 L636,410 L628,415 L624,410 L622,400 Z"/>
    <path d="M543,408 L553,414 L550,416 L545,412 L542,414 L541,410 L543,408 Z"/>
    <path d="M596,426 L605,426 L606,430 L601,432 L599,430 L595,431 L596,426 Z"/>
  </g>
</svg>
