<svg xmlns="http://www.w3.org/2000/svg" width="240" height="202" viewBox="0 0 240 202">
  <rect width="240" height="202" fill="#202020"/>
  <g id="gold" fill="none" stroke="#caa64a" stroke-width="1.5">
    <path d="M180,4 L186,4 L197,15 L199,24 L187,34 L181,43 L171,45 L167,42 L165,34 L173,17 L174,10 L180,4 Z"/>
    <path d="M55,12 L62,12 L66,16 L66,24 L62,31 L61,41 L63,46 L81,63 L82,68 L78,74 L69,74 L64,69 L42,57 L38,51 L38,43 L40,38 L50,16 L55,12 Z"/>
    <path d="M51,93 L59,95 L65,103 L75,109 L97,113 L100,118 L99,127 L93,132 L69,129 L54,135 L46,133 L43,130 L43,125 L47,117 L44,99 L51,93 Z"/>
    <path d="M195,139 L203,139 L208,147 L215,153 L217,158 L214,162 L206,166 L197,178 L194,180 L189,180 L182,176 L181,166 L188,155 L189,146 L195,139 Z"/>
    <path d="M92,140 L102,144 L113,155 L114,162 L111,167 L97,175 L77,196 L69,201 L62,201 L58,198 L11,183 L7,179 L7,172 L10,169 L15,168 L51,173 L66,172 L79,161 L84,146 L92,140 Z"/>
  </g>
</svg>
