<svg xmlns="http://www.w3.org/2000/svg" width="428" height="317" viewBox="0 0 428 317">
  <rect width="428" height="317" fill="#202020"/>
  <g id="gray" fill="none" stroke="#9aa0a6" stroke-width="1.5">
    <path d="M0,0 L427,1 L1,2 L0,0 Z"/>
    <path d="M2,34 L63,118 L98,161 L139,207 L144,206 L170,219 L215,234 L244,240 L274,243 L274,251 L261,252 L210,243 L176,232 L154,222 L152,223 L145,215 L130,212 L81,156 L29,89 L0,48 L0,43 L3,38 L1,36 L2,34 Z"/>
    <path d="M2,137 L42,188 L68,218 L89,239 L113,256 L106,263 L92,254 L77,241 L37,197 L0,150 L0,144 L3,141 L1,139 L2,137 Z"/>
    <path d="M409,189 L411,190 L409,196 L399,205 L351,226 L299,244 L295,241 L282,238 L355,214 L409,189 Z"/>
    <path d="M412,240 L419,245 L405,259 L380,277 L367,284 L330,297 L305,301 L291,300 L294,293 L323,290 L360,278 L389,261 L412,240 Z"/>
    <path d="M132,275 L151,285 L184,296 L201,299 L231,300 L260,296 L269,293 L270,298 L273,301 L271,303 L255,307 L224,310 L184,306 L152,296 L130,285 L124,281 L132,275 Z"/>
  </g>
</svg>
