<svg xmlns="http://www.w3.org/2000/svg" width="223" height="237" viewBox="0 0 223 237">
  <rect width="223" height="237" fill="#202020"/>
  <g id="gold" fill="none" stroke="#caa64a" stroke-width="1.5">
    <path d="M64,13 L73,16 L75,19 L73,31 L69,41 L69,49 L71,53 L93,74 L93,82 L87,88 L77,86 L50,69 L43,63 L41,58 L43,49 L57,17 L64,13 Z"/>
    <path d="M56,109 L66,110 L74,121 L86,128 L109,131 L114,136 L115,144 L113,150 L106,155 L78,151 L70,152 L58,158 L52,157 L48,151 L53,134 L50,115 L56,109 Z"/>
    <path d="M102,165 L110,165 L123,174 L130,183 L131,190 L126,197 L109,207 L83,233 L69,234 L62,232 L12,215 L7,211 L6,203 L10,197 L25,197 L65,204 L78,201 L91,188 L96,170 L102,165 Z"/>
  </g>
</svg>
