<svg xmlns="http://www.w3.org/2000/svg" width="404" height="185" viewBox="0 0 404 185">
  <rect width="404" height="185" fill="#202020"/>
  <g id="gold" fill="none" stroke="#caa64a" stroke-width="1.5">
    <path d="M161,0 L168,2 L179,13 L180,20 L170,27 L160,39 L153,39 L148,34 L149,25 L154,14 L155,6 L161,0 Z"/>
    <path d="M47,8 L53,9 L56,14 L56,19 L51,29 L52,39 L70,56 L71,59 L70,63 L65,67 L58,67 L51,60 L35,52 L29,45 L29,39 L35,24 L41,12 L47,8 Z"/>
    <path d="M43,84 L47,85 L62,98 L67,100 L82,101 L87,109 L85,117 L79,121 L56,118 L44,123 L37,122 L34,118 L34,113 L38,105 L35,90 L38,85 L43,84 Z"/>
    <path d="M177,127 L184,128 L194,139 L195,144 L180,158 L176,164 L169,165 L163,161 L162,152 L168,143 L171,130 L177,127 Z"/>
    <path d="M77,128 L84,129 L92,134 L99,142 L100,149 L94,155 L82,162 L64,181 L59,184 L50,184 L46,181 L7,169 L0,164 L0,158 L7,153 L45,159 L57,157 L68,146 L71,139 L71,134 L77,128 Z"/>
  </g>
</svg>
