<svg xmlns="http://www.w3.org/2000/svg" width="160" height="257" viewBox="0 0 160 257">
  <rect width="160" height="257" fill="#202020"/>
  <g id="gold" fill="none" stroke="#caa64a" stroke-width="1.5">
    <path d="M73,2 L83,4 L87,10 L86,18 L80,34 L80,43 L90,55 L106,68 L108,72 L108,80 L103,86 L94,87 L89,85 L73,73 L55,63 L50,57 L50,44 L65,9 L73,2 Z"/>
    <path d="M68,111 L76,113 L89,127 L95,131 L107,135 L121,135 L128,138 L133,147 L133,152 L130,159 L124,163 L86,159 L69,167 L60,165 L57,162 L56,156 L62,141 L59,127 L59,117 L64,112 L68,111 Z"/>
    <path d="M118,175 L127,176 L137,182 L150,196 L151,206 L147,211 L129,221 L100,251 L91,256 L84,256 L82,254 L78,254 L16,233 L8,227 L7,218 L14,212 L35,213 L72,220 L90,217 L104,204 L108,197 L112,181 L118,175 Z"/>
  </g>
</svg>
