<svg xmlns="http://www.w3.org/2000/svg" width="331" height="293" viewBox="0 0 331 293">
  <rect width="331" height="293" fill="#202020"/>
  <g id="gray" fill="none" stroke="#9aa0a6" stroke-width="1.5">
    <path d="M0,0 L330,0 L25,1 L23,3 L48,41 L96,105 L133,150 L166,186 L171,185 L210,203 L239,212 L273,219 L302,221 L303,223 L301,230 L292,231 L273,229 L231,220 L200,210 L181,201 L177,204 L176,197 L171,192 L164,193 L157,191 L88,111 L36,41 L12,4 L9,1 L1,2 L0,0 Z"/>
    <path d="M2,80 L49,143 L81,182 L110,213 L138,234 L135,243 L119,233 L103,220 L57,168 L0,94 L0,90 L3,87 L1,82 L2,80 Z"/>
    <path d="M157,253 L188,268 L217,276 L233,278 L262,278 L294,272 L295,276 L300,280 L278,286 L259,288 L218,286 L184,277 L160,266 L148,258 L157,253 Z"/>
  </g>
</svg>
