<svg xmlns="http://www.w3.org/2000/svg" width="770" height="364" viewBox="0 0 770 364">
  <rect width="770" height="364" fill="#202020"/>
  <g id="gold" fill="none" stroke="#caa64a" stroke-width="1.5">
    <path d="M98,0 L239,0 L240,13 L244,21 L253,31 L257,32 L263,32 L270,29 L280,13 L319,7 L324,0 L497,0 L506,10 L506,14 L504,16 L504,84 L506,86 L575,85 L579,87 L594,103 L630,135 L653,153 L657,158 L683,175 L689,182 L697,184 L718,198 L769,224 L769,363 L468,363 L466,354 L463,350 L463,345 L457,341 L460,338 L462,338 L465,342 L470,343 L479,343 L485,340 L487,323 L478,310 L466,310 L457,323 L444,324 L438,326 L434,330 L433,334 L440,342 L437,353 L411,354 L402,349 L397,343 L392,342 L375,326 L370,324 L368,320 L353,307 L351,308 L321,278 L314,274 L310,268 L319,261 L319,239 L323,237 L351,231 L366,230 L369,227 L399,223 L417,218 L430,217 L432,215 L440,215 L448,221 L461,219 L466,212 L467,204 L467,199 L462,189 L456,188 L453,183 L446,183 L437,192 L437,198 L433,196 L431,198 L417,199 L414,203 L401,204 L399,206 L385,209 L382,207 L378,209 L368,209 L362,213 L336,215 L333,218 L323,221 L299,222 L294,220 L289,215 L284,215 L274,226 L268,228 L262,224 L256,215 L237,195 L233,197 L231,196 L231,191 L223,182 L213,175 L207,164 L183,140 L176,143 L175,148 L170,152 L171,153 L167,159 L200,193 L201,197 L215,210 L216,213 L220,215 L223,220 L245,240 L245,245 L228,253 L222,251 L219,255 L217,253 L215,255 L218,264 L218,283 L215,292 L208,301 L196,310 L193,310 L190,315 L184,318 L169,332 L158,338 L146,341 L141,346 L132,350 L123,348 L114,341 L103,343 L95,348 L87,347 L83,342 L83,331 L87,327 L102,326 L104,324 L95,309 L90,294 L89,259 L87,257 L81,261 L62,262 L57,255 L58,247 L62,241 L84,240 L92,236 L98,236 L125,227 L146,227 L155,229 L163,234 L172,243 L192,240 L199,242 L201,240 L176,205 L176,202 L157,178 L144,158 L143,153 L135,144 L130,144 L127,146 L108,146 L98,140 L80,140 L65,143 L46,151 L41,151 L32,145 L38,132 L42,128 L63,127 L77,124 L79,122 L79,119 L74,112 L70,96 L70,74 L65,69 L63,62 L65,53 L76,49 L64,30 L63,22 L94,21 L97,18 L97,15 L95,13 L88,12 L61,13 L57,11 L80,9 L94,10 L98,7 L98,0 Z"/>
    <path d="M271,274 L280,275 L289,285 L292,285 L298,294 L309,302 L322,317 L324,316 L333,327 L337,327 L353,345 L360,349 L360,351 L354,354 L333,353 L330,357 L332,363 L296,363 L233,284 L240,280 L252,279 L257,276 L271,274 Z"/>
  </g>
</svg>
