<svg xmlns="http://www.w3.org/2000/svg" width="770" height="359" viewBox="0 0 770 359">
  <rect width="770" height="359" fill="#202020"/>
  <g id="gold" fill="none" stroke="#caa64a" stroke-width="1.5">
    <path d="M240,2 L395,2 L398,4 L389,13 L388,18 L377,30 L372,41 L368,45 L370,48 L382,52 L389,59 L394,49 L400,42 L401,37 L408,30 L409,25 L413,21 L417,20 L421,13 L429,5 L439,2 L658,2 L660,5 L647,19 L506,19 L504,21 L504,89 L506,91 L559,90 L567,92 L567,96 L548,113 L538,119 L529,130 L514,139 L510,145 L507,145 L499,152 L497,151 L487,162 L481,163 L478,167 L474,168 L455,169 L449,166 L450,164 L454,164 L460,155 L458,147 L450,139 L434,140 L431,143 L412,145 L400,154 L390,150 L384,144 L383,140 L378,135 L375,135 L362,146 L362,149 L368,157 L371,165 L371,175 L369,181 L371,183 L375,183 L387,179 L393,179 L396,182 L396,186 L399,191 L405,197 L406,206 L411,212 L412,222 L404,232 L403,238 L385,248 L382,253 L369,254 L360,259 L346,274 L332,283 L327,289 L315,296 L306,306 L300,307 L293,314 L273,325 L260,336 L257,336 L247,344 L236,348 L232,353 L225,355 L223,358 L36,358 L34,356 L45,346 L43,336 L45,331 L68,325 L73,321 L78,321 L87,316 L96,315 L101,311 L106,311 L110,314 L108,318 L109,322 L121,334 L132,335 L141,331 L143,329 L143,324 L146,322 L165,318 L174,318 L176,316 L190,315 L193,313 L204,312 L209,309 L224,308 L241,303 L270,299 L272,297 L272,285 L269,281 L261,281 L254,284 L241,284 L234,288 L192,294 L169,300 L161,300 L147,306 L138,304 L136,301 L152,291 L158,290 L169,284 L174,284 L179,278 L195,273 L201,268 L209,267 L232,253 L238,252 L249,244 L269,235 L279,224 L319,193 L314,188 L307,187 L296,197 L289,198 L276,208 L266,211 L261,207 L258,202 L259,200 L256,198 L250,201 L225,203 L223,205 L208,209 L201,209 L193,213 L188,211 L178,216 L172,214 L144,220 L128,220 L125,216 L114,216 L101,231 L100,237 L101,240 L107,244 L113,252 L117,253 L125,253 L136,240 L143,238 L168,235 L175,232 L189,231 L196,228 L208,227 L233,221 L238,221 L238,226 L221,234 L215,240 L208,241 L200,247 L187,251 L181,257 L175,257 L165,263 L160,263 L153,267 L145,268 L142,272 L129,275 L119,281 L106,284 L99,289 L93,289 L88,292 L65,297 L63,299 L49,300 L43,303 L0,304 L0,246 L20,242 L26,238 L32,230 L32,226 L28,222 L20,221 L16,217 L8,220 L3,215 L3,211 L0,208 L0,83 L6,79 L8,73 L5,64 L0,60 L0,36 L20,39 L32,43 L46,43 L48,45 L64,47 L94,48 L126,45 L191,27 L194,24 L223,12 L240,2 Z"/>
    <path d="M598,92 L603,94 L601,101 L596,107 L591,109 L591,113 L580,125 L579,129 L568,141 L567,145 L560,151 L549,169 L543,173 L543,177 L532,189 L531,194 L522,204 L521,208 L512,217 L510,223 L502,234 L496,237 L495,242 L485,253 L484,258 L478,266 L473,269 L467,280 L461,285 L455,295 L447,301 L446,306 L440,311 L439,314 L423,331 L416,335 L415,339 L398,356 L393,358 L272,358 L308,334 L317,325 L322,324 L331,316 L334,316 L338,310 L355,299 L378,278 L382,277 L384,273 L396,263 L404,261 L406,259 L405,253 L410,251 L426,236 L429,236 L432,230 L448,217 L448,202 L451,195 L451,190 L453,188 L478,182 L482,178 L492,176 L505,168 L516,164 L535,148 L541,145 L569,119 L574,118 L583,108 L589,106 L596,98 L598,92 Z"/>
  </g>
</svg>
