<svg xmlns="http://www.w3.org/2000/svg" width="417" height="412" viewBox="0 0 417 412">
  <rect width="417" height="412" fill="#202020"/>
  <g id="gray" fill="none" stroke="#9aa0a6" stroke-width="1.5">
    <path d="M0,0 L416,1 L97,1 L93,8 L75,10 L71,6 L76,3 L74,1 L0,0 Z"/>
    <path d="M107,7 L123,7 L134,10 L148,17 L159,26 L153,29 L142,20 L130,14 L118,12 L107,13 L107,7 Z"/>
    <path d="M166,39 L189,73 L207,108 L224,154 L224,160 L219,158 L205,116 L191,87 L180,68 L162,43 L166,39 Z"/>
    <path d="M115,62 L140,65 L163,77 L157,80 L137,70 L111,68 L110,64 L115,62 Z"/>
    <path d="M56,80 L61,85 L62,105 L59,109 L55,103 L54,84 L56,80 Z"/>
    <path d="M170,87 L182,101 L199,129 L215,164 L213,169 L218,175 L226,196 L225,197 L219,194 L203,149 L192,127 L178,105 L166,91 L170,87 Z"/>
    <path d="M223,172 L228,173 L240,207 L255,242 L282,296 L291,305 L304,313 L313,317 L326,319 L328,322 L325,325 L313,323 L301,318 L290,311 L287,304 L283,304 L279,301 L248,239 L225,182 L223,172 Z"/>
    <path d="M214,197 L215,203 L220,207 L226,228 L244,269 L265,311 L276,325 L274,330 L270,327 L261,314 L230,251 L217,218 L213,202 L214,197 Z"/>
    <path d="M403,241 L404,248 L380,286 L374,292 L372,289 L403,241 Z"/>
    <path d="M407,259 L410,263 L405,273 L394,292 L378,314 L376,309 L390,290 L407,259 Z"/>
    <path d="M370,292 L371,293 L368,296 L368,300 L352,312 L335,321 L330,317 L349,307 L370,292 Z"/>
    <path d="M370,319 L373,322 L360,339 L345,348 L338,350 L333,349 L336,345 L351,339 L353,341 L355,339 L354,337 L361,331 L370,319 Z"/>
    <path d="M282,336 L300,347 L313,349 L323,346 L327,350 L315,354 L297,352 L285,345 L279,339 L282,336 Z"/>
  </g>
</svg>
