<svg xmlns="http://www.w3.org/2000/svg" width="389" height="171" viewBox="0 0 389 171">
  <rect width="389" height="171" fill="#202020"/>
  <g id="gold" fill="none" stroke="#caa64a" stroke-width="1.5">
    <path d="M158,4 L165,4 L176,14 L176,20 L159,38 L153,39 L148,35 L147,27 L153,16 L154,8 L158,4 Z"/>
    <path d="M55,10 L59,10 L63,14 L63,22 L59,33 L62,39 L77,53 L77,60 L75,62 L65,62 L44,49 L40,44 L40,37 L43,30 L51,13 L55,10 Z"/>
    <path d="M49,79 L57,80 L63,87 L72,92 L88,94 L92,98 L92,107 L88,111 L82,112 L77,110 L60,110 L55,113 L46,112 L45,103 L48,97 L46,82 L49,79 Z"/>
    <path d="M174,117 L179,118 L190,133 L176,146 L173,151 L166,152 L161,148 L160,140 L166,131 L168,120 L174,117 Z"/>
    <path d="M82,119 L90,119 L96,123 L103,130 L104,138 L102,141 L88,149 L67,170 L61,170 L57,167 L18,155 L14,151 L14,146 L18,142 L32,142 L51,146 L65,145 L76,133 L78,123 L82,119 Z"/>
  </g>
</svg>
