<svg xmlns="http://www.w3.org/2000/svg" width="436" height="315" viewBox="0 0 436 315">
  <rect width="436" height="315" fill="#202020"/>
  <g id="gray" fill="none" stroke="#9aa0a6" stroke-width="1.5">
    <path d="M0,0 L435,1 L1,2 L0,0 Z"/>
    <path d="M2,14 L72,111 L111,159 L148,200 L153,199 L189,216 L224,227 L253,233 L284,235 L286,238 L283,244 L271,245 L253,243 L215,235 L185,225 L163,215 L161,216 L154,207 L139,205 L89,148 L19,56 L1,29 L0,24 L2,22 L0,20 L3,17 L1,15 L2,14 Z"/>
    <path d="M2,118 L75,209 L97,231 L122,249 L118,258 L86,234 L45,189 L0,132 L0,125 L3,122 L1,120 L2,118 Z"/>
    <path d="M425,178 L430,179 L432,182 L428,188 L416,191 L406,199 L370,215 L307,237 L291,231 L353,211 L385,198 L425,178 Z"/>
    <path d="M425,229 L429,229 L431,231 L431,234 L426,240 L406,258 L383,273 L356,285 L338,290 L311,294 L299,293 L303,286 L340,281 L371,270 L403,250 L425,229 Z"/>
    <path d="M140,267 L167,281 L198,290 L214,292 L248,292 L277,286 L277,289 L281,294 L279,296 L267,299 L247,302 L213,302 L199,300 L163,290 L142,280 L132,273 L140,267 Z"/>
  </g>
</svg>
