<svg xmlns="http://www.w3.org/2000/svg" width="176" height="151" viewBox="0 0 176 151">
  <rect width="176" height="151" fill="#202020"/>
  <g id="gold" fill="none" stroke="#caa64a" stroke-width="1.5">
    <path d="M63,4 L76,5 L88,18 L103,26 L110,28 L127,28 L131,30 L137,39 L137,47 L135,51 L129,57 L114,57 L109,55 L86,53 L70,61 L61,61 L56,54 L56,46 L61,36 L61,24 L58,18 L58,10 L63,4 Z"/>
    <path d="M122,64 L130,64 L147,76 L155,85 L157,95 L151,103 L143,106 L131,114 L101,145 L96,148 L85,150 L83,148 L9,124 L5,121 L2,115 L4,107 L11,103 L30,104 L67,111 L89,110 L100,102 L106,95 L114,79 L116,69 L122,64 Z"/>
  </g>
</svg>
