<svg xmlns="http://www.w3.org/2000/svg" width="246" height="223" viewBox="0 0 246 223">
  <rect width="246" height="223" fill="#202020"/>
  <g id="gold" fill="none" stroke="#caa64a" stroke-width="1.5">
    <path d="M71,12 L79,12 L84,18 L78,43 L80,49 L101,68 L101,76 L96,81 L88,81 L56,61 L52,55 L52,50 L60,30 L66,17 L71,12 Z"/>
    <path d="M66,102 L73,103 L85,115 L94,120 L100,122 L113,122 L117,124 L122,130 L122,135 L119,142 L113,145 L95,142 L81,142 L70,148 L62,147 L58,142 L58,138 L63,128 L60,107 L66,102 Z"/>
    <path d="M110,155 L116,155 L127,162 L137,174 L136,181 L129,187 L120,191 L102,208 L98,214 L86,222 L32,205 L22,201 L19,198 L19,189 L24,185 L42,186 L67,191 L85,190 L97,179 L102,170 L104,160 L110,155 Z"/>
  </g>
</svg>
