<svg xmlns="http://www.w3.org/2000/svg" width="455" height="412" viewBox="0 0 455 412">
  <rect width="455" height="412" fill="#202020"/>
  <g id="gold" fill="none" stroke="#caa64a" stroke-width="1.5">
    <path d="M77,5 L82,8 L82,16 L79,22 L74,23 L71,17 L73,10 L77,5 Z"/>
    <path d="M41,9 L44,10 L43,22 L49,32 L46,36 L35,29 L35,17 L37,12 L41,9 Z"/>
    <path d="M148,33 L152,36 L152,43 L148,46 L141,46 L139,44 L140,39 L148,33 Z"/>
    <path d="M41,47 L54,58 L54,62 L52,64 L47,62 L40,64 L38,62 L36,56 L38,49 L41,47 Z"/>
    <path d="M51,71 L57,72 L59,76 L58,81 L47,95 L36,95 L28,89 L27,85 L29,83 L41,83 L51,71 Z"/>
    <path d="M81,71 L86,72 L87,80 L81,87 L79,87 L76,84 L76,80 L81,71 Z"/>
    <path d="M150,92 L154,92 L157,95 L157,102 L151,105 L146,105 L143,102 L143,99 L150,92 Z"/>
    <path d="M218,188 L225,190 L226,196 L224,198 L219,198 L212,195 L212,192 L218,188 Z"/>
    <path d="M217,231 L225,233 L227,238 L217,238 L214,235 L217,231 Z"/>
    <path d="M287,356 L295,357 L296,362 L293,364 L288,364 L285,360 L287,356 Z"/>
    <path d="M287,380 L293,380 L295,383 L294,387 L290,390 L284,387 L284,382 L287,380 Z"/>
  </g>
</svg>
