<svg xmlns="http://www.w3.org/2000/svg" width="165" height="238" viewBox="0 0 165 238">
  <rect width="165" height="238" fill="#202020"/>
  <g id="gold" fill="none" stroke="#caa64a" stroke-width="1.5">
    <path d="M77,2 L84,4 L89,11 L88,20 L82,35 L82,46 L89,55 L109,71 L112,77 L110,86 L104,90 L95,90 L88,86 L77,77 L56,66 L50,58 L50,48 L54,38 L57,35 L64,15 L68,7 L77,2 Z"/>
    <path d="M66,93 L74,93 L78,95 L91,109 L102,115 L116,118 L124,117 L131,120 L136,125 L137,130 L135,141 L128,147 L98,143 L83,143 L73,150 L61,149 L57,143 L57,137 L63,124 L59,101 L60,98 L66,93 Z"/>
    <path d="M121,153 L129,153 L141,159 L156,176 L156,185 L151,191 L131,202 L101,233 L93,237 L85,237 L48,223 L14,213 L10,211 L6,205 L6,196 L12,191 L33,192 L73,199 L92,197 L109,180 L114,162 L121,153 Z"/>
  </g>
</svg>
