<?xml version="1.0" encoding="UTF-8"?>
<!--
  tuner_side.svg - Clements 47 guitar-tuner, side elevation (product view).
  1:1 scale, millimeters.  Adapted from Thingiverse 6099101 by noamtsvi
  (CC-BY-NC).  Goal of this drawing: visually recognizable silhouettes of
  the real printed parts (teardrop worm-driver head + threaded shaft,
  rounded-rectangle case, thin cap, through gear post), in situ between
  two 6 mm plywood sides separated by a 12.7 mm string gap.
-->
<svg xmlns="http://www.w3.org/2000/svg"
     width="180mm" height="160mm"
     viewBox="-80 -60 180 160">

  <defs>
    <style>
      .outl     { stroke:#333; stroke-width:0.6;  fill:none; }
      .outlthin { stroke:#333; stroke-width:0.35; fill:none; }
      .ply      { fill:#c79568; stroke:#8b4513; stroke-width:0.6; }
      .tuner    { fill:#3a6fd4; fill-opacity:0.55; stroke:#1d3f82; stroke-width:0.6; }
      .tuner2   { fill:#3a6fd4; fill-opacity:0.40; stroke:#1d3f82; stroke-width:0.5; }
      .cap      { fill:#5a8bdc; fill-opacity:0.55; stroke:#1d3f82; stroke-width:0.5; }
      .thread   { stroke:#1d3f82; stroke-width:0.5; fill:none; stroke-linecap:round; }
      .cross    { fill:#1d3f82; stroke:none; }
      .screw    { fill:#eaeaea; stroke:#555; stroke-width:0.25; }
      .strng    { fill:#c00000; stroke:#8a0000; stroke-width:0.25; }
      .cl       { stroke:#9090b0; stroke-width:0.2; fill:none;
                  stroke-dasharray:3,1,0.4,1; }

      .lbl      { font-family:sans-serif; font-size:3.0px; fill:#111;
                  font-weight:600; }
      .lblsm    { font-family:sans-serif; font-size:2.4px; fill:#333; }
      .note     { font-family:sans-serif; font-size:2.2px; fill:#555; }
      .attr     { font-family:sans-serif; font-size:2.6px; fill:#555;
                  font-style:italic; }
      .title    { font-family:sans-serif; font-size:4.0px; fill:#111;
                  font-weight:700; }
      .callout  { stroke:#555; stroke-width:0.25; fill:none; }
    </style>
  </defs>

  <!-- ================================================================
       Attribution caption (top-left) + title
       ================================================================ -->
  <text class="attr"  x="-78" y="-55">Guitar tuner (Thingiverse 6099101 noamtsvi, CC-BY-NC)</text>
  <text class="title" x="-78" y="-50">Clements 47 - guitar tuner, side view (1:1 mm)</text>
  <text class="note"  x="-78" y="-46">Worm-and-wheel direct drive. Parts shown as product silhouettes.</text>

  <!-- ================================================================
       Coordinate frame
         x = 0  : outer face of the north plywood (where the case sits)
         x grows to the right (into the string gap and beyond)
         y grows down (along the string direction, as in clicky_side.svg)
         north plywood : x = 0  .. 6
         string gap    : x = 6  .. 18.7   (12.7 mm)
         south plywood : x = 18.7 .. 24.7 (6 mm)
         case lives on the -x side of x=0.
         worm axis is VERTICAL (y), offset to the -x side of the gear post.
       ================================================================ -->

  <!-- PLYWOOD (background) -->
  <!-- North plywood, with a 16 mm clearance hole (y = -8 .. 8) for the post -->
  <path class="ply"
        d="M 0,-42 L 6,-42 L 6,-8 L 0,-8 Z"/>
  <path class="ply"
        d="M 0, 8 L 6, 8 L 6, 42 L 0, 42 Z"/>
  <text class="lblsm" x="2" y="-34" transform="rotate(-90 2 -34)">plywood (north, 6 mm)</text>

  <!-- South plywood (across the 12.7 mm string gap) -->
  <path class="ply"
        d="M 18.7,-42 L 24.7,-42 L 24.7,42 L 18.7,42 Z"/>
  <text class="lblsm" x="20.7" y="-34" transform="rotate(-90 20.7 -34)">plywood (south, 6 mm)</text>

  <!-- Gap dim hint -->
  <text class="note" x="7" y="40">12.7 mm gap</text>

  <!-- GEAR POST (through plywood, into gap) -->
  <!--
    Post is Ø 15.4 x 42.6 mm long, axis horizontal (runs along +x through
    the north ply and into the gap).  Seen edge-on in this view it reads
    as a horizontal capsule.  Starts inside the case near x = -17, ends
    inside the gap near x = +23.
  -->
  <rect class="tuner" x="-17.4" y="-7.7" width="42.6" height="15.4" rx="1.2" ry="1.2"/>
  <!-- little bevel ring where it meets the plywood (visual only) -->
  <line class="outlthin" x1="0"  y1="-7.7" x2="0"  y2="7.7"/>
  <line class="outlthin" x1="6"  y1="-7.7" x2="6"  y2="7.7"/>
  <line class="cl" x1="-25" y1="0" x2="30" y2="0"/>

  <!-- String wrapping around the post inside the gap.  Small red circle
       tangent to the post on the gap side. -->
  <circle class="strng" cx="12.4" cy="7.7" r="0.55"/>
  <text class="lblsm" x="14.2" y="9.4">string</text>

  <!-- ================================================================
       CASE - rounded rectangle on the outer face of the north plywood.
       Footprint in this view: 39.2 (y, along string) x 19.4 (x, out).
       We centre it so the worm axis (x = -9.7) lies near the middle.
       Case x: -19.4 .. 0.  Case y: -10 .. 29.2.
       ================================================================ -->
  <rect class="tuner" x="-19.4" y="-10" width="19.4" height="39.2" rx="2.8" ry="2.8"/>

  <!-- Cutout hint where the worm enters the case (small arc on the bottom,
       where the knob protrudes).  The worm exits the case on the -y side,
       i.e. at the top.  But the real tuner has the knob hanging out the
       far end of the case (along the worm axis).  We show a small
       rectangular cutout on the -x face where the shaft / cap meet. -->
  <rect x="-19.4" y="-3" width="0.5" height="23.7" fill="#1d3f82" fill-opacity="0.8" stroke="none"/>

  <!-- Small arch on the inner (+x) face where the gear post exits: -->
  <path class="outlthin"
        d="M 0,-8 A 2 2 0 0 1 0,8"/>

  <!-- ================================================================
       CAP - thin retaining plate on the outer (-x) face of the case.
       Footprint: 23.7 (y) x 4.3 (x).  Two small screws.
       ================================================================ -->
  <rect class="cap" x="-23.7" y="-3" width="4.3" height="23.7" rx="0.8" ry="0.8"/>
  <!-- Screws (two) on the cap -->
  <circle class="screw" cx="-21.55" cy="-0.5" r="0.9"/>
  <circle class="screw" cx="-21.55" cy="18.2" r="0.9"/>
  <!-- Tiny Phillips marks on screws -->
  <path class="outlthin" d="M -22.2,-0.5 L -20.9,-0.5 M -21.55,-1.15 L -21.55,0.15"/>
  <path class="outlthin" d="M -22.2,18.2 L -20.9,18.2 M -21.55,17.55 L -21.55,18.85"/>

  <!-- ================================================================
       WORM DRIVER - the teardrop-headed part from guitartuner.png.
       Oriented with the axis vertical (along +y), head at the top,
       threaded shaft below the head.
       We draw the ACTUAL PART OUTSIDE the case (to the south / below the
       case), as a free-standing product-view silhouette, because the
       worm-driver geometry is the highlight of this drawing.  A small
       ghost version also sits inside the case to show where it lives.

       Free-standing silhouette, centred at x = 40 (right of the assembly).
       Teardrop head: ~19 wide x 25 tall.  Neck: short transition, ~6 mm.
       Threaded shaft: ~10 wide x 25 tall, 4-5 thread coils.
       Total length ~47.7 mm.
       ================================================================ -->
  <g transform="translate(55, -30)">
    <!-- Teardrop head.
         Constructed as two cubic curves joining:
           top-centre (0, 0) - the rounded top
           sides (+/- 9.5, 13) - widest point slightly below middle
           bottom-centre (0, 25) - tapers into the neck
    -->
    <path class="tuner"
          d="M 0,0
             C -6,0 -9.6,5 -9.6,13
             C -9.6,20 -6,23 -3.2,24.5
             C -2,25 -1,25.5 0,25.5
             C  1,25.5  2,25  3.2,24.5
             C  6,23  9.6,20  9.6,13
             C  9.6,5  6,0 0,0 Z"/>
    <!-- Phillips cross on face of head (centred at (0, 12)) -->
    <rect class="cross" x="-3.8" y="11.6" width="7.6" height="0.9"/>
    <rect class="cross" x="-0.45" y="8" width="0.9" height="8"/>

    <!-- Small highlight arc on head (visual depth cue) -->
    <path class="outlthin" stroke-opacity="0.45"
          d="M -7.5,6 C -7,3 -4,1 -1,1"/>

    <!-- Neck between head and threaded shaft -->
    <!-- Head ends at y=25.5; shaft starts at y=31.5.  Neck is Ø ~6 mm. -->
    <path class="tuner"
          d="M -3.2,24.5
             C -3.2,27 -3,29 -3,31.5
             L 3,31.5
             C 3,29 3.2,27 3.2,24.5 Z"/>

    <!-- Threaded shaft.
         OD ~10 mm, axis vertical, from y=31.5 to y=47.7 (16 mm visible).
         Rendered as a stack of four thread "donuts" / slanted ovals so
         it looks like a screw thread, matching the photo.
    -->
    <!-- Cylinder backdrop (outline of the shaft as a whole) -->
    <rect class="tuner2" x="-5" y="31.5" width="10" height="16" rx="1.5" ry="1.5"/>

    <!-- Thread coils: 4 slanted ellipses suggesting a single-start thread -->
    <g>
      <ellipse cx="0" cy="33.5" rx="5.0" ry="1.3" class="tuner"
               transform="rotate(-6 0 33.5)"/>
      <ellipse cx="0" cy="37.0" rx="5.0" ry="1.3" class="tuner"
               transform="rotate(-6 0 37.0)"/>
      <ellipse cx="0" cy="40.5" rx="5.0" ry="1.3" class="tuner"
               transform="rotate(-6 0 40.5)"/>
      <ellipse cx="0" cy="44.0" rx="5.0" ry="1.3" class="tuner"
               transform="rotate(-6 0 44.0)"/>
      <ellipse cx="0" cy="47.3" rx="4.6" ry="1.2" class="tuner"
               transform="rotate(-6 0 47.3)"/>
    </g>

    <!-- Slanted hash lines on each coil to give thread texture -->
    <g class="thread">
      <line x1="-4" y1="32.8" x2="4" y2="34.2"/>
      <line x1="-4" y1="36.3" x2="4" y2="37.7"/>
      <line x1="-4" y1="39.8" x2="4" y2="41.2"/>
      <line x1="-4" y1="43.3" x2="4" y2="44.7"/>
    </g>

    <!-- Length callout on the free-standing worm -->
    <line x1="11" y1="0"    x2="14" y2="0"    stroke="#555" stroke-width="0.2"/>
    <line x1="11" y1="47.7" x2="14" y2="47.7" stroke="#555" stroke-width="0.2"/>
    <line x1="13" y1="0"    x2="13" y2="47.7" stroke="#555" stroke-width="0.2"/>
    <text class="lblsm" x="14.5" y="26">47.7 mm</text>
    <text class="lblsm" x="14.5" y="29">(total)</text>

    <!-- Head OD callout -->
    <line x1="-9.6" y1="-3" x2="-9.6" y2="-6" stroke="#555" stroke-width="0.2"/>
    <line x1=" 9.6" y1="-3" x2=" 9.6" y2="-6" stroke="#555" stroke-width="0.2"/>
    <line x1="-9.6" y1="-5" x2=" 9.6" y2="-5" stroke="#555" stroke-width="0.2"/>
    <text class="lblsm" x="-4" y="-6.5">Ø 19</text>

    <!-- Shaft OD callout -->
    <line x1="5"  y1="38" x2="8"  y2="38" stroke="#555" stroke-width="0.2"/>
    <line x1="-5" y1="38" x2="8"  y2="38" stroke="#555" stroke-width="0.2" stroke-opacity="0"/>
    <text class="lblsm" x="7" y="40">Ø 10</text>

    <!-- Caption under the free-standing worm -->
    <text class="lbl" x="-11" y="55">worm driver</text>
    <text class="note" x="-11" y="58">(teardrop head + threaded shaft)</text>
  </g>

  <!-- Ghost worm inside the case (shows the in-situ position) -->
  <!-- Worm axis is at x = -9.7, vertical.  Threaded portion of worm lives
       inside the case, roughly y = -2 .. 29.2 (31.2 mm). -->
  <g opacity="0.55">
    <!-- Threaded body (as a thin vertical capsule with coil hints) -->
    <rect x="-14.7" y="-2" width="10" height="31.2" rx="1.5" ry="1.5"
          class="tuner2"/>
    <g class="thread" stroke-opacity="0.7">
      <line x1="-13.7" y1="0.5" x2="-5.7" y2="1.5"/>
      <line x1="-13.7" y1="4.5" x2="-5.7" y2="5.5"/>
      <line x1="-13.7" y1="8.5" x2="-5.7" y2="9.5"/>
      <line x1="-13.7" y1="12.5" x2="-5.7" y2="13.5"/>
      <line x1="-13.7" y1="16.5" x2="-5.7" y2="17.5"/>
      <line x1="-13.7" y1="20.5" x2="-5.7" y2="21.5"/>
      <line x1="-13.7" y1="24.5" x2="-5.7" y2="25.5"/>
      <line x1="-13.7" y1="28.0" x2="-5.7" y2="28.8"/>
    </g>
  </g>

  <!-- ================================================================
       CALLOUT LINES
       ================================================================ -->
  <g>
    <!-- case -->
    <line class="callout" x1="-6" y1="-6" x2="14" y2="-15"/>
    <text class="lbl" x="14.5" y="-15">case</text>
    <text class="note" x="14.5" y="-12.5">plastic body, 39.2 x 19.4 mm</text>

    <!-- cap -->
    <line class="callout" x1="-22.5" y1="8" x2="-46" y2="0"/>
    <text class="lbl" x="-66" y="0">cap</text>
    <text class="note" x="-66" y="2.5">23.7 x 4.3 retainer, 2 screws</text>

    <!-- gear post -->
    <line class="callout" x1="15" y1="-5" x2="30" y2="-22"/>
    <text class="lbl" x="30.5" y="-22">gear post</text>
    <text class="note" x="30.5" y="-19.5">Ø 15.4 x 42.6 through plywood</text>

    <!-- plywood -->
    <line class="callout" x1="3" y1="35" x2="-20" y2="42"/>
    <text class="lbl" x="-50" y="42">plywood (6 mm + 12.7 gap + 6 mm)</text>

    <!-- worm driver (points at free-standing silhouette) -->
    <line class="callout" x1="-9.7" y1="14" x2="42" y2="-5"/>
    <text class="note" x="42" y="-6">ghost of worm inside case</text>
  </g>

  <!-- ================================================================
       Small spec block (bottom-right, unobtrusive)
       ================================================================ -->
  <g transform="translate(-76, 80)">
    <text class="lbl"  x="0" y="0">Parts (mm)</text>
    <text class="note" x="0" y="3">worm driver : head Ø ~19 x 25, shaft Ø 10 x 25, total 47.7</text>
    <text class="note" x="0" y="5.5">case : 39.2 x 19.4 x 12.6 | cap : 23.7 x 4.3 x 17.4</text>
    <text class="note" x="0" y="8">gear post : Ø 15.4 x 42.6 | plywood : 6 + 12.7 gap + 6</text>
    <text class="note" x="0" y="11">User turns the teardrop head; worm thread engages gear</text>
    <text class="note" x="0" y="13.5">post teeth; post rotation winds/unwinds the string.</text>
    <text class="note" x="0" y="16">Self-locking worm drive (no detent needed).</text>
  </g>

</svg>
