<svg xmlns="http://www.w3.org/2000/svg" width="940" height="540" viewBox="0 0 940 540" font-family="Georgia,serif">
<defs>
<linearGradient id="steel" x1="0" y1="0" x2="1" y2="1"><stop offset="0" stop-color="#e6eaef"/><stop offset=".5" stop-color="#a6abb3"/><stop offset="1" stop-color="#565b63"/></linearGradient>
<linearGradient id="pin" x1="0" y1="0" x2="1" y2="0"><stop offset="0" stop-color="#d2d7dd"/><stop offset=".5" stop-color="#9aa0a8"/><stop offset="1" stop-color="#686d76"/></linearGradient>
<linearGradient id="plate" x1="0" y1="0" x2="1" y2="0"><stop offset="0" stop-color="#7e838b"/><stop offset="1" stop-color="#474b52"/></linearGradient></defs>
<rect width="940" height="540" fill="#13110d"/>
<text x="470" y="34" fill="#eef0f4" font-size="17" text-anchor="middle">sharpening-disc — elliptical 304 SS disc, prong at each tip</text>
<text x="250" y="70" fill="#cdd2da" font-size="13" text-anchor="middle">front — regulation view (z–x)</text>
<path d="M 310.88,293.88 L 310.76,291.05 L 310.52,288.96 L 310.15,287.09 L 309.65,285.36 L 309.02,283.74 L 308.27,282.20 L 307.38,280.74 L 306.36,279.35 L 305.21,278.03 L 303.94,276.77 L 302.54,275.58 L 301.02,274.45 L 299.38,273.38 L 297.61,272.37 L 295.72,271.42 L 293.71,270.53 L 291.58,269.71 L 289.33,268.95 L 286.96,268.25 L 284.47,267.62 L 281.86,267.05 L 279.13,266.55 L 276.26,266.12 L 273.26,265.75 L 270.11,265.45 L 266.79,265.21 L 263.25,265.05 L 259.45,264.95 L 255.20,264.93 L 249.45,265.01 L 243.70,265.14 L 239.45,265.32 L 235.65,265.55 L 232.13,265.85 L 228.82,266.21 L 225.68,266.62 L 222.69,267.10 L 219.84,267.64 L 217.13,268.25 L 214.54,268.91 L 212.08,269.63 L 209.74,270.42 L 207.52,271.26 L 205.42,272.16 L 203.45,273.12 L 201.59,274.13 L 199.86,275.21 L 198.26,276.34 L 196.78,277.53 L 195.42,278.77 L 194.20,280.07 L 193.10,281.44 L 192.14,282.86 L 191.30,284.35 L 190.60,285.92 L 190.03,287.56 L 189.60,289.31 L 189.30,291.19 L 189.14,293.29 L 189.12,296.12 L 189.24,298.95 L 189.48,301.04 L 189.85,302.91 L 190.35,304.64 L 190.98,306.26 L 191.73,307.80 L 192.62,309.26 L 193.64,310.65 L 194.79,311.97 L 196.06,313.23 L 197.46,314.42 L 198.98,315.55 L 200.62,316.62 L 202.39,317.63 L 204.28,318.58 L 206.29,319.47 L 208.42,320.29 L 210.67,321.05 L 213.04,321.75 L 215.53,322.38 L 218.14,322.95 L 220.87,323.45 L 223.74,323.88 L 226.74,324.25 L 229.89,324.55 L 233.21,324.79 L 236.75,324.95 L 240.55,325.05 L 244.80,325.07 L 250.55,324.99 L 256.30,324.86 L 260.55,324.68 L 264.35,324.45 L 267.87,324.15 L 271.18,323.79 L 274.32,323.38 L 277.31,322.90 L 280.16,322.36 L 282.87,321.75 L 285.46,321.09 L 287.92,320.37 L 290.26,319.58 L 292.48,318.74 L 294.58,317.84 L 296.55,316.88 L 298.41,315.87 L 300.14,314.79 L 301.74,313.66 L 303.22,312.47 L 304.58,311.23 L 305.80,309.93 L 306.90,308.56 L 307.86,307.14 L 308.70,305.65 L 309.40,304.08 L 309.97,302.44 L 310.40,300.69 L 310.70,298.81 L 310.86,296.71 Z" fill="none" stroke="#555a61" stroke-width="1" stroke-dasharray="3 3" opacity="0.6"/>
<line x1="250.0" y1="175.0" x2="250.0" y2="415.0" stroke="#6a5a32" stroke-width="3" stroke-dasharray="4 4" opacity="0.45"/>
<path d="M 279.57,348.22 L 282.01,346.79 L 283.75,345.60 L 285.22,344.40 L 286.52,343.15 L 287.65,341.83 L 288.66,340.44 L 289.53,338.97 L 290.27,337.42 L 290.90,335.78 L 291.42,334.07 L 291.82,332.28 L 292.10,330.40 L 292.27,328.44 L 292.33,326.41 L 292.28,324.30 L 292.12,322.10 L 291.85,319.84 L 291.46,317.50 L 290.97,315.08 L 290.36,312.58 L 289.63,310.01 L 288.79,307.36 L 287.83,304.63 L 286.75,301.81 L 285.54,298.88 L 284.18,295.84 L 282.67,292.64 L 280.97,289.23 L 278.99,285.47 L 276.22,280.43 L 273.40,275.42 L 271.25,271.75 L 269.26,268.51 L 267.35,265.54 L 265.48,262.78 L 263.64,260.20 L 261.81,257.79 L 260.00,255.53 L 258.19,253.42 L 256.39,251.44 L 254.60,249.61 L 252.81,247.91 L 251.02,246.35 L 249.24,244.92 L 247.47,243.62 L 245.70,242.46 L 243.94,241.44 L 242.19,240.55 L 240.44,239.80 L 238.71,239.19 L 236.98,238.72 L 235.26,238.40 L 233.55,238.21 L 231.84,238.18 L 230.13,238.29 L 228.41,238.56 L 226.67,239.00 L 224.87,239.62 L 222.94,240.46 L 220.43,241.78 L 217.99,243.21 L 216.25,244.40 L 214.78,245.60 L 213.48,246.85 L 212.35,248.17 L 211.34,249.56 L 210.47,251.03 L 209.73,252.58 L 209.10,254.22 L 208.58,255.93 L 208.18,257.72 L 207.90,259.60 L 207.73,261.56 L 207.67,263.59 L 207.72,265.70 L 207.88,267.90 L 208.15,270.16 L 208.54,272.50 L 209.03,274.92 L 209.64,277.42 L 210.37,279.99 L 211.21,282.64 L 212.17,285.37 L 213.25,288.19 L 214.46,291.12 L 215.82,294.16 L 217.33,297.36 L 219.03,300.77 L 221.01,304.53 L 223.78,309.57 L 226.60,314.58 L 228.75,318.25 L 230.74,321.49 L 232.65,324.46 L 234.52,327.22 L 236.36,329.80 L 238.19,332.21 L 240.00,334.47 L 241.81,336.58 L 243.61,338.56 L 245.40,340.39 L 247.19,342.09 L 248.98,343.65 L 250.76,345.08 L 252.53,346.38 L 254.30,347.54 L 256.06,348.56 L 257.81,349.45 L 259.56,350.20 L 261.29,350.81 L 263.02,351.28 L 264.74,351.60 L 266.45,351.79 L 268.16,351.82 L 269.87,351.71 L 271.59,351.44 L 273.33,351.00 L 275.13,350.38 L 277.06,349.54 Z" fill="url(#steel)" stroke="#eef0f4" stroke-width="1"/>
<circle cx="250.0" cy="295.0" r="1.6" fill="#2a2d31"/>
<polyline points="242.5,175.0 242.5,250.0 235.0,268.0 250.0,295.0 265.0,322.0 257.5,340.0 257.5,415.0" fill="none" stroke="#b8924a" stroke-width="3.2" stroke-linejoin="round" stroke-linecap="round"/>
<circle cx="235.0" cy="268.0" r="18.0" fill="url(#pin)" stroke="#eef0f4" stroke-width="0.8"/>
<circle cx="265.0" cy="322.0" r="18.0" fill="url(#pin)" stroke="#eef0f4" stroke-width="0.8"/>
<text x="213.0" y="271.0" fill="#9ad8b0" font-size="11" text-anchor="end">node</text>
<text x="280.0" y="370.0" fill="#cdd2da" font-size="11">↓ live</text>
<text x="280.0" y="212.5" fill="#7d7762" font-size="11">↑ dead</text>
<line x1="220.43071206464103" y1="241.77528171635387" x2="279.56928793535894" y2="348.22471828364615" stroke="#8a8f98" stroke-width="0.8" stroke-dasharray="2 2"/>
<text x="250.0" y="400.0" fill="#8a8f98" font-size="11" text-anchor="middle">major ≈ 8 (≈prong span)</text>
<text x="250.0" y="421.0" fill="#8a8f98" font-size="11" text-anchor="middle">fork gap ≈ 1.7</text>
<text x="700" y="70" fill="#cdd2da" font-size="13" text-anchor="middle">side — depth section (z–y)</text>
<rect x="447.25" y="175.0" width="95.25" height="240.0" fill="url(#plate)" stroke="#33363b"/>
<rect x="737.5" y="175.0" width="95.25" height="240.0" fill="url(#plate)" stroke="#33363b"/>
<text x="494.5" y="431.0" fill="#aeb3bd" font-size="10" text-anchor="middle">neck plate</text>
<text x="785.5" y="431.0" fill="#aeb3bd" font-size="10" text-anchor="middle">eyelet plate</text>
<line x1="640.0" y1="175.0" x2="640.0" y2="415.0" stroke="#b8924a" stroke-width="3.2" stroke-linecap="round"/>
<path d="M 587.50,295.00 L 587.48,289.76 L 587.40,285.89 L 587.28,282.42 L 587.11,279.20 L 586.88,276.18 L 586.61,273.31 L 586.30,270.58 L 585.93,267.98 L 585.52,265.49 L 585.05,263.12 L 584.55,260.87 L 583.99,258.72 L 583.39,256.68 L 582.74,254.76 L 582.05,252.94 L 581.32,251.23 L 580.53,249.64 L 579.71,248.16 L 578.84,246.79 L 577.92,245.53 L 576.96,244.39 L 575.96,243.37 L 574.90,242.47 L 573.79,241.68 L 572.63,241.02 L 571.40,240.47 L 570.10,240.05 L 568.69,239.74 L 567.12,239.56 L 565.00,239.50 L 562.88,239.56 L 561.31,239.74 L 559.90,240.05 L 558.60,240.47 L 557.37,241.02 L 556.21,241.68 L 555.10,242.47 L 554.04,243.37 L 553.04,244.39 L 552.08,245.53 L 551.16,246.79 L 550.29,248.16 L 549.47,249.64 L 548.68,251.23 L 547.95,252.94 L 547.26,254.76 L 546.61,256.68 L 546.01,258.72 L 545.45,260.87 L 544.95,263.12 L 544.48,265.49 L 544.07,267.98 L 543.70,270.58 L 543.39,273.31 L 543.12,276.18 L 542.89,279.20 L 542.72,282.42 L 542.60,285.89 L 542.52,289.76 L 542.50,295.00 L 542.52,300.24 L 542.60,304.11 L 542.72,307.58 L 542.89,310.80 L 543.12,313.82 L 543.39,316.69 L 543.70,319.42 L 544.07,322.02 L 544.48,324.51 L 544.95,326.88 L 545.45,329.13 L 546.01,331.28 L 546.61,333.32 L 547.26,335.24 L 547.95,337.06 L 548.68,338.77 L 549.47,340.36 L 550.29,341.84 L 551.16,343.21 L 552.08,344.47 L 553.04,345.61 L 554.04,346.63 L 555.10,347.53 L 556.21,348.32 L 557.37,348.98 L 558.60,349.53 L 559.90,349.95 L 561.31,350.26 L 562.88,350.44 L 565.00,350.50 L 567.12,350.44 L 568.69,350.26 L 570.10,349.95 L 571.40,349.53 L 572.63,348.98 L 573.79,348.32 L 574.90,347.53 L 575.96,346.63 L 576.96,345.61 L 577.92,344.47 L 578.84,343.21 L 579.71,341.84 L 580.53,340.36 L 581.32,338.77 L 582.05,337.06 L 582.74,335.24 L 583.39,333.32 L 583.99,331.28 L 584.55,329.13 L 585.05,326.88 L 585.52,324.51 L 585.93,322.02 L 586.30,319.42 L 586.61,316.69 L 586.88,313.82 L 587.11,310.80 L 587.28,307.58 L 587.40,304.11 L 587.48,300.24 Z" fill="url(#steel)" stroke="#eef0f4" stroke-width="1"/>
<rect x="587.5" y="250.0" width="105.0" height="36.0" rx="5" fill="url(#pin)" stroke="#eef0f4" stroke-width="0.8"/>
<rect x="587.5" y="304.0" width="105.0" height="36.0" rx="5" fill="url(#pin)" stroke="#eef0f4" stroke-width="0.8"/>
<line x1="542.5" y1="407.0" x2="737.5" y2="407.0" stroke="#8a8f98" stroke-width="1"/>
<text x="640.0" y="403.0" fill="#8a8f98" font-size="11" text-anchor="middle">gap 13</text>
<line x1="587.5" y1="202.0" x2="692.5" y2="202.0" stroke="#8a8f98" stroke-width="1"/>
<text x="640.0" y="197.0" fill="#8a8f98" font-size="11" text-anchor="middle">prong 7</text>
<text x="40" y="522" fill="#8a8f98" font-size="11">mid register · prong Ø2.4 · disc major≈8 minor≈4 ×3 thick · swept Ø=major≪14 c-c → easy neighbour clearance</text>
</svg>