<svg xmlns="http://www.w3.org/2000/svg" width="940" height="560" viewBox="0 0 940 560" font-family="Georgia,serif">
<defs>
<linearGradient id="bar" x1="0" y1="0" x2="1" y2="0"><stop offset="0" stop-color="#8a8f97"/><stop offset="1" stop-color="#4c5158"/></linearGradient>
<linearGradient id="steel" x1="0" y1="0" x2="1" y2="1"><stop offset="0" stop-color="#e6eaef"/><stop offset=".5" stop-color="#a6abb3"/><stop offset="1" stop-color="#565b63"/></linearGradient>
<radialGradient id="pin" cx=".35" cy=".35" r=".75"><stop offset="0" stop-color="#e2e6ec"/><stop offset=".6" stop-color="#9aa0a8"/><stop offset="1" stop-color="#5e636b"/></radialGradient></defs>
<rect width="940" height="560" fill="#13110d"/>
<text x="470" y="30" fill="#eef0f4" font-size="16" text-anchor="middle">yz mounting by class — each disc on its pedal-side bar, prongs toward y=0</text>
<text x="255" y="64" fill="#9ad8b0" font-size="13" text-anchor="middle">E,F,G,A class → +y bar (e.g. F4)</text>
<rect x="201.0" y="92.0" width="26.7" height="352.8" fill="url(#bar)" stroke="#2d3036"/>
<rect x="282.3" y="92.0" width="26.7" height="352.8" fill="url(#bar)" stroke="#2d3036"/>
<text x="214.3" y="84.0" fill="#aeb3bd" font-size="10" text-anchor="middle">+y bar (mount)</text>
<text x="295.7" y="84.0" fill="#7f858d" font-size="10" text-anchor="middle">−y bar</text>
<line x1="255.0" y1="92.0" x2="255.0" y2="444.8" stroke="#b8924a" stroke-width="5.5" stroke-linecap="round"/>
<text x="262.0" y="440.8" fill="#b8924a" font-size="9">y=0</text>
<rect x="227.7" y="147.3" width="8.4" height="28.9" rx="3" fill="url(#steel)" stroke="#eef0f4" stroke-width="1"/>
<rect x="236.1" y="166.5" width="18.9" height="8.4" rx="4.2" fill="url(#pin)" stroke="#eef0f4" stroke-width="0.7"/>
<rect x="236.1" y="148.6" width="18.9" height="8.4" rx="4.2" fill="url(#pin)" stroke="#eef0f4" stroke-width="0.7"/>
<line x1="231.9" y1="161.7" x2="187.8" y2="161.7" stroke="#cfd4da" stroke-width="12.6" stroke-linecap="round"/>
<circle cx="231.9" cy="161.7" r="2" fill="#2a2d31"/>
<text x="309.6" y="164.7" fill="#c0a0ff" font-size="10">♮ nat</text>
<rect x="227.7" y="308.6" width="8.4" height="28.9" rx="3" fill="url(#steel)" stroke="#eef0f4" stroke-width="1"/>
<rect x="236.1" y="327.7" width="18.9" height="8.4" rx="4.2" fill="url(#pin)" stroke="#eef0f4" stroke-width="0.7"/>
<rect x="236.1" y="309.9" width="18.9" height="8.4" rx="4.2" fill="url(#pin)" stroke="#eef0f4" stroke-width="0.7"/>
<line x1="231.9" y1="323.0" x2="187.8" y2="323.0" stroke="#cfd4da" stroke-width="12.6" stroke-linecap="round"/>
<circle cx="231.9" cy="323.0" r="2" fill="#2a2d31"/>
<text x="309.6" y="326.0" fill="#ff8c5a" font-size="10">♯ sharp</text>
<text x="255" y="464.8" fill="#8a8f98" font-size="10" text-anchor="middle">prongs → y=0 (reach 6.5)</text>
<text x="690" y="64" fill="#e0b86e" font-size="13" text-anchor="middle">D,C,B class → −y bar (e.g. C4)</text>
<rect x="744.0" y="92.0" width="26.7" height="352.8" fill="url(#bar)" stroke="#2d3036"/>
<rect x="662.7" y="92.0" width="26.7" height="352.8" fill="url(#bar)" stroke="#2d3036"/>
<text x="730.7" y="84.0" fill="#aeb3bd" font-size="10" text-anchor="middle">−y bar (mount)</text>
<text x="649.3" y="84.0" fill="#7f858d" font-size="10" text-anchor="middle">+y bar</text>
<line x1="690.0" y1="92.0" x2="690.0" y2="444.8" stroke="#b8924a" stroke-width="5.5" stroke-linecap="round"/>
<text x="697.0" y="440.8" fill="#b8924a" font-size="9">y=0</text>
<rect x="717.3" y="177.1" width="8.4" height="28.9" rx="3" fill="url(#steel)" stroke="#eef0f4" stroke-width="1"/>
<rect x="708.9" y="196.3" width="18.9" height="8.4" rx="4.2" fill="url(#pin)" stroke="#eef0f4" stroke-width="0.7"/>
<rect x="708.9" y="178.4" width="18.9" height="8.4" rx="4.2" fill="url(#pin)" stroke="#eef0f4" stroke-width="0.7"/>
<line x1="713.1" y1="191.5" x2="757.2" y2="191.5" stroke="#cfd4da" stroke-width="12.6" stroke-linecap="round"/>
<circle cx="713.1" cy="191.5" r="2" fill="#2a2d31"/>
<text x="635.4" y="194.5" fill="#c0a0ff" font-size="10">♮ nat</text>
<rect x="717.3" y="366.5" width="8.4" height="28.9" rx="3" fill="url(#steel)" stroke="#eef0f4" stroke-width="1"/>
<rect x="708.9" y="385.7" width="18.9" height="8.4" rx="4.2" fill="url(#pin)" stroke="#eef0f4" stroke-width="0.7"/>
<rect x="708.9" y="367.8" width="18.9" height="8.4" rx="4.2" fill="url(#pin)" stroke="#eef0f4" stroke-width="0.7"/>
<line x1="713.1" y1="381.0" x2="757.2" y2="381.0" stroke="#cfd4da" stroke-width="12.6" stroke-linecap="round"/>
<circle cx="713.1" cy="381.0" r="2" fill="#2a2d31"/>
<text x="635.4" y="384.0" fill="#ff8c5a" font-size="10">♯ sharp</text>
<text x="690" y="464.8" fill="#8a8f98" font-size="10" text-anchor="middle">prongs → y=0 (reach 6.5)</text>
<text x="470" y="544" fill="#8a8f98" font-size="11" text-anchor="middle">both discs of a string share its class bar · opposite-class neighbours sit in different depth planes</text>
</svg>