<svg xmlns="http://www.w3.org/2000/svg" width="940" height="500" viewBox="0 0 940 500" font-family="Georgia,serif">
<defs>
<linearGradient id="steel" x1="0" y1="0" x2="1" y2="1"><stop offset="0" stop-color="#e6eaef"/><stop offset=".5" stop-color="#a6abb3"/><stop offset="1" stop-color="#565b63"/></linearGradient>
<linearGradient id="pin" x1="0" y1="0" x2="1" y2="0"><stop offset="0" stop-color="#d2d7dd"/><stop offset=".5" stop-color="#9aa0a8"/><stop offset="1" stop-color="#686d76"/></linearGradient>
<linearGradient id="plate" x1="0" y1="0" x2="1" y2="0"><stop offset="0" stop-color="#7e838b"/><stop offset="1" stop-color="#474b52"/></linearGradient></defs>
<rect width="940" height="500" fill="#13110d"/>
<text x="470" y="30" fill="#eef0f4" font-size="16" text-anchor="middle">elliptical SS disc · flush tip prongs · engage = rotate</text>
<text x="160" y="64" fill="#9ad8b0" font-size="13" text-anchor="middle">disengaged (horizontal)</text>
<line x1="160.0" y1="160.0" x2="160.0" y2="380.0" stroke="#b8924a" stroke-width="3" stroke-linecap="round"/>
<path d="M 233.00,270.00 L 232.94,267.50 L 232.76,265.64 L 232.47,263.98 L 232.06,262.44 L 231.53,260.98 L 230.89,259.60 L 230.13,258.28 L 229.25,257.01 L 228.26,255.79 L 227.16,254.62 L 225.94,253.49 L 224.61,252.41 L 223.17,251.38 L 221.62,250.39 L 219.95,249.44 L 218.18,248.54 L 216.30,247.68 L 214.32,246.86 L 212.22,246.09 L 210.02,245.36 L 207.72,244.68 L 205.31,244.04 L 202.79,243.45 L 200.17,242.90 L 197.43,242.40 L 194.58,241.95 L 191.62,241.54 L 188.53,241.18 L 185.31,240.87 L 181.94,240.60 L 178.40,240.39 L 174.64,240.22 L 170.60,240.10 L 166.09,240.02 L 160.00,240.00 L 153.91,240.02 L 149.40,240.10 L 145.36,240.22 L 141.60,240.39 L 138.06,240.60 L 134.69,240.87 L 131.47,241.18 L 128.38,241.54 L 125.42,241.95 L 122.57,242.40 L 119.83,242.90 L 117.21,243.45 L 114.69,244.04 L 112.28,244.68 L 109.98,245.36 L 107.78,246.09 L 105.68,246.86 L 103.70,247.68 L 101.82,248.54 L 100.05,249.44 L 98.38,250.39 L 96.83,251.38 L 95.39,252.41 L 94.06,253.49 L 92.84,254.62 L 91.74,255.79 L 90.75,257.01 L 89.87,258.28 L 89.11,259.60 L 88.47,260.98 L 87.94,262.44 L 87.53,263.98 L 87.24,265.64 L 87.06,267.50 L 87.00,270.00 L 87.06,272.50 L 87.24,274.36 L 87.53,276.02 L 87.94,277.56 L 88.47,279.02 L 89.11,280.40 L 89.87,281.72 L 90.75,282.99 L 91.74,284.21 L 92.84,285.38 L 94.06,286.51 L 95.39,287.59 L 96.83,288.62 L 98.38,289.61 L 100.05,290.56 L 101.82,291.46 L 103.70,292.32 L 105.68,293.14 L 107.78,293.91 L 109.98,294.64 L 112.28,295.32 L 114.69,295.96 L 117.21,296.55 L 119.83,297.10 L 122.57,297.60 L 125.42,298.05 L 128.38,298.46 L 131.47,298.82 L 134.69,299.13 L 138.06,299.40 L 141.60,299.61 L 145.36,299.78 L 149.40,299.90 L 153.91,299.98 L 160.00,300.00 L 166.09,299.98 L 170.60,299.90 L 174.64,299.78 L 178.40,299.61 L 181.94,299.40 L 185.31,299.13 L 188.53,298.82 L 191.62,298.46 L 194.58,298.05 L 197.43,297.60 L 200.17,297.10 L 202.79,296.55 L 205.31,295.96 L 207.72,295.32 L 210.02,294.64 L 212.22,293.91 L 214.32,293.14 L 216.30,292.32 L 218.18,291.46 L 219.95,290.56 L 221.62,289.61 L 223.17,288.62 L 224.61,287.59 L 225.94,286.51 L 227.16,285.38 L 228.26,284.21 L 229.25,282.99 L 230.13,281.72 L 230.89,280.40 L 231.53,279.02 L 232.06,277.56 L 232.47,276.02 L 232.76,274.36 L 232.94,272.50 Z" fill="url(#steel)" stroke="#eef0f4" stroke-width="1"/>
<circle cx="160.0" cy="270.0" r="1.4" fill="#2a2d31"/>
<path d="M 233.00,270.00 L 232.99,264.92 L 232.95,262.81 L 232.89,261.21 L 232.81,259.86 L 232.70,258.68 L 232.56,257.62 L 232.41,256.66 L 232.22,255.77 L 232.01,254.95 L 231.78,254.19 L 231.52,253.48 L 231.24,252.81 L 230.93,252.19 L 230.59,251.60 L 230.22,251.05 L 229.83,250.53 L 229.40,250.05 L 228.95,249.60 L 228.47,249.17 L 227.95,248.78 L 227.40,248.41 L 226.81,248.07 L 226.19,247.76 L 225.52,247.48 L 224.81,247.22 L 224.05,246.99 L 223.23,246.78 L 222.34,246.59 L 221.38,246.44 L 220.32,246.30 L 219.14,246.19 L 217.79,246.11 L 216.19,246.05 L 214.08,246.01 L 209.00,246.00 L 203.92,246.01 L 201.81,246.05 L 200.21,246.11 L 198.86,246.19 L 197.68,246.30 L 196.62,246.44 L 195.66,246.59 L 194.77,246.78 L 193.95,246.99 L 193.19,247.22 L 192.48,247.48 L 191.81,247.76 L 191.19,248.07 L 190.60,248.41 L 190.05,248.78 L 189.53,249.17 L 189.05,249.60 L 188.60,250.05 L 188.17,250.53 L 187.78,251.05 L 187.41,251.60 L 187.07,252.19 L 186.76,252.81 L 186.48,253.48 L 186.22,254.19 L 185.99,254.95 L 185.78,255.77 L 185.59,256.66 L 185.44,257.62 L 185.30,258.68 L 185.19,259.86 L 185.11,261.21 L 185.05,262.81 L 185.01,264.92 L 185.00,270.00 L 185.01,275.08 L 185.05,277.19 L 185.11,278.79 L 185.19,280.14 L 185.30,281.32 L 185.44,282.38 L 185.59,283.34 L 185.78,284.23 L 185.99,285.05 L 186.22,285.81 L 186.48,286.52 L 186.76,287.19 L 187.07,287.81 L 187.41,288.40 L 187.78,288.95 L 188.17,289.47 L 188.60,289.95 L 189.05,290.40 L 189.53,290.83 L 190.05,291.22 L 190.60,291.59 L 191.19,291.93 L 191.81,292.24 L 192.48,292.52 L 193.19,292.78 L 193.95,293.01 L 194.77,293.22 L 195.66,293.41 L 196.62,293.56 L 197.68,293.70 L 198.86,293.81 L 200.21,293.89 L 201.81,293.95 L 203.92,293.99 L 209.00,294.00 L 214.08,293.99 L 216.19,293.95 L 217.79,293.89 L 219.14,293.81 L 220.32,293.70 L 221.38,293.56 L 222.34,293.41 L 223.23,293.22 L 224.05,293.01 L 224.81,292.78 L 225.52,292.52 L 226.19,292.24 L 226.81,291.93 L 227.40,291.59 L 227.95,291.22 L 228.47,290.83 L 228.95,290.40 L 229.40,289.95 L 229.83,289.47 L 230.22,288.95 L 230.59,288.40 L 230.93,287.81 L 231.24,287.19 L 231.52,286.52 L 231.78,285.81 L 232.01,285.05 L 232.22,284.23 L 232.41,283.34 L 232.56,282.38 L 232.70,281.32 L 232.81,280.14 L 232.89,278.79 L 232.95,277.19 L 232.99,275.08 Z" fill="url(#pin)" stroke="#eef0f4" stroke-width="0.7" opacity="1.0"/>
<path d="M 135.00,270.00 L 134.99,264.92 L 134.95,262.81 L 134.89,261.21 L 134.81,259.86 L 134.70,258.68 L 134.56,257.62 L 134.41,256.66 L 134.22,255.77 L 134.01,254.95 L 133.78,254.19 L 133.52,253.48 L 133.24,252.81 L 132.93,252.19 L 132.59,251.60 L 132.22,251.05 L 131.83,250.53 L 131.40,250.05 L 130.95,249.60 L 130.47,249.17 L 129.95,248.78 L 129.40,248.41 L 128.81,248.07 L 128.19,247.76 L 127.52,247.48 L 126.81,247.22 L 126.05,246.99 L 125.23,246.78 L 124.34,246.59 L 123.38,246.44 L 122.32,246.30 L 121.14,246.19 L 119.79,246.11 L 118.19,246.05 L 116.08,246.01 L 111.00,246.00 L 105.92,246.01 L 103.81,246.05 L 102.21,246.11 L 100.86,246.19 L 99.68,246.30 L 98.62,246.44 L 97.66,246.59 L 96.77,246.78 L 95.95,246.99 L 95.19,247.22 L 94.48,247.48 L 93.81,247.76 L 93.19,248.07 L 92.60,248.41 L 92.05,248.78 L 91.53,249.17 L 91.05,249.60 L 90.60,250.05 L 90.17,250.53 L 89.78,251.05 L 89.41,251.60 L 89.07,252.19 L 88.76,252.81 L 88.48,253.48 L 88.22,254.19 L 87.99,254.95 L 87.78,255.77 L 87.59,256.66 L 87.44,257.62 L 87.30,258.68 L 87.19,259.86 L 87.11,261.21 L 87.05,262.81 L 87.01,264.92 L 87.00,270.00 L 87.01,275.08 L 87.05,277.19 L 87.11,278.79 L 87.19,280.14 L 87.30,281.32 L 87.44,282.38 L 87.59,283.34 L 87.78,284.23 L 87.99,285.05 L 88.22,285.81 L 88.48,286.52 L 88.76,287.19 L 89.07,287.81 L 89.41,288.40 L 89.78,288.95 L 90.17,289.47 L 90.60,289.95 L 91.05,290.40 L 91.53,290.83 L 92.05,291.22 L 92.60,291.59 L 93.19,291.93 L 93.81,292.24 L 94.48,292.52 L 95.19,292.78 L 95.95,293.01 L 96.77,293.22 L 97.66,293.41 L 98.62,293.56 L 99.68,293.70 L 100.86,293.81 L 102.21,293.89 L 103.81,293.95 L 105.92,293.99 L 111.00,294.00 L 116.08,293.99 L 118.19,293.95 L 119.79,293.89 L 121.14,293.81 L 122.32,293.70 L 123.38,293.56 L 124.34,293.41 L 125.23,293.22 L 126.05,293.01 L 126.81,292.78 L 127.52,292.52 L 128.19,292.24 L 128.81,291.93 L 129.40,291.59 L 129.95,291.22 L 130.47,290.83 L 130.95,290.40 L 131.40,289.95 L 131.83,289.47 L 132.22,288.95 L 132.59,288.40 L 132.93,287.81 L 133.24,287.19 L 133.52,286.52 L 133.78,285.81 L 134.01,285.05 L 134.22,284.23 L 134.41,283.34 L 134.56,282.38 L 134.70,281.32 L 134.81,280.14 L 134.89,278.79 L 134.95,277.19 L 134.99,275.08 Z" fill="url(#pin)" stroke="#eef0f4" stroke-width="0.7" opacity="1.0"/>
<line x1="172.7" y1="270.0" x2="185.0" y2="270.0" stroke="#6ee0a0" stroke-width="1"/>
<text x="160" y="212.0" fill="#6ee0a0" font-size="11" text-anchor="middle">air ≈ 0.6 / side</text>
<text x="160" y="226.0" fill="#8a8f98" font-size="10" text-anchor="middle">string clears, vibrates free</text>
<text x="470" y="64" fill="#e0b86e" font-size="13" text-anchor="middle">engaged (rotated ~60°)</text>
<path d="M 504.27,205.54 L 502.03,204.42 L 500.31,203.71 L 498.71,203.19 L 497.15,202.83 L 495.62,202.61 L 494.10,202.53 L 492.57,202.58 L 491.04,202.75 L 489.50,203.06 L 487.95,203.48 L 486.38,204.03 L 484.81,204.70 L 483.21,205.48 L 481.61,206.39 L 479.99,207.41 L 478.37,208.55 L 476.72,209.81 L 475.07,211.18 L 473.41,212.66 L 471.73,214.26 L 470.05,215.98 L 468.35,217.81 L 466.65,219.75 L 464.93,221.81 L 463.20,223.99 L 461.47,226.30 L 459.72,228.72 L 457.95,231.28 L 456.16,233.98 L 454.34,236.83 L 452.49,239.85 L 450.58,243.09 L 448.57,246.60 L 446.39,250.55 L 443.51,255.92 L 440.67,261.31 L 438.62,265.32 L 436.83,268.95 L 435.22,272.34 L 433.74,275.57 L 432.40,278.67 L 431.16,281.66 L 430.03,284.56 L 429.00,287.36 L 428.06,290.09 L 427.22,292.74 L 426.47,295.32 L 425.81,297.82 L 425.24,300.25 L 424.76,302.60 L 424.37,304.89 L 424.07,307.10 L 423.86,309.23 L 423.74,311.30 L 423.70,313.28 L 423.76,315.20 L 423.90,317.03 L 424.14,318.79 L 424.47,320.47 L 424.89,322.07 L 425.40,323.60 L 426.02,325.05 L 426.72,326.41 L 427.54,327.71 L 428.46,328.93 L 429.49,330.08 L 430.66,331.16 L 431.99,332.20 L 433.55,333.23 L 435.73,334.46 L 437.97,335.58 L 439.69,336.29 L 441.29,336.81 L 442.85,337.17 L 444.38,337.39 L 445.90,337.47 L 447.43,337.42 L 448.96,337.25 L 450.50,336.94 L 452.05,336.52 L 453.62,335.97 L 455.19,335.30 L 456.79,334.52 L 458.39,333.61 L 460.01,332.59 L 461.63,331.45 L 463.28,330.19 L 464.93,328.82 L 466.59,327.34 L 468.27,325.74 L 469.95,324.02 L 471.65,322.19 L 473.35,320.25 L 475.07,318.19 L 476.80,316.01 L 478.53,313.70 L 480.28,311.28 L 482.05,308.72 L 483.84,306.02 L 485.66,303.17 L 487.51,300.15 L 489.42,296.91 L 491.43,293.40 L 493.61,289.45 L 496.49,284.08 L 499.33,278.69 L 501.38,274.68 L 503.17,271.05 L 504.78,267.66 L 506.26,264.43 L 507.60,261.33 L 508.84,258.34 L 509.97,255.44 L 511.00,252.64 L 511.94,249.91 L 512.78,247.26 L 513.53,244.68 L 514.19,242.18 L 514.76,239.75 L 515.24,237.40 L 515.63,235.11 L 515.93,232.90 L 516.14,230.77 L 516.26,228.70 L 516.30,226.72 L 516.24,224.80 L 516.10,222.97 L 515.86,221.21 L 515.53,219.53 L 515.11,217.93 L 514.60,216.40 L 513.98,214.95 L 513.28,213.59 L 512.46,212.29 L 511.54,211.07 L 510.51,209.92 L 509.34,208.84 L 508.01,207.80 L 506.45,206.77 Z" fill="url(#steel)" stroke="#eef0f4" stroke-width="1"/>
<circle cx="470.0" cy="270.0" r="1.4" fill="#2a2d31"/>
<polyline points="462.0,160.0 462.0,218.7 515.0,226.7 470.0,270.0 425.0,313.3 478.0,321.3 478.0,380.0" fill="none" stroke="#b8924a" stroke-width="3" stroke-linejoin="round" stroke-linecap="round"/>
<path d="M 517.00,226.74 L 516.99,221.65 L 516.96,219.55 L 516.90,217.94 L 516.81,216.59 L 516.70,215.41 L 516.57,214.36 L 516.41,213.39 L 516.23,212.51 L 516.02,211.69 L 515.78,210.93 L 515.53,210.21 L 515.24,209.55 L 514.93,208.92 L 514.59,208.34 L 514.23,207.78 L 513.83,207.27 L 513.41,206.78 L 512.96,206.33 L 512.47,205.91 L 511.95,205.51 L 511.40,205.15 L 510.82,204.81 L 510.19,204.50 L 509.53,204.21 L 508.81,203.95 L 508.05,203.72 L 507.23,203.51 L 506.35,203.33 L 505.38,203.17 L 504.33,203.04 L 503.15,202.93 L 501.80,202.84 L 500.19,202.78 L 498.09,202.75 L 493.00,202.74 L 487.92,202.75 L 485.82,202.78 L 484.21,202.84 L 482.86,202.93 L 481.68,203.04 L 480.63,203.17 L 479.66,203.33 L 478.78,203.51 L 477.96,203.72 L 477.20,203.95 L 476.48,204.21 L 475.82,204.50 L 475.19,204.81 L 474.60,205.15 L 474.05,205.51 L 473.54,205.91 L 473.05,206.33 L 472.60,206.78 L 472.18,207.27 L 471.78,207.78 L 471.42,208.34 L 471.08,208.92 L 470.77,209.55 L 470.48,210.21 L 470.22,210.93 L 469.99,211.69 L 469.78,212.51 L 469.60,213.39 L 469.44,214.36 L 469.31,215.41 L 469.20,216.59 L 469.11,217.94 L 469.05,219.55 L 469.02,221.65 L 469.00,226.74 L 469.02,231.82 L 469.05,233.92 L 469.11,235.53 L 469.20,236.88 L 469.31,238.06 L 469.44,239.11 L 469.60,240.08 L 469.78,240.96 L 469.99,241.78 L 470.22,242.54 L 470.48,243.26 L 470.77,243.92 L 471.08,244.55 L 471.42,245.14 L 471.78,245.69 L 472.18,246.20 L 472.60,246.69 L 473.05,247.14 L 473.54,247.56 L 474.05,247.96 L 474.60,248.32 L 475.19,248.66 L 475.82,248.97 L 476.48,249.26 L 477.20,249.52 L 477.96,249.75 L 478.78,249.96 L 479.66,250.14 L 480.63,250.30 L 481.68,250.43 L 482.86,250.54 L 484.21,250.63 L 485.82,250.69 L 487.92,250.72 L 493.00,250.74 L 498.09,250.72 L 500.19,250.69 L 501.80,250.63 L 503.15,250.54 L 504.33,250.43 L 505.38,250.30 L 506.35,250.14 L 507.23,249.96 L 508.05,249.75 L 508.81,249.52 L 509.53,249.26 L 510.19,248.97 L 510.82,248.66 L 511.40,248.32 L 511.95,247.96 L 512.47,247.56 L 512.96,247.14 L 513.41,246.69 L 513.83,246.20 L 514.23,245.69 L 514.59,245.14 L 514.93,244.55 L 515.24,243.92 L 515.53,243.26 L 515.78,242.54 L 516.02,241.78 L 516.23,240.96 L 516.41,240.08 L 516.57,239.11 L 516.70,238.06 L 516.81,236.88 L 516.90,235.53 L 516.96,233.92 L 516.99,231.82 Z" fill="url(#pin)" stroke="#eef0f4" stroke-width="0.7" opacity="1.0"/>
<path d="M 471.00,313.26 L 470.98,308.18 L 470.95,306.08 L 470.89,304.47 L 470.80,303.12 L 470.69,301.94 L 470.56,300.89 L 470.40,299.92 L 470.22,299.04 L 470.01,298.22 L 469.78,297.46 L 469.52,296.74 L 469.23,296.08 L 468.92,295.45 L 468.58,294.86 L 468.22,294.31 L 467.82,293.80 L 467.40,293.31 L 466.95,292.86 L 466.46,292.44 L 465.95,292.04 L 465.40,291.68 L 464.81,291.34 L 464.18,291.03 L 463.52,290.74 L 462.80,290.48 L 462.04,290.25 L 461.22,290.04 L 460.34,289.86 L 459.37,289.70 L 458.32,289.57 L 457.14,289.46 L 455.79,289.37 L 454.18,289.31 L 452.08,289.28 L 447.00,289.26 L 441.91,289.28 L 439.81,289.31 L 438.20,289.37 L 436.85,289.46 L 435.67,289.57 L 434.62,289.70 L 433.65,289.86 L 432.77,290.04 L 431.95,290.25 L 431.19,290.48 L 430.47,290.74 L 429.81,291.03 L 429.18,291.34 L 428.60,291.68 L 428.05,292.04 L 427.53,292.44 L 427.04,292.86 L 426.59,293.31 L 426.17,293.80 L 425.77,294.31 L 425.41,294.86 L 425.07,295.45 L 424.76,296.08 L 424.47,296.74 L 424.22,297.46 L 423.98,298.22 L 423.77,299.04 L 423.59,299.92 L 423.43,300.89 L 423.30,301.94 L 423.19,303.12 L 423.10,304.47 L 423.04,306.08 L 423.01,308.18 L 423.00,313.26 L 423.01,318.35 L 423.04,320.45 L 423.10,322.06 L 423.19,323.41 L 423.30,324.59 L 423.43,325.64 L 423.59,326.61 L 423.77,327.49 L 423.98,328.31 L 424.22,329.07 L 424.47,329.79 L 424.76,330.45 L 425.07,331.08 L 425.41,331.66 L 425.77,332.22 L 426.17,332.73 L 426.59,333.22 L 427.04,333.67 L 427.53,334.09 L 428.05,334.49 L 428.60,334.85 L 429.18,335.19 L 429.81,335.50 L 430.47,335.79 L 431.19,336.05 L 431.95,336.28 L 432.77,336.49 L 433.65,336.67 L 434.62,336.83 L 435.67,336.96 L 436.85,337.07 L 438.20,337.16 L 439.81,337.22 L 441.91,337.25 L 447.00,337.26 L 452.08,337.25 L 454.18,337.22 L 455.79,337.16 L 457.14,337.07 L 458.32,336.96 L 459.37,336.83 L 460.34,336.67 L 461.22,336.49 L 462.04,336.28 L 462.80,336.05 L 463.52,335.79 L 464.18,335.50 L 464.81,335.19 L 465.40,334.85 L 465.95,334.49 L 466.46,334.09 L 466.95,333.67 L 467.40,333.22 L 467.82,332.73 L 468.22,332.22 L 468.58,331.66 L 468.92,331.08 L 469.23,330.45 L 469.52,329.79 L 469.78,329.07 L 470.01,328.31 L 470.22,327.49 L 470.40,326.61 L 470.56,325.64 L 470.69,324.59 L 470.80,323.41 L 470.89,322.06 L 470.95,320.45 L 470.98,318.35 Z" fill="url(#pin)" stroke="#eef0f4" stroke-width="0.7" opacity="1.0"/>
<text x="470" y="212.0" fill="#e0b86e" font-size="11" text-anchor="middle">prongs close → string pinched</text>
<text x="470" y="226.0" fill="#8a8f98" font-size="10" text-anchor="middle">node at upper prong</text>
<text x="800" y="64" fill="#cdd2da" font-size="13" text-anchor="middle">side — depth (13 gap)</text>
<rect x="600.66" y="160.0" width="78.7" height="220.0" fill="url(#plate)" stroke="#33363b"/>
<rect x="840.6" y="160.0" width="78.7" height="220.0" fill="url(#plate)" stroke="#33363b"/>
<line x1="760.0" y1="160.0" x2="760.0" y2="380.0" stroke="#b8924a" stroke-width="3" stroke-linecap="round"/>
<rect x="679.4" y="234.0" width="37.2" height="72.0" rx="6" fill="url(#steel)" stroke="#eef0f4" stroke-width="1"/>
<rect x="716.6" y="206.0" width="86.8" height="48.0" rx="4" fill="url(#pin)" stroke="#eef0f4" stroke-width="0.7"/>
<rect x="716.6" y="286.0" width="86.8" height="48.0" rx="4" fill="url(#pin)" stroke="#eef0f4" stroke-width="0.7"/>
<text x="760.0" y="396.0" fill="#8a8f98" font-size="10" text-anchor="middle">prong 7 → mid-depth</text>
<text x="40" y="486" fill="#8a8f98" font-size="11">mid register · prong Ø2.4 flush at tips · disc major≈7.3 minor≈3 · c-c≈4.9 ≪ neighbour 14</text>
</svg>