<svg xmlns="http://www.w3.org/2000/svg" width="940" height="600" viewBox="0 0 940 600" font-family="Georgia,serif">
<defs>
<linearGradient id="cap" x1="0" y1="0" x2="0" y2="1"><stop offset="0" stop-color="#e6eaef"/><stop offset="1" stop-color="#737983"/></linearGradient>
<radialGradient id="pin" cx=".38" cy=".35" r=".75"><stop offset="0" stop-color="#eef1f5"/><stop offset=".6" stop-color="#9aa0a8"/><stop offset="1" stop-color="#565b63"/></radialGradient></defs>
<rect width="940" height="600" fill="#13110d"/>
<text x="200" y="46" fill="#eef0f4" font-size="15" text-anchor="middle">pedal in flat</text>
<line x1="200" y1="95" x2="200" y2="95" stroke="#5a5440" stroke-width="4"/>
<line x1="200" y1="95" x2="200" y2="520" stroke="#f0c46a" stroke-width="5"/>
<text x="110" y="99" fill="#8a8f98" font-size="10">neck</text>
<text x="110" y="520" fill="#8a8f98" font-size="10">board</text>
<text x="212" y="307.5" fill="#f0c46a" font-size="10" transform="rotate(90 212 307.5)" text-anchor="middle">vibrating length</text>
<text x="470" y="46" fill="#eef0f4" font-size="15" text-anchor="middle">pedal in natural</text>
<line x1="470" y1="95" x2="470" y2="180" stroke="#5a5440" stroke-width="4"/>
<line x1="470" y1="180" x2="470" y2="520" stroke="#f0c46a" stroke-width="5"/>
<text x="380" y="99" fill="#8a8f98" font-size="10">neck</text>
<text x="380" y="520" fill="#8a8f98" font-size="10">board</text>
<text x="482" y="350.0" fill="#f0c46a" font-size="10" transform="rotate(90 482 350.0)" text-anchor="middle">vibrating length</text>
<text x="740" y="46" fill="#eef0f4" font-size="15" text-anchor="middle">pedal in sharp</text>
<line x1="740" y1="95" x2="740" y2="270" stroke="#5a5440" stroke-width="4"/>
<line x1="740" y1="270" x2="740" y2="520" stroke="#f0c46a" stroke-width="5"/>
<text x="650" y="99" fill="#8a8f98" font-size="10">neck</text>
<text x="650" y="520" fill="#8a8f98" font-size="10">board</text>
<text x="752" y="395.0" fill="#f0c46a" font-size="10" transform="rotate(90 752 395.0)" text-anchor="middle">vibrating length</text>
<g transform="rotate(0.0 200 180)">
<rect x="170" y="171" width="60" height="18" rx="9" fill="url(#cap)" stroke="#c0a0ff" stroke-width="2"/>
<circle cx="230" cy="180" r="6.5" fill="url(#pin)" stroke="#eef0f4" stroke-width="0.7"/>
<circle cx="170" cy="180" r="6.5" fill="url(#pin)" stroke="#eef0f4" stroke-width="0.7"/>
<circle cx="200" cy="180" r="3" fill="#23262b" stroke="#cfd4da" stroke-width="0.7"/></g>
<text x="244" y="146" fill="#c0a0ff" font-size="10">natural disc</text>
<g transform="rotate(0.0 200 270)">
<rect x="170" y="261" width="60" height="18" rx="9" fill="url(#cap)" stroke="#ff8c5a" stroke-width="2"/>
<circle cx="230" cy="270" r="6.5" fill="url(#pin)" stroke="#eef0f4" stroke-width="0.7"/>
<circle cx="170" cy="270" r="6.5" fill="url(#pin)" stroke="#eef0f4" stroke-width="0.7"/>
<circle cx="200" cy="270" r="3" fill="#23262b" stroke="#cfd4da" stroke-width="0.7"/></g>
<text x="244" y="236" fill="#ff8c5a" font-size="10">sharp disc</text>
<g transform="rotate(-55.0 470 180)">
<rect x="440" y="171" width="60" height="18" rx="9" fill="url(#cap)" stroke="#c0a0ff" stroke-width="2"/>
<circle cx="500" cy="180" r="6.5" fill="url(#pin)" stroke="#eef0f4" stroke-width="0.7"/>
<circle cx="440" cy="180" r="6.5" fill="url(#pin)" stroke="#eef0f4" stroke-width="0.7"/>
<circle cx="470" cy="180" r="3" fill="#23262b" stroke="#cfd4da" stroke-width="0.7"/></g>
<text x="514" y="146" fill="#c0a0ff" font-size="10">natural disc</text>
<circle cx="470" cy="180" r="3.4" fill="#9ad8b0"/>
<text x="434" y="196" fill="#9ad8b0" font-size="9" text-anchor="end">pitch node</text>
<polyline points="507.5,148.5 503.7,144.5 499.5,140.9 494.9,137.8 490.0,135.3 484.9,133.3 479.5,131.9 474.0,131.2 468.5,131.0 463.0,131.5 457.6,132.6 452.3,134.3 447.3,136.6 442.5,139.4 438.1,142.8 434.1,146.6 430.6,150.9 427.6,155.5" fill="none" stroke="#e0b86e" stroke-width="1.6"/>
<path d="M 423.6,162.4 L 423.7,153.2 L 431.5,157.8 Z" fill="#e0b86e"/>
<text x="470" y="125" fill="#e0b86e" font-size="9" text-anchor="middle">CCW</text>
<g transform="rotate(0.0 470 270)">
<rect x="440" y="261" width="60" height="18" rx="9" fill="url(#cap)" stroke="#ff8c5a" stroke-width="2"/>
<circle cx="500" cy="270" r="6.5" fill="url(#pin)" stroke="#eef0f4" stroke-width="0.7"/>
<circle cx="440" cy="270" r="6.5" fill="url(#pin)" stroke="#eef0f4" stroke-width="0.7"/>
<circle cx="470" cy="270" r="3" fill="#23262b" stroke="#cfd4da" stroke-width="0.7"/></g>
<text x="514" y="236" fill="#ff8c5a" font-size="10">sharp disc</text>
<g transform="rotate(-55.0 740 180)">
<rect x="710" y="171" width="60" height="18" rx="9" fill="url(#cap)" stroke="#c0a0ff" stroke-width="2"/>
<circle cx="770" cy="180" r="6.5" fill="url(#pin)" stroke="#eef0f4" stroke-width="0.7"/>
<circle cx="710" cy="180" r="6.5" fill="url(#pin)" stroke="#eef0f4" stroke-width="0.7"/>
<circle cx="740" cy="180" r="3" fill="#23262b" stroke="#cfd4da" stroke-width="0.7"/></g>
<text x="784" y="146" fill="#c0a0ff" font-size="10">natural disc</text>
<circle cx="740" cy="180" r="3.4" fill="#9ad8b0"/>
<text x="704" y="196" fill="#9ad8b0" font-size="9" text-anchor="end">pitch node</text>
<g transform="rotate(-55.0 740 270)">
<rect x="710" y="261" width="60" height="18" rx="9" fill="url(#cap)" stroke="#ff8c5a" stroke-width="2"/>
<circle cx="770" cy="270" r="6.5" fill="url(#pin)" stroke="#eef0f4" stroke-width="0.7"/>
<circle cx="710" cy="270" r="6.5" fill="url(#pin)" stroke="#eef0f4" stroke-width="0.7"/>
<circle cx="740" cy="270" r="3" fill="#23262b" stroke="#cfd4da" stroke-width="0.7"/></g>
<text x="784" y="236" fill="#ff8c5a" font-size="10">sharp disc</text>
<circle cx="740" cy="270" r="3.4" fill="#9ad8b0"/>
<text x="704" y="286" fill="#9ad8b0" font-size="9" text-anchor="end">pitch node</text>
<polyline points="777.5,238.5 773.7,234.5 769.5,230.9 764.9,227.8 760.0,225.3 754.9,223.3 749.5,221.9 744.0,221.2 738.5,221.0 733.0,221.5 727.6,222.6 722.3,224.3 717.3,226.6 712.5,229.4 708.1,232.8 704.1,236.6 700.6,240.9 697.6,245.5" fill="none" stroke="#e0b86e" stroke-width="1.6"/>
<path d="M 693.6,252.4 L 693.7,243.2 L 701.5,247.8 Z" fill="#e0b86e"/>
<text x="740" y="215" fill="#e0b86e" font-size="9" text-anchor="middle">CCW</text>
<text x="470" y="565" fill="#8a8f98" font-size="11" text-anchor="middle">one string, both discs · flat: free (full length) · natural: upper disc CCW · sharp: + lower disc CCW (natural stays)</text>
<text x="470" y="585" fill="#8a8f98" font-size="11" text-anchor="middle">each engaged disc grips with its lower prong at the pitch node; the bright segment below is what vibrates</text>
</svg>