<svg xmlns="http://www.w3.org/2000/svg" width="940" height="620" viewBox="0 0 940 620" font-family="Georgia,serif">
<defs><linearGradient id="cap" x1="0" y1="0" x2="0" y2="1"><stop offset="0" stop-color="#e6eaef"/><stop offset="1" stop-color="#737983"/></linearGradient>
       <radialGradient id="pin" cx=".38" cy=".35" r=".75"><stop offset="0" stop-color="#eef1f5"/><stop offset=".6" stop-color="#9aa0a8"/><stop offset="1" stop-color="#565b63"/></radialGradient></defs>
<rect width="940" height="620" fill="#13110d"/>
<text x="470.0" y="36" fill="#eef0f4" font-size="15" text-anchor="middle">B3 disc/prong state — to scale (Ø1.27, prong Ø2.1, pc 2.49, disc 7.1×2.7 mm)</text>
<text x="200" y="70" fill="#eef0f4" font-size="14" text-anchor="middle">pedal in flat</text>
<line x1="200" y1="110" x2="200" y2="110" stroke="#5a5440" stroke-width="30.5"/>
<line x1="200" y1="110" x2="200" y2="560" stroke="#f0c46a" stroke-width="30.5"/>
<g transform="rotate(0.0 200 200)"><rect x="115.2" y="167.6" width="169.7" height="64.8" rx="32.4" fill="url(#cap)" stroke="#c0a0ff" stroke-width="2"/><circle cx="259.6" cy="200" r="25.2" fill="url(#pin)" stroke="#eef0f4" stroke-width="0.8"/><circle cx="140.4" cy="200" r="25.2" fill="url(#pin)" stroke="#eef0f4" stroke-width="0.8"/><circle cx="200" cy="200" r="2.4" fill="#23262b" stroke="#cfd4da" stroke-width="0.7"/></g>
<g transform="rotate(0.0 200 330)"><rect x="115.2" y="297.6" width="169.7" height="64.8" rx="32.4" fill="url(#cap)" stroke="#ff8c5a" stroke-width="2"/><circle cx="259.6" cy="330" r="25.2" fill="url(#pin)" stroke="#eef0f4" stroke-width="0.8"/><circle cx="140.4" cy="330" r="25.2" fill="url(#pin)" stroke="#eef0f4" stroke-width="0.8"/><circle cx="200" cy="330" r="2.4" fill="#23262b" stroke="#cfd4da" stroke-width="0.7"/></g>
<text x="470" y="70" fill="#eef0f4" font-size="14" text-anchor="middle">pedal in natural</text>
<line x1="470" y1="110" x2="470" y2="200" stroke="#5a5440" stroke-width="30.5"/>
<line x1="470" y1="200" x2="470" y2="560" stroke="#f0c46a" stroke-width="30.5"/>
<g transform="rotate(-55.0 470 200)"><rect x="385.2" y="167.6" width="169.7" height="64.8" rx="32.4" fill="url(#cap)" stroke="#c0a0ff" stroke-width="2"/><circle cx="529.6" cy="200" r="25.2" fill="url(#pin)" stroke="#eef0f4" stroke-width="0.8"/><circle cx="410.4" cy="200" r="25.2" fill="url(#pin)" stroke="#eef0f4" stroke-width="0.8"/><circle cx="470" cy="200" r="2.4" fill="#23262b" stroke="#cfd4da" stroke-width="0.7"/></g>
<g transform="rotate(0.0 470 330)"><rect x="385.2" y="297.6" width="169.7" height="64.8" rx="32.4" fill="url(#cap)" stroke="#ff8c5a" stroke-width="2"/><circle cx="529.6" cy="330" r="25.2" fill="url(#pin)" stroke="#eef0f4" stroke-width="0.8"/><circle cx="410.4" cy="330" r="25.2" fill="url(#pin)" stroke="#eef0f4" stroke-width="0.8"/><circle cx="470" cy="330" r="2.4" fill="#23262b" stroke="#cfd4da" stroke-width="0.7"/></g>
<circle cx="470" cy="200" r="3" fill="#9ad8b0"/><text x="379" y="204" fill="#9ad8b0" font-size="9" text-anchor="end">node</text>
<text x="740" y="70" fill="#eef0f4" font-size="14" text-anchor="middle">pedal in sharp</text>
<line x1="740" y1="110" x2="740" y2="330" stroke="#5a5440" stroke-width="30.5"/>
<line x1="740" y1="330" x2="740" y2="560" stroke="#f0c46a" stroke-width="30.5"/>
<g transform="rotate(-55.0 740 200)"><rect x="655.2" y="167.6" width="169.7" height="64.8" rx="32.4" fill="url(#cap)" stroke="#c0a0ff" stroke-width="2"/><circle cx="799.6" cy="200" r="25.2" fill="url(#pin)" stroke="#eef0f4" stroke-width="0.8"/><circle cx="680.4" cy="200" r="25.2" fill="url(#pin)" stroke="#eef0f4" stroke-width="0.8"/><circle cx="740" cy="200" r="2.4" fill="#23262b" stroke="#cfd4da" stroke-width="0.7"/></g>
<g transform="rotate(-55.0 740 330)"><rect x="655.2" y="297.6" width="169.7" height="64.8" rx="32.4" fill="url(#cap)" stroke="#ff8c5a" stroke-width="2"/><circle cx="799.6" cy="330" r="25.2" fill="url(#pin)" stroke="#eef0f4" stroke-width="0.8"/><circle cx="680.4" cy="330" r="25.2" fill="url(#pin)" stroke="#eef0f4" stroke-width="0.8"/><circle cx="740" cy="330" r="2.4" fill="#23262b" stroke="#cfd4da" stroke-width="0.7"/></g>
<circle cx="740" cy="330" r="3" fill="#9ad8b0"/><text x="649" y="334" fill="#9ad8b0" font-size="9" text-anchor="end">node</text>
<text x="200" y="107" fill="#c0a0ff" font-size="9" text-anchor="middle">natural disc</text>
<text x="200" y="378" fill="#ff8c5a" font-size="9" text-anchor="middle">sharp disc</text>
<line x1="60" y1="590" x2="180" y2="590" stroke="#aeb3bd" stroke-width="2"/><text x="120.0" y="584" fill="#aeb3bd" font-size="10" text-anchor="middle">5 mm</text>
<text x="600" y="592" fill="#8a8f98" font-size="10">flat: prongs straddle string, 0.8 mm air/side · engage CCW · pins seated flush in the capsule tips</text>
</svg>