<svg xmlns="http://www.w3.org/2000/svg" width="940" height="500" viewBox="0 0 940 500" font-family="Georgia,serif">
<defs>
<linearGradient id="steel" x1="0" y1="0" x2="1" y2="1"><stop offset="0" stop-color="#e6eaef"/><stop offset=".5" stop-color="#a6abb3"/><stop offset="1" stop-color="#565b63"/></linearGradient>
<radialGradient id="pin" cx=".35" cy=".35" r=".75"><stop offset="0" stop-color="#e2e6ec"/><stop offset=".6" stop-color="#9aa0a8"/><stop offset="1" stop-color="#5e636b"/></radialGradient>
<linearGradient id="plate" x1="0" y1="0" x2="1" y2="0"><stop offset="0" stop-color="#7e838b"/><stop offset="1" stop-color="#474b52"/></linearGradient></defs>
<rect width="940" height="500" fill="#13110d"/>
<text x="470" y="30" fill="#eef0f4" font-size="16" text-anchor="middle">capsule disc conforms to round pin prongs · engage = rotate</text>
<text x="160" y="64" fill="#9ad8b0" font-size="13" text-anchor="middle">disengaged (horizontal)</text>
<line x1="160.0" y1="160.0" x2="160.0" y2="380.0" stroke="#b8924a" stroke-width="3" stroke-linecap="round"/>
<path d="M 209.00,294.00 L 210.28,293.97 L 211.55,293.86 L 212.82,293.69 L 214.07,293.46 L 215.31,293.15 L 216.54,292.79 L 217.74,292.35 L 218.92,291.86 L 220.07,291.30 L 221.18,290.68 L 222.27,290.00 L 223.31,289.27 L 224.32,288.48 L 225.28,287.63 L 226.19,286.74 L 227.06,285.80 L 227.88,284.82 L 228.64,283.79 L 229.35,282.73 L 229.99,281.63 L 230.58,280.50 L 231.11,279.33 L 231.58,278.14 L 231.98,276.93 L 232.31,275.70 L 232.58,274.45 L 232.79,273.19 L 232.92,271.91 L 232.99,270.64 L 232.99,269.36 L 232.92,268.09 L 232.79,266.81 L 232.58,265.55 L 232.31,264.30 L 231.98,263.07 L 231.58,261.86 L 231.11,260.67 L 230.58,259.50 L 229.99,258.37 L 229.35,257.27 L 228.64,256.21 L 227.88,255.18 L 227.06,254.20 L 226.19,253.26 L 225.28,252.37 L 224.32,251.52 L 223.31,250.73 L 222.27,250.00 L 221.18,249.32 L 220.07,248.70 L 218.92,248.14 L 217.74,247.65 L 216.54,247.21 L 215.31,246.85 L 214.07,246.54 L 212.82,246.31 L 211.55,246.14 L 210.28,246.03 L 209.00,246.00 L 209.00,246.00 L 207.34,245.52 L 205.68,245.06 L 204.02,244.61 L 202.36,244.18 L 200.69,243.77 L 199.03,243.37 L 197.37,242.99 L 195.71,242.62 L 194.05,242.28 L 192.39,241.95 L 190.73,241.63 L 189.07,241.33 L 187.41,241.05 L 185.75,240.79 L 184.08,240.54 L 182.42,240.31 L 180.76,240.09 L 179.10,239.89 L 177.44,239.71 L 175.78,239.55 L 174.12,239.40 L 172.46,239.27 L 170.80,239.15 L 169.14,239.05 L 167.47,238.97 L 165.81,238.90 L 164.15,238.85 L 162.49,238.82 L 160.83,238.80 L 159.17,238.80 L 157.51,238.82 L 155.85,238.85 L 154.19,238.90 L 152.53,238.97 L 150.86,239.05 L 149.20,239.15 L 147.54,239.27 L 145.88,239.40 L 144.22,239.55 L 142.56,239.71 L 140.90,239.89 L 139.24,240.09 L 137.58,240.31 L 135.92,240.54 L 134.25,240.79 L 132.59,241.05 L 130.93,241.33 L 129.27,241.63 L 127.61,241.95 L 125.95,242.28 L 124.29,242.62 L 122.63,242.99 L 120.97,243.37 L 119.31,243.77 L 117.64,244.18 L 115.98,244.61 L 114.32,245.06 L 112.66,245.52 L 111.00,246.00 L 111.00,246.00 L 109.72,246.03 L 108.45,246.14 L 107.18,246.31 L 105.93,246.54 L 104.69,246.85 L 103.46,247.21 L 102.26,247.65 L 101.08,248.14 L 99.93,248.70 L 98.82,249.32 L 97.73,250.00 L 96.69,250.73 L 95.68,251.52 L 94.72,252.37 L 93.81,253.26 L 92.94,254.20 L 92.12,255.18 L 91.36,256.21 L 90.65,257.27 L 90.01,258.37 L 89.42,259.50 L 88.89,260.67 L 88.42,261.86 L 88.02,263.07 L 87.69,264.30 L 87.42,265.55 L 87.21,266.81 L 87.08,268.09 L 87.01,269.36 L 87.01,270.64 L 87.08,271.91 L 87.21,273.19 L 87.42,274.45 L 87.69,275.70 L 88.02,276.93 L 88.42,278.14 L 88.89,279.33 L 89.42,280.50 L 90.01,281.63 L 90.65,282.73 L 91.36,283.79 L 92.12,284.82 L 92.94,285.80 L 93.81,286.74 L 94.72,287.63 L 95.68,288.48 L 96.69,289.27 L 97.73,290.00 L 98.82,290.68 L 99.93,291.30 L 101.08,291.86 L 102.26,292.35 L 103.46,292.79 L 104.69,293.15 L 105.93,293.46 L 107.18,293.69 L 108.45,293.86 L 109.72,293.97 L 111.00,294.00 L 111.00,294.00 L 112.66,294.48 L 114.32,294.94 L 115.98,295.39 L 117.64,295.82 L 119.31,296.23 L 120.97,296.63 L 122.63,297.01 L 124.29,297.38 L 125.95,297.72 L 127.61,298.05 L 129.27,298.37 L 130.93,298.67 L 132.59,298.95 L 134.25,299.21 L 135.92,299.46 L 137.58,299.69 L 139.24,299.91 L 140.90,300.11 L 142.56,300.29 L 144.22,300.45 L 145.88,300.60 L 147.54,300.73 L 149.20,300.85 L 150.86,300.95 L 152.53,301.03 L 154.19,301.10 L 155.85,301.15 L 157.51,301.18 L 159.17,301.20 L 160.83,301.20 L 162.49,301.18 L 164.15,301.15 L 165.81,301.10 L 167.47,301.03 L 169.14,300.95 L 170.80,300.85 L 172.46,300.73 L 174.12,300.60 L 175.78,300.45 L 177.44,300.29 L 179.10,300.11 L 180.76,299.91 L 182.42,299.69 L 184.08,299.46 L 185.75,299.21 L 187.41,298.95 L 189.07,298.67 L 190.73,298.37 L 192.39,298.05 L 194.05,297.72 L 195.71,297.38 L 197.37,297.01 L 199.03,296.63 L 200.69,296.23 L 202.36,295.82 L 204.02,295.39 L 205.68,294.94 L 207.34,294.48 L 209.00,294.00 Z" fill="url(#steel)" stroke="#eef0f4" stroke-width="1"/>
<circle cx="209.00" cy="270.00" r="24.00" fill="url(#pin)" stroke="#eef0f4" stroke-width="0.7"/>
<circle cx="111.00" cy="270.00" r="24.00" fill="url(#pin)" stroke="#eef0f4" stroke-width="0.7"/>
<circle cx="160.0" cy="270.0" r="1.4" fill="#2a2d31"/>
<text x="160" y="214.0" fill="#6ee0a0" font-size="11" text-anchor="middle">air ≈ 0.6 / side</text>
<text x="160" y="228.0" fill="#8a8f98" font-size="10" text-anchor="middle">string clears, vibrates free</text>
<text x="470" y="64" fill="#e0b86e" font-size="13" text-anchor="middle">engaged (rotated ~60°)</text>
<path d="M 514.19,238.00 L 514.76,236.86 L 515.27,235.69 L 515.72,234.49 L 516.10,233.27 L 516.41,232.03 L 516.66,230.78 L 516.84,229.51 L 516.96,228.24 L 517.00,226.96 L 516.98,225.69 L 516.89,224.41 L 516.73,223.14 L 516.51,221.88 L 516.22,220.64 L 515.86,219.41 L 515.44,218.21 L 514.95,217.03 L 514.40,215.87 L 513.80,214.75 L 513.13,213.66 L 512.40,212.61 L 511.62,211.59 L 510.79,210.62 L 509.91,209.70 L 508.98,208.82 L 508.00,208.00 L 506.98,207.23 L 505.93,206.51 L 504.83,205.85 L 503.70,205.25 L 502.54,204.71 L 501.36,204.24 L 500.15,203.82 L 498.92,203.48 L 497.67,203.19 L 496.41,202.98 L 495.15,202.83 L 493.87,202.75 L 492.59,202.74 L 491.32,202.80 L 490.04,202.92 L 488.78,203.11 L 487.53,203.37 L 486.29,203.69 L 485.08,204.08 L 483.88,204.54 L 482.71,205.05 L 481.57,205.63 L 480.47,206.27 L 479.40,206.97 L 478.36,207.72 L 477.37,208.53 L 476.42,209.38 L 475.52,210.29 L 474.67,211.24 L 473.88,212.24 L 473.13,213.28 L 472.44,214.36 L 471.81,215.47 L 471.81,215.47 L 470.61,216.71 L 469.42,217.96 L 468.25,219.22 L 467.09,220.48 L 465.94,221.75 L 464.81,223.03 L 463.70,224.32 L 462.59,225.62 L 461.51,226.92 L 460.44,228.23 L 459.38,229.55 L 458.34,230.88 L 457.31,232.21 L 456.29,233.55 L 455.30,234.90 L 454.31,236.26 L 453.34,237.63 L 452.39,239.00 L 451.45,240.38 L 450.52,241.77 L 449.61,243.17 L 448.71,244.57 L 447.83,245.98 L 446.96,247.40 L 446.11,248.83 L 445.27,250.27 L 444.45,251.71 L 443.64,253.16 L 442.84,254.62 L 442.06,256.09 L 441.30,257.56 L 440.55,259.04 L 439.81,260.53 L 439.09,262.03 L 438.38,263.54 L 437.69,265.05 L 437.01,266.57 L 436.35,268.10 L 435.70,269.64 L 435.07,271.18 L 434.45,272.73 L 433.85,274.29 L 433.26,275.86 L 432.68,277.43 L 432.12,279.02 L 431.57,280.61 L 431.04,282.21 L 430.53,283.81 L 430.02,285.43 L 429.54,287.05 L 429.06,288.68 L 428.60,290.32 L 428.16,291.96 L 427.73,293.62 L 427.32,295.28 L 426.92,296.94 L 426.53,298.62 L 426.16,300.31 L 425.81,302.00 L 425.81,302.00 L 425.24,303.14 L 424.73,304.31 L 424.28,305.51 L 423.90,306.73 L 423.59,307.97 L 423.34,309.22 L 423.16,310.49 L 423.04,311.76 L 423.00,313.04 L 423.02,314.31 L 423.11,315.59 L 423.27,316.86 L 423.49,318.12 L 423.78,319.36 L 424.14,320.59 L 424.56,321.79 L 425.05,322.97 L 425.60,324.13 L 426.20,325.25 L 426.87,326.34 L 427.60,327.39 L 428.38,328.41 L 429.21,329.38 L 430.09,330.30 L 431.02,331.18 L 432.00,332.00 L 433.02,332.77 L 434.07,333.49 L 435.17,334.15 L 436.30,334.75 L 437.46,335.29 L 438.64,335.76 L 439.85,336.18 L 441.08,336.52 L 442.33,336.81 L 443.59,337.02 L 444.85,337.17 L 446.13,337.25 L 447.41,337.26 L 448.68,337.20 L 449.96,337.08 L 451.22,336.89 L 452.47,336.63 L 453.71,336.31 L 454.92,335.92 L 456.12,335.46 L 457.29,334.95 L 458.43,334.37 L 459.53,333.73 L 460.60,333.03 L 461.64,332.28 L 462.63,331.47 L 463.58,330.62 L 464.48,329.71 L 465.33,328.76 L 466.12,327.76 L 466.87,326.72 L 467.56,325.64 L 468.19,324.53 L 468.19,324.53 L 469.39,323.29 L 470.58,322.04 L 471.75,320.78 L 472.91,319.52 L 474.06,318.25 L 475.19,316.97 L 476.30,315.68 L 477.41,314.38 L 478.49,313.08 L 479.56,311.77 L 480.62,310.45 L 481.66,309.12 L 482.69,307.79 L 483.71,306.45 L 484.70,305.10 L 485.69,303.74 L 486.66,302.37 L 487.61,301.00 L 488.55,299.62 L 489.48,298.23 L 490.39,296.83 L 491.29,295.43 L 492.17,294.02 L 493.04,292.60 L 493.89,291.17 L 494.73,289.73 L 495.55,288.29 L 496.36,286.84 L 497.16,285.38 L 497.94,283.91 L 498.70,282.44 L 499.45,280.96 L 500.19,279.47 L 500.91,277.97 L 501.62,276.46 L 502.31,274.95 L 502.99,273.43 L 503.65,271.90 L 504.30,270.36 L 504.93,268.82 L 505.55,267.27 L 506.15,265.71 L 506.74,264.14 L 507.32,262.57 L 507.88,260.98 L 508.43,259.39 L 508.96,257.79 L 509.47,256.19 L 509.98,254.57 L 510.46,252.95 L 510.94,251.32 L 511.40,249.68 L 511.84,248.04 L 512.27,246.38 L 512.68,244.72 L 513.08,243.06 L 513.47,241.38 L 513.84,239.69 L 514.19,238.00 Z" fill="url(#steel)" stroke="#eef0f4" stroke-width="1"/>
<polyline points="462.0,160.0 462.0,218.7 515.0,226.7 470.0,270.0 425.0,313.3 478.0,321.3 478.0,380.0" fill="none" stroke="#b8924a" stroke-width="3" stroke-linejoin="round" stroke-linecap="round"/>
<circle cx="493.00" cy="226.74" r="24.00" fill="url(#pin)" stroke="#eef0f4" stroke-width="0.7"/>
<circle cx="447.00" cy="313.26" r="24.00" fill="url(#pin)" stroke="#eef0f4" stroke-width="0.7"/>
<circle cx="470.0" cy="270.0" r="1.4" fill="#2a2d31"/>
<text x="470" y="214.0" fill="#e0b86e" font-size="11" text-anchor="middle">prongs close → string pinched</text>
<text x="800" y="64" fill="#cdd2da" font-size="13" text-anchor="middle">side — depth (13 gap)</text>
<rect x="600.66" y="160.0" width="78.7" height="220.0" fill="url(#plate)" stroke="#33363b"/>
<rect x="840.6" y="160.0" width="78.7" height="220.0" fill="url(#plate)" stroke="#33363b"/>
<line x1="760.0" y1="160.0" x2="760.0" y2="380.0" stroke="#b8924a" stroke-width="3" stroke-linecap="round"/>
<rect x="679.4" y="234.0" width="37.2" height="72.0" rx="6" fill="url(#steel)" stroke="#eef0f4" stroke-width="1"/>
<rect x="716.6" y="206.0" width="86.8" height="48.0" rx="14.9" fill="url(#pin)" stroke="#eef0f4" stroke-width="0.7"/>
<rect x="716.6" y="286.0" width="86.8" height="48.0" rx="14.9" fill="url(#pin)" stroke="#eef0f4" stroke-width="0.7"/>
<text x="760.0" y="396.0" fill="#8a8f98" font-size="10" text-anchor="middle">prong 7 → mid-depth</text>
<text x="40" y="486" fill="#8a8f98" font-size="11">round Ø2.4 pins · disc = capsule (round tips r=1.2 conform to pins) · c-c 4.9 ≪ neighbour 14</text>
</svg>