<svg xmlns="http://www.w3.org/2000/svg" width="940" height="560" viewBox="0 0 940 560" font-family="Georgia,serif">
<defs>
<linearGradient id="cap" x1="0" y1="0" x2="0" y2="1"><stop offset="0" stop-color="#e6eaef"/><stop offset="1" stop-color="#737983"/></linearGradient>
<radialGradient id="pin" cx=".38" cy=".35" r=".75"><stop offset="0" stop-color="#eef1f5"/><stop offset=".6" stop-color="#9aa0a8"/><stop offset="1" stop-color="#565b63"/></radialGradient>
</defs>
<rect width="940" height="560" fill="#13110d"/>
<text x="200" y="40" fill="#eef0f4" font-size="14" text-anchor="middle">pedal in flat</text>
<text x="470" y="40" fill="#eef0f4" font-size="14" text-anchor="middle">pedal in natural</text>
<text x="740" y="40" fill="#eef0f4" font-size="14" text-anchor="middle">pedal in sharp</text>
<text x="58" y="180" fill="#c0a0ff" font-size="12" transform="rotate(-90 58 180)" text-anchor="middle">NATURAL disc</text>
<text x="58" y="420" fill="#ff8c5a" font-size="12" transform="rotate(-90 58 420)" text-anchor="middle">SHARP disc</text>
<line x1="200" y1="103" x2="200" y2="237" stroke="#b8924a" stroke-width="5"/>
<g transform="rotate(0.0 200 170)">
<rect x="164" y="159" width="72" height="22" rx="11" fill="url(#cap)" stroke="#c0a0ff" stroke-width="2.2"/>
<circle cx="236" cy="170" r="8.5" fill="url(#pin)" stroke="#eef0f4" stroke-width="0.8"/>
<circle cx="164" cy="170" r="8.5" fill="url(#pin)" stroke="#eef0f4" stroke-width="0.8"/>
<circle cx="200" cy="170" r="3.6" fill="#23262b" stroke="#cfd4da" stroke-width="0.8"/>
</g>
<line x1="200" y1="353" x2="200" y2="487" stroke="#b8924a" stroke-width="5"/>
<g transform="rotate(0.0 200 420)">
<rect x="164" y="409" width="72" height="22" rx="11" fill="url(#cap)" stroke="#ff8c5a" stroke-width="2.2"/>
<circle cx="236" cy="420" r="8.5" fill="url(#pin)" stroke="#eef0f4" stroke-width="0.8"/>
<circle cx="164" cy="420" r="8.5" fill="url(#pin)" stroke="#eef0f4" stroke-width="0.8"/>
<circle cx="200" cy="420" r="3.6" fill="#23262b" stroke="#cfd4da" stroke-width="0.8"/>
</g>
<line x1="470" y1="103" x2="470" y2="237" stroke="#b8924a" stroke-width="5"/>
<g transform="rotate(-55.0 470 170)">
<rect x="434" y="159" width="72" height="22" rx="11" fill="url(#cap)" stroke="#c0a0ff" stroke-width="2.2"/>
<circle cx="506" cy="170" r="8.5" fill="url(#pin)" stroke="#eef0f4" stroke-width="0.8"/>
<circle cx="434" cy="170" r="8.5" fill="url(#pin)" stroke="#eef0f4" stroke-width="0.8"/>
<circle cx="470" cy="170" r="3.6" fill="#23262b" stroke="#cfd4da" stroke-width="0.8"/>
</g>
<circle cx="470" cy="199" r="3.4" fill="#9ad8b0"/>
<text x="434" y="213" fill="#9ad8b0" font-size="9" text-anchor="end">pitch pt</text>
<text x="506" y="137" fill="#cfd4da" font-size="9">grabs above</text>
<polyline points="516.5,133.7 513.2,129.9 509.7,126.3 505.8,123.1 501.7,120.3 497.4,117.7 492.8,115.6 488.1,113.9 483.3,112.5 478.4,111.6 473.4,111.1 468.4,111.0 463.4,111.4 458.4,112.1 453.6,113.3 448.8,114.9 444.2,116.9 439.8,119.3 435.6,122.1 431.7,125.2 428.0,128.6 424.6,132.3 421.6,136.3 418.9,140.5" fill="none" stroke="#e0b86e" stroke-width="1.8"/>
<path d="M 414.4,148.3 L 414.6,138.0 L 423.2,143.0 Z" fill="#e0b86e"/>
<text x="470" y="107" fill="#e0b86e" font-size="10" text-anchor="middle">CCW</text>
<line x1="470" y1="353" x2="470" y2="487" stroke="#b8924a" stroke-width="5"/>
<g transform="rotate(0.0 470 420)">
<rect x="434" y="409" width="72" height="22" rx="11" fill="url(#cap)" stroke="#ff8c5a" stroke-width="2.2"/>
<circle cx="506" cy="420" r="8.5" fill="url(#pin)" stroke="#eef0f4" stroke-width="0.8"/>
<circle cx="434" cy="420" r="8.5" fill="url(#pin)" stroke="#eef0f4" stroke-width="0.8"/>
<circle cx="470" cy="420" r="3.6" fill="#23262b" stroke="#cfd4da" stroke-width="0.8"/>
</g>
<line x1="740" y1="103" x2="740" y2="237" stroke="#b8924a" stroke-width="5"/>
<g transform="rotate(-55.0 740 170)">
<rect x="704" y="159" width="72" height="22" rx="11" fill="url(#cap)" stroke="#c0a0ff" stroke-width="2.2"/>
<circle cx="776" cy="170" r="8.5" fill="url(#pin)" stroke="#eef0f4" stroke-width="0.8"/>
<circle cx="704" cy="170" r="8.5" fill="url(#pin)" stroke="#eef0f4" stroke-width="0.8"/>
<circle cx="740" cy="170" r="3.6" fill="#23262b" stroke="#cfd4da" stroke-width="0.8"/>
</g>
<circle cx="740" cy="199" r="3.4" fill="#9ad8b0"/>
<text x="704" y="213" fill="#9ad8b0" font-size="9" text-anchor="end">pitch pt</text>
<text x="776" y="137" fill="#cfd4da" font-size="9">grabs above</text>
<line x1="740" y1="353" x2="740" y2="487" stroke="#b8924a" stroke-width="5"/>
<g transform="rotate(-55.0 740 420)">
<rect x="704" y="409" width="72" height="22" rx="11" fill="url(#cap)" stroke="#ff8c5a" stroke-width="2.2"/>
<circle cx="776" cy="420" r="8.5" fill="url(#pin)" stroke="#eef0f4" stroke-width="0.8"/>
<circle cx="704" cy="420" r="8.5" fill="url(#pin)" stroke="#eef0f4" stroke-width="0.8"/>
<circle cx="740" cy="420" r="3.6" fill="#23262b" stroke="#cfd4da" stroke-width="0.8"/>
</g>
<circle cx="740" cy="449" r="3.4" fill="#9ad8b0"/>
<text x="704" y="463" fill="#9ad8b0" font-size="9" text-anchor="end">pitch pt</text>
<text x="776" y="387" fill="#cfd4da" font-size="9">grabs above</text>
<polyline points="786.5,383.7 783.2,379.9 779.7,376.3 775.8,373.1 771.7,370.3 767.4,367.7 762.8,365.6 758.1,363.9 753.3,362.5 748.4,361.6 743.4,361.1 738.4,361.0 733.4,361.4 728.4,362.1 723.6,363.3 718.8,364.9 714.2,366.9 709.8,369.3 705.6,372.1 701.7,375.2 698.0,378.6 694.6,382.3 691.6,386.3 688.9,390.5" fill="none" stroke="#e0b86e" stroke-width="1.8"/>
<path d="M 684.4,398.3 L 684.6,388.0 L 693.2,393.0 Z" fill="#e0b86e"/>
<text x="740" y="357" fill="#e0b86e" font-size="10" text-anchor="middle">CCW</text>
<text x="470" y="540" fill="#8a8f98" font-size="11" text-anchor="middle">capsule disc, round prong-pins at the tips · flat=horizontal · engage = rotate CCW · lower prong = pitch node</text>
</svg>