<svg xmlns="http://www.w3.org/2000/svg" width="940" height="560" viewBox="0 0 940 560" font-family="Georgia,serif">
<defs><marker id="ccw" markerWidth="9" markerHeight="9" refX="4" refY="4" orient="auto"><path d="M0,0 L8,4 L0,8 Z" fill="#e0b86e"/></marker></defs>
<rect width="940" height="560" fill="#13110d"/>
<text x="200" y="40" fill="#eef0f4" font-size="14" text-anchor="middle">pedal in flat</text>
<text x="470" y="40" fill="#eef0f4" font-size="14" text-anchor="middle">pedal in natural</text>
<text x="740" y="40" fill="#eef0f4" font-size="14" text-anchor="middle">pedal in sharp</text>
<text x="60" y="180" fill="#c0a0ff" font-size="12" transform="rotate(-90 60 180)" text-anchor="middle">NATURAL disc</text>
<text x="60" y="430" fill="#ff8c5a" font-size="12" transform="rotate(-90 60 430)" text-anchor="middle">SHARP disc</text>
<line x1="200" y1="90" x2="200" y2="250" stroke="#b8924a" stroke-width="5"/>
<circle cx="200" cy="170" r="58" fill="none" stroke="#cfd4da" stroke-width="2"/>
<circle cx="200" cy="170" r="4" fill="#23262b" stroke="#9aa0a8"/>
<circle cx="240" cy="170" r="7" fill="none" stroke="#c0a0ff" stroke-width="3"/>
<circle cx="160" cy="170" r="7" fill="none" stroke="#c0a0ff" stroke-width="3"/>
<line x1="200" y1="340" x2="200" y2="500" stroke="#b8924a" stroke-width="5"/>
<circle cx="200" cy="420" r="58" fill="none" stroke="#cfd4da" stroke-width="2"/>
<circle cx="200" cy="420" r="4" fill="#23262b" stroke="#9aa0a8"/>
<circle cx="240" cy="420" r="7" fill="none" stroke="#ff8c5a" stroke-width="3"/>
<circle cx="160" cy="420" r="7" fill="none" stroke="#ff8c5a" stroke-width="3"/>
<line x1="470" y1="90" x2="470" y2="250" stroke="#b8924a" stroke-width="5"/>
<circle cx="470" cy="170" r="58" fill="none" stroke="#cfd4da" stroke-width="2"/>
<circle cx="470" cy="170" r="4" fill="#23262b" stroke="#9aa0a8"/>
<circle cx="493" cy="137" r="7" fill="none" stroke="#c0a0ff" stroke-width="3"/>
<circle cx="447" cy="203" r="7" fill="none" stroke="#c0a0ff" stroke-width="3"/>
<circle cx="470" cy="203" r="3.2" fill="#9ad8b0"/>
<text x="424" y="219" fill="#9ad8b0" font-size="9" text-anchor="end">pitch pt</text>
<text x="503" y="131" fill="#cfd4da" font-size="9">grabs above</text>
<polyline points="525.2,126.9 521.3,122.4 517.1,118.2 512.5,114.4 507.6,111.0 502.5,108.0 497.1,105.5 491.5,103.4 485.8,101.8 480.0,100.7 474.0,100.1 468.1,100.0 462.2,100.4 456.3,101.4 450.5,102.8 444.9,104.7 439.4,107.0 434.2,109.9 429.2,113.1 424.5,116.8 420.2,120.8 416.2,125.2 412.6,130.0 409.4,135.0" fill="none" stroke="#e0b86e" stroke-width="1.8"/>
<path d="M 404.9,142.8 L 405.0,132.5 L 413.7,137.5 Z" fill="#e0b86e"/>
<text x="470" y="96" fill="#e0b86e" font-size="10" text-anchor="middle">CCW</text>
<line x1="470" y1="340" x2="470" y2="500" stroke="#b8924a" stroke-width="5"/>
<circle cx="470" cy="420" r="58" fill="none" stroke="#cfd4da" stroke-width="2"/>
<circle cx="470" cy="420" r="4" fill="#23262b" stroke="#9aa0a8"/>
<circle cx="510" cy="420" r="7" fill="none" stroke="#ff8c5a" stroke-width="3"/>
<circle cx="430" cy="420" r="7" fill="none" stroke="#ff8c5a" stroke-width="3"/>
<line x1="740" y1="90" x2="740" y2="250" stroke="#b8924a" stroke-width="5"/>
<circle cx="740" cy="170" r="58" fill="none" stroke="#cfd4da" stroke-width="2"/>
<circle cx="740" cy="170" r="4" fill="#23262b" stroke="#9aa0a8"/>
<circle cx="763" cy="137" r="7" fill="none" stroke="#c0a0ff" stroke-width="3"/>
<circle cx="717" cy="203" r="7" fill="none" stroke="#c0a0ff" stroke-width="3"/>
<circle cx="740" cy="203" r="3.2" fill="#9ad8b0"/>
<text x="694" y="219" fill="#9ad8b0" font-size="9" text-anchor="end">pitch pt</text>
<text x="773" y="131" fill="#cfd4da" font-size="9">grabs above</text>
<line x1="740" y1="340" x2="740" y2="500" stroke="#b8924a" stroke-width="5"/>
<circle cx="740" cy="420" r="58" fill="none" stroke="#cfd4da" stroke-width="2"/>
<circle cx="740" cy="420" r="4" fill="#23262b" stroke="#9aa0a8"/>
<circle cx="763" cy="387" r="7" fill="none" stroke="#ff8c5a" stroke-width="3"/>
<circle cx="717" cy="453" r="7" fill="none" stroke="#ff8c5a" stroke-width="3"/>
<circle cx="740" cy="453" r="3.2" fill="#9ad8b0"/>
<text x="694" y="469" fill="#9ad8b0" font-size="9" text-anchor="end">pitch pt</text>
<text x="773" y="381" fill="#cfd4da" font-size="9">grabs above</text>
<polyline points="795.2,376.9 791.3,372.4 787.1,368.2 782.5,364.4 777.6,361.0 772.5,358.0 767.1,355.5 761.5,353.4 755.8,351.8 750.0,350.7 744.0,350.1 738.1,350.0 732.2,350.4 726.3,351.4 720.5,352.8 714.9,354.7 709.4,357.0 704.2,359.9 699.2,363.1 694.5,366.8 690.2,370.8 686.2,375.2 682.6,380.0 679.4,385.0" fill="none" stroke="#e0b86e" stroke-width="1.8"/>
<path d="M 674.9,392.8 L 675.0,382.5 L 683.7,387.5 Z" fill="#e0b86e"/>
<text x="740" y="346" fill="#e0b86e" font-size="10" text-anchor="middle">CCW</text>
<text x="470" y="540" fill="#8a8f98" font-size="11" text-anchor="middle">flat: prongs horizontal, string free · natural: natural disc CCW · sharp: + sharp disc CCW (natural stays)</text>
</svg>