<svg xmlns="http://www.w3.org/2000/svg" width="558" height="922" viewBox="0 0 558 922">
<defs><linearGradient id="st" x1="0" y1="0" x2="0" y2="1"><stop offset="0" stop-color="#c8ccd3"/><stop offset=".5" stop-color="#9094a0"/><stop offset="1" stop-color="#54585f"/></linearGradient></defs>
<rect width="558" height="922" fill="#13110d"/>
<line x1="92.53" y1="85.11" x2="184.84" y2="836.93" stroke="#7d7762" stroke-width="3.35" stroke-linecap="round"/>
<line x1="100.85" y1="92.96" x2="191.24" y2="829.09" stroke="#7d7762" stroke-width="3.10" stroke-linecap="round"/>
<line x1="109.12" y1="100.80" x2="197.58" y2="821.24" stroke="#7d7762" stroke-width="2.90" stroke-linecap="round"/>
<line x1="117.32" y1="108.65" x2="203.85" y2="813.40" stroke="#7d7762" stroke-width="2.54" stroke-linecap="round"/>
<line x1="125.45" y1="116.49" x2="210.06" y2="805.55" stroke="#7d7762" stroke-width="2.44" stroke-linecap="round"/>
<line x1="133.58" y1="124.34" x2="216.26" y2="797.71" stroke="#7d7762" stroke-width="2.44" stroke-linecap="round"/>
<line x1="141.66" y1="132.18" x2="222.41" y2="789.86" stroke="#7d7762" stroke-width="2.03" stroke-linecap="round"/>
<line x1="149.68" y1="140.03" x2="228.51" y2="782.02" stroke="#7d7762" stroke-width="2.03" stroke-linecap="round"/>
<line x1="157.68" y1="147.87" x2="234.58" y2="774.17" stroke="#7d7762" stroke-width="1.83" stroke-linecap="round"/>
<line x1="166.09" y1="155.72" x2="241.06" y2="766.33" stroke="#7d7762" stroke-width="5.28" stroke-linecap="round"/>
<line x1="174.89" y1="163.56" x2="247.94" y2="758.48" stroke="#7d7762" stroke-width="4.98" stroke-linecap="round"/>
<line x1="183.62" y1="171.41" x2="254.74" y2="750.64" stroke="#7d7762" stroke-width="4.67" stroke-linecap="round"/>
<line x1="192.27" y1="179.25" x2="261.46" y2="742.79" stroke="#7d7762" stroke-width="4.37" stroke-linecap="round"/>
<line x1="200.85" y1="187.10" x2="268.12" y2="734.95" stroke="#7d7762" stroke-width="4.11" stroke-linecap="round"/>
<line x1="209.40" y1="194.94" x2="274.74" y2="727.10" stroke="#7d7762" stroke-width="4.11" stroke-linecap="round"/>
<line x1="217.91" y1="202.79" x2="281.33" y2="719.26" stroke="#7d7762" stroke-width="3.86" stroke-linecap="round"/>
<line x1="226.33" y1="210.63" x2="287.82" y2="711.41" stroke="#7d7762" stroke-width="3.35" stroke-linecap="round"/>
<line x1="234.69" y1="218.48" x2="294.25" y2="703.57" stroke="#7d7762" stroke-width="3.35" stroke-linecap="round"/>
<line x1="243.01" y1="226.32" x2="300.65" y2="695.72" stroke="#7d7762" stroke-width="3.10" stroke-linecap="round"/>
<line x1="251.31" y1="234.17" x2="307.01" y2="687.88" stroke="#7d7762" stroke-width="3.10" stroke-linecap="round"/>
<line x1="259.53" y1="242.01" x2="313.31" y2="680.03" stroke="#7d7762" stroke-width="2.54" stroke-linecap="round"/>
<line x1="267.68" y1="249.86" x2="319.54" y2="672.19" stroke="#7d7762" stroke-width="2.54" stroke-linecap="round"/>
<line x1="275.83" y1="257.70" x2="325.76" y2="664.34" stroke="#7d7762" stroke-width="2.54" stroke-linecap="round"/>
<line x1="283.95" y1="265.55" x2="331.95" y2="656.50" stroke="#7d7762" stroke-width="2.29" stroke-linecap="round"/>
<line x1="292.04" y1="273.39" x2="338.12" y2="648.65" stroke="#7d7762" stroke-width="2.29" stroke-linecap="round"/>
<line x1="300.13" y1="281.24" x2="344.28" y2="640.81" stroke="#7d7762" stroke-width="2.29" stroke-linecap="round"/>
<line x1="308.18" y1="289.08" x2="350.41" y2="632.96" stroke="#7d7762" stroke-width="2.03" stroke-linecap="round"/>
<line x1="316.21" y1="296.93" x2="356.50" y2="625.12" stroke="#7d7762" stroke-width="2.03" stroke-linecap="round"/>
<line x1="324.23" y1="304.77" x2="362.60" y2="617.27" stroke="#7d7762" stroke-width="2.03" stroke-linecap="round"/>
<line x1="332.23" y1="312.62" x2="368.67" y2="609.43" stroke="#7d7762" stroke-width="1.83" stroke-linecap="round"/>
<line x1="340.20" y1="320.46" x2="374.72" y2="601.58" stroke="#7d7762" stroke-width="1.83" stroke-linecap="round"/>
<line x1="348.17" y1="328.31" x2="380.77" y2="593.74" stroke="#7d7762" stroke-width="1.83" stroke-linecap="round"/>
<line x1="356.12" y1="336.15" x2="386.79" y2="585.89" stroke="#7d7762" stroke-width="1.63" stroke-linecap="round"/>
<line x1="364.04" y1="344.00" x2="392.78" y2="578.05" stroke="#7d7762" stroke-width="1.63" stroke-linecap="round"/>
<line x1="371.96" y1="351.84" x2="398.78" y2="570.20" stroke="#7d7762" stroke-width="1.63" stroke-linecap="round"/>
<line x1="379.89" y1="359.69" x2="404.77" y2="562.36" stroke="#7d7762" stroke-width="1.63" stroke-linecap="round"/>
<line x1="387.80" y1="367.53" x2="410.75" y2="554.51" stroke="#7d7762" stroke-width="1.52" stroke-linecap="round"/>
<line x1="395.69" y1="375.38" x2="416.72" y2="546.67" stroke="#7d7762" stroke-width="1.52" stroke-linecap="round"/>
<line x1="403.59" y1="383.22" x2="422.69" y2="538.82" stroke="#7d7762" stroke-width="1.52" stroke-linecap="round"/>
<line x1="411.47" y1="391.07" x2="428.65" y2="530.98" stroke="#7d7762" stroke-width="1.42" stroke-linecap="round"/>
<line x1="419.34" y1="398.91" x2="434.59" y2="523.13" stroke="#7d7762" stroke-width="1.42" stroke-linecap="round"/>
<line x1="427.20" y1="406.76" x2="440.52" y2="515.29" stroke="#7d7762" stroke-width="1.32" stroke-linecap="round"/>
<line x1="435.04" y1="414.60" x2="446.44" y2="507.44" stroke="#7d7762" stroke-width="1.27" stroke-linecap="round"/>
<line x1="442.87" y1="422.45" x2="452.34" y2="499.60" stroke="#7d7762" stroke-width="1.27" stroke-linecap="round"/>
<line x1="450.70" y1="430.29" x2="458.25" y2="491.75" stroke="#7d7762" stroke-width="1.27" stroke-linecap="round"/>
<line x1="458.53" y1="438.14" x2="464.15" y2="483.91" stroke="#7d7762" stroke-width="1.27" stroke-linecap="round"/>
<line x1="466.36" y1="445.98" x2="470.06" y2="476.06" stroke="#7d7762" stroke-width="1.27" stroke-linecap="round"/>
<path d="M 92.02,80.97 93.23,81.83 94.43,82.69 95.64,83.56 96.85,84.44 98.06,85.31 99.27,86.19 100.48,87.08 101.70,87.97 102.91,88.86 104.12,89.76 105.33,90.66 106.55,91.57 107.76,92.48 108.97,93.39 110.19,94.31 111.40,95.23 112.62,96.15 113.83,97.08 115.05,98.01 116.27,98.95 117.49,99.89 118.70,100.83 119.92,101.77 121.14,102.72 122.36,103.68 123.58,104.63 124.80,105.59 126.02,106.55 127.24,107.52 128.46,108.49 129.68,109.46 130.90,110.44 132.13,111.41 133.35,112.40 134.57,113.38 135.80,114.37 137.02,115.36 138.24,116.35 139.47,117.35 140.69,118.35 141.92,119.35 143.14,120.35 144.37,121.36 145.59,122.37 146.82,123.39 148.05,124.40 149.28,125.42 150.50,126.44 151.73,127.47 152.96,128.49 154.19,129.52 155.42,130.56 156.65,131.59 157.87,132.63 159.10,133.67 160.33,134.71 161.57,135.75 162.80,136.80 164.03,137.85 165.26,138.90 166.49,139.96 167.72,141.01 168.95,142.07 170.19,143.13 171.42,144.20 172.65,145.26 173.88,146.33 175.12,147.40 176.35,148.47 177.59,149.55 178.82,150.62 180.05,151.70 181.29,152.78 182.52,153.87 183.76,154.95 185.00,156.04 186.23,157.13 187.47,158.22 188.70,159.31 189.94,160.41 191.18,161.51 192.41,162.61 193.65,163.71 194.89,164.81 196.13,165.92 197.37,167.02 198.60,168.13 199.84,169.24 201.08,170.35 202.32,171.47 203.56,172.59 204.80,173.70 206.04,174.82 207.28,175.95 208.52,177.07 209.76,178.19 211.00,179.32 212.24,180.45 213.48,181.58 214.72,182.71 215.96,183.85 217.20,184.98 218.45,186.12 219.69,187.26 220.93,188.40 222.17,189.54 223.41,190.69 224.66,191.83 225.90,192.98 227.14,194.13 228.39,195.28 229.63,196.43 230.87,197.59 232.12,198.74 233.36,199.90 234.61,201.06 235.85,202.22 237.10,203.38 238.34,204.54 239.59,205.71 240.83,206.88 242.08,208.04 243.32,209.21 244.57,210.38 245.82,211.56 247.06,212.73 248.31,213.91 249.55,215.08 250.80,216.26 252.05,217.44 253.30,218.63 254.54,219.81 255.79,220.99 257.04,222.18 258.29,223.37 259.53,224.56 260.78,225.75 262.03,226.94 263.28,228.14 264.53,229.33 265.78,230.53 267.03,231.73 268.28,232.93 269.53,234.13 270.78,235.33 272.03,236.53 273.28,237.74 274.53,238.95 275.78,240.16 277.03,241.37 278.28,242.58 279.53,243.79 280.78,245.01 282.03,246.22 283.28,247.44 284.54,248.66 285.79,249.88 287.04,251.10 288.29,252.33 289.54,253.55 290.80,254.78 292.05,256.01 293.30,257.24 294.56,258.47 295.81,259.70 297.06,260.93 298.32,262.17 299.57,263.41 300.83,264.65 302.08,265.89 303.33,267.13 304.59,268.37 305.84,269.62 307.10,270.86 308.36,272.11 309.61,273.36 310.87,274.61 312.12,275.87 313.38,277.12 314.63,278.38 315.89,279.63 317.15,280.89 318.40,282.15 319.66,283.42 320.92,284.68 322.18,285.95 323.43,287.21 324.69,288.48 325.95,289.75 327.21,291.02 328.47,292.30 329.73,293.57 330.98,294.85 332.24,296.13 333.50,297.41 334.76,298.69 336.02,299.98 337.28,301.26 338.54,302.55 339.80,303.84 341.06,305.13 342.32,306.42 343.59,307.72 344.85,309.01 346.11,310.31 347.37,311.61 348.63,312.91 349.89,314.22 351.16,315.52 352.42,316.83 353.68,318.14 354.94,319.45 356.21,320.76 357.47,322.07 358.74,323.39 360.00,324.71 361.26,326.03 362.53,327.35 363.79,328.67 365.06,330.00 366.32,331.33 367.59,332.66 368.85,333.99 370.12,335.32 371.39,336.66 372.65,338.00 373.92,339.34 375.19,340.68 376.45,342.02 377.72,343.37 378.99,344.71 380.25,346.06 381.52,347.41 382.79,348.77 384.06,350.12 385.33,351.48 386.60,352.84 387.87,354.20 389.14,355.57 390.41,356.94 391.68,358.30 392.95,359.68 394.22,361.05 395.49,362.42 396.76,363.80 398.03,365.18 399.30,366.56 400.58,367.95 401.85,369.33 403.12,370.72 404.39,372.11 405.67,373.51 406.94,374.90 408.21,376.30 409.49,377.70 410.76,379.10 412.04,380.51 413.31,381.92 414.59,383.33 415.86,384.74 417.14,386.15 418.41,387.57 419.69,388.99 420.97,390.41 422.24,391.84 423.52,393.26 424.80,394.69 426.08,396.12 427.36,397.56 428.63,399.00 429.91,400.44 431.19,401.88 432.47,403.32 433.75,404.77 435.03,406.22 436.31,407.67 437.59,409.13 438.87,410.59 440.15,412.05 441.44,413.51 442.72,414.98 444.00,416.44 445.28,417.92 446.57,419.39 447.85,420.87 449.13,422.35 450.42,423.83 451.70,425.31 452.99,426.80 454.27,428.29 455.56,429.79 456.84,431.28 458.13,432.78 459.42,434.28 460.70,435.79 461.99,437.30 463.28,438.81 464.57,440.32 465.85,441.84 465.85,441.84 466.39,442.46 466.91,443.08 467.42,443.68 467.91,444.26 468.40,444.84 468.87,445.40 469.33,445.95 469.78,446.49 470.22,447.02 470.64,447.54 471.06,448.04 471.46,448.54 471.85,449.03 472.23,449.50 472.60,449.97 472.96,450.43 473.30,450.88 473.63,451.32 473.96,451.75 474.27,452.18 474.57,452.60 474.86,453.01 475.13,453.41 475.40,453.81 475.65,454.20 475.90,454.59 476.13,454.97 476.35,455.34 476.56,455.71 476.76,456.08 476.95,456.44 477.13,456.79 477.30,457.15 477.46,457.49 477.60,457.84 477.74,458.18 477.86,458.52 477.98,458.86 478.08,459.20 478.17,459.53 478.25,459.86 478.33,460.19 478.39,460.53 478.44,460.86 478.48,461.19 478.51,461.52 478.53,461.85 478.54,462.18 478.54,462.51 478.53,462.85 478.51,463.18 478.48,463.52 478.43,463.86 478.38,464.20 478.32,464.55 478.25,464.90 478.17,465.25 478.08,465.60 477.98,465.96 477.87,466.33 477.75,466.70 477.62,467.07 477.48,467.45 477.33,467.84 477.17,468.23 477.00,468.63 476.82,469.03 476.64,469.44 476.44,469.86 476.23,470.29 476.02,470.72 475.79,471.16 475.56,471.61 475.31,472.07 475.06,472.54 474.80,473.02 474.53,473.50 474.24,474.00 473.96,474.51 473.66,475.02 473.35,475.55 473.03,476.09 472.71,476.64 472.37,477.20 472.03,477.78 471.68,478.37 471.31,478.97 470.94,479.58 470.57,480.20 470.57,480.20 469.65,481.72 468.73,483.23 467.82,484.75 466.90,486.25 465.98,487.76 465.07,489.26 464.15,490.76 463.23,492.26 462.31,493.75 461.39,495.24 460.47,496.73 459.55,498.21 458.63,499.70 457.71,501.18 456.79,502.65 455.87,504.13 454.95,505.60 454.03,507.07 453.10,508.53 452.18,510.00 451.26,511.46 450.34,512.91 449.41,514.37 448.49,515.82 447.56,517.27 446.64,518.72 445.72,520.16 444.79,521.61 443.87,523.05 442.94,524.48 442.01,525.92 441.09,527.35 440.16,528.78 439.23,530.21 438.31,531.63 437.38,533.05 436.45,534.47 435.52,535.89 434.59,537.30 433.67,538.72 432.74,540.13 431.81,541.53 430.88,542.94 429.95,544.34 429.02,545.74 428.09,547.14 427.16,548.53 426.23,549.93 425.29,551.32 424.36,552.71 423.43,554.09 422.50,555.48 421.57,556.86 420.63,558.24 419.70,559.62 418.77,560.99 417.83,562.37 416.90,563.74 415.97,565.11 415.03,566.47 414.10,567.84 413.16,569.20 412.23,570.56 411.29,571.92 410.36,573.27 409.42,574.63 408.48,575.98 407.55,577.33 406.61,578.68 405.67,580.02 404.74,581.36 403.80,582.71 402.86,584.05 401.92,585.38 400.99,586.72 400.05,588.05 399.11,589.38 398.17,590.71 397.23,592.04 396.29,593.37 395.35,594.69 394.41,596.01 393.47,597.33 392.53,598.65 391.59,599.97 390.65,601.28 389.71,602.59 388.77,603.90 387.83,605.21 386.89,606.52 385.94,607.83 385.00,609.13 384.06,610.43 383.12,611.73 382.18,613.03 381.23,614.32 380.29,615.62 379.35,616.91 378.40,618.20 377.46,619.49 376.51,620.78 375.57,622.06 374.63,623.35 373.68,624.63 372.74,625.91 371.79,627.19 370.85,628.47 369.90,629.74 368.95,631.02 368.01,632.29 367.06,633.56 366.12,634.83 365.17,636.10 364.22,637.36 363.28,638.63 362.33,639.89 361.38,641.15 360.43,642.41 359.49,643.67 358.54,644.92 357.59,646.18 356.64,647.43 355.69,648.68 354.75,649.93 353.80,651.18 352.85,652.42 351.90,653.67 350.95,654.91 350.00,656.16 349.05,657.40 348.10,658.63 347.15,659.87 346.20,661.11 345.25,662.34 344.30,663.57 343.35,664.81 342.40,666.04 341.44,667.26 340.49,668.49 339.54,669.72 338.59,670.94 337.64,672.16 336.69,673.38 335.73,674.60 334.78,675.82 333.83,677.04 332.87,678.25 331.92,679.46 330.97,680.68 330.01,681.89 329.06,683.09 328.11,684.30 327.15,685.51 326.20,686.71 325.24,687.91 324.29,689.12 323.33,690.32 322.38,691.51 321.42,692.71 320.47,693.91 319.51,695.10 318.56,696.29 317.60,697.48 316.65,698.67 315.69,699.86 314.73,701.05 313.78,702.23 312.82,703.42 311.86,704.60 310.91,705.78 309.95,706.96 308.99,708.13 308.03,709.31 307.08,710.48 306.12,711.66 305.16,712.83 304.20,714.00 303.24,715.17 302.28,716.33 301.32,717.50 300.36,718.66 299.41,719.82 298.45,720.98 297.49,722.14 296.53,723.30 295.57,724.45 294.61,725.61 293.64,726.76 292.68,727.91 291.72,729.06 290.76,730.21 289.80,731.35 288.84,732.50 287.88,733.64 286.91,734.78 285.95,735.92 284.99,737.06 284.03,738.19 283.06,739.33 282.10,740.46 281.14,741.59 280.17,742.72 279.21,743.85 278.25,744.97 277.28,746.10 276.32,747.22 275.35,748.34 274.39,749.46 273.42,750.57 272.46,751.69 271.49,752.80 270.53,753.91 269.56,755.02 268.60,756.13 267.63,757.23 266.66,758.33 265.70,759.44 264.73,760.53 263.76,761.63 262.79,762.73 261.83,763.82 260.86,764.91 259.89,766.00 258.92,767.09 257.95,768.17 256.98,769.26 256.01,770.34 255.04,771.42 254.07,772.49 253.10,773.57 252.13,774.64 251.16,775.71 250.19,776.78 249.22,777.84 248.25,778.91 247.28,779.97 246.31,781.03 245.33,782.08 244.36,783.14 243.39,784.19 242.41,785.24 241.44,786.29 240.47,787.33 239.49,788.37 238.52,789.41 237.54,790.45 236.57,791.49 235.59,792.52 234.62,793.55 233.64,794.57 232.66,795.60 231.69,796.62 230.71,797.64 229.73,798.66 228.76,799.67 227.78,800.68 226.80,801.69 225.82,802.69 224.84,803.69 223.86,804.69 222.88,805.69 221.90,806.68 220.92,807.67 219.94,808.66 218.96,809.65 217.98,810.63 217.00,811.61 216.01,812.58 215.03,813.55 214.05,814.52 213.07,815.49 212.08,816.45 211.10,817.41 210.11,818.37 209.13,819.32 208.14,820.27 207.16,821.21 206.17,822.15 205.18,823.09 204.19,824.03 203.21,824.96 202.22,825.89 201.23,826.81 200.24,827.73 199.25,828.65 198.26,829.56 197.27,830.47 196.28,831.38 195.29,832.28 194.30,833.18 193.30,834.07 192.31,834.96 191.32,835.85 190.32,836.73 189.33,837.61 188.34,838.48 187.34,839.35 186.34,840.21 185.35,841.07 185.35,841.07 184.03,841.88 182.66,842.04 181.25,841.58 179.80,840.52 178.31,838.86 176.78,836.62 175.21,833.82 173.60,830.48 171.97,826.59 170.30,822.19 168.60,817.28 166.87,811.88 165.12,806.00 163.34,799.67 161.54,792.88 159.72,785.67 157.88,778.04 156.03,770.00 154.16,761.58 152.27,752.78 150.37,743.63 148.46,734.13 146.55,724.30 144.63,714.15 142.70,703.71 140.77,692.98 138.84,681.98 136.91,670.72 134.98,659.22 133.06,647.50 131.14,635.56 129.23,623.42 127.33,611.10 125.44,598.62 123.57,585.98 121.71,573.20 119.87,560.29 118.04,547.28 116.24,534.17 114.46,520.98 112.70,507.72 110.97,494.42 109.27,481.07 107.60,467.71 105.96,454.33 104.35,440.97 102.77,427.62 101.24,414.32 99.74,401.06 98.28,387.87 96.86,374.76 95.49,361.75 94.16,348.84 92.88,336.06 91.65,323.42 90.48,310.94 89.35,298.62 88.28,286.48 87.26,274.54 86.31,262.82 85.41,251.32 84.58,240.06 83.81,229.06 83.10,218.33 82.46,207.89 81.90,197.74 81.40,187.92 80.97,178.42 80.62,169.26 80.35,160.46 80.15,152.04 80.03,144.00 80.00,136.37 80.05,129.16 80.18,122.37 80.40,116.04 80.71,110.16 81.11,104.76 81.61,99.85 82.19,95.45 82.88,91.57 83.66,88.22 84.54,85.42 85.52,83.18 86.61,81.52 87.80,80.46 89.10,80.00 90.50,80.17 92.02,80.97 Z M 93.04,89.26 94.34,90.89 95.64,92.51 96.94,94.12 98.24,95.72 99.54,97.31 100.83,98.89 102.13,100.46 103.42,102.02 104.71,103.57 106.00,105.11 107.29,106.64 108.58,108.16 109.87,109.68 111.16,111.18 112.44,112.68 113.73,114.17 115.01,115.65 116.30,117.12 117.58,118.58 118.86,120.04 120.14,121.49 121.42,122.93 122.69,124.36 123.97,125.79 125.25,127.20 126.52,128.62 127.80,130.02 129.07,131.42 130.35,132.81 131.62,134.20 132.89,135.58 134.16,136.95 135.43,138.32 136.70,139.68 137.97,141.04 139.24,142.39 140.50,143.73 141.77,145.07 143.04,146.41 144.30,147.74 145.57,149.06 146.83,150.38 148.09,151.70 149.36,153.01 150.62,154.31 151.88,155.61 153.14,156.91 154.40,158.20 155.66,159.49 156.92,160.78 158.18,162.06 159.44,163.34 160.70,164.61 161.96,165.88 163.22,167.15 164.47,168.41 165.73,169.67 166.99,170.93 168.24,172.18 169.50,173.43 170.75,174.68 172.01,175.92 173.26,177.16 174.52,178.40 175.77,179.64 177.02,180.87 178.28,182.11 179.53,183.33 180.78,184.56 182.04,185.79 183.29,187.01 184.54,188.23 185.79,189.45 187.04,190.67 188.29,191.88 189.55,193.09 190.80,194.31 192.05,195.51 193.30,196.72 194.55,197.93 195.80,199.14 197.05,200.34 198.30,201.54 199.55,202.74 200.80,203.94 202.05,205.14 203.29,206.34 204.54,207.54 205.79,208.73 207.04,209.93 208.29,211.12 209.54,212.31 210.79,213.50 212.04,214.70 213.28,215.89 214.53,217.08 215.78,218.27 217.03,219.45 218.28,220.64 219.52,221.83 220.77,223.02 222.02,224.20 223.27,225.39 224.51,226.57 225.76,227.76 227.01,228.94 228.26,230.13 229.51,231.31 230.75,232.50 232.00,233.68 233.25,234.87 234.50,236.05 235.74,237.23 236.99,238.42 238.24,239.60 239.48,240.78 240.73,241.97 241.98,243.15 243.23,244.33 244.47,245.52 245.72,246.70 246.97,247.88 248.22,249.07 249.46,250.25 250.71,251.43 251.96,252.62 253.21,253.80 254.45,254.99 255.70,256.17 256.95,257.36 258.20,258.54 259.44,259.73 260.69,260.91 261.94,262.10 263.19,263.28 264.43,264.47 265.68,265.65 266.93,266.84 268.18,268.03 269.43,269.21 270.67,270.40 271.92,271.59 273.17,272.77 274.42,273.96 275.67,275.15 276.91,276.34 278.16,277.53 279.41,278.71 280.66,279.90 281.91,281.09 283.15,282.28 284.40,283.47 285.65,284.66 286.90,285.85 288.15,287.04 289.39,288.23 290.64,289.42 291.89,290.61 293.14,291.80 294.39,292.99 295.64,294.18 296.88,295.37 298.13,296.56 299.38,297.75 300.63,298.95 301.88,300.14 303.13,301.33 304.37,302.52 305.62,303.71 306.87,304.90 308.12,306.09 309.37,307.28 310.62,308.48 311.86,309.67 313.11,310.86 314.36,312.05 315.61,313.24 316.86,314.43 318.11,315.62 319.35,316.81 320.60,318.00 321.85,319.19 323.10,320.38 324.35,321.57 325.60,322.76 326.84,323.95 328.09,325.14 329.34,326.33 330.59,327.51 331.84,328.70 333.08,329.89 334.33,331.08 335.58,332.26 336.83,333.45 338.07,334.63 339.32,335.82 340.57,337.00 341.82,338.19 343.06,339.37 344.31,340.55 345.56,341.73 346.81,342.91 348.05,344.09 349.30,345.27 350.55,346.45 351.79,347.63 353.04,348.81 354.29,349.98 355.53,351.16 356.78,352.33 358.02,353.51 359.27,354.68 360.52,355.85 361.76,357.02 363.01,358.19 364.25,359.36 365.50,360.53 366.74,361.69 367.99,362.86 369.23,364.02 370.48,365.19 371.72,366.35 372.97,367.51 374.21,368.67 375.46,369.83 376.70,370.98 377.95,372.14 379.19,373.29 380.43,374.44 381.68,375.59 382.92,376.74 384.16,377.89 385.41,379.04 386.65,380.18 387.89,381.33 389.13,382.47 390.38,383.61 391.62,384.75 392.86,385.88 394.10,387.02 395.34,388.15 396.58,389.28 397.82,390.41 399.06,391.54 400.30,392.66 401.54,393.79 402.78,394.91 404.02,396.03 405.26,397.15 406.50,398.27 407.74,399.38 408.98,400.49 410.22,401.60 411.46,402.71 412.69,403.82 413.93,404.92 415.17,406.02 416.41,407.12 417.64,408.22 418.88,409.31 420.12,410.41 421.35,411.50 422.59,412.59 423.82,413.67 425.06,414.76 426.29,415.84 427.53,416.92 428.76,417.99 430.00,419.07 431.23,420.14 432.46,421.21 433.70,422.28 434.93,423.34 436.16,424.40 437.39,425.46 438.63,426.52 439.86,427.58 441.09,428.63 442.32,429.68 443.55,430.73 444.78,431.77 446.01,432.81 447.24,433.85 448.47,434.89 449.70,435.92 450.93,436.96 452.16,437.98 453.38,439.01 454.61,440.03 455.84,441.06 457.07,442.07 458.29,443.09 459.52,444.10 460.75,445.11 461.97,446.12 463.20,447.13 464.42,448.13 465.65,449.13 466.87,450.13 466.87,450.13 467.20,450.39 467.52,450.66 467.83,450.92 468.13,451.19 468.43,451.45 468.72,451.71 469.00,451.97 469.28,452.22 469.55,452.48 469.82,452.73 470.07,452.99 470.32,453.24 470.57,453.49 470.80,453.74 471.03,453.99 471.26,454.24 471.47,454.48 471.68,454.73 471.88,454.98 472.08,455.22 472.27,455.46 472.45,455.71 472.63,455.95 472.80,456.19 472.96,456.43 473.12,456.67 473.26,456.91 473.41,457.15 473.54,457.38 473.67,457.62 473.79,457.86 473.91,458.09 474.02,458.33 474.12,458.57 474.21,458.80 474.30,459.03 474.38,459.27 474.46,459.50 474.53,459.74 474.59,459.97 474.65,460.20 474.69,460.44 474.74,460.67 474.77,460.90 474.80,461.14 474.82,461.37 474.84,461.60 474.85,461.84 474.85,462.07 474.84,462.30 474.83,462.54 474.81,462.77 474.79,463.01 474.76,463.24 474.72,463.48 474.68,463.71 474.63,463.95 474.57,464.18 474.51,464.42 474.44,464.66 474.36,464.90 474.27,465.13 474.18,465.37 474.09,465.61 473.98,465.85 473.87,466.09 473.76,466.34 473.63,466.58 473.51,466.82 473.37,467.07 473.23,467.31 473.08,467.56 472.92,467.80 472.76,468.05 472.59,468.30 472.42,468.55 472.23,468.80 472.05,469.05 471.85,469.31 471.65,469.56 471.44,469.82 471.23,470.08 471.01,470.33 470.78,470.59 470.55,470.86 470.31,471.12 470.06,471.38 469.81,471.65 469.55,471.92 469.55,471.92 468.57,472.91 467.59,473.91 466.61,474.92 465.63,475.92 464.65,476.93 463.67,477.94 462.70,478.95 461.72,479.97 460.74,480.99 459.77,482.01 458.79,483.03 457.81,484.06 456.84,485.09 455.86,486.12 454.89,487.15 453.91,488.19 452.94,489.23 451.96,490.27 450.99,491.32 450.02,492.36 449.04,493.41 448.07,494.46 447.10,495.52 446.13,496.58 445.15,497.64 444.18,498.70 443.21,499.76 442.24,500.83 441.27,501.90 440.30,502.97 439.33,504.05 438.36,505.12 437.39,506.20 436.42,507.29 435.45,508.37 434.48,509.46 433.51,510.54 432.55,511.63 431.58,512.73 430.61,513.82 429.64,514.92 428.68,516.02 427.71,517.12 426.74,518.23 425.78,519.33 424.81,520.44 423.84,521.55 422.88,522.66 421.91,523.78 420.95,524.89 419.98,526.01 419.02,527.13 418.05,528.25 417.09,529.38 416.13,530.50 415.16,531.63 414.20,532.76 413.24,533.89 412.27,535.02 411.31,536.16 410.35,537.30 409.39,538.43 408.42,539.57 407.46,540.72 406.50,541.86 405.54,543.00 404.58,544.15 403.62,545.30 402.65,546.45 401.69,547.60 400.73,548.75 399.77,549.90 398.81,551.06 397.85,552.22 396.89,553.37 395.93,554.53 394.97,555.69 394.01,556.85 393.05,558.02 392.10,559.18 391.14,560.35 390.18,561.51 389.22,562.68 388.26,563.85 387.30,565.02 386.34,566.19 385.38,567.36 384.43,568.53 383.47,569.71 382.51,570.88 381.55,572.06 380.60,573.23 379.64,574.41 378.68,575.59 377.72,576.77 376.77,577.95 375.81,579.13 374.85,580.31 373.89,581.49 372.94,582.67 371.98,583.86 371.02,585.04 370.07,586.22 369.11,587.41 368.15,588.59 367.20,589.78 366.24,590.97 365.28,592.15 364.33,593.34 363.37,594.53 362.42,595.71 361.46,596.90 360.50,598.09 359.55,599.28 358.59,600.47 357.64,601.66 356.68,602.85 355.72,604.04 354.77,605.23 353.81,606.42 352.86,607.61 351.90,608.80 350.94,609.99 349.99,611.18 349.03,612.37 348.08,613.57 347.12,614.76 346.16,615.95 345.21,617.14 344.25,618.33 343.30,619.52 342.34,620.71 341.39,621.90 340.43,623.10 339.47,624.29 338.52,625.48 337.56,626.67 336.61,627.86 335.65,629.05 334.69,630.24 333.74,631.43 332.78,632.62 331.83,633.81 330.87,635.00 329.91,636.19 328.96,637.38 328.00,638.57 327.05,639.76 326.09,640.95 325.13,642.14 324.18,643.33 323.22,644.52 322.27,645.70 321.31,646.89 320.35,648.08 319.40,649.27 318.44,650.46 317.48,651.64 316.53,652.83 315.57,654.02 314.62,655.20 313.66,656.39 312.70,657.57 311.75,658.76 310.79,659.95 309.83,661.13 308.88,662.32 307.92,663.50 306.96,664.69 306.01,665.87 305.05,667.05 304.09,668.24 303.14,669.42 302.18,670.61 301.22,671.79 300.27,672.97 299.31,674.16 298.35,675.34 297.40,676.52 296.44,677.71 295.48,678.89 294.53,680.07 293.57,681.26 292.61,682.44 291.65,683.62 290.70,684.81 289.74,685.99 288.78,687.18 287.83,688.36 286.87,689.54 285.91,690.73 284.96,691.91 284.00,693.10 283.04,694.28 282.09,695.47 281.13,696.65 280.17,697.84 279.22,699.03 278.26,700.21 277.31,701.40 276.35,702.59 275.39,703.78 274.44,704.97 273.48,706.16 272.53,707.35 271.57,708.54 270.61,709.73 269.66,710.92 268.70,712.12 267.75,713.31 266.79,714.51 265.84,715.70 264.88,716.90 263.93,718.10 262.97,719.30 262.02,720.50 261.06,721.70 260.11,722.91 259.15,724.11 258.20,725.32 257.25,726.53 256.29,727.74 255.34,728.95 254.39,730.16 253.43,731.38 252.48,732.59 251.53,733.81 250.58,735.03 249.62,736.25 248.67,737.48 247.72,738.71 246.77,739.94 245.82,741.17 244.87,742.40 243.92,743.64 242.97,744.88 242.02,746.12 241.07,747.36 240.12,748.61 239.17,749.86 238.22,751.12 237.28,752.37 236.33,753.63 235.38,754.90 234.44,756.16 233.49,757.43 232.54,758.71 231.60,759.98 230.65,761.26 229.71,762.55 228.77,763.84 227.82,765.13 226.88,766.43 225.94,767.73 224.99,769.03 224.05,770.34 223.11,771.66 222.17,772.98 221.23,774.30 220.29,775.63 219.36,776.97 218.42,778.31 217.48,779.65 216.55,781.00 215.61,782.36 214.68,783.72 213.74,785.09 212.81,786.46 211.87,787.84 210.94,789.23 210.01,790.62 209.08,792.02 208.15,793.42 207.22,794.84 206.30,796.26 205.37,797.68 204.44,799.12 203.52,800.56 202.59,802.00 201.67,803.46 200.75,804.92 199.83,806.39 198.91,807.87 197.99,809.36 197.07,810.86 196.15,812.36 195.23,813.88 194.32,815.40 193.40,816.93 192.49,818.47 191.58,820.02 190.67,821.58 189.76,823.15 188.85,824.73 187.95,826.32 187.04,827.92 186.14,829.53 185.23,831.15 184.33,832.79 184.33,832.79 183.58,833.76 182.76,834.10 181.90,833.82 180.97,832.94 180.00,831.46 178.97,829.40 177.89,826.78 176.77,823.61 175.60,819.90 174.39,815.68 173.13,810.95 171.83,805.74 170.50,800.04 169.13,793.89 167.72,787.29 166.28,780.26 164.81,772.81 163.31,764.96 161.79,756.73 160.23,748.12 158.65,739.15 157.05,729.84 155.43,720.20 153.79,710.24 152.14,699.98 150.47,689.44 148.78,678.63 147.08,667.56 145.38,656.26 143.66,644.72 141.94,632.97 140.22,621.03 138.49,608.90 136.76,596.60 135.04,584.15 133.31,571.57 131.59,558.85 129.88,546.03 128.17,533.11 126.48,520.12 124.79,507.05 123.12,493.94 121.47,480.78 119.83,467.61 118.21,454.43 116.62,441.26 115.04,428.11 113.49,414.99 111.97,401.93 110.47,388.93 109.00,376.01 107.57,363.19 106.17,350.48 104.80,337.89 103.47,325.44 102.18,313.14 100.93,301.01 99.72,289.07 98.55,277.32 97.43,265.79 96.36,254.48 95.34,243.41 94.37,232.60 93.46,222.06 92.59,211.80 91.79,201.85 91.04,192.20 90.35,182.89 89.73,173.92 89.17,165.31 88.67,157.08 88.25,149.23 87.89,141.78 87.60,134.75 87.39,128.15 87.25,122.00 87.18,116.30 87.20,111.09 87.29,106.36 87.47,102.14 87.73,98.43 88.07,95.26 88.51,92.64 89.03,90.59 89.64,89.11 90.35,88.22 91.15,87.94 92.04,88.28 93.04,89.26 Z" fill="url(#st)" fill-rule="evenodd" stroke="#ff9e6b" stroke-width="1.6"/>
<polyline fill="none" stroke="#c0a0ff" stroke-width="0.6" points="97.71,127.31 99.56,128.96 101.42,130.61 103.27,132.26 105.12,133.90 106.98,135.53 108.83,137.16 110.68,138.79 112.54,140.40 114.39,142.02 116.24,143.63 118.10,145.24 119.95,146.84 121.81,148.44 123.66,150.03 125.51,151.62 127.37,153.21 129.22,154.79 131.07,156.37 132.93,157.95 134.78,159.52 136.63,161.10 138.49,162.67 140.34,164.23 142.19,165.80 144.05,167.36 145.90,168.92 147.76,170.48 149.61,172.04 151.46,173.59 153.32,175.14 155.17,176.70 157.02,178.25 158.88,179.79 160.73,181.34 162.58,182.89 164.44,184.44 166.29,185.98 168.14,187.53 170.00,189.07 171.85,190.61 173.71,192.15 175.56,193.70 177.41,195.24 179.27,196.78 181.12,198.32 182.97,199.86 184.83,201.40 186.68,202.95 188.53,204.49 190.39,206.03 192.24,207.57 194.09,209.11 195.95,210.66 197.80,212.20 199.66,213.74 201.51,215.29 203.36,216.83 205.22,218.38 207.07,219.93 208.92,221.47 210.78,223.02 212.63,224.57 214.48,226.12 216.34,227.67 218.19,229.22 220.04,230.78 221.90,232.33 223.75,233.89 225.61,235.44 227.46,237.00 229.31,238.56 231.17,240.12 233.02,241.68 234.87,243.24 236.73,244.81 238.58,246.37 240.43,247.94 242.29,249.51 244.14,251.08 245.99,252.65 247.85,254.22 249.70,255.80 251.56,257.37 253.41,258.95 255.26,260.53 257.12,262.11 258.97,263.69 260.82,265.27 262.68,266.86 264.53,268.44 266.38,270.03 268.24,271.62 270.09,273.21 271.95,274.80 273.80,276.39 275.65,277.99 277.51,279.59 279.36,281.19 281.21,282.79 283.07,284.39 284.92,285.99 286.77,287.59 288.63,289.20 290.48,290.81 292.33,292.42 294.19,294.03 296.04,295.64 297.90,297.25 299.75,298.87 301.60,300.48 303.46,302.10 305.31,303.72 307.16,305.34 309.02,306.96 310.87,308.59 312.72,310.21 314.58,311.84 316.43,313.46 318.28,315.09 320.14,316.72 321.99,318.35 323.85,319.98 325.70,321.62 327.55,323.25 329.41,324.89 331.26,326.53 333.11,328.16 334.97,329.80 336.82,331.44 338.67,333.08 340.53,334.73 342.38,336.37 344.23,338.01 346.09,339.66 347.94,341.30 349.80,342.95 351.65,344.60 353.50,346.25 355.36,347.90 357.21,349.55 359.06,351.20 360.92,352.85 362.77,354.50 364.62,356.16 366.48,357.81 368.33,359.47 370.18,361.12 372.04,362.78 373.89,364.43 375.75,366.09 377.60,367.75 379.45,369.41 381.31,371.07 383.16,372.73 385.01,374.38 386.87,376.05 388.72,377.71 390.57,379.37 392.43,381.03 394.28,382.69 396.13,384.35 397.99,386.02 399.84,387.68 401.70,389.34 403.55,391.00 405.40,392.67 407.26,394.33 409.11,396.00 410.96,397.66 412.82,399.33 414.67,400.99 416.52,402.66 418.38,404.32 420.23,405.99 422.09,407.65 423.94,409.32 425.79,410.98 427.65,412.65 429.50,414.32 431.35,415.98 433.21,417.65 435.06,419.32 436.91,420.98 438.77,422.65 440.62,424.32 442.47,425.98 444.33,427.65 446.18,429.32 448.04,430.99 449.89,432.65 451.74,434.32 453.60,435.99 455.45,437.66 457.30,439.33 459.16,440.99 461.01,442.66 462.86,444.33 464.72,446.00 466.57,447.67"/>
<polyline fill="none" stroke="#ff8c5a" stroke-width="0.6" points="102.60,167.14 104.43,168.59 106.26,170.05 108.09,171.50 109.92,172.94 111.75,174.38 113.58,175.82 115.41,177.25 117.24,178.67 119.07,180.09 120.90,181.51 122.73,182.93 124.56,184.34 126.39,185.74 128.22,187.15 130.05,188.55 131.88,189.95 133.71,191.34 135.54,192.73 137.37,194.12 139.20,195.51 141.03,196.89 142.86,198.27 144.69,199.65 146.52,201.03 148.35,202.41 150.18,203.78 152.01,205.15 153.84,206.52 155.67,207.89 157.50,209.26 159.33,210.62 161.16,211.99 162.99,213.35 164.82,214.71 166.65,216.08 168.48,217.44 170.31,218.80 172.14,220.16 173.97,221.51 175.80,222.87 177.63,224.23 179.46,225.59 181.29,226.95 183.12,228.30 184.95,229.66 186.78,231.02 188.61,232.37 190.44,233.73 192.27,235.09 194.10,236.44 195.93,237.80 197.76,239.16 199.59,240.52 201.42,241.87 203.25,243.23 205.08,244.59 206.91,245.95 208.74,247.31 210.57,248.67 212.40,250.04 214.23,251.40 216.06,252.76 217.89,254.13 219.72,255.49 221.55,256.86 223.38,258.23 225.21,259.59 227.04,260.96 228.87,262.33 230.70,263.70 232.53,265.08 234.36,266.45 236.19,267.82 238.02,269.20 239.85,270.58 241.68,271.95 243.51,273.33 245.34,274.71 247.17,276.10 249.00,277.48 250.83,278.86 252.66,280.25 254.49,281.64 256.32,283.02 258.15,284.41 259.98,285.81 261.81,287.20 263.64,288.59 265.47,289.99 267.30,291.38 269.13,292.78 270.96,294.18 272.79,295.58 274.62,296.98 276.45,298.39 278.28,299.79 280.11,301.20 281.94,302.60 283.77,304.01 285.60,305.42 287.43,306.84 289.26,308.25 291.09,309.66 292.92,311.08 294.75,312.49 296.58,313.91 298.41,315.33 300.24,316.75 302.07,318.18 303.90,319.60 305.73,321.02 307.56,322.45 309.39,323.88 311.22,325.31 313.05,326.73 314.88,328.17 316.71,329.60 318.54,331.03 320.37,332.46 322.20,333.90 324.03,335.34 325.86,336.77 327.69,338.21 329.52,339.65 331.35,341.09 333.18,342.54 335.01,343.98 336.84,345.42 338.67,346.87 340.50,348.31 342.33,349.76 344.16,351.21 345.99,352.65 347.82,354.10 349.65,355.55 351.48,357.00 353.31,358.46 355.14,359.91 356.97,361.36 358.80,362.82 360.63,364.27 362.46,365.72 364.29,367.18 366.12,368.64 367.95,370.09 369.78,371.55 371.61,373.01 373.44,374.47 375.27,375.93 377.10,377.39 378.93,378.85 380.76,380.31 382.59,381.77 384.42,383.23 386.25,384.70 388.08,386.16 389.91,387.62 391.74,389.09 393.57,390.55 395.40,392.01 397.23,393.48 399.06,394.94 400.89,396.41 402.72,397.87 404.55,399.34 406.38,400.80 408.21,402.27 410.04,403.74 411.87,405.20 413.70,406.67 415.53,408.14 417.36,409.60 419.19,411.07 421.02,412.54 422.85,414.01 424.68,415.47 426.51,416.94 428.34,418.41 430.17,419.88 432.00,421.35 433.83,422.81 435.66,424.28 437.49,425.75 439.32,427.22 441.15,428.69 442.98,430.16 444.81,431.63 446.64,433.09 448.47,434.56 450.30,436.03 452.13,437.50 453.96,438.97 455.79,440.44 457.62,441.91 459.45,443.38 461.28,444.85 463.11,446.32 464.94,447.79 466.77,449.26"/>
<circle cx="94.43" cy="84.88" r="1.50" fill="#6ee0a0"/>
<circle cx="184.84" cy="836.93" r="2.00" fill="#e0b86e"/>
<circle cx="184.84" cy="836.93" r="0.60" fill="#13110d"/>
<circle cx="102.60" cy="167.14" r="0.80" fill="#ff8c5a"/>
<circle cx="97.71" cy="127.31" r="0.80" fill="#c0a0ff"/>
<circle cx="102.72" cy="92.73" r="1.50" fill="#6ee0a0"/>
<circle cx="191.24" cy="829.09" r="2.00" fill="#e0b86e"/>
<circle cx="191.24" cy="829.09" r="0.60" fill="#13110d"/>
<circle cx="110.71" cy="173.27" r="0.80" fill="#ff8c5a"/>
<circle cx="105.92" cy="134.27" r="0.80" fill="#c0a0ff"/>
<circle cx="110.97" cy="100.57" r="1.50" fill="#6ee0a0"/>
<circle cx="197.58" cy="821.24" r="2.00" fill="#e0b86e"/>
<circle cx="197.58" cy="821.24" r="0.60" fill="#13110d"/>
<circle cx="118.77" cy="179.40" r="0.80" fill="#ff8c5a"/>
<circle cx="114.08" cy="141.24" r="0.80" fill="#c0a0ff"/>
<circle cx="119.12" cy="108.42" r="1.50" fill="#6ee0a0"/>
<circle cx="203.85" cy="813.40" r="2.00" fill="#e0b86e"/>
<circle cx="203.85" cy="813.40" r="0.60" fill="#13110d"/>
<circle cx="126.76" cy="185.54" r="0.80" fill="#ff8c5a"/>
<circle cx="122.17" cy="148.20" r="0.80" fill="#c0a0ff"/>
<circle cx="127.25" cy="116.27" r="1.50" fill="#6ee0a0"/>
<circle cx="210.06" cy="805.55" r="2.00" fill="#e0b86e"/>
<circle cx="210.06" cy="805.55" r="0.60" fill="#13110d"/>
<circle cx="134.68" cy="191.67" r="0.80" fill="#ff8c5a"/>
<circle cx="130.20" cy="155.17" r="0.80" fill="#c0a0ff"/>
<circle cx="135.37" cy="124.12" r="1.50" fill="#6ee0a0"/>
<circle cx="216.26" cy="797.71" r="2.00" fill="#e0b86e"/>
<circle cx="216.26" cy="797.71" r="0.60" fill="#13110d"/>
<circle cx="142.60" cy="197.80" r="0.80" fill="#ff8c5a"/>
<circle cx="138.22" cy="162.13" r="0.80" fill="#c0a0ff"/>
<circle cx="143.40" cy="131.97" r="1.50" fill="#6ee0a0"/>
<circle cx="222.41" cy="789.86" r="2.00" fill="#e0b86e"/>
<circle cx="222.41" cy="789.86" r="0.60" fill="#13110d"/>
<circle cx="150.47" cy="203.93" r="0.80" fill="#ff8c5a"/>
<circle cx="146.19" cy="169.09" r="0.80" fill="#c0a0ff"/>
<circle cx="151.42" cy="139.81" r="1.50" fill="#6ee0a0"/>
<circle cx="228.51" cy="782.02" r="2.00" fill="#e0b86e"/>
<circle cx="228.51" cy="782.02" r="0.60" fill="#13110d"/>
<circle cx="158.28" cy="210.07" r="0.80" fill="#ff8c5a"/>
<circle cx="154.10" cy="176.06" r="0.80" fill="#c0a0ff"/>
<circle cx="159.39" cy="147.66" r="1.50" fill="#6ee0a0"/>
<circle cx="234.58" cy="774.17" r="2.00" fill="#e0b86e"/>
<circle cx="234.58" cy="774.17" r="0.60" fill="#13110d"/>
<circle cx="166.07" cy="216.20" r="0.80" fill="#ff8c5a"/>
<circle cx="161.99" cy="183.02" r="0.80" fill="#c0a0ff"/>
<circle cx="168.23" cy="155.45" r="1.50" fill="#6ee0a0"/>
<circle cx="241.06" cy="766.33" r="2.00" fill="#e0b86e"/>
<circle cx="241.06" cy="766.33" r="0.66" fill="#13110d"/>
<circle cx="174.26" cy="222.33" r="0.80" fill="#ff8c5a"/>
<circle cx="170.29" cy="189.99" r="0.80" fill="#c0a0ff"/>
<circle cx="177.00" cy="163.30" r="1.50" fill="#6ee0a0"/>
<circle cx="247.94" cy="758.48" r="2.00" fill="#e0b86e"/>
<circle cx="247.94" cy="758.48" r="0.62" fill="#13110d"/>
<circle cx="182.86" cy="228.47" r="0.80" fill="#ff8c5a"/>
<circle cx="178.99" cy="196.95" r="0.80" fill="#c0a0ff"/>
<circle cx="185.69" cy="171.15" r="1.50" fill="#6ee0a0"/>
<circle cx="254.74" cy="750.64" r="2.00" fill="#e0b86e"/>
<circle cx="254.74" cy="750.64" r="0.60" fill="#13110d"/>
<circle cx="191.38" cy="234.60" r="0.80" fill="#ff8c5a"/>
<circle cx="187.61" cy="203.92" r="0.80" fill="#c0a0ff"/>
<circle cx="194.30" cy="179.00" r="1.50" fill="#6ee0a0"/>
<circle cx="261.46" cy="742.79" r="2.00" fill="#e0b86e"/>
<circle cx="261.46" cy="742.79" r="0.60" fill="#13110d"/>
<circle cx="199.82" cy="240.73" r="0.80" fill="#ff8c5a"/>
<circle cx="196.15" cy="210.88" r="0.80" fill="#c0a0ff"/>
<circle cx="202.85" cy="186.85" r="1.50" fill="#6ee0a0"/>
<circle cx="268.12" cy="734.95" r="2.00" fill="#e0b86e"/>
<circle cx="268.12" cy="734.95" r="0.60" fill="#13110d"/>
<circle cx="208.19" cy="246.87" r="0.80" fill="#ff8c5a"/>
<circle cx="204.62" cy="217.84" r="0.80" fill="#c0a0ff"/>
<circle cx="211.40" cy="194.70" r="1.50" fill="#6ee0a0"/>
<circle cx="274.74" cy="727.10" r="2.00" fill="#e0b86e"/>
<circle cx="274.74" cy="727.10" r="0.60" fill="#13110d"/>
<circle cx="216.53" cy="253.00" r="0.80" fill="#ff8c5a"/>
<circle cx="213.06" cy="224.81" r="0.80" fill="#c0a0ff"/>
<circle cx="219.88" cy="202.54" r="1.50" fill="#6ee0a0"/>
<circle cx="281.33" cy="719.26" r="2.00" fill="#e0b86e"/>
<circle cx="281.33" cy="719.26" r="0.60" fill="#13110d"/>
<circle cx="224.83" cy="259.13" r="0.80" fill="#ff8c5a"/>
<circle cx="221.47" cy="231.77" r="0.80" fill="#c0a0ff"/>
<circle cx="228.24" cy="210.40" r="1.50" fill="#6ee0a0"/>
<circle cx="287.82" cy="711.41" r="2.00" fill="#e0b86e"/>
<circle cx="287.82" cy="711.41" r="0.60" fill="#13110d"/>
<circle cx="233.04" cy="265.27" r="0.80" fill="#ff8c5a"/>
<circle cx="229.78" cy="238.74" r="0.80" fill="#c0a0ff"/>
<circle cx="236.59" cy="218.24" r="1.50" fill="#6ee0a0"/>
<circle cx="294.25" cy="703.57" r="2.00" fill="#e0b86e"/>
<circle cx="294.25" cy="703.57" r="0.60" fill="#13110d"/>
<circle cx="241.19" cy="271.40" r="0.80" fill="#ff8c5a"/>
<circle cx="238.03" cy="245.70" r="0.80" fill="#c0a0ff"/>
<circle cx="244.89" cy="226.09" r="1.50" fill="#6ee0a0"/>
<circle cx="300.65" cy="695.72" r="2.00" fill="#e0b86e"/>
<circle cx="300.65" cy="695.72" r="0.60" fill="#13110d"/>
<circle cx="249.30" cy="277.53" r="0.80" fill="#ff8c5a"/>
<circle cx="246.25" cy="252.67" r="0.80" fill="#c0a0ff"/>
<circle cx="253.18" cy="233.94" r="1.50" fill="#6ee0a0"/>
<circle cx="307.01" cy="687.88" r="2.00" fill="#e0b86e"/>
<circle cx="307.01" cy="687.88" r="0.60" fill="#13110d"/>
<circle cx="257.38" cy="283.67" r="0.80" fill="#ff8c5a"/>
<circle cx="254.43" cy="259.63" r="0.80" fill="#c0a0ff"/>
<circle cx="261.33" cy="241.79" r="1.50" fill="#6ee0a0"/>
<circle cx="313.31" cy="680.03" r="2.00" fill="#e0b86e"/>
<circle cx="313.31" cy="680.03" r="0.60" fill="#13110d"/>
<circle cx="265.40" cy="289.80" r="0.80" fill="#ff8c5a"/>
<circle cx="262.55" cy="266.60" r="0.80" fill="#c0a0ff"/>
<circle cx="269.48" cy="249.63" r="1.50" fill="#6ee0a0"/>
<circle cx="319.54" cy="672.19" r="2.00" fill="#e0b86e"/>
<circle cx="319.54" cy="672.19" r="0.60" fill="#13110d"/>
<circle cx="273.34" cy="295.93" r="0.80" fill="#ff8c5a"/>
<circle cx="270.59" cy="273.56" r="0.80" fill="#c0a0ff"/>
<circle cx="277.64" cy="257.48" r="1.50" fill="#6ee0a0"/>
<circle cx="325.76" cy="664.34" r="2.00" fill="#e0b86e"/>
<circle cx="325.76" cy="664.34" r="0.60" fill="#13110d"/>
<circle cx="281.28" cy="302.07" r="0.80" fill="#ff8c5a"/>
<circle cx="278.63" cy="280.52" r="0.80" fill="#c0a0ff"/>
<circle cx="285.72" cy="265.33" r="1.50" fill="#6ee0a0"/>
<circle cx="331.95" cy="656.50" r="2.00" fill="#e0b86e"/>
<circle cx="331.95" cy="656.50" r="0.60" fill="#13110d"/>
<circle cx="289.19" cy="308.20" r="0.80" fill="#ff8c5a"/>
<circle cx="286.65" cy="287.49" r="0.80" fill="#c0a0ff"/>
<circle cx="293.81" cy="273.17" r="1.50" fill="#6ee0a0"/>
<circle cx="338.12" cy="648.65" r="2.00" fill="#e0b86e"/>
<circle cx="338.12" cy="648.65" r="0.60" fill="#13110d"/>
<circle cx="297.07" cy="314.33" r="0.80" fill="#ff8c5a"/>
<circle cx="294.63" cy="294.45" r="0.80" fill="#c0a0ff"/>
<circle cx="301.90" cy="281.02" r="1.50" fill="#6ee0a0"/>
<circle cx="344.28" cy="640.81" r="2.00" fill="#e0b86e"/>
<circle cx="344.28" cy="640.81" r="0.60" fill="#13110d"/>
<circle cx="304.94" cy="320.47" r="0.80" fill="#ff8c5a"/>
<circle cx="302.61" cy="301.42" r="0.80" fill="#c0a0ff"/>
<circle cx="309.92" cy="288.87" r="1.50" fill="#6ee0a0"/>
<circle cx="350.41" cy="632.96" r="2.00" fill="#e0b86e"/>
<circle cx="350.41" cy="632.96" r="0.60" fill="#13110d"/>
<circle cx="312.79" cy="326.60" r="0.80" fill="#ff8c5a"/>
<circle cx="310.55" cy="308.38" r="0.80" fill="#c0a0ff"/>
<circle cx="317.95" cy="296.71" r="1.50" fill="#6ee0a0"/>
<circle cx="356.50" cy="625.12" r="2.00" fill="#e0b86e"/>
<circle cx="356.50" cy="625.12" r="0.60" fill="#13110d"/>
<circle cx="320.60" cy="332.73" r="0.80" fill="#ff8c5a"/>
<circle cx="318.47" cy="315.35" r="0.80" fill="#c0a0ff"/>
<circle cx="325.97" cy="304.56" r="1.50" fill="#6ee0a0"/>
<circle cx="362.60" cy="617.27" r="2.00" fill="#e0b86e"/>
<circle cx="362.60" cy="617.27" r="0.60" fill="#13110d"/>
<circle cx="328.42" cy="338.87" r="0.80" fill="#ff8c5a"/>
<circle cx="326.38" cy="322.31" r="0.80" fill="#c0a0ff"/>
<circle cx="333.95" cy="312.41" r="1.50" fill="#6ee0a0"/>
<circle cx="368.67" cy="609.43" r="2.00" fill="#e0b86e"/>
<circle cx="368.67" cy="609.43" r="0.60" fill="#13110d"/>
<circle cx="336.21" cy="345.00" r="0.80" fill="#ff8c5a"/>
<circle cx="334.27" cy="329.27" r="0.80" fill="#c0a0ff"/>
<circle cx="341.92" cy="320.25" r="1.50" fill="#6ee0a0"/>
<circle cx="374.72" cy="601.58" r="2.00" fill="#e0b86e"/>
<circle cx="374.72" cy="601.58" r="0.60" fill="#13110d"/>
<circle cx="343.97" cy="351.13" r="0.80" fill="#ff8c5a"/>
<circle cx="342.14" cy="336.24" r="0.80" fill="#c0a0ff"/>
<circle cx="349.89" cy="328.10" r="1.50" fill="#6ee0a0"/>
<circle cx="380.77" cy="593.74" r="2.00" fill="#e0b86e"/>
<circle cx="380.77" cy="593.74" r="0.60" fill="#13110d"/>
<circle cx="351.73" cy="357.26" r="0.80" fill="#ff8c5a"/>
<circle cx="350.00" cy="343.20" r="0.80" fill="#c0a0ff"/>
<circle cx="357.81" cy="335.94" r="1.50" fill="#6ee0a0"/>
<circle cx="386.79" cy="585.89" r="2.00" fill="#e0b86e"/>
<circle cx="386.79" cy="585.89" r="0.60" fill="#13110d"/>
<circle cx="359.47" cy="363.40" r="0.80" fill="#ff8c5a"/>
<circle cx="357.84" cy="350.17" r="0.80" fill="#c0a0ff"/>
<circle cx="365.73" cy="343.79" r="1.50" fill="#6ee0a0"/>
<circle cx="392.78" cy="578.05" r="2.00" fill="#e0b86e"/>
<circle cx="392.78" cy="578.05" r="0.60" fill="#13110d"/>
<circle cx="367.18" cy="369.53" r="0.80" fill="#ff8c5a"/>
<circle cx="365.66" cy="357.13" r="0.80" fill="#c0a0ff"/>
<circle cx="373.66" cy="351.63" r="1.50" fill="#6ee0a0"/>
<circle cx="398.78" cy="570.20" r="2.00" fill="#e0b86e"/>
<circle cx="398.78" cy="570.20" r="0.60" fill="#13110d"/>
<circle cx="374.89" cy="375.66" r="0.80" fill="#ff8c5a"/>
<circle cx="373.47" cy="364.10" r="0.80" fill="#c0a0ff"/>
<circle cx="381.58" cy="359.48" r="1.50" fill="#6ee0a0"/>
<circle cx="404.77" cy="562.36" r="2.00" fill="#e0b86e"/>
<circle cx="404.77" cy="562.36" r="0.60" fill="#13110d"/>
<circle cx="382.60" cy="381.80" r="0.80" fill="#ff8c5a"/>
<circle cx="381.28" cy="371.06" r="0.80" fill="#c0a0ff"/>
<circle cx="389.47" cy="367.33" r="1.50" fill="#6ee0a0"/>
<circle cx="410.75" cy="554.51" r="2.00" fill="#e0b86e"/>
<circle cx="410.75" cy="554.51" r="0.60" fill="#13110d"/>
<circle cx="390.30" cy="387.93" r="0.80" fill="#ff8c5a"/>
<circle cx="389.08" cy="378.03" r="0.80" fill="#c0a0ff"/>
<circle cx="397.37" cy="375.17" r="1.50" fill="#6ee0a0"/>
<circle cx="416.72" cy="546.67" r="2.00" fill="#e0b86e"/>
<circle cx="416.72" cy="546.67" r="0.60" fill="#13110d"/>
<circle cx="397.99" cy="394.06" r="0.80" fill="#ff8c5a"/>
<circle cx="396.87" cy="384.99" r="0.80" fill="#c0a0ff"/>
<circle cx="405.26" cy="383.02" r="1.50" fill="#6ee0a0"/>
<circle cx="422.69" cy="538.82" r="2.00" fill="#e0b86e"/>
<circle cx="422.69" cy="538.82" r="0.60" fill="#13110d"/>
<circle cx="405.67" cy="400.20" r="0.80" fill="#ff8c5a"/>
<circle cx="404.66" cy="391.95" r="0.80" fill="#c0a0ff"/>
<circle cx="413.14" cy="390.86" r="1.50" fill="#6ee0a0"/>
<circle cx="428.65" cy="530.98" r="2.00" fill="#e0b86e"/>
<circle cx="428.65" cy="530.98" r="0.60" fill="#13110d"/>
<circle cx="413.34" cy="406.33" r="0.80" fill="#ff8c5a"/>
<circle cx="412.43" cy="398.92" r="0.80" fill="#c0a0ff"/>
<circle cx="421.01" cy="398.71" r="1.50" fill="#6ee0a0"/>
<circle cx="434.59" cy="523.13" r="2.00" fill="#e0b86e"/>
<circle cx="434.59" cy="523.13" r="0.60" fill="#13110d"/>
<circle cx="421.00" cy="412.46" r="0.80" fill="#ff8c5a"/>
<circle cx="420.20" cy="405.88" r="0.80" fill="#c0a0ff"/>
<circle cx="428.85" cy="406.55" r="1.50" fill="#6ee0a0"/>
<circle cx="440.52" cy="515.29" r="2.00" fill="#e0b86e"/>
<circle cx="440.52" cy="515.29" r="0.60" fill="#13110d"/>
<circle cx="428.65" cy="418.60" r="0.80" fill="#ff8c5a"/>
<circle cx="427.95" cy="412.85" r="0.80" fill="#c0a0ff"/>
<circle cx="436.68" cy="414.40" r="1.50" fill="#6ee0a0"/>
<circle cx="446.44" cy="507.44" r="2.00" fill="#e0b86e"/>
<circle cx="446.44" cy="507.44" r="0.60" fill="#13110d"/>
<circle cx="436.28" cy="424.73" r="0.80" fill="#ff8c5a"/>
<circle cx="435.68" cy="419.81" r="0.80" fill="#c0a0ff"/>
<circle cx="444.51" cy="422.24" r="1.50" fill="#6ee0a0"/>
<circle cx="452.34" cy="499.60" r="2.00" fill="#e0b86e"/>
<circle cx="452.34" cy="499.60" r="0.60" fill="#13110d"/>
<circle cx="443.90" cy="430.86" r="0.80" fill="#ff8c5a"/>
<circle cx="443.40" cy="426.78" r="0.80" fill="#c0a0ff"/>
<circle cx="452.35" cy="430.09" r="1.50" fill="#6ee0a0"/>
<circle cx="458.25" cy="491.75" r="2.00" fill="#e0b86e"/>
<circle cx="458.25" cy="491.75" r="0.60" fill="#13110d"/>
<circle cx="451.52" cy="437.00" r="0.80" fill="#ff8c5a"/>
<circle cx="451.12" cy="433.74" r="0.80" fill="#c0a0ff"/>
<circle cx="460.18" cy="437.93" r="1.50" fill="#6ee0a0"/>
<circle cx="464.15" cy="483.91" r="2.00" fill="#e0b86e"/>
<circle cx="464.15" cy="483.91" r="0.60" fill="#13110d"/>
<circle cx="459.14" cy="443.13" r="0.80" fill="#ff8c5a"/>
<circle cx="458.85" cy="440.70" r="0.80" fill="#c0a0ff"/>
<circle cx="468.01" cy="445.78" r="1.50" fill="#6ee0a0"/>
<circle cx="470.06" cy="476.06" r="2.00" fill="#e0b86e"/>
<circle cx="470.06" cy="476.06" r="0.60" fill="#13110d"/>
<circle cx="466.77" cy="449.26" r="0.80" fill="#ff8c5a"/>
<circle cx="466.57" cy="447.67" r="0.80" fill="#c0a0ff"/>
</svg>