<svg xmlns="http://www.w3.org/2000/svg" width="560" height="1180" viewBox="0 0 560 1180" font-family="Georgia,serif">
<rect width="560" height="1180" fill="#13110d"/>
<svg x="6" y="6" width="379" height="238" viewBox="0 0 940 620">
<defs><linearGradient id="stcap" x1="0" y1="0" x2="0" y2="1"><stop offset="0" stop-color="#e6eaef"/><stop offset="1" stop-color="#737983"/></linearGradient>
       <radialGradient id="stpin" cx=".38" cy=".35" r=".75"><stop offset="0" stop-color="#eef1f5"/><stop offset=".6" stop-color="#9aa0a8"/><stop offset="1" stop-color="#565b63"/></radialGradient></defs>
<rect width="940" height="620" fill="#13110d"/>
<text x="470.0" y="36" fill="#eef0f4" font-size="15" text-anchor="middle">B3 disc/prong state — to scale (Ø1.27, prong Ø2.1, pc 2.49, disc 7.1×2.7 mm)</text>
<text x="200" y="70" fill="#eef0f4" font-size="14" text-anchor="middle">pedal in flat</text>
<line x1="200" y1="110" x2="200" y2="110" stroke="#5a5440" stroke-width="30.5"/>
<line x1="200" y1="110" x2="200" y2="560" stroke="#f0c46a" stroke-width="30.5"/>
<g transform="rotate(0.0 200 200)"><rect x="115.2" y="167.6" width="169.7" height="64.8" rx="32.4" fill="url(#stcap)" stroke="#c0a0ff" stroke-width="2"/><circle cx="259.6" cy="200" r="25.2" fill="url(#stpin)" stroke="#eef0f4" stroke-width="0.8"/><circle cx="140.4" cy="200" r="25.2" fill="url(#stpin)" stroke="#eef0f4" stroke-width="0.8"/><circle cx="200" cy="200" r="2.4" fill="#23262b" stroke="#cfd4da" stroke-width="0.7"/></g>
<g transform="rotate(0.0 200 330)"><rect x="115.2" y="297.6" width="169.7" height="64.8" rx="32.4" fill="url(#stcap)" stroke="#ff8c5a" stroke-width="2"/><circle cx="259.6" cy="330" r="25.2" fill="url(#stpin)" stroke="#eef0f4" stroke-width="0.8"/><circle cx="140.4" cy="330" r="25.2" fill="url(#stpin)" stroke="#eef0f4" stroke-width="0.8"/><circle cx="200" cy="330" r="2.4" fill="#23262b" stroke="#cfd4da" stroke-width="0.7"/></g>
<text x="470" y="70" fill="#eef0f4" font-size="14" text-anchor="middle">pedal in natural</text>
<line x1="470" y1="110" x2="470" y2="200" stroke="#5a5440" stroke-width="30.5"/>
<line x1="470" y1="200" x2="470" y2="560" stroke="#f0c46a" stroke-width="30.5"/>
<g transform="rotate(-55.0 470 200)"><rect x="385.2" y="167.6" width="169.7" height="64.8" rx="32.4" fill="url(#stcap)" stroke="#c0a0ff" stroke-width="2"/><circle cx="529.6" cy="200" r="25.2" fill="url(#stpin)" stroke="#eef0f4" stroke-width="0.8"/><circle cx="410.4" cy="200" r="25.2" fill="url(#stpin)" stroke="#eef0f4" stroke-width="0.8"/><circle cx="470" cy="200" r="2.4" fill="#23262b" stroke="#cfd4da" stroke-width="0.7"/></g>
<g transform="rotate(0.0 470 330)"><rect x="385.2" y="297.6" width="169.7" height="64.8" rx="32.4" fill="url(#stcap)" stroke="#ff8c5a" stroke-width="2"/><circle cx="529.6" cy="330" r="25.2" fill="url(#stpin)" stroke="#eef0f4" stroke-width="0.8"/><circle cx="410.4" cy="330" r="25.2" fill="url(#stpin)" stroke="#eef0f4" stroke-width="0.8"/><circle cx="470" cy="330" r="2.4" fill="#23262b" stroke="#cfd4da" stroke-width="0.7"/></g>
<circle cx="470" cy="200" r="3" fill="#9ad8b0"/><text x="379" y="204" fill="#9ad8b0" font-size="9" text-anchor="end">node</text>
<text x="740" y="70" fill="#eef0f4" font-size="14" text-anchor="middle">pedal in sharp</text>
<line x1="740" y1="110" x2="740" y2="330" stroke="#5a5440" stroke-width="30.5"/>
<line x1="740" y1="330" x2="740" y2="560" stroke="#f0c46a" stroke-width="30.5"/>
<g transform="rotate(-55.0 740 200)"><rect x="655.2" y="167.6" width="169.7" height="64.8" rx="32.4" fill="url(#stcap)" stroke="#c0a0ff" stroke-width="2"/><circle cx="799.6" cy="200" r="25.2" fill="url(#stpin)" stroke="#eef0f4" stroke-width="0.8"/><circle cx="680.4" cy="200" r="25.2" fill="url(#stpin)" stroke="#eef0f4" stroke-width="0.8"/><circle cx="740" cy="200" r="2.4" fill="#23262b" stroke="#cfd4da" stroke-width="0.7"/></g>
<g transform="rotate(-55.0 740 330)"><rect x="655.2" y="297.6" width="169.7" height="64.8" rx="32.4" fill="url(#stcap)" stroke="#ff8c5a" stroke-width="2"/><circle cx="799.6" cy="330" r="25.2" fill="url(#stpin)" stroke="#eef0f4" stroke-width="0.8"/><circle cx="680.4" cy="330" r="25.2" fill="url(#stpin)" stroke="#eef0f4" stroke-width="0.8"/><circle cx="740" cy="330" r="2.4" fill="#23262b" stroke="#cfd4da" stroke-width="0.7"/></g>
<circle cx="740" cy="330" r="3" fill="#9ad8b0"/><text x="649" y="334" fill="#9ad8b0" font-size="9" text-anchor="end">node</text>
<text x="200" y="107" fill="#c0a0ff" font-size="9" text-anchor="middle">natural disc</text>
<text x="200" y="378" fill="#ff8c5a" font-size="9" text-anchor="middle">sharp disc</text>
<line x1="60" y1="590" x2="180" y2="590" stroke="#aeb3bd" stroke-width="2"/><text x="120.0" y="584" fill="#aeb3bd" font-size="10" text-anchor="middle">5 mm</text>
<text x="600" y="592" fill="#8a8f98" font-size="10">flat: prongs straddle string, 0.8 mm air/side · engage CCW · pins seated flush in the capsule tips</text>
</svg>
<line x1="6" y1="247" x2="554" y2="247" stroke="#3a3e44" stroke-width="1"/>
<g transform="translate(0,250)">
<defs><linearGradient id="st" x1="0" y1="0" x2="0" y2="1"><stop offset="0" stop-color="#c8ccd3"/><stop offset=".5" stop-color="#9094a0"/><stop offset="1" stop-color="#54585f"/></linearGradient></defs>
<rect width="560" height="930" fill="#13110d"/>
<line x1="94.17" y1="89.10" x2="186.48" y2="840.91" stroke="#7d7762" stroke-width="3.35" stroke-linecap="round"/>
<line x1="103.55" y1="105.53" x2="191.82" y2="824.48" stroke="#7d7762" stroke-width="3.10" stroke-linecap="round"/>
<line x1="112.79" y1="121.35" x2="197.18" y2="808.66" stroke="#7d7762" stroke-width="2.90" stroke-linecap="round"/>
<line x1="121.90" y1="136.58" x2="202.55" y2="793.43" stroke="#7d7762" stroke-width="2.54" stroke-linecap="round"/>
<line x1="130.87" y1="151.24" x2="207.92" y2="778.77" stroke="#7d7762" stroke-width="2.44" stroke-linecap="round"/>
<line x1="139.77" y1="165.35" x2="213.35" y2="764.66" stroke="#7d7762" stroke-width="2.44" stroke-linecap="round"/>
<line x1="148.55" y1="178.94" x2="218.80" y2="751.07" stroke="#7d7762" stroke-width="2.03" stroke-linecap="round"/>
<line x1="157.22" y1="192.02" x2="224.25" y2="737.99" stroke="#7d7762" stroke-width="2.03" stroke-linecap="round"/>
<line x1="165.80" y1="204.63" x2="229.74" y2="725.38" stroke="#7d7762" stroke-width="1.83" stroke-linecap="round"/>
<line x1="174.73" y1="216.77" x2="235.69" y2="713.24" stroke="#7d7762" stroke-width="5.28" stroke-linecap="round"/>
<line x1="184.01" y1="228.47" x2="242.10" y2="701.54" stroke="#7d7762" stroke-width="4.98" stroke-linecap="round"/>
<line x1="193.16" y1="239.75" x2="248.48" y2="690.26" stroke="#7d7762" stroke-width="4.67" stroke-linecap="round"/>
<line x1="202.18" y1="250.62" x2="254.83" y2="679.39" stroke="#7d7762" stroke-width="4.37" stroke-linecap="round"/>
<line x1="211.09" y1="261.10" x2="261.16" y2="668.91" stroke="#7d7762" stroke-width="4.11" stroke-linecap="round"/>
<line x1="219.91" y1="271.21" x2="267.50" y2="658.80" stroke="#7d7762" stroke-width="4.11" stroke-linecap="round"/>
<line x1="228.66" y1="280.96" x2="273.86" y2="649.05" stroke="#7d7762" stroke-width="3.86" stroke-linecap="round"/>
<line x1="237.28" y1="290.36" x2="280.16" y2="639.65" stroke="#7d7762" stroke-width="3.35" stroke-linecap="round"/>
<line x1="245.78" y1="299.44" x2="286.44" y2="630.57" stroke="#7d7762" stroke-width="3.35" stroke-linecap="round"/>
<line x1="254.22" y1="308.20" x2="292.73" y2="621.81" stroke="#7d7762" stroke-width="3.10" stroke-linecap="round"/>
<line x1="262.59" y1="316.65" x2="299.02" y2="613.36" stroke="#7d7762" stroke-width="3.10" stroke-linecap="round"/>
<line x1="270.85" y1="324.81" x2="305.27" y2="605.20" stroke="#7d7762" stroke-width="2.54" stroke-linecap="round"/>
<line x1="279.00" y1="332.69" x2="311.50" y2="597.32" stroke="#7d7762" stroke-width="2.54" stroke-linecap="round"/>
<line x1="287.13" y1="340.30" x2="317.75" y2="589.71" stroke="#7d7762" stroke-width="2.54" stroke-linecap="round"/>
<line x1="295.19" y1="347.66" x2="324.00" y2="582.35" stroke="#7d7762" stroke-width="2.29" stroke-linecap="round"/>
<line x1="303.18" y1="354.77" x2="330.26" y2="575.24" stroke="#7d7762" stroke-width="2.29" stroke-linecap="round"/>
<line x1="311.15" y1="361.63" x2="336.54" y2="568.38" stroke="#7d7762" stroke-width="2.29" stroke-linecap="round"/>
<line x1="319.06" y1="368.28" x2="342.81" y2="561.73" stroke="#7d7762" stroke-width="2.03" stroke-linecap="round"/>
<line x1="326.91" y1="374.70" x2="349.09" y2="555.31" stroke="#7d7762" stroke-width="2.03" stroke-linecap="round"/>
<line x1="334.73" y1="380.91" x2="355.38" y2="549.10" stroke="#7d7762" stroke-width="2.03" stroke-linecap="round"/>
<line x1="342.51" y1="386.92" x2="361.68" y2="543.09" stroke="#7d7762" stroke-width="1.83" stroke-linecap="round"/>
<line x1="350.23" y1="392.74" x2="367.98" y2="537.27" stroke="#7d7762" stroke-width="1.83" stroke-linecap="round"/>
<line x1="357.93" y1="398.37" x2="374.29" y2="531.64" stroke="#7d7762" stroke-width="1.83" stroke-linecap="round"/>
<line x1="365.58" y1="403.82" x2="380.61" y2="526.19" stroke="#7d7762" stroke-width="1.63" stroke-linecap="round"/>
<line x1="373.19" y1="409.10" x2="386.92" y2="520.91" stroke="#7d7762" stroke-width="1.63" stroke-linecap="round"/>
<line x1="380.78" y1="414.21" x2="393.25" y2="515.80" stroke="#7d7762" stroke-width="1.63" stroke-linecap="round"/>
<line x1="388.34" y1="419.16" x2="399.60" y2="510.85" stroke="#7d7762" stroke-width="1.63" stroke-linecap="round"/>
<line x1="395.88" y1="423.97" x2="405.95" y2="506.04" stroke="#7d7762" stroke-width="1.52" stroke-linecap="round"/>
<line x1="403.38" y1="428.62" x2="412.32" y2="501.39" stroke="#7d7762" stroke-width="1.52" stroke-linecap="round"/>
<line x1="410.87" y1="433.13" x2="418.69" y2="496.88" stroke="#7d7762" stroke-width="1.52" stroke-linecap="round"/>
<line x1="418.32" y1="437.50" x2="425.08" y2="492.51" stroke="#7d7762" stroke-width="1.42" stroke-linecap="round"/>
<line x1="425.75" y1="441.74" x2="431.46" y2="488.27" stroke="#7d7762" stroke-width="1.42" stroke-linecap="round"/>
<line x1="433.15" y1="445.86" x2="437.85" y2="484.15" stroke="#7d7762" stroke-width="1.32" stroke-linecap="round"/>
<line x1="440.52" y1="449.85" x2="444.24" y2="480.16" stroke="#7d7762" stroke-width="1.27" stroke-linecap="round"/>
<line x1="447.86" y1="453.73" x2="450.63" y2="476.28" stroke="#7d7762" stroke-width="1.27" stroke-linecap="round"/>
<line x1="455.19" y1="457.49" x2="457.04" y2="472.52" stroke="#7d7762" stroke-width="1.27" stroke-linecap="round"/>
<line x1="462.51" y1="461.14" x2="463.46" y2="468.87" stroke="#7d7762" stroke-width="1.27" stroke-linecap="round"/>
<line x1="468.01" y1="449.97" x2="471.70" y2="480.04" stroke="#7d7762" stroke-width="1.27" stroke-linecap="round"/>
<path d="M 93.66,84.95 95.02,87.03 96.38,89.12 97.73,91.20 99.09,93.27 100.45,95.35 101.80,97.42 103.16,99.49 104.52,101.55 105.87,103.62 107.23,105.68 108.58,107.73 109.93,109.78 111.29,111.83 112.64,113.88 113.99,115.91 115.35,117.95 116.70,119.98 118.05,122.00 119.40,124.02 120.75,126.03 122.09,128.04 123.44,130.04 124.79,132.04 126.14,134.03 127.48,136.01 128.83,137.99 130.17,139.96 131.51,141.92 132.86,143.88 134.20,145.83 135.54,147.77 136.88,149.71 138.22,151.64 139.56,153.56 140.89,155.47 142.23,157.38 143.56,159.28 144.90,161.17 146.23,163.05 147.56,164.93 148.90,166.79 150.23,168.65 151.55,170.51 152.88,172.35 154.21,174.18 155.54,176.01 156.86,177.83 158.19,179.64 159.51,181.44 160.83,183.23 162.15,185.01 163.47,186.79 164.79,188.56 166.11,190.32 167.43,192.06 168.74,193.81 170.06,195.54 171.37,197.26 172.68,198.97 174.00,200.68 175.31,202.38 176.62,204.06 177.92,205.74 179.23,207.41 180.54,209.08 181.84,210.73 183.15,212.37 184.45,214.01 185.75,215.63 187.05,217.25 188.35,218.86 189.65,220.46 190.95,222.05 192.24,223.63 193.54,225.20 194.83,226.77 196.13,228.33 197.42,229.87 198.71,231.41 200.00,232.94 201.29,234.47 202.58,235.98 203.86,237.49 205.15,238.98 206.43,240.47 207.72,241.95 209.00,243.42 210.28,244.89 211.56,246.34 212.84,247.79 214.12,249.23 215.40,250.66 216.68,252.09 217.95,253.50 219.23,254.91 220.50,256.31 221.78,257.71 223.05,259.09 224.32,260.47 225.59,261.84 226.86,263.21 228.13,264.56 229.40,265.91 230.66,267.25 231.93,268.59 233.19,269.92 234.46,271.24 235.72,272.55 236.98,273.86 238.25,275.16 239.51,276.46 240.77,277.75 242.03,279.03 243.29,280.30 244.54,281.57 245.80,282.84 247.06,284.09 248.31,285.35 249.57,286.59 250.82,287.83 252.08,289.06 253.33,290.29 254.58,291.52 255.83,292.73 257.08,293.95 258.33,295.15 259.58,296.35 260.83,297.55 262.08,298.74 263.33,299.93 264.58,301.11 265.82,302.29 267.07,303.46 268.31,304.63 269.56,305.79 270.80,306.95 272.05,308.11 273.29,309.26 274.53,310.40 275.78,311.55 277.02,312.69 278.26,313.82 279.50,314.95 280.74,316.08 281.98,317.20 283.22,318.32 284.46,319.44 285.70,320.55 286.94,321.66 288.17,322.77 289.41,323.87 290.65,324.97 291.89,326.07 293.12,327.17 294.36,328.26 295.60,329.35 296.83,330.43 298.07,331.52 299.30,332.60 300.54,333.68 301.77,334.75 303.00,335.83 304.24,336.90 305.47,337.97 306.70,339.03 307.94,340.10 309.17,341.16 310.40,342.22 311.63,343.28 312.87,344.34 314.10,345.39 315.33,346.44 316.56,347.50 317.79,348.55 319.02,349.59 320.25,350.64 321.48,351.68 322.71,352.73 323.94,353.77 325.17,354.81 326.40,355.84 327.63,356.88 328.86,357.92 330.09,358.95 331.32,359.98 332.55,361.01 333.77,362.04 335.00,363.07 336.23,364.10 337.46,365.12 338.69,366.14 339.91,367.17 341.14,368.19 342.37,369.21 343.60,370.22 344.82,371.24 346.05,372.26 347.28,373.27 348.50,374.28 349.73,375.29 350.95,376.30 352.18,377.31 353.41,378.31 354.63,379.32 355.86,380.32 357.08,381.32 358.31,382.32 359.53,383.31 360.75,384.31 361.98,385.30 363.20,386.29 364.43,387.28 365.65,388.27 366.87,389.25 368.09,390.23 369.32,391.21 370.54,392.19 371.76,393.16 372.98,394.13 374.20,395.10 375.42,396.07 376.64,397.03 377.86,397.99 379.08,398.94 380.30,399.90 381.52,400.85 382.74,401.79 383.96,402.73 385.17,403.67 386.39,404.60 387.61,405.53 388.82,406.46 390.04,407.38 391.25,408.30 392.47,409.21 393.68,410.11 394.89,411.01 396.10,411.91 397.32,412.80 398.53,413.68 399.74,414.56 400.95,415.44 402.15,416.30 403.36,417.16 404.57,418.01 405.77,418.86 406.98,419.70 408.18,420.53 409.39,421.35 410.59,422.17 411.79,422.98 412.99,423.77 414.19,424.56 415.39,425.35 416.58,426.12 417.78,426.88 418.98,427.63 420.17,428.38 421.36,429.11 422.55,429.83 423.74,430.54 424.93,431.24 426.12,431.93 427.30,432.61 428.48,433.27 429.67,433.92 430.85,434.56 432.03,435.19 433.20,435.80 434.38,436.40 435.55,436.98 436.72,437.55 437.89,438.10 439.06,438.64 440.23,439.16 441.39,439.67 442.55,440.16 443.72,440.63 444.87,441.09 446.03,441.52 447.18,441.94 448.33,442.34 449.48,442.72 450.63,443.09 451.77,443.43 452.91,443.75 454.05,444.05 455.19,444.33 456.32,444.58 457.45,444.82 458.58,445.03 459.71,445.21 460.83,445.38 461.95,445.52 463.06,445.63 464.18,445.72 465.29,445.78 466.39,445.81 467.50,445.82 467.50,445.82 467.96,445.85 468.41,445.91 468.86,445.99 469.30,446.10 469.73,446.23 470.16,446.39 470.57,446.58 470.98,446.78 471.39,447.01 471.78,447.27 472.17,447.54 472.55,447.84 472.92,448.15 473.28,448.49 473.64,448.84 473.99,449.22 474.33,449.61 474.66,450.02 474.98,450.45 475.30,450.89 475.60,451.35 475.90,451.82 476.19,452.30 476.47,452.80 476.74,453.32 477.00,453.84 477.25,454.38 477.50,454.93 477.73,455.49 477.96,456.06 478.18,456.63 478.38,457.22 478.58,457.81 478.77,458.41 478.95,459.02 479.12,459.64 479.28,460.25 479.42,460.88 479.56,461.51 479.69,462.14 479.81,462.77 479.92,463.41 480.02,464.05 480.11,464.69 480.19,465.32 480.26,465.96 480.31,466.60 480.36,467.24 480.40,467.87 480.42,468.50 480.44,469.13 480.44,469.76 480.43,470.37 480.42,470.99 480.39,471.60 480.35,472.20 480.29,472.79 480.23,473.38 480.16,473.95 480.07,474.52 479.97,475.08 479.86,475.63 479.74,476.17 479.61,476.69 479.46,477.20 479.31,477.71 479.14,478.19 478.96,478.66 478.76,479.12 478.56,479.56 478.34,479.99 478.11,480.40 477.86,480.79 477.61,481.17 477.34,481.52 477.06,481.86 476.77,482.17 476.46,482.47 476.14,482.74 475.81,483.00 475.46,483.23 475.10,483.43 474.73,483.62 474.34,483.78 473.94,483.91 473.53,484.02 473.10,484.10 472.66,484.16 472.21,484.19 472.21,484.19 471.11,484.20 470.01,484.23 468.91,484.29 467.82,484.38 466.73,484.49 465.65,484.63 464.57,484.80 463.49,484.98 462.41,485.19 461.34,485.43 460.27,485.68 459.20,485.96 458.13,486.26 457.07,486.58 456.01,486.92 454.95,487.29 453.90,487.67 452.85,488.07 451.79,488.49 450.75,488.92 449.70,489.38 448.66,489.85 447.61,490.34 446.57,490.85 445.54,491.37 444.50,491.91 443.47,492.46 442.43,493.03 441.40,493.61 440.37,494.21 439.35,494.82 438.32,495.45 437.30,496.09 436.28,496.74 435.26,497.40 434.24,498.08 433.22,498.77 432.20,499.47 431.19,500.18 430.18,500.90 429.16,501.63 428.15,502.38 427.14,503.13 426.13,503.89 425.13,504.66 424.12,505.45 423.12,506.24 422.11,507.03 421.11,507.84 420.11,508.66 419.11,509.48 418.11,510.31 417.11,511.15 416.11,512.00 415.11,512.85 414.11,513.71 413.12,514.57 412.12,515.45 411.13,516.33 410.14,517.21 409.14,518.10 408.15,519.00 407.16,519.90 406.17,520.80 405.18,521.71 404.19,522.63 403.20,523.55 402.21,524.48 401.22,525.41 400.24,526.34 399.25,527.28 398.26,528.22 397.28,529.16 396.29,530.11 395.31,531.07 394.32,532.02 393.34,532.98 392.35,533.94 391.37,534.91 390.39,535.88 389.40,536.85 388.42,537.82 387.44,538.80 386.46,539.78 385.48,540.76 384.49,541.74 383.51,542.73 382.53,543.72 381.55,544.71 380.57,545.70 379.59,546.70 378.61,547.69 377.63,548.69 376.65,549.69 375.67,550.69 374.69,551.70 373.72,552.70 372.74,553.71 371.76,554.72 370.78,555.73 369.80,556.74 368.83,557.75 367.85,558.77 366.87,559.79 365.89,560.80 364.92,561.82 363.94,562.84 362.96,563.87 361.99,564.89 361.01,565.91 360.04,566.94 359.06,567.97 358.08,569.00 357.11,570.03 356.13,571.06 355.16,572.09 354.18,573.13 353.21,574.16 352.23,575.20 351.26,576.24 350.28,577.28 349.31,578.33 348.34,579.37 347.36,580.42 346.39,581.46 345.42,582.51 344.44,583.57 343.47,584.62 342.50,585.67 341.53,586.73 340.55,587.79 339.58,588.85 338.61,589.91 337.64,590.98 336.67,592.04 335.70,593.11 334.73,594.18 333.76,595.26 332.79,596.33 331.82,597.41 330.85,598.49 329.88,599.58 328.91,600.66 327.94,601.75 326.97,602.84 326.00,603.94 325.04,605.04 324.07,606.14 323.10,607.24 322.14,608.35 321.17,609.46 320.21,610.57 319.24,611.69 318.28,612.81 317.31,613.93 316.35,615.06 315.39,616.19 314.42,617.32 313.46,618.46 312.50,619.61 311.54,620.75 310.58,621.90 309.62,623.06 308.66,624.22 307.70,625.38 306.74,626.55 305.78,627.72 304.82,628.90 303.87,630.08 302.91,631.27 301.95,632.46 301.00,633.66 300.04,634.86 299.09,636.06 298.14,637.28 297.18,638.49 296.23,639.72 295.28,640.95 294.33,642.18 293.38,643.42 292.43,644.66 291.48,645.92 290.54,647.17 289.59,648.44 288.64,649.71 287.70,650.98 286.75,652.26 285.81,653.55 284.86,654.85 283.92,656.15 282.98,657.46 282.04,658.77 281.10,660.09 280.16,661.42 279.22,662.75 278.29,664.10 277.35,665.45 276.41,666.80 275.48,668.17 274.55,669.54 273.61,670.92 272.68,672.30 271.75,673.70 270.82,675.10 269.89,676.51 268.96,677.92 268.04,679.35 267.11,680.78 266.18,682.22 265.26,683.67 264.34,685.12 263.41,686.59 262.49,688.06 261.57,689.54 260.65,691.03 259.73,692.52 258.82,694.03 257.90,695.54 256.99,697.07 256.07,698.60 255.16,700.14 254.25,701.68 253.34,703.24 252.43,704.81 251.52,706.38 250.61,707.96 249.70,709.55 248.80,711.15 247.89,712.76 246.99,714.38 246.09,716.00 245.18,717.64 244.28,719.28 243.39,720.93 242.49,722.60 241.59,724.27 240.69,725.95 239.80,727.63 238.91,729.33 238.01,731.04 237.12,732.75 236.23,734.47 235.34,736.20 234.45,737.95 233.57,739.69 232.68,741.45 231.79,743.22 230.91,744.99 230.03,746.78 229.15,748.57 228.26,750.37 227.38,752.18 226.51,754.00 225.63,755.83 224.75,757.66 223.87,759.50 223.00,761.36 222.13,763.22 221.25,765.08 220.38,766.96 219.51,768.84 218.64,770.73 217.77,772.63 216.90,774.54 216.04,776.45 215.17,778.37 214.31,780.30 213.44,782.24 212.58,784.18 211.71,786.13 210.85,788.09 209.99,790.05 209.13,792.02 208.27,794.00 207.41,795.98 206.56,797.97 205.70,799.97 204.84,801.97 203.99,803.98 203.13,805.99 202.28,808.01 201.42,810.03 200.57,812.06 199.72,814.10 198.87,816.13 198.02,818.18 197.17,820.23 196.32,822.28 195.47,824.33 194.62,826.39 193.77,828.45 192.92,830.52 192.07,832.59 191.22,834.66 190.38,836.74 189.53,838.81 188.68,840.89 187.84,842.98 186.99,845.06 186.99,845.06 185.86,847.39 184.67,848.98 183.42,849.85 182.12,850.01 180.76,849.48 179.36,848.28 177.90,846.42 176.40,843.92 174.86,840.80 173.27,837.07 171.65,832.76 169.98,827.87 168.28,822.43 166.55,816.46 164.79,809.96 162.99,802.96 161.17,795.48 159.32,787.53 157.45,779.12 155.56,770.29 153.65,761.03 151.72,751.37 149.78,741.33 147.83,730.92 145.86,720.17 143.89,709.08 141.91,697.68 139.92,685.97 137.94,673.99 135.95,661.74 133.96,649.25 131.98,636.52 130.01,623.59 128.04,610.45 126.08,597.14 124.14,583.67 122.21,570.05 120.29,556.30 118.40,542.44 116.52,528.49 114.67,514.46 112.85,500.37 111.05,486.24 109.28,472.09 107.54,457.92 105.83,443.77 104.16,429.64 102.53,415.55 100.93,401.52 99.38,387.57 97.87,373.71 96.41,359.96 95.00,346.34 93.63,332.87 92.32,319.56 91.06,306.42 89.86,293.48 88.72,280.76 87.64,268.27 86.62,256.02 85.66,244.04 84.77,232.33 83.95,220.93 83.20,209.84 82.53,199.09 81.93,188.68 81.40,178.64 80.96,168.98 80.60,159.72 80.32,150.89 80.12,142.48 80.02,134.53 80.00,127.05 80.08,120.05 80.25,113.55 80.51,107.58 80.88,102.14 81.34,97.25 81.91,92.94 82.58,89.21 83.35,86.09 84.24,83.59 85.24,81.73 86.35,80.53 87.57,80.00 88.91,80.16 90.37,81.03 91.96,82.62 93.66,84.95 Z M 94.68,93.24 96.13,96.09 97.58,98.93 99.03,101.75 100.48,104.56 101.92,107.34 103.36,110.11 104.80,112.87 106.24,115.60 107.68,118.32 109.11,121.02 110.54,123.71 111.97,126.38 113.40,129.03 114.83,131.67 116.25,134.28 117.67,136.89 119.09,139.47 120.51,142.04 121.92,144.59 123.34,147.12 124.75,149.64 126.16,152.14 127.56,154.62 128.97,157.09 130.37,159.54 131.77,161.97 133.17,164.39 134.57,166.79 135.96,169.17 137.35,171.54 138.75,173.89 140.13,176.23 141.52,178.54 142.91,180.85 144.29,183.13 145.67,185.40 147.05,187.65 148.42,189.89 149.80,192.11 151.17,194.32 152.54,196.51 153.91,198.68 155.28,200.84 156.64,202.98 158.01,205.11 159.37,207.22 160.73,209.32 162.09,211.40 163.44,213.46 164.80,215.51 166.15,217.55 167.50,219.57 168.85,221.58 170.19,223.57 171.54,225.54 172.88,227.50 174.22,229.45 175.56,231.38 176.90,233.30 178.23,235.21 179.57,237.10 180.90,238.97 182.23,240.83 183.56,242.68 184.89,244.52 186.21,246.34 187.54,248.15 188.86,249.94 190.18,251.72 191.50,253.49 192.82,255.24 194.13,256.98 195.45,258.71 196.76,260.43 198.07,262.13 199.38,263.82 200.69,265.50 202.00,267.17 203.30,268.82 204.61,270.46 205.91,272.09 207.21,273.71 208.51,275.32 209.81,276.91 211.10,278.50 212.40,280.07 213.69,281.63 214.98,283.18 216.28,284.72 217.56,286.25 218.85,287.77 220.14,289.27 221.43,290.77 222.71,292.25 223.99,293.73 225.28,295.20 226.56,296.65 227.84,298.10 229.11,299.53 230.39,300.96 231.67,302.38 232.94,303.78 234.22,305.18 235.49,306.57 236.76,307.95 238.03,309.32 239.30,310.68 240.57,312.03 241.84,313.38 243.10,314.72 244.37,316.04 245.63,317.36 246.89,318.67 248.16,319.98 249.42,321.27 250.68,322.56 251.94,323.84 253.20,325.12 254.45,326.38 255.71,327.64 256.97,328.89 258.22,330.13 259.47,331.37 260.73,332.60 261.98,333.82 263.23,335.04 264.48,336.25 265.73,337.45 266.98,338.65 268.23,339.84 269.48,341.03 270.72,342.20 271.97,343.38 273.22,344.54 274.46,345.71 275.70,346.86 276.95,348.01 278.19,349.16 279.43,350.29 280.67,351.43 281.91,352.56 283.15,353.68 284.39,354.80 285.63,355.91 286.87,357.02 288.11,358.12 289.34,359.22 290.58,360.32 291.82,361.41 293.05,362.49 294.29,363.57 295.52,364.65 296.76,365.72 297.99,366.79 299.22,367.86 300.45,368.92 301.69,369.97 302.92,371.02 304.15,372.07 305.38,373.12 306.61,374.16 307.84,375.19 309.07,376.22 310.29,377.25 311.52,378.28 312.75,379.30 313.98,380.32 315.20,381.33 316.43,382.34 317.66,383.35 318.88,384.36 320.11,385.36 321.33,386.36 322.55,387.35 323.78,388.34 325.00,389.33 326.22,390.31 327.45,391.29 328.67,392.27 329.89,393.24 331.11,394.21 332.33,395.18 333.55,396.15 334.77,397.11 335.99,398.06 337.21,399.02 338.43,399.97 339.65,400.91 340.87,401.86 342.09,402.80 343.30,403.74 344.52,404.67 345.74,405.60 346.95,406.52 348.17,407.45 349.38,408.37 350.60,409.28 351.81,410.19 353.02,411.10 354.24,412.00 355.45,412.90 356.66,413.80 357.87,414.69 359.08,415.58 360.29,416.46 361.50,417.34 362.71,418.21 363.92,419.08 365.13,419.95 366.34,420.81 367.55,421.66 368.75,422.51 369.96,423.36 371.16,424.20 372.37,425.03 373.57,425.86 374.77,426.69 375.98,427.50 377.18,428.32 378.38,429.12 379.58,429.92 380.78,430.72 381.98,431.51 383.18,432.29 384.37,433.06 385.57,433.83 386.77,434.59 387.96,435.35 389.16,436.09 390.35,436.83 391.54,437.56 392.73,438.29 393.92,439.00 395.11,439.71 396.30,440.41 397.48,441.10 398.67,441.78 399.85,442.45 401.04,443.11 402.22,443.77 403.40,444.41 404.58,445.04 405.76,445.66 406.94,446.28 408.11,446.88 409.29,447.47 410.46,448.05 411.63,448.61 412.80,449.17 413.97,449.71 415.14,450.24 416.30,450.76 417.47,451.26 418.63,451.76 419.79,452.23 420.95,452.70 422.11,453.15 423.26,453.58 424.42,454.00 425.57,454.41 426.72,454.80 427.87,455.17 429.01,455.53 430.16,455.87 431.30,456.19 432.44,456.50 433.58,456.79 434.71,457.06 435.84,457.31 436.97,457.54 438.10,457.75 439.23,457.95 440.35,458.12 441.47,458.28 442.59,458.41 443.71,458.52 444.82,458.61 445.93,458.68 447.04,458.72 448.14,458.74 449.24,458.74 450.34,458.71 451.44,458.66 452.53,458.59 453.62,458.49 454.71,458.36 455.79,458.20 456.87,458.02 457.95,457.82 459.02,457.58 460.09,457.32 461.16,457.02 462.22,456.70 463.28,456.35 464.33,455.96 465.38,455.55 466.43,455.10 467.47,454.62 468.51,454.11 468.51,454.11 468.81,453.99 469.10,453.89 469.38,453.82 469.66,453.77 469.94,453.74 470.21,453.74 470.48,453.76 470.74,453.80 471.00,453.86 471.26,453.94 471.51,454.04 471.75,454.16 471.99,454.30 472.23,454.46 472.46,454.64 472.69,454.83 472.91,455.04 473.13,455.26 473.34,455.51 473.55,455.76 473.75,456.03 473.94,456.31 474.13,456.61 474.32,456.92 474.50,457.23 474.67,457.57 474.84,457.91 475.00,458.26 475.16,458.62 475.31,458.99 475.45,459.37 475.59,459.76 475.72,460.15 475.85,460.55 475.97,460.95 476.08,461.37 476.19,461.78 476.29,462.20 476.38,462.63 476.47,463.06 476.55,463.49 476.63,463.92 476.69,464.35 476.75,464.79 476.81,465.22 476.85,465.66 476.89,466.09 476.92,466.52 476.95,466.95 476.97,467.38 476.98,467.81 476.98,468.23 476.97,468.64 476.96,469.05 476.94,469.46 476.91,469.86 476.88,470.25 476.83,470.64 476.78,471.02 476.72,471.39 476.66,471.75 476.58,472.10 476.50,472.44 476.40,472.78 476.30,473.09 476.19,473.40 476.08,473.70 475.95,473.98 475.82,474.25 475.67,474.50 475.52,474.75 475.36,474.97 475.19,475.18 475.01,475.37 474.82,475.55 474.62,475.71 474.42,475.85 474.20,475.97 473.97,476.07 473.74,476.15 473.50,476.21 473.24,476.25 472.98,476.27 472.70,476.27 472.42,476.24 472.13,476.19 471.83,476.12 471.51,476.02 471.19,475.90 471.19,475.90 470.02,475.39 468.86,474.91 467.71,474.46 466.55,474.05 465.40,473.66 464.26,473.31 463.12,472.99 461.98,472.69 460.84,472.43 459.71,472.19 458.59,471.99 457.46,471.81 456.34,471.65 455.22,471.52 454.11,471.42 453.00,471.35 451.89,471.30 450.78,471.27 449.68,471.27 448.58,471.29 447.48,471.33 446.39,471.40 445.30,471.49 444.21,471.60 443.13,471.73 442.04,471.89 440.96,472.06 439.88,472.26 438.81,472.47 437.73,472.70 436.66,472.95 435.59,473.22 434.53,473.51 433.46,473.82 432.40,474.14 431.34,474.48 430.28,474.84 429.23,475.21 428.17,475.60 427.12,476.01 426.07,476.43 425.02,476.86 423.97,477.31 422.93,477.78 421.88,478.25 420.84,478.75 419.80,479.25 418.76,479.77 417.73,480.30 416.69,480.84 415.66,481.40 414.63,481.96 413.59,482.54 412.56,483.13 411.54,483.73 410.51,484.35 409.48,484.97 408.46,485.60 407.44,486.24 406.41,486.90 405.39,487.56 404.37,488.23 403.36,488.91 402.34,489.60 401.32,490.30 400.31,491.01 399.29,491.72 398.28,492.45 397.27,493.18 396.25,493.92 395.24,494.66 394.23,495.42 393.23,496.18 392.22,496.95 391.21,497.72 390.21,498.50 389.20,499.29 388.20,500.09 387.19,500.89 386.19,501.69 385.19,502.51 384.18,503.32 383.18,504.15 382.18,504.98 381.18,505.81 380.19,506.65 379.19,507.50 378.19,508.35 377.19,509.20 376.20,510.06 375.20,510.93 374.20,511.80 373.21,512.67 372.22,513.55 371.22,514.43 370.23,515.32 369.24,516.21 368.24,517.11 367.25,518.01 366.26,518.91 365.27,519.82 364.28,520.73 363.29,521.64 362.30,522.56 361.31,523.49 360.32,524.41 359.34,525.34 358.35,526.27 357.36,527.21 356.37,528.15 355.39,529.09 354.40,530.04 353.42,530.99 352.43,531.95 351.45,532.90 350.46,533.86 349.48,534.83 348.50,535.80 347.51,536.77 346.53,537.74 345.55,538.72 344.57,539.70 343.59,540.68 342.60,541.67 341.62,542.66 340.64,543.65 339.66,544.65 338.69,545.65 337.71,546.66 336.73,547.66 335.75,548.68 334.77,549.69 333.80,550.71 332.82,551.73 331.84,552.76 330.87,553.79 329.89,554.82 328.92,555.85 327.94,556.89 326.97,557.94 326.00,558.99 325.02,560.04 324.05,561.09 323.08,562.15 322.11,563.22 321.14,564.29 320.17,565.36 319.20,566.44 318.23,567.52 317.26,568.60 316.29,569.69 315.32,570.79 314.35,571.89 313.39,572.99 312.42,574.10 311.46,575.21 310.49,576.33 309.53,577.45 308.56,578.58 307.60,579.72 306.64,580.85 305.68,582.00 304.72,583.15 303.76,584.30 302.80,585.47 301.84,586.63 300.88,587.81 299.92,588.98 298.97,590.17 298.01,591.36 297.05,592.56 296.10,593.76 295.15,594.97 294.19,596.19 293.24,597.41 292.29,598.64 291.34,599.88 290.39,601.12 289.44,602.37 288.50,603.63 287.55,604.89 286.60,606.17 285.66,607.45 284.71,608.74 283.77,610.03 282.83,611.33 281.89,612.65 280.95,613.97 280.01,615.29 279.07,616.63 278.13,617.98 277.20,619.33 276.26,620.69 275.33,622.06 274.40,623.44 273.46,624.83 272.53,626.23 271.60,627.63 270.68,629.05 269.75,630.48 268.82,631.91 267.90,633.36 266.98,634.81 266.05,636.28 265.13,637.76 264.21,639.24 263.29,640.74 262.38,642.24 261.46,643.76 260.55,645.29 259.63,646.83 258.72,648.38 257.81,649.94 256.90,651.51 256.00,653.10 255.09,654.69 254.18,656.30 253.28,657.92 252.38,659.55 251.48,661.19 250.58,662.84 249.68,664.51 248.79,666.19 247.89,667.88 247.00,669.58 246.11,671.30 245.22,673.03 244.33,674.77 243.44,676.52 242.56,678.29 241.67,680.07 240.79,681.86 239.91,683.67 239.03,685.49 238.16,687.33 237.28,689.17 236.41,691.04 235.54,692.91 234.67,694.80 233.80,696.71 232.93,698.63 232.07,700.56 231.20,702.51 230.34,704.47 229.48,706.44 228.63,708.43 227.77,710.44 226.92,712.46 226.06,714.50 225.21,716.55 224.36,718.61 223.52,720.69 222.67,722.79 221.83,724.90 220.99,727.03 220.15,729.17 219.31,731.33 218.48,733.50 217.64,735.69 216.81,737.90 215.98,740.12 215.16,742.36 214.33,744.61 213.51,746.88 212.69,749.16 211.87,751.47 211.05,753.78 210.23,756.12 209.42,758.47 208.61,760.84 207.80,763.22 206.99,765.62 206.19,768.04 205.38,770.47 204.58,772.92 203.78,775.39 202.99,777.87 202.19,780.37 201.40,782.89 200.61,785.42 199.82,787.97 199.03,790.54 198.25,793.12 197.46,795.73 196.68,798.34 195.90,800.98 195.13,803.63 194.35,806.30 193.58,808.98 192.81,811.69 192.04,814.41 191.28,817.14 190.51,819.90 189.75,822.67 188.99,825.45 188.23,828.26 187.48,831.08 186.72,833.92 185.97,836.77 185.97,836.77 185.33,838.70 184.62,839.94 183.85,840.48 183.02,840.36 182.12,839.58 181.17,838.17 180.16,836.14 179.10,833.50 177.98,830.27 176.81,826.47 175.60,822.12 174.34,817.22 173.04,811.80 171.69,805.88 170.30,799.46 168.87,792.56 167.41,785.21 165.91,777.41 164.39,769.18 162.83,760.55 161.24,751.52 159.62,742.11 157.98,732.33 156.32,722.21 154.64,711.76 152.94,701.00 151.22,689.93 149.48,678.59 147.74,666.98 145.98,655.12 144.22,643.02 142.45,630.71 140.67,618.19 138.89,605.49 137.11,592.62 135.33,579.60 133.56,566.44 131.79,553.16 130.02,539.78 128.27,526.30 126.53,512.76 124.80,499.15 123.08,485.51 121.38,471.84 119.70,458.17 118.04,444.50 116.41,430.86 114.80,417.25 113.22,403.71 111.66,390.23 110.14,376.85 108.65,363.57 107.19,350.41 105.77,337.39 104.39,324.52 103.05,311.82 101.76,299.30 100.50,286.99 99.30,274.89 98.14,263.03 97.04,251.42 95.98,240.08 94.98,229.01 94.04,218.25 93.16,207.80 92.33,197.68 91.57,187.90 90.88,178.49 90.25,169.46 89.69,160.83 89.20,152.60 88.78,144.80 88.44,137.45 88.17,130.55 87.98,124.13 87.87,118.21 87.85,112.79 87.90,107.89 88.05,103.54 88.28,99.74 88.61,96.51 89.02,93.87 89.53,91.84 90.14,90.43 90.84,89.65 91.64,89.53 92.55,90.07 93.56,91.31 94.68,93.24 Z" fill="url(#st)" fill-rule="evenodd" stroke="#ff9e6b" stroke-width="1.6"/>
<polyline fill="none" stroke="#c0a0ff" stroke-width="0.6" points="99.35,131.29 101.20,134.21 103.06,137.12 104.91,140.03 106.76,142.93 108.62,145.82 110.47,148.70 112.32,151.57 114.18,154.43 116.03,157.28 117.89,160.12 119.74,162.95 121.59,165.77 123.45,168.57 125.30,171.36 127.15,174.14 129.01,176.90 130.86,179.65 132.71,182.39 134.57,185.11 136.42,187.81 138.28,190.50 140.13,193.18 141.98,195.83 143.84,198.47 145.69,201.10 147.54,203.70 149.40,206.29 151.25,208.86 153.10,211.42 154.96,213.95 156.81,216.47 158.66,218.97 160.52,221.46 162.37,223.92 164.23,226.37 166.08,228.79 167.93,231.20 169.79,233.59 171.64,235.96 173.49,238.32 175.35,240.65 177.20,242.97 179.05,245.27 180.91,247.54 182.76,249.80 184.61,252.05 186.47,254.27 188.32,256.47 190.18,258.66 192.03,260.83 193.88,262.98 195.74,265.11 197.59,267.23 199.44,269.32 201.30,271.40 203.15,273.47 205.00,275.51 206.86,277.54 208.71,279.55 210.56,281.54 212.42,283.52 214.27,285.48 216.13,287.43 217.98,289.35 219.83,291.27 221.69,293.16 223.54,295.05 225.39,296.91 227.25,298.76 229.10,300.60 230.95,302.42 232.81,304.23 234.66,306.03 236.51,307.81 238.37,309.57 240.22,311.33 242.08,313.07 243.93,314.80 245.78,316.51 247.64,318.22 249.49,319.91 251.34,321.59 253.20,323.25 255.05,324.91 256.90,326.56 258.76,328.19 260.61,329.82 262.46,331.43 264.32,333.04 266.17,334.63 268.03,336.22 269.88,337.79 271.73,339.36 273.59,340.92 275.44,342.47 277.29,344.01 279.15,345.54 281.00,347.07 282.85,348.59 284.71,350.10 286.56,351.60 288.42,353.10 290.27,354.59 292.12,356.07 293.98,357.55 295.83,359.02 297.68,360.48 299.54,361.94 301.39,363.39 303.24,364.84 305.10,366.28 306.95,367.72 308.80,369.15 310.66,370.57 312.51,371.99 314.37,373.41 316.22,374.82 318.07,376.23 319.93,377.63 321.78,379.03 323.63,380.42 325.49,381.81 327.34,383.19 329.19,384.57 331.05,385.94 332.90,387.31 334.75,388.68 336.61,390.04 338.46,391.40 340.32,392.75 342.17,394.09 344.02,395.44 345.88,396.77 347.73,398.10 349.58,399.43 351.44,400.75 353.29,402.06 355.14,403.37 357.00,404.67 358.85,405.97 360.70,407.26 362.56,408.54 364.41,409.82 366.27,411.09 368.12,412.35 369.97,413.60 371.83,414.85 373.68,416.08 375.53,417.31 377.39,418.53 379.24,419.73 381.09,420.93 382.95,422.11 384.80,423.29 386.65,424.45 388.51,425.60 390.36,426.74 392.22,427.86 394.07,428.97 395.92,430.06 397.78,431.14 399.63,432.20 401.48,433.25 403.34,434.28 405.19,435.29 407.04,436.28 408.90,437.25 410.75,438.20 412.60,439.13 414.46,440.03 416.31,440.92 418.17,441.77 420.02,442.61 421.87,443.41 423.73,444.19 425.58,444.95 427.43,445.67 429.29,446.36 431.14,447.02 432.99,447.65 434.85,448.24 436.70,448.80 438.56,449.33 440.41,449.81 442.26,450.26 444.12,450.67 445.97,451.03 447.82,451.36 449.68,451.63 451.53,451.87 453.38,452.05 455.24,452.19 457.09,452.28 458.94,452.31 460.80,452.29 462.65,452.22 464.51,452.09 466.36,451.90 468.21,451.65"/>
<polyline fill="none" stroke="#ff8c5a" stroke-width="0.6" points="104.24,171.12 106.07,173.72 107.90,176.32 109.73,178.91 111.56,181.49 113.39,184.06 115.22,186.63 117.05,189.18 118.88,191.73 120.71,194.27 122.54,196.79 124.37,199.30 126.20,201.81 128.03,204.30 129.86,206.78 131.69,209.24 133.52,211.70 135.35,214.14 137.18,216.56 139.01,218.98 140.84,221.37 142.67,223.76 144.50,226.13 146.33,228.48 148.16,230.82 149.99,233.14 151.82,235.45 153.65,237.75 155.48,240.02 157.31,242.28 159.14,244.53 160.97,246.76 162.80,248.97 164.63,251.16 166.46,253.34 168.29,255.50 170.12,257.65 171.95,259.78 173.78,261.89 175.61,263.98 177.44,266.06 179.27,268.12 181.10,270.17 182.93,272.20 184.76,274.21 186.59,276.20 188.42,278.18 190.25,280.14 192.08,282.09 193.91,284.02 195.74,285.93 197.57,287.82 199.40,289.70 201.23,291.57 203.06,293.42 204.89,295.25 206.72,297.07 208.55,298.87 210.38,300.65 212.21,302.42 214.04,304.18 215.87,305.92 217.70,307.65 219.53,309.36 221.36,311.06 223.19,312.74 225.02,314.41 226.85,316.07 228.68,317.71 230.51,319.34 232.34,320.95 234.17,322.56 236.00,324.15 237.83,325.73 239.66,327.29 241.49,328.85 243.32,330.39 245.15,331.92 246.98,333.44 248.81,334.95 250.64,336.44 252.47,337.93 254.30,339.40 256.13,340.87 257.96,342.33 259.79,343.77 261.62,345.21 263.45,346.64 265.28,348.05 267.11,349.46 268.94,350.86 270.77,352.26 272.60,353.64 274.43,355.02 276.26,356.38 278.09,357.74 279.92,359.10 281.75,360.44 283.58,361.78 285.41,363.12 287.24,364.44 289.07,365.76 290.90,367.08 292.73,368.38 294.56,369.68 296.39,370.98 298.22,372.27 300.05,373.55 301.88,374.83 303.71,376.11 305.54,377.38 307.37,378.64 309.20,379.90 311.03,381.16 312.86,382.41 314.69,383.66 316.52,384.90 318.35,386.14 320.18,387.37 322.01,388.60 323.84,389.82 325.67,391.04 327.50,392.26 329.33,393.47 331.16,394.68 332.99,395.89 334.82,397.09 336.65,398.29 338.48,399.48 340.31,400.67 342.14,401.85 343.97,403.03 345.80,404.21 347.63,405.38 349.46,406.55 351.29,407.71 353.12,408.87 354.95,410.02 356.78,411.16 358.61,412.31 360.44,413.44 362.27,414.57 364.10,415.70 365.93,416.81 367.76,417.92 369.59,419.03 371.42,420.13 373.25,421.22 375.08,422.30 376.91,423.37 378.74,424.44 380.57,425.49 382.40,426.54 384.23,427.58 386.06,428.61 387.89,429.62 389.72,430.63 391.55,431.62 393.38,432.61 395.21,433.58 397.04,434.53 398.87,435.48 400.70,436.40 402.53,437.32 404.36,438.22 406.19,439.10 408.02,439.96 409.85,440.81 411.68,441.64 413.51,442.45 415.34,443.24 417.17,444.01 419.00,444.76 420.83,445.49 422.66,446.19 424.49,446.87 426.32,447.53 428.15,448.15 429.98,448.76 431.81,449.33 433.64,449.88 435.47,450.39 437.30,450.88 439.13,451.33 440.96,451.75 442.79,452.14 444.62,452.49 446.45,452.80 448.28,453.08 450.11,453.31 451.94,453.51 453.77,453.67 455.60,453.78 457.43,453.85 459.26,453.87 461.09,453.84 462.92,453.77 464.75,453.65 466.58,453.47 468.41,453.25"/>
<circle cx="96.07" cy="88.86" r="1.50" fill="#6ee0a0"/>
<circle cx="186.48" cy="840.91" r="2.00" fill="#e0b86e"/>
<circle cx="186.48" cy="840.91" r="0.60" fill="#13110d"/>
<circle cx="104.24" cy="171.12" r="0.80" fill="#ff8c5a"/>
<circle cx="99.35" cy="131.29" r="0.80" fill="#c0a0ff"/>
<circle cx="105.42" cy="105.30" r="1.50" fill="#6ee0a0"/>
<circle cx="191.82" cy="824.48" r="2.00" fill="#e0b86e"/>
<circle cx="191.82" cy="824.48" r="0.60" fill="#13110d"/>
<circle cx="113.18" cy="183.97" r="0.80" fill="#ff8c5a"/>
<circle cx="108.50" cy="145.88" r="0.80" fill="#c0a0ff"/>
<circle cx="114.64" cy="121.13" r="1.50" fill="#6ee0a0"/>
<circle cx="197.18" cy="808.66" r="2.00" fill="#e0b86e"/>
<circle cx="197.18" cy="808.66" r="0.60" fill="#13110d"/>
<circle cx="122.00" cy="196.34" r="0.80" fill="#ff8c5a"/>
<circle cx="117.53" cy="159.93" r="0.80" fill="#c0a0ff"/>
<circle cx="123.70" cy="136.36" r="1.50" fill="#6ee0a0"/>
<circle cx="202.55" cy="793.43" r="2.00" fill="#e0b86e"/>
<circle cx="202.55" cy="793.43" r="0.60" fill="#13110d"/>
<circle cx="130.70" cy="208.24" r="0.80" fill="#ff8c5a"/>
<circle cx="126.42" cy="173.45" r="0.80" fill="#c0a0ff"/>
<circle cx="132.66" cy="151.02" r="1.50" fill="#6ee0a0"/>
<circle cx="207.92" cy="778.77" r="2.00" fill="#e0b86e"/>
<circle cx="207.92" cy="778.77" r="0.60" fill="#13110d"/>
<circle cx="139.28" cy="219.70" r="0.80" fill="#ff8c5a"/>
<circle cx="135.20" cy="186.46" r="0.80" fill="#c0a0ff"/>
<circle cx="141.56" cy="165.13" r="1.50" fill="#6ee0a0"/>
<circle cx="213.35" cy="764.66" r="2.00" fill="#e0b86e"/>
<circle cx="213.35" cy="764.66" r="0.60" fill="#13110d"/>
<circle cx="147.80" cy="230.73" r="0.80" fill="#ff8c5a"/>
<circle cx="143.90" cy="198.98" r="0.80" fill="#c0a0ff"/>
<circle cx="150.29" cy="178.72" r="1.50" fill="#6ee0a0"/>
<circle cx="218.80" cy="751.07" r="2.00" fill="#e0b86e"/>
<circle cx="218.80" cy="751.07" r="0.60" fill="#13110d"/>
<circle cx="156.21" cy="241.36" r="0.80" fill="#ff8c5a"/>
<circle cx="152.49" cy="211.05" r="0.80" fill="#c0a0ff"/>
<circle cx="158.96" cy="191.81" r="1.50" fill="#6ee0a0"/>
<circle cx="224.25" cy="737.99" r="2.00" fill="#e0b86e"/>
<circle cx="224.25" cy="737.99" r="0.60" fill="#13110d"/>
<circle cx="164.53" cy="251.59" r="0.80" fill="#ff8c5a"/>
<circle cx="160.98" cy="222.67" r="0.80" fill="#c0a0ff"/>
<circle cx="167.51" cy="204.42" r="1.50" fill="#6ee0a0"/>
<circle cx="229.74" cy="725.38" r="2.00" fill="#e0b86e"/>
<circle cx="229.74" cy="725.38" r="0.60" fill="#13110d"/>
<circle cx="172.77" cy="261.44" r="0.80" fill="#ff8c5a"/>
<circle cx="169.39" cy="233.86" r="0.80" fill="#c0a0ff"/>
<circle cx="176.88" cy="216.51" r="1.50" fill="#6ee0a0"/>
<circle cx="235.69" cy="713.24" r="2.00" fill="#e0b86e"/>
<circle cx="235.69" cy="713.24" r="0.66" fill="#13110d"/>
<circle cx="181.38" cy="270.94" r="0.80" fill="#ff8c5a"/>
<circle cx="178.16" cy="244.64" r="0.80" fill="#c0a0ff"/>
<circle cx="186.12" cy="228.22" r="1.50" fill="#6ee0a0"/>
<circle cx="242.10" cy="701.54" r="2.00" fill="#e0b86e"/>
<circle cx="242.10" cy="701.54" r="0.62" fill="#13110d"/>
<circle cx="190.35" cy="280.09" r="0.80" fill="#ff8c5a"/>
<circle cx="187.27" cy="255.02" r="0.80" fill="#c0a0ff"/>
<circle cx="195.23" cy="239.50" r="1.50" fill="#6ee0a0"/>
<circle cx="248.48" cy="690.26" r="2.00" fill="#e0b86e"/>
<circle cx="248.48" cy="690.26" r="0.60" fill="#13110d"/>
<circle cx="199.20" cy="288.90" r="0.80" fill="#ff8c5a"/>
<circle cx="196.27" cy="265.04" r="0.80" fill="#c0a0ff"/>
<circle cx="204.21" cy="250.37" r="1.50" fill="#6ee0a0"/>
<circle cx="254.83" cy="679.39" r="2.00" fill="#e0b86e"/>
<circle cx="254.83" cy="679.39" r="0.60" fill="#13110d"/>
<circle cx="207.93" cy="297.40" r="0.80" fill="#ff8c5a"/>
<circle cx="205.14" cy="274.69" r="0.80" fill="#c0a0ff"/>
<circle cx="213.09" cy="260.86" r="1.50" fill="#6ee0a0"/>
<circle cx="261.16" cy="668.91" r="2.00" fill="#e0b86e"/>
<circle cx="261.16" cy="668.91" r="0.60" fill="#13110d"/>
<circle cx="216.55" cy="305.60" r="0.80" fill="#ff8c5a"/>
<circle cx="213.90" cy="283.99" r="0.80" fill="#c0a0ff"/>
<circle cx="221.91" cy="270.96" r="1.50" fill="#6ee0a0"/>
<circle cx="267.50" cy="658.80" r="2.00" fill="#e0b86e"/>
<circle cx="267.50" cy="658.80" r="0.60" fill="#13110d"/>
<circle cx="225.11" cy="313.50" r="0.80" fill="#ff8c5a"/>
<circle cx="222.58" cy="292.96" r="0.80" fill="#c0a0ff"/>
<circle cx="230.63" cy="280.72" r="1.50" fill="#6ee0a0"/>
<circle cx="273.86" cy="649.05" r="2.00" fill="#e0b86e"/>
<circle cx="273.86" cy="649.05" r="0.60" fill="#13110d"/>
<circle cx="233.59" cy="321.12" r="0.80" fill="#ff8c5a"/>
<circle cx="231.20" cy="301.62" r="0.80" fill="#c0a0ff"/>
<circle cx="239.18" cy="290.13" r="1.50" fill="#6ee0a0"/>
<circle cx="280.16" cy="639.65" r="2.00" fill="#e0b86e"/>
<circle cx="280.16" cy="639.65" r="0.60" fill="#13110d"/>
<circle cx="241.95" cy="328.47" r="0.80" fill="#ff8c5a"/>
<circle cx="239.68" cy="309.97" r="0.80" fill="#c0a0ff"/>
<circle cx="247.69" cy="299.20" r="1.50" fill="#6ee0a0"/>
<circle cx="286.44" cy="630.57" r="2.00" fill="#e0b86e"/>
<circle cx="286.44" cy="630.57" r="0.60" fill="#13110d"/>
<circle cx="250.22" cy="335.57" r="0.80" fill="#ff8c5a"/>
<circle cx="248.06" cy="318.02" r="0.80" fill="#c0a0ff"/>
<circle cx="256.09" cy="307.97" r="1.50" fill="#6ee0a0"/>
<circle cx="292.73" cy="621.81" r="2.00" fill="#e0b86e"/>
<circle cx="292.73" cy="621.81" r="0.60" fill="#13110d"/>
<circle cx="258.42" cy="342.41" r="0.80" fill="#ff8c5a"/>
<circle cx="256.38" cy="325.80" r="0.80" fill="#c0a0ff"/>
<circle cx="264.46" cy="316.42" r="1.50" fill="#6ee0a0"/>
<circle cx="299.02" cy="613.36" r="2.00" fill="#e0b86e"/>
<circle cx="299.02" cy="613.36" r="0.60" fill="#13110d"/>
<circle cx="266.56" cy="349.02" r="0.80" fill="#ff8c5a"/>
<circle cx="264.63" cy="333.30" r="0.80" fill="#c0a0ff"/>
<circle cx="272.65" cy="324.59" r="1.50" fill="#6ee0a0"/>
<circle cx="305.27" cy="605.20" r="2.00" fill="#e0b86e"/>
<circle cx="305.27" cy="605.20" r="0.60" fill="#13110d"/>
<circle cx="274.60" cy="355.40" r="0.80" fill="#ff8c5a"/>
<circle cx="272.78" cy="340.55" r="0.80" fill="#c0a0ff"/>
<circle cx="280.81" cy="332.47" r="1.50" fill="#6ee0a0"/>
<circle cx="311.50" cy="597.32" r="2.00" fill="#e0b86e"/>
<circle cx="311.50" cy="597.32" r="0.60" fill="#13110d"/>
<circle cx="282.55" cy="361.56" r="0.80" fill="#ff8c5a"/>
<circle cx="280.83" cy="347.54" r="0.80" fill="#c0a0ff"/>
<circle cx="288.93" cy="340.08" r="1.50" fill="#6ee0a0"/>
<circle cx="317.75" cy="589.71" r="2.00" fill="#e0b86e"/>
<circle cx="317.75" cy="589.71" r="0.60" fill="#13110d"/>
<circle cx="290.47" cy="367.51" r="0.80" fill="#ff8c5a"/>
<circle cx="288.85" cy="354.30" r="0.80" fill="#c0a0ff"/>
<circle cx="296.96" cy="347.44" r="1.50" fill="#6ee0a0"/>
<circle cx="324.00" cy="582.35" r="2.00" fill="#e0b86e"/>
<circle cx="324.00" cy="582.35" r="0.60" fill="#13110d"/>
<circle cx="298.33" cy="373.26" r="0.80" fill="#ff8c5a"/>
<circle cx="296.80" cy="360.83" r="0.80" fill="#c0a0ff"/>
<circle cx="304.96" cy="354.55" r="1.50" fill="#6ee0a0"/>
<circle cx="330.26" cy="575.24" r="2.00" fill="#e0b86e"/>
<circle cx="330.26" cy="575.24" r="0.60" fill="#13110d"/>
<circle cx="306.14" cy="378.82" r="0.80" fill="#ff8c5a"/>
<circle cx="304.70" cy="367.14" r="0.80" fill="#c0a0ff"/>
<circle cx="312.92" cy="361.42" r="1.50" fill="#6ee0a0"/>
<circle cx="336.54" cy="568.38" r="2.00" fill="#e0b86e"/>
<circle cx="336.54" cy="568.38" r="0.60" fill="#13110d"/>
<circle cx="313.92" cy="384.19" r="0.80" fill="#ff8c5a"/>
<circle cx="312.58" cy="373.24" r="0.80" fill="#c0a0ff"/>
<circle cx="320.80" cy="368.06" r="1.50" fill="#6ee0a0"/>
<circle cx="342.81" cy="561.73" r="2.00" fill="#e0b86e"/>
<circle cx="342.81" cy="561.73" r="0.60" fill="#13110d"/>
<circle cx="321.65" cy="389.38" r="0.80" fill="#ff8c5a"/>
<circle cx="320.39" cy="379.13" r="0.80" fill="#c0a0ff"/>
<circle cx="328.65" cy="374.48" r="1.50" fill="#6ee0a0"/>
<circle cx="349.09" cy="555.31" r="2.00" fill="#e0b86e"/>
<circle cx="349.09" cy="555.31" r="0.60" fill="#13110d"/>
<circle cx="329.33" cy="394.40" r="0.80" fill="#ff8c5a"/>
<circle cx="328.15" cy="384.84" r="0.80" fill="#c0a0ff"/>
<circle cx="336.47" cy="380.70" r="1.50" fill="#6ee0a0"/>
<circle cx="355.38" cy="549.10" r="2.00" fill="#e0b86e"/>
<circle cx="355.38" cy="549.10" r="0.60" fill="#13110d"/>
<circle cx="336.99" cy="399.26" r="0.80" fill="#ff8c5a"/>
<circle cx="335.89" cy="390.35" r="0.80" fill="#c0a0ff"/>
<circle cx="344.22" cy="386.71" r="1.50" fill="#6ee0a0"/>
<circle cx="361.68" cy="543.09" r="2.00" fill="#e0b86e"/>
<circle cx="361.68" cy="543.09" r="0.60" fill="#13110d"/>
<circle cx="344.60" cy="403.96" r="0.80" fill="#ff8c5a"/>
<circle cx="343.58" cy="395.69" r="0.80" fill="#c0a0ff"/>
<circle cx="351.94" cy="392.53" r="1.50" fill="#6ee0a0"/>
<circle cx="367.98" cy="537.27" r="2.00" fill="#e0b86e"/>
<circle cx="367.98" cy="537.27" r="0.60" fill="#13110d"/>
<circle cx="352.16" cy="408.51" r="0.80" fill="#ff8c5a"/>
<circle cx="351.22" cy="400.85" r="0.80" fill="#c0a0ff"/>
<circle cx="359.64" cy="398.16" r="1.50" fill="#6ee0a0"/>
<circle cx="374.29" cy="531.64" r="2.00" fill="#e0b86e"/>
<circle cx="374.29" cy="531.64" r="0.60" fill="#13110d"/>
<circle cx="359.71" cy="412.91" r="0.80" fill="#ff8c5a"/>
<circle cx="358.85" cy="405.85" r="0.80" fill="#c0a0ff"/>
<circle cx="367.27" cy="403.61" r="1.50" fill="#6ee0a0"/>
<circle cx="380.61" cy="526.19" r="2.00" fill="#e0b86e"/>
<circle cx="380.61" cy="526.19" r="0.60" fill="#13110d"/>
<circle cx="367.22" cy="417.17" r="0.80" fill="#ff8c5a"/>
<circle cx="366.43" cy="410.69" r="0.80" fill="#c0a0ff"/>
<circle cx="374.88" cy="408.89" r="1.50" fill="#6ee0a0"/>
<circle cx="386.92" cy="520.91" r="2.00" fill="#e0b86e"/>
<circle cx="386.92" cy="520.91" r="0.60" fill="#13110d"/>
<circle cx="374.69" cy="421.30" r="0.80" fill="#ff8c5a"/>
<circle cx="373.96" cy="415.37" r="0.80" fill="#c0a0ff"/>
<circle cx="382.47" cy="414.00" r="1.50" fill="#6ee0a0"/>
<circle cx="393.25" cy="515.80" r="2.00" fill="#e0b86e"/>
<circle cx="393.25" cy="515.80" r="0.60" fill="#13110d"/>
<circle cx="382.14" cy="425.29" r="0.80" fill="#ff8c5a"/>
<circle cx="381.48" cy="419.91" r="0.80" fill="#c0a0ff"/>
<circle cx="390.03" cy="418.96" r="1.50" fill="#6ee0a0"/>
<circle cx="399.60" cy="510.85" r="2.00" fill="#e0b86e"/>
<circle cx="399.60" cy="510.85" r="0.60" fill="#13110d"/>
<circle cx="389.57" cy="429.17" r="0.80" fill="#ff8c5a"/>
<circle cx="388.97" cy="424.31" r="0.80" fill="#c0a0ff"/>
<circle cx="397.55" cy="423.76" r="1.50" fill="#6ee0a0"/>
<circle cx="405.95" cy="506.04" r="2.00" fill="#e0b86e"/>
<circle cx="405.95" cy="506.04" r="0.60" fill="#13110d"/>
<circle cx="396.98" cy="432.92" r="0.80" fill="#ff8c5a"/>
<circle cx="396.44" cy="428.57" r="0.80" fill="#c0a0ff"/>
<circle cx="405.06" cy="428.41" r="1.50" fill="#6ee0a0"/>
<circle cx="412.32" cy="501.39" r="2.00" fill="#e0b86e"/>
<circle cx="412.32" cy="501.39" r="0.60" fill="#13110d"/>
<circle cx="404.36" cy="436.56" r="0.80" fill="#ff8c5a"/>
<circle cx="403.88" cy="432.70" r="0.80" fill="#c0a0ff"/>
<circle cx="412.55" cy="432.92" r="1.50" fill="#6ee0a0"/>
<circle cx="418.69" cy="496.88" r="2.00" fill="#e0b86e"/>
<circle cx="418.69" cy="496.88" r="0.60" fill="#13110d"/>
<circle cx="411.72" cy="440.08" r="0.80" fill="#ff8c5a"/>
<circle cx="411.31" cy="436.71" r="0.80" fill="#c0a0ff"/>
<circle cx="419.99" cy="437.30" r="1.50" fill="#6ee0a0"/>
<circle cx="425.08" cy="492.51" r="2.00" fill="#e0b86e"/>
<circle cx="425.08" cy="492.51" r="0.60" fill="#13110d"/>
<circle cx="419.06" cy="443.50" r="0.80" fill="#ff8c5a"/>
<circle cx="418.70" cy="440.59" r="0.80" fill="#c0a0ff"/>
<circle cx="427.42" cy="441.54" r="1.50" fill="#6ee0a0"/>
<circle cx="431.46" cy="488.27" r="2.00" fill="#e0b86e"/>
<circle cx="431.46" cy="488.27" r="0.60" fill="#13110d"/>
<circle cx="426.37" cy="446.82" r="0.80" fill="#ff8c5a"/>
<circle cx="426.07" cy="444.36" r="0.80" fill="#c0a0ff"/>
<circle cx="434.80" cy="445.66" r="1.50" fill="#6ee0a0"/>
<circle cx="437.85" cy="484.15" r="2.00" fill="#e0b86e"/>
<circle cx="437.85" cy="484.15" r="0.60" fill="#13110d"/>
<circle cx="433.66" cy="450.04" r="0.80" fill="#ff8c5a"/>
<circle cx="433.42" cy="448.01" r="0.80" fill="#c0a0ff"/>
<circle cx="442.16" cy="449.65" r="1.50" fill="#6ee0a0"/>
<circle cx="444.24" cy="480.16" r="2.00" fill="#e0b86e"/>
<circle cx="444.24" cy="480.16" r="0.60" fill="#13110d"/>
<circle cx="440.92" cy="453.16" r="0.80" fill="#ff8c5a"/>
<circle cx="440.73" cy="451.55" r="0.80" fill="#c0a0ff"/>
<circle cx="449.51" cy="453.52" r="1.50" fill="#6ee0a0"/>
<circle cx="450.63" cy="476.28" r="2.00" fill="#e0b86e"/>
<circle cx="450.63" cy="476.28" r="0.60" fill="#13110d"/>
<circle cx="448.16" cy="456.19" r="0.80" fill="#ff8c5a"/>
<circle cx="448.02" cy="454.99" r="0.80" fill="#c0a0ff"/>
<circle cx="456.84" cy="457.28" r="1.50" fill="#6ee0a0"/>
<circle cx="457.04" cy="472.52" r="2.00" fill="#e0b86e"/>
<circle cx="457.04" cy="472.52" r="0.60" fill="#13110d"/>
<circle cx="455.39" cy="459.13" r="0.80" fill="#ff8c5a"/>
<circle cx="455.29" cy="458.33" r="0.80" fill="#c0a0ff"/>
<circle cx="464.15" cy="460.93" r="1.50" fill="#6ee0a0"/>
<circle cx="463.46" cy="468.87" r="2.00" fill="#e0b86e"/>
<circle cx="463.46" cy="468.87" r="0.60" fill="#13110d"/>
<circle cx="462.61" cy="461.98" r="0.80" fill="#ff8c5a"/>
<circle cx="462.56" cy="461.57" r="0.80" fill="#c0a0ff"/>
<circle cx="469.65" cy="449.76" r="1.50" fill="#6ee0a0"/>
<circle cx="471.70" cy="480.04" r="2.00" fill="#e0b86e"/>
<circle cx="471.70" cy="480.04" r="0.60" fill="#13110d"/>
<circle cx="468.41" cy="453.25" r="0.80" fill="#ff8c5a"/>
<circle cx="468.21" cy="451.65" r="0.80" fill="#c0a0ff"/>
<g font-family="Georgia,serif"><line x1="430" y1="470" x2="343" y2="603" stroke="#5a6b55" stroke-width="0.7" stroke-dasharray="3 3"/><line x1="445" y1="485" x2="391" y2="579" stroke="#5a6b55" stroke-width="0.7" stroke-dasharray="3 3"/><circle cx="410" cy="670" r="96" fill="#0d0c08" stroke="#c8a24e" stroke-width="3"/><line x1="477" y1="737" x2="525" y2="785" stroke="#c8a24e" stroke-width="6" stroke-linecap="round"/><text x="410" y="590" fill="#cfd4da" font-size="11" text-anchor="middle">string connections</text><path d="M 362,636 L 362,670 Q 362,682 374,684 L 388,710" fill="none" stroke="#d8d2c4" stroke-width="4" stroke-linecap="round"/><circle cx="366" cy="676" r="9" fill="#2f7d52" stroke="#6ee0a0" stroke-width="1.5"/><text x="360" y="754" fill="#6ee0a0" font-size="9" text-anchor="middle">neck: over+wrap</text><line x1="456" y1="626" x2="456" y2="708" stroke="#d8d2c4" stroke-width="4" stroke-linecap="round"/><circle cx="456" cy="668" r="11" fill="none" stroke="#e0b86e" stroke-width="3"/><circle cx="456" cy="698" r="6" fill="#d8d2c4"/><text x="458" y="754" fill="#e0b86e" font-size="9" text-anchor="middle">sndbd: thru+knot</text></g></g>
</svg>