<svg xmlns="http://www.w3.org/2000/svg" width="937" height="980" viewBox="0 0 937 980" font-family="Cormorant Garamond,Georgia,serif">
<defs><linearGradient id="st" x1="0" y1="0" x2="0" y2="1"><stop offset="0" stop-color="#c8ccd3"/><stop offset="0.5" stop-color="#9094a0"/><stop offset="1" stop-color="#54585f"/></linearGradient>
<clipPath id="lens"><circle cx="702" cy="755" r="174"/></clipPath></defs>
<rect width="937" height="980" fill="#13110d"/>
<line x1="101.56" y1="84.14" x2="193.88" y2="835.96" stroke="#7d7762" stroke-width="3.35" stroke-linecap="round"/>
<line x1="109.69" y1="90.41" x2="200.47" y2="829.70" stroke="#7d7762" stroke-width="3.10" stroke-linecap="round"/>
<line x1="117.77" y1="96.67" x2="207.00" y2="823.43" stroke="#7d7762" stroke-width="2.90" stroke-linecap="round"/>
<line x1="125.77" y1="102.94" x2="213.47" y2="817.17" stroke="#7d7762" stroke-width="2.54" stroke-linecap="round"/>
<line x1="133.87" y1="110.46" x2="219.72" y2="809.65" stroke="#7d7762" stroke-width="2.44" stroke-linecap="round"/>
<line x1="141.95" y1="117.98" x2="225.96" y2="802.13" stroke="#7d7762" stroke-width="2.44" stroke-linecap="round"/>
<line x1="149.99" y1="125.50" x2="232.15" y2="794.61" stroke="#7d7762" stroke-width="2.03" stroke-linecap="round"/>
<line x1="157.97" y1="133.01" x2="238.28" y2="787.09" stroke="#7d7762" stroke-width="2.03" stroke-linecap="round"/>
<line x1="166.09" y1="141.79" x2="244.24" y2="778.32" stroke="#7d7762" stroke-width="1.83" stroke-linecap="round"/>
<line x1="174.76" y1="151.81" x2="250.46" y2="768.30" stroke="#7d7762" stroke-width="5.28" stroke-linecap="round"/>
<line x1="183.22" y1="156.82" x2="257.68" y2="763.29" stroke="#7d7762" stroke-width="4.98" stroke-linecap="round"/>
<line x1="192.06" y1="165.59" x2="264.37" y2="754.51" stroke="#7d7762" stroke-width="4.67" stroke-linecap="round"/>
<line x1="202.05" y1="184.39" x2="269.75" y2="735.72" stroke="#7d7762" stroke-width="4.37" stroke-linecap="round"/>
<line x1="211.36" y1="198.17" x2="275.67" y2="721.94" stroke="#7d7762" stroke-width="4.11" stroke-linecap="round"/>
<line x1="220.95" y1="214.46" x2="281.26" y2="705.65" stroke="#7d7762" stroke-width="4.11" stroke-linecap="round"/>
<line x1="230.50" y1="230.75" x2="286.81" y2="689.36" stroke="#7d7762" stroke-width="3.86" stroke-linecap="round"/>
<line x1="239.80" y1="245.79" x2="292.42" y2="674.32" stroke="#7d7762" stroke-width="3.35" stroke-linecap="round"/>
<line x1="249.35" y1="263.33" x2="297.66" y2="656.78" stroke="#7d7762" stroke-width="3.35" stroke-linecap="round"/>
<line x1="258.56" y1="278.37" x2="303.18" y2="641.74" stroke="#7d7762" stroke-width="3.10" stroke-linecap="round"/>
<line x1="267.89" y1="294.65" x2="308.51" y2="625.45" stroke="#7d7762" stroke-width="3.10" stroke-linecap="round"/>
<line x1="276.53" y1="305.93" x2="314.38" y2="614.18" stroke="#7d7762" stroke-width="2.54" stroke-linecap="round"/>
<line x1="285.26" y1="318.46" x2="320.03" y2="601.64" stroke="#7d7762" stroke-width="2.54" stroke-linecap="round"/>
<line x1="293.83" y1="329.74" x2="325.83" y2="590.37" stroke="#7d7762" stroke-width="2.54" stroke-linecap="round"/>
<line x1="302.22" y1="339.76" x2="331.76" y2="580.35" stroke="#7d7762" stroke-width="2.29" stroke-linecap="round"/>
<line x1="310.42" y1="348.53" x2="337.81" y2="571.57" stroke="#7d7762" stroke-width="2.29" stroke-linecap="round"/>
<line x1="318.62" y1="357.31" x2="343.85" y2="562.80" stroke="#7d7762" stroke-width="2.29" stroke-linecap="round"/>
<line x1="326.64" y1="364.83" x2="350.02" y2="555.28" stroke="#7d7762" stroke-width="2.03" stroke-linecap="round"/>
<line x1="334.62" y1="372.34" x2="356.16" y2="547.77" stroke="#7d7762" stroke-width="2.03" stroke-linecap="round"/>
<line x1="342.45" y1="378.60" x2="362.45" y2="541.50" stroke="#7d7762" stroke-width="2.03" stroke-linecap="round"/>
<line x1="350.26" y1="384.87" x2="368.72" y2="535.24" stroke="#7d7762" stroke-width="1.83" stroke-linecap="round"/>
<line x1="358.03" y1="391.13" x2="374.96" y2="528.97" stroke="#7d7762" stroke-width="1.83" stroke-linecap="round"/>
<line x1="365.50" y1="394.89" x2="381.51" y2="525.22" stroke="#7d7762" stroke-width="1.83" stroke-linecap="round"/>
<line x1="373.26" y1="401.16" x2="387.72" y2="518.95" stroke="#7d7762" stroke-width="1.63" stroke-linecap="round"/>
<line x1="380.68" y1="404.92" x2="394.22" y2="515.19" stroke="#7d7762" stroke-width="1.63" stroke-linecap="round"/>
<line x1="388.10" y1="408.68" x2="400.71" y2="511.43" stroke="#7d7762" stroke-width="1.63" stroke-linecap="round"/>
<line x1="395.52" y1="412.44" x2="407.21" y2="507.67" stroke="#7d7762" stroke-width="1.63" stroke-linecap="round"/>
<line x1="402.93" y1="416.20" x2="413.69" y2="503.91" stroke="#7d7762" stroke-width="1.52" stroke-linecap="round"/>
<line x1="410.32" y1="419.96" x2="420.17" y2="500.15" stroke="#7d7762" stroke-width="1.52" stroke-linecap="round"/>
<line x1="417.71" y1="423.72" x2="426.64" y2="496.39" stroke="#7d7762" stroke-width="1.52" stroke-linecap="round"/>
<line x1="425.10" y1="427.48" x2="433.10" y2="492.63" stroke="#7d7762" stroke-width="1.42" stroke-linecap="round"/>
<line x1="432.31" y1="429.98" x2="439.69" y2="490.12" stroke="#7d7762" stroke-width="1.42" stroke-linecap="round"/>
<line x1="439.51" y1="432.49" x2="446.28" y2="487.62" stroke="#7d7762" stroke-width="1.32" stroke-linecap="round"/>
<line x1="446.69" y1="434.99" x2="452.85" y2="485.11" stroke="#7d7762" stroke-width="1.27" stroke-linecap="round"/>
<line x1="453.87" y1="437.50" x2="459.41" y2="482.61" stroke="#7d7762" stroke-width="1.27" stroke-linecap="round"/>
<line x1="461.05" y1="440.00" x2="465.97" y2="480.10" stroke="#7d7762" stroke-width="1.27" stroke-linecap="round"/>
<line x1="468.22" y1="442.51" x2="472.53" y2="477.59" stroke="#7d7762" stroke-width="1.27" stroke-linecap="round"/>
<line x1="475.40" y1="445.02" x2="479.09" y2="475.09" stroke="#7d7762" stroke-width="1.27" stroke-linecap="round"/>
<path d="M 101.05,80.00 102.16,80.04 103.27,80.11 104.39,80.22 105.51,80.36 106.63,80.54 107.76,80.76 108.89,81.02 110.03,81.30 111.17,81.63 112.32,81.99 113.47,82.38 114.62,82.81 115.78,83.27 116.95,83.76 118.11,84.29 119.28,84.85 120.46,85.44 121.64,86.07 122.82,86.72 124.01,87.41 125.20,88.13 126.39,88.88 127.59,89.66 128.79,90.47 130.00,91.31 131.20,92.18 132.42,93.08 133.63,94.01 134.85,94.96 136.08,95.95 137.30,96.96 138.53,98.00 139.76,99.06 141.00,100.16 142.24,101.27 143.48,102.42 144.73,103.59 145.98,104.79 147.23,106.01 148.48,107.25 149.74,108.52 151.00,109.81 152.27,111.13 153.53,112.47 154.80,113.83 156.07,115.21 157.35,116.62 158.63,118.04 159.91,119.49 161.19,120.96 162.47,122.45 163.76,123.96 165.05,125.48 166.34,127.03 167.64,128.60 168.93,130.18 170.23,131.79 171.53,133.41 172.84,135.04 174.14,136.70 175.45,138.37 176.76,140.06 178.07,141.76 179.38,143.48 180.70,145.21 182.01,146.96 183.33,148.72 184.65,150.50 185.98,152.29 187.30,154.09 188.62,155.91 189.95,157.73 191.28,159.57 192.61,161.43 193.94,163.29 195.27,165.16 196.60,167.05 197.94,168.94 199.27,170.84 200.61,172.76 201.95,174.68 203.29,176.61 204.63,178.55 205.97,180.49 207.31,182.45 208.65,184.41 210.00,186.38 211.34,188.35 212.69,190.33 214.03,192.32 215.38,194.31 216.73,196.30 218.08,198.30 219.42,200.31 220.77,202.32 222.12,204.33 223.47,206.34 224.82,208.36 226.17,210.38 227.52,212.40 228.87,214.43 230.22,216.45 231.57,218.48 232.92,220.50 234.28,222.53 235.63,224.56 236.98,226.58 238.33,228.61 239.68,230.64 241.03,232.66 242.38,234.68 243.73,236.70 245.08,238.72 246.43,240.73 247.78,242.75 249.13,244.75 250.48,246.76 251.82,248.76 253.17,250.76 254.52,252.75 255.86,254.74 257.21,256.72 258.55,258.70 259.90,260.67 261.24,262.63 262.58,264.59 263.93,266.55 265.27,268.49 266.61,270.43 267.95,272.36 269.28,274.29 270.62,276.20 271.96,278.11 273.29,280.01 274.63,281.90 275.96,283.78 277.29,285.65 278.62,287.51 279.95,289.37 281.28,291.21 282.61,293.04 283.93,294.86 285.26,296.68 286.58,298.48 287.90,300.27 289.22,302.04 290.54,303.81 291.86,305.57 293.18,307.31 294.49,309.04 295.80,310.76 297.12,312.46 298.43,314.16 299.73,315.84 301.04,317.51 302.35,319.16 303.65,320.80 304.95,322.43 306.25,324.04 307.55,325.64 308.85,327.23 310.14,328.80 311.44,330.35 312.73,331.90 314.02,333.42 315.30,334.94 316.59,336.43 317.88,337.92 319.16,339.39 320.44,340.84 321.72,342.28 322.99,343.70 324.27,345.10 325.54,346.50 326.81,347.87 328.08,349.23 329.35,350.57 330.61,351.90 331.88,353.22 333.14,354.51 334.40,355.79 335.65,357.06 336.91,358.30 338.16,359.54 339.41,360.75 340.66,361.95 341.91,363.14 343.16,364.30 344.40,365.46 345.64,366.59 346.88,367.71 348.12,368.81 349.35,369.90 350.59,370.97 351.82,372.03 353.05,373.06 354.28,374.09 355.50,375.10 356.73,376.09 357.95,377.06 359.17,378.02 360.39,378.97 361.60,379.90 362.82,380.81 364.03,381.71 365.24,382.59 366.45,383.46 367.66,384.32 368.86,385.15 370.06,385.98 371.27,386.79 372.47,387.58 373.66,388.37 374.86,389.13 376.05,389.89 377.25,390.63 378.44,391.35 379.63,392.07 380.82,392.77 382.00,393.46 383.19,394.13 384.37,394.80 385.55,395.45 386.73,396.09 387.91,396.71 389.09,397.33 390.27,397.94 391.44,398.53 392.62,399.12 393.79,399.69 394.96,400.25 396.13,400.81 397.30,401.35 398.47,401.89 399.64,402.42 400.80,402.94 401.97,403.45 403.13,403.96 404.29,404.45 405.46,404.94 406.62,405.43 407.78,405.91 408.94,406.38 410.10,406.85 411.26,407.31 412.42,407.77 413.57,408.22 414.73,408.68 415.89,409.13 417.05,409.57 418.20,410.02 419.36,410.46 420.51,410.90 421.67,411.34 422.83,411.78 423.98,412.23 425.14,412.67 426.30,413.11 427.45,413.56 428.61,414.01 429.77,414.47 430.93,414.92 432.09,415.38 433.25,415.85 434.41,416.32 435.57,416.80 436.73,417.29 437.89,417.78 439.05,418.28 440.22,418.80 441.39,419.32 442.55,419.85 443.72,420.39 444.89,420.94 446.06,421.51 447.24,422.09 448.41,422.68 449.59,423.29 450.77,423.91 451.95,424.55 453.13,425.21 454.31,425.88 455.50,426.58 456.69,427.29 457.88,428.02 459.08,428.77 460.28,429.55 461.48,430.34 462.68,431.17 463.88,432.01 465.09,432.88 466.31,433.78 467.52,434.70 468.74,435.66 469.96,436.64 471.19,437.65 472.42,438.69 473.65,439.77 474.89,440.87 474.89,440.87 475.40,441.32 475.90,441.77 476.39,442.21 476.87,442.66 477.34,443.10 477.79,443.54 478.24,443.98 478.68,444.42 479.10,444.86 479.52,445.30 479.92,445.74 480.32,446.18 480.70,446.61 481.08,447.05 481.44,447.48 481.79,447.92 482.14,448.35 482.47,448.78 482.79,449.21 483.10,449.64 483.40,450.07 483.69,450.50 483.97,450.93 484.24,451.36 484.50,451.79 484.75,452.21 484.99,452.64 485.22,453.07 485.44,453.49 485.64,453.92 485.84,454.34 486.03,454.77 486.20,455.19 486.37,455.61 486.52,456.04 486.67,456.46 486.80,456.88 486.93,457.31 487.04,457.73 487.14,458.15 487.24,458.58 487.32,459.00 487.39,459.42 487.46,459.84 487.51,460.26 487.55,460.69 487.58,461.11 487.60,461.53 487.61,461.95 487.61,462.38 487.60,462.80 487.58,463.22 487.55,463.65 487.51,464.07 487.46,464.49 487.40,464.92 487.32,465.34 487.24,465.77 487.15,466.19 487.05,466.62 486.93,467.04 486.81,467.47 486.68,467.89 486.53,468.32 486.38,468.75 486.21,469.18 486.04,469.61 485.85,470.04 485.66,470.47 485.45,470.90 485.24,471.33 485.01,471.76 484.77,472.19 484.53,472.63 484.27,473.06 484.00,473.50 483.73,473.93 483.44,474.37 483.14,474.81 482.83,475.24 482.52,475.68 482.19,476.12 481.85,476.56 481.50,477.01 481.14,477.45 480.77,477.90 480.39,478.34 480.00,478.79 479.60,479.24 479.60,479.24 478.64,480.34 477.67,481.42 476.69,482.46 475.71,483.47 474.73,484.45 473.75,485.40 472.76,486.33 471.77,487.22 470.77,488.10 469.77,488.94 468.77,489.76 467.77,490.56 466.76,491.34 465.75,492.09 464.74,492.82 463.72,493.53 462.71,494.23 461.69,494.90 460.67,495.56 459.64,496.19 458.62,496.82 457.59,497.43 456.56,498.02 455.53,498.60 454.50,499.16 453.46,499.72 452.43,500.26 451.39,500.79 450.35,501.31 449.31,501.82 448.27,502.32 447.23,502.82 446.19,503.30 445.14,503.78 444.10,504.26 443.06,504.72 442.01,505.19 440.96,505.64 439.92,506.10 438.87,506.55 437.82,506.99 436.78,507.44 435.73,507.88 434.68,508.32 433.63,508.76 432.59,509.21 431.54,509.65 430.49,510.09 429.44,510.54 428.39,510.98 427.35,511.43 426.30,511.88 425.25,512.34 424.21,512.80 423.16,513.26 422.12,513.73 421.08,514.20 420.03,514.68 418.99,515.16 417.95,515.65 416.91,516.15 415.87,516.66 414.83,517.17 413.79,517.69 412.75,518.22 411.72,518.75 410.68,519.30 409.65,519.85 408.61,520.42 407.58,520.99 406.55,521.58 405.52,522.17 404.49,522.78 403.47,523.39 402.44,524.02 401.42,524.66 400.40,525.31 399.38,525.97 398.36,526.65 397.34,527.34 396.32,528.04 395.31,528.75 394.30,529.48 393.29,530.22 392.28,530.97 391.27,531.74 390.26,532.52 389.26,533.32 388.25,534.13 387.25,534.95 386.25,535.79 385.26,536.65 384.26,537.51 383.27,538.40 382.28,539.30 381.29,540.21 380.30,541.14 379.31,542.08 378.33,543.04 377.35,544.02 376.37,545.01 375.39,546.02 374.41,547.04 373.44,548.08 372.46,549.14 371.49,550.21 370.52,551.29 369.56,552.40 368.59,553.52 367.63,554.65 366.67,555.80 365.71,556.97 364.75,558.15 363.80,559.35 362.85,560.57 361.90,561.80 360.95,563.05 360.00,564.32 359.06,565.60 358.11,566.89 357.17,568.20 356.23,569.53 355.30,570.88 354.36,572.24 353.43,573.61 352.50,575.00 351.57,576.41 350.64,577.83 349.71,579.27 348.79,580.72 347.87,582.19 346.95,583.67 346.03,585.17 345.11,586.68 344.20,588.21 343.29,589.75 342.38,591.31 341.47,592.88 340.56,594.47 339.65,596.07 338.75,597.68 337.85,599.31 336.95,600.95 336.05,602.60 335.15,604.27 334.25,605.95 333.36,607.64 332.47,609.35 331.58,611.07 330.69,612.80 329.80,614.54 328.91,616.30 328.03,618.06 327.14,619.84 326.26,621.63 325.38,623.43 324.50,625.24 323.62,627.07 322.74,628.90 321.87,630.74 320.99,632.59 320.12,634.46 319.25,636.33 318.38,638.21 317.51,640.10 316.64,642.00 315.77,643.91 314.90,645.82 314.04,647.75 313.17,649.68 312.31,651.62 311.45,653.56 310.58,655.51 309.72,657.47 308.86,659.44 308.00,661.41 307.14,663.39 306.28,665.37 305.42,667.36 304.57,669.35 303.71,671.35 302.85,673.35 302.00,675.35 301.14,677.36 300.29,679.37 299.43,681.39 298.58,683.41 297.72,685.43 296.87,687.45 296.02,689.47 295.16,691.50 294.31,693.52 293.46,695.55 292.60,697.58 291.75,699.60 290.90,701.63 290.04,703.66 289.19,705.68 288.34,707.71 287.48,709.73 286.63,711.75 285.77,713.77 284.92,715.78 284.06,717.79 283.21,719.80 282.35,721.80 281.50,723.80 280.64,725.80 279.78,727.79 278.92,729.78 278.06,731.76 277.21,733.73 276.34,735.70 275.48,737.66 274.62,739.61 273.76,741.56 272.89,743.50 272.03,745.43 271.16,747.35 270.30,749.26 269.43,751.17 268.56,753.06 267.69,754.95 266.81,756.82 265.94,758.68 265.07,760.53 264.19,762.37 263.31,764.20 262.43,766.02 261.55,767.82 260.67,769.61 259.79,771.39 258.90,773.15 258.01,774.90 257.12,776.63 256.23,778.35 255.34,780.05 254.45,781.74 253.55,783.41 252.65,785.06 251.75,786.70 250.85,788.32 249.94,789.93 249.03,791.51 248.12,793.08 247.21,794.62 246.30,796.15 245.38,797.66 244.46,799.15 243.54,800.62 242.61,802.07 241.69,803.49 240.76,804.90 239.83,806.28 238.89,807.64 237.95,808.98 237.01,810.30 236.07,811.59 235.12,812.86 234.17,814.10 233.22,815.32 232.27,816.52 231.31,817.69 230.35,818.83 229.38,819.95 228.41,821.04 227.44,822.11 226.47,823.15 225.49,824.16 224.51,825.14 223.52,826.10 222.53,827.03 221.54,827.93 220.55,828.80 219.55,829.64 218.55,830.45 217.54,831.23 216.53,831.98 215.52,832.70 214.50,833.38 213.48,834.04 212.45,834.67 211.42,835.26 210.39,835.82 209.35,836.35 208.31,836.84 207.26,837.30 206.21,837.73 205.16,838.12 204.10,838.48 203.04,838.80 201.97,839.09 200.90,839.35 199.83,839.56 198.75,839.74 197.66,839.89 196.58,840.00 195.48,840.07 194.38,840.11 194.38,840.11 192.93,839.91 191.45,839.15 189.92,837.83 188.37,835.97 186.78,833.58 185.16,830.67 183.51,827.26 181.83,823.35 180.13,818.97 178.40,814.13 176.64,808.83 174.87,803.10 173.08,796.94 171.27,790.36 169.44,783.39 167.60,776.04 165.74,768.31 163.87,760.22 161.99,751.78 160.11,743.01 158.21,733.92 156.31,724.53 154.41,714.83 152.51,704.86 150.60,694.62 148.70,684.12 146.79,673.39 144.90,662.42 143.01,651.24 141.12,639.85 139.25,628.27 137.38,616.52 135.53,604.61 133.69,592.54 131.87,580.34 130.07,568.01 128.28,555.57 126.51,543.03 124.77,530.41 123.05,517.72 121.35,504.96 119.68,492.16 118.04,479.33 116.43,466.48 114.85,453.62 113.31,440.77 111.80,427.94 110.32,415.14 108.89,402.39 107.49,389.70 106.14,377.07 104.82,364.54 103.55,352.10 102.33,339.77 101.16,327.57 100.03,315.50 98.96,303.59 97.94,291.83 96.97,280.26 96.06,268.87 95.20,257.69 94.41,246.72 93.67,235.98 93.00,225.49 92.39,215.25 91.84,205.27 91.37,195.58 90.96,186.18 90.62,177.09 90.35,168.32 90.16,159.89 90.04,151.80 90.00,144.07 90.04,136.71 90.15,129.74 90.35,123.17 90.63,117.01 91.00,111.28 91.45,105.98 91.99,101.14 92.61,96.76 93.33,92.85 94.15,89.44 95.05,86.53 96.05,84.14 97.15,82.28 98.35,80.96 99.65,80.19 101.05,80.00 Z M 102.07,88.29 103.27,89.09 104.48,89.92 105.68,90.77 106.89,91.65 108.10,92.54 109.32,93.46 110.54,94.39 111.76,95.35 112.98,96.33 114.20,97.33 115.43,98.36 116.66,99.40 117.89,100.47 119.13,101.55 120.37,102.66 121.61,103.79 122.85,104.93 124.10,106.10 125.35,107.29 126.60,108.50 127.85,109.73 129.10,110.98 130.36,112.24 131.62,113.53 132.88,114.84 134.15,116.16 135.42,117.51 136.69,118.87 137.96,120.25 139.23,121.66 140.51,123.07 141.79,124.51 143.07,125.97 144.35,127.44 145.64,128.93 146.92,130.44 148.21,131.96 149.50,133.50 150.80,135.06 152.09,136.64 153.39,138.23 154.69,139.83 155.99,141.46 157.29,143.10 158.60,144.75 159.91,146.42 161.21,148.10 162.53,149.80 163.84,151.51 165.15,153.24 166.47,154.98 167.79,156.73 169.10,158.50 170.42,160.28 171.75,162.07 173.07,163.88 174.40,165.69 175.72,167.52 177.05,169.37 178.38,171.22 179.71,173.08 181.04,174.96 182.38,176.85 183.71,178.74 185.05,180.65 186.39,182.57 187.73,184.49 189.06,186.43 190.41,188.37 191.75,190.32 193.09,192.29 194.43,194.26 195.78,196.23 197.13,198.22 198.47,200.21 199.82,202.21 201.17,204.22 202.52,206.23 203.87,208.25 205.22,210.27 206.57,212.30 207.92,214.33 209.27,216.37 210.63,218.42 211.98,220.47 213.33,222.52 214.69,224.58 216.04,226.64 217.40,228.70 218.76,230.77 220.11,232.83 221.47,234.90 222.82,236.98 224.18,239.05 225.54,241.13 226.89,243.20 228.25,245.28 229.61,247.36 230.97,249.43 232.32,251.51 233.68,253.59 235.04,255.66 236.39,257.74 237.75,259.81 239.11,261.88 240.46,263.95 241.82,266.02 243.17,268.08 244.53,270.15 245.89,272.21 247.24,274.26 248.59,276.31 249.95,278.36 251.30,280.40 252.65,282.44 254.00,284.47 255.36,286.50 256.71,288.53 258.06,290.54 259.40,292.55 260.75,294.56 262.10,296.56 263.45,298.55 264.79,300.53 266.14,302.51 267.48,304.48 268.82,306.44 270.17,308.39 271.51,310.33 272.85,312.27 274.19,314.20 275.52,316.11 276.86,318.02 278.19,319.92 279.53,321.81 280.86,323.69 282.19,325.55 283.52,327.41 284.85,329.25 286.18,331.09 287.50,332.91 288.83,334.72 290.15,336.52 291.47,338.31 292.79,340.08 294.11,341.84 295.43,343.59 296.74,345.33 298.06,347.05 299.37,348.76 300.68,350.46 301.99,352.14 303.29,353.81 304.60,355.46 305.90,357.10 307.21,358.73 308.51,360.34 309.80,361.93 311.10,363.51 312.39,365.08 313.69,366.63 314.98,368.16 316.26,369.68 317.55,371.18 318.84,372.67 320.12,374.14 321.40,375.59 322.68,377.03 323.95,378.45 325.23,379.85 326.50,381.24 327.77,382.61 329.04,383.96 330.31,385.30 331.57,386.62 332.83,387.92 334.09,389.20 335.35,390.47 336.60,391.72 337.86,392.95 339.11,394.16 340.36,395.36 341.60,396.53 342.85,397.69 344.09,398.83 345.33,399.96 346.57,401.06 347.80,402.15 349.04,403.22 350.27,404.27 351.50,405.30 352.72,406.32 353.95,407.31 355.17,408.29 356.39,409.25 357.61,410.19 358.82,411.12 360.04,412.02 361.25,412.91 362.46,413.78 363.66,414.63 364.87,415.46 366.07,416.28 367.27,417.07 368.47,417.85 369.66,418.61 370.86,419.36 372.05,420.09 373.24,420.79 374.42,421.49 375.61,422.16 376.79,422.82 377.97,423.46 379.15,424.08 380.33,424.69 381.50,425.28 382.68,425.86 383.85,426.42 385.01,426.96 386.18,427.48 387.35,427.99 388.51,428.49 389.67,428.97 390.83,429.43 391.99,429.88 393.14,430.32 394.30,430.74 395.45,431.15 396.60,431.54 397.75,431.92 398.89,432.29 400.04,432.64 401.18,432.98 402.33,433.31 403.47,433.62 404.61,433.93 405.74,434.22 406.88,434.50 408.02,434.77 409.15,435.03 410.28,435.28 411.41,435.51 412.54,435.74 413.67,435.96 414.80,436.18 415.93,436.38 417.05,436.57 418.18,436.76 419.30,436.94 420.43,437.12 421.55,437.28 422.67,437.45 423.79,437.60 424.91,437.75 426.03,437.90 427.15,438.04 428.27,438.18 429.39,438.32 430.51,438.46 431.63,438.59 432.75,438.72 433.87,438.85 434.98,438.98 436.10,439.11 437.22,439.24 438.34,439.38 439.46,439.51 440.58,439.65 441.70,439.79 442.82,439.94 443.94,440.09 445.06,440.25 446.18,440.41 447.30,440.58 448.43,440.75 449.55,440.94 450.68,441.13 451.80,441.33 452.93,441.55 454.06,441.77 455.19,442.00 456.32,442.25 457.46,442.51 458.59,442.79 459.73,443.08 460.87,443.38 462.01,443.70 463.16,444.04 464.30,444.40 465.45,444.77 466.60,445.17 467.76,445.59 468.91,446.03 470.07,446.49 471.23,446.97 472.40,447.48 473.56,448.01 474.73,448.57 475.91,449.16 475.91,449.16 476.23,449.32 476.54,449.48 476.85,449.65 477.15,449.82 477.44,450.00 477.73,450.19 478.01,450.38 478.28,450.57 478.55,450.78 478.82,450.98 479.07,451.19 479.33,451.41 479.57,451.63 479.81,451.85 480.04,452.08 480.27,452.31 480.48,452.55 480.70,452.79 480.90,453.03 481.10,453.28 481.30,453.53 481.49,453.78 481.67,454.04 481.84,454.30 482.01,454.56 482.17,454.83 482.33,455.10 482.48,455.37 482.62,455.64 482.75,455.91 482.88,456.19 483.01,456.47 483.12,456.75 483.23,457.03 483.33,457.32 483.43,457.60 483.52,457.89 483.60,458.17 483.68,458.46 483.75,458.75 483.81,459.04 483.87,459.33 483.92,459.62 483.96,459.91 483.99,460.20 484.02,460.49 484.04,460.78 484.06,461.07 484.07,461.36 484.07,461.65 484.06,461.93 484.05,462.22 484.03,462.51 484.01,462.79 483.97,463.08 483.93,463.36 483.89,463.64 483.83,463.92 483.77,464.19 483.70,464.47 483.63,464.74 483.54,465.01 483.46,465.28 483.36,465.54 483.25,465.81 483.14,466.07 483.03,466.32 482.90,466.58 482.77,466.83 482.63,467.08 482.48,467.32 482.33,467.56 482.17,467.80 482.00,468.03 481.82,468.26 481.64,468.48 481.45,468.70 481.25,468.92 481.05,469.13 480.83,469.33 480.61,469.53 480.39,469.73 480.15,469.92 479.91,470.11 479.66,470.29 479.40,470.46 479.14,470.63 478.86,470.79 478.58,470.95 478.58,470.95 477.55,471.54 476.52,472.10 475.48,472.63 474.44,473.14 473.40,473.62 472.36,474.08 471.31,474.52 470.26,474.94 469.20,475.33 468.15,475.71 467.09,476.07 466.03,476.40 464.97,476.73 463.90,477.03 462.84,477.32 461.77,477.60 460.70,477.86 459.62,478.10 458.55,478.34 457.48,478.56 456.40,478.77 455.32,478.98 454.25,479.17 453.17,479.35 452.09,479.53 451.00,479.70 449.92,479.86 448.84,480.02 447.76,480.17 446.67,480.31 445.59,480.45 444.50,480.59 443.42,480.73 442.33,480.86 441.24,480.99 440.16,481.13 439.07,481.26 437.99,481.39 436.90,481.52 435.81,481.65 434.73,481.79 433.64,481.92 432.56,482.06 431.47,482.21 430.39,482.35 429.31,482.51 428.22,482.66 427.14,482.82 426.06,482.99 424.98,483.17 423.90,483.35 422.82,483.53 421.74,483.73 420.66,483.93 419.59,484.14 418.51,484.36 417.44,484.59 416.37,484.83 415.30,485.08 414.23,485.34 413.16,485.61 412.09,485.89 411.02,486.18 409.96,486.49 408.89,486.80 407.83,487.13 406.77,487.47 405.71,487.82 404.66,488.19 403.60,488.57 402.55,488.96 401.49,489.37 400.44,489.79 399.40,490.22 398.35,490.67 397.30,491.14 396.26,491.62 395.22,492.11 394.18,492.62 393.14,493.15 392.11,493.69 391.07,494.25 390.04,494.83 389.01,495.42 387.98,496.02 386.96,496.65 385.94,497.29 384.91,497.95 383.90,498.62 382.88,499.31 381.86,500.02 380.85,500.75 379.84,501.49 378.83,502.25 377.82,503.03 376.82,503.83 375.82,504.65 374.82,505.48 373.82,506.33 372.83,507.20 371.83,508.09 370.84,508.99 369.85,509.92 368.87,510.86 367.88,511.82 366.90,512.79 365.92,513.79 364.94,514.81 363.97,515.84 362.99,516.89 362.02,517.96 361.05,519.04 360.09,520.15 359.12,521.27 358.16,522.41 357.20,523.57 356.24,524.75 355.29,525.95 354.34,527.16 353.39,528.39 352.44,529.64 351.49,530.90 350.55,532.19 349.60,533.49 348.66,534.81 347.72,536.14 346.79,537.50 345.85,538.87 344.92,540.25 343.99,541.66 343.07,543.08 342.14,544.52 341.22,545.97 340.29,547.44 339.38,548.93 338.46,550.43 337.54,551.95 336.63,553.48 335.72,555.03 334.81,556.59 333.90,558.17 332.99,559.77 332.09,561.38 331.19,563.00 330.28,564.64 329.39,566.30 328.49,567.97 327.59,569.65 326.70,571.34 325.81,573.05 324.92,574.78 324.03,576.51 323.14,578.26 322.25,580.02 321.37,581.80 320.49,583.59 319.61,585.39 318.73,587.20 317.85,589.02 316.97,590.85 316.10,592.70 315.22,594.56 314.35,596.42 313.48,598.30 312.61,600.19 311.74,602.09 310.87,603.99 310.00,605.91 309.14,607.84 308.27,609.77 307.41,611.72 306.55,613.67 305.69,615.63 304.83,617.60 303.97,619.58 303.11,621.56 302.25,623.55 301.39,625.55 300.54,627.55 299.68,629.57 298.83,631.58 297.97,633.61 297.12,635.63 296.27,637.67 295.42,639.71 294.57,641.75 293.71,643.80 292.86,645.85 292.01,647.90 291.17,649.96 290.32,652.02 289.47,654.09 288.62,656.15 287.77,658.22 286.92,660.30 286.08,662.37 285.23,664.44 284.38,666.52 283.53,668.60 282.69,670.67 281.84,672.75 280.99,674.83 280.15,676.91 279.30,678.98 278.45,681.06 277.60,683.13 276.76,685.20 275.91,687.27 275.06,689.34 274.21,691.41 273.36,693.47 272.51,695.53 271.67,697.59 270.82,699.64 269.96,701.69 269.11,703.73 268.26,705.77 267.41,707.81 266.56,709.84 265.70,711.86 264.85,713.88 263.99,715.89 263.14,717.90 262.28,719.90 261.42,721.89 260.57,723.87 259.71,725.85 258.85,727.82 257.98,729.78 257.12,731.74 256.26,733.68 255.39,735.62 254.53,737.54 253.66,739.46 252.79,741.37 251.93,743.26 251.05,745.15 250.18,747.02 249.31,748.89 248.43,750.74 247.56,752.58 246.68,754.41 245.80,756.23 244.92,758.04 244.04,759.83 243.16,761.61 242.27,763.38 241.38,765.13 240.50,766.87 239.61,768.60 238.71,770.31 237.82,772.01 236.93,773.69 236.03,775.36 235.13,777.01 234.23,778.65 233.33,780.27 232.42,781.88 231.51,783.47 230.61,785.05 229.69,786.60 228.78,788.14 227.87,789.67 226.95,791.18 226.03,792.67 225.11,794.14 224.19,795.60 223.26,797.03 222.33,798.45 221.40,799.85 220.47,801.24 219.54,802.60 218.60,803.94 217.66,805.27 216.72,806.58 215.77,807.86 214.83,809.13 213.88,810.38 212.93,811.61 211.97,812.82 211.02,814.01 210.06,815.17 209.10,816.32 208.13,817.45 207.17,818.56 206.20,819.64 205.23,820.71 204.25,821.75 203.28,822.77 202.30,823.78 201.32,824.76 200.33,825.71 199.34,826.65 198.35,827.57 197.36,828.46 196.37,829.33 195.37,830.18 194.37,831.01 193.37,831.82 193.37,831.82 192.53,832.19 191.65,831.96 190.71,831.15 189.72,829.77 188.69,827.84 187.60,825.37 186.48,822.38 185.31,818.87 184.10,814.86 182.85,810.37 181.56,805.40 180.23,799.98 178.87,794.11 177.48,787.82 176.06,781.10 174.60,773.98 173.12,766.48 171.62,758.59 170.09,750.35 168.53,741.76 166.96,732.83 165.36,723.58 163.75,714.02 162.12,704.17 160.48,694.04 158.82,683.64 157.15,672.99 155.48,662.10 153.79,650.99 152.10,639.66 150.41,628.13 148.71,616.42 147.01,604.54 145.31,592.50 143.62,580.32 141.93,568.01 140.24,555.58 138.56,543.05 136.89,530.43 135.24,517.74 133.59,504.99 131.96,492.18 130.34,479.34 128.74,466.49 127.16,453.62 125.60,440.76 124.07,427.93 122.56,415.12 121.07,402.37 119.61,389.67 118.18,377.05 116.78,364.52 115.42,352.10 114.08,339.79 112.79,327.60 111.53,315.57 110.31,303.68 109.13,291.97 108.00,280.45 106.91,269.12 105.86,258.01 104.86,247.12 103.91,236.47 103.02,226.07 102.17,215.94 101.38,206.09 100.65,196.53 99.97,187.28 99.35,178.35 98.80,169.76 98.30,161.51 97.88,153.63 97.51,146.12 97.22,139.01 96.99,132.29 96.84,126.00 96.76,120.13 96.75,114.71 96.82,109.74 96.97,105.25 97.19,101.24 97.50,97.73 97.89,94.74 98.37,92.27 98.93,90.34 99.58,88.96 100.32,88.15 101.15,87.92 102.07,88.29 Z" fill="url(#st)" fill-rule="evenodd" stroke="#ff9e6b" stroke-width="1.6"/>
<circle cx="103.47" cy="83.91" r="1.50" fill="#6ee0a0"/>
<circle cx="193.88" cy="835.96" r="2.00" fill="#e0b86e"/>
<circle cx="193.88" cy="835.96" r="0.60" fill="#13110d"/>
<circle cx="111.57" cy="90.18" r="1.50" fill="#6ee0a0"/>
<circle cx="200.47" cy="829.70" r="2.00" fill="#e0b86e"/>
<circle cx="200.47" cy="829.70" r="0.60" fill="#13110d"/>
<circle cx="119.61" cy="96.45" r="1.50" fill="#6ee0a0"/>
<circle cx="207.00" cy="823.43" r="2.00" fill="#e0b86e"/>
<circle cx="207.00" cy="823.43" r="0.60" fill="#13110d"/>
<circle cx="127.57" cy="102.72" r="1.50" fill="#6ee0a0"/>
<circle cx="213.47" cy="817.17" r="2.00" fill="#e0b86e"/>
<circle cx="213.47" cy="817.17" r="0.60" fill="#13110d"/>
<circle cx="135.66" cy="110.24" r="1.50" fill="#6ee0a0"/>
<circle cx="219.72" cy="809.65" r="2.00" fill="#e0b86e"/>
<circle cx="219.72" cy="809.65" r="0.60" fill="#13110d"/>
<circle cx="143.75" cy="117.76" r="1.50" fill="#6ee0a0"/>
<circle cx="225.96" cy="802.13" r="2.00" fill="#e0b86e"/>
<circle cx="225.96" cy="802.13" r="0.60" fill="#13110d"/>
<circle cx="151.73" cy="125.28" r="1.50" fill="#6ee0a0"/>
<circle cx="232.15" cy="794.61" r="2.00" fill="#e0b86e"/>
<circle cx="232.15" cy="794.61" r="0.60" fill="#13110d"/>
<circle cx="159.71" cy="132.80" r="1.50" fill="#6ee0a0"/>
<circle cx="238.28" cy="787.09" r="2.00" fill="#e0b86e"/>
<circle cx="238.28" cy="787.09" r="0.60" fill="#13110d"/>
<circle cx="167.80" cy="141.58" r="1.50" fill="#6ee0a0"/>
<circle cx="244.24" cy="778.32" r="2.00" fill="#e0b86e"/>
<circle cx="244.24" cy="778.32" r="0.60" fill="#13110d"/>
<circle cx="176.90" cy="151.55" r="1.50" fill="#6ee0a0"/>
<circle cx="250.46" cy="768.30" r="2.00" fill="#e0b86e"/>
<circle cx="250.46" cy="768.30" r="0.66" fill="#13110d"/>
<circle cx="185.32" cy="156.56" r="1.50" fill="#6ee0a0"/>
<circle cx="257.68" cy="763.29" r="2.00" fill="#e0b86e"/>
<circle cx="257.68" cy="763.29" r="0.62" fill="#13110d"/>
<circle cx="194.13" cy="165.34" r="1.50" fill="#6ee0a0"/>
<circle cx="264.37" cy="754.51" r="2.00" fill="#e0b86e"/>
<circle cx="264.37" cy="754.51" r="0.60" fill="#13110d"/>
<circle cx="204.08" cy="184.14" r="1.50" fill="#6ee0a0"/>
<circle cx="269.75" cy="735.72" r="2.00" fill="#e0b86e"/>
<circle cx="269.75" cy="735.72" r="0.60" fill="#13110d"/>
<circle cx="213.36" cy="197.93" r="1.50" fill="#6ee0a0"/>
<circle cx="275.67" cy="721.94" r="2.00" fill="#e0b86e"/>
<circle cx="275.67" cy="721.94" r="0.60" fill="#13110d"/>
<circle cx="222.95" cy="214.21" r="1.50" fill="#6ee0a0"/>
<circle cx="281.26" cy="705.65" r="2.00" fill="#e0b86e"/>
<circle cx="281.26" cy="705.65" r="0.60" fill="#13110d"/>
<circle cx="232.47" cy="230.51" r="1.50" fill="#6ee0a0"/>
<circle cx="286.81" cy="689.36" r="2.00" fill="#e0b86e"/>
<circle cx="286.81" cy="689.36" r="0.60" fill="#13110d"/>
<circle cx="241.71" cy="245.55" r="1.50" fill="#6ee0a0"/>
<circle cx="292.42" cy="674.32" r="2.00" fill="#e0b86e"/>
<circle cx="292.42" cy="674.32" r="0.60" fill="#13110d"/>
<circle cx="251.26" cy="263.09" r="1.50" fill="#6ee0a0"/>
<circle cx="297.66" cy="656.78" r="2.00" fill="#e0b86e"/>
<circle cx="297.66" cy="656.78" r="0.60" fill="#13110d"/>
<circle cx="260.43" cy="278.14" r="1.50" fill="#6ee0a0"/>
<circle cx="303.18" cy="641.74" r="2.00" fill="#e0b86e"/>
<circle cx="303.18" cy="641.74" r="0.60" fill="#13110d"/>
<circle cx="269.76" cy="294.42" r="1.50" fill="#6ee0a0"/>
<circle cx="308.51" cy="625.45" r="2.00" fill="#e0b86e"/>
<circle cx="308.51" cy="625.45" r="0.60" fill="#13110d"/>
<circle cx="278.34" cy="305.71" r="1.50" fill="#6ee0a0"/>
<circle cx="314.38" cy="614.18" r="2.00" fill="#e0b86e"/>
<circle cx="314.38" cy="614.18" r="0.60" fill="#13110d"/>
<circle cx="287.06" cy="318.24" r="1.50" fill="#6ee0a0"/>
<circle cx="320.03" cy="601.64" r="2.00" fill="#e0b86e"/>
<circle cx="320.03" cy="601.64" r="0.60" fill="#13110d"/>
<circle cx="295.64" cy="329.52" r="1.50" fill="#6ee0a0"/>
<circle cx="325.83" cy="590.37" r="2.00" fill="#e0b86e"/>
<circle cx="325.83" cy="590.37" r="0.60" fill="#13110d"/>
<circle cx="303.99" cy="339.54" r="1.50" fill="#6ee0a0"/>
<circle cx="331.76" cy="580.35" r="2.00" fill="#e0b86e"/>
<circle cx="331.76" cy="580.35" r="0.60" fill="#13110d"/>
<circle cx="312.19" cy="348.32" r="1.50" fill="#6ee0a0"/>
<circle cx="337.81" cy="571.57" r="2.00" fill="#e0b86e"/>
<circle cx="337.81" cy="571.57" r="0.60" fill="#13110d"/>
<circle cx="320.40" cy="357.09" r="1.50" fill="#6ee0a0"/>
<circle cx="343.85" cy="562.80" r="2.00" fill="#e0b86e"/>
<circle cx="343.85" cy="562.80" r="0.60" fill="#13110d"/>
<circle cx="328.38" cy="364.61" r="1.50" fill="#6ee0a0"/>
<circle cx="350.02" cy="555.28" r="2.00" fill="#e0b86e"/>
<circle cx="350.02" cy="555.28" r="0.60" fill="#13110d"/>
<circle cx="336.36" cy="372.13" r="1.50" fill="#6ee0a0"/>
<circle cx="356.16" cy="547.77" r="2.00" fill="#e0b86e"/>
<circle cx="356.16" cy="547.77" r="0.60" fill="#13110d"/>
<circle cx="344.19" cy="378.39" r="1.50" fill="#6ee0a0"/>
<circle cx="362.45" cy="541.50" r="2.00" fill="#e0b86e"/>
<circle cx="362.45" cy="541.50" r="0.60" fill="#13110d"/>
<circle cx="351.97" cy="384.66" r="1.50" fill="#6ee0a0"/>
<circle cx="368.72" cy="535.24" r="2.00" fill="#e0b86e"/>
<circle cx="368.72" cy="535.24" r="0.60" fill="#13110d"/>
<circle cx="359.75" cy="390.92" r="1.50" fill="#6ee0a0"/>
<circle cx="374.96" cy="528.97" r="2.00" fill="#e0b86e"/>
<circle cx="374.96" cy="528.97" r="0.60" fill="#13110d"/>
<circle cx="367.22" cy="394.68" r="1.50" fill="#6ee0a0"/>
<circle cx="381.51" cy="525.22" r="2.00" fill="#e0b86e"/>
<circle cx="381.51" cy="525.22" r="0.60" fill="#13110d"/>
<circle cx="374.95" cy="400.95" r="1.50" fill="#6ee0a0"/>
<circle cx="387.72" cy="518.95" r="2.00" fill="#e0b86e"/>
<circle cx="387.72" cy="518.95" r="0.60" fill="#13110d"/>
<circle cx="382.37" cy="404.71" r="1.50" fill="#6ee0a0"/>
<circle cx="394.22" cy="515.19" r="2.00" fill="#e0b86e"/>
<circle cx="394.22" cy="515.19" r="0.60" fill="#13110d"/>
<circle cx="389.79" cy="408.47" r="1.50" fill="#6ee0a0"/>
<circle cx="400.71" cy="511.43" r="2.00" fill="#e0b86e"/>
<circle cx="400.71" cy="511.43" r="0.60" fill="#13110d"/>
<circle cx="397.21" cy="412.23" r="1.50" fill="#6ee0a0"/>
<circle cx="407.21" cy="507.67" r="2.00" fill="#e0b86e"/>
<circle cx="407.21" cy="507.67" r="0.60" fill="#13110d"/>
<circle cx="404.60" cy="415.99" r="1.50" fill="#6ee0a0"/>
<circle cx="413.69" cy="503.91" r="2.00" fill="#e0b86e"/>
<circle cx="413.69" cy="503.91" r="0.60" fill="#13110d"/>
<circle cx="412.00" cy="419.75" r="1.50" fill="#6ee0a0"/>
<circle cx="420.17" cy="500.15" r="2.00" fill="#e0b86e"/>
<circle cx="420.17" cy="500.15" r="0.60" fill="#13110d"/>
<circle cx="419.39" cy="423.51" r="1.50" fill="#6ee0a0"/>
<circle cx="426.64" cy="496.39" r="2.00" fill="#e0b86e"/>
<circle cx="426.64" cy="496.39" r="0.60" fill="#13110d"/>
<circle cx="426.76" cy="427.27" r="1.50" fill="#6ee0a0"/>
<circle cx="433.10" cy="492.63" r="2.00" fill="#e0b86e"/>
<circle cx="433.10" cy="492.63" r="0.60" fill="#13110d"/>
<circle cx="433.98" cy="429.78" r="1.50" fill="#6ee0a0"/>
<circle cx="439.69" cy="490.12" r="2.00" fill="#e0b86e"/>
<circle cx="439.69" cy="490.12" r="0.60" fill="#13110d"/>
<circle cx="441.16" cy="432.28" r="1.50" fill="#6ee0a0"/>
<circle cx="446.28" cy="487.62" r="2.00" fill="#e0b86e"/>
<circle cx="446.28" cy="487.62" r="0.60" fill="#13110d"/>
<circle cx="448.34" cy="434.79" r="1.50" fill="#6ee0a0"/>
<circle cx="452.85" cy="485.11" r="2.00" fill="#e0b86e"/>
<circle cx="452.85" cy="485.11" r="0.60" fill="#13110d"/>
<circle cx="455.52" cy="437.29" r="1.50" fill="#6ee0a0"/>
<circle cx="459.41" cy="482.61" r="2.00" fill="#e0b86e"/>
<circle cx="459.41" cy="482.61" r="0.60" fill="#13110d"/>
<circle cx="462.69" cy="439.80" r="1.50" fill="#6ee0a0"/>
<circle cx="465.97" cy="480.10" r="2.00" fill="#e0b86e"/>
<circle cx="465.97" cy="480.10" r="0.60" fill="#13110d"/>
<circle cx="469.87" cy="442.31" r="1.50" fill="#6ee0a0"/>
<circle cx="472.53" cy="477.59" r="2.00" fill="#e0b86e"/>
<circle cx="472.53" cy="477.59" r="0.60" fill="#13110d"/>
<circle cx="477.05" cy="444.81" r="1.50" fill="#6ee0a0"/>
<circle cx="479.09" cy="475.09" r="2.00" fill="#e0b86e"/>
<circle cx="479.09" cy="475.09" r="0.60" fill="#13110d"/>
<circle cx="93.56" cy="133.21" r="3.0" fill="#4fd6e6"/>
<circle cx="101.05" cy="263.95" r="3.0" fill="#4fd6e6"/>
<circle cx="114.11" cy="394.68" r="3.0" fill="#4fd6e6"/>
<circle cx="130.17" cy="525.42" r="3.0" fill="#4fd6e6"/>
<circle cx="149.21" cy="656.16" r="3.0" fill="#4fd6e6"/>
<circle cx="173.82" cy="786.90" r="3.0" fill="#4fd6e6"/>
<!-- natural (N) / sharp (S) disc-cut quintics -->
<polyline fill="none" stroke="#c0a0ff" stroke-width="0.6" opacity="0.85" points="108.54,126.12 110.34,127.31 112.14,128.50 113.93,129.70 115.71,130.90 117.48,132.10 119.25,133.31 121.01,134.52 122.77,135.73 124.52,136.95 126.26,138.18 127.99,139.41 129.71,140.64 131.43,141.88 133.14,143.13 134.84,144.38 136.53,145.64 138.21,146.91 139.88,148.18 141.55,149.46 143.20,150.75 144.85,152.04 146.49,153.34 148.12,154.65 149.74,155.96 151.35,157.28 152.95,158.62 154.54,159.95 156.12,161.30 157.69,162.66 159.25,164.02 160.81,165.39 162.35,166.77 163.88,168.16 165.41,169.55 166.92,170.96 168.43,172.37 169.93,173.79 171.41,175.22 172.89,176.66 174.36,178.11 175.82,179.57 177.26,181.03 178.70,182.51 180.14,183.99 181.56,185.48 182.97,186.98 184.37,188.48 185.77,190.00 187.16,191.52 188.53,193.06 189.90,194.60 191.26,196.15 192.62,197.70 193.96,199.27 195.30,200.84 196.63,202.42 197.95,204.01 199.26,205.61 200.56,207.21 201.86,208.82 203.15,210.44 204.44,212.07 205.71,213.70 206.98,215.34 208.25,216.98 209.51,218.64 210.76,220.30 212.00,221.96 213.24,223.64 214.47,225.31 215.70,227.00 216.92,228.69 218.14,230.38 219.35,232.08 220.56,233.79 221.77,235.50 222.96,237.22 224.16,238.94 225.35,240.66 226.54,242.39 227.72,244.13 228.90,245.86 230.08,247.60 231.25,249.35 232.42,251.10 233.59,252.85 234.76,254.60 235.93,256.36 237.09,258.12 238.25,259.88 239.41,261.64 240.57,263.40 241.73,265.17 242.89,266.94 244.05,268.71 245.20,270.48 246.36,272.25 247.52,274.02 248.68,275.79 249.83,277.56 250.99,279.33 252.16,281.10 253.32,282.87 254.48,284.64 255.65,286.41 256.82,288.17 257.99,289.94 259.16,291.70 260.34,293.46 261.51,295.22 262.70,296.97 263.88,298.72 265.07,300.47 266.26,302.22 267.46,303.96 268.66,305.70 269.87,307.43 271.08,309.16 272.30,310.89 273.52,312.61 274.74,314.32 275.98,316.04 277.21,317.74 278.46,319.44 279.71,321.13 280.96,322.82 282.23,324.50 283.50,326.18 284.77,327.85 286.06,329.51 287.35,331.16 288.65,332.81 289.95,334.45 291.27,336.08 292.59,337.70 293.92,339.31 295.26,340.92 296.61,342.52 297.96,344.11 299.33,345.69 300.70,347.26 302.09,348.82 303.48,350.37 304.88,351.91 306.29,353.44 307.71,354.96 309.14,356.47 310.58,357.98 312.03,359.47 313.49,360.95 314.96,362.41 316.45,363.87 317.94,365.32 319.44,366.75 320.95,368.18 322.47,369.59 324.01,370.99 325.55,372.38 327.11,373.75 328.67,375.12 330.25,376.47 331.84,377.81 333.43,379.14 335.04,380.45 336.66,381.75 338.29,383.04 339.94,384.32 341.59,385.58 343.25,386.83 344.93,388.07 346.62,389.30 348.31,390.51 350.02,391.71 351.74,392.89 353.47,394.07 355.21,395.22 356.96,396.37 358.72,397.50 360.49,398.62 362.27,399.73 364.07,400.82 365.87,401.91 367.68,402.97 369.50,404.03 371.34,405.07 373.18,406.10 375.03,407.11 376.89,408.11 378.76,409.10 380.64,410.08 382.52,411.05 384.42,412.00 386.32,412.94 388.24,413.86 390.16,414.78 392.09,415.68 394.02,416.57 395.96,417.45 397.91,418.32 399.87,419.18 401.83,420.02 403.80,420.86 405.78,421.68 407.76,422.49 409.74,423.29 411.73,424.08 413.72,424.87 415.72,425.64 417.72,426.40 419.73,427.15 421.74,427.90 423.75,428.63 425.76,429.36 427.77,430.08 429.79,430.79 431.81,431.49 433.82,432.19 435.84,432.88 437.85,433.56 439.87,434.24 441.88,434.91 443.89,435.58 445.90,436.24 447.90,436.89 449.91,437.55 451.90,438.19 453.89,438.84 455.88,439.48 457.86,440.12 459.83,440.76 461.80,441.40 463.75,442.03 465.70,442.67 467.64,443.31 469.57,443.94 471.48,444.58 473.39,445.22 475.28,445.86 477.16,446.51"/>
<polyline fill="none" stroke="#ff8c5a" stroke-width="0.6" opacity="0.85" points="113.33,165.96 115.10,166.98 116.87,168.00 118.62,169.02 120.38,170.05 122.12,171.08 123.86,172.12 125.59,173.16 127.31,174.20 129.02,175.25 130.73,176.31 132.43,177.37 134.12,178.44 135.80,179.51 137.48,180.59 139.15,181.68 140.80,182.78 142.45,183.88 144.10,184.98 145.73,186.10 147.35,187.22 148.97,188.35 150.58,189.49 152.18,190.64 153.77,191.79 155.35,192.95 156.92,194.12 158.48,195.30 160.04,196.49 161.58,197.68 163.12,198.89 164.65,200.10 166.17,201.32 167.68,202.55 169.18,203.79 170.67,205.03 172.15,206.29 173.63,207.55 175.10,208.83 176.55,210.11 178.00,211.40 179.44,212.70 180.87,214.00 182.30,215.32 183.71,216.65 185.12,217.98 186.52,219.32 187.91,220.67 189.29,222.03 190.67,223.40 192.04,224.78 193.40,226.16 194.75,227.56 196.10,228.96 197.43,230.37 198.76,231.78 200.09,233.21 201.40,234.64 202.71,236.08 204.02,237.53 205.31,238.98 206.61,240.44 207.89,241.91 209.17,243.39 210.44,244.87 211.71,246.36 212.97,247.86 214.22,249.36 215.48,250.87 216.72,252.38 217.96,253.90 219.20,255.43 220.43,256.96 221.66,258.50 222.88,260.04 224.10,261.59 225.31,263.14 226.53,264.69 227.73,266.25 228.94,267.82 230.14,269.39 231.34,270.96 232.54,272.54 233.73,274.12 234.92,275.70 236.11,277.29 237.30,278.88 238.49,280.47 239.67,282.06 240.86,283.66 242.04,285.25 243.22,286.85 244.40,288.45 245.58,290.06 246.76,291.66 247.94,293.26 249.12,294.87 250.30,296.47 251.48,298.08 252.67,299.68 253.85,301.28 255.03,302.89 256.22,304.49 257.41,306.09 258.60,307.69 259.79,309.29 260.98,310.89 262.18,312.48 263.38,314.07 264.58,315.66 265.78,317.25 266.99,318.83 268.20,320.41 269.42,321.99 270.64,323.56 271.86,325.13 273.09,326.70 274.32,328.26 275.55,329.81 276.79,331.36 278.04,332.91 279.29,334.45 280.55,335.99 281.81,337.51 283.07,339.04 284.35,340.55 285.63,342.07 286.91,343.57 288.20,345.07 289.50,346.56 290.81,348.04 292.12,349.51 293.43,350.98 294.76,352.44 296.09,353.89 297.43,355.33 298.78,356.77 300.14,358.19 301.50,359.61 302.87,361.02 304.25,362.42 305.64,363.81 307.03,365.18 308.44,366.55 309.85,367.91 311.27,369.26 312.70,370.60 314.14,371.93 315.58,373.25 317.04,374.56 318.51,375.85 319.98,377.14 321.46,378.41 322.96,379.68 324.46,380.93 325.97,382.17 327.49,383.40 329.02,384.62 330.56,385.82 332.11,387.01 333.67,388.19 335.24,389.36 336.82,390.52 338.41,391.67 340.01,392.80 341.62,393.92 343.23,395.02 344.86,396.12 346.50,397.20 348.14,398.27 349.80,399.33 351.46,400.37 353.14,401.41 354.82,402.42 356.52,403.43 358.22,404.42 359.93,405.41 361.65,406.37 363.38,407.33 365.12,408.27 366.87,409.20 368.63,410.12 370.39,411.03 372.17,411.92 373.95,412.80 375.74,413.67 377.54,414.53 379.34,415.37 381.16,416.20 382.98,417.02 384.81,417.83 386.65,418.63 388.49,419.42 390.34,420.19 392.20,420.95 394.06,421.70 395.93,422.45 397.81,423.18 399.69,423.90 401.57,424.61 403.47,425.31 405.36,425.99 407.26,426.67 409.17,427.35 411.08,428.01 412.99,428.66 414.91,429.30 416.83,429.94 418.75,430.57 420.68,431.19 422.60,431.80 424.53,432.40 426.46,433.00 428.39,433.59 430.32,434.18 432.25,434.76 434.18,435.33 436.11,435.90 438.03,436.47 439.96,437.03 441.88,437.59 443.80,438.14 445.72,438.69 447.63,439.24 449.54,439.79 451.45,440.33 453.35,440.88 455.24,441.42 457.13,441.97 459.00,442.51 460.88,443.06 462.74,443.60 464.59,444.15 466.44,444.71 468.27,445.26 470.10,445.82 471.91,446.39 473.71,446.96 475.50,447.53 477.27,448.11"/>
<!-- natural/sharp disc-cut points -->
<circle cx="113.33" cy="165.96" r="0.80" fill="#ff8c5a"/>
<circle cx="108.54" cy="126.12" r="0.80" fill="#c0a0ff"/>
<circle cx="121.27" cy="170.86" r="0.80" fill="#ff8c5a"/>
<circle cx="116.56" cy="131.69" r="0.80" fill="#c0a0ff"/>
<circle cx="129.14" cy="175.76" r="0.80" fill="#ff8c5a"/>
<circle cx="124.51" cy="137.25" r="0.80" fill="#c0a0ff"/>
<circle cx="136.94" cy="180.67" r="0.80" fill="#ff8c5a"/>
<circle cx="132.39" cy="142.82" r="0.80" fill="#c0a0ff"/>
<circle cx="144.83" cy="186.55" r="0.80" fill="#ff8c5a"/>
<circle cx="140.38" cy="149.49" r="0.80" fill="#c0a0ff"/>
<circle cx="152.72" cy="192.43" r="0.80" fill="#ff8c5a"/>
<circle cx="148.36" cy="156.17" r="0.80" fill="#c0a0ff"/>
<circle cx="160.50" cy="198.30" r="0.80" fill="#ff8c5a"/>
<circle cx="156.24" cy="162.85" r="0.80" fill="#c0a0ff"/>
<circle cx="168.28" cy="204.18" r="0.80" fill="#ff8c5a"/>
<circle cx="164.12" cy="169.52" r="0.80" fill="#c0a0ff"/>
<circle cx="176.14" cy="211.05" r="0.80" fill="#ff8c5a"/>
<circle cx="172.09" cy="177.32" r="0.80" fill="#c0a0ff"/>
<circle cx="184.93" cy="218.84" r="0.80" fill="#ff8c5a"/>
<circle cx="181.03" cy="186.17" r="0.80" fill="#c0a0ff"/>
<circle cx="193.21" cy="222.76" r="0.80" fill="#ff8c5a"/>
<circle cx="189.38" cy="190.61" r="0.80" fill="#c0a0ff"/>
<circle cx="201.79" cy="229.62" r="0.80" fill="#ff8c5a"/>
<circle cx="198.07" cy="198.41" r="0.80" fill="#c0a0ff"/>
<circle cx="211.24" cy="244.32" r="0.80" fill="#ff8c5a"/>
<circle cx="207.77" cy="215.10" r="0.80" fill="#c0a0ff"/>
<circle cx="220.16" cy="255.10" r="0.80" fill="#ff8c5a"/>
<circle cx="216.86" cy="227.34" r="0.80" fill="#c0a0ff"/>
<circle cx="229.31" cy="267.83" r="0.80" fill="#ff8c5a"/>
<circle cx="226.22" cy="241.79" r="0.80" fill="#c0a0ff"/>
<circle cx="238.40" cy="280.57" r="0.80" fill="#ff8c5a"/>
<circle cx="235.52" cy="256.26" r="0.80" fill="#c0a0ff"/>
<circle cx="247.24" cy="292.33" r="0.80" fill="#ff8c5a"/>
<circle cx="244.56" cy="269.62" r="0.80" fill="#c0a0ff"/>
<circle cx="256.32" cy="306.04" r="0.80" fill="#ff8c5a"/>
<circle cx="253.86" cy="285.19" r="0.80" fill="#c0a0ff"/>
<circle cx="265.09" cy="317.81" r="0.80" fill="#ff8c5a"/>
<circle cx="262.83" cy="298.55" r="0.80" fill="#c0a0ff"/>
<circle cx="273.99" cy="330.54" r="0.80" fill="#ff8c5a"/>
<circle cx="271.93" cy="313.00" r="0.80" fill="#c0a0ff"/>
<circle cx="282.27" cy="339.36" r="0.80" fill="#ff8c5a"/>
<circle cx="280.36" cy="323.02" r="0.80" fill="#c0a0ff"/>
<circle cx="290.66" cy="349.16" r="0.80" fill="#ff8c5a"/>
<circle cx="288.91" cy="334.15" r="0.80" fill="#c0a0ff"/>
<circle cx="298.93" cy="357.98" r="0.80" fill="#ff8c5a"/>
<circle cx="297.33" cy="344.16" r="0.80" fill="#c0a0ff"/>
<circle cx="307.02" cy="365.81" r="0.80" fill="#ff8c5a"/>
<circle cx="305.55" cy="353.06" r="0.80" fill="#c0a0ff"/>
<circle cx="314.99" cy="372.68" r="0.80" fill="#ff8c5a"/>
<circle cx="313.63" cy="360.85" r="0.80" fill="#c0a0ff"/>
<circle cx="322.96" cy="379.53" r="0.80" fill="#ff8c5a"/>
<circle cx="321.72" cy="368.64" r="0.80" fill="#c0a0ff"/>
<circle cx="330.74" cy="385.41" r="0.80" fill="#ff8c5a"/>
<circle cx="329.59" cy="375.31" r="0.80" fill="#c0a0ff"/>
<circle cx="338.52" cy="391.29" r="0.80" fill="#ff8c5a"/>
<circle cx="337.47" cy="381.99" r="0.80" fill="#c0a0ff"/>
<circle cx="346.18" cy="396.19" r="0.80" fill="#ff8c5a"/>
<circle cx="345.21" cy="387.54" r="0.80" fill="#c0a0ff"/>
<circle cx="353.80" cy="401.09" r="0.80" fill="#ff8c5a"/>
<circle cx="352.91" cy="393.11" r="0.80" fill="#c0a0ff"/>
<circle cx="361.41" cy="405.98" r="0.80" fill="#ff8c5a"/>
<circle cx="360.60" cy="398.67" r="0.80" fill="#c0a0ff"/>
<circle cx="368.78" cy="408.92" r="0.80" fill="#ff8c5a"/>
<circle cx="368.02" cy="402.01" r="0.80" fill="#c0a0ff"/>
<circle cx="376.34" cy="413.82" r="0.80" fill="#ff8c5a"/>
<circle cx="375.67" cy="407.57" r="0.80" fill="#c0a0ff"/>
<circle cx="383.66" cy="416.76" r="0.80" fill="#ff8c5a"/>
<circle cx="383.04" cy="410.91" r="0.80" fill="#c0a0ff"/>
<circle cx="390.98" cy="419.70" r="0.80" fill="#ff8c5a"/>
<circle cx="390.40" cy="414.25" r="0.80" fill="#c0a0ff"/>
<circle cx="398.30" cy="422.64" r="0.80" fill="#ff8c5a"/>
<circle cx="397.77" cy="417.59" r="0.80" fill="#c0a0ff"/>
<circle cx="405.59" cy="425.58" r="0.80" fill="#ff8c5a"/>
<circle cx="405.11" cy="420.92" r="0.80" fill="#c0a0ff"/>
<circle cx="412.89" cy="428.52" r="0.80" fill="#ff8c5a"/>
<circle cx="412.46" cy="424.26" r="0.80" fill="#c0a0ff"/>
<circle cx="420.18" cy="431.46" r="0.80" fill="#ff8c5a"/>
<circle cx="419.80" cy="427.60" r="0.80" fill="#c0a0ff"/>
<circle cx="427.45" cy="434.40" r="0.80" fill="#ff8c5a"/>
<circle cx="427.12" cy="430.94" r="0.80" fill="#c0a0ff"/>
<circle cx="434.60" cy="436.36" r="0.80" fill="#ff8c5a"/>
<circle cx="434.30" cy="433.17" r="0.80" fill="#c0a0ff"/>
<circle cx="441.72" cy="438.32" r="0.80" fill="#ff8c5a"/>
<circle cx="441.45" cy="435.39" r="0.80" fill="#c0a0ff"/>
<circle cx="448.83" cy="440.28" r="0.80" fill="#ff8c5a"/>
<circle cx="448.59" cy="437.61" r="0.80" fill="#c0a0ff"/>
<circle cx="455.94" cy="442.23" r="0.80" fill="#ff8c5a"/>
<circle cx="455.74" cy="439.83" r="0.80" fill="#c0a0ff"/>
<circle cx="463.05" cy="444.20" r="0.80" fill="#ff8c5a"/>
<circle cx="462.87" cy="442.06" r="0.80" fill="#c0a0ff"/>
<circle cx="470.16" cy="446.16" r="0.80" fill="#ff8c5a"/>
<circle cx="470.02" cy="444.29" r="0.80" fill="#c0a0ff"/>
<circle cx="477.27" cy="448.11" r="0.80" fill="#ff8c5a"/>
<circle cx="477.16" cy="446.51" r="0.80" fill="#c0a0ff"/>
<text x="90" y="34" fill="#eef0f4" font-size="16">erand47 — 7° rake · string connections (loupe, lower-right)</text>
<circle cx="96" cy="50" r="1.6" fill="#c0a0ff"/><text x="104" y="54" fill="#cdd2da" font-size="12">natural (−1 semitone)</text><circle cx="232" cy="50" r="1.6" fill="#ff8c5a"/><text x="240" y="54" fill="#cdd2da" font-size="12">sharp (−2)</text>
<line x1="223" y1="214" x2="583" y2="620" stroke="#6ee0a0" stroke-width="1" stroke-dasharray="3 4" opacity="0.7"/>
<circle cx="223" cy="214" r="4" fill="none" stroke="#6ee0a0" stroke-width="1.5"/>
<line x1="375" y1="529" x2="554" y2="653" stroke="#e0b86e" stroke-width="1" stroke-dasharray="3 4" opacity="0.7"/>
<circle cx="375" cy="529" r="4" fill="none" stroke="#e0b86e" stroke-width="1.5"/>
<line x1="832" y1="885" x2="902" y2="955" stroke="#b8924a" stroke-width="16" stroke-linecap="round"/>
<circle cx="702" cy="755" r="180" fill="#0e0c08" stroke="#b8924a" stroke-width="7"/>
<g clip-path="url(#lens)"><g transform="rotate(-7 702 755)">
<path d="M 594.5,841.0 L 594.5,749.0 L 594.6,747.2 L 594.7,745.4 L 595.0,743.6 L 595.4,741.8 L 595.9,740.1 L 596.5,738.3 L 597.2,736.7 L 598.0,735.0 L 598.9,733.5 L 599.9,732.0 L 601.0,730.5 L 602.2,729.1 L 603.5,727.8 L 604.8,726.6 L 606.2,725.5 L 607.7,724.4 L 609.2,723.5 L 669.9,688.5" fill="none" stroke="#d8d2bd" stroke-width="11" stroke-linecap="round" stroke-linejoin="round"/>
<circle cx="624" cy="749" r="24" fill="#3f7d5a" stroke="#6ee0a0" stroke-width="2"/>
<circle cx="600" cy="749" r="3.5" fill="#ff5a5a"/>
<rect x="778.5" y="661" width="11" height="152" fill="#d8d2bd"/>
<line x1="778.5" y1="661" x2="778.5" y2="813" stroke="#13110d" stroke-width="1.3" stroke-dasharray="5 4"/>
<line x1="789.5" y1="661" x2="789.5" y2="813" stroke="#13110d" stroke-width="1.3" stroke-dasharray="5 4"/>
<circle cx="784" cy="753" r="26" fill="#e0b86e" fill-opacity="0.42" stroke="#e0b86e" stroke-width="2"/>
<circle cx="784" cy="824" r="11" fill="#d8d2bd" stroke="#9a957f" stroke-width="1.3"/>
</g></g>
<text x="702" y="567" fill="#cdd2da" font-size="13" text-anchor="middle">string connections</text>
<text x="624" y="901" fill="#9ad8b0" font-size="11" text-anchor="middle">neck: over + wrap</text>
<text x="784" y="901" fill="#e0b86e" font-size="11" text-anchor="middle">sndbd: thru + knot</text>
<line x1="90" y1="954" x2="190" y2="954" stroke="#aeb3bd" stroke-width="2"/><text x="140" y="948" fill="#aeb3bd" font-size="11" text-anchor="middle">200 mm</text>
</svg>