<svg xmlns="http://www.w3.org/2000/svg" width="680" height="792" viewBox="0 0 680 792" font-family="Georgia,serif">
<defs>
<linearGradient id="frame" x1="0" y1="0" x2="0" y2="1"><stop offset="0" stop-color="#c8ccd3"/><stop offset=".5" stop-color="#9094a0"/><stop offset="1" stop-color="#54585f"/></linearGradient>
<linearGradient id="steel" x1="0" y1="0" x2="0" y2="1"><stop offset="0" stop-color="#e6eaef"/><stop offset="1" stop-color="#6a6f78"/></linearGradient>
<marker id="rot" markerWidth="8" markerHeight="8" refX="4" refY="4" orient="auto"><path d="M0,0 L7,4 L0,8 Z" fill="#e0b86e"/></marker></defs>
<rect width="680" height="792" fill="#13110d"/>
<text x="340" y="32" fill="#eef0f4" font-size="15" text-anchor="middle">erand47 profile — pedals → control rods → bell-crank → discs</text>
<path d="M 158.2,64.7 159.0,65.2 159.8,65.8 160.6,66.4 161.5,67.0 162.3,67.6 163.1,68.2 163.9,68.8 164.8,69.4 165.6,70.0 166.4,70.6 167.2,71.3 168.1,71.9 168.9,72.5 169.7,73.1 170.5,73.7 171.4,74.4 172.2,75.0 173.0,75.6 173.8,76.2 174.7,76.9 175.5,77.5 176.3,78.2 177.1,78.8 178.0,79.5 178.8,80.1 179.6,80.7 180.5,81.4 181.3,82.1 182.1,82.7 183.0,83.4 183.8,84.0 184.6,84.7 185.4,85.4 186.3,86.0 187.1,86.7 187.9,87.4 188.8,88.0 189.6,88.7 190.4,89.4 191.3,90.1 192.1,90.8 192.9,91.4 193.8,92.1 194.6,92.8 195.4,93.5 196.3,94.2 197.1,94.9 197.9,95.6 198.8,96.3 199.6,97.0 200.4,97.7 201.3,98.4 202.1,99.1 203.0,99.8 203.8,100.5 204.6,101.2 205.5,101.9 206.3,102.6 207.1,103.3 208.0,104.1 208.8,104.8 209.7,105.5 210.5,106.2 211.3,106.9 212.2,107.7 213.0,108.4 213.8,109.1 214.7,109.8 215.5,110.6 216.4,111.3 217.2,112.0 218.0,112.8 218.9,113.5 219.7,114.2 220.6,115.0 221.4,115.7 222.2,116.4 223.1,117.2 223.9,117.9 224.8,118.7 225.6,119.4 226.4,120.2 227.3,120.9 228.1,121.7 229.0,122.4 229.8,123.2 230.7,123.9 231.5,124.7 232.3,125.4 233.2,126.2 234.0,127.0 234.9,127.7 235.7,128.5 236.5,129.2 237.4,130.0 238.2,130.8 239.1,131.5 239.9,132.3 240.8,133.1 241.6,133.8 242.5,134.6 243.3,135.4 244.1,136.2 245.0,136.9 245.8,137.7 246.7,138.5 247.5,139.3 248.4,140.0 249.2,140.8 250.1,141.6 250.9,142.4 251.7,143.2 252.6,144.0 253.4,144.7 254.3,145.5 255.1,146.3 256.0,147.1 256.8,147.9 257.7,148.7 258.5,149.5 259.4,150.3 260.2,151.1 261.1,151.9 261.9,152.7 262.8,153.5 263.6,154.3 264.4,155.1 265.3,155.9 266.1,156.7 267.0,157.5 267.8,158.3 268.7,159.1 269.5,159.9 270.4,160.7 271.2,161.5 272.1,162.3 272.9,163.1 273.8,163.9 274.6,164.7 275.5,165.5 276.3,166.4 277.2,167.2 278.0,168.0 278.9,168.8 279.7,169.6 280.6,170.4 281.4,171.3 282.3,172.1 283.1,172.9 284.0,173.7 284.8,174.6 285.7,175.4 286.5,176.2 287.4,177.0 288.2,177.9 289.1,178.7 289.9,179.5 290.8,180.3 291.6,181.2 292.5,182.0 293.3,182.8 294.2,183.7 295.0,184.5 295.9,185.4 296.8,186.2 297.6,187.0 298.5,187.9 299.3,188.7 300.2,189.6 301.0,190.4 301.9,191.2 302.7,192.1 303.6,192.9 304.4,193.8 305.3,194.6 306.1,195.5 307.0,196.3 307.8,197.2 308.7,198.0 309.6,198.9 310.4,199.8 311.3,200.6 312.1,201.5 313.0,202.3 313.8,203.2 314.7,204.0 315.5,204.9 316.4,205.8 317.2,206.6 318.1,207.5 319.0,208.4 319.8,209.2 320.7,210.1 321.5,211.0 322.4,211.8 323.2,212.7 324.1,213.6 325.0,214.5 325.8,215.3 326.7,216.2 327.5,217.1 328.4,218.0 329.2,218.8 330.1,219.7 331.0,220.6 331.8,221.5 332.7,222.4 333.5,223.3 334.4,224.2 335.2,225.0 336.1,225.9 337.0,226.8 337.8,227.7 338.7,228.6 339.5,229.5 340.4,230.4 341.3,231.3 342.1,232.2 343.0,233.1 343.8,234.0 344.7,234.9 345.6,235.8 346.4,236.7 347.3,237.6 348.1,238.5 349.0,239.4 349.9,240.3 350.7,241.3 351.6,242.2 352.4,243.1 353.3,244.0 354.2,244.9 355.0,245.8 355.9,246.8 356.8,247.7 357.6,248.6 358.5,249.5 359.3,250.5 360.2,251.4 361.1,252.3 361.9,253.2 362.8,254.2 363.7,255.1 364.5,256.0 365.4,257.0 366.3,257.9 367.1,258.9 368.0,259.8 368.9,260.7 369.7,261.7 370.6,262.6 371.5,263.6 372.3,264.5 373.2,265.5 374.1,266.4 374.9,267.4 375.8,268.3 376.7,269.3 377.5,270.3 378.4,271.2 379.3,272.2 380.1,273.1 381.0,274.1 381.9,275.1 382.7,276.0 383.6,277.0 384.5,278.0 385.3,279.0 386.2,279.9 387.1,280.9 387.9,281.9 388.8,282.9 389.7,283.9 390.6,284.8 391.4,285.8 392.3,286.8 393.2,287.8 394.0,288.8 394.9,289.8 395.8,290.8 396.6,291.8 397.5,292.8 398.4,293.8 399.3,294.8 400.1,295.8 401.0,296.8 401.9,297.8 402.8,298.8 403.6,299.8 404.5,300.8 405.4,301.9 406.3,302.9 407.1,303.9 408.0,304.9 408.9,305.9 409.8,307.0 410.6,308.0 411.5,309.0 412.4,310.0 412.4,310.0 412.7,310.5 413.1,310.9 413.4,311.3 413.8,311.7 414.1,312.1 414.4,312.5 414.7,312.8 415.1,313.2 415.3,313.6 415.6,313.9 415.9,314.3 416.2,314.6 416.5,314.9 416.7,315.3 417.0,315.6 417.2,315.9 417.4,316.2 417.7,316.5 417.9,316.8 418.1,317.1 418.3,317.4 418.5,317.6 418.7,317.9 418.9,318.2 419.0,318.5 419.2,318.7 419.4,319.0 419.5,319.2 419.7,319.5 419.8,319.7 419.9,320.0 420.1,320.2 420.2,320.5 420.3,320.7 420.4,320.9 420.5,321.2 420.5,321.4 420.6,321.6 420.7,321.9 420.8,322.1 420.8,322.3 420.9,322.5 420.9,322.8 420.9,323.0 421.0,323.2 421.0,323.4 421.0,323.7 421.0,323.9 421.0,324.1 421.0,324.3 421.0,324.6 421.0,324.8 420.9,325.0 420.9,325.3 420.9,325.5 420.8,325.7 420.8,326.0 420.7,326.2 420.6,326.5 420.6,326.7 420.5,327.0 420.4,327.2 420.3,327.5 420.2,327.7 420.1,328.0 420.0,328.3 419.8,328.5 419.7,328.8 419.6,329.1 419.4,329.4 419.3,329.7 419.1,330.0 419.0,330.3 418.8,330.6 418.6,330.9 418.5,331.3 418.3,331.6 418.1,331.9 417.9,332.3 417.7,332.6 417.5,333.0 417.3,333.3 417.0,333.7 416.8,334.1 416.6,334.5 416.3,334.9 416.1,335.3 415.8,335.7 415.6,336.1 415.6,336.1 415.0,337.2 414.3,338.2 413.7,339.2 413.1,340.3 412.5,341.3 411.8,342.3 411.2,343.3 410.6,344.3 410.0,345.3 409.3,346.4 408.7,347.4 408.1,348.4 407.5,349.4 406.8,350.4 406.2,351.4 405.6,352.4 405.0,353.4 404.3,354.4 403.7,355.4 403.1,356.4 402.5,357.4 401.8,358.4 401.2,359.4 400.6,360.4 399.9,361.3 399.3,362.3 398.7,363.3 398.1,364.3 397.4,365.3 396.8,366.2 396.2,367.2 395.5,368.2 394.9,369.2 394.3,370.1 393.6,371.1 393.0,372.1 392.4,373.0 391.8,374.0 391.1,375.0 390.5,375.9 389.9,376.9 389.2,377.8 388.6,378.8 388.0,379.8 387.3,380.7 386.7,381.7 386.1,382.6 385.4,383.6 384.8,384.5 384.2,385.4 383.5,386.4 382.9,387.3 382.3,388.3 381.6,389.2 381.0,390.1 380.4,391.1 379.7,392.0 379.1,392.9 378.5,393.9 377.8,394.8 377.2,395.7 376.6,396.7 375.9,397.6 375.3,398.5 374.6,399.4 374.0,400.3 373.4,401.3 372.7,402.2 372.1,403.1 371.5,404.0 370.8,404.9 370.2,405.8 369.5,406.8 368.9,407.7 368.3,408.6 367.6,409.5 367.0,410.4 366.4,411.3 365.7,412.2 365.1,413.1 364.4,414.0 363.8,414.9 363.2,415.8 362.5,416.7 361.9,417.6 361.2,418.5 360.6,419.4 360.0,420.3 359.3,421.1 358.7,422.0 358.0,422.9 357.4,423.8 356.8,424.7 356.1,425.6 355.5,426.5 354.8,427.3 354.2,428.2 353.6,429.1 352.9,430.0 352.3,430.9 351.6,431.7 351.0,432.6 350.3,433.5 349.7,434.3 349.1,435.2 348.4,436.1 347.8,437.0 347.1,437.8 346.5,438.7 345.8,439.6 345.2,440.4 344.6,441.3 343.9,442.1 343.3,443.0 342.6,443.9 342.0,444.7 341.3,445.6 340.7,446.4 340.1,447.3 339.4,448.1 338.8,449.0 338.1,449.9 337.5,450.7 336.8,451.6 336.2,452.4 335.5,453.2 334.9,454.1 334.2,454.9 333.6,455.8 333.0,456.6 332.3,457.5 331.7,458.3 331.0,459.2 330.4,460.0 329.7,460.8 329.1,461.7 328.4,462.5 327.8,463.3 327.1,464.2 326.5,465.0 325.8,465.8 325.2,466.7 324.5,467.5 323.9,468.3 323.3,469.2 322.6,470.0 322.0,470.8 321.3,471.6 320.7,472.5 320.0,473.3 319.4,474.1 318.7,474.9 318.1,475.7 317.4,476.6 316.8,477.4 316.1,478.2 315.5,479.0 314.8,479.8 314.2,480.6 313.5,481.5 312.9,482.3 312.2,483.1 311.6,483.9 310.9,484.7 310.3,485.5 309.6,486.3 309.0,487.1 308.3,487.9 307.7,488.7 307.0,489.5 306.4,490.3 305.7,491.1 305.1,491.9 304.4,492.7 303.8,493.5 303.1,494.3 302.5,495.1 301.8,495.9 301.2,496.7 300.5,497.5 299.8,498.3 299.2,499.1 298.5,499.9 297.9,500.7 297.2,501.4 296.6,502.2 295.9,503.0 295.3,503.8 294.6,504.6 294.0,505.4 293.3,506.1 292.7,506.9 292.0,507.7 291.4,508.5 290.7,509.3 290.0,510.0 289.4,510.8 288.7,511.6 288.1,512.3 287.4,513.1 286.8,513.9 286.1,514.6 285.5,515.4 284.8,516.2 284.2,516.9 283.5,517.7 282.8,518.5 282.2,519.2 281.5,520.0 280.9,520.7 280.2,521.5 279.6,522.3 278.9,523.0 278.2,523.8 277.6,524.5 276.9,525.3 276.3,526.0 275.6,526.8 275.0,527.5 274.3,528.3 273.6,529.0 273.0,529.7 272.3,530.5 271.7,531.2 271.0,532.0 270.3,532.7 269.7,533.4 269.0,534.2 268.4,534.9 267.7,535.6 267.1,536.4 266.4,537.1 265.7,537.8 265.1,538.5 264.4,539.3 263.7,540.0 263.1,540.7 262.4,541.4 261.8,542.1 261.1,542.8 260.4,543.6 259.8,544.3 259.1,545.0 258.5,545.7 257.8,546.4 257.1,547.1 256.5,547.8 255.8,548.5 255.1,549.2 254.5,549.9 253.8,550.6 253.1,551.3 252.5,552.0 251.8,552.7 251.2,553.4 250.5,554.1 249.8,554.7 249.2,555.4 248.5,556.1 247.8,556.8 247.2,557.5 246.5,558.1 245.8,558.8 245.2,559.5 244.5,560.2 243.8,560.8 243.2,561.5 242.5,562.2 241.8,562.8 241.2,563.5 240.5,564.1 239.8,564.8 239.1,565.4 238.5,566.1 237.8,566.7 237.1,567.4 236.5,568.0 235.8,568.7 235.1,569.3 234.5,569.9 233.8,570.6 233.1,571.2 232.4,571.8 231.8,572.5 231.1,573.1 230.4,573.7 229.7,574.3 229.1,574.9 228.4,575.6 227.7,576.2 227.0,576.8 226.4,577.4 225.7,578.0 225.0,578.6 224.3,579.2 223.7,579.8 223.0,580.4 222.3,580.9 221.6,581.5 221.6,581.5 220.7,582.1 219.8,582.2 218.9,581.9 217.9,581.2 216.8,580.0 215.8,578.5 214.7,576.6 213.7,574.3 212.5,571.7 211.4,568.7 210.2,565.3 209.1,561.7 207.9,557.7 206.7,553.4 205.5,548.8 204.2,543.9 203.0,538.7 201.7,533.2 200.4,527.5 199.1,521.5 197.9,515.3 196.6,508.8 195.3,502.1 193.9,495.2 192.6,488.1 191.3,480.8 190.0,473.3 188.7,465.7 187.4,457.9 186.1,449.9 184.8,441.8 183.5,433.5 182.2,425.2 180.9,416.7 179.6,408.1 178.4,399.4 177.1,390.6 175.9,381.7 174.6,372.8 173.4,363.9 172.2,354.9 171.1,345.8 169.9,336.7 168.8,327.6 167.7,318.5 166.6,309.5 165.5,300.4 164.4,291.3 163.4,282.3 162.4,273.4 161.5,264.4 160.5,255.6 159.6,246.8 158.8,238.1 157.9,229.5 157.1,221.0 156.4,212.7 155.6,204.4 154.9,196.3 154.3,188.3 153.7,180.5 153.1,172.8 152.6,165.4 152.1,158.1 151.7,151.0 151.3,144.1 151.0,137.4 150.7,130.9 150.4,124.7 150.2,118.7 150.1,113.0 150.0,107.5 150.0,102.3 150.0,97.4 150.1,92.8 150.3,88.5 150.5,84.5 150.8,80.8 151.1,77.5 151.5,74.5 152.0,71.9 152.5,69.6 153.1,67.7 153.8,66.2 154.5,65.0 155.3,64.3 156.2,64.0 157.1,64.1 158.2,64.7 Z M 158.9,70.3 159.8,71.4 160.6,72.5 161.5,73.6 162.4,74.7 163.3,75.8 164.2,76.8 165.0,77.9 165.9,79.0 166.8,80.0 167.7,81.1 168.6,82.1 169.4,83.2 170.3,84.2 171.2,85.2 172.1,86.2 172.9,87.2 173.8,88.2 174.7,89.2 175.6,90.2 176.4,91.2 177.3,92.2 178.2,93.2 179.0,94.2 179.9,95.1 180.8,96.1 181.6,97.1 182.5,98.0 183.4,99.0 184.2,99.9 185.1,100.9 186.0,101.8 186.8,102.7 187.7,103.7 188.6,104.6 189.4,105.5 190.3,106.4 191.1,107.3 192.0,108.3 192.9,109.2 193.7,110.1 194.6,111.0 195.4,111.9 196.3,112.8 197.2,113.6 198.0,114.5 198.9,115.4 199.7,116.3 200.6,117.2 201.5,118.1 202.3,118.9 203.2,119.8 204.0,120.7 204.9,121.5 205.7,122.4 206.6,123.3 207.4,124.1 208.3,125.0 209.2,125.8 210.0,126.7 210.9,127.5 211.7,128.4 212.6,129.2 213.4,130.1 214.3,130.9 215.1,131.8 216.0,132.6 216.8,133.4 217.7,134.3 218.5,135.1 219.4,135.9 220.2,136.8 221.1,137.6 221.9,138.4 222.8,139.3 223.6,140.1 224.5,140.9 225.3,141.7 226.2,142.6 227.0,143.4 227.9,144.2 228.7,145.0 229.6,145.8 230.4,146.6 231.3,147.5 232.1,148.3 233.0,149.1 233.8,149.9 234.7,150.7 235.5,151.5 236.4,152.3 237.2,153.2 238.1,154.0 238.9,154.8 239.8,155.6 240.6,156.4 241.5,157.2 242.3,158.0 243.2,158.8 244.0,159.6 244.9,160.4 245.7,161.3 246.6,162.1 247.4,162.9 248.3,163.7 249.1,164.5 250.0,165.3 250.8,166.1 251.7,166.9 252.5,167.7 253.4,168.5 254.2,169.3 255.1,170.1 255.9,170.9 256.8,171.7 257.6,172.5 258.4,173.3 259.3,174.1 260.1,174.9 261.0,175.7 261.8,176.6 262.7,177.4 263.5,178.2 264.4,179.0 265.2,179.8 266.1,180.6 266.9,181.4 267.8,182.2 268.6,183.0 269.5,183.8 270.3,184.6 271.2,185.4 272.0,186.2 272.9,187.0 273.7,187.8 274.6,188.6 275.4,189.4 276.3,190.2 277.1,191.1 278.0,191.9 278.8,192.7 279.7,193.5 280.5,194.3 281.4,195.1 282.2,195.9 283.1,196.7 283.9,197.5 284.7,198.3 285.6,199.1 286.4,199.9 287.3,200.7 288.1,201.6 289.0,202.4 289.8,203.2 290.7,204.0 291.5,204.8 292.4,205.6 293.2,206.4 294.1,207.2 294.9,208.0 295.8,208.8 296.6,209.6 297.5,210.5 298.3,211.3 299.2,212.1 300.0,212.9 300.9,213.7 301.7,214.5 302.6,215.3 303.4,216.1 304.3,216.9 305.1,217.7 306.0,218.6 306.8,219.4 307.7,220.2 308.5,221.0 309.4,221.8 310.2,222.6 311.1,223.4 311.9,224.2 312.8,225.0 313.6,225.8 314.5,226.7 315.3,227.5 316.2,228.3 317.0,229.1 317.9,229.9 318.7,230.7 319.6,231.5 320.4,232.3 321.2,233.1 322.1,233.9 322.9,234.7 323.8,235.5 324.6,236.3 325.5,237.2 326.3,238.0 327.2,238.8 328.0,239.6 328.9,240.4 329.7,241.2 330.6,242.0 331.4,242.8 332.3,243.6 333.1,244.4 334.0,245.2 334.8,246.0 335.7,246.8 336.5,247.6 337.4,248.4 338.2,249.2 339.1,250.0 339.9,250.8 340.8,251.6 341.6,252.4 342.4,253.2 343.3,254.0 344.1,254.8 345.0,255.6 345.8,256.3 346.7,257.1 347.5,257.9 348.4,258.7 349.2,259.5 350.1,260.3 350.9,261.1 351.8,261.9 352.6,262.7 353.4,263.4 354.3,264.2 355.1,265.0 356.0,265.8 356.8,266.6 357.7,267.3 358.5,268.1 359.4,268.9 360.2,269.7 361.1,270.5 361.9,271.2 362.7,272.0 363.6,272.8 364.4,273.5 365.3,274.3 366.1,275.1 367.0,275.8 367.8,276.6 368.6,277.4 369.5,278.1 370.3,278.9 371.2,279.7 372.0,280.4 372.9,281.2 373.7,281.9 374.5,282.7 375.4,283.4 376.2,284.2 377.1,284.9 377.9,285.7 378.8,286.4 379.6,287.2 380.4,287.9 381.3,288.7 382.1,289.4 383.0,290.2 383.8,290.9 384.6,291.6 385.5,292.4 386.3,293.1 387.2,293.8 388.0,294.6 388.8,295.3 389.7,296.0 390.5,296.7 391.4,297.5 392.2,298.2 393.0,298.9 393.9,299.6 394.7,300.4 395.5,301.1 396.4,301.8 397.2,302.5 398.1,303.2 398.9,303.9 399.7,304.6 400.6,305.3 401.4,306.0 402.2,306.7 403.1,307.4 403.9,308.1 404.7,308.8 405.6,309.5 406.4,310.2 407.2,310.9 408.1,311.6 408.9,312.3 409.7,313.0 410.6,313.6 411.4,314.3 412.2,315.0 413.1,315.7 413.1,315.7 413.3,315.9 413.5,316.0 413.7,316.2 413.9,316.4 414.1,316.6 414.3,316.8 414.5,316.9 414.7,317.1 414.9,317.3 415.1,317.5 415.2,317.6 415.4,317.8 415.6,318.0 415.7,318.1 415.9,318.3 416.1,318.5 416.2,318.6 416.3,318.8 416.5,319.0 416.6,319.1 416.7,319.3 416.9,319.5 417.0,319.6 417.1,319.8 417.2,320.0 417.3,320.1 417.4,320.3 417.5,320.5 417.6,320.6 417.7,320.8 417.8,320.9 417.9,321.1 417.9,321.3 418.0,321.4 418.1,321.6 418.1,321.7 418.2,321.9 418.2,322.1 418.3,322.2 418.3,322.4 418.4,322.5 418.4,322.7 418.4,322.9 418.4,323.0 418.5,323.2 418.5,323.3 418.5,323.5 418.5,323.6 418.5,323.8 418.5,324.0 418.5,324.1 418.5,324.3 418.5,324.4 418.4,324.6 418.4,324.8 418.4,324.9 418.3,325.1 418.3,325.2 418.3,325.4 418.2,325.6 418.2,325.7 418.1,325.9 418.0,326.1 418.0,326.2 417.9,326.4 417.8,326.5 417.8,326.7 417.7,326.9 417.6,327.0 417.5,327.2 417.4,327.4 417.3,327.5 417.2,327.7 417.1,327.9 417.0,328.0 416.8,328.2 416.7,328.4 416.6,328.6 416.5,328.7 416.3,328.9 416.2,329.1 416.0,329.3 415.9,329.4 415.7,329.6 415.6,329.8 415.4,330.0 415.2,330.1 415.1,330.3 414.9,330.5 414.9,330.5 414.2,331.2 413.6,331.9 412.9,332.5 412.2,333.2 411.6,333.9 410.9,334.6 410.2,335.3 409.6,336.0 408.9,336.7 408.2,337.4 407.6,338.1 406.9,338.8 406.2,339.5 405.6,340.2 404.9,340.9 404.3,341.6 403.6,342.3 402.9,343.0 402.3,343.7 401.6,344.4 400.9,345.1 400.3,345.8 399.6,346.6 399.0,347.3 398.3,348.0 397.6,348.7 397.0,349.4 396.3,350.2 395.7,350.9 395.0,351.6 394.3,352.4 393.7,353.1 393.0,353.8 392.4,354.6 391.7,355.3 391.0,356.0 390.4,356.8 389.7,357.5 389.1,358.3 388.4,359.0 387.8,359.7 387.1,360.5 386.4,361.2 385.8,362.0 385.1,362.7 384.5,363.5 383.8,364.3 383.2,365.0 382.5,365.8 381.8,366.5 381.2,367.3 380.5,368.0 379.9,368.8 379.2,369.6 378.6,370.3 377.9,371.1 377.3,371.9 376.6,372.6 375.9,373.4 375.3,374.2 374.6,375.0 374.0,375.7 373.3,376.5 372.7,377.3 372.0,378.1 371.4,378.8 370.7,379.6 370.1,380.4 369.4,381.2 368.8,382.0 368.1,382.8 367.4,383.5 366.8,384.3 366.1,385.1 365.5,385.9 364.8,386.7 364.2,387.5 363.5,388.3 362.9,389.1 362.2,389.8 361.6,390.6 360.9,391.4 360.3,392.2 359.6,393.0 359.0,393.8 358.3,394.6 357.7,395.4 357.0,396.2 356.4,397.0 355.7,397.8 355.1,398.6 354.4,399.4 353.8,400.2 353.1,401.0 352.5,401.8 351.8,402.6 351.1,403.4 350.5,404.2 349.8,405.0 349.2,405.8 348.5,406.6 347.9,407.4 347.2,408.2 346.6,409.0 345.9,409.8 345.3,410.6 344.6,411.5 344.0,412.3 343.3,413.1 342.7,413.9 342.0,414.7 341.4,415.5 340.7,416.3 340.1,417.1 339.4,417.9 338.8,418.7 338.1,419.5 337.5,420.3 336.8,421.2 336.2,422.0 335.5,422.8 334.9,423.6 334.2,424.4 333.6,425.2 332.9,426.0 332.3,426.8 331.6,427.6 331.0,428.4 330.3,429.3 329.7,430.1 329.0,430.9 328.4,431.7 327.7,432.5 327.1,433.3 326.4,434.1 325.8,434.9 325.1,435.7 324.5,436.5 323.8,437.4 323.2,438.2 322.5,439.0 321.9,439.8 321.2,440.6 320.6,441.4 319.9,442.2 319.3,443.0 318.6,443.8 318.0,444.6 317.3,445.4 316.7,446.3 316.0,447.1 315.4,447.9 314.7,448.7 314.1,449.5 313.4,450.3 312.8,451.1 312.1,451.9 311.5,452.7 310.8,453.5 310.2,454.3 309.5,455.1 308.9,455.9 308.2,456.8 307.6,457.6 306.9,458.4 306.3,459.2 305.6,460.0 305.0,460.8 304.3,461.6 303.7,462.4 303.0,463.2 302.4,464.0 301.7,464.8 301.1,465.6 300.4,466.4 299.8,467.2 299.1,468.0 298.5,468.8 297.8,469.6 297.2,470.4 296.5,471.2 295.9,472.1 295.2,472.9 294.6,473.7 293.9,474.5 293.3,475.3 292.6,476.1 292.0,476.9 291.3,477.7 290.7,478.5 290.0,479.3 289.4,480.1 288.7,480.9 288.1,481.7 287.4,482.5 286.8,483.3 286.1,484.1 285.5,484.9 284.8,485.7 284.2,486.6 283.5,487.4 282.9,488.2 282.2,489.0 281.6,489.8 280.9,490.6 280.3,491.4 279.6,492.2 279.0,493.0 278.3,493.8 277.7,494.7 277.0,495.5 276.4,496.3 275.7,497.1 275.1,497.9 274.4,498.7 273.8,499.5 273.1,500.4 272.5,501.2 271.8,502.0 271.2,502.8 270.5,503.6 269.9,504.5 269.2,505.3 268.6,506.1 267.9,506.9 267.3,507.8 266.6,508.6 266.0,509.4 265.3,510.3 264.7,511.1 264.1,511.9 263.4,512.8 262.8,513.6 262.1,514.4 261.5,515.3 260.8,516.1 260.2,517.0 259.5,517.8 258.9,518.7 258.2,519.5 257.6,520.4 256.9,521.2 256.3,522.1 255.7,522.9 255.0,523.8 254.4,524.7 253.7,525.5 253.1,526.4 252.4,527.3 251.8,528.1 251.2,529.0 250.5,529.9 249.9,530.8 249.2,531.7 248.6,532.5 248.0,533.4 247.3,534.3 246.7,535.2 246.0,536.1 245.4,537.0 244.8,537.9 244.1,538.8 243.5,539.8 242.9,540.7 242.2,541.6 241.6,542.5 240.9,543.5 240.3,544.4 239.7,545.3 239.0,546.3 238.4,547.2 237.8,548.2 237.1,549.1 236.5,550.1 235.9,551.1 235.3,552.0 234.6,553.0 234.0,554.0 233.4,555.0 232.7,556.0 232.1,556.9 231.5,557.9 230.9,559.0 230.2,560.0 229.6,561.0 229.0,562.0 228.4,563.0 227.7,564.1 227.1,565.1 226.5,566.2 225.9,567.2 225.3,568.3 224.6,569.3 224.0,570.4 223.4,571.5 222.8,572.6 222.2,573.7 221.6,574.8 220.9,575.9 220.9,575.9 220.4,576.6 219.9,576.8 219.3,576.6 218.7,576.0 218.0,575.0 217.3,573.6 216.6,571.8 215.8,569.7 215.0,567.1 214.2,564.3 213.3,561.0 212.4,557.5 211.5,553.6 210.6,549.4 209.7,545.0 208.7,540.2 207.7,535.1 206.7,529.8 205.6,524.2 204.6,518.3 203.5,512.2 202.4,505.9 201.3,499.3 200.2,492.6 199.1,485.6 197.9,478.4 196.8,471.1 195.6,463.5 194.5,455.9 193.3,448.0 192.1,440.0 190.9,431.9 189.8,423.7 188.6,415.3 187.4,406.8 186.3,398.3 185.1,389.6 183.9,380.9 182.8,372.1 181.6,363.3 180.5,354.4 179.3,345.5 178.2,336.5 177.1,327.6 176.0,318.6 174.9,309.7 173.8,300.7 172.8,291.8 171.7,282.9 170.7,274.1 169.7,265.3 168.7,256.6 167.8,247.9 166.9,239.4 166.0,230.9 165.1,222.5 164.2,214.3 163.4,206.2 162.6,198.2 161.9,190.3 161.1,182.6 160.4,175.1 159.8,167.8 159.1,160.6 158.6,153.6 158.0,146.9 157.5,140.3 157.0,134.0 156.6,127.9 156.2,122.0 155.9,116.4 155.6,111.1 155.4,106.0 155.2,101.2 155.0,96.7 154.9,92.6 154.9,88.7 154.9,85.1 155.0,81.9 155.1,79.1 155.3,76.5 155.5,74.4 155.8,72.6 156.1,71.2 156.6,70.2 157.0,69.6 157.6,69.4 158.2,69.6 158.9,70.3 Z" fill="url(#frame)" fill-rule="evenodd" stroke="#ff9e6b" stroke-width="1.1"/>
<line x1="158.5" y1="67.5" x2="221.3" y2="578.7" stroke="#7d7762" stroke-width="0.5"/>
<line x1="164.2" y1="72.8" x2="225.6" y2="573.4" stroke="#7d7762" stroke-width="0.5"/>
<line x1="169.8" y1="78.1" x2="230.0" y2="568.0" stroke="#7d7762" stroke-width="0.5"/>
<line x1="175.4" y1="83.5" x2="234.2" y2="562.7" stroke="#7d7762" stroke-width="0.5"/>
<line x1="180.9" y1="88.8" x2="238.4" y2="557.4" stroke="#7d7762" stroke-width="0.5"/>
<line x1="186.4" y1="94.1" x2="242.7" y2="552.0" stroke="#7d7762" stroke-width="0.5"/>
<line x1="191.9" y1="99.5" x2="246.8" y2="546.7" stroke="#7d7762" stroke-width="0.5"/>
<line x1="197.4" y1="104.8" x2="251.0" y2="541.4" stroke="#7d7762" stroke-width="0.5"/>
<line x1="202.8" y1="110.2" x2="255.1" y2="536.0" stroke="#7d7762" stroke-width="0.5"/>
<line x1="208.5" y1="115.5" x2="259.5" y2="530.7" stroke="#7d7762" stroke-width="0.5"/>
<line x1="214.5" y1="120.8" x2="264.2" y2="525.4" stroke="#7d7762" stroke-width="0.5"/>
<line x1="220.5" y1="126.2" x2="268.8" y2="520.0" stroke="#7d7762" stroke-width="0.5"/>
<line x1="226.3" y1="131.5" x2="273.4" y2="514.7" stroke="#7d7762" stroke-width="0.5"/>
<line x1="232.2" y1="136.8" x2="277.9" y2="509.4" stroke="#7d7762" stroke-width="0.5"/>
<line x1="238.0" y1="142.2" x2="282.4" y2="504.0" stroke="#7d7762" stroke-width="0.5"/>
<line x1="243.8" y1="147.5" x2="286.9" y2="498.7" stroke="#7d7762" stroke-width="0.5"/>
<line x1="249.5" y1="152.8" x2="291.3" y2="493.4" stroke="#7d7762" stroke-width="0.5"/>
<line x1="255.2" y1="158.2" x2="295.7" y2="488.0" stroke="#7d7762" stroke-width="0.5"/>
<line x1="260.8" y1="163.5" x2="300.0" y2="482.7" stroke="#7d7762" stroke-width="0.5"/>
<line x1="266.5" y1="168.8" x2="304.4" y2="477.4" stroke="#7d7762" stroke-width="0.5"/>
<line x1="272.1" y1="174.2" x2="308.7" y2="472.0" stroke="#7d7762" stroke-width="0.5"/>
<line x1="277.6" y1="179.5" x2="312.9" y2="466.7" stroke="#7d7762" stroke-width="0.5"/>
<line x1="283.2" y1="184.8" x2="317.1" y2="461.4" stroke="#7d7762" stroke-width="0.5"/>
<line x1="288.7" y1="190.2" x2="321.3" y2="456.0" stroke="#7d7762" stroke-width="0.5"/>
<line x1="294.2" y1="195.5" x2="325.5" y2="450.7" stroke="#7d7762" stroke-width="0.5"/>
<line x1="299.7" y1="200.8" x2="329.7" y2="445.3" stroke="#7d7762" stroke-width="0.5"/>
<line x1="305.2" y1="206.2" x2="333.9" y2="440.0" stroke="#7d7762" stroke-width="0.5"/>
<line x1="310.6" y1="211.5" x2="338.0" y2="434.7" stroke="#7d7762" stroke-width="0.5"/>
<line x1="316.1" y1="216.8" x2="342.2" y2="429.3" stroke="#7d7762" stroke-width="0.5"/>
<line x1="321.5" y1="222.2" x2="346.3" y2="424.0" stroke="#7d7762" stroke-width="0.5"/>
<line x1="326.9" y1="227.5" x2="350.4" y2="418.7" stroke="#7d7762" stroke-width="0.5"/>
<line x1="332.4" y1="232.8" x2="354.5" y2="413.3" stroke="#7d7762" stroke-width="0.5"/>
<line x1="337.8" y1="238.2" x2="358.6" y2="408.0" stroke="#7d7762" stroke-width="0.5"/>
<line x1="343.1" y1="243.5" x2="362.7" y2="402.7" stroke="#7d7762" stroke-width="0.5"/>
<line x1="348.5" y1="248.9" x2="366.8" y2="397.3" stroke="#7d7762" stroke-width="0.5"/>
<line x1="353.9" y1="254.2" x2="370.8" y2="392.0" stroke="#7d7762" stroke-width="0.5"/>
<line x1="359.3" y1="259.5" x2="374.9" y2="386.7" stroke="#7d7762" stroke-width="0.5"/>
<line x1="364.7" y1="264.9" x2="379.0" y2="381.3" stroke="#7d7762" stroke-width="0.5"/>
<line x1="370.0" y1="270.2" x2="383.0" y2="376.0" stroke="#7d7762" stroke-width="0.5"/>
<line x1="375.4" y1="275.5" x2="387.1" y2="370.7" stroke="#7d7762" stroke-width="0.5"/>
<line x1="380.8" y1="280.9" x2="391.1" y2="365.3" stroke="#7d7762" stroke-width="0.5"/>
<line x1="386.1" y1="286.2" x2="395.2" y2="360.0" stroke="#7d7762" stroke-width="0.5"/>
<line x1="391.4" y1="291.5" x2="399.2" y2="354.7" stroke="#7d7762" stroke-width="0.5"/>
<line x1="396.8" y1="296.9" x2="403.2" y2="349.3" stroke="#7d7762" stroke-width="0.5"/>
<line x1="402.1" y1="302.2" x2="407.2" y2="344.0" stroke="#7d7762" stroke-width="0.5"/>
<line x1="407.4" y1="307.5" x2="411.2" y2="338.7" stroke="#7d7762" stroke-width="0.5"/>
<line x1="412.7" y1="312.9" x2="415.2" y2="333.3" stroke="#7d7762" stroke-width="0.5"/>
<polyline points="162.0,96.2 167.6,100.9 173.2,105.6 178.7,110.4 184.1,115.1 189.6,119.8 195.0,124.6 200.4,129.3 205.8,134.1 211.4,138.8 217.3,143.5 223.2,148.3 229.0,153.0 234.7,157.7 240.5,162.5 246.2,167.2 251.9,171.9 257.5,176.7 263.0,181.4 268.6,186.1 274.1,190.9 279.6,195.6 285.1,200.4 290.5,205.1 295.9,209.8 301.4,214.6 306.8,219.3 312.2,224.0 317.5,228.8 322.9,233.5 328.3,238.2 333.6,243.0 338.9,247.7 344.2,252.4 349.6,257.2 354.9,261.9 360.2,266.7 365.5,271.4 370.8,276.1 376.1,280.9 381.3,285.6 386.6,290.3 391.9,295.1 397.1,299.8 402.4,304.5 407.6,309.3 412.9,314.0" fill="none" stroke="#c0a0ff" stroke-width="2.2" opacity="0.9"/>
<polyline points="165.4,123.3 170.9,127.4 176.4,131.6 181.8,135.8 187.2,139.9 192.6,144.1 197.9,148.3 203.2,152.4 208.5,156.6 214.1,160.8 219.9,165.0 225.7,169.1 231.5,173.3 237.2,177.5 242.8,181.6 248.5,185.8 254.1,190.0 259.6,194.2 265.1,198.3 270.6,202.5 276.1,206.7 281.5,210.8 286.9,215.0 292.2,219.2 297.6,223.3 303.0,227.5 308.3,231.7 313.6,235.9 318.9,240.0 324.2,244.2 329.5,248.4 334.8,252.5 340.0,256.7 345.3,260.9 350.5,265.1 355.8,269.2 361.0,273.4 366.2,277.6 371.5,281.7 376.7,285.9 381.9,290.1 387.1,294.2 392.3,298.4 397.5,302.6 402.6,306.8 407.8,310.9 413.0,315.1" fill="none" stroke="#ff8c5a" stroke-width="2.2" opacity="0.9"/>
<circle cx="162.0" cy="96.2" r="2.3" fill="url(#steel)" stroke="#eef0f4" stroke-width="0.5"/>
<circle cx="195.0" cy="124.6" r="2.3" fill="url(#steel)" stroke="#eef0f4" stroke-width="0.5"/>
<circle cx="229.0" cy="153.0" r="2.3" fill="url(#steel)" stroke="#eef0f4" stroke-width="0.5"/>
<circle cx="263.0" cy="181.4" r="2.3" fill="url(#steel)" stroke="#eef0f4" stroke-width="0.5"/>
<circle cx="295.9" cy="209.8" r="2.3" fill="url(#steel)" stroke="#eef0f4" stroke-width="0.5"/>
<circle cx="328.3" cy="238.2" r="2.3" fill="url(#steel)" stroke="#eef0f4" stroke-width="0.5"/>
<circle cx="360.2" cy="266.7" r="2.3" fill="url(#steel)" stroke="#eef0f4" stroke-width="0.5"/>
<circle cx="391.9" cy="295.1" r="2.3" fill="url(#steel)" stroke="#eef0f4" stroke-width="0.5"/>
<circle cx="155" cy="65" r="12" fill="#2a2d31" stroke="#e0b86e" stroke-width="2"/>
<line x1="155" y1="65" x2="191" y2="67" stroke="#e0b86e" stroke-width="3"/>
<path d="M 166.51862934439905,56.47563264745112 A 15 15 0 0 1 169.51862934439905,71.47563264745112" fill="none" stroke="#e0b86e" stroke-width="1.5" marker-end="url(#rot)"/>
<text x="155" y="49" fill="#e0b86e" font-size="12" text-anchor="middle">bell-crank (vert→rotary)</text>
<line x1="191" y1="67" x2="413" y2="314" stroke="#9ad8b0" stroke-width="1.2" stroke-dasharray="6 5" opacity="0.75"/>
<text x="291" y="197" fill="#9ad8b0" font-size="10" text-anchor="middle">neck rods → class discs</text>
<polyline points="154.5,65.5 155.2,64.7 154.1,64.1 153.2,64.0 152.3,64.3 151.5,65.0 150.8,66.2 150.1,67.7 149.5,69.6 149.0,71.9 148.5,74.5 148.1,77.5 147.8,80.8 147.5,84.5 147.3,88.5 147.1,92.8 147.0,97.4 147.0,102.3 147.0,107.5 147.1,113.0 147.2,118.7 147.4,124.7 147.7,130.9 148.0,137.4 148.3,144.1 148.7,151.0 149.1,158.1 149.6,165.4 150.1,172.8 150.7,180.5 151.3,188.3 151.9,196.3 152.6,204.4 153.4,212.7 154.1,221.0 154.9,229.5 155.8,238.1 156.6,246.8 157.5,255.6 158.5,264.4 159.4,273.4 160.4,282.3 161.4,291.3 162.5,300.4 163.6,309.5 164.7,318.5 165.8,327.6 166.9,336.7 168.1,345.8 169.2,354.9 170.4,363.9 171.6,372.8 172.9,381.7 174.1,390.6 175.4,399.4 176.6,408.1 177.9,416.7 179.2,425.2 180.5,433.5 181.8,441.8 183.1,449.9 184.4,457.9 185.7,465.7 187.0,473.3 188.3,480.8 189.6,488.1 190.9,495.2 192.3,502.1 193.6,508.8 194.9,515.3 196.1,521.5 197.4,527.5 198.7,533.2 200.0,538.7 201.2,543.9 202.5,548.8 203.7,553.4 204.9,557.7 206.1,561.7 207.2,565.3 208.4,568.7 209.5,571.7 210.7,574.3 211.7,576.6 212.8,578.5 213.8,580.0 214.9,581.2 215.9,581.9 216.8,582.2 217.7,582.1 218.6,581.5" fill="none" stroke="#7fb0ff" stroke-width="2.4"/>
<polyline points="159.5,65.5 160.2,64.7 159.1,64.1 158.2,64.0 157.3,64.3 156.5,65.0 155.8,66.2 155.1,67.7 154.5,69.6 154.0,71.9 153.5,74.5 153.1,77.5 152.8,80.8 152.5,84.5 152.3,88.5 152.1,92.8 152.0,97.4 152.0,102.3 152.0,107.5 152.1,113.0 152.2,118.7 152.4,124.7 152.7,130.9 153.0,137.4 153.3,144.1 153.7,151.0 154.1,158.1 154.6,165.4 155.1,172.8 155.7,180.5 156.3,188.3 156.9,196.3 157.6,204.4 158.4,212.7 159.1,221.0 159.9,229.5 160.8,238.1 161.6,246.8 162.5,255.6 163.5,264.4 164.4,273.4 165.4,282.3 166.4,291.3 167.5,300.4 168.6,309.5 169.7,318.5 170.8,327.6 171.9,336.7 173.1,345.8 174.2,354.9 175.4,363.9 176.6,372.8 177.9,381.7 179.1,390.6 180.4,399.4 181.6,408.1 182.9,416.7 184.2,425.2 185.5,433.5 186.8,441.8 188.1,449.9 189.4,457.9 190.7,465.7 192.0,473.3 193.3,480.8 194.6,488.1 195.9,495.2 197.3,502.1 198.6,508.8 199.9,515.3 201.1,521.5 202.4,527.5 203.7,533.2 205.0,538.7 206.2,543.9 207.5,548.8 208.7,553.4 209.9,557.7 211.1,561.7 212.2,565.3 213.4,568.7 214.5,571.7 215.7,574.3 216.7,576.6 217.8,578.5 218.8,580.0 219.9,581.2 220.9,581.9 221.8,582.2 222.7,582.1 223.6,581.5" fill="none" stroke="#7fb0ff" stroke-width="2.4" opacity="0.6"/>
<line x1="219" y1="582" x2="219" y2="672" stroke="#7fb0ff" stroke-width="2.4"/>
<text x="153" y="319" fill="#7fb0ff" font-size="11" transform="rotate(-90 153 319)" text-anchor="middle">control rods up pillar (×7)</text>
<rect x="135" y="672" width="300" height="64" rx="8" fill="#23262b" stroke="#5a5f66"/>
<line x1="163" y1="690" x2="163" y2="727" stroke="#c8d0ff" stroke-width="5" stroke-linecap="round"/>
<text x="163" y="685" fill="#c8d0ff" font-size="11" text-anchor="middle">D</text>
<line x1="203" y1="690" x2="203" y2="727" stroke="#c8d0ff" stroke-width="5" stroke-linecap="round"/>
<text x="203" y="685" fill="#c8d0ff" font-size="11" text-anchor="middle">C</text>
<line x1="244" y1="690" x2="244" y2="727" stroke="#c8d0ff" stroke-width="5" stroke-linecap="round"/>
<text x="244" y="685" fill="#c8d0ff" font-size="11" text-anchor="middle">B</text>
<line x1="285" y1="690" x2="285" y2="727" stroke="#ffd0a0" stroke-width="5" stroke-linecap="round"/>
<text x="285" y="685" fill="#ffd0a0" font-size="11" text-anchor="middle">E</text>
<line x1="325" y1="690" x2="325" y2="727" stroke="#ffd0a0" stroke-width="5" stroke-linecap="round"/>
<text x="325" y="685" fill="#ffd0a0" font-size="11" text-anchor="middle">F</text>
<line x1="366" y1="690" x2="366" y2="727" stroke="#ffd0a0" stroke-width="5" stroke-linecap="round"/>
<text x="366" y="685" fill="#ffd0a0" font-size="11" text-anchor="middle">G</text>
<line x1="407" y1="690" x2="407" y2="727" stroke="#ffd0a0" stroke-width="5" stroke-linecap="round"/>
<text x="407" y="685" fill="#ffd0a0" font-size="11" text-anchor="middle">A</text>
<text x="285" y="756" fill="#cdd2da" font-size="11" text-anchor="middle">pedal base · Left foot D C B · Right foot E F G A · 3 notches ♭/♮/♯</text>
<text x="139" y="324" fill="#aeb3bd" font-size="11" transform="rotate(-90 139 324)" text-anchor="middle">pillar (bass / C1)</text>
</svg>