<svg xmlns="http://www.w3.org/2000/svg" width="411" height="888" viewBox="0 0 411 888" font-family="Georgia,serif">
<defs>
<linearGradient id="frame" x1="0" y1="0" x2="0" y2="1"><stop offset="0" stop-color="#c8ccd3"/><stop offset=".5" stop-color="#9094a0"/><stop offset="1" stop-color="#54585f"/></linearGradient>
<linearGradient id="steel" x1="0" y1="0" x2="0" y2="1"><stop offset="0" stop-color="#e6eaef"/><stop offset="1" stop-color="#6a6f78"/></linearGradient>
<marker id="rot" markerWidth="8" markerHeight="8" refX="4" refY="4" orient="auto"><path d="M0,0 L7,4 L0,8 Z" fill="#e0b86e"/></marker></defs>
<rect width="411" height="888" fill="#13110d"/>
<text x="206" y="34" fill="#eef0f4" font-size="17" text-anchor="middle">erand47 — profile · pedals → control rods → bell-crank → discs</text>
<path d="M 78.2,70.7 79.0,71.2 79.8,71.8 80.6,72.4 81.5,73.0 82.3,73.6 83.1,74.2 83.9,74.8 84.8,75.4 85.6,76.0 86.4,76.6 87.2,77.3 88.1,77.9 88.9,78.5 89.7,79.1 90.5,79.7 91.4,80.4 92.2,81.0 93.0,81.6 93.8,82.2 94.7,82.9 95.5,83.5 96.3,84.2 97.1,84.8 98.0,85.5 98.8,86.1 99.6,86.7 100.5,87.4 101.3,88.1 102.1,88.7 103.0,89.4 103.8,90.0 104.6,90.7 105.4,91.4 106.3,92.0 107.1,92.7 107.9,93.4 108.8,94.0 109.6,94.7 110.4,95.4 111.3,96.1 112.1,96.8 112.9,97.4 113.8,98.1 114.6,98.8 115.4,99.5 116.3,100.2 117.1,100.9 117.9,101.6 118.8,102.3 119.6,103.0 120.4,103.7 121.3,104.4 122.1,105.1 123.0,105.8 123.8,106.5 124.6,107.2 125.5,107.9 126.3,108.6 127.1,109.3 128.0,110.1 128.8,110.8 129.7,111.5 130.5,112.2 131.3,112.9 132.2,113.7 133.0,114.4 133.8,115.1 134.7,115.8 135.5,116.6 136.4,117.3 137.2,118.0 138.0,118.8 138.9,119.5 139.7,120.2 140.6,121.0 141.4,121.7 142.2,122.4 143.1,123.2 143.9,123.9 144.8,124.7 145.6,125.4 146.4,126.2 147.3,126.9 148.1,127.7 149.0,128.4 149.8,129.2 150.7,129.9 151.5,130.7 152.3,131.4 153.2,132.2 154.0,133.0 154.9,133.7 155.7,134.5 156.5,135.2 157.4,136.0 158.2,136.8 159.1,137.5 159.9,138.3 160.8,139.1 161.6,139.8 162.5,140.6 163.3,141.4 164.1,142.2 165.0,142.9 165.8,143.7 166.7,144.5 167.5,145.3 168.4,146.0 169.2,146.8 170.1,147.6 170.9,148.4 171.7,149.2 172.6,150.0 173.4,150.7 174.3,151.5 175.1,152.3 176.0,153.1 176.8,153.9 177.7,154.7 178.5,155.5 179.4,156.3 180.2,157.1 181.1,157.9 181.9,158.7 182.8,159.5 183.6,160.3 184.4,161.1 185.3,161.9 186.1,162.7 187.0,163.5 187.8,164.3 188.7,165.1 189.5,165.9 190.4,166.7 191.2,167.5 192.1,168.3 192.9,169.1 193.8,169.9 194.6,170.7 195.5,171.5 196.3,172.4 197.2,173.2 198.0,174.0 198.9,174.8 199.7,175.6 200.6,176.4 201.4,177.3 202.3,178.1 203.1,178.9 204.0,179.7 204.8,180.6 205.7,181.4 206.5,182.2 207.4,183.0 208.2,183.9 209.1,184.7 209.9,185.5 210.8,186.3 211.6,187.2 212.5,188.0 213.3,188.8 214.2,189.7 215.0,190.5 215.9,191.4 216.8,192.2 217.6,193.0 218.5,193.9 219.3,194.7 220.2,195.6 221.0,196.4 221.9,197.2 222.7,198.1 223.6,198.9 224.4,199.8 225.3,200.6 226.1,201.5 227.0,202.3 227.8,203.2 228.7,204.0 229.6,204.9 230.4,205.8 231.3,206.6 232.1,207.5 233.0,208.3 233.8,209.2 234.7,210.0 235.5,210.9 236.4,211.8 237.2,212.6 238.1,213.5 239.0,214.4 239.8,215.2 240.7,216.1 241.5,217.0 242.4,217.8 243.2,218.7 244.1,219.6 245.0,220.5 245.8,221.3 246.7,222.2 247.5,223.1 248.4,224.0 249.2,224.8 250.1,225.7 251.0,226.6 251.8,227.5 252.7,228.4 253.5,229.3 254.4,230.2 255.2,231.0 256.1,231.9 257.0,232.8 257.8,233.7 258.7,234.6 259.5,235.5 260.4,236.4 261.3,237.3 262.1,238.2 263.0,239.1 263.8,240.0 264.7,240.9 265.6,241.8 266.4,242.7 267.3,243.6 268.1,244.5 269.0,245.4 269.9,246.3 270.7,247.3 271.6,248.2 272.4,249.1 273.3,250.0 274.2,250.9 275.0,251.8 275.9,252.8 276.8,253.7 277.6,254.6 278.5,255.5 279.3,256.5 280.2,257.4 281.1,258.3 281.9,259.2 282.8,260.2 283.7,261.1 284.5,262.0 285.4,263.0 286.3,263.9 287.1,264.9 288.0,265.8 288.9,266.7 289.7,267.7 290.6,268.6 291.5,269.6 292.3,270.5 293.2,271.5 294.1,272.4 294.9,273.4 295.8,274.3 296.7,275.3 297.5,276.3 298.4,277.2 299.3,278.2 300.1,279.1 301.0,280.1 301.9,281.1 302.7,282.0 303.6,283.0 304.5,284.0 305.3,285.0 306.2,285.9 307.1,286.9 307.9,287.9 308.8,288.9 309.7,289.9 310.6,290.8 311.4,291.8 312.3,292.8 313.2,293.8 314.0,294.8 314.9,295.8 315.8,296.8 316.6,297.8 317.5,298.8 318.4,299.8 319.3,300.8 320.1,301.8 321.0,302.8 321.9,303.8 322.8,304.8 323.6,305.8 324.5,306.8 325.4,307.9 326.3,308.9 327.1,309.9 328.0,310.9 328.9,311.9 329.8,313.0 330.6,314.0 331.5,315.0 332.4,316.0 332.4,316.0 332.7,316.5 333.1,316.9 333.4,317.3 333.8,317.7 334.1,318.1 334.4,318.5 334.7,318.8 335.1,319.2 335.3,319.6 335.6,319.9 335.9,320.3 336.2,320.6 336.5,320.9 336.7,321.3 337.0,321.6 337.2,321.9 337.4,322.2 337.7,322.5 337.9,322.8 338.1,323.1 338.3,323.4 338.5,323.6 338.7,323.9 338.9,324.2 339.0,324.5 339.2,324.7 339.4,325.0 339.5,325.2 339.7,325.5 339.8,325.7 339.9,326.0 340.1,326.2 340.2,326.5 340.3,326.7 340.4,326.9 340.5,327.2 340.5,327.4 340.6,327.6 340.7,327.9 340.8,328.1 340.8,328.3 340.9,328.5 340.9,328.8 340.9,329.0 341.0,329.2 341.0,329.4 341.0,329.7 341.0,329.9 341.0,330.1 341.0,330.3 341.0,330.6 341.0,330.8 340.9,331.0 340.9,331.3 340.9,331.5 340.8,331.7 340.8,332.0 340.7,332.2 340.6,332.5 340.6,332.7 340.5,333.0 340.4,333.2 340.3,333.5 340.2,333.7 340.1,334.0 340.0,334.3 339.8,334.5 339.7,334.8 339.6,335.1 339.4,335.4 339.3,335.7 339.1,336.0 339.0,336.3 338.8,336.6 338.6,336.9 338.5,337.3 338.3,337.6 338.1,337.9 337.9,338.3 337.7,338.6 337.5,339.0 337.3,339.3 337.0,339.7 336.8,340.1 336.6,340.5 336.3,340.9 336.1,341.3 335.8,341.7 335.6,342.1 335.6,342.1 335.0,343.2 334.3,344.2 333.7,345.2 333.1,346.3 332.5,347.3 331.8,348.3 331.2,349.3 330.6,350.3 330.0,351.3 329.3,352.4 328.7,353.4 328.1,354.4 327.5,355.4 326.8,356.4 326.2,357.4 325.6,358.4 325.0,359.4 324.3,360.4 323.7,361.4 323.1,362.4 322.5,363.4 321.8,364.4 321.2,365.4 320.6,366.4 319.9,367.3 319.3,368.3 318.7,369.3 318.1,370.3 317.4,371.3 316.8,372.2 316.2,373.2 315.5,374.2 314.9,375.2 314.3,376.1 313.6,377.1 313.0,378.1 312.4,379.0 311.8,380.0 311.1,381.0 310.5,381.9 309.9,382.9 309.2,383.8 308.6,384.8 308.0,385.8 307.3,386.7 306.7,387.7 306.1,388.6 305.4,389.6 304.8,390.5 304.2,391.4 303.5,392.4 302.9,393.3 302.3,394.3 301.6,395.2 301.0,396.1 300.4,397.1 299.7,398.0 299.1,398.9 298.5,399.9 297.8,400.8 297.2,401.7 296.6,402.7 295.9,403.6 295.3,404.5 294.6,405.4 294.0,406.3 293.4,407.3 292.7,408.2 292.1,409.1 291.5,410.0 290.8,410.9 290.2,411.8 289.5,412.8 288.9,413.7 288.3,414.6 287.6,415.5 287.0,416.4 286.4,417.3 285.7,418.2 285.1,419.1 284.4,420.0 283.8,420.9 283.2,421.8 282.5,422.7 281.9,423.6 281.2,424.5 280.6,425.4 280.0,426.3 279.3,427.1 278.7,428.0 278.0,428.9 277.4,429.8 276.8,430.7 276.1,431.6 275.5,432.5 274.8,433.3 274.2,434.2 273.6,435.1 272.9,436.0 272.3,436.9 271.6,437.7 271.0,438.6 270.3,439.5 269.7,440.3 269.1,441.2 268.4,442.1 267.8,443.0 267.1,443.8 266.5,444.7 265.8,445.6 265.2,446.4 264.6,447.3 263.9,448.1 263.3,449.0 262.6,449.9 262.0,450.7 261.3,451.6 260.7,452.4 260.1,453.3 259.4,454.1 258.8,455.0 258.1,455.9 257.5,456.7 256.8,457.6 256.2,458.4 255.5,459.2 254.9,460.1 254.2,460.9 253.6,461.8 253.0,462.6 252.3,463.5 251.7,464.3 251.0,465.2 250.4,466.0 249.7,466.8 249.1,467.7 248.4,468.5 247.8,469.3 247.1,470.2 246.5,471.0 245.8,471.8 245.2,472.7 244.5,473.5 243.9,474.3 243.3,475.2 242.6,476.0 242.0,476.8 241.3,477.6 240.7,478.5 240.0,479.3 239.4,480.1 238.7,480.9 238.1,481.7 237.4,482.6 236.8,483.4 236.1,484.2 235.5,485.0 234.8,485.8 234.2,486.6 233.5,487.5 232.9,488.3 232.2,489.1 231.6,489.9 230.9,490.7 230.3,491.5 229.6,492.3 229.0,493.1 228.3,493.9 227.7,494.7 227.0,495.5 226.4,496.3 225.7,497.1 225.1,497.9 224.4,498.7 223.8,499.5 223.1,500.3 222.5,501.1 221.8,501.9 221.2,502.7 220.5,503.5 219.8,504.3 219.2,505.1 218.5,505.9 217.9,506.7 217.2,507.4 216.6,508.2 215.9,509.0 215.3,509.8 214.6,510.6 214.0,511.4 213.3,512.1 212.7,512.9 212.0,513.7 211.4,514.5 210.7,515.3 210.0,516.0 209.4,516.8 208.7,517.6 208.1,518.3 207.4,519.1 206.8,519.9 206.1,520.6 205.5,521.4 204.8,522.2 204.2,522.9 203.5,523.7 202.8,524.5 202.2,525.2 201.5,526.0 200.9,526.7 200.2,527.5 199.6,528.3 198.9,529.0 198.2,529.8 197.6,530.5 196.9,531.3 196.3,532.0 195.6,532.8 195.0,533.5 194.3,534.3 193.6,535.0 193.0,535.7 192.3,536.5 191.7,537.2 191.0,538.0 190.3,538.7 189.7,539.4 189.0,540.2 188.4,540.9 187.7,541.6 187.1,542.4 186.4,543.1 185.7,543.8 185.1,544.5 184.4,545.3 183.7,546.0 183.1,546.7 182.4,547.4 181.8,548.1 181.1,548.8 180.4,549.6 179.8,550.3 179.1,551.0 178.5,551.7 177.8,552.4 177.1,553.1 176.5,553.8 175.8,554.5 175.1,555.2 174.5,555.9 173.8,556.6 173.1,557.3 172.5,558.0 171.8,558.7 171.2,559.4 170.5,560.1 169.8,560.7 169.2,561.4 168.5,562.1 167.8,562.8 167.2,563.5 166.5,564.1 165.8,564.8 165.2,565.5 164.5,566.2 163.8,566.8 163.2,567.5 162.5,568.2 161.8,568.8 161.2,569.5 160.5,570.1 159.8,570.8 159.1,571.4 158.5,572.1 157.8,572.7 157.1,573.4 156.5,574.0 155.8,574.7 155.1,575.3 154.5,575.9 153.8,576.6 153.1,577.2 152.4,577.8 151.8,578.5 151.1,579.1 150.4,579.7 149.7,580.3 149.1,580.9 148.4,581.6 147.7,582.2 147.0,582.8 146.4,583.4 145.7,584.0 145.0,584.6 144.3,585.2 143.7,585.8 143.0,586.4 142.3,586.9 141.6,587.5 141.6,587.5 140.7,588.1 139.8,588.2 138.9,587.9 137.9,587.2 136.8,586.0 135.8,584.5 134.7,582.6 133.7,580.3 132.5,577.7 131.4,574.7 130.2,571.3 129.1,567.7 127.9,563.7 126.7,559.4 125.5,554.8 124.2,549.9 123.0,544.7 121.7,539.2 120.4,533.5 119.1,527.5 117.9,521.3 116.6,514.8 115.3,508.1 113.9,501.2 112.6,494.1 111.3,486.8 110.0,479.3 108.7,471.7 107.4,463.9 106.1,455.9 104.8,447.8 103.5,439.5 102.2,431.2 100.9,422.7 99.6,414.1 98.4,405.4 97.1,396.6 95.9,387.7 94.6,378.8 93.4,369.9 92.2,360.9 91.1,351.8 89.9,342.7 88.8,333.6 87.7,324.5 86.6,315.5 85.5,306.4 84.4,297.3 83.4,288.3 82.4,279.4 81.5,270.4 80.5,261.6 79.6,252.8 78.8,244.1 77.9,235.5 77.1,227.0 76.4,218.7 75.6,210.4 74.9,202.3 74.3,194.3 73.7,186.5 73.1,178.8 72.6,171.4 72.1,164.1 71.7,157.0 71.3,150.1 71.0,143.4 70.7,136.9 70.4,130.7 70.2,124.7 70.1,119.0 70.0,113.5 70.0,108.3 70.0,103.4 70.1,98.8 70.3,94.5 70.5,90.5 70.8,86.8 71.1,83.5 71.5,80.5 72.0,77.9 72.5,75.6 73.1,73.7 73.8,72.2 74.5,71.0 75.3,70.3 76.2,70.0 77.1,70.1 78.2,70.7 Z M 78.9,76.3 79.8,77.4 80.6,78.5 81.5,79.6 82.4,80.7 83.3,81.8 84.2,82.8 85.0,83.9 85.9,85.0 86.8,86.0 87.7,87.1 88.6,88.1 89.4,89.2 90.3,90.2 91.2,91.2 92.1,92.2 92.9,93.2 93.8,94.2 94.7,95.2 95.6,96.2 96.4,97.2 97.3,98.2 98.2,99.2 99.0,100.2 99.9,101.1 100.8,102.1 101.6,103.1 102.5,104.0 103.4,105.0 104.2,105.9 105.1,106.9 106.0,107.8 106.8,108.7 107.7,109.7 108.6,110.6 109.4,111.5 110.3,112.4 111.1,113.3 112.0,114.3 112.9,115.2 113.7,116.1 114.6,117.0 115.4,117.9 116.3,118.8 117.2,119.6 118.0,120.5 118.9,121.4 119.7,122.3 120.6,123.2 121.5,124.1 122.3,124.9 123.2,125.8 124.0,126.7 124.9,127.5 125.7,128.4 126.6,129.3 127.4,130.1 128.3,131.0 129.2,131.8 130.0,132.7 130.9,133.5 131.7,134.4 132.6,135.2 133.4,136.1 134.3,136.9 135.1,137.8 136.0,138.6 136.8,139.4 137.7,140.3 138.5,141.1 139.4,141.9 140.2,142.8 141.1,143.6 141.9,144.4 142.8,145.3 143.6,146.1 144.5,146.9 145.3,147.7 146.2,148.6 147.0,149.4 147.9,150.2 148.7,151.0 149.6,151.8 150.4,152.6 151.3,153.5 152.1,154.3 153.0,155.1 153.8,155.9 154.7,156.7 155.5,157.5 156.4,158.3 157.2,159.2 158.1,160.0 158.9,160.8 159.8,161.6 160.6,162.4 161.5,163.2 162.3,164.0 163.2,164.8 164.0,165.6 164.9,166.4 165.7,167.3 166.6,168.1 167.4,168.9 168.3,169.7 169.1,170.5 170.0,171.3 170.8,172.1 171.7,172.9 172.5,173.7 173.4,174.5 174.2,175.3 175.1,176.1 175.9,176.9 176.8,177.7 177.6,178.5 178.4,179.3 179.3,180.1 180.1,180.9 181.0,181.7 181.8,182.6 182.7,183.4 183.5,184.2 184.4,185.0 185.2,185.8 186.1,186.6 186.9,187.4 187.8,188.2 188.6,189.0 189.5,189.8 190.3,190.6 191.2,191.4 192.0,192.2 192.9,193.0 193.7,193.8 194.6,194.6 195.4,195.4 196.3,196.2 197.1,197.1 198.0,197.9 198.8,198.7 199.7,199.5 200.5,200.3 201.4,201.1 202.2,201.9 203.1,202.7 203.9,203.5 204.7,204.3 205.6,205.1 206.4,205.9 207.3,206.7 208.1,207.6 209.0,208.4 209.8,209.2 210.7,210.0 211.5,210.8 212.4,211.6 213.2,212.4 214.1,213.2 214.9,214.0 215.8,214.8 216.6,215.6 217.5,216.5 218.3,217.3 219.2,218.1 220.0,218.9 220.9,219.7 221.7,220.5 222.6,221.3 223.4,222.1 224.3,222.9 225.1,223.7 226.0,224.6 226.8,225.4 227.7,226.2 228.5,227.0 229.4,227.8 230.2,228.6 231.1,229.4 231.9,230.2 232.8,231.0 233.6,231.8 234.5,232.7 235.3,233.5 236.2,234.3 237.0,235.1 237.9,235.9 238.7,236.7 239.6,237.5 240.4,238.3 241.2,239.1 242.1,239.9 242.9,240.7 243.8,241.5 244.6,242.3 245.5,243.2 246.3,244.0 247.2,244.8 248.0,245.6 248.9,246.4 249.7,247.2 250.6,248.0 251.4,248.8 252.3,249.6 253.1,250.4 254.0,251.2 254.8,252.0 255.7,252.8 256.5,253.6 257.4,254.4 258.2,255.2 259.1,256.0 259.9,256.8 260.8,257.6 261.6,258.4 262.4,259.2 263.3,260.0 264.1,260.8 265.0,261.6 265.8,262.3 266.7,263.1 267.5,263.9 268.4,264.7 269.2,265.5 270.1,266.3 270.9,267.1 271.8,267.9 272.6,268.7 273.4,269.4 274.3,270.2 275.1,271.0 276.0,271.8 276.8,272.6 277.7,273.3 278.5,274.1 279.4,274.9 280.2,275.7 281.1,276.5 281.9,277.2 282.7,278.0 283.6,278.8 284.4,279.5 285.3,280.3 286.1,281.1 287.0,281.8 287.8,282.6 288.6,283.4 289.5,284.1 290.3,284.9 291.2,285.7 292.0,286.4 292.9,287.2 293.7,287.9 294.5,288.7 295.4,289.4 296.2,290.2 297.1,290.9 297.9,291.7 298.8,292.4 299.6,293.2 300.4,293.9 301.3,294.7 302.1,295.4 303.0,296.2 303.8,296.9 304.6,297.6 305.5,298.4 306.3,299.1 307.2,299.8 308.0,300.6 308.8,301.3 309.7,302.0 310.5,302.7 311.4,303.5 312.2,304.2 313.0,304.9 313.9,305.6 314.7,306.4 315.5,307.1 316.4,307.8 317.2,308.5 318.1,309.2 318.9,309.9 319.7,310.6 320.6,311.3 321.4,312.0 322.2,312.7 323.1,313.4 323.9,314.1 324.7,314.8 325.6,315.5 326.4,316.2 327.2,316.9 328.1,317.6 328.9,318.3 329.7,319.0 330.6,319.6 331.4,320.3 332.2,321.0 333.1,321.7 333.1,321.7 333.3,321.9 333.5,322.0 333.7,322.2 333.9,322.4 334.1,322.6 334.3,322.8 334.5,322.9 334.7,323.1 334.9,323.3 335.1,323.5 335.2,323.6 335.4,323.8 335.6,324.0 335.7,324.1 335.9,324.3 336.1,324.5 336.2,324.6 336.3,324.8 336.5,325.0 336.6,325.1 336.7,325.3 336.9,325.5 337.0,325.6 337.1,325.8 337.2,326.0 337.3,326.1 337.4,326.3 337.5,326.5 337.6,326.6 337.7,326.8 337.8,326.9 337.9,327.1 337.9,327.3 338.0,327.4 338.1,327.6 338.1,327.7 338.2,327.9 338.2,328.1 338.3,328.2 338.3,328.4 338.4,328.5 338.4,328.7 338.4,328.9 338.4,329.0 338.5,329.2 338.5,329.3 338.5,329.5 338.5,329.6 338.5,329.8 338.5,330.0 338.5,330.1 338.5,330.3 338.5,330.4 338.4,330.6 338.4,330.8 338.4,330.9 338.3,331.1 338.3,331.2 338.3,331.4 338.2,331.6 338.2,331.7 338.1,331.9 338.0,332.1 338.0,332.2 337.9,332.4 337.8,332.5 337.8,332.7 337.7,332.9 337.6,333.0 337.5,333.2 337.4,333.4 337.3,333.5 337.2,333.7 337.1,333.9 337.0,334.0 336.8,334.2 336.7,334.4 336.6,334.6 336.5,334.7 336.3,334.9 336.2,335.1 336.0,335.3 335.9,335.4 335.7,335.6 335.6,335.8 335.4,336.0 335.2,336.1 335.1,336.3 334.9,336.5 334.9,336.5 334.2,337.2 333.6,337.9 332.9,338.5 332.2,339.2 331.6,339.9 330.9,340.6 330.2,341.3 329.6,342.0 328.9,342.7 328.2,343.4 327.6,344.1 326.9,344.8 326.2,345.5 325.6,346.2 324.9,346.9 324.3,347.6 323.6,348.3 322.9,349.0 322.3,349.7 321.6,350.4 320.9,351.1 320.3,351.8 319.6,352.6 319.0,353.3 318.3,354.0 317.6,354.7 317.0,355.4 316.3,356.2 315.7,356.9 315.0,357.6 314.3,358.4 313.7,359.1 313.0,359.8 312.4,360.6 311.7,361.3 311.0,362.0 310.4,362.8 309.7,363.5 309.1,364.3 308.4,365.0 307.8,365.7 307.1,366.5 306.4,367.2 305.8,368.0 305.1,368.7 304.5,369.5 303.8,370.3 303.2,371.0 302.5,371.8 301.8,372.5 301.2,373.3 300.5,374.0 299.9,374.8 299.2,375.6 298.6,376.3 297.9,377.1 297.3,377.9 296.6,378.6 295.9,379.4 295.3,380.2 294.6,381.0 294.0,381.7 293.3,382.5 292.7,383.3 292.0,384.1 291.4,384.8 290.7,385.6 290.1,386.4 289.4,387.2 288.8,388.0 288.1,388.8 287.4,389.5 286.8,390.3 286.1,391.1 285.5,391.9 284.8,392.7 284.2,393.5 283.5,394.3 282.9,395.1 282.2,395.8 281.6,396.6 280.9,397.4 280.3,398.2 279.6,399.0 279.0,399.8 278.3,400.6 277.7,401.4 277.0,402.2 276.4,403.0 275.7,403.8 275.1,404.6 274.4,405.4 273.8,406.2 273.1,407.0 272.5,407.8 271.8,408.6 271.1,409.4 270.5,410.2 269.8,411.0 269.2,411.8 268.5,412.6 267.9,413.4 267.2,414.2 266.6,415.0 265.9,415.8 265.3,416.6 264.6,417.5 264.0,418.3 263.3,419.1 262.7,419.9 262.0,420.7 261.4,421.5 260.7,422.3 260.1,423.1 259.4,423.9 258.8,424.7 258.1,425.5 257.5,426.3 256.8,427.2 256.2,428.0 255.5,428.8 254.9,429.6 254.2,430.4 253.6,431.2 252.9,432.0 252.3,432.8 251.6,433.6 251.0,434.4 250.3,435.3 249.7,436.1 249.0,436.9 248.4,437.7 247.7,438.5 247.1,439.3 246.4,440.1 245.8,440.9 245.1,441.7 244.5,442.5 243.8,443.4 243.2,444.2 242.5,445.0 241.9,445.8 241.2,446.6 240.6,447.4 239.9,448.2 239.3,449.0 238.6,449.8 238.0,450.6 237.3,451.4 236.7,452.3 236.0,453.1 235.4,453.9 234.7,454.7 234.1,455.5 233.4,456.3 232.8,457.1 232.1,457.9 231.5,458.7 230.8,459.5 230.2,460.3 229.5,461.1 228.9,461.9 228.2,462.8 227.6,463.6 226.9,464.4 226.3,465.2 225.6,466.0 225.0,466.8 224.3,467.6 223.7,468.4 223.0,469.2 222.4,470.0 221.7,470.8 221.1,471.6 220.4,472.4 219.8,473.2 219.1,474.0 218.5,474.8 217.8,475.6 217.2,476.4 216.5,477.2 215.9,478.1 215.2,478.9 214.6,479.7 213.9,480.5 213.3,481.3 212.6,482.1 212.0,482.9 211.3,483.7 210.7,484.5 210.0,485.3 209.4,486.1 208.7,486.9 208.1,487.7 207.4,488.5 206.8,489.3 206.1,490.1 205.5,490.9 204.8,491.7 204.2,492.6 203.5,493.4 202.9,494.2 202.2,495.0 201.6,495.8 200.9,496.6 200.3,497.4 199.6,498.2 199.0,499.0 198.3,499.8 197.7,500.7 197.0,501.5 196.4,502.3 195.7,503.1 195.1,503.9 194.4,504.7 193.8,505.5 193.1,506.4 192.5,507.2 191.8,508.0 191.2,508.8 190.5,509.6 189.9,510.5 189.2,511.3 188.6,512.1 187.9,512.9 187.3,513.8 186.6,514.6 186.0,515.4 185.3,516.3 184.7,517.1 184.1,517.9 183.4,518.8 182.8,519.6 182.1,520.4 181.5,521.3 180.8,522.1 180.2,523.0 179.5,523.8 178.9,524.7 178.2,525.5 177.6,526.4 176.9,527.2 176.3,528.1 175.7,528.9 175.0,529.8 174.4,530.7 173.7,531.5 173.1,532.4 172.4,533.3 171.8,534.1 171.2,535.0 170.5,535.9 169.9,536.8 169.2,537.7 168.6,538.5 168.0,539.4 167.3,540.3 166.7,541.2 166.0,542.1 165.4,543.0 164.8,543.9 164.1,544.8 163.5,545.8 162.9,546.7 162.2,547.6 161.6,548.5 160.9,549.5 160.3,550.4 159.7,551.3 159.0,552.3 158.4,553.2 157.8,554.2 157.1,555.1 156.5,556.1 155.9,557.1 155.3,558.0 154.6,559.0 154.0,560.0 153.4,561.0 152.7,562.0 152.1,562.9 151.5,563.9 150.9,565.0 150.2,566.0 149.6,567.0 149.0,568.0 148.4,569.0 147.7,570.1 147.1,571.1 146.5,572.2 145.9,573.2 145.3,574.3 144.6,575.3 144.0,576.4 143.4,577.5 142.8,578.6 142.2,579.7 141.6,580.8 140.9,581.9 140.9,581.9 140.4,582.6 139.9,582.8 139.3,582.6 138.7,582.0 138.0,581.0 137.3,579.6 136.6,577.8 135.8,575.7 135.0,573.1 134.2,570.3 133.3,567.0 132.4,563.5 131.5,559.6 130.6,555.4 129.7,551.0 128.7,546.2 127.7,541.1 126.7,535.8 125.6,530.2 124.6,524.3 123.5,518.2 122.4,511.9 121.3,505.3 120.2,498.6 119.1,491.6 117.9,484.4 116.8,477.1 115.6,469.5 114.5,461.9 113.3,454.0 112.1,446.0 110.9,437.9 109.8,429.7 108.6,421.3 107.4,412.8 106.3,404.3 105.1,395.6 103.9,386.9 102.8,378.1 101.6,369.3 100.5,360.4 99.3,351.5 98.2,342.5 97.1,333.6 96.0,324.6 94.9,315.7 93.8,306.7 92.8,297.8 91.7,288.9 90.7,280.1 89.7,271.3 88.7,262.6 87.8,253.9 86.9,245.4 86.0,236.9 85.1,228.5 84.2,220.3 83.4,212.2 82.6,204.2 81.9,196.3 81.1,188.6 80.4,181.1 79.8,173.8 79.1,166.6 78.6,159.6 78.0,152.9 77.5,146.3 77.0,140.0 76.6,133.9 76.2,128.0 75.9,122.4 75.6,117.1 75.4,112.0 75.2,107.2 75.0,102.7 74.9,98.6 74.9,94.7 74.9,91.1 75.0,87.9 75.1,85.1 75.3,82.5 75.5,80.4 75.8,78.6 76.1,77.2 76.6,76.2 77.0,75.6 77.6,75.4 78.2,75.6 78.9,76.3 Z" fill="url(#frame)" fill-rule="evenodd" stroke="#ff9e6b" stroke-width="1.2"/>
<line x1="78.5" y1="73.5" x2="141.3" y2="584.7" stroke="#7d7762" stroke-width="0.6"/>
<line x1="84.2" y1="78.8" x2="145.6" y2="579.4" stroke="#7d7762" stroke-width="0.6"/>
<line x1="89.8" y1="84.1" x2="150.0" y2="574.0" stroke="#7d7762" stroke-width="0.6"/>
<line x1="95.4" y1="89.5" x2="154.2" y2="568.7" stroke="#7d7762" stroke-width="0.6"/>
<line x1="100.9" y1="94.8" x2="158.4" y2="563.4" stroke="#7d7762" stroke-width="0.6"/>
<line x1="106.4" y1="100.1" x2="162.7" y2="558.0" stroke="#7d7762" stroke-width="0.6"/>
<line x1="111.9" y1="105.5" x2="166.8" y2="552.7" stroke="#7d7762" stroke-width="0.6"/>
<line x1="117.4" y1="110.8" x2="171.0" y2="547.4" stroke="#7d7762" stroke-width="0.6"/>
<line x1="122.8" y1="116.2" x2="175.1" y2="542.0" stroke="#7d7762" stroke-width="0.6"/>
<line x1="128.5" y1="121.5" x2="179.5" y2="536.7" stroke="#7d7762" stroke-width="0.6"/>
<line x1="134.5" y1="126.8" x2="184.2" y2="531.4" stroke="#7d7762" stroke-width="0.6"/>
<line x1="140.5" y1="132.2" x2="188.8" y2="526.0" stroke="#7d7762" stroke-width="0.6"/>
<line x1="146.3" y1="137.5" x2="193.4" y2="520.7" stroke="#7d7762" stroke-width="0.6"/>
<line x1="152.2" y1="142.8" x2="197.9" y2="515.4" stroke="#7d7762" stroke-width="0.6"/>
<line x1="158.0" y1="148.2" x2="202.4" y2="510.0" stroke="#7d7762" stroke-width="0.6"/>
<line x1="163.8" y1="153.5" x2="206.9" y2="504.7" stroke="#7d7762" stroke-width="0.6"/>
<line x1="169.5" y1="158.8" x2="211.3" y2="499.4" stroke="#7d7762" stroke-width="0.6"/>
<line x1="175.2" y1="164.2" x2="215.7" y2="494.0" stroke="#7d7762" stroke-width="0.6"/>
<line x1="180.8" y1="169.5" x2="220.0" y2="488.7" stroke="#7d7762" stroke-width="0.6"/>
<line x1="186.5" y1="174.8" x2="224.4" y2="483.4" stroke="#7d7762" stroke-width="0.6"/>
<line x1="192.1" y1="180.2" x2="228.7" y2="478.0" stroke="#7d7762" stroke-width="0.6"/>
<line x1="197.6" y1="185.5" x2="232.9" y2="472.7" stroke="#7d7762" stroke-width="0.6"/>
<line x1="203.2" y1="190.8" x2="237.1" y2="467.4" stroke="#7d7762" stroke-width="0.6"/>
<line x1="208.7" y1="196.2" x2="241.3" y2="462.0" stroke="#7d7762" stroke-width="0.6"/>
<line x1="214.2" y1="201.5" x2="245.5" y2="456.7" stroke="#7d7762" stroke-width="0.6"/>
<line x1="219.7" y1="206.8" x2="249.7" y2="451.3" stroke="#7d7762" stroke-width="0.6"/>
<line x1="225.2" y1="212.2" x2="253.9" y2="446.0" stroke="#7d7762" stroke-width="0.6"/>
<line x1="230.6" y1="217.5" x2="258.0" y2="440.7" stroke="#7d7762" stroke-width="0.6"/>
<line x1="236.1" y1="222.8" x2="262.2" y2="435.3" stroke="#7d7762" stroke-width="0.6"/>
<line x1="241.5" y1="228.2" x2="266.3" y2="430.0" stroke="#7d7762" stroke-width="0.6"/>
<line x1="246.9" y1="233.5" x2="270.4" y2="424.7" stroke="#7d7762" stroke-width="0.6"/>
<line x1="252.4" y1="238.8" x2="274.5" y2="419.3" stroke="#7d7762" stroke-width="0.6"/>
<line x1="257.8" y1="244.2" x2="278.6" y2="414.0" stroke="#7d7762" stroke-width="0.6"/>
<line x1="263.1" y1="249.5" x2="282.7" y2="408.7" stroke="#7d7762" stroke-width="0.6"/>
<line x1="268.5" y1="254.9" x2="286.8" y2="403.3" stroke="#7d7762" stroke-width="0.6"/>
<line x1="273.9" y1="260.2" x2="290.8" y2="398.0" stroke="#7d7762" stroke-width="0.6"/>
<line x1="279.3" y1="265.5" x2="294.9" y2="392.7" stroke="#7d7762" stroke-width="0.6"/>
<line x1="284.7" y1="270.9" x2="299.0" y2="387.3" stroke="#7d7762" stroke-width="0.6"/>
<line x1="290.0" y1="276.2" x2="303.0" y2="382.0" stroke="#7d7762" stroke-width="0.6"/>
<line x1="295.4" y1="281.5" x2="307.1" y2="376.7" stroke="#7d7762" stroke-width="0.6"/>
<line x1="300.8" y1="286.9" x2="311.1" y2="371.3" stroke="#7d7762" stroke-width="0.6"/>
<line x1="306.1" y1="292.2" x2="315.2" y2="366.0" stroke="#7d7762" stroke-width="0.6"/>
<line x1="311.4" y1="297.5" x2="319.2" y2="360.7" stroke="#7d7762" stroke-width="0.6"/>
<line x1="316.8" y1="302.9" x2="323.2" y2="355.3" stroke="#7d7762" stroke-width="0.6"/>
<line x1="322.1" y1="308.2" x2="327.2" y2="350.0" stroke="#7d7762" stroke-width="0.6"/>
<line x1="327.4" y1="313.5" x2="331.2" y2="344.7" stroke="#7d7762" stroke-width="0.6"/>
<line x1="332.7" y1="318.9" x2="335.2" y2="339.3" stroke="#7d7762" stroke-width="0.6"/>
<polyline points="82.0,102.2 87.6,106.9 93.2,111.6 98.7,116.4 104.1,121.1 109.6,125.8 115.0,130.6 120.4,135.3 125.8,140.1 131.4,144.8 137.3,149.5 143.2,154.3 149.0,159.0 154.7,163.7 160.5,168.5 166.2,173.2 171.9,177.9 177.5,182.7 183.0,187.4 188.6,192.1 194.1,196.9 199.6,201.6 205.1,206.4 210.5,211.1 215.9,215.8 221.4,220.6 226.8,225.3 232.2,230.0 237.5,234.8 242.9,239.5 248.3,244.2 253.6,249.0 258.9,253.7 264.2,258.4 269.6,263.2 274.9,267.9 280.2,272.7 285.5,277.4 290.8,282.1 296.1,286.9 301.3,291.6 306.6,296.3 311.9,301.1 317.1,305.8 322.4,310.5 327.6,315.3 332.9,320.0" fill="none" stroke="#c0a0ff" stroke-width="2.4" opacity="0.9"/>
<polyline points="85.4,129.3 90.9,133.4 96.4,137.6 101.8,141.8 107.2,145.9 112.6,150.1 117.9,154.3 123.2,158.4 128.5,162.6 134.1,166.8 139.9,171.0 145.7,175.1 151.5,179.3 157.2,183.5 162.8,187.6 168.5,191.8 174.1,196.0 179.6,200.2 185.1,204.3 190.6,208.5 196.1,212.7 201.5,216.8 206.9,221.0 212.2,225.2 217.6,229.3 223.0,233.5 228.3,237.7 233.6,241.9 238.9,246.0 244.2,250.2 249.5,254.4 254.8,258.5 260.0,262.7 265.3,266.9 270.5,271.1 275.8,275.2 281.0,279.4 286.2,283.6 291.5,287.7 296.7,291.9 301.9,296.1 307.1,300.2 312.3,304.4 317.5,308.6 322.6,312.8 327.8,316.9 333.0,321.1" fill="none" stroke="#ff8c5a" stroke-width="2.4" opacity="0.9"/>
<circle cx="82.0" cy="102.2" r="2.4" fill="url(#steel)" stroke="#eef0f4" stroke-width="0.5"/>
<circle cx="115.0" cy="130.6" r="2.4" fill="url(#steel)" stroke="#eef0f4" stroke-width="0.5"/>
<circle cx="149.0" cy="159.0" r="2.4" fill="url(#steel)" stroke="#eef0f4" stroke-width="0.5"/>
<circle cx="183.0" cy="187.4" r="2.4" fill="url(#steel)" stroke="#eef0f4" stroke-width="0.5"/>
<circle cx="215.9" cy="215.8" r="2.4" fill="url(#steel)" stroke="#eef0f4" stroke-width="0.5"/>
<circle cx="248.3" cy="244.2" r="2.4" fill="url(#steel)" stroke="#eef0f4" stroke-width="0.5"/>
<circle cx="280.2" cy="272.7" r="2.4" fill="url(#steel)" stroke="#eef0f4" stroke-width="0.5"/>
<circle cx="311.9" cy="301.1" r="2.4" fill="url(#steel)" stroke="#eef0f4" stroke-width="0.5"/>
<circle cx="73" cy="67" r="13" fill="#2a2d31" stroke="#e0b86e" stroke-width="2"/>
<line x1="73" y1="67" x2="71" y2="101" stroke="#e0b86e" stroke-width="3"/>
<line x1="73" y1="67" x2="113" y2="70" stroke="#e0b86e" stroke-width="3"/>
<path d="M 86.51862934439906,57.47563264745112 A 17 17 0 0 1 89.51862934439906,73.47563264745112" fill="none" stroke="#e0b86e" stroke-width="1.5" marker-end="url(#rot)"/>
<text x="57" y="49" fill="#e0b86e" font-size="12" text-anchor="middle">bell-crank</text>
<text x="57" y="61" fill="#8a8f98" font-size="9" text-anchor="middle">vert→rotary</text>
<line x1="113" y1="70" x2="333" y2="320" stroke="#9ad8b0" stroke-width="1.2" stroke-dasharray="6 5" opacity="0.7"/>
<text x="223" y="61" fill="#9ad8b0" font-size="10" text-anchor="middle">neck rods → class discs</text>
<line x1="71" y1="101" x2="71" y2="708" stroke="#7fb0ff" stroke-width="2.5"/>
<line x1="79" y1="111" x2="79" y2="708" stroke="#7fb0ff" stroke-width="2.5" opacity="0.7"/>
<text x="103" y="388" fill="#7fb0ff" font-size="11" transform="rotate(90 103 388)" text-anchor="middle">control rods up pillar (×7)</text>
<rect x="3" y="708" width="300" height="70" rx="8" fill="#23262b" stroke="#5a5f66"/>
<text x="153" y="800" fill="#cdd2da" font-size="12" text-anchor="middle">pedal base — Left foot D C B · Right foot E F G A · 3 notches (♭/♮/♯)</text>
<line x1="33" y1="724" x2="33" y2="768" stroke="#c8d0ff" stroke-width="5" stroke-linecap="round"/>
<text x="33" y="720" fill="#c8d0ff" font-size="11" text-anchor="middle">D</text>
<line x1="73" y1="724" x2="73" y2="768" stroke="#c8d0ff" stroke-width="5" stroke-linecap="round"/>
<text x="73" y="720" fill="#c8d0ff" font-size="11" text-anchor="middle">C</text>
<line x1="113" y1="724" x2="113" y2="768" stroke="#c8d0ff" stroke-width="5" stroke-linecap="round"/>
<text x="113" y="720" fill="#c8d0ff" font-size="11" text-anchor="middle">B</text>
<line x1="153" y1="724" x2="153" y2="768" stroke="#ffd0a0" stroke-width="5" stroke-linecap="round"/>
<text x="153" y="720" fill="#ffd0a0" font-size="11" text-anchor="middle">E</text>
<line x1="193" y1="724" x2="193" y2="768" stroke="#ffd0a0" stroke-width="5" stroke-linecap="round"/>
<text x="193" y="720" fill="#ffd0a0" font-size="11" text-anchor="middle">F</text>
<line x1="233" y1="724" x2="233" y2="768" stroke="#ffd0a0" stroke-width="5" stroke-linecap="round"/>
<text x="233" y="720" fill="#ffd0a0" font-size="11" text-anchor="middle">G</text>
<line x1="273" y1="724" x2="273" y2="768" stroke="#ffd0a0" stroke-width="5" stroke-linecap="round"/>
<text x="273" y="720" fill="#ffd0a0" font-size="11" text-anchor="middle">A</text>
<line x1="48" y1="716" x2="71" y2="708" stroke="#7fb0ff" stroke-width="1" stroke-dasharray="3 3" opacity="0.6"/>
<text x="33" y="157" fill="#aeb3bd" font-size="11" transform="rotate(90 33 157)" text-anchor="middle">pillar (bass / C1 end)</text>
<text x="206" y="68" fill="#aeb3bd" font-size="11" text-anchor="middle">neck (disc band: ♮ natural / ♯ sharp)</text>
</svg>