<svg xmlns="http://www.w3.org/2000/svg" width="940" height="520" viewBox="0 0 940 520" font-family="Georgia,serif">
<defs>
<linearGradient id="steel" x1="0" y1="0" x2="0" y2="1"><stop offset="0" stop-color="#e6eaef"/><stop offset="1" stop-color="#6a6f78"/></linearGradient>
<radialGradient id="pin" cx=".4" cy=".4" r=".7"><stop offset="0" stop-color="#e2e6ec"/><stop offset="1" stop-color="#6a6f78"/></radialGradient></defs>
<rect width="940" height="520" fill="#13110d"/>
<text x="470" y="32" fill="#eef0f4" font-size="16" text-anchor="middle">neck plan (looking down the strings) — class → bar assignment</text>
<text x="470" y="52" fill="#8a8f98" font-size="11" text-anchor="middle">+y bar = E F G A (right foot)  ·  −y bar = D C B (left foot)  ·  prongs reach the string at y=0</text>
<rect x="98" y="232.3" width="715" height="44.4" fill="#3a3e44" stroke="#2d3036"/>
<rect x="98" y="323.3" width="715" height="44.4" fill="#3a3e44" stroke="#2d3036"/>
<text x="92" y="258" fill="#9ad8b0" font-size="11" text-anchor="end">+y</text>
<text x="92" y="350" fill="#e0b86e" font-size="11" text-anchor="end">−y</text>
<line x1="98" y1="223" x2="813" y2="223" stroke="#9ad8b0" stroke-width="1.2" stroke-dasharray="5 5" opacity="0.55"/>
<line x1="98" y1="212" x2="813" y2="212" stroke="#7fb0ff" stroke-width="1.2" stroke-dasharray="5 5" opacity="0.55"/>
<line x1="98" y1="380" x2="813" y2="380" stroke="#e0b86e" stroke-width="1.2" stroke-dasharray="5 5" opacity="0.55"/>
<line x1="98" y1="391" x2="813" y2="391" stroke="#ff9a5a" stroke-width="1.2" stroke-dasharray="5 5" opacity="0.55"/>
<text x="813" y="208" fill="#8a8f98" font-size="9" text-anchor="end">control rods → up pillar (next)</text>
<circle cx="140.0" cy="300.0" r="3.6" fill="#b8924a"/>
<rect x="114.8" y="381.7" width="50.4" height="14.0" rx="3" fill="url(#steel)" stroke="#eef0f4" stroke-width="0.8"/>
<line x1="153.9" y1="381.7" x2="153.9" y2="300.0" stroke="url(#pin)" stroke-width="7.0" stroke-linecap="round"/>
<line x1="126.1" y1="381.7" x2="126.1" y2="300.0" stroke="url(#pin)" stroke-width="7.0" stroke-linecap="round"/>
<circle cx="140.0" cy="367.7" r="2" fill="#2a2d31"/>
<text x="140.0" y="282" fill="#e0b86e" font-size="11" text-anchor="middle">C2</text>
<circle cx="237.8" cy="300.0" r="3.2" fill="#b8924a"/>
<rect x="212.6" y="381.7" width="50.4" height="14.0" rx="3" fill="url(#steel)" stroke="#eef0f4" stroke-width="0.8"/>
<line x1="251.6" y1="381.7" x2="251.6" y2="300.0" stroke="url(#pin)" stroke-width="7.0" stroke-linecap="round"/>
<line x1="223.9" y1="381.7" x2="223.9" y2="300.0" stroke="url(#pin)" stroke-width="7.0" stroke-linecap="round"/>
<circle cx="237.8" cy="367.7" r="2" fill="#2a2d31"/>
<text x="237.8" y="282" fill="#e0b86e" font-size="11" text-anchor="middle">D2</text>
<circle cx="341.2" cy="300.0" r="9.2" fill="#b8924a"/>
<rect x="316.0" y="232.3" width="50.4" height="14.0" rx="3" fill="url(#steel)" stroke="#eef0f4" stroke-width="0.8"/>
<line x1="355.1" y1="218.3" x2="355.1" y2="300.0" stroke="url(#pin)" stroke-width="7.0" stroke-linecap="round"/>
<line x1="327.3" y1="218.3" x2="327.3" y2="300.0" stroke="url(#pin)" stroke-width="7.0" stroke-linecap="round"/>
<circle cx="341.2" cy="232.3" r="2" fill="#2a2d31"/>
<text x="341.2" y="326" fill="#9ad8b0" font-size="11" text-anchor="middle">E2</text>
<circle cx="450.2" cy="300.0" r="8.7" fill="#b8924a"/>
<rect x="425.0" y="232.3" width="50.4" height="14.0" rx="3" fill="url(#steel)" stroke="#eef0f4" stroke-width="0.8"/>
<line x1="464.0" y1="218.3" x2="464.0" y2="300.0" stroke="url(#pin)" stroke-width="7.0" stroke-linecap="round"/>
<line x1="436.3" y1="218.3" x2="436.3" y2="300.0" stroke="url(#pin)" stroke-width="7.0" stroke-linecap="round"/>
<circle cx="450.2" cy="232.3" r="2" fill="#2a2d31"/>
<text x="450.2" y="326" fill="#9ad8b0" font-size="11" text-anchor="middle">F2</text>
<circle cx="558.1" cy="300.0" r="8.2" fill="#b8924a"/>
<rect x="532.9" y="232.3" width="50.4" height="14.0" rx="3" fill="url(#steel)" stroke="#eef0f4" stroke-width="0.8"/>
<line x1="571.9" y1="218.3" x2="571.9" y2="300.0" stroke="url(#pin)" stroke-width="7.0" stroke-linecap="round"/>
<line x1="544.2" y1="218.3" x2="544.2" y2="300.0" stroke="url(#pin)" stroke-width="7.0" stroke-linecap="round"/>
<circle cx="558.1" cy="232.3" r="2" fill="#2a2d31"/>
<text x="558.1" y="326" fill="#9ad8b0" font-size="11" text-anchor="middle">G2</text>
<circle cx="664.9" cy="300.0" r="7.6" fill="#b8924a"/>
<rect x="639.7" y="232.3" width="50.4" height="14.0" rx="3" fill="url(#steel)" stroke="#eef0f4" stroke-width="0.8"/>
<line x1="678.7" y1="218.3" x2="678.7" y2="300.0" stroke="url(#pin)" stroke-width="7.0" stroke-linecap="round"/>
<line x1="651.0" y1="218.3" x2="651.0" y2="300.0" stroke="url(#pin)" stroke-width="7.0" stroke-linecap="round"/>
<circle cx="664.9" cy="232.3" r="2" fill="#2a2d31"/>
<text x="664.9" y="326" fill="#9ad8b0" font-size="11" text-anchor="middle">A2</text>
<circle cx="770.7" cy="300.0" r="7.2" fill="#b8924a"/>
<rect x="745.5" y="381.7" width="50.4" height="14.0" rx="3" fill="url(#steel)" stroke="#eef0f4" stroke-width="0.8"/>
<line x1="784.6" y1="381.7" x2="784.6" y2="300.0" stroke="url(#pin)" stroke-width="7.0" stroke-linecap="round"/>
<line x1="756.9" y1="381.7" x2="756.9" y2="300.0" stroke="url(#pin)" stroke-width="7.0" stroke-linecap="round"/>
<circle cx="770.7" cy="367.7" r="2" fill="#2a2d31"/>
<text x="770.7" y="282" fill="#e0b86e" font-size="11" text-anchor="middle">B2</text>
<text x="470" y="500" fill="#8a8f98" font-size="11" text-anchor="middle">neighbours on opposite bars (e.g. D2↓ next to E2↑) lie in different depth planes — no collision</text>
</svg>