<svg xmlns="http://www.w3.org/2000/svg" width="980" height="560" viewBox="0 0 980 560" font-family="Georgia,serif">
<defs>
<linearGradient id="tan" x1="0" y1="0" x2="0" y2="1"><stop offset="0" stop-color="#f1d79a"/><stop offset="1" stop-color="#d8b56a"/></linearGradient>
<linearGradient id="bar" x1="0" y1="0" x2="0" y2="1"><stop offset="0" stop-color="#d7dade"/><stop offset="1" stop-color="#9aa0a8"/></linearGradient></defs>
<rect width="980" height="560" fill="#13110d"/>
<text x="490" y="32" fill="#eef0f4" font-size="16" text-anchor="middle">C-natural relay (one class, one y-plane) — ternary disc levers + binary links</text>
<path d="M 140,330 L 110,328 Q 100,370 120,400 L 144,396 Q 170,280 180,250 Z" fill="url(#tan)" stroke="#9a7d3e" stroke-width="2"/>
<circle cx="140" cy="330" r="6" fill="#fff" stroke="#7a6a3a" stroke-width="1.5"/>
<line x1="124" y1="342" x2="156" y2="342" stroke="#8a8f98" stroke-width="2"/>
<line x1="126" y1="342" x2="120" y2="350" stroke="#8a8f98" stroke-width="1.5"/>
<line x1="133" y1="342" x2="127" y2="350" stroke="#8a8f98" stroke-width="1.5"/>
<line x1="140" y1="342" x2="134" y2="350" stroke="#8a8f98" stroke-width="1.5"/>
<line x1="147" y1="342" x2="141" y2="350" stroke="#8a8f98" stroke-width="1.5"/>
<line x1="154" y1="342" x2="148" y2="350" stroke="#8a8f98" stroke-width="1.5"/>
<circle cx="118" cy="392" r="6" fill="#fff" stroke="#7a6a3a" stroke-width="1.5"/>
<circle cx="180" cy="250" r="6" fill="#fff" stroke="#7a6a3a" stroke-width="1.5"/>
<text x="140" y="374" fill="#9ad8b0" font-size="10" text-anchor="middle">cBCa (pivot)</text>
<text x="118" y="412" fill="#7fb0ff" font-size="10" text-anchor="middle">cBCi</text>
<text x="184" y="240" fill="#e0b86e" font-size="10">cBCo</text>
<text x="90" y="100" fill="#e0b86e" font-size="12">L bell-crank</text>
<line x1="118" y1="392" x2="118" y2="540" stroke="#7fb0ff" stroke-width="4"/>
<text x="124" y="530" fill="#7fb0ff" font-size="11">control rod ↓ to pillar / pedal</text>
<rect x="180" y="245" width="134.0" height="10" rx="5" fill="url(#bar)" stroke="#6a6f78" stroke-width="0.6" transform="rotate(0.0 180 250)"/>
<path d="M 360,330 L 314,250 Q 360,224 406,250 Z" fill="url(#tan)" stroke="#9a7d3e" stroke-width="2"/>
<circle cx="360" cy="330" r="6" fill="#fff" stroke="#7a6a3a" stroke-width="1.5"/>
<circle cx="314" cy="250" r="6" fill="#fff" stroke="#7a6a3a" stroke-width="1.5"/>
<circle cx="406" cy="250" r="6" fill="#fff" stroke="#7a6a3a" stroke-width="1.5"/>
<line x1="344" y1="342" x2="376" y2="342" stroke="#8a8f98" stroke-width="2"/>
<line x1="346" y1="342" x2="340" y2="350" stroke="#8a8f98" stroke-width="1.5"/>
<line x1="353" y1="342" x2="347" y2="350" stroke="#8a8f98" stroke-width="1.5"/>
<line x1="360" y1="342" x2="354" y2="350" stroke="#8a8f98" stroke-width="1.5"/>
<line x1="367" y1="342" x2="361" y2="350" stroke="#8a8f98" stroke-width="1.5"/>
<line x1="374" y1="342" x2="368" y2="350" stroke="#8a8f98" stroke-width="1.5"/>
<text x="360" y="374" fill="#9ad8b0" font-size="11" text-anchor="middle">c1nta (axle)</text>
<text x="360" y="388" fill="#7d7762" font-size="9" text-anchor="middle">→ disc, y=0</text>
<text x="314" y="238" fill="#c0a0ff" font-size="10" text-anchor="middle">c1nti</text>
<text x="406" y="238" fill="#e0b86e" font-size="10" text-anchor="middle">c1nto</text>
<rect x="406" y="245" width="108.0" height="10" rx="5" fill="url(#bar)" stroke="#6a6f78" stroke-width="0.6" transform="rotate(0.0 406 250)"/>
<path d="M 560,330 L 514,250 Q 560,224 606,250 Z" fill="url(#tan)" stroke="#9a7d3e" stroke-width="2"/>
<circle cx="560" cy="330" r="6" fill="#fff" stroke="#7a6a3a" stroke-width="1.5"/>
<circle cx="514" cy="250" r="6" fill="#fff" stroke="#7a6a3a" stroke-width="1.5"/>
<circle cx="606" cy="250" r="6" fill="#fff" stroke="#7a6a3a" stroke-width="1.5"/>
<line x1="544" y1="342" x2="576" y2="342" stroke="#8a8f98" stroke-width="2"/>
<line x1="546" y1="342" x2="540" y2="350" stroke="#8a8f98" stroke-width="1.5"/>
<line x1="553" y1="342" x2="547" y2="350" stroke="#8a8f98" stroke-width="1.5"/>
<line x1="560" y1="342" x2="554" y2="350" stroke="#8a8f98" stroke-width="1.5"/>
<line x1="567" y1="342" x2="561" y2="350" stroke="#8a8f98" stroke-width="1.5"/>
<line x1="574" y1="342" x2="568" y2="350" stroke="#8a8f98" stroke-width="1.5"/>
<text x="560" y="374" fill="#9ad8b0" font-size="11" text-anchor="middle">c2nta (axle)</text>
<text x="560" y="388" fill="#7d7762" font-size="9" text-anchor="middle">→ disc, y=0</text>
<text x="514" y="238" fill="#c0a0ff" font-size="10" text-anchor="middle">c2nti</text>
<text x="606" y="238" fill="#e0b86e" font-size="10" text-anchor="middle">c2nto</text>
<rect x="606" y="245" width="108.0" height="10" rx="5" fill="url(#bar)" stroke="#6a6f78" stroke-width="0.6" transform="rotate(0.0 606 250)"/>
<path d="M 760,330 L 714,250 Q 760,224 806,250 Z" fill="url(#tan)" stroke="#9a7d3e" stroke-width="2"/>
<circle cx="760" cy="330" r="6" fill="#fff" stroke="#7a6a3a" stroke-width="1.5"/>
<circle cx="714" cy="250" r="6" fill="#fff" stroke="#7a6a3a" stroke-width="1.5"/>
<circle cx="806" cy="250" r="6" fill="#fff" stroke="#7a6a3a" stroke-width="1.5"/>
<line x1="744" y1="342" x2="776" y2="342" stroke="#8a8f98" stroke-width="2"/>
<line x1="746" y1="342" x2="740" y2="350" stroke="#8a8f98" stroke-width="1.5"/>
<line x1="753" y1="342" x2="747" y2="350" stroke="#8a8f98" stroke-width="1.5"/>
<line x1="760" y1="342" x2="754" y2="350" stroke="#8a8f98" stroke-width="1.5"/>
<line x1="767" y1="342" x2="761" y2="350" stroke="#8a8f98" stroke-width="1.5"/>
<line x1="774" y1="342" x2="768" y2="350" stroke="#8a8f98" stroke-width="1.5"/>
<text x="760" y="374" fill="#9ad8b0" font-size="11" text-anchor="middle">c3nta (axle)</text>
<text x="760" y="388" fill="#7d7762" font-size="9" text-anchor="middle">→ disc, y=0</text>
<text x="714" y="238" fill="#c0a0ff" font-size="10" text-anchor="middle">c3nti</text>
<text x="806" y="238" fill="#e0b86e" font-size="10" text-anchor="middle">c3nto</text>
<polyline points="806,250 806,257 814,243 822,257 830,243 838,257 846,243 854,257 864,250" fill="none" stroke="#9ad8b0" stroke-width="2"/>
<line x1="864" y1="238" x2="864" y2="262" stroke="#8a8f98" stroke-width="3"/>
<text x="836" y="232" fill="#9ad8b0" font-size="10" text-anchor="middle">return spring</text>
<text x="490" y="500" fill="#8a8f98" font-size="11" text-anchor="middle">axle hole = grounded pivot (pinned in the bar, carries the disc) · input/output holes take the binary links</text>
<text x="490" y="520" fill="#8a8f98" font-size="11" text-anchor="middle">equal …ta→…ti and …ta→…to arms + equal bars → every disc rotates the same ~60° (parallelogram relay)</text>
</svg>