<svg width="808.366mm" height="1775.159mm" viewBox="0 0 808.366 1775.159" xmlns="http://www.w3.org/2000/svg"><g id="svgGroup" stroke-linecap="round" fill-rule="evenodd" font-size="9pt" stroke="#000" stroke-width="0.25mm" fill="none" style="stroke:#000;stroke-width:0.25mm;fill:none"><path d="M 99.239 175.676 C 117.303 145.094 224.214 446.94 254.855 548.94 C 285.496 650.939 302.837 747.736 325.648 865.337 C 348.459 982.937 375.62 1123.32 434.32 1263.076 C 493.021 1402.831 582.141 1543.94 754.082 1583.871 C 773.077 1588.282 773.049 1611.842 754.082 1616.371 C 588.532 1655.901 531.564 1656.58 422.424 1638.97 C 313.284 1621.36 354.979 1576.121 99.239 1510.701 C 47.589 1494.571 58.983 1144.285 58.983 921.785 C 58.983 699.285 89.999 191.321 99.239 175.676 Z" id="DP" stroke="blue" style="stroke:blue" vector-effect="non-scaling-stroke"/><path d="M 61.842 65.54 C 82.605 -12.703 321.268 -16.403 345.167 30.752 C 414.368 167.282 437.159 263.846 449.058 355.174 C 484.15 624.518 478.16 901.761 521.983 1168.234 C 544.176 1303.181 584.333 1432.482 698.829 1516.569 C 717.614 1530.365 738.069 1549.302 760.858 1554.694 C 829.847 1571.018 820.322 1647.392 754.082 1672.656 C 547.341 1750.891 315.427 1817.615 107.239 1741.841 C -11.898 1698.479 -0.462 1199.396 0.913 921.785 C 1.568 789.575 18.506 354.889 25.634 291.758 C 30.09 252.289 51.606 104.117 61.842 65.54 Z" id="BP" stroke="red" style="stroke:red" vector-effect="non-scaling-stroke"/><path d="M 80.54 120.608 C 91.23 80.128 206.371 56.665 267.126 199.517 C 305.996 290.903 331.257 386.394 351.123 483.512 C 401.698 730.755 404.914 987.781 478.877 1230.22 C 510.724 1334.609 558.964 1438.825 646.369 1508.197 C 686.85 1540.327 808.781 1574.765 780.979 1622.84 C 762.19 1655.329 634.208 1678.197 596.716 1685.783 C 429.752 1719.564 149.279 1710.95 63.953 1531.742 C 22.472 1444.621 29.973 1024.452 29.948 921.785 C 29.883 655.109 16.037 364.792 80.54 120.608 Z" id="SP" stroke="purple" style="stroke:purple" vector-effect="non-scaling-stroke"/><path d="M 99.239 58.376 99.239 1573.276 M 112.689 58.376 112.689 1548.076 M 126.059 58.376 126.059 1522.776 M 139.389 58.376 139.389 1497.576 M 152.719 58.376 152.719 1467.276 M 166.049 58.376 166.049 1436.976 M 179.339 58.376 179.339 1406.676 M 192.599 58.376 192.599 1376.376 M 205.829 58.376 205.829 1340.976 M 219.209 58.376 219.209 1300.576 M 232.739 58.376 232.739 1280.376 M 246.199 58.376 246.199 1245.076 M 259.569 58.376 259.569 1169.276 M 272.899 58.376 272.899 1113.776 M 286.229 58.376 286.229 1048.176 M 299.559 58.376 299.559 982.476 M 312.819 58.376 312.819 921.876 M 326.029 58.376 326.029 851.176 M 339.229 58.376 339.229 790.576 M 352.429 58.376 352.429 724.976 M 366.169 58.376 366.169 679.476 M 380.439 58.376 380.439 628.976 M 394.709 58.376 394.709 583.576 M 408.919 58.376 408.919 543.176 M 423.059 58.376 423.059 507.776 M 437.199 58.376 437.199 472.476 M 451.279 58.376 451.279 442.176 M 465.299 58.376 465.299 411.876 M 479.309 58.376 479.309 386.576 M 493.279 58.376 493.279 361.376 M 507.189 58.376 507.189 336.076 M 521.109 58.376 521.109 320.976 M 535.019 58.376 535.019 295.676 M 548.879 58.376 548.879 280.576 M 562.699 58.376 562.699 265.376 M 576.509 58.376 576.509 250.276 M 590.299 58.376 590.299 235.076 M 604.029 58.376 604.029 219.976 M 617.739 58.376 617.739 204.776 M 631.459 58.376 631.459 189.676 M 645.129 58.376 645.129 179.576 M 658.759 58.376 658.759 169.476 M 672.399 58.376 672.399 159.376 M 686.029 58.376 686.029 149.276 M 699.669 58.376 699.669 139.176 M 713.299 58.376 713.299 129.076 M 726.939 58.376 726.939 118.976" id="strings" stroke="#888" style="stroke:#888" vector-effect="non-scaling-stroke"/></g></svg>