<svg width="808.366mm" height="1775.159mm" viewBox="0 0 808.366 1775.159" xmlns="http://www.w3.org/2000/svg"><g id="svgGroup" stroke-linecap="round" fill-rule="evenodd" font-size="9pt" stroke="#000" stroke-width="0.25mm" fill="none" style="stroke:#000;stroke-width:0.25mm;fill:none"><path d="M 99.239 175.676 C 117.303 145.094 224.214 446.94 254.855 548.94 C 285.496 650.939 302.837 747.736 325.648 865.337 C 348.459 982.937 375.62 1123.32 434.32 1263.076 C 493.021 1402.831 582.141 1543.94 754.082 1583.871 C 773.077 1588.282 773.049 1611.842 754.082 1616.371 C 588.532 1655.901 531.564 1656.58 422.424 1638.97 C 313.284 1621.36 354.979 1576.121 99.239 1510.701 C 47.589 1494.571 58.983 1144.285 58.983 921.785 C 58.983 699.285 89.999 191.321 99.239 175.676 Z" id="DP" stroke="blue" style="stroke:blue" vector-effect="non-scaling-stroke"/><path d="M 61.842 65.54 C 82.605 -12.703 321.268 -16.403 345.167 30.752 C 414.368 167.282 437.159 263.846 449.058 355.174 C 484.15 624.518 478.16 901.761 521.983 1168.234 C 544.176 1303.181 584.333 1432.482 698.829 1516.569 C 717.614 1530.365 738.069 1549.302 760.858 1554.694 C 829.847 1571.018 820.322 1647.392 754.082 1672.656 C 547.341 1750.891 315.427 1817.615 107.239 1741.841 C -11.898 1698.479 -0.462 1199.396 0.913 921.785 C 1.568 789.575 18.506 354.889 25.634 291.758 C 30.09 252.289 51.606 104.117 61.842 65.54 Z" id="BP" stroke="red" style="stroke:red" vector-effect="non-scaling-stroke"/><path d="M 80.54 120.608 C 91.23 80.128 206.371 56.665 267.126 199.517 C 305.996 290.903 331.257 386.394 351.123 483.512 C 401.698 730.755 404.914 987.781 478.877 1230.22 C 510.724 1334.609 558.964 1438.825 646.369 1508.197 C 686.85 1540.327 808.781 1574.765 780.979 1622.84 C 762.19 1655.329 634.208 1678.197 596.716 1685.783 C 429.752 1719.564 149.279 1710.95 63.953 1531.742 C 22.472 1444.621 29.973 1024.452 29.948 921.785 C 29.883 655.109 16.037 364.792 80.54 120.608 Z" id="SP" stroke="purple" style="stroke:purple" vector-effect="non-scaling-stroke"/><path d="M 119.239 168.376 119.239 1683.276 M 132.689 168.376 132.689 1658.076 M 146.059 168.376 146.059 1632.776 M 159.389 168.376 159.389 1607.576 M 172.719 168.376 172.719 1577.276 M 186.049 168.376 186.049 1546.976 M 199.339 168.376 199.339 1516.676 M 212.599 168.376 212.599 1486.376 M 225.829 168.376 225.829 1450.976 M 239.209 168.376 239.209 1410.576 M 252.739 168.376 252.739 1390.376 M 266.199 168.376 266.199 1355.076 M 279.569 168.376 279.569 1279.276 M 292.899 168.376 292.899 1223.776 M 306.229 168.376 306.229 1158.176 M 319.559 168.376 319.559 1092.476 M 332.819 168.376 332.819 1031.876 M 346.029 168.376 346.029 961.176 M 359.229 168.376 359.229 900.576 M 372.429 168.376 372.429 834.976 M 386.169 168.376 386.169 789.476 M 400.439 168.376 400.439 738.976 M 414.709 168.376 414.709 693.576 M 428.919 168.376 428.919 653.176 M 443.059 168.376 443.059 617.776 M 457.199 168.376 457.199 582.476 M 471.279 168.376 471.279 552.176 M 485.299 168.376 485.299 521.876 M 499.309 168.376 499.309 496.576 M 513.279 168.376 513.279 471.376 M 527.189 168.376 527.189 446.076 M 541.109 168.376 541.109 430.976 M 555.019 168.376 555.019 405.676 M 568.879 168.376 568.879 390.576 M 582.699 168.376 582.699 375.376 M 596.509 168.376 596.509 360.276 M 610.299 168.376 610.299 345.076 M 624.029 168.376 624.029 329.976 M 637.739 168.376 637.739 314.776 M 651.459 168.376 651.459 299.676 M 665.129 168.376 665.129 289.576 M 678.759 168.376 678.759 279.476 M 692.399 168.376 692.399 269.376 M 706.029 168.376 706.029 259.276 M 719.669 168.376 719.669 249.176 M 733.299 168.376 733.299 239.076 M 746.939 168.376 746.939 228.976" id="strings" stroke="#888" style="stroke:#888" vector-effect="non-scaling-stroke"/></g></svg>