<svg width="627.7mm" height="1514.9mm" viewBox="0 0 627.7 1514.9" xmlns="http://www.w3.org/2000/svg"><g id="svgGroup" stroke-linecap="round" fill-rule="evenodd" font-size="9pt" stroke="#000" stroke-width="0.25mm" fill="none" style="stroke:#000;stroke-width:0.25mm;fill:none"><path d="M 0 1514.9 L 0 0 C 33.087 30.98 64.854 63.089 93.361 98.45 L 93.361 1416.45 C 64.854 1451.811 33.087 1483.92 0 1514.9 Z M 93.361 98.45 C 103.049 110.467 109.719 124.809 119.971 136.35 L 119.971 1378.55 C 109.719 1390.091 103.049 1404.433 93.361 1416.45 M 119.971 136.35 C 136.937 155.45 133.372 135.96 146.961 164.1 L 146.961 1350.8 C 133.372 1378.94 136.937 1359.45 119.971 1378.55 M 146.961 164.1 C 152.786 176.163 155.283 189.591 160.329 202 L 160.329 1312.9 C 155.283 1325.309 152.786 1338.737 146.961 1350.8 M 160.329 202 C 197.749 294.014 252.424 438.509 309.677 515.05 L 309.677 999.85 C 252.424 1076.391 197.749 1220.886 160.329 1312.9 M 309.677 515.05 C 399.16 634.677 492.935 677.237 627.7 727.15 L 627.7 787.75 C 492.935 837.663 399.16 880.223 309.677 999.85 M 0 1514.9 0 0 M 13.457 1502.3 13.457 12.6 M 26.825 1489.65 26.825 25.25 M 40.155 1477.05 40.155 37.85 M 53.485 1461.9 53.485 53 M 66.815 1446.75 66.815 68.15 M 80.107 1431.6 80.107 83.3 M 106.59 1398.75 106.59 116.15 M 133.504 1368.45 133.504 146.45 M 173.659 1285.15 173.659 229.75 M 186.989 1252.35 186.989 262.55 M 200.319 1219.5 200.319 295.4 M 213.585 1189.2 213.585 325.7 M 226.788 1153.85 226.788 361.05 M 239.991 1123.55 239.991 391.35 M 253.194 1090.75 253.194 424.15 M 266.931 1068 266.931 446.9 M 281.201 1042.75 281.201 472.15 M 295.471 1020.05 295.471 494.85 M 323.82 982.15 323.82 532.75 M 337.963 964.5 337.963 550.4 M 352.043 949.35 352.043 565.55 M 366.059 934.2 366.059 580.7 M 380.075 921.55 380.075 593.35 M 394.04 908.95 394.04 605.95 M 407.954 896.3 407.954 618.6 M 421.868 888.75 421.868 626.15 M 435.782 876.1 435.782 638.8 M 449.645 868.55 449.645 646.35 M 463.458 860.95 463.458 653.95 M 477.271 853.4 477.271 661.5 M 491.059 845.8 491.059 669.1 M 504.795 838.25 504.795 676.65 M 518.506 830.65 518.506 684.25 M 532.217 823.1 532.217 691.8 M 545.89 818.05 545.89 696.85 M 559.525 813 559.525 701.9 M 573.16 807.95 573.16 706.95 M 586.795 802.9 586.795 712 M 600.43 797.85 600.43 717.05 M 614.065 792.8 614.065 722.1 M 627.7 727.15 627.7 787.75" vector-effect="non-scaling-stroke"/></g></svg>