0
SECTION
2
HEADER
9
$INSUNITS
70
4
0
ENDSEC
0
SECTION
2
TABLES
0
TABLE
2
LTYPE
0
LTYPE
72
65
70
0
2
CONTINUOUS
3
______
73
0
40
0
0
LTYPE
72
65
70
0
2
DASHED
3
_ _ _ 
73
2
40
7.5
49
5
49
-2.5
0
LTYPE
72
65
70
0
2
DOTTED
3
. . . 
73
2
40
1.5
49
0.5
49
-1
0
ENDTAB
0
TABLE
2
LAYER
0
ENDTAB
0
ENDSEC
0
SECTION
2
ENTITIES
0
ARC
8
DP
6
CONTINUOUS
10
3.8353462
20
1525.6209162
40
4.3158607
50
114.033519
51
152.7057331
0
ARC
8
DP
6
CONTINUOUS
10
3.1687677
20
1526.7221784
40
3.0428159
50
89.719633
51
111.0140934
0
ARC
8
DP
6
CONTINUOUS
10
-0.1937754
20
1516.7138889
40
13.4810032
50
30.4445282
51
75.4909611
0
ARC
8
DP
6
CONTINUOUS
10
-91.5525338
20
1445.4438304
40
129.2472171
50
27.6218048
51
37.1767305
0
ARC
8
DP
6
CONTINUOUS
10
-418.0491469
20
1268.2428765
40
500.7200074
50
24.2169972
51
28.2660613
0
ARC
8
DP
6
CONTINUOUS
10
-1140.3188968
20
939.7752084
40
1294.168436
50
22.0801894
51
24.3627231
0
ARC
8
DP
6
CONTINUOUS
10
-2245.3653518
20
488.2186149
40
2487.9130458
50
20.7864416
51
22.1503739
0
ARC
8
DP
6
CONTINUOUS
10
-3267.6922948
20
97.7830771
40
3582.2570899
50
20.0439615
51
20.8218325
0
ARC
8
DP
6
CONTINUOUS
10
-3920.1654271
20
-140.5208781
40
4276.8864262
50
18.8412701
51
20.0471839
0
ARC
8
DP
6
CONTINUOUS
10
-3168.7958011
20
114.7889033
40
3483.326023
50
18.038003
51
18.8581043
0
ARC
8
DP
6
CONTINUOUS
10
-1852.7229289
20
542.9917774
40
2099.3443436
50
17.1764698
51
18.0478749
0
ARC
8
DP
6
CONTINUOUS
10
-1069.8685111
20
785.9496618
40
1279.6565092
50
16.7310221
51
17.1347094
0
ARC
8
DP
6
CONTINUOUS
10
-1386.4593572
20
691.8462165
40
1609.9357774
50
14.4485982
51
16.6947165
0
ARC
8
DP
6
CONTINUOUS
10
-2496.2792805
20
420.4355627
40
2752.4102602
50
10.7981158
51
14.1553699
0
ARC
8
DP
6
CONTINUOUS
10
-17808.8025377
20
-2594.1997095
40
18358.8228
50
10.8553539
51
11.0867061
0
ARC
8
DP
6
CONTINUOUS
10
22350.375887
20
5127.1917171
40
22535.9179909
50
190.9062939
51
190.9720211
0
ARC
8
DP
6
CONTINUOUS
10
4103.7935085
20
1564.2792066
40
3944.829619
50
190.6100994
51
192.9962229
0
ARC
8
DP
6
CONTINUOUS
10
1774.4828681
20
1024.9696515
40
1553.9018015
50
192.9348742
51
201.0918487
0
ARC
8
DP
6
CONTINUOUS
10
1454.0090157
20
909.8365363
40
1213.4916685
50
201.4651989
51
202.1948784
0
ARC
8
DP
6
CONTINUOUS
10
1429.2053294
20
899.7305702
40
1186.7082176
50
202.1954884
51
202.7823324
0
ARC
8
DP
6
CONTINUOUS
10
1469.5973851
20
916.7096435
40
1230.5238187
50
202.7829536
51
203.0628796
0
ARC
8
DP
6
CONTINUOUS
10
852.5699764
20
616.4315041
40
546.2752708
50
199.4352769
51
237.2890614
0
ARC
8
DP
6
CONTINUOUS
10
738.0056996
20
482.0207923
40
372.0299012
50
240.9507312
51
257.0830968
0
ARC
8
DP
6
CONTINUOUS
10
650.2596121
20
98.8273733
40
21.0818919
50
57.6997412
51
77.4431178
0
ARC
8
DP
6
CONTINUOUS
10
652.7243944
20
102.7001191
40
16.4913513
50
26.1462351
51
57.7482242
0
ARC
8
DP
6
CONTINUOUS
10
653.5647678
20
103.2066663
40
15.513984
50
0.001244
51
25.8345624
0
ARC
8
DP
6
CONTINUOUS
10
653.5591749
20
103.2070034
40
15.519577
50
359.7315069
51
359.9999988
0
ARC
8
DP
6
CONTINUOUS
10
653.2821181
20
103.255829
40
15.7969311
50
313.8749977
51
359.5591263
0
ARC
8
DP
6
CONTINUOUS
10
651.182551
20
105.4528939
40
18.835879
50
290.3582674
51
313.8467778
0
ARC
8
DP
6
CONTINUOUS
10
649.4785595
20
109.5178773
40
23.24047
50
283.345544
51
290.8103883
0
ARC
8
DP
6
CONTINUOUS
10
56.7760201
20
2580.8410693
40
2564.6444647
50
282.283247
51
283.4853564
0
ARC
8
DP
6
CONTINUOUS
10
305.2014729
20
1432.6428184
40
1389.8806231
50
279.9350469
51
282.3465099
0
ARC
8
DP
6
CONTINUOUS
10
412.5406383
20
814.7127777
40
762.6981848
50
275.6684418
51
280.0013786
0
ARC
8
DP
6
CONTINUOUS
10
437.1209608
20
574.1325005
40
520.8669431
50
270.0699749
51
275.5917037
0
ARC
8
DP
6
CONTINUOUS
10
437.8082404
20
550.9558439
40
497.6899007
50
267.7716778
51
269.9941116
0
ARC
8
DP
6
CONTINUOUS
10
445.3113813
20
684.2968778
40
631.2260774
50
262.3246554
51
267.5617346
0
ARC
8
DP
6
CONTINUOUS
10
524.5753706
20
1298.3501723
40
1250.3691857
50
260.7312979
51
262.4831554
0
ARC
8
DP
6
CONTINUOUS
10
365.5152173
20
333.9317941
40
272.9284084
50
255.3616425
51
261.077612
0
ARC
8
DP
6
CONTINUOUS
10
341.1041024
20
240.8208126
40
176.6707051
50
246.0544433
51
255.3901794
0
ARC
8
DP
6
CONTINUOUS
10
351.8866643
20
261.2004405
40
199.6788664
50
238.3701352
51
245.6001912
0
ARC
8
DP
6
CONTINUOUS
10
427.156824
20
388.3326264
40
347.4095514
50
238.4452101
51
238.7961101
0
ARC
8
DP
6
CONTINUOUS
10
-722.6518573
20
-1412.7118777
40
1789.4318703
50
57.2512353
51
58.6784179
0
ARC
8
DP
6
CONTINUOUS
10
-17.7781928
20
-267.50871
40
444.7572603
50
59.5575613
51
64.720696
0
ARC
8
DP
6
CONTINUOUS
10
-77.0460796
20
-394.0535225
40
584.4931554
50
64.7644535
51
68.8974836
0
ARC
8
DP
6
CONTINUOUS
10
-172.2871726
20
-639.3022266
40
847.5854967
50
68.8599521
51
71.8211766
0
ARC
8
DP
6
CONTINUOUS
10
-296.3786196
20
-1017.1128332
40
1245.2531232
50
71.8199371
51
74.4069315
0
ARC
8
DP
6
CONTINUOUS
10
-423.8782252
20
-1467.5987841
40
1713.432153
50
74.3495871
51
75.6771482
0
ARC
8
DP
6
CONTINUOUS
10
15.9078654
20
222.5303244
40
33.9172764
50
193.13794
51
242.0293285
0
ARC
8
DP
6
CONTINUOUS
10
210.8124419
20
294.1105937
40
241.3312674
50
187.7176683
51
199.1808276
0
ARC
8
DP
6
CONTINUOUS
10
833.9879773
20
388.8441942
40
871.6434625
50
183.3981047
51
188.3873812
0
ARC
8
DP
6
CONTINUOUS
10
2288.3045908
20
482.6613587
40
2328.9758542
50
181.047645
51
183.5813844
0
ARC
8
DP
6
CONTINUOUS
10
5404.0399438
20
546.8663143
40
5445.3690786
50
179.9199709
51
181.1236831
0
ARC
8
DP
6
CONTINUOUS
10
9642.809128
20
554.057178
40
9684.1329598
50
179.8625745
51
179.9975443
0
ARC
8
DP
6
CONTINUOUS
10
20567.4047573
20
514.5205222
40
20608.796308
50
179.5621953
51
179.8255048
0
ARC
8
DP
6
CONTINUOUS
10
-38324.4824675
20
949.4598488
40
38284.6980302
50
359.5847483
51
359.6691162
0
ARC
8
DP
6
CONTINUOUS
10
-9830.666232
20
785.6770957
40
9790.411127
50
359.664603
51
359.975502
0
ARC
8
DP
6
CONTINUOUS
10
3477.538989
20
776.9253472
40
3517.7979518
50
178.8203542
51
179.9256374
0
ARC
8
DP
6
CONTINUOUS
10
6868.870532
20
708.0755247
40
6909.8282347
50
177.9582981
51
178.8285048
0
ARC
8
DP
6
CONTINUOUS
10
11690.5084858
20
538.3405349
40
11734.4525511
50
177.2399873
51
177.968809
0
ARC
8
DP
6
CONTINUOUS
10
14410.8963299
20
411.9365625
40
14457.7721755
50
176.8333679
51
177.2587584
0
ARC
8
DP
6
CONTINUOUS
10
13373.5904485
20
470.7554693
40
13418.8010704
50
176.4205233
51
176.8394665
0
ARC
8
DP
6
CONTINUOUS
10
11733.4527116
20
571.6903819
40
11775.5614318
50
176.3978278
51
176.4124427
0
ARC
8
DP
6
CONTINUOUS
10
9480.4469932
20
716.4870407
40
9517.9099938
50
175.9135139
51
176.415634
0
ARC
8
DP
6
CONTINUOUS
10
5425.0957215
20
1006.4664129
40
5452.2044137
50
175.3664113
51
175.9161301
0
ARC
8
DP
6
CONTINUOUS
10
2335.0431931
20
1259.2612958
40
2351.8307037
50
174.3180755
51
175.4235205
0
ARC
8
DP
6
CONTINUOUS
10
531.1446923
20
1441.0771505
40
538.7992124
50
171.6978764
51
174.5654335
0
ARC
8
DP
6
CONTINUOUS
10
33.1241382
20
1515.3822055
40
35.3055667
50
159.7535707
51
174.3209188
0
ARC
8
BP
6
CONTINUOUS
10
17.6317416
20
1620.3930436
40
57.6969717
50
122.1708534
51
162.5071402
0
ARC
8
BP
6
CONTINUOUS
10
69.0408364
20
1547.0754713
40
147.1983603
50
107.748002
51
123.9142746
0
ARC
8
BP
6
CONTINUOUS
10
121.3231632
20
1386.3709211
40
316.1927137
50
94.9706398
51
107.8941046
0
ARC
8
BP
6
CONTINUOUS
10
132.9644258
20
1296.8852549
40
406.368686
50
94.0154394
51
95.5126275
0
ARC
8
BP
6
CONTINUOUS
10
133.4792774
20
1289.8268596
40
413.4458076
50
90.0107126
51
94.018117
0
ARC
8
BP
6
CONTINUOUS
10
134.8142967
20
1355.2945403
40
347.9809856
50
81.9342367
51
90.2325422
0
ARC
8
BP
6
CONTINUOUS
10
156.9261671
20
1507.4111767
40
194.2674058
50
72.487223
51
82.0963626
0
ARC
8
BP
6
CONTINUOUS
10
192.0578426
20
1615.9121679
40
80.2282183
50
56.3901844
51
73.0966737
0
ARC
8
BP
6
CONTINUOUS
10
220.513788
20
1658.4490476
40
29.051445
50
28.9786532
51
56.6924166
0
ARC
8
BP
6
CONTINUOUS
10
-878.9758525
20
1099.0552669
40
1262.646057
50
22.31452
51
27.0121939
0
ARC
8
BP
6
CONTINUOUS
10
-579.2982898
20
1222.0545332
40
938.708623
50
16.2238869
51
22.3143047
0
ARC
8
BP
6
CONTINUOUS
10
-517.7337272
20
1242.7533805
40
873.816739
50
8.1304915
51
16.0485568
0
ARC
8
BP
6
CONTINUOUS
10
-801.1467402
20
1198.3770731
40
1160.6634692
50
7.4117771
51
8.3204324
0
ARC
8
BP
6
CONTINUOUS
10
-4655.8025173
20
748.0904487
40
5041.4542184
50
2.9026942
51
6.8352918
0
ARC
8
BP
6
CONTINUOUS
10
-86031.6391653
20
-4252.834711
40
86570.5385576
50
3.4652599
51
3.4809162
0
ARC
8
BP
6
CONTINUOUS
10
4751.6272258
20
1169.4584715
40
4375.124483
50
182.484811
51
188.3375892
0
ARC
8
BP
6
CONTINUOUS
10
1040.2424185
20
606.6698863
40
621.6388429
50
186.6165612
51
212.928394
0
ARC
8
BP
6
CONTINUOUS
10
816.1121808
20
481.9126674
40
366.0986763
50
215.6087167
51
233.7413633
0
ARC
8
BP
6
CONTINUOUS
10
254.6971366
20
-277.9564114
40
578.6736326
50
51.9404831
51
53.4156307
0
ARC
8
BP
6
CONTINUOUS
10
1537.9509882
20
1371.3997418
40
1511.0947381
50
232.1830742
51
232.3772131
0
ARC
8
BP
6
CONTINUOUS
10
719.142658
20
299.3018875
40
162.2017686
50
230.2790533
51
245.4315197
0
ARC
8
BP
6
CONTINUOUS
10
677.5217723
20
214.7695846
40
68.071246
50
247.7096434
51
256.4897374
0
ARC
8
BP
6
CONTINUOUS
10
643.8802331
20
70.4311668
40
80.1387333
50
61.4681502
51
77.2116199
0
ARC
8
BP
6
CONTINUOUS
10
656.2114315
20
92.6717752
40
54.7096506
50
36.3924384
51
61.6885291
0
ARC
8
BP
6
CONTINUOUS
10
662.0644389
20
97.625047
40
47.0621175
50
359.6160455
51
35.7659478
0
ARC
8
BP
6
CONTINUOUS
10
655.5014272
20
97.3954241
40
53.6241412
50
348.906992
51
359.9083779
0
ARC
8
BP
6
CONTINUOUS
10
643.6701556
20
100.420058
40
65.8199407
50
321.5740171
51
348.3048095
0
ARC
8
BP
6
CONTINUOUS
10
627.8576211
20
112.4699605
40
85.6975933
50
301.7414338
51
321.8330964
0
ARC
8
BP
6
CONTINUOUS
10
618.3365075
20
127.0236722
40
103.0843927
50
290.7408566
51
301.9862895
0
ARC
8
BP
6
CONTINUOUS
10
55.5009004
20
1519.2547611
40
1604.7568054
50
279.5669843
51
291.9303035
0
ARC
8
BP
6
CONTINUOUS
10
204.1275359
20
735.974994
40
807.8351269
50
270.20659
51
278.4052936
0
ARC
8
BP
6
CONTINUOUS
10
201.3340068
20
505.7033813
40
577.5864516
50
250.4440383
51
270.5660677
0
ARC
8
BP
6
CONTINUOUS
10
47.3040362
20
44.0787432
40
91.513909
50
201.4253321
51
244.5649904
0
ARC
8
BP
6
CONTINUOUS
10
315.9987411
20
173.7214584
40
389.6493385
50
191.1809245
51
204.7404787
0
ARC
8
BP
6
CONTINUOUS
10
1085.9167679
20
337.1158862
40
1176.6890056
50
184.8811284
51
191.7165528
0
ARC
8
BP
6
CONTINUOUS
10
3031.1282326
20
508.895295
40
3129.4674989
50
180.863346
51
184.9844032
0
ARC
8
BP
6
CONTINUOUS
10
6771.8174513
20
593.0707105
40
6871.0566363
50
179.9398871
51
181.0951831
0
ARC
8
BP
6
CONTINUOUS
10
12429.9040239
20
597.6588769
40
12529.1397013
50
179.7103866
51
179.9880154
0
ARC
8
BP
6
CONTINUOUS
10
28519.2379677
20
515.7256131
40
28618.6822571
50
179.5935187
51
179.709174
0
ARC
8
BP
6
CONTINUOUS
10
-107042.6420558
20
1461.7417019
40
106946.4988486
50
359.6019485
51
359.6191591
0
ARC
8
BP
6
CONTINUOUS
10
-19417.8616524
20
879.6264679
40
19319.7848951
50
359.6181837
51
359.708963
0
ARC
8
BP
6
CONTINUOUS
10
2998.4381693
20
762.2320926
40
3096.8240547
50
178.9147309
51
179.6436797
0
ARC
8
BP
6
CONTINUOUS
10
7198.0137733
20
685.8586949
40
7297.0935524
50
178.5125877
51
178.9397147
0
ARC
8
BP
6
CONTINUOUS
10
14307.3285338
20
501.3931964
40
14408.8010742
50
178.1368677
51
178.5131263
0
ARC
8
BP
6
CONTINUOUS
10
21833.2160223
20
260.2917614
40
21938.5489692
50
177.8552926
51
178.1465521
0
ARC
8
BP
6
CONTINUOUS
10
22612.3864383
20
233.7188431
40
22718.1681738
50
177.5990066
51
177.8618624
0
ARC
8
BP
6
CONTINUOUS
10
18988.9017948
20
384.5462265
40
19091.545997
50
177.4961885
51
177.5956946
0
ARC
8
BP
6
CONTINUOUS
10
14502.3799509
20
582.6315165
40
14600.6539559
50
177.2442761
51
177.5036392
0
ARC
8
BP
6
CONTINUOUS
10
8949.0223687
20
849.9304011
40
9040.867168
50
176.9689296
51
177.2442503
0
ARC
8
BP
6
CONTINUOUS
10
4643.2115307
20
1079.3590967
40
4728.9487314
50
176.4937646
51
176.9862224
0
ARC
8
BP
6
CONTINUOUS
10
1806.3361457
20
1253.8540767
40
1886.7120572
50
175.7301357
51
176.5142052
0
ARC
8
BP
6
CONTINUOUS
10
428.0469722
20
1358.0823956
40
504.4899058
50
173.9198219
51
175.8800015
0
ARC
8
BP
6
CONTINUOUS
10
895.7320768
20
1300.4098729
40
975.6840597
50
172.6494579
51
173.4611346
0
ARC
8
BP
6
CONTINUOUS
10
2354.3908235
20
1113.8077917
40
2446.2297801
50
172.212231
51
172.6857983
0
ARC
8
BP
6
CONTINUOUS
10
4121.9573709
20
872.5935117
40
4230.1792385
50
171.7780228
51
172.2193142
0
ARC
8
BP
6
CONTINUOUS
10
4894.3036349
20
762.0259411
40
5010.3991171
50
171.2481142
51
171.7896988
0
ARC
8
BP
6
CONTINUOUS
10
4002.6665733
20
899.4601445
40
4108.2324051
50
170.8415212
51
171.2504312
0
ARC
8
BP
6
CONTINUOUS
10
2837.0433757
20
1087.7084221
40
2927.5060576
50
170.3251316
51
170.8478062
0
ARC
8
BP
6
CONTINUOUS
10
1636.3678743
20
1293.196296
40
1709.373932
50
169.4518788
51
170.3513883
0
ARC
8
BP
6
CONTINUOUS
10
742.4533981
20
1459.9949885
40
800.0309554
50
168.1518805
51
169.4761516
0
ARC
8
BP
6
CONTINUOUS
10
243.0270979
20
1565.4395046
40
289.595863
50
165.6129166
51
168.2818279
0
ARC
8
BP
6
CONTINUOUS
10
100.3580709
20
1601.185718
40
142.5215166
50
165.1402127
51
165.2816516
0
ARC
8
SP
6
CONTINUOUS
10
14.4686262
20
1572.3396844
40
34.7385309
50
123.1545778
51
162.7035425
0
ARC
8
SP
6
CONTINUOUS
10
32.8079893
20
1547.0735292
40
65.9389849
50
101.117155
51
124.4890383
0
ARC
8
SP
6
CONTINUOUS
10
37.8674146
20
1526.4515584
40
87.1551238
50
89.8611869
51
101.7668405
0
ARC
8
SP
6
CONTINUOUS
10
37.7915179
20
1513.5372971
40
100.0695411
50
75.4846594
51
89.8356459
0
ARC
8
SP
6
CONTINUOUS
10
34.2838324
20
1499.8851099
40
114.1651247
50
62.4595921
51
75.4977337
0
ARC
8
SP
6
CONTINUOUS
10
29.4839488
20
1489.9916678
40
125.1572379
50
59.6481777
51
62.6053923
0
ARC
8
SP
6
CONTINUOUS
10
21.0076417
20
1476.5293237
40
141.0584954
50
46.7262371
51
59.4402513
0
ARC
8
SP
6
CONTINUOUS
10
-3.6812693
20
1450.1705345
40
177.1738831
50
36.5363426
51
46.7562754
0
ARC
8
SP
6
CONTINUOUS
10
-42.8604212
20
1420.9318236
40
226.0603436
50
28.5169418
51
36.5789424
0
ARC
8
SP
6
CONTINUOUS
10
-92.9559967
20
1393.3359411
40
283.2531039
50
22.9444714
51
28.5839523
0
ARC
8
SP
6
CONTINUOUS
10
-1198.9675702
20
945.0660253
40
1476.6276634
50
10.7212263
51
22.2319721
0
ARC
8
SP
6
CONTINUOUS
10
-3646.5104856
20
474.4588516
40
3968.9997896
50
6.4336057
51
10.8233494
0
LINE
8
SP
6
CONTINUOUS
10
297.4940052
20
919.1923743
11
297.5365497
21
918.8540479
0
ARC
8
SP
6
CONTINUOUS
10
2935.2438476
20
1174.1744147
40
2650.0355241
50
185.5287963
51
195.3413704
0
ARC
8
SP
6
CONTINUOUS
10
920.0425203
20
607.9972726
40
556.9974799
50
194.0202906
51
226.8420817
0
ARC
8
SP
6
CONTINUOUS
10
773.1917565
20
479.8894871
40
363.621962
50
229.915565
51
231.5600218
0
ARC
8
SP
6
CONTINUOUS
10
630.0021537
20
302.0486237
40
135.3155358
50
232.2341234
51
239.5067236
0
ARC
8
SP
6
CONTINUOUS
10
761.4478236
20
523.4689478
40
392.8124093
50
239.3742341
51
242.9453725
0
ARC
8
SP
6
CONTINUOUS
10
2465.9459464
20
3852.1637078
40
4132.5344802
50
242.8905022
51
243.315788
0
ARC
8
SP
6
CONTINUOUS
10
416.578138
20
-235.5754639
40
440.180025
50
57.4059096
51
63.9135516
0
ARC
8
SP
6
CONTINUOUS
10
589.1858628
20
34.7514247
40
119.4466314
50
44.4796971
51
57.3112417
0
ARC
8
SP
6
CONTINUOUS
10
647.0560781
20
90.136326
40
39.363994
50
12.789378
51
45.9791918
0
ARC
8
SP
6
CONTINUOUS
10
660.9116518
20
94.5358493
40
24.9083114
50
0.0344466
51
9.9745672
0
ARC
8
SP
6
CONTINUOUS
10
659.9194534
20
94.665505
40
25.9007592
50
338.9869157
51
359.7463109
0
ARC
8
SP
6
CONTINUOUS
10
653.0313841
20
97.1660492
40
33.2276868
50
329.7683522
51
339.2208698
0
ARC
8
SP
6
CONTINUOUS
10
648.9484097
20
101.62456
40
39.0415608
50
302.8187437
51
327.1311389
0
ARC
8
SP
6
CONTINUOUS
10
601.359465
20
170.7318513
40
122.937205
50
293.2000463
51
304.0017994
0
ARC
8
SP
6
CONTINUOUS
10
527.7421633
20
337.9929695
40
305.678893
50
287.4891044
51
293.5323663
0
ARC
8
SP
6
CONTINUOUS
10
435.193827
20
625.2480743
40
607.4715205
50
284.3365218
51
287.6723684
0
ARC
8
SP
6
CONTINUOUS
10
328.1239906
20
1041.1983142
40
1036.9808125
50
282.1610027
51
284.3773687
0
ARC
8
SP
6
CONTINUOUS
10
195.5405137
20
1649.5029293
40
1659.5653814
50
281.3265241
51
282.2115156
0
ARC
8
SP
6
CONTINUOUS
10
-195.5658332
20
3597.3941523
40
3646.3326056
50
281.1260228
51
281.341029
0
ARC
8
SP
6
CONTINUOUS
10
956.2107896
20
-2265.233812
40
2328.3638864
50
101.097273
51
101.362739
0
ARC
8
SP
6
CONTINUOUS
10
345.3979026
20
776.3632056
40
773.9586816
50
276.0213635
51
281.3320771
0
ARC
8
SP
6
CONTINUOUS
10
336.9527629
20
846.0479748
40
844.1455806
50
270.026898
51
276.0952558
0
ARC
8
SP
6
CONTINUOUS
10
336.9109067
20
780.6317602
40
778.7293962
50
265.9985945
51
270.0322372
0
ARC
8
SP
6
CONTINUOUS
10
304.751079
20
507.103724
40
503.7915966
50
242.3907699
51
267.4765988
0
ARC
8
SP
6
CONTINUOUS
10
191.3716388
20
282.7681248
40
252.4811195
50
206.1398804
51
241.5971631
0
ARC
8
SP
6
CONTINUOUS
10
116.9097684
20
238.1036647
40
166.1176456
50
191.4056681
51
203.6243269
0
ARC
8
SP
6
CONTINUOUS
10
510.5066492
20
324.7074447
40
569.111663
50
186.6749179
51
192.1162576
0
ARC
8
SP
6
CONTINUOUS
10
1346.8532522
20
426.9530521
40
1411.6804819
50
183.7736433
51
186.8510251
0
ARC
8
SP
6
CONTINUOUS
10
3235.2517493
20
549.4346184
40
3304.0464055
50
181.2056137
51
183.7377691
0
ARC
8
SP
6
CONTINUOUS
10
5909.4195322
20
619.5715004
40
5979.1139606
50
180.5198599
51
181.3383898
0
ARC
8
SP
6
CONTINUOUS
10
8297.8570141
20
642.4945326
40
8367.6612077
50
180.0132765
51
180.528429
0
ARC
8
SP
6
CONTINUOUS
10
10034.121929
20
645.2818807
40
10103.9270034
50
179.9999452
51
180.0268011
0
ARC
8
SP
6
CONTINUOUS
10
11652.6918963
20
644.2255403
40
11722.4970192
50
179.788564
51
179.9947898
0
ARC
8
SP
6
CONTINUOUS
10
17994.1345797
20
620.8562993
40
18063.9827622
50
179.6832644
51
179.7886668
0
ARC
8
SP
6
CONTINUOUS
10
31742.4231656
20
548.0690602
40
31812.463811
50
179.681137
51
179.689055
0
ARC
8
SP
6
CONTINUOUS
10
35783.0441828
20
525.686621
40
35853.1468187
50
179.68044
51
179.6813043
0
ARC
8
SP
6
CONTINUOUS
10
36937.7493845
20
519.2607224
40
37007.8699001
50
179.6792203
51
179.6804623
0
ARC
8
SP
6
CONTINUOUS
10
40139.7304015
20
501.347604
40
40209.9010231
50
179.6781149
51
179.6792401
0
ARC
8
SP
6
CONTINUOUS
10
44287.3211127
20
478.0531026
40
44357.5571494
50
179.6771197
51
179.6781236
0
ARC
8
SP
6
CONTINUOUS
10
46625.8113709
20
464.8610674
40
46696.0846171
50
179.6761642
51
179.6771028
0
ARC
8
SP
6
CONTINUOUS
10
49461.9098777
20
448.8070414
40
49532.228561
50
179.6752651
51
179.6761362
0
LINE
8
SP
6
CONTINUOUS
10
-69.52313
20
729.5390199
11
-69.5203252
21
730.0335009
0
LINE
8
SP
6
CONTINUOUS
10
-69.5203252
20
730.0335009
11
-69.4344176
21
745.031908
0
ARC
8
SP
6
CONTINUOUS
10
-14526.213443
20
829.6368011
40
14457.0265884
50
359.6646938
51
359.7430561
0
ARC
8
SP
6
CONTINUOUS
10
-3930.4017772
20
782.7482567
40
3861.1112476
50
359.7337243
51
359.9736648
0
ARC
8
SP
6
CONTINUOUS
10
-2190.2323585
20
780.9756879
40
2120.9414211
50
359.9999422
51
0.0139208
0
ARC
8
SP
6
CONTINUOUS
10
-16132.2538134
20
756.2813756
40
16062.9825957
50
0.0899214
51
0.5216118
0
ARC
8
SP
6
CONTINUOUS
10
15887.9978588
20
1047.5428481
40
15958.5937313
50
180.0729013
51
180.5207001
0
ARC
8
SP
6
CONTINUOUS
10
7130.6830115
20
1027.7956595
40
7201.2659878
50
179.7597905
51
180.0044396
0
ARC
8
SP
6
CONTINUOUS
10
2426.8331968
20
1094.2432881
40
2497.6160621
50
170.8861192
51
180.8317669
0
ARC
8
SP
6
CONTINUOUS
10
1167.0428832
20
1271.4047654
40
1225.9154192
50
165.2914253
51
169.7352584
0
LINE
8
strings
6
CONTINUOUS
10
1
20
199
11
1
21
100
0
LINE
8
soundboard
6
CONTINUOUS
10
10
20
180
11
16
21
174
0
LINE
8
soundboard
6
CONTINUOUS
10
16
20
174
11
22
21
168
0
LINE
8
neck
6
CONTINUOUS
10
5
20
195
11
8
21
192
0
CIRCLE
8
pins
6
CONTINUOUS
10
50
20
140
40
2
0
CIRCLE
8
pins
6
CONTINUOUS
10
55
20
135
40
2
0
CIRCLE
8
natural
6
CONTINUOUS
10
10
20
190
40
1
0
CIRCLE
8
sharp
6
CONTINUOUS
10
20
20
180
40
1
0
CIRCLE
8
sharp
6
CONTINUOUS
10
25
20
175
40
1
0
CIRCLE
8
midi
6
CONTINUOUS
10
30
20
170
40
1
0
ENDSEC
0
EOF