0
SECTION
2
HEADER
9
$INSUNITS
70
4
0
ENDSEC
0
SECTION
2
TABLES
0
TABLE
2
LTYPE
0
LTYPE
72
65
70
0
2
CONTINUOUS
3
______
73
0
40
0
0
LTYPE
72
65
70
0
2
DASHED
3
_ _ _ 
73
2
40
7.5
49
5
49
-2.5
0
LTYPE
72
65
70
0
2
DOTTED
3
. . . 
73
2
40
1.5
49
0.5
49
-1
0
ENDTAB
0
TABLE
2
LAYER
0
ENDTAB
0
ENDSEC
0
SECTION
2
ENTITIES
0
LINE
8
0
6
CONTINUOUS
10
20
20
0
11
20
21
1514.9
0
LINE
8
0
6
CONTINUOUS
10
33.457
20
12.6
11
33.457
21
1502.3
0
LINE
8
0
6
CONTINUOUS
10
46.825
20
25.25
11
46.825
21
1489.65
0
LINE
8
0
6
CONTINUOUS
10
60.155
20
37.85
11
60.155
21
1477.05
0
LINE
8
0
6
CONTINUOUS
10
73.485
20
53
11
73.485
21
1461.9
0
LINE
8
0
6
CONTINUOUS
10
86.815
20
68.15
11
86.815
21
1446.75
0
LINE
8
0
6
CONTINUOUS
10
100.107
20
83.3
11
100.107
21
1431.6
0
LINE
8
0
6
CONTINUOUS
10
113.361
20
98.45
11
113.361
21
1416.45
0
LINE
8
0
6
CONTINUOUS
10
126.5895
20
116.15
11
126.5895
21
1398.75
0
LINE
8
0
6
CONTINUOUS
10
139.9705
20
136.35
11
139.9705
21
1378.55
0
LINE
8
0
6
CONTINUOUS
10
153.504
20
146.45
11
153.504
21
1368.45
0
LINE
8
0
6
CONTINUOUS
10
166.961
20
164.1
11
166.961
21
1350.8
0
LINE
8
0
6
CONTINUOUS
10
180.329
20
202
11
180.329
21
1312.9
0
LINE
8
0
6
CONTINUOUS
10
193.659
20
229.75
11
193.659
21
1285.15
0
LINE
8
0
6
CONTINUOUS
10
206.989
20
262.55
11
206.989
21
1252.35
0
LINE
8
0
6
CONTINUOUS
10
220.319
20
295.4
11
220.319
21
1219.5
0
LINE
8
0
6
CONTINUOUS
10
233.5855
20
325.7
11
233.5855
21
1189.2
0
LINE
8
0
6
CONTINUOUS
10
246.7885
20
361.05
11
246.7885
21
1153.85
0
LINE
8
0
6
CONTINUOUS
10
259.9915
20
391.35
11
259.9915
21
1123.55
0
LINE
8
0
6
CONTINUOUS
10
273.1945
20
424.15
11
273.1945
21
1090.75
0
LINE
8
0
6
CONTINUOUS
10
286.931
20
446.9
11
286.931
21
1068
0
LINE
8
0
6
CONTINUOUS
10
301.201
20
472.15
11
301.201
21
1042.75
0
LINE
8
0
6
CONTINUOUS
10
315.471
20
494.85
11
315.471
21
1020.05
0
LINE
8
0
6
CONTINUOUS
10
329.6775
20
515.05
11
329.6775
21
999.85
0
LINE
8
0
6
CONTINUOUS
10
343.8205
20
532.75
11
343.8205
21
982.15
0
LINE
8
0
6
CONTINUOUS
10
357.9635
20
550.4
11
357.9635
21
964.5
0
LINE
8
0
6
CONTINUOUS
10
372.043
20
565.55
11
372.043
21
949.35
0
LINE
8
0
6
CONTINUOUS
10
386.059
20
580.7
11
386.059
21
934.2
0
LINE
8
0
6
CONTINUOUS
10
400.075
20
593.35
11
400.075
21
921.55
0
LINE
8
0
6
CONTINUOUS
10
414.04
20
605.95
11
414.04
21
908.95
0
LINE
8
0
6
CONTINUOUS
10
427.954
20
618.6
11
427.954
21
896.3
0
LINE
8
0
6
CONTINUOUS
10
441.868
20
626.15
11
441.868
21
888.75
0
LINE
8
0
6
CONTINUOUS
10
455.782
20
638.8
11
455.782
21
876.1
0
LINE
8
0
6
CONTINUOUS
10
469.6455
20
646.35
11
469.6455
21
868.55
0
LINE
8
0
6
CONTINUOUS
10
483.4585
20
653.95
11
483.4585
21
860.95
0
LINE
8
0
6
CONTINUOUS
10
497.2715
20
661.5
11
497.2715
21
853.4
0
LINE
8
0
6
CONTINUOUS
10
511.059
20
669.1
11
511.059
21
845.8
0
LINE
8
0
6
CONTINUOUS
10
524.7955
20
676.65
11
524.7955
21
838.25
0
LINE
8
0
6
CONTINUOUS
10
538.5065
20
684.25
11
538.5065
21
830.65
0
LINE
8
0
6
CONTINUOUS
10
552.2175
20
691.8
11
552.2175
21
823.1
0
LINE
8
0
6
CONTINUOUS
10
565.8905
20
696.85
11
565.8905
21
818.05
0
LINE
8
0
6
CONTINUOUS
10
579.5255
20
701.9
11
579.5255
21
813
0
LINE
8
0
6
CONTINUOUS
10
593.1605
20
706.95
11
593.1605
21
807.95
0
LINE
8
0
6
CONTINUOUS
10
606.7955
20
712
11
606.7955
21
802.9
0
LINE
8
0
6
CONTINUOUS
10
620.4305
20
717.05
11
620.4305
21
797.85
0
LINE
8
0
6
CONTINUOUS
10
634.0655
20
722.1
11
634.0655
21
792.8
0
LINE
8
0
6
CONTINUOUS
10
647.7005
20
727.15
11
647.7005
21
787.75
0
ARC
8
0
6
CONTINUOUS
10
-634.9513748
20
714.5886714
40
969.3287743
50
312.5066022
51
320.5329506
0
ARC
8
0
6
CONTINUOUS
10
-34.715995
20
213.3316073
40
187.415528
50
322.1948508
51
328.6248698
0
LINE
8
0
6
CONTINUOUS
10
125.2950472
20
115.7557572
11
125.3903511
21
115.905706
0
ARC
8
0
6
CONTINUOUS
10
260.0890956
20
35.2644858
40
156.9928602
50
139.9177927
51
149.0919566
0
ARC
8
0
6
CONTINUOUS
10
196.9111764
20
85.98564
40
76.0184805
50
135.2333749
51
138.5070534
0
ARC
8
0
6
CONTINUOUS
10
176.2840119
20
106.5142444
40
46.9169403
50
130.6756996
51
135.2930228
0
ARC
8
0
6
CONTINUOUS
10
163.8960199
20
120.99878
40
27.8575428
50
124.0012972
51
130.7692751
0
ARC
8
0
6
CONTINUOUS
10
158.0018219
20
129.7595192
40
17.2985721
50
114.3428969
51
124.0432645
0
ARC
8
0
6
CONTINUOUS
10
159.4523153
20
125.540611
40
21.7442945
50
105.090512
51
113.2427715
0
LINE
8
0
6
CONTINUOUS
10
153.7913051
20
146.53507
11
153.791939
21
146.5352588
0
ARC
8
0
6
CONTINUOUS
10
150.3358747
20
158.9696345
40
12.9057381
50
285.53297
51
293.6494513
0
ARC
8
0
6
CONTINUOUS
10
152.152036
20
154.3993611
40
7.9925575
50
294.8659471
51
315.000012
0
ARC
8
0
6
CONTINUOUS
10
146.3798903
20
160.3099686
40
16.2538063
50
314.6548741
51
323.7767819
0
ARC
8
0
6
CONTINUOUS
10
130.9134394
20
171.8166895
40
35.5309007
50
323.5460527
51
328.6583858
0
ARC
8
0
6
CONTINUOUS
10
99.5524105
20
191.1159415
40
72.3542752
50
328.5229606
51
331.4554556
0
ARC
8
0
6
CONTINUOUS
10
48.5181925
20
219.0712049
40
130.5433805
50
331.3804468
51
333.0686877
0
ARC
8
0
6
CONTINUOUS
10
-29.0031233
20
258.5265505
40
217.5277248
50
333.0514857
51
334.2726141
0
ARC
8
0
6
CONTINUOUS
10
30.7161833
20
225.669783
40
149.5108299
50
335.6815273
51
344.4032489
0
ARC
8
0
6
CONTINUOUS
10
15529.833537
20
-4524.9496469
40
16061.3675382
50
162.9448667
51
162.9457843
0
ARC
8
0
6
CONTINUOUS
10
361.4224695
20
131.3940497
40
194.3708951
50
158.6998471
51
163.7706394
0
ARC
8
0
6
CONTINUOUS
10
-3517.0973558
20
1705.6356278
40
3991.4761377
50
337.8698561
51
337.8844462
0
ARC
8
0
6
CONTINUOUS
10
-3666.8416468
20
1766.4869934
40
4153.1122763
50
337.884457
51
337.8984215
0
ARC
8
0
6
CONTINUOUS
10
-3866.048812
20
1847.3792964
40
4368.1170654
50
337.8984668
51
337.9183172
0
ARC
8
0
6
CONTINUOUS
10
-4138.9308636
20
1958.0843598
40
4662.6000449
50
337.9183085
51
337.9367857
0
ARC
8
0
6
CONTINUOUS
10
-4423.1453764
20
2073.27838
40
4969.2717774
50
337.9367966
51
337.9540194
0
ARC
8
0
6
CONTINUOUS
10
-4739.5098965
20
2201.3934591
40
5310.592716
50
337.9540185
51
337.9700261
0
ARC
8
0
6
CONTINUOUS
10
-5083.5334049
20
2340.598575
40
5681.7129643
50
337.9700149
51
337.9848745
0
ARC
8
0
6
CONTINUOUS
10
-5462.0609018
20
2493.6508337
40
6090.0119475
50
337.984866
51
337.9986324
0
ARC
8
0
6
CONTINUOUS
10
-5893.1312567
20
2667.8285816
40
6554.9415537
50
337.9986158
51
338.0113149
0
ARC
8
0
6
CONTINUOUS
10
-6365.5760483
20
2858.6017014
40
7064.4496147
50
338.0113032
51
338.0230011
0
ARC
8
0
6
CONTINUOUS
10
-6917.4845503
20
3081.3297146
40
7659.6056971
50
338.0229998
51
338.0337093
0
ARC
8
0
6
CONTINUOUS
10
-7524.1580779
20
3326.0249355
40
8313.7681541
50
338.0337202
51
338.0435134
0
ARC
8
0
6
CONTINUOUS
10
-8243.9588309
20
3616.2058254
40
9089.8596906
50
338.0435239
51
338.052413
0
ARC
8
0
6
CONTINUOUS
10
15194.5551475
20
-5800.3746606
40
16169.52098
50
157.9187387
51
158.1453
0
ARC
8
0
6
CONTINUOUS
10
3249.7790821
20
-955.1271302
40
3279.4434806
50
156.6966179
51
157.9110812
0
ARC
8
0
6
CONTINUOUS
10
1507.4433634
20
-196.4992291
40
1379.149497
50
151.8972753
51
157.0071139
0
ARC
8
0
6
CONTINUOUS
10
779.9942776
20
190.7315567
40
555.0579344
50
145.0999422
51
151.7847939
0
ARC
8
0
6
CONTINUOUS
10
604.0917475
20
309.9034605
40
342.6197336
50
143.2189537
51
144.6144619
0
ARC
8
0
6
CONTINUOUS
10
769.0346451
20
190.8423953
40
546.0268051
50
131.9385304
51
143.5758801
0
ARC
8
0
6
CONTINUOUS
10
803.628423
20
125.0731741
40
618.3387834
50
109.4060381
51
130.2497527
0
ARC
8
0
6
CONTINUOUS
10
1272.8557346
20
-998.5125626
40
1835.3034865
50
111.0585191
51
111.5683277
0
ARC
8
0
6
CONTINUOUS
10
1626.7044507
20
-1922.1455092
40
2824.3964721
50
110.2809699
51
111.0247546
0
ARC
8
0
6
CONTINUOUS
10
-634.9513748
20
800.3113286
40
969.3287743
50
39.4670494
51
47.4933978
0
ARC
8
0
6
CONTINUOUS
10
-34.715995
20
1301.5683927
40
187.415528
50
31.3751302
51
37.8051492
0
LINE
8
0
6
CONTINUOUS
10
125.2950472
20
1399.1442428
11
125.3903511
21
1398.994294
0
ARC
8
0
6
CONTINUOUS
10
260.0890956
20
1479.6355142
40
156.9928602
50
210.9080434
51
220.0822073
0
ARC
8
0
6
CONTINUOUS
10
196.9111764
20
1428.91436
40
76.0184805
50
221.4929466
51
224.7666251
0
ARC
8
0
6
CONTINUOUS
10
176.2840119
20
1408.3857556
40
46.9169403
50
224.7069772
51
229.3243004
0
ARC
8
0
6
CONTINUOUS
10
163.8960199
20
1393.90122
40
27.8575428
50
229.2307249
51
235.9987028
0
ARC
8
0
6
CONTINUOUS
10
158.0018219
20
1385.1404808
40
17.2985721
50
235.9567355
51
245.6571031
0
ARC
8
0
6
CONTINUOUS
10
159.4523153
20
1389.359389
40
21.7442945
50
246.7572285
51
254.909488
0
LINE
8
0
6
CONTINUOUS
10
153.7913051
20
1368.36493
11
153.791939
21
1368.3647412
0
ARC
8
0
6
CONTINUOUS
10
150.3358747
20
1355.9303655
40
12.9057381
50
66.3505487
51
74.46703
0
ARC
8
0
6
CONTINUOUS
10
152.152036
20
1360.5006389
40
7.9925575
50
44.999988
51
65.1340529
0
ARC
8
0
6
CONTINUOUS
10
146.3798903
20
1354.5900314
40
16.2538063
50
36.2232181
51
45.3451259
0
ARC
8
0
6
CONTINUOUS
10
130.9134394
20
1343.0833105
40
35.5309007
50
31.3416142
51
36.4539473
0
ARC
8
0
6
CONTINUOUS
10
99.5524105
20
1323.7840585
40
72.3542752
50
28.5445444
51
31.4770394
0
ARC
8
0
6
CONTINUOUS
10
48.5181925
20
1295.8287951
40
130.5433805
50
26.9313123
51
28.6195532
0
ARC
8
0
6
CONTINUOUS
10
-29.0031233
20
1256.3734495
40
217.5277248
50
25.7273859
51
26.9485143
0
ARC
8
0
6
CONTINUOUS
10
30.7161833
20
1289.230217
40
149.5108299
50
15.5967511
51
24.3184727
0
ARC
8
0
6
CONTINUOUS
10
15529.8327268
20
6039.8493983
40
16061.3666907
50
197.0542157
51
197.0551333
0
ARC
8
0
6
CONTINUOUS
10
361.4224695
20
1383.5059503
40
194.3708951
50
196.2293606
51
201.3001529
0
ARC
8
0
6
CONTINUOUS
10
-3517.0973708
20
-190.735634
40
3991.4761539
50
22.1155538
51
22.1301439
0
ARC
8
0
6
CONTINUOUS
10
-3666.8416698
20
-251.5870027
40
4153.1123012
50
22.1015785
51
22.115543
0
ARC
8
0
6
CONTINUOUS
10
-3866.0488104
20
-332.4792957
40
4368.1170637
50
22.0816828
51
22.1015332
0
ARC
8
0
6
CONTINUOUS
10
-4138.9308655
20
-443.1843606
40
4662.6000469
50
22.0632143
51
22.0816915
0
ARC
8
0
6
CONTINUOUS
10
-4423.1453699
20
-558.3783774
40
4969.2717704
50
22.0459806
51
22.0632034
0
ARC
8
0
6
CONTINUOUS
10
-4739.5098864
20
-686.493455
40
5310.5927052
50
22.0299739
51
22.0459815
0
ARC
8
0
6
CONTINUOUS
10
-5083.5333991
20
-825.6985726
40
5681.712958
50
22.0151255
51
22.0299851
0
ARC
8
0
6
CONTINUOUS
10
-5462.0609255
20
-978.7508432
40
6090.0119731
50
22.0013676
51
22.015134
0
ARC
8
0
6
CONTINUOUS
10
-5893.1312567
20
-1152.9285816
40
6554.9415537
50
21.9886851
51
22.0013842
0
ARC
8
0
6
CONTINUOUS
10
-6365.5760435
20
-1343.7016995
40
7064.4496096
50
21.9769989
51
21.9886968
0
ARC
8
0
6
CONTINUOUS
10
-6917.4845391
20
-1566.4297101
40
7659.6056851
50
21.9662907
51
21.9770002
0
ARC
8
0
6
CONTINUOUS
10
-7524.1580779
20
-1811.1249355
40
8313.7681541
50
21.9564866
51
21.9662798
0
ARC
8
0
6
CONTINUOUS
10
-8243.9588472
20
-2101.305832
40
9089.8597081
50
21.947587
51
21.9564761
0
ARC
8
0
6
CONTINUOUS
10
15194.5551475
20
7315.2746606
40
16169.52098
50
201.8547
51
202.0812613
0
ARC
8
0
6
CONTINUOUS
10
3249.7790821
20
2470.0271302
40
3279.4434806
50
202.0889188
51
203.3033821
0
ARC
8
0
6
CONTINUOUS
10
1507.4433634
20
1711.3992291
40
1379.149497
50
202.9928861
51
208.1027247
0
ARC
8
0
6
CONTINUOUS
10
779.9942776
20
1324.1684433
40
555.0579344
50
208.2152061
51
214.9000578
0
ARC
8
0
6
CONTINUOUS
10
604.0917475
20
1204.9965395
40
342.6197336
50
215.3855381
51
216.7810463
0
ARC
8
0
6
CONTINUOUS
10
769.0346451
20
1324.0576047
40
546.0268051
50
216.4241199
51
228.0614696
0
ARC
8
0
6
CONTINUOUS
10
803.628423
20
1389.8268259
40
618.3387834
50
229.7502473
51
250.5939619
0
ARC
8
0
6
CONTINUOUS
10
1272.8557346
20
2513.4125626
40
1835.3034865
50
248.4316723
51
248.9414809
0
ARC
8
0
6
CONTINUOUS
10
1626.7044507
20
3437.0455092
40
2824.3964721
50
248.9752454
51
249.7190301
0
LINE
8
0
6
CONTINUOUS
10
647.7005
20
787.75
11
647.7005
21
727.15
0
LINE
8
0
6
CONTINUOUS
10
20
20
0
11
20
21
1514.9
0
ENDSEC
0
EOF